M48
; DRILL file {KiCad (5.1.10-1-10_14)} date Friday, February 04, 2022 at 01:42:04 PM
; FORMAT={-:-/ absolute / inch / decimal}
; #@! TF.CreationDate,2022-02-04T13:42:04-08:00
; #@! TF.GenerationSoftware,Kicad,Pcbnew,(5.1.10-1-10_14)
; #@! TF.FileFunction,Plated,1,2,PTH
FMAT,2
INCH
T1C0.0276
T2C0.0300
T3C0.0354
T4C0.0394
T5C0.0866
%
G90
G05
T1
X3.45Y-2.75
X3.65Y-2.75
T2
X3.77Y-2.11
X3.77Y-2.21
X3.77Y-2.31
X3.77Y-2.41
X3.7788Y-2.9492
X3.7788Y-3.0492
X3.7788Y-3.1492
X3.7788Y-3.2492
X4.07Y-2.11
X4.07Y-2.21
X4.07Y-2.31
X4.07Y-2.41
X4.0788Y-2.9492
X4.0788Y-3.0492
X4.0788Y-3.1492
X4.0788Y-3.2492
X4.5488Y-2.1081
X4.5488Y-2.2081
X4.5488Y-2.3081
X4.5488Y-2.4081
X4.5528Y-2.9481
X4.5528Y-3.0481
X4.5528Y-3.1481
X4.5528Y-3.2481
X4.8488Y-2.1081
X4.8488Y-2.2081
X4.8488Y-2.3081
X4.8488Y-2.4081
X4.8528Y-2.9481
X4.8528Y-3.0481
X4.8528Y-3.1481
X4.8528Y-3.2481
X4.9091Y-3.9348
X4.9091Y-4.0348
X4.9091Y-4.1348
X4.9091Y-4.2348
X4.9091Y-4.3348
X4.9091Y-4.4348
X4.9091Y-4.5348
X4.9091Y-4.6348
X4.9091Y-4.7348
X4.9091Y-4.8348
X4.9091Y-4.9348
X4.9091Y-5.0348
X4.9091Y-5.1348
X4.9091Y-5.2348
X4.9091Y-5.3348
X5.325Y-2.0992
X5.325Y-2.1992
X5.325Y-2.2992
X5.325Y-2.3992
X5.3328Y-2.9492
X5.3328Y-3.0492
X5.3328Y-3.1492
X5.3328Y-3.2492
X5.625Y-2.0992
X5.625Y-2.1992
X5.625Y-2.2992
X5.625Y-2.3992
X5.6328Y-2.9492
X5.6328Y-3.0492
X5.6328Y-3.1492
X5.6328Y-3.2492
X5.913Y-3.9348
X5.913Y-4.0348
X5.913Y-4.1348
X5.913Y-4.2348
X5.913Y-4.3348
X5.913Y-4.4348
X5.913Y-4.5348
X5.913Y-4.6348
X5.913Y-4.7348
X5.913Y-4.8348
X5.913Y-4.9348
X5.913Y-5.0348
X5.913Y-5.1348
X5.913Y-5.2348
X5.913Y-5.3348
X6.075Y-2.9481
X6.075Y-3.0481
X6.075Y-3.1481
X6.075Y-3.2481
X6.08Y-2.0921
X6.08Y-2.1921
X6.08Y-2.2921
X6.08Y-2.3921
X6.375Y-2.9481
X6.375Y-3.0481
X6.375Y-3.1481
X6.375Y-3.2481
X6.38Y-2.0921
X6.38Y-2.1921
X6.38Y-2.2921
X6.38Y-2.3921
X6.855Y-2.09
X6.855Y-2.19
X6.855Y-2.29
X6.855Y-2.39
X6.8668Y-2.9492
X6.8668Y-3.0492
X6.8668Y-3.1492
X6.8668Y-3.2492
X7.155Y-2.09
X7.155Y-2.19
X7.155Y-2.29
X7.155Y-2.39
X7.1668Y-2.9492
X7.1668Y-3.0492
X7.1668Y-3.1492
X7.1668Y-3.2492
T3
X3.45Y-2.5
X3.45Y-2.6
T4
X3.42Y-3.2
X3.42Y-3.3
X4.05Y-5.65
X4.15Y-5.65
X4.26Y-3.35
X4.36Y-3.35
X4.39Y-5.65
T5
X3.4Y-2.15
X3.4Y-5.55
X7.4Y-2.15
X7.4Y-5.55
T0
M30
