%TF.GenerationSoftware,KiCad,Pcbnew,(5.1.10-1-10_14)*%
%TF.CreationDate,2022-02-04T13:42:09-08:00*%
%TF.ProjectId,Senser_Splitter,53656e73-6572-45f5-9370-6c6974746572,rev?*%
%TF.SameCoordinates,Original*%
%TF.FileFunction,Soldermask,Top*%
%TF.FilePolarity,Negative*%
%FSLAX46Y46*%
G04 Gerber Fmt 4.6, Leading zero omitted, Abs format (unit mm)*
G04 Created by KiCad (PCBNEW (5.1.10-1-10_14)) date 2022-02-04 13:42:09*
%MOMM*%
%LPD*%
G01*
G04 APERTURE LIST*
%ADD10O,1.400000X1.400000*%
%ADD11C,1.400000*%
%ADD12C,1.800000*%
%ADD13R,1.800000X1.800000*%
%ADD14C,3.800000*%
%ADD15C,2.600000*%
%ADD16C,1.524000*%
%ADD17R,1.700000X1.700000*%
%ADD18O,1.700000X1.700000*%
G04 APERTURE END LIST*
D10*
%TO.C,R101*%
X92710000Y-69850000D03*
D11*
X87630000Y-69850000D03*
%TD*%
D12*
%TO.C,D101*%
X87630000Y-63500000D03*
D13*
X87630000Y-66040000D03*
%TD*%
D14*
%TO.C,H104*%
X86360000Y-140970000D03*
D15*
X86360000Y-140970000D03*
%TD*%
D14*
%TO.C,H103*%
X86360000Y-54610000D03*
D15*
X86360000Y-54610000D03*
%TD*%
D14*
%TO.C,H102*%
X187960000Y-140970000D03*
D15*
X187960000Y-140970000D03*
%TD*%
D14*
%TO.C,H101*%
X187960000Y-54610000D03*
D15*
X187960000Y-54610000D03*
%TD*%
D16*
%TO.C,U101*%
X124690000Y-99945000D03*
X124690000Y-102485000D03*
X124690000Y-105025000D03*
X124690000Y-107565000D03*
X124690000Y-110105000D03*
X124690000Y-112645000D03*
X124690000Y-115185000D03*
X124690000Y-117725000D03*
X124690000Y-120265000D03*
X124690000Y-122805000D03*
X124690000Y-125345000D03*
X124690000Y-127885000D03*
X124690000Y-130425000D03*
X124690000Y-132965000D03*
X124690000Y-135505000D03*
X150190000Y-99945000D03*
X150190000Y-102485000D03*
X150190000Y-105025000D03*
X150190000Y-107565000D03*
X150190000Y-110105000D03*
X150190000Y-112645000D03*
X150190000Y-115185000D03*
X150190000Y-117725000D03*
X150190000Y-120265000D03*
X150190000Y-122805000D03*
X150190000Y-125345000D03*
X150190000Y-127885000D03*
X150190000Y-130425000D03*
X150190000Y-132965000D03*
X150190000Y-135505000D03*
%TD*%
%TO.C,J114*%
X174117000Y-60706000D03*
X174117000Y-58166000D03*
X174117000Y-55626000D03*
X174117000Y-53086000D03*
X181737000Y-53086000D03*
X181737000Y-55626000D03*
X181737000Y-58166000D03*
X181737000Y-60706000D03*
%TD*%
%TO.C,J113*%
X95758000Y-61214000D03*
X95758000Y-58674000D03*
X95758000Y-56134000D03*
X95758000Y-53594000D03*
X103378000Y-53594000D03*
X103378000Y-56134000D03*
X103378000Y-58674000D03*
X103378000Y-61214000D03*
%TD*%
%TO.C,J112*%
X174415999Y-82528999D03*
X174415999Y-79988999D03*
X174415999Y-77448999D03*
X174415999Y-74908999D03*
X182035999Y-74908999D03*
X182035999Y-77448999D03*
X182035999Y-79988999D03*
X182035999Y-82528999D03*
%TD*%
%TO.C,J111*%
X115640999Y-82502999D03*
X115640999Y-79962999D03*
X115640999Y-77422999D03*
X115640999Y-74882999D03*
X123260999Y-74882999D03*
X123260999Y-77422999D03*
X123260999Y-79962999D03*
X123260999Y-82502999D03*
%TD*%
D17*
%TO.C,J110*%
X111506000Y-143510000D03*
%TD*%
D16*
%TO.C,J109*%
X154432000Y-60759999D03*
X154432000Y-58219999D03*
X154432000Y-55679999D03*
X154432000Y-53139999D03*
X162052000Y-53139999D03*
X162052000Y-55679999D03*
X162052000Y-58219999D03*
X162052000Y-60759999D03*
%TD*%
%TO.C,J108*%
X115539999Y-61166999D03*
X115539999Y-58626999D03*
X115539999Y-56086999D03*
X115539999Y-53546999D03*
X123159999Y-53546999D03*
X123159999Y-56086999D03*
X123159999Y-58626999D03*
X123159999Y-61166999D03*
%TD*%
D18*
%TO.C,J107*%
X105410000Y-143510000D03*
D17*
X102870000Y-143510000D03*
%TD*%
D16*
%TO.C,J106*%
X154305000Y-82502999D03*
X154305000Y-79962999D03*
X154305000Y-77422999D03*
X154305000Y-74882999D03*
X161925000Y-74882999D03*
X161925000Y-77422999D03*
X161925000Y-79962999D03*
X161925000Y-82502999D03*
%TD*%
%TO.C,J105*%
X135452999Y-82528999D03*
X135452999Y-79988999D03*
X135452999Y-77448999D03*
X135452999Y-74908999D03*
X143072999Y-74908999D03*
X143072999Y-77448999D03*
X143072999Y-79988999D03*
X143072999Y-82528999D03*
%TD*%
D18*
%TO.C,J104*%
X86868000Y-81280000D03*
D17*
X86868000Y-83820000D03*
%TD*%
D18*
%TO.C,J103*%
X108204000Y-85090000D03*
D17*
X110744000Y-85090000D03*
%TD*%
D16*
%TO.C,J102*%
X95981999Y-82528999D03*
X95981999Y-79988999D03*
X95981999Y-77448999D03*
X95981999Y-74908999D03*
X103601999Y-74908999D03*
X103601999Y-77448999D03*
X103601999Y-79988999D03*
X103601999Y-82528999D03*
%TD*%
%TO.C,J101*%
X135255000Y-60938999D03*
X135255000Y-58398999D03*
X135255000Y-55858999D03*
X135255000Y-53318999D03*
X142875000Y-53318999D03*
X142875000Y-55858999D03*
X142875000Y-58398999D03*
X142875000Y-60938999D03*
%TD*%
%TO.C,100nf110*%
G36*
G01*
X93614001Y-75515500D02*
X92313999Y-75515500D01*
G75*
G02*
X92064000Y-75265501I0J249999D01*
G01*
X92064000Y-74440499D01*
G75*
G02*
X92313999Y-74190500I249999J0D01*
G01*
X93614001Y-74190500D01*
G75*
G02*
X93864000Y-74440499I0J-249999D01*
G01*
X93864000Y-75265501D01*
G75*
G02*
X93614001Y-75515500I-249999J0D01*
G01*
G37*
G36*
G01*
X93614001Y-78640500D02*
X92313999Y-78640500D01*
G75*
G02*
X92064000Y-78390501I0J249999D01*
G01*
X92064000Y-77565499D01*
G75*
G02*
X92313999Y-77315500I249999J0D01*
G01*
X93614001Y-77315500D01*
G75*
G02*
X93864000Y-77565499I0J-249999D01*
G01*
X93864000Y-78390501D01*
G75*
G02*
X93614001Y-78640500I-249999J0D01*
G01*
G37*
%TD*%
%TO.C,100nf109*%
G36*
G01*
X171592001Y-53456000D02*
X170291999Y-53456000D01*
G75*
G02*
X170042000Y-53206001I0J249999D01*
G01*
X170042000Y-52380999D01*
G75*
G02*
X170291999Y-52131000I249999J0D01*
G01*
X171592001Y-52131000D01*
G75*
G02*
X171842000Y-52380999I0J-249999D01*
G01*
X171842000Y-53206001D01*
G75*
G02*
X171592001Y-53456000I-249999J0D01*
G01*
G37*
G36*
G01*
X171592001Y-56581000D02*
X170291999Y-56581000D01*
G75*
G02*
X170042000Y-56331001I0J249999D01*
G01*
X170042000Y-55505999D01*
G75*
G02*
X170291999Y-55256000I249999J0D01*
G01*
X171592001Y-55256000D01*
G75*
G02*
X171842000Y-55505999I0J-249999D01*
G01*
X171842000Y-56331001D01*
G75*
G02*
X171592001Y-56581000I-249999J0D01*
G01*
G37*
%TD*%
%TO.C,100nf108*%
G36*
G01*
X112664001Y-75046000D02*
X111363999Y-75046000D01*
G75*
G02*
X111114000Y-74796001I0J249999D01*
G01*
X111114000Y-73970999D01*
G75*
G02*
X111363999Y-73721000I249999J0D01*
G01*
X112664001Y-73721000D01*
G75*
G02*
X112914000Y-73970999I0J-249999D01*
G01*
X112914000Y-74796001D01*
G75*
G02*
X112664001Y-75046000I-249999J0D01*
G01*
G37*
G36*
G01*
X112664001Y-78171000D02*
X111363999Y-78171000D01*
G75*
G02*
X111114000Y-77921001I0J249999D01*
G01*
X111114000Y-77095999D01*
G75*
G02*
X111363999Y-76846000I249999J0D01*
G01*
X112664001Y-76846000D01*
G75*
G02*
X112914000Y-77095999I0J-249999D01*
G01*
X112914000Y-77921001D01*
G75*
G02*
X112664001Y-78171000I-249999J0D01*
G01*
G37*
%TD*%
%TO.C,100nf107*%
G36*
G01*
X172100001Y-75300000D02*
X170799999Y-75300000D01*
G75*
G02*
X170550000Y-75050001I0J249999D01*
G01*
X170550000Y-74224999D01*
G75*
G02*
X170799999Y-73975000I249999J0D01*
G01*
X172100001Y-73975000D01*
G75*
G02*
X172350000Y-74224999I0J-249999D01*
G01*
X172350000Y-75050001D01*
G75*
G02*
X172100001Y-75300000I-249999J0D01*
G01*
G37*
G36*
G01*
X172100001Y-78425000D02*
X170799999Y-78425000D01*
G75*
G02*
X170550000Y-78175001I0J249999D01*
G01*
X170550000Y-77349999D01*
G75*
G02*
X170799999Y-77100000I249999J0D01*
G01*
X172100001Y-77100000D01*
G75*
G02*
X172350000Y-77349999I0J-249999D01*
G01*
X172350000Y-78175001D01*
G75*
G02*
X172100001Y-78425000I-249999J0D01*
G01*
G37*
%TD*%
%TO.C,100nf106*%
G36*
G01*
X93360001Y-53748500D02*
X92059999Y-53748500D01*
G75*
G02*
X91810000Y-53498501I0J249999D01*
G01*
X91810000Y-52673499D01*
G75*
G02*
X92059999Y-52423500I249999J0D01*
G01*
X93360001Y-52423500D01*
G75*
G02*
X93610000Y-52673499I0J-249999D01*
G01*
X93610000Y-53498501D01*
G75*
G02*
X93360001Y-53748500I-249999J0D01*
G01*
G37*
G36*
G01*
X93360001Y-56873500D02*
X92059999Y-56873500D01*
G75*
G02*
X91810000Y-56623501I0J249999D01*
G01*
X91810000Y-55798499D01*
G75*
G02*
X92059999Y-55548500I249999J0D01*
G01*
X93360001Y-55548500D01*
G75*
G02*
X93610000Y-55798499I0J-249999D01*
G01*
X93610000Y-56623501D01*
G75*
G02*
X93360001Y-56873500I-249999J0D01*
G01*
G37*
%TD*%
%TO.C,100nf105*%
G36*
G01*
X132984001Y-53925500D02*
X131683999Y-53925500D01*
G75*
G02*
X131434000Y-53675501I0J249999D01*
G01*
X131434000Y-52850499D01*
G75*
G02*
X131683999Y-52600500I249999J0D01*
G01*
X132984001Y-52600500D01*
G75*
G02*
X133234000Y-52850499I0J-249999D01*
G01*
X133234000Y-53675501D01*
G75*
G02*
X132984001Y-53925500I-249999J0D01*
G01*
G37*
G36*
G01*
X132984001Y-57050500D02*
X131683999Y-57050500D01*
G75*
G02*
X131434000Y-56800501I0J249999D01*
G01*
X131434000Y-55975499D01*
G75*
G02*
X131683999Y-55725500I249999J0D01*
G01*
X132984001Y-55725500D01*
G75*
G02*
X133234000Y-55975499I0J-249999D01*
G01*
X133234000Y-56800501D01*
G75*
G02*
X132984001Y-57050500I-249999J0D01*
G01*
G37*
%TD*%
%TO.C,100nf104*%
G36*
G01*
X151780001Y-75046000D02*
X150479999Y-75046000D01*
G75*
G02*
X150230000Y-74796001I0J249999D01*
G01*
X150230000Y-73970999D01*
G75*
G02*
X150479999Y-73721000I249999J0D01*
G01*
X151780001Y-73721000D01*
G75*
G02*
X152030000Y-73970999I0J-249999D01*
G01*
X152030000Y-74796001D01*
G75*
G02*
X151780001Y-75046000I-249999J0D01*
G01*
G37*
G36*
G01*
X151780001Y-78171000D02*
X150479999Y-78171000D01*
G75*
G02*
X150230000Y-77921001I0J249999D01*
G01*
X150230000Y-77095999D01*
G75*
G02*
X150479999Y-76846000I249999J0D01*
G01*
X151780001Y-76846000D01*
G75*
G02*
X152030000Y-77095999I0J-249999D01*
G01*
X152030000Y-77921001D01*
G75*
G02*
X151780001Y-78171000I-249999J0D01*
G01*
G37*
%TD*%
%TO.C,100nf103*%
G36*
G01*
X113172001Y-53671500D02*
X111871999Y-53671500D01*
G75*
G02*
X111622000Y-53421501I0J249999D01*
G01*
X111622000Y-52596499D01*
G75*
G02*
X111871999Y-52346500I249999J0D01*
G01*
X113172001Y-52346500D01*
G75*
G02*
X113422000Y-52596499I0J-249999D01*
G01*
X113422000Y-53421501D01*
G75*
G02*
X113172001Y-53671500I-249999J0D01*
G01*
G37*
G36*
G01*
X113172001Y-56796500D02*
X111871999Y-56796500D01*
G75*
G02*
X111622000Y-56546501I0J249999D01*
G01*
X111622000Y-55721499D01*
G75*
G02*
X111871999Y-55471500I249999J0D01*
G01*
X113172001Y-55471500D01*
G75*
G02*
X113422000Y-55721499I0J-249999D01*
G01*
X113422000Y-56546501D01*
G75*
G02*
X113172001Y-56796500I-249999J0D01*
G01*
G37*
%TD*%
%TO.C,100nf102*%
G36*
G01*
X152034001Y-53456000D02*
X150733999Y-53456000D01*
G75*
G02*
X150484000Y-53206001I0J249999D01*
G01*
X150484000Y-52380999D01*
G75*
G02*
X150733999Y-52131000I249999J0D01*
G01*
X152034001Y-52131000D01*
G75*
G02*
X152284000Y-52380999I0J-249999D01*
G01*
X152284000Y-53206001D01*
G75*
G02*
X152034001Y-53456000I-249999J0D01*
G01*
G37*
G36*
G01*
X152034001Y-56581000D02*
X150733999Y-56581000D01*
G75*
G02*
X150484000Y-56331001I0J249999D01*
G01*
X150484000Y-55505999D01*
G75*
G02*
X150733999Y-55256000I249999J0D01*
G01*
X152034001Y-55256000D01*
G75*
G02*
X152284000Y-55505999I0J-249999D01*
G01*
X152284000Y-56331001D01*
G75*
G02*
X152034001Y-56581000I-249999J0D01*
G01*
G37*
%TD*%
%TO.C,100nf101*%
G36*
G01*
X132984001Y-75300000D02*
X131683999Y-75300000D01*
G75*
G02*
X131434000Y-75050001I0J249999D01*
G01*
X131434000Y-74224999D01*
G75*
G02*
X131683999Y-73975000I249999J0D01*
G01*
X132984001Y-73975000D01*
G75*
G02*
X133234000Y-74224999I0J-249999D01*
G01*
X133234000Y-75050001D01*
G75*
G02*
X132984001Y-75300000I-249999J0D01*
G01*
G37*
G36*
G01*
X132984001Y-78425000D02*
X131683999Y-78425000D01*
G75*
G02*
X131434000Y-78175001I0J249999D01*
G01*
X131434000Y-77349999D01*
G75*
G02*
X131683999Y-77100000I249999J0D01*
G01*
X132984001Y-77100000D01*
G75*
G02*
X133234000Y-77349999I0J-249999D01*
G01*
X133234000Y-78175001D01*
G75*
G02*
X132984001Y-78425000I-249999J0D01*
G01*
G37*
%TD*%
M02*
