%TF.GenerationSoftware,KiCad,Pcbnew,(5.1.10)-1*%
%TF.CreationDate,2021-12-13T10:36:09-08:00*%
%TF.ProjectId,Ethernet Splitter,45746865-726e-4657-9420-53706c697474,rev?*%
%TF.SameCoordinates,Original*%
%TF.FileFunction,Copper,L1,Top*%
%TF.FilePolarity,Positive*%
%FSLAX46Y46*%
G04 Gerber Fmt 4.6, Leading zero omitted, Abs format (unit mm)*
G04 Created by KiCad (PCBNEW (5.1.10)-1) date 2021-12-13 10:36:09*
%MOMM*%
%LPD*%
G01*
G04 APERTURE LIST*
%TA.AperFunction,ComponentPad*%
%ADD10O,1.700000X1.700000*%
%TD*%
%TA.AperFunction,ComponentPad*%
%ADD11R,1.700000X1.700000*%
%TD*%
%TA.AperFunction,ComponentPad*%
%ADD12C,1.500000*%
%TD*%
%TA.AperFunction,ComponentPad*%
%ADD13C,2.300000*%
%TD*%
%TA.AperFunction,ComponentPad*%
%ADD14R,1.500000X1.500000*%
%TD*%
%TA.AperFunction,ViaPad*%
%ADD15C,0.800000*%
%TD*%
%TA.AperFunction,Conductor*%
%ADD16C,0.250000*%
%TD*%
G04 APERTURE END LIST*
D10*
%TO.P,J112,2*%
%TO.N,7*%
X134620000Y-109220000D03*
D11*
%TO.P,J112,1*%
%TO.N,8*%
X134620000Y-106680000D03*
%TD*%
D12*
%TO.P,J111,12*%
%TO.N,Net-(J111-Pad12)*%
X217030000Y-85360000D03*
%TO.P,J111,11*%
%TO.N,Net-(J111-Pad11)*%
X214740000Y-85360000D03*
%TO.P,J111,10*%
%TO.N,Net-(J111-Pad10)*%
X205600000Y-85360000D03*
%TO.P,J111,9*%
%TO.N,Net-(J111-Pad9)*%
X203310000Y-85360000D03*
D13*
%TO.P,J111,SH*%
%TO.N,8*%
X202040000Y-79650000D03*
X218300000Y-79650000D03*
D12*
%TO.P,J111,8*%
X213722000Y-80540000D03*
%TO.P,J111,6*%
%TO.N,6*%
X211690000Y-80540000D03*
%TO.P,J111,4*%
%TO.N,4*%
X209658000Y-80540000D03*
%TO.P,J111,2*%
%TO.N,2*%
X207626000Y-80540000D03*
%TO.P,J111,7*%
%TO.N,7*%
X212706000Y-78760000D03*
%TO.P,J111,5*%
%TO.N,5*%
X210674000Y-78760000D03*
%TO.P,J111,3*%
%TO.N,3*%
X208642000Y-78760000D03*
D14*
%TO.P,J111,1*%
%TO.N,1*%
X206610000Y-78760000D03*
%TD*%
D12*
%TO.P,J110,12*%
%TO.N,Net-(J110-Pad12)*%
X144520000Y-100080000D03*
%TO.P,J110,11*%
%TO.N,Net-(J110-Pad11)*%
X146810000Y-100080000D03*
%TO.P,J110,10*%
%TO.N,Net-(J110-Pad10)*%
X155950000Y-100080000D03*
%TO.P,J110,9*%
%TO.N,Net-(J110-Pad9)*%
X158240000Y-100080000D03*
D13*
%TO.P,J110,SH*%
%TO.N,8*%
X159510000Y-105790000D03*
X143250000Y-105790000D03*
D12*
%TO.P,J110,8*%
X147828000Y-104900000D03*
%TO.P,J110,6*%
%TO.N,6*%
X149860000Y-104900000D03*
%TO.P,J110,4*%
%TO.N,4*%
X151892000Y-104900000D03*
%TO.P,J110,2*%
%TO.N,2*%
X153924000Y-104900000D03*
%TO.P,J110,7*%
%TO.N,7*%
X148844000Y-106680000D03*
%TO.P,J110,5*%
%TO.N,5*%
X150876000Y-106680000D03*
%TO.P,J110,3*%
%TO.N,3*%
X152908000Y-106680000D03*
D14*
%TO.P,J110,1*%
%TO.N,1*%
X154940000Y-106680000D03*
%TD*%
D12*
%TO.P,J109,12*%
%TO.N,Net-(J109-Pad12)*%
X194170000Y-85340000D03*
%TO.P,J109,11*%
%TO.N,Net-(J109-Pad11)*%
X191880000Y-85340000D03*
%TO.P,J109,10*%
%TO.N,Net-(J109-Pad10)*%
X182740000Y-85340000D03*
%TO.P,J109,9*%
%TO.N,Net-(J109-Pad9)*%
X180450000Y-85340000D03*
D13*
%TO.P,J109,SH*%
%TO.N,8*%
X179180000Y-79630000D03*
X195440000Y-79630000D03*
D12*
%TO.P,J109,8*%
X190862000Y-80520000D03*
%TO.P,J109,6*%
%TO.N,6*%
X188830000Y-80520000D03*
%TO.P,J109,4*%
%TO.N,4*%
X186798000Y-80520000D03*
%TO.P,J109,2*%
%TO.N,2*%
X184766000Y-80520000D03*
%TO.P,J109,7*%
%TO.N,7*%
X189846000Y-78740000D03*
%TO.P,J109,5*%
%TO.N,5*%
X187814000Y-78740000D03*
%TO.P,J109,3*%
%TO.N,3*%
X185782000Y-78740000D03*
D14*
%TO.P,J109,1*%
%TO.N,1*%
X183750000Y-78740000D03*
%TD*%
D12*
%TO.P,J108,12*%
%TO.N,Net-(J108-Pad12)*%
X171020000Y-85360000D03*
%TO.P,J108,11*%
%TO.N,Net-(J108-Pad11)*%
X168730000Y-85360000D03*
%TO.P,J108,10*%
%TO.N,Net-(J108-Pad10)*%
X159590000Y-85360000D03*
%TO.P,J108,9*%
%TO.N,Net-(J108-Pad9)*%
X157300000Y-85360000D03*
D13*
%TO.P,J108,SH*%
%TO.N,8*%
X156030000Y-79650000D03*
X172290000Y-79650000D03*
D12*
%TO.P,J108,8*%
X167712000Y-80540000D03*
%TO.P,J108,6*%
%TO.N,6*%
X165680000Y-80540000D03*
%TO.P,J108,4*%
%TO.N,4*%
X163648000Y-80540000D03*
%TO.P,J108,2*%
%TO.N,2*%
X161616000Y-80540000D03*
%TO.P,J108,7*%
%TO.N,7*%
X166696000Y-78760000D03*
%TO.P,J108,5*%
%TO.N,5*%
X164664000Y-78760000D03*
%TO.P,J108,3*%
%TO.N,3*%
X162632000Y-78760000D03*
D14*
%TO.P,J108,1*%
%TO.N,1*%
X160600000Y-78760000D03*
%TD*%
D12*
%TO.P,J107,12*%
%TO.N,Net-(J107-Pad12)*%
X262130000Y-85340000D03*
%TO.P,J107,11*%
%TO.N,Net-(J107-Pad11)*%
X259840000Y-85340000D03*
%TO.P,J107,10*%
%TO.N,Net-(J107-Pad10)*%
X250700000Y-85340000D03*
%TO.P,J107,9*%
%TO.N,Net-(J107-Pad9)*%
X248410000Y-85340000D03*
D13*
%TO.P,J107,SH*%
%TO.N,8*%
X247140000Y-79630000D03*
X263400000Y-79630000D03*
D12*
%TO.P,J107,8*%
X258822000Y-80520000D03*
%TO.P,J107,6*%
%TO.N,6*%
X256790000Y-80520000D03*
%TO.P,J107,4*%
%TO.N,4*%
X254758000Y-80520000D03*
%TO.P,J107,2*%
%TO.N,2*%
X252726000Y-80520000D03*
%TO.P,J107,7*%
%TO.N,7*%
X257806000Y-78740000D03*
%TO.P,J107,5*%
%TO.N,5*%
X255774000Y-78740000D03*
%TO.P,J107,3*%
%TO.N,3*%
X253742000Y-78740000D03*
D14*
%TO.P,J107,1*%
%TO.N,1*%
X251710000Y-78740000D03*
%TD*%
D12*
%TO.P,J106,12*%
%TO.N,Net-(J106-Pad12)*%
X148160000Y-85340000D03*
%TO.P,J106,11*%
%TO.N,Net-(J106-Pad11)*%
X145870000Y-85340000D03*
%TO.P,J106,10*%
%TO.N,Net-(J106-Pad10)*%
X136730000Y-85340000D03*
%TO.P,J106,9*%
%TO.N,Net-(J106-Pad9)*%
X134440000Y-85340000D03*
D13*
%TO.P,J106,SH*%
%TO.N,8*%
X133170000Y-79630000D03*
X149430000Y-79630000D03*
D12*
%TO.P,J106,8*%
X144852000Y-80520000D03*
%TO.P,J106,6*%
%TO.N,6*%
X142820000Y-80520000D03*
%TO.P,J106,4*%
%TO.N,4*%
X140788000Y-80520000D03*
%TO.P,J106,2*%
%TO.N,2*%
X138756000Y-80520000D03*
%TO.P,J106,7*%
%TO.N,7*%
X143836000Y-78740000D03*
%TO.P,J106,5*%
%TO.N,5*%
X141804000Y-78740000D03*
%TO.P,J106,3*%
%TO.N,3*%
X139772000Y-78740000D03*
D14*
%TO.P,J106,1*%
%TO.N,1*%
X137740000Y-78740000D03*
%TD*%
D12*
%TO.P,J105,12*%
%TO.N,Net-(J105-Pad12)*%
X125010000Y-85360000D03*
%TO.P,J105,11*%
%TO.N,Net-(J105-Pad11)*%
X122720000Y-85360000D03*
%TO.P,J105,10*%
%TO.N,Net-(J105-Pad10)*%
X113580000Y-85360000D03*
%TO.P,J105,9*%
%TO.N,Net-(J105-Pad9)*%
X111290000Y-85360000D03*
D13*
%TO.P,J105,SH*%
%TO.N,8*%
X110020000Y-79650000D03*
X126280000Y-79650000D03*
D12*
%TO.P,J105,8*%
X121702000Y-80540000D03*
%TO.P,J105,6*%
%TO.N,6*%
X119670000Y-80540000D03*
%TO.P,J105,4*%
%TO.N,4*%
X117638000Y-80540000D03*
%TO.P,J105,2*%
%TO.N,2*%
X115606000Y-80540000D03*
%TO.P,J105,7*%
%TO.N,7*%
X120686000Y-78760000D03*
%TO.P,J105,5*%
%TO.N,5*%
X118654000Y-78760000D03*
%TO.P,J105,3*%
%TO.N,3*%
X116622000Y-78760000D03*
D14*
%TO.P,J105,1*%
%TO.N,1*%
X114590000Y-78760000D03*
%TD*%
D12*
%TO.P,J104,12*%
%TO.N,Net-(J104-Pad12)*%
X239020000Y-85340000D03*
%TO.P,J104,11*%
%TO.N,Net-(J104-Pad11)*%
X236730000Y-85340000D03*
%TO.P,J104,10*%
%TO.N,Net-(J104-Pad10)*%
X227590000Y-85340000D03*
%TO.P,J104,9*%
%TO.N,Net-(J104-Pad9)*%
X225300000Y-85340000D03*
D13*
%TO.P,J104,SH*%
%TO.N,8*%
X224030000Y-79630000D03*
X240290000Y-79630000D03*
D12*
%TO.P,J104,8*%
X235712000Y-80520000D03*
%TO.P,J104,6*%
%TO.N,6*%
X233680000Y-80520000D03*
%TO.P,J104,4*%
%TO.N,4*%
X231648000Y-80520000D03*
%TO.P,J104,2*%
%TO.N,2*%
X229616000Y-80520000D03*
%TO.P,J104,7*%
%TO.N,7*%
X234696000Y-78740000D03*
%TO.P,J104,5*%
%TO.N,5*%
X232664000Y-78740000D03*
%TO.P,J104,3*%
%TO.N,3*%
X230632000Y-78740000D03*
D14*
%TO.P,J104,1*%
%TO.N,1*%
X228600000Y-78740000D03*
%TD*%
D12*
%TO.P,J103,12*%
%TO.N,Net-(J103-Pad12)*%
X102150000Y-85340000D03*
%TO.P,J103,11*%
%TO.N,Net-(J103-Pad11)*%
X99860000Y-85340000D03*
%TO.P,J103,10*%
%TO.N,Net-(J103-Pad10)*%
X90720000Y-85340000D03*
%TO.P,J103,9*%
%TO.N,Net-(J103-Pad9)*%
X88430000Y-85340000D03*
D13*
%TO.P,J103,SH*%
%TO.N,8*%
X87160000Y-79630000D03*
X103420000Y-79630000D03*
D12*
%TO.P,J103,8*%
X98842000Y-80520000D03*
%TO.P,J103,6*%
%TO.N,6*%
X96810000Y-80520000D03*
%TO.P,J103,4*%
%TO.N,4*%
X94778000Y-80520000D03*
%TO.P,J103,2*%
%TO.N,2*%
X92746000Y-80520000D03*
%TO.P,J103,7*%
%TO.N,7*%
X97826000Y-78740000D03*
%TO.P,J103,5*%
%TO.N,5*%
X95794000Y-78740000D03*
%TO.P,J103,3*%
%TO.N,3*%
X93762000Y-78740000D03*
D14*
%TO.P,J103,1*%
%TO.N,1*%
X91730000Y-78740000D03*
%TD*%
D12*
%TO.P,J102,12*%
%TO.N,Net-(J102-Pad12)*%
X79000000Y-85360000D03*
%TO.P,J102,11*%
%TO.N,Net-(J102-Pad11)*%
X76710000Y-85360000D03*
%TO.P,J102,10*%
%TO.N,Net-(J102-Pad10)*%
X67570000Y-85360000D03*
%TO.P,J102,9*%
%TO.N,Net-(J102-Pad9)*%
X65280000Y-85360000D03*
D13*
%TO.P,J102,SH*%
%TO.N,8*%
X64010000Y-79650000D03*
X80270000Y-79650000D03*
D12*
%TO.P,J102,8*%
X75692000Y-80540000D03*
%TO.P,J102,6*%
%TO.N,6*%
X73660000Y-80540000D03*
%TO.P,J102,4*%
%TO.N,4*%
X71628000Y-80540000D03*
%TO.P,J102,2*%
%TO.N,2*%
X69596000Y-80540000D03*
%TO.P,J102,7*%
%TO.N,7*%
X74676000Y-78760000D03*
%TO.P,J102,5*%
%TO.N,5*%
X72644000Y-78760000D03*
%TO.P,J102,3*%
%TO.N,3*%
X70612000Y-78760000D03*
D14*
%TO.P,J102,1*%
%TO.N,1*%
X68580000Y-78760000D03*
%TD*%
D12*
%TO.P,J101,12*%
%TO.N,Net-(J101-Pad12)*%
X56140000Y-85340000D03*
%TO.P,J101,11*%
%TO.N,Net-(J101-Pad11)*%
X53850000Y-85340000D03*
%TO.P,J101,10*%
%TO.N,Net-(J101-Pad10)*%
X44710000Y-85340000D03*
%TO.P,J101,9*%
%TO.N,Net-(J101-Pad9)*%
X42420000Y-85340000D03*
D13*
%TO.P,J101,SH*%
%TO.N,8*%
X41150000Y-79630000D03*
X57410000Y-79630000D03*
D12*
%TO.P,J101,8*%
X52832000Y-80520000D03*
%TO.P,J101,6*%
%TO.N,6*%
X50800000Y-80520000D03*
%TO.P,J101,4*%
%TO.N,4*%
X48768000Y-80520000D03*
%TO.P,J101,2*%
%TO.N,2*%
X46736000Y-80520000D03*
%TO.P,J101,7*%
%TO.N,7*%
X51816000Y-78740000D03*
%TO.P,J101,5*%
%TO.N,5*%
X49784000Y-78740000D03*
%TO.P,J101,3*%
%TO.N,3*%
X47752000Y-78740000D03*
D14*
%TO.P,J101,1*%
%TO.N,1*%
X45720000Y-78740000D03*
%TD*%
D15*
%TO.N,8*%
X236220000Y-96520000D03*
X213360000Y-96520000D03*
X190500000Y-96520000D03*
X167640000Y-96520000D03*
X140970000Y-96520000D03*
X119380000Y-96520000D03*
X95250000Y-96520000D03*
X72390000Y-96520000D03*
%TO.N,6*%
X50800000Y-93980000D03*
X53340000Y-95250000D03*
X233680000Y-95250000D03*
X210820000Y-95250000D03*
X187960000Y-95250000D03*
X165100000Y-95250000D03*
X138430000Y-95250000D03*
X118110000Y-95250000D03*
X93980000Y-95250000D03*
X71120000Y-95250000D03*
%TO.N,4*%
X49530000Y-92710000D03*
X53340000Y-93980000D03*
X231140000Y-93980000D03*
X208280000Y-93980000D03*
X185420000Y-93980000D03*
X162560000Y-93980000D03*
X137160000Y-93980000D03*
X116840000Y-93980000D03*
X92710000Y-93980000D03*
X69850000Y-93980000D03*
%TO.N,2*%
X46990000Y-90170000D03*
X53340000Y-92710000D03*
X228600000Y-92710000D03*
X205740000Y-92710000D03*
X182880000Y-92710000D03*
X160020000Y-92710000D03*
X135890000Y-92710000D03*
X115570000Y-92710000D03*
X91440000Y-92710000D03*
X68580000Y-92710000D03*
%TO.N,7*%
X234950000Y-69850000D03*
X213360000Y-69850000D03*
X166370000Y-69850000D03*
X143510000Y-69850000D03*
X121920000Y-69850000D03*
X97790000Y-69850000D03*
X76200000Y-69850000D03*
X191770000Y-69850000D03*
%TO.N,5*%
X59689995Y-71119995D03*
X72390005Y-71119995D03*
X95250005Y-71119995D03*
X118110005Y-71119995D03*
X140970005Y-71119995D03*
X187960005Y-71119995D03*
X231140005Y-71119995D03*
X210820005Y-71119995D03*
X165100005Y-71119995D03*
%TO.N,3*%
X58420000Y-72390000D03*
X71120000Y-72390000D03*
X93980000Y-72390000D03*
X116840000Y-72390000D03*
X139700000Y-72390000D03*
X185420000Y-72390000D03*
X229870000Y-72390000D03*
X209550000Y-72390000D03*
X162560000Y-72390000D03*
%TO.N,1*%
X55880000Y-71120000D03*
X68580000Y-73660000D03*
X91440000Y-73660000D03*
X114300000Y-73660000D03*
X137160000Y-73660000D03*
X182880000Y-73660000D03*
X228600000Y-73660000D03*
X207010000Y-73660000D03*
X160020000Y-73660000D03*
%TD*%
D16*
%TO.N,8*%
X143444999Y-96585001D02*
X143444999Y-101534999D01*
X143510000Y-96520000D02*
X143444999Y-96585001D01*
X146810000Y-104900000D02*
X147828000Y-104900000D01*
X143510000Y-96520000D02*
X140970000Y-96520000D01*
X52070000Y-81282000D02*
X52832000Y-80520000D01*
X52070000Y-96520000D02*
X52070000Y-81282000D01*
X258072001Y-96520000D02*
X236220000Y-96520000D01*
X258072001Y-81269999D02*
X258072001Y-96520000D01*
X258822000Y-80520000D02*
X258072001Y-81269999D01*
X236220000Y-96520000D02*
X213360000Y-96520000D01*
X213360000Y-96520000D02*
X190500000Y-96520000D01*
X190500000Y-96520000D02*
X167640000Y-96520000D01*
X167640000Y-96520000D02*
X143510000Y-96520000D01*
X140970000Y-96520000D02*
X119380000Y-96520000D01*
X119380000Y-96520000D02*
X95250000Y-96520000D01*
X95250000Y-96520000D02*
X72390000Y-96520000D01*
X72390000Y-96520000D02*
X52070000Y-96520000D01*
X134620000Y-106680000D02*
X138430000Y-106680000D01*
X143510000Y-101600000D02*
X146810000Y-104900000D01*
X143444999Y-101534999D02*
X143510000Y-101600000D01*
X120626999Y-81615001D02*
X121702000Y-80540000D01*
X111985001Y-81615001D02*
X120626999Y-81615001D01*
X110020000Y-79650000D02*
X111985001Y-81615001D01*
X122592000Y-79650000D02*
X121702000Y-80540000D01*
X126280000Y-79650000D02*
X122592000Y-79650000D01*
X53722000Y-79630000D02*
X52832000Y-80520000D01*
X57410000Y-79630000D02*
X53722000Y-79630000D01*
X76582000Y-79650000D02*
X75692000Y-80540000D01*
X80270000Y-79650000D02*
X76582000Y-79650000D01*
X74616999Y-81615001D02*
X75692000Y-80540000D01*
X65975001Y-81615001D02*
X74616999Y-81615001D01*
X64010000Y-79650000D02*
X65975001Y-81615001D01*
X63990000Y-79630000D02*
X64010000Y-79650000D01*
X57410000Y-79630000D02*
X63990000Y-79630000D01*
X87140000Y-79650000D02*
X87160000Y-79630000D01*
X80270000Y-79650000D02*
X87140000Y-79650000D01*
X99732000Y-79630000D02*
X98842000Y-80520000D01*
X103420000Y-79630000D02*
X99732000Y-79630000D01*
X97766999Y-81595001D02*
X98842000Y-80520000D01*
X89125001Y-81595001D02*
X97766999Y-81595001D01*
X87160000Y-79630000D02*
X89125001Y-81595001D01*
X133150000Y-79650000D02*
X133170000Y-79630000D01*
X126280000Y-79650000D02*
X133150000Y-79650000D01*
X145742000Y-79630000D02*
X144852000Y-80520000D01*
X149430000Y-79630000D02*
X145742000Y-79630000D01*
X143776999Y-81595001D02*
X144852000Y-80520000D01*
X135135001Y-81595001D02*
X143776999Y-81595001D01*
X133170000Y-79630000D02*
X135135001Y-81595001D01*
X156010000Y-79630000D02*
X156030000Y-79650000D01*
X149430000Y-79630000D02*
X156010000Y-79630000D01*
X166636999Y-81615001D02*
X167712000Y-80540000D01*
X157995001Y-81615001D02*
X166636999Y-81615001D01*
X156030000Y-79650000D02*
X157995001Y-81615001D01*
X168602000Y-79650000D02*
X167712000Y-80540000D01*
X172290000Y-79650000D02*
X168602000Y-79650000D01*
X179160000Y-79650000D02*
X179180000Y-79630000D01*
X172290000Y-79650000D02*
X179160000Y-79650000D01*
X194550000Y-80520000D02*
X195440000Y-79630000D01*
X190862000Y-80520000D02*
X194550000Y-80520000D01*
X195460000Y-79650000D02*
X195440000Y-79630000D01*
X202040000Y-79650000D02*
X195460000Y-79650000D01*
X214612000Y-79650000D02*
X213722000Y-80540000D01*
X218300000Y-79650000D02*
X214612000Y-79650000D01*
X212646999Y-81615001D02*
X213722000Y-80540000D01*
X204005001Y-81615001D02*
X212646999Y-81615001D01*
X202040000Y-79650000D02*
X204005001Y-81615001D01*
X239400000Y-80520000D02*
X240290000Y-79630000D01*
X235712000Y-80520000D02*
X239400000Y-80520000D01*
X240290000Y-79630000D02*
X247140000Y-79630000D01*
X262510000Y-80520000D02*
X263400000Y-79630000D01*
X258822000Y-80520000D02*
X262510000Y-80520000D01*
X218320000Y-79630000D02*
X218300000Y-79650000D01*
X224030000Y-79630000D02*
X218320000Y-79630000D01*
X143250000Y-105790000D02*
X141600000Y-104140000D01*
X141600000Y-104140000D02*
X140970000Y-104140000D01*
X140970000Y-104140000D02*
X143510000Y-101600000D01*
X138430000Y-106680000D02*
X140970000Y-104140000D01*
X148903001Y-103824999D02*
X147828000Y-104900000D01*
X157544999Y-103824999D02*
X148903001Y-103824999D01*
X159510000Y-105790000D02*
X157544999Y-103824999D01*
%TO.N,6*%
X256790000Y-80520000D02*
X256790000Y-95000000D01*
X50800000Y-80520000D02*
X50800000Y-93980000D01*
X50800000Y-93980000D02*
X50800000Y-93980000D01*
X256540000Y-95250000D02*
X256790000Y-95000000D01*
X53340000Y-95250000D02*
X71120000Y-95250000D01*
X233680000Y-95250000D02*
X256540000Y-95250000D01*
X210820000Y-95250000D02*
X233680000Y-95250000D01*
X187960000Y-95250000D02*
X210820000Y-95250000D01*
X165100000Y-95250000D02*
X187960000Y-95250000D01*
X138430000Y-95250000D02*
X165100000Y-95250000D01*
X118110000Y-95250000D02*
X138430000Y-95250000D01*
X93980000Y-95250000D02*
X118110000Y-95250000D01*
X71120000Y-95250000D02*
X93980000Y-95250000D01*
%TO.N,4*%
X48768000Y-80520000D02*
X48768000Y-91948000D01*
X48768000Y-91948000D02*
X49530000Y-92710000D01*
X49530000Y-92710000D02*
X49530000Y-92710000D01*
X255270000Y-81032000D02*
X254758000Y-80520000D01*
X255270000Y-93980000D02*
X255270000Y-81032000D01*
X53340000Y-93980000D02*
X69850000Y-93980000D01*
X231140000Y-93980000D02*
X255270000Y-93980000D01*
X208280000Y-93980000D02*
X231140000Y-93980000D01*
X185420000Y-93980000D02*
X208280000Y-93980000D01*
X162560000Y-93980000D02*
X185420000Y-93980000D01*
X137160000Y-93980000D02*
X162560000Y-93980000D01*
X116840000Y-93980000D02*
X137160000Y-93980000D01*
X92710000Y-93980000D02*
X116840000Y-93980000D01*
X69850000Y-93980000D02*
X92710000Y-93980000D01*
%TO.N,2*%
X46736000Y-80520000D02*
X46736000Y-89916000D01*
X46736000Y-89916000D02*
X46990000Y-90170000D01*
X46990000Y-90170000D02*
X46990000Y-90170000D01*
X53340000Y-92710000D02*
X68580000Y-92710000D01*
X254000000Y-81794000D02*
X252726000Y-80520000D01*
X254000000Y-92710000D02*
X254000000Y-81794000D01*
X228600000Y-92710000D02*
X254000000Y-92710000D01*
X205740000Y-92710000D02*
X228600000Y-92710000D01*
X182880000Y-92710000D02*
X205740000Y-92710000D01*
X160020000Y-92710000D02*
X182880000Y-92710000D01*
X135890000Y-92710000D02*
X160020000Y-92710000D01*
X115570000Y-92710000D02*
X135890000Y-92710000D01*
X91440000Y-92710000D02*
X115570000Y-92710000D01*
X68580000Y-92710000D02*
X91440000Y-92710000D01*
%TO.N,7*%
X257806000Y-78740000D02*
X257806000Y-69854000D01*
X257806000Y-69854000D02*
X257802000Y-69850000D01*
X257802000Y-69850000D02*
X234950000Y-69850000D01*
X53340000Y-77216000D02*
X51816000Y-78740000D01*
X53340000Y-69850000D02*
X53340000Y-77216000D01*
X234950000Y-69850000D02*
X213360000Y-69850000D01*
X213360000Y-69850000D02*
X191770000Y-69850000D01*
X166370000Y-69850000D02*
X143510000Y-69850000D01*
X143510000Y-69850000D02*
X121920000Y-69850000D01*
X121920000Y-69850000D02*
X97790000Y-69850000D01*
X97790000Y-69850000D02*
X76200000Y-69850000D01*
X76200000Y-69850000D02*
X53340000Y-69850000D01*
X191770000Y-69850000D02*
X166370000Y-69850000D01*
X136574999Y-107265001D02*
X134620000Y-109220000D01*
X148258999Y-107265001D02*
X136574999Y-107265001D01*
X148844000Y-106680000D02*
X148258999Y-107265001D01*
%TO.N,5*%
X59689995Y-71119995D02*
X72390005Y-71119995D01*
X255774000Y-78740000D02*
X255774000Y-71624000D01*
X255269995Y-71119995D02*
X248153995Y-71119995D01*
X255774000Y-71624000D02*
X255269995Y-71119995D01*
X72390005Y-71119995D02*
X95250005Y-71119995D01*
X95250005Y-71119995D02*
X118110005Y-71119995D01*
X118110005Y-71119995D02*
X140970005Y-71119995D01*
X140970005Y-71119995D02*
X165100005Y-71119995D01*
X187960005Y-71119995D02*
X210820005Y-71119995D01*
X231140005Y-71119995D02*
X248153995Y-71119995D01*
X210820005Y-71119995D02*
X231140005Y-71119995D01*
X165100005Y-71119995D02*
X187960005Y-71119995D01*
%TO.N,3*%
X253742000Y-78740000D02*
X253742000Y-73402000D01*
X253742000Y-73402000D02*
X252730000Y-72390000D01*
X252730000Y-72390000D02*
X229870000Y-72390000D01*
X58420000Y-72390000D02*
X58420000Y-72390000D01*
X71120000Y-72390000D02*
X58420000Y-72390000D01*
X93980000Y-72390000D02*
X71120000Y-72390000D01*
X116840000Y-72390000D02*
X93980000Y-72390000D01*
X139700000Y-72390000D02*
X116840000Y-72390000D01*
X185420000Y-72390000D02*
X162560000Y-72390000D01*
X229870000Y-72390000D02*
X209550000Y-72390000D01*
X209550000Y-72390000D02*
X185420000Y-72390000D01*
X162560000Y-72390000D02*
X139700000Y-72390000D01*
%TO.N,1*%
X55880000Y-71120000D02*
X55880000Y-71120000D01*
X58420000Y-73660000D02*
X55880000Y-71120000D01*
X249266002Y-73660000D02*
X228600000Y-73660000D01*
X251710000Y-76103998D02*
X249266002Y-73660000D01*
X251710000Y-78740000D02*
X251710000Y-76103998D01*
X68580000Y-73660000D02*
X58420000Y-73660000D01*
X91440000Y-73660000D02*
X68580000Y-73660000D01*
X114300000Y-73660000D02*
X91440000Y-73660000D01*
X137160000Y-73660000D02*
X114300000Y-73660000D01*
X182880000Y-73660000D02*
X160020000Y-73660000D01*
X228600000Y-73660000D02*
X207010000Y-73660000D01*
X207010000Y-73660000D02*
X182880000Y-73660000D01*
X160020000Y-73660000D02*
X137160000Y-73660000D01*
%TD*%
M02*
