%TF.GenerationSoftware,KiCad,Pcbnew,(5.1.10)-1*%
%TF.CreationDate,2021-12-13T10:36:09-08:00*%
%TF.ProjectId,Ethernet Splitter,45746865-726e-4657-9420-53706c697474,rev?*%
%TF.SameCoordinates,Original*%
%TF.FileFunction,Copper,L2,Bot*%
%TF.FilePolarity,Positive*%
%FSLAX46Y46*%
G04 Gerber Fmt 4.6, Leading zero omitted, Abs format (unit mm)*
G04 Created by KiCad (PCBNEW (5.1.10)-1) date 2021-12-13 10:36:09*
%MOMM*%
%LPD*%
G01*
G04 APERTURE LIST*
%TA.AperFunction,ComponentPad*%
%ADD10O,1.700000X1.700000*%
%TD*%
%TA.AperFunction,ComponentPad*%
%ADD11R,1.700000X1.700000*%
%TD*%
%TA.AperFunction,ComponentPad*%
%ADD12C,1.500000*%
%TD*%
%TA.AperFunction,ComponentPad*%
%ADD13C,2.300000*%
%TD*%
%TA.AperFunction,ComponentPad*%
%ADD14R,1.500000X1.500000*%
%TD*%
%TA.AperFunction,ViaPad*%
%ADD15C,0.800000*%
%TD*%
%TA.AperFunction,Conductor*%
%ADD16C,0.250000*%
%TD*%
G04 APERTURE END LIST*
D10*
%TO.P,J112,2*%
%TO.N,7*%
X134620000Y-109220000D03*
D11*
%TO.P,J112,1*%
%TO.N,8*%
X134620000Y-106680000D03*
%TD*%
D12*
%TO.P,J111,12*%
%TO.N,Net-(J111-Pad12)*%
X217030000Y-85360000D03*
%TO.P,J111,11*%
%TO.N,Net-(J111-Pad11)*%
X214740000Y-85360000D03*
%TO.P,J111,10*%
%TO.N,Net-(J111-Pad10)*%
X205600000Y-85360000D03*
%TO.P,J111,9*%
%TO.N,Net-(J111-Pad9)*%
X203310000Y-85360000D03*
D13*
%TO.P,J111,SH*%
%TO.N,8*%
X202040000Y-79650000D03*
X218300000Y-79650000D03*
D12*
%TO.P,J111,8*%
X213722000Y-80540000D03*
%TO.P,J111,6*%
%TO.N,6*%
X211690000Y-80540000D03*
%TO.P,J111,4*%
%TO.N,4*%
X209658000Y-80540000D03*
%TO.P,J111,2*%
%TO.N,2*%
X207626000Y-80540000D03*
%TO.P,J111,7*%
%TO.N,7*%
X212706000Y-78760000D03*
%TO.P,J111,5*%
%TO.N,5*%
X210674000Y-78760000D03*
%TO.P,J111,3*%
%TO.N,3*%
X208642000Y-78760000D03*
D14*
%TO.P,J111,1*%
%TO.N,1*%
X206610000Y-78760000D03*
%TD*%
D12*
%TO.P,J110,12*%
%TO.N,Net-(J110-Pad12)*%
X144520000Y-100080000D03*
%TO.P,J110,11*%
%TO.N,Net-(J110-Pad11)*%
X146810000Y-100080000D03*
%TO.P,J110,10*%
%TO.N,Net-(J110-Pad10)*%
X155950000Y-100080000D03*
%TO.P,J110,9*%
%TO.N,Net-(J110-Pad9)*%
X158240000Y-100080000D03*
D13*
%TO.P,J110,SH*%
%TO.N,8*%
X159510000Y-105790000D03*
X143250000Y-105790000D03*
D12*
%TO.P,J110,8*%
X147828000Y-104900000D03*
%TO.P,J110,6*%
%TO.N,6*%
X149860000Y-104900000D03*
%TO.P,J110,4*%
%TO.N,4*%
X151892000Y-104900000D03*
%TO.P,J110,2*%
%TO.N,2*%
X153924000Y-104900000D03*
%TO.P,J110,7*%
%TO.N,7*%
X148844000Y-106680000D03*
%TO.P,J110,5*%
%TO.N,5*%
X150876000Y-106680000D03*
%TO.P,J110,3*%
%TO.N,3*%
X152908000Y-106680000D03*
D14*
%TO.P,J110,1*%
%TO.N,1*%
X154940000Y-106680000D03*
%TD*%
D12*
%TO.P,J109,12*%
%TO.N,Net-(J109-Pad12)*%
X194170000Y-85340000D03*
%TO.P,J109,11*%
%TO.N,Net-(J109-Pad11)*%
X191880000Y-85340000D03*
%TO.P,J109,10*%
%TO.N,Net-(J109-Pad10)*%
X182740000Y-85340000D03*
%TO.P,J109,9*%
%TO.N,Net-(J109-Pad9)*%
X180450000Y-85340000D03*
D13*
%TO.P,J109,SH*%
%TO.N,8*%
X179180000Y-79630000D03*
X195440000Y-79630000D03*
D12*
%TO.P,J109,8*%
X190862000Y-80520000D03*
%TO.P,J109,6*%
%TO.N,6*%
X188830000Y-80520000D03*
%TO.P,J109,4*%
%TO.N,4*%
X186798000Y-80520000D03*
%TO.P,J109,2*%
%TO.N,2*%
X184766000Y-80520000D03*
%TO.P,J109,7*%
%TO.N,7*%
X189846000Y-78740000D03*
%TO.P,J109,5*%
%TO.N,5*%
X187814000Y-78740000D03*
%TO.P,J109,3*%
%TO.N,3*%
X185782000Y-78740000D03*
D14*
%TO.P,J109,1*%
%TO.N,1*%
X183750000Y-78740000D03*
%TD*%
D12*
%TO.P,J108,12*%
%TO.N,Net-(J108-Pad12)*%
X171020000Y-85360000D03*
%TO.P,J108,11*%
%TO.N,Net-(J108-Pad11)*%
X168730000Y-85360000D03*
%TO.P,J108,10*%
%TO.N,Net-(J108-Pad10)*%
X159590000Y-85360000D03*
%TO.P,J108,9*%
%TO.N,Net-(J108-Pad9)*%
X157300000Y-85360000D03*
D13*
%TO.P,J108,SH*%
%TO.N,8*%
X156030000Y-79650000D03*
X172290000Y-79650000D03*
D12*
%TO.P,J108,8*%
X167712000Y-80540000D03*
%TO.P,J108,6*%
%TO.N,6*%
X165680000Y-80540000D03*
%TO.P,J108,4*%
%TO.N,4*%
X163648000Y-80540000D03*
%TO.P,J108,2*%
%TO.N,2*%
X161616000Y-80540000D03*
%TO.P,J108,7*%
%TO.N,7*%
X166696000Y-78760000D03*
%TO.P,J108,5*%
%TO.N,5*%
X164664000Y-78760000D03*
%TO.P,J108,3*%
%TO.N,3*%
X162632000Y-78760000D03*
D14*
%TO.P,J108,1*%
%TO.N,1*%
X160600000Y-78760000D03*
%TD*%
D12*
%TO.P,J107,12*%
%TO.N,Net-(J107-Pad12)*%
X262130000Y-85340000D03*
%TO.P,J107,11*%
%TO.N,Net-(J107-Pad11)*%
X259840000Y-85340000D03*
%TO.P,J107,10*%
%TO.N,Net-(J107-Pad10)*%
X250700000Y-85340000D03*
%TO.P,J107,9*%
%TO.N,Net-(J107-Pad9)*%
X248410000Y-85340000D03*
D13*
%TO.P,J107,SH*%
%TO.N,8*%
X247140000Y-79630000D03*
X263400000Y-79630000D03*
D12*
%TO.P,J107,8*%
X258822000Y-80520000D03*
%TO.P,J107,6*%
%TO.N,6*%
X256790000Y-80520000D03*
%TO.P,J107,4*%
%TO.N,4*%
X254758000Y-80520000D03*
%TO.P,J107,2*%
%TO.N,2*%
X252726000Y-80520000D03*
%TO.P,J107,7*%
%TO.N,7*%
X257806000Y-78740000D03*
%TO.P,J107,5*%
%TO.N,5*%
X255774000Y-78740000D03*
%TO.P,J107,3*%
%TO.N,3*%
X253742000Y-78740000D03*
D14*
%TO.P,J107,1*%
%TO.N,1*%
X251710000Y-78740000D03*
%TD*%
D12*
%TO.P,J106,12*%
%TO.N,Net-(J106-Pad12)*%
X148160000Y-85340000D03*
%TO.P,J106,11*%
%TO.N,Net-(J106-Pad11)*%
X145870000Y-85340000D03*
%TO.P,J106,10*%
%TO.N,Net-(J106-Pad10)*%
X136730000Y-85340000D03*
%TO.P,J106,9*%
%TO.N,Net-(J106-Pad9)*%
X134440000Y-85340000D03*
D13*
%TO.P,J106,SH*%
%TO.N,8*%
X133170000Y-79630000D03*
X149430000Y-79630000D03*
D12*
%TO.P,J106,8*%
X144852000Y-80520000D03*
%TO.P,J106,6*%
%TO.N,6*%
X142820000Y-80520000D03*
%TO.P,J106,4*%
%TO.N,4*%
X140788000Y-80520000D03*
%TO.P,J106,2*%
%TO.N,2*%
X138756000Y-80520000D03*
%TO.P,J106,7*%
%TO.N,7*%
X143836000Y-78740000D03*
%TO.P,J106,5*%
%TO.N,5*%
X141804000Y-78740000D03*
%TO.P,J106,3*%
%TO.N,3*%
X139772000Y-78740000D03*
D14*
%TO.P,J106,1*%
%TO.N,1*%
X137740000Y-78740000D03*
%TD*%
D12*
%TO.P,J105,12*%
%TO.N,Net-(J105-Pad12)*%
X125010000Y-85360000D03*
%TO.P,J105,11*%
%TO.N,Net-(J105-Pad11)*%
X122720000Y-85360000D03*
%TO.P,J105,10*%
%TO.N,Net-(J105-Pad10)*%
X113580000Y-85360000D03*
%TO.P,J105,9*%
%TO.N,Net-(J105-Pad9)*%
X111290000Y-85360000D03*
D13*
%TO.P,J105,SH*%
%TO.N,8*%
X110020000Y-79650000D03*
X126280000Y-79650000D03*
D12*
%TO.P,J105,8*%
X121702000Y-80540000D03*
%TO.P,J105,6*%
%TO.N,6*%
X119670000Y-80540000D03*
%TO.P,J105,4*%
%TO.N,4*%
X117638000Y-80540000D03*
%TO.P,J105,2*%
%TO.N,2*%
X115606000Y-80540000D03*
%TO.P,J105,7*%
%TO.N,7*%
X120686000Y-78760000D03*
%TO.P,J105,5*%
%TO.N,5*%
X118654000Y-78760000D03*
%TO.P,J105,3*%
%TO.N,3*%
X116622000Y-78760000D03*
D14*
%TO.P,J105,1*%
%TO.N,1*%
X114590000Y-78760000D03*
%TD*%
D12*
%TO.P,J104,12*%
%TO.N,Net-(J104-Pad12)*%
X239020000Y-85340000D03*
%TO.P,J104,11*%
%TO.N,Net-(J104-Pad11)*%
X236730000Y-85340000D03*
%TO.P,J104,10*%
%TO.N,Net-(J104-Pad10)*%
X227590000Y-85340000D03*
%TO.P,J104,9*%
%TO.N,Net-(J104-Pad9)*%
X225300000Y-85340000D03*
D13*
%TO.P,J104,SH*%
%TO.N,8*%
X224030000Y-79630000D03*
X240290000Y-79630000D03*
D12*
%TO.P,J104,8*%
X235712000Y-80520000D03*
%TO.P,J104,6*%
%TO.N,6*%
X233680000Y-80520000D03*
%TO.P,J104,4*%
%TO.N,4*%
X231648000Y-80520000D03*
%TO.P,J104,2*%
%TO.N,2*%
X229616000Y-80520000D03*
%TO.P,J104,7*%
%TO.N,7*%
X234696000Y-78740000D03*
%TO.P,J104,5*%
%TO.N,5*%
X232664000Y-78740000D03*
%TO.P,J104,3*%
%TO.N,3*%
X230632000Y-78740000D03*
D14*
%TO.P,J104,1*%
%TO.N,1*%
X228600000Y-78740000D03*
%TD*%
D12*
%TO.P,J103,12*%
%TO.N,Net-(J103-Pad12)*%
X102150000Y-85340000D03*
%TO.P,J103,11*%
%TO.N,Net-(J103-Pad11)*%
X99860000Y-85340000D03*
%TO.P,J103,10*%
%TO.N,Net-(J103-Pad10)*%
X90720000Y-85340000D03*
%TO.P,J103,9*%
%TO.N,Net-(J103-Pad9)*%
X88430000Y-85340000D03*
D13*
%TO.P,J103,SH*%
%TO.N,8*%
X87160000Y-79630000D03*
X103420000Y-79630000D03*
D12*
%TO.P,J103,8*%
X98842000Y-80520000D03*
%TO.P,J103,6*%
%TO.N,6*%
X96810000Y-80520000D03*
%TO.P,J103,4*%
%TO.N,4*%
X94778000Y-80520000D03*
%TO.P,J103,2*%
%TO.N,2*%
X92746000Y-80520000D03*
%TO.P,J103,7*%
%TO.N,7*%
X97826000Y-78740000D03*
%TO.P,J103,5*%
%TO.N,5*%
X95794000Y-78740000D03*
%TO.P,J103,3*%
%TO.N,3*%
X93762000Y-78740000D03*
D14*
%TO.P,J103,1*%
%TO.N,1*%
X91730000Y-78740000D03*
%TD*%
D12*
%TO.P,J102,12*%
%TO.N,Net-(J102-Pad12)*%
X79000000Y-85360000D03*
%TO.P,J102,11*%
%TO.N,Net-(J102-Pad11)*%
X76710000Y-85360000D03*
%TO.P,J102,10*%
%TO.N,Net-(J102-Pad10)*%
X67570000Y-85360000D03*
%TO.P,J102,9*%
%TO.N,Net-(J102-Pad9)*%
X65280000Y-85360000D03*
D13*
%TO.P,J102,SH*%
%TO.N,8*%
X64010000Y-79650000D03*
X80270000Y-79650000D03*
D12*
%TO.P,J102,8*%
X75692000Y-80540000D03*
%TO.P,J102,6*%
%TO.N,6*%
X73660000Y-80540000D03*
%TO.P,J102,4*%
%TO.N,4*%
X71628000Y-80540000D03*
%TO.P,J102,2*%
%TO.N,2*%
X69596000Y-80540000D03*
%TO.P,J102,7*%
%TO.N,7*%
X74676000Y-78760000D03*
%TO.P,J102,5*%
%TO.N,5*%
X72644000Y-78760000D03*
%TO.P,J102,3*%
%TO.N,3*%
X70612000Y-78760000D03*
D14*
%TO.P,J102,1*%
%TO.N,1*%
X68580000Y-78760000D03*
%TD*%
D12*
%TO.P,J101,12*%
%TO.N,Net-(J101-Pad12)*%
X56140000Y-85340000D03*
%TO.P,J101,11*%
%TO.N,Net-(J101-Pad11)*%
X53850000Y-85340000D03*
%TO.P,J101,10*%
%TO.N,Net-(J101-Pad10)*%
X44710000Y-85340000D03*
%TO.P,J101,9*%
%TO.N,Net-(J101-Pad9)*%
X42420000Y-85340000D03*
D13*
%TO.P,J101,SH*%
%TO.N,8*%
X41150000Y-79630000D03*
X57410000Y-79630000D03*
D12*
%TO.P,J101,8*%
X52832000Y-80520000D03*
%TO.P,J101,6*%
%TO.N,6*%
X50800000Y-80520000D03*
%TO.P,J101,4*%
%TO.N,4*%
X48768000Y-80520000D03*
%TO.P,J101,2*%
%TO.N,2*%
X46736000Y-80520000D03*
%TO.P,J101,7*%
%TO.N,7*%
X51816000Y-78740000D03*
%TO.P,J101,5*%
%TO.N,5*%
X49784000Y-78740000D03*
%TO.P,J101,3*%
%TO.N,3*%
X47752000Y-78740000D03*
D14*
%TO.P,J101,1*%
%TO.N,1*%
X45720000Y-78740000D03*
%TD*%
D15*
%TO.N,8*%
X236220000Y-96520000D03*
X213360000Y-96520000D03*
X190500000Y-96520000D03*
X167640000Y-96520000D03*
X140970000Y-96520000D03*
X119380000Y-96520000D03*
X95250000Y-96520000D03*
X72390000Y-96520000D03*
%TO.N,6*%
X50800000Y-93980000D03*
X53340000Y-95250000D03*
X233680000Y-95250000D03*
X210820000Y-95250000D03*
X187960000Y-95250000D03*
X165100000Y-95250000D03*
X138430000Y-95250000D03*
X118110000Y-95250000D03*
X93980000Y-95250000D03*
X71120000Y-95250000D03*
%TO.N,4*%
X49530000Y-92710000D03*
X53340000Y-93980000D03*
X231140000Y-93980000D03*
X208280000Y-93980000D03*
X185420000Y-93980000D03*
X162560000Y-93980000D03*
X137160000Y-93980000D03*
X116840000Y-93980000D03*
X92710000Y-93980000D03*
X69850000Y-93980000D03*
%TO.N,2*%
X46990000Y-90170000D03*
X53340000Y-92710000D03*
X228600000Y-92710000D03*
X205740000Y-92710000D03*
X182880000Y-92710000D03*
X160020000Y-92710000D03*
X135890000Y-92710000D03*
X115570000Y-92710000D03*
X91440000Y-92710000D03*
X68580000Y-92710000D03*
%TO.N,7*%
X234950000Y-69850000D03*
X213360000Y-69850000D03*
X166370000Y-69850000D03*
X143510000Y-69850000D03*
X121920000Y-69850000D03*
X97790000Y-69850000D03*
X76200000Y-69850000D03*
X191770000Y-69850000D03*
%TO.N,5*%
X59689995Y-71119995D03*
X72390005Y-71119995D03*
X95250005Y-71119995D03*
X118110005Y-71119995D03*
X140970005Y-71119995D03*
X187960005Y-71119995D03*
X231140005Y-71119995D03*
X210820005Y-71119995D03*
X165100005Y-71119995D03*
%TO.N,3*%
X58420000Y-72390000D03*
X71120000Y-72390000D03*
X93980000Y-72390000D03*
X116840000Y-72390000D03*
X139700000Y-72390000D03*
X185420000Y-72390000D03*
X229870000Y-72390000D03*
X209550000Y-72390000D03*
X162560000Y-72390000D03*
%TO.N,1*%
X55880000Y-71120000D03*
X68580000Y-73660000D03*
X91440000Y-73660000D03*
X114300000Y-73660000D03*
X137160000Y-73660000D03*
X182880000Y-73660000D03*
X228600000Y-73660000D03*
X207010000Y-73660000D03*
X160020000Y-73660000D03*
%TD*%
D16*
%TO.N,8*%
X74942001Y-93967999D02*
X72390000Y-96520000D01*
X74942001Y-81289999D02*
X74942001Y-93967999D01*
X75692000Y-80540000D02*
X74942001Y-81289999D01*
X98092001Y-93677999D02*
X95250000Y-96520000D01*
X98092001Y-81269999D02*
X98092001Y-93677999D01*
X98842000Y-80520000D02*
X98092001Y-81269999D01*
X120952001Y-94947999D02*
X119380000Y-96520000D01*
X120952001Y-81289999D02*
X120952001Y-94947999D01*
X121702000Y-80540000D02*
X120952001Y-81289999D01*
X144102001Y-81269999D02*
X144102001Y-93387999D01*
X144852000Y-80520000D02*
X144102001Y-81269999D01*
X144102001Y-93387999D02*
X140970000Y-96520000D01*
X167640000Y-80612000D02*
X167640000Y-96520000D01*
X167712000Y-80540000D02*
X167640000Y-80612000D01*
X190112001Y-96132001D02*
X190500000Y-96520000D01*
X190112001Y-81269999D02*
X190112001Y-96132001D01*
X190862000Y-80520000D02*
X190112001Y-81269999D01*
X212972001Y-96132001D02*
X213360000Y-96520000D01*
X212972001Y-81289999D02*
X212972001Y-96132001D01*
X213722000Y-80540000D02*
X212972001Y-81289999D01*
X234962001Y-81269999D02*
X234962001Y-95262001D01*
X235712000Y-80520000D02*
X234962001Y-81269999D01*
X234962001Y-95262001D02*
X236220000Y-96520000D01*
X43115001Y-81595001D02*
X41150000Y-79630000D01*
X51756999Y-81595001D02*
X43115001Y-81595001D01*
X52832000Y-80520000D02*
X51756999Y-81595001D01*
%TO.N,6*%
X50800000Y-93980000D02*
X52070000Y-93980000D01*
X52070000Y-93980000D02*
X53340000Y-95250000D01*
X53340000Y-95250000D02*
X53340000Y-95250000D01*
X73660000Y-80540000D02*
X73660000Y-92710000D01*
X73660000Y-92710000D02*
X71120000Y-95250000D01*
X96810000Y-92420000D02*
X93980000Y-95250000D01*
X96810000Y-80520000D02*
X96810000Y-92420000D01*
X119670000Y-93690000D02*
X118110000Y-95250000D01*
X119670000Y-80540000D02*
X119670000Y-93690000D01*
X142820000Y-90860000D02*
X138430000Y-95250000D01*
X142820000Y-80520000D02*
X142820000Y-90860000D01*
X165680000Y-94670000D02*
X165100000Y-95250000D01*
X165680000Y-80540000D02*
X165680000Y-94670000D01*
X188830000Y-94380000D02*
X187960000Y-95250000D01*
X188830000Y-80520000D02*
X188830000Y-94380000D01*
X211690000Y-94380000D02*
X210820000Y-95250000D01*
X211690000Y-80540000D02*
X211690000Y-94380000D01*
X233680000Y-80520000D02*
X233680000Y-95250000D01*
X138430000Y-95815685D02*
X138430000Y-95250000D01*
X146439314Y-103824999D02*
X138430000Y-95815685D01*
X148784999Y-103824999D02*
X146439314Y-103824999D01*
X149860000Y-104900000D02*
X148784999Y-103824999D01*
%TO.N,4*%
X49530000Y-92710000D02*
X52070000Y-92710000D01*
X52070000Y-92710000D02*
X53340000Y-93980000D01*
X53340000Y-93980000D02*
X53340000Y-93980000D01*
X71628000Y-92202000D02*
X69850000Y-93980000D01*
X71628000Y-80540000D02*
X71628000Y-92202000D01*
X94778000Y-91912000D02*
X92710000Y-93980000D01*
X94778000Y-80520000D02*
X94778000Y-91912000D01*
X117638000Y-93182000D02*
X116840000Y-93980000D01*
X117638000Y-80540000D02*
X117638000Y-93182000D01*
X140788000Y-90352000D02*
X137160000Y-93980000D01*
X140788000Y-80520000D02*
X140788000Y-90352000D01*
X163648000Y-92892000D02*
X162560000Y-93980000D01*
X163648000Y-80540000D02*
X163648000Y-92892000D01*
X186798000Y-80520000D02*
X186798000Y-92602000D01*
X186798000Y-92602000D02*
X185420000Y-93980000D01*
X209658000Y-92602000D02*
X208280000Y-93980000D01*
X209658000Y-80540000D02*
X209658000Y-92602000D01*
X231648000Y-93472000D02*
X231140000Y-93980000D01*
X231648000Y-80520000D02*
X231648000Y-93472000D01*
X160458998Y-93980000D02*
X162560000Y-93980000D01*
X151892000Y-102546998D02*
X160458998Y-93980000D01*
X151892000Y-104900000D02*
X151892000Y-102546998D01*
%TO.N,2*%
X46990000Y-90170000D02*
X50800000Y-90170000D01*
X50800000Y-90170000D02*
X53340000Y-92710000D01*
X53340000Y-92710000D02*
X53340000Y-92710000D01*
X69596000Y-91694000D02*
X68580000Y-92710000D01*
X69596000Y-80540000D02*
X69596000Y-91694000D01*
X92746000Y-80520000D02*
X92746000Y-91404000D01*
X92746000Y-91404000D02*
X91440000Y-92710000D01*
X115606000Y-80540000D02*
X115606000Y-92674000D01*
X115606000Y-92674000D02*
X115570000Y-92710000D01*
X138756000Y-89844000D02*
X135890000Y-92710000D01*
X138756000Y-80520000D02*
X138756000Y-89844000D01*
X161616000Y-80540000D02*
X161616000Y-91114000D01*
X161616000Y-91114000D02*
X160020000Y-92710000D01*
X182880000Y-86791002D02*
X182880000Y-92710000D01*
X184766000Y-84905002D02*
X182880000Y-86791002D01*
X184766000Y-80520000D02*
X184766000Y-84905002D01*
X207626000Y-90824000D02*
X207626000Y-80540000D01*
X205740000Y-92710000D02*
X207626000Y-90824000D01*
X229616000Y-91694000D02*
X228600000Y-92710000D01*
X229616000Y-80520000D02*
X229616000Y-91694000D01*
X165871997Y-97245001D02*
X178344999Y-97245001D01*
X158216998Y-104900000D02*
X165871997Y-97245001D01*
X153924000Y-104900000D02*
X158216998Y-104900000D01*
X178344999Y-97245001D02*
X182880000Y-92710000D01*
%TO.N,7*%
X234696000Y-78740000D02*
X234696000Y-70104000D01*
X212706000Y-70504000D02*
X213360000Y-69850000D01*
X212706000Y-78760000D02*
X212706000Y-70504000D01*
X189846000Y-77127998D02*
X191770000Y-75203998D01*
X189846000Y-78740000D02*
X189846000Y-77127998D01*
X191770000Y-75203998D02*
X191770000Y-69850000D01*
X166696000Y-70176000D02*
X166370000Y-69850000D01*
X166696000Y-78760000D02*
X166696000Y-70176000D01*
X97826000Y-69886000D02*
X97790000Y-69850000D01*
X97826000Y-78740000D02*
X97826000Y-69886000D01*
X74676000Y-71374000D02*
X76200000Y-69850000D01*
X74676000Y-78760000D02*
X74676000Y-71374000D01*
X120686000Y-71084000D02*
X121920000Y-69850000D01*
X120686000Y-78760000D02*
X120686000Y-71084000D01*
X143836000Y-70176000D02*
X143510000Y-69850000D01*
X143836000Y-78740000D02*
X143836000Y-70176000D01*
X121746660Y-78760000D02*
X120686000Y-78760000D01*
X122777001Y-79790341D02*
X121746660Y-78760000D01*
X122777001Y-81440003D02*
X122777001Y-79790341D01*
X148016998Y-106680000D02*
X122777001Y-81440003D01*
X148844000Y-106680000D02*
X148016998Y-106680000D01*
%TO.N,5*%
X59689995Y-71119995D02*
X59689995Y-73659995D01*
X50203998Y-78740000D02*
X49784000Y-78740000D01*
X55284003Y-73659995D02*
X50203998Y-78740000D01*
X59689995Y-73659995D02*
X55284003Y-73659995D01*
X72644000Y-78760000D02*
X72644000Y-71374000D01*
X72390005Y-71120005D02*
X72390005Y-71119995D01*
X72644000Y-71374000D02*
X72390005Y-71120005D01*
X95794000Y-71663990D02*
X95250005Y-71119995D01*
X95794000Y-78740000D02*
X95794000Y-71663990D01*
X118654000Y-71663990D02*
X118110005Y-71119995D01*
X118654000Y-78760000D02*
X118654000Y-71663990D01*
X141804000Y-71953990D02*
X140970005Y-71119995D01*
X141804000Y-78740000D02*
X141804000Y-71953990D01*
X187814000Y-78740000D02*
X187814000Y-71266000D01*
X187814000Y-71266000D02*
X187960005Y-71119995D01*
X232664000Y-72643990D02*
X231140005Y-71119995D01*
X232664000Y-78740000D02*
X232664000Y-72643990D01*
X164664000Y-71556000D02*
X165100005Y-71119995D01*
X164664000Y-78760000D02*
X164664000Y-71556000D01*
X210820005Y-72294993D02*
X210820005Y-71119995D01*
X210674000Y-72440998D02*
X210820005Y-72294993D01*
X210674000Y-78760000D02*
X210674000Y-72440998D01*
X245664999Y-76568999D02*
X247983999Y-74249999D01*
X251283999Y-74249999D02*
X255774000Y-78740000D01*
X245664999Y-88148003D02*
X245664999Y-76568999D01*
X221742982Y-112070020D02*
X245664999Y-88148003D01*
X156266020Y-112070020D02*
X221742982Y-112070020D01*
X247983999Y-74249999D02*
X251283999Y-74249999D01*
X150876000Y-106680000D02*
X156266020Y-112070020D01*
X108544999Y-76588999D02*
X114014003Y-71119995D01*
X119031999Y-97245001D02*
X108544999Y-86758001D01*
X127725001Y-97245001D02*
X119031999Y-97245001D01*
X137749999Y-107269999D02*
X127725001Y-97245001D01*
X145966001Y-107269999D02*
X137749999Y-107269999D01*
X146451003Y-107755001D02*
X145966001Y-107269999D01*
X114014003Y-71119995D02*
X118110005Y-71119995D01*
X149800999Y-107755001D02*
X146451003Y-107755001D01*
X108544999Y-86758001D02*
X108544999Y-76588999D01*
X150876000Y-106680000D02*
X149800999Y-107755001D01*
%TO.N,3*%
X48192998Y-78740000D02*
X47752000Y-78740000D01*
X54542998Y-72390000D02*
X48192998Y-78740000D01*
X58420000Y-72390000D02*
X54542998Y-72390000D01*
X70612000Y-72898000D02*
X71120000Y-72390000D01*
X70612000Y-78760000D02*
X70612000Y-72898000D01*
X93762000Y-72608000D02*
X93980000Y-72390000D01*
X93762000Y-78740000D02*
X93762000Y-72608000D01*
X116622000Y-72608000D02*
X116840000Y-72390000D01*
X116622000Y-78760000D02*
X116622000Y-72608000D01*
X139772000Y-78740000D02*
X139772000Y-72462000D01*
X139772000Y-72462000D02*
X139700000Y-72390000D01*
X185782000Y-72752000D02*
X185420000Y-72390000D01*
X185782000Y-78740000D02*
X185782000Y-72752000D01*
X230632000Y-73152000D02*
X229870000Y-72390000D01*
X230632000Y-78740000D02*
X230632000Y-73152000D01*
X162632000Y-72462000D02*
X162560000Y-72390000D01*
X162632000Y-78760000D02*
X162632000Y-72462000D01*
X208642000Y-78760000D02*
X208642000Y-73298000D01*
X208642000Y-73298000D02*
X209550000Y-72390000D01*
X226733998Y-72390000D02*
X229870000Y-72390000D01*
X222554999Y-76568999D02*
X226733998Y-72390000D01*
X222554999Y-88398003D02*
X222554999Y-76568999D01*
X199332991Y-111620011D02*
X222554999Y-88398003D01*
X156607599Y-111620011D02*
X199332991Y-111620011D01*
X152908000Y-107920412D02*
X156607599Y-111620011D01*
X152908000Y-106680000D02*
X152908000Y-107920412D01*
%TO.N,1*%
X53340000Y-71120000D02*
X45720000Y-78740000D01*
X55880000Y-71120000D02*
X53340000Y-71120000D01*
X68580000Y-78760000D02*
X68580000Y-73660000D01*
X91730000Y-73950000D02*
X91440000Y-73660000D01*
X91730000Y-78740000D02*
X91730000Y-73950000D01*
X114590000Y-73950000D02*
X114300000Y-73660000D01*
X114590000Y-78760000D02*
X114590000Y-73950000D01*
X137740000Y-74240000D02*
X137160000Y-73660000D01*
X137740000Y-78740000D02*
X137740000Y-74240000D01*
X183750000Y-74530000D02*
X182880000Y-73660000D01*
X183750000Y-78740000D02*
X183750000Y-74530000D01*
X228600000Y-78740000D02*
X228600000Y-73660000D01*
X160600000Y-78760000D02*
X160600000Y-74240000D01*
X160600000Y-74240000D02*
X160020000Y-73660000D01*
X206610000Y-78760000D02*
X206610001Y-74059999D01*
X206610001Y-74059999D02*
X207010000Y-73660000D01*
X203493998Y-73660000D02*
X198120000Y-79033998D01*
X207010000Y-73660000D02*
X203493998Y-73660000D01*
X154940000Y-109316002D02*
X154940000Y-106680000D01*
X156793999Y-111170001D02*
X154940000Y-109316002D01*
X176923001Y-111170001D02*
X156793999Y-111170001D01*
X198120000Y-89973002D02*
X176923001Y-111170001D01*
X198120000Y-79033998D02*
X198120000Y-89973002D01*
%TD*%
M02*
