G04 #@! TF.GenerationSoftware,KiCad,Pcbnew,(5.1.10)-1*
G04 #@! TF.CreationDate,2021-10-29T16:39:56-07:00*
G04 #@! TF.ProjectId,CI_ComPCB,43495f43-6f6d-4504-9342-2e6b69636164,rev?*
G04 #@! TF.SameCoordinates,Original*
G04 #@! TF.FileFunction,Soldermask,Top*
G04 #@! TF.FilePolarity,Negative*
%FSLAX46Y46*%
G04 Gerber Fmt 4.6, Leading zero omitted, Abs format (unit mm)*
G04 Created by KiCad (PCBNEW (5.1.10)-1) date 2021-10-29 16:39:56*
%MOMM*%
%LPD*%
G01*
G04 APERTURE LIST*
%ADD10C,1.980000*%
%ADD11C,1.935000*%
%ADD12R,1.980000X1.980000*%
%ADD13R,2.500000X1.700000*%
%ADD14C,1.500000*%
%ADD15C,2.300000*%
%ADD16C,3.250000*%
%ADD17R,1.500000X1.500000*%
%ADD18O,1.700000X1.700000*%
%ADD19R,1.700000X1.700000*%
%ADD20R,1.500000X1.000000*%
%ADD21O,1.500000X1.000000*%
%ADD22R,0.800000X0.800000*%
%ADD23R,1.700000X2.500000*%
%ADD24C,2.475000*%
%ADD25O,2.000000X1.905000*%
%ADD26R,2.000000X1.905000*%
%ADD27R,3.700000X3.600000*%
%ADD28R,2.300000X1.650000*%
%ADD29R,0.650000X1.500000*%
%ADD30R,0.775000X0.200000*%
%ADD31R,2.850000X1.580000*%
%ADD32O,0.240000X0.600000*%
%ADD33C,1.524000*%
%ADD34C,5.700000*%
%ADD35C,3.600000*%
%ADD36R,1.524000X1.524000*%
%ADD37C,2.500000*%
G04 APERTURE END LIST*
D10*
X112250000Y-98410000D03*
X112250000Y-86410000D03*
X124450000Y-86410000D03*
D11*
X126450000Y-92410000D03*
D12*
X124450000Y-98410000D03*
D10*
X112780000Y-131390000D03*
X112780000Y-119390000D03*
X124980000Y-119390000D03*
D11*
X126980000Y-125390000D03*
D12*
X124980000Y-131390000D03*
D13*
X123610000Y-81212000D03*
X119610000Y-81212000D03*
X123610000Y-114232000D03*
X119610000Y-114232000D03*
G36*
G01*
X171930000Y-112825000D02*
X171430000Y-112825000D01*
G75*
G02*
X171205000Y-112600000I0J225000D01*
G01*
X171205000Y-112150000D01*
G75*
G02*
X171430000Y-111925000I225000J0D01*
G01*
X171930000Y-111925000D01*
G75*
G02*
X172155000Y-112150000I0J-225000D01*
G01*
X172155000Y-112600000D01*
G75*
G02*
X171930000Y-112825000I-225000J0D01*
G01*
G37*
G36*
G01*
X171930000Y-114375000D02*
X171430000Y-114375000D01*
G75*
G02*
X171205000Y-114150000I0J225000D01*
G01*
X171205000Y-113700000D01*
G75*
G02*
X171430000Y-113475000I225000J0D01*
G01*
X171930000Y-113475000D01*
G75*
G02*
X172155000Y-113700000I0J-225000D01*
G01*
X172155000Y-114150000D01*
G75*
G02*
X171930000Y-114375000I-225000J0D01*
G01*
G37*
D14*
X204198000Y-84510000D03*
X201908000Y-84510000D03*
X192768000Y-84510000D03*
X190478000Y-84510000D03*
D15*
X189208000Y-78800000D03*
X205468000Y-78800000D03*
D16*
X203688000Y-75370000D03*
X190988000Y-75370000D03*
D14*
X200890000Y-79690000D03*
X198858000Y-79690000D03*
X196826000Y-79690000D03*
X194794000Y-79690000D03*
X199874000Y-77910000D03*
X197842000Y-77910000D03*
X195810000Y-77910000D03*
D17*
X193778000Y-77910000D03*
D14*
X190470000Y-144970000D03*
X192760000Y-144970000D03*
X201900000Y-144970000D03*
X204190000Y-144970000D03*
D15*
X205460000Y-150680000D03*
X189200000Y-150680000D03*
D16*
X190980000Y-154110000D03*
X203680000Y-154110000D03*
D14*
X193778000Y-149790000D03*
X195810000Y-149790000D03*
X197842000Y-149790000D03*
X199874000Y-149790000D03*
X194794000Y-151570000D03*
X196826000Y-151570000D03*
X198858000Y-151570000D03*
D17*
X200890000Y-151570000D03*
G36*
G01*
X177479500Y-151881999D02*
X177479500Y-152782001D01*
G75*
G02*
X177229501Y-153032000I-249999J0D01*
G01*
X176704499Y-153032000D01*
G75*
G02*
X176454500Y-152782001I0J249999D01*
G01*
X176454500Y-151881999D01*
G75*
G02*
X176704499Y-151632000I249999J0D01*
G01*
X177229501Y-151632000D01*
G75*
G02*
X177479500Y-151881999I0J-249999D01*
G01*
G37*
G36*
G01*
X179304500Y-151881999D02*
X179304500Y-152782001D01*
G75*
G02*
X179054501Y-153032000I-249999J0D01*
G01*
X178529499Y-153032000D01*
G75*
G02*
X178279500Y-152782001I0J249999D01*
G01*
X178279500Y-151881999D01*
G75*
G02*
X178529499Y-151632000I249999J0D01*
G01*
X179054501Y-151632000D01*
G75*
G02*
X179304500Y-151881999I0J-249999D01*
G01*
G37*
G36*
G01*
X179765500Y-155437999D02*
X179765500Y-156338001D01*
G75*
G02*
X179515501Y-156588000I-249999J0D01*
G01*
X178990499Y-156588000D01*
G75*
G02*
X178740500Y-156338001I0J249999D01*
G01*
X178740500Y-155437999D01*
G75*
G02*
X178990499Y-155188000I249999J0D01*
G01*
X179515501Y-155188000D01*
G75*
G02*
X179765500Y-155437999I0J-249999D01*
G01*
G37*
G36*
G01*
X181590500Y-155437999D02*
X181590500Y-156338001D01*
G75*
G02*
X181340501Y-156588000I-249999J0D01*
G01*
X180815499Y-156588000D01*
G75*
G02*
X180565500Y-156338001I0J249999D01*
G01*
X180565500Y-155437999D01*
G75*
G02*
X180815499Y-155188000I249999J0D01*
G01*
X181340501Y-155188000D01*
G75*
G02*
X181590500Y-155437999I0J-249999D01*
G01*
G37*
D18*
X175998000Y-155126000D03*
D19*
X173458000Y-155126000D03*
X162028000Y-120836000D03*
D18*
X160504000Y-124900000D03*
D19*
X160504000Y-127440000D03*
G36*
G01*
X124432000Y-104014001D02*
X124432000Y-103113999D01*
G75*
G02*
X124681999Y-102864000I249999J0D01*
G01*
X125207001Y-102864000D01*
G75*
G02*
X125457000Y-103113999I0J-249999D01*
G01*
X125457000Y-104014001D01*
G75*
G02*
X125207001Y-104264000I-249999J0D01*
G01*
X124681999Y-104264000D01*
G75*
G02*
X124432000Y-104014001I0J249999D01*
G01*
G37*
G36*
G01*
X122607000Y-104014001D02*
X122607000Y-103113999D01*
G75*
G02*
X122856999Y-102864000I249999J0D01*
G01*
X123382001Y-102864000D01*
G75*
G02*
X123632000Y-103113999I0J-249999D01*
G01*
X123632000Y-104014001D01*
G75*
G02*
X123382001Y-104264000I-249999J0D01*
G01*
X122856999Y-104264000D01*
G75*
G02*
X122607000Y-104014001I0J249999D01*
G01*
G37*
G36*
G01*
X121496000Y-76697999D02*
X121496000Y-77598001D01*
G75*
G02*
X121246001Y-77848000I-249999J0D01*
G01*
X120720999Y-77848000D01*
G75*
G02*
X120471000Y-77598001I0J249999D01*
G01*
X120471000Y-76697999D01*
G75*
G02*
X120720999Y-76448000I249999J0D01*
G01*
X121246001Y-76448000D01*
G75*
G02*
X121496000Y-76697999I0J-249999D01*
G01*
G37*
G36*
G01*
X123321000Y-76697999D02*
X123321000Y-77598001D01*
G75*
G02*
X123071001Y-77848000I-249999J0D01*
G01*
X122545999Y-77848000D01*
G75*
G02*
X122296000Y-77598001I0J249999D01*
G01*
X122296000Y-76697999D01*
G75*
G02*
X122545999Y-76448000I249999J0D01*
G01*
X123071001Y-76448000D01*
G75*
G02*
X123321000Y-76697999I0J-249999D01*
G01*
G37*
G36*
G01*
X122004000Y-109209999D02*
X122004000Y-110110001D01*
G75*
G02*
X121754001Y-110360000I-249999J0D01*
G01*
X121228999Y-110360000D01*
G75*
G02*
X120979000Y-110110001I0J249999D01*
G01*
X120979000Y-109209999D01*
G75*
G02*
X121228999Y-108960000I249999J0D01*
G01*
X121754001Y-108960000D01*
G75*
G02*
X122004000Y-109209999I0J-249999D01*
G01*
G37*
G36*
G01*
X123829000Y-109209999D02*
X123829000Y-110110001D01*
G75*
G02*
X123579001Y-110360000I-249999J0D01*
G01*
X123053999Y-110360000D01*
G75*
G02*
X122804000Y-110110001I0J249999D01*
G01*
X122804000Y-109209999D01*
G75*
G02*
X123053999Y-108960000I249999J0D01*
G01*
X123579001Y-108960000D01*
G75*
G02*
X123829000Y-109209999I0J-249999D01*
G01*
G37*
G36*
G01*
X110612000Y-76074001D02*
X110612000Y-75173999D01*
G75*
G02*
X110861999Y-74924000I249999J0D01*
G01*
X111387001Y-74924000D01*
G75*
G02*
X111637000Y-75173999I0J-249999D01*
G01*
X111637000Y-76074001D01*
G75*
G02*
X111387001Y-76324000I-249999J0D01*
G01*
X110861999Y-76324000D01*
G75*
G02*
X110612000Y-76074001I0J249999D01*
G01*
G37*
G36*
G01*
X108787000Y-76074001D02*
X108787000Y-75173999D01*
G75*
G02*
X109036999Y-74924000I249999J0D01*
G01*
X109562001Y-74924000D01*
G75*
G02*
X109812000Y-75173999I0J-249999D01*
G01*
X109812000Y-76074001D01*
G75*
G02*
X109562001Y-76324000I-249999J0D01*
G01*
X109036999Y-76324000D01*
G75*
G02*
X108787000Y-76074001I0J249999D01*
G01*
G37*
G36*
G01*
X110716000Y-107062001D02*
X110716000Y-106161999D01*
G75*
G02*
X110965999Y-105912000I249999J0D01*
G01*
X111491001Y-105912000D01*
G75*
G02*
X111741000Y-106161999I0J-249999D01*
G01*
X111741000Y-107062001D01*
G75*
G02*
X111491001Y-107312000I-249999J0D01*
G01*
X110965999Y-107312000D01*
G75*
G02*
X110716000Y-107062001I0J249999D01*
G01*
G37*
G36*
G01*
X108891000Y-107062001D02*
X108891000Y-106161999D01*
G75*
G02*
X109140999Y-105912000I249999J0D01*
G01*
X109666001Y-105912000D01*
G75*
G02*
X109916000Y-106161999I0J-249999D01*
G01*
X109916000Y-107062001D01*
G75*
G02*
X109666001Y-107312000I-249999J0D01*
G01*
X109140999Y-107312000D01*
G75*
G02*
X108891000Y-107062001I0J249999D01*
G01*
G37*
D20*
X109704000Y-81720000D03*
D21*
X109704000Y-79180000D03*
X109704000Y-80450000D03*
D20*
X109196000Y-114232000D03*
D21*
X109196000Y-111692000D03*
X109196000Y-112962000D03*
D18*
X133060000Y-100050000D03*
X133060000Y-97510000D03*
D19*
X133060000Y-94970000D03*
D18*
X132564000Y-132012000D03*
X132564000Y-129472000D03*
D19*
X132564000Y-126932000D03*
D18*
X133072000Y-86292000D03*
D19*
X133072000Y-88832000D03*
D18*
X132564000Y-118296000D03*
D19*
X132564000Y-120836000D03*
D22*
X119114000Y-103564000D03*
X120614000Y-103564000D03*
D23*
X137644000Y-93372000D03*
X137644000Y-89372000D03*
D22*
X116308000Y-78164000D03*
X114808000Y-78164000D03*
X115534000Y-110676000D03*
X114034000Y-110676000D03*
D24*
X118692000Y-145392000D03*
X123292000Y-145392000D03*
X127892000Y-145392000D03*
X118692000Y-152302000D03*
X123292000Y-152302000D03*
X127892000Y-152302000D03*
D19*
X149836000Y-86800000D03*
X154408000Y-82228000D03*
X149836000Y-82736000D03*
G36*
G01*
X183814001Y-81216500D02*
X182913999Y-81216500D01*
G75*
G02*
X182664000Y-80966501I0J249999D01*
G01*
X182664000Y-80441499D01*
G75*
G02*
X182913999Y-80191500I249999J0D01*
G01*
X183814001Y-80191500D01*
G75*
G02*
X184064000Y-80441499I0J-249999D01*
G01*
X184064000Y-80966501D01*
G75*
G02*
X183814001Y-81216500I-249999J0D01*
G01*
G37*
G36*
G01*
X183814001Y-83041500D02*
X182913999Y-83041500D01*
G75*
G02*
X182664000Y-82791501I0J249999D01*
G01*
X182664000Y-82266499D01*
G75*
G02*
X182913999Y-82016500I249999J0D01*
G01*
X183814001Y-82016500D01*
G75*
G02*
X184064000Y-82266499I0J-249999D01*
G01*
X184064000Y-82791501D01*
G75*
G02*
X183814001Y-83041500I-249999J0D01*
G01*
G37*
G36*
G01*
X209329999Y-145977500D02*
X210230001Y-145977500D01*
G75*
G02*
X210480000Y-146227499I0J-249999D01*
G01*
X210480000Y-146752501D01*
G75*
G02*
X210230001Y-147002500I-249999J0D01*
G01*
X209329999Y-147002500D01*
G75*
G02*
X209080000Y-146752501I0J249999D01*
G01*
X209080000Y-146227499D01*
G75*
G02*
X209329999Y-145977500I249999J0D01*
G01*
G37*
G36*
G01*
X209329999Y-144152500D02*
X210230001Y-144152500D01*
G75*
G02*
X210480000Y-144402499I0J-249999D01*
G01*
X210480000Y-144927501D01*
G75*
G02*
X210230001Y-145177500I-249999J0D01*
G01*
X209329999Y-145177500D01*
G75*
G02*
X209080000Y-144927501I0J249999D01*
G01*
X209080000Y-144402499D01*
G75*
G02*
X209329999Y-144152500I249999J0D01*
G01*
G37*
G36*
G01*
X163152000Y-95493999D02*
X163152000Y-96394001D01*
G75*
G02*
X162902001Y-96644000I-249999J0D01*
G01*
X162376999Y-96644000D01*
G75*
G02*
X162127000Y-96394001I0J249999D01*
G01*
X162127000Y-95493999D01*
G75*
G02*
X162376999Y-95244000I249999J0D01*
G01*
X162902001Y-95244000D01*
G75*
G02*
X163152000Y-95493999I0J-249999D01*
G01*
G37*
G36*
G01*
X164977000Y-95493999D02*
X164977000Y-96394001D01*
G75*
G02*
X164727001Y-96644000I-249999J0D01*
G01*
X164201999Y-96644000D01*
G75*
G02*
X163952000Y-96394001I0J249999D01*
G01*
X163952000Y-95493999D01*
G75*
G02*
X164201999Y-95244000I249999J0D01*
G01*
X164727001Y-95244000D01*
G75*
G02*
X164977000Y-95493999I0J-249999D01*
G01*
G37*
G36*
G01*
X167673999Y-99288500D02*
X168574001Y-99288500D01*
G75*
G02*
X168824000Y-99538499I0J-249999D01*
G01*
X168824000Y-100063501D01*
G75*
G02*
X168574001Y-100313500I-249999J0D01*
G01*
X167673999Y-100313500D01*
G75*
G02*
X167424000Y-100063501I0J249999D01*
G01*
X167424000Y-99538499D01*
G75*
G02*
X167673999Y-99288500I249999J0D01*
G01*
G37*
G36*
G01*
X167673999Y-97463500D02*
X168574001Y-97463500D01*
G75*
G02*
X168824000Y-97713499I0J-249999D01*
G01*
X168824000Y-98238501D01*
G75*
G02*
X168574001Y-98488500I-249999J0D01*
G01*
X167673999Y-98488500D01*
G75*
G02*
X167424000Y-98238501I0J249999D01*
G01*
X167424000Y-97713499D01*
G75*
G02*
X167673999Y-97463500I249999J0D01*
G01*
G37*
G36*
G01*
X163048000Y-99049999D02*
X163048000Y-99950001D01*
G75*
G02*
X162798001Y-100200000I-249999J0D01*
G01*
X162272999Y-100200000D01*
G75*
G02*
X162023000Y-99950001I0J249999D01*
G01*
X162023000Y-99049999D01*
G75*
G02*
X162272999Y-98800000I249999J0D01*
G01*
X162798001Y-98800000D01*
G75*
G02*
X163048000Y-99049999I0J-249999D01*
G01*
G37*
G36*
G01*
X164873000Y-99049999D02*
X164873000Y-99950001D01*
G75*
G02*
X164623001Y-100200000I-249999J0D01*
G01*
X164097999Y-100200000D01*
G75*
G02*
X163848000Y-99950001I0J249999D01*
G01*
X163848000Y-99049999D01*
G75*
G02*
X164097999Y-98800000I249999J0D01*
G01*
X164623001Y-98800000D01*
G75*
G02*
X164873000Y-99049999I0J-249999D01*
G01*
G37*
G36*
G01*
X167612000Y-77598001D02*
X167612000Y-76697999D01*
G75*
G02*
X167861999Y-76448000I249999J0D01*
G01*
X168387001Y-76448000D01*
G75*
G02*
X168637000Y-76697999I0J-249999D01*
G01*
X168637000Y-77598001D01*
G75*
G02*
X168387001Y-77848000I-249999J0D01*
G01*
X167861999Y-77848000D01*
G75*
G02*
X167612000Y-77598001I0J249999D01*
G01*
G37*
G36*
G01*
X165787000Y-77598001D02*
X165787000Y-76697999D01*
G75*
G02*
X166036999Y-76448000I249999J0D01*
G01*
X166562001Y-76448000D01*
G75*
G02*
X166812000Y-76697999I0J-249999D01*
G01*
X166812000Y-77598001D01*
G75*
G02*
X166562001Y-77848000I-249999J0D01*
G01*
X166036999Y-77848000D01*
G75*
G02*
X165787000Y-77598001I0J249999D01*
G01*
G37*
G36*
G01*
X162810000Y-74333000D02*
X162810000Y-74883000D01*
G75*
G02*
X162610000Y-75083000I-200000J0D01*
G01*
X162210000Y-75083000D01*
G75*
G02*
X162010000Y-74883000I0J200000D01*
G01*
X162010000Y-74333000D01*
G75*
G02*
X162210000Y-74133000I200000J0D01*
G01*
X162610000Y-74133000D01*
G75*
G02*
X162810000Y-74333000I0J-200000D01*
G01*
G37*
G36*
G01*
X164460000Y-74333000D02*
X164460000Y-74883000D01*
G75*
G02*
X164260000Y-75083000I-200000J0D01*
G01*
X163860000Y-75083000D01*
G75*
G02*
X163660000Y-74883000I0J200000D01*
G01*
X163660000Y-74333000D01*
G75*
G02*
X163860000Y-74133000I200000J0D01*
G01*
X164260000Y-74133000D01*
G75*
G02*
X164460000Y-74333000I0J-200000D01*
G01*
G37*
G36*
G01*
X141257999Y-134848000D02*
X142158001Y-134848000D01*
G75*
G02*
X142408000Y-135097999I0J-249999D01*
G01*
X142408000Y-135623001D01*
G75*
G02*
X142158001Y-135873000I-249999J0D01*
G01*
X141257999Y-135873000D01*
G75*
G02*
X141008000Y-135623001I0J249999D01*
G01*
X141008000Y-135097999D01*
G75*
G02*
X141257999Y-134848000I249999J0D01*
G01*
G37*
G36*
G01*
X141258100Y-133023000D02*
X142157900Y-133023000D01*
G75*
G02*
X142408000Y-133273100I0J-250100D01*
G01*
X142408000Y-133797900D01*
G75*
G02*
X142157900Y-134048000I-250100J0D01*
G01*
X141258100Y-134048000D01*
G75*
G02*
X141008000Y-133797900I0J250100D01*
G01*
X141008000Y-133273100D01*
G75*
G02*
X141258100Y-133023000I250100J0D01*
G01*
G37*
G36*
G01*
X145321999Y-143184000D02*
X146222001Y-143184000D01*
G75*
G02*
X146472000Y-143433999I0J-249999D01*
G01*
X146472000Y-143959001D01*
G75*
G02*
X146222001Y-144209000I-249999J0D01*
G01*
X145321999Y-144209000D01*
G75*
G02*
X145072000Y-143959001I0J249999D01*
G01*
X145072000Y-143433999D01*
G75*
G02*
X145321999Y-143184000I249999J0D01*
G01*
G37*
G36*
G01*
X145321999Y-141359000D02*
X146222001Y-141359000D01*
G75*
G02*
X146472000Y-141608999I0J-249999D01*
G01*
X146472000Y-142134001D01*
G75*
G02*
X146222001Y-142384000I-249999J0D01*
G01*
X145321999Y-142384000D01*
G75*
G02*
X145072000Y-142134001I0J249999D01*
G01*
X145072000Y-141608999D01*
G75*
G02*
X145321999Y-141359000I249999J0D01*
G01*
G37*
D25*
X137644000Y-144712000D03*
X137644000Y-142172000D03*
D26*
X137644000Y-139632000D03*
D27*
X147872000Y-101532000D03*
X158472000Y-101532000D03*
D28*
X158980000Y-84260000D03*
X158980000Y-80960000D03*
D19*
X166092000Y-124900000D03*
X145772000Y-147760000D03*
D29*
X165711000Y-109500000D03*
X166981000Y-109500000D03*
X168251000Y-109500000D03*
X169521000Y-109500000D03*
X169521000Y-114900000D03*
X168251000Y-114900000D03*
X166981000Y-114900000D03*
X165711000Y-114900000D03*
D30*
X163990000Y-83196000D03*
X163990000Y-82736000D03*
X163990000Y-82276000D03*
X163990000Y-81816000D03*
X167616000Y-81816000D03*
X167616000Y-82276000D03*
X167616000Y-82736000D03*
X167616000Y-83196000D03*
D31*
X165803000Y-82506000D03*
D32*
X167303000Y-83906000D03*
X166803000Y-83906000D03*
X166303000Y-83906000D03*
X165803000Y-83906000D03*
X165303000Y-83906000D03*
X164803000Y-83906000D03*
X164303000Y-83906000D03*
X164303000Y-81106000D03*
X164803000Y-81106000D03*
X165303000Y-81106000D03*
X165803000Y-81106000D03*
X166303000Y-81106000D03*
X166803000Y-81106000D03*
X167303000Y-81106000D03*
D33*
X169172000Y-132488000D03*
X169172000Y-155488000D03*
X155172000Y-155488000D03*
X155172000Y-132488000D03*
X158672000Y-132488000D03*
X165672000Y-132488000D03*
D23*
X177776000Y-81276000D03*
X177776000Y-85276000D03*
D13*
X158408000Y-120328000D03*
X154408000Y-120328000D03*
D23*
X160504000Y-110676000D03*
X160504000Y-114676000D03*
X149836000Y-79148000D03*
X149836000Y-75148000D03*
D22*
X145772000Y-137358000D03*
X145772000Y-138858000D03*
G36*
G01*
X154792000Y-111659000D02*
X154792000Y-110709000D01*
G75*
G02*
X155042000Y-110459000I250000J0D01*
G01*
X155542000Y-110459000D01*
G75*
G02*
X155792000Y-110709000I0J-250000D01*
G01*
X155792000Y-111659000D01*
G75*
G02*
X155542000Y-111909000I-250000J0D01*
G01*
X155042000Y-111909000D01*
G75*
G02*
X154792000Y-111659000I0J250000D01*
G01*
G37*
G36*
G01*
X152892000Y-111659000D02*
X152892000Y-110709000D01*
G75*
G02*
X153142000Y-110459000I250000J0D01*
G01*
X153642000Y-110459000D01*
G75*
G02*
X153892000Y-110709000I0J-250000D01*
G01*
X153892000Y-111659000D01*
G75*
G02*
X153642000Y-111909000I-250000J0D01*
G01*
X153142000Y-111909000D01*
G75*
G02*
X152892000Y-111659000I0J250000D01*
G01*
G37*
G36*
G01*
X163036000Y-102581000D02*
X163036000Y-103531000D01*
G75*
G02*
X162786000Y-103781000I-250000J0D01*
G01*
X162286000Y-103781000D01*
G75*
G02*
X162036000Y-103531000I0J250000D01*
G01*
X162036000Y-102581000D01*
G75*
G02*
X162286000Y-102331000I250000J0D01*
G01*
X162786000Y-102331000D01*
G75*
G02*
X163036000Y-102581000I0J-250000D01*
G01*
G37*
G36*
G01*
X164936000Y-102581000D02*
X164936000Y-103531000D01*
G75*
G02*
X164686000Y-103781000I-250000J0D01*
G01*
X164186000Y-103781000D01*
G75*
G02*
X163936000Y-103531000I0J250000D01*
G01*
X163936000Y-102581000D01*
G75*
G02*
X164186000Y-102331000I250000J0D01*
G01*
X164686000Y-102331000D01*
G75*
G02*
X164936000Y-102581000I0J-250000D01*
G01*
G37*
G36*
G01*
X154792000Y-116231000D02*
X154792000Y-115281000D01*
G75*
G02*
X155042000Y-115031000I250000J0D01*
G01*
X155542000Y-115031000D01*
G75*
G02*
X155792000Y-115281000I0J-250000D01*
G01*
X155792000Y-116231000D01*
G75*
G02*
X155542000Y-116481000I-250000J0D01*
G01*
X155042000Y-116481000D01*
G75*
G02*
X154792000Y-116231000I0J250000D01*
G01*
G37*
G36*
G01*
X152892000Y-116231000D02*
X152892000Y-115281000D01*
G75*
G02*
X153142000Y-115031000I250000J0D01*
G01*
X153642000Y-115031000D01*
G75*
G02*
X153892000Y-115281000I0J-250000D01*
G01*
X153892000Y-116231000D01*
G75*
G02*
X153642000Y-116481000I-250000J0D01*
G01*
X153142000Y-116481000D01*
G75*
G02*
X152892000Y-116231000I0J250000D01*
G01*
G37*
G36*
G01*
X168599000Y-103622000D02*
X167649000Y-103622000D01*
G75*
G02*
X167399000Y-103372000I0J250000D01*
G01*
X167399000Y-102872000D01*
G75*
G02*
X167649000Y-102622000I250000J0D01*
G01*
X168599000Y-102622000D01*
G75*
G02*
X168849000Y-102872000I0J-250000D01*
G01*
X168849000Y-103372000D01*
G75*
G02*
X168599000Y-103622000I-250000J0D01*
G01*
G37*
G36*
G01*
X168599000Y-105522000D02*
X167649000Y-105522000D01*
G75*
G02*
X167399000Y-105272000I0J250000D01*
G01*
X167399000Y-104772000D01*
G75*
G02*
X167649000Y-104522000I250000J0D01*
G01*
X168599000Y-104522000D01*
G75*
G02*
X168849000Y-104772000I0J-250000D01*
G01*
X168849000Y-105272000D01*
G75*
G02*
X168599000Y-105522000I-250000J0D01*
G01*
G37*
G36*
G01*
X163077000Y-108012000D02*
X164027000Y-108012000D01*
G75*
G02*
X164277000Y-108262000I0J-250000D01*
G01*
X164277000Y-108762000D01*
G75*
G02*
X164027000Y-109012000I-250000J0D01*
G01*
X163077000Y-109012000D01*
G75*
G02*
X162827000Y-108762000I0J250000D01*
G01*
X162827000Y-108262000D01*
G75*
G02*
X163077000Y-108012000I250000J0D01*
G01*
G37*
G36*
G01*
X163077000Y-106112000D02*
X164027000Y-106112000D01*
G75*
G02*
X164277000Y-106362000I0J-250000D01*
G01*
X164277000Y-106862000D01*
G75*
G02*
X164027000Y-107112000I-250000J0D01*
G01*
X163077000Y-107112000D01*
G75*
G02*
X162827000Y-106862000I0J250000D01*
G01*
X162827000Y-106362000D01*
G75*
G02*
X163077000Y-106112000I250000J0D01*
G01*
G37*
G36*
G01*
X165524000Y-120927000D02*
X165524000Y-121877000D01*
G75*
G02*
X165274000Y-122127000I-250000J0D01*
G01*
X164774000Y-122127000D01*
G75*
G02*
X164524000Y-121877000I0J250000D01*
G01*
X164524000Y-120927000D01*
G75*
G02*
X164774000Y-120677000I250000J0D01*
G01*
X165274000Y-120677000D01*
G75*
G02*
X165524000Y-120927000I0J-250000D01*
G01*
G37*
G36*
G01*
X167424000Y-120927000D02*
X167424000Y-121877000D01*
G75*
G02*
X167174000Y-122127000I-250000J0D01*
G01*
X166674000Y-122127000D01*
G75*
G02*
X166424000Y-121877000I0J250000D01*
G01*
X166424000Y-120927000D01*
G75*
G02*
X166674000Y-120677000I250000J0D01*
G01*
X167174000Y-120677000D01*
G75*
G02*
X167424000Y-120927000I0J-250000D01*
G01*
G37*
G36*
G01*
X165524000Y-117917000D02*
X165524000Y-118867000D01*
G75*
G02*
X165274000Y-119117000I-250000J0D01*
G01*
X164774000Y-119117000D01*
G75*
G02*
X164524000Y-118867000I0J250000D01*
G01*
X164524000Y-117917000D01*
G75*
G02*
X164774000Y-117667000I250000J0D01*
G01*
X165274000Y-117667000D01*
G75*
G02*
X165524000Y-117917000I0J-250000D01*
G01*
G37*
G36*
G01*
X167424000Y-117917000D02*
X167424000Y-118867000D01*
G75*
G02*
X167174000Y-119117000I-250000J0D01*
G01*
X166674000Y-119117000D01*
G75*
G02*
X166424000Y-118867000I0J250000D01*
G01*
X166424000Y-117917000D01*
G75*
G02*
X166674000Y-117667000I250000J0D01*
G01*
X167174000Y-117667000D01*
G75*
G02*
X167424000Y-117917000I0J-250000D01*
G01*
G37*
G36*
G01*
X159013000Y-76074000D02*
X159963000Y-76074000D01*
G75*
G02*
X160213000Y-76324000I0J-250000D01*
G01*
X160213000Y-76824000D01*
G75*
G02*
X159963000Y-77074000I-250000J0D01*
G01*
X159013000Y-77074000D01*
G75*
G02*
X158763000Y-76824000I0J250000D01*
G01*
X158763000Y-76324000D01*
G75*
G02*
X159013000Y-76074000I250000J0D01*
G01*
G37*
G36*
G01*
X159013000Y-74174000D02*
X159963000Y-74174000D01*
G75*
G02*
X160213000Y-74424000I0J-250000D01*
G01*
X160213000Y-74924000D01*
G75*
G02*
X159963000Y-75174000I-250000J0D01*
G01*
X159013000Y-75174000D01*
G75*
G02*
X158763000Y-74924000I0J250000D01*
G01*
X158763000Y-74424000D01*
G75*
G02*
X159013000Y-74174000I250000J0D01*
G01*
G37*
G36*
G01*
X155965000Y-76008000D02*
X156915000Y-76008000D01*
G75*
G02*
X157165000Y-76258000I0J-250000D01*
G01*
X157165000Y-76758000D01*
G75*
G02*
X156915000Y-77008000I-250000J0D01*
G01*
X155965000Y-77008000D01*
G75*
G02*
X155715000Y-76758000I0J250000D01*
G01*
X155715000Y-76258000D01*
G75*
G02*
X155965000Y-76008000I250000J0D01*
G01*
G37*
G36*
G01*
X155965000Y-74108000D02*
X156915000Y-74108000D01*
G75*
G02*
X157165000Y-74358000I0J-250000D01*
G01*
X157165000Y-74858000D01*
G75*
G02*
X156915000Y-75108000I-250000J0D01*
G01*
X155965000Y-75108000D01*
G75*
G02*
X155715000Y-74858000I0J250000D01*
G01*
X155715000Y-74358000D01*
G75*
G02*
X155965000Y-74108000I250000J0D01*
G01*
G37*
G36*
G01*
X152917000Y-76008000D02*
X153867000Y-76008000D01*
G75*
G02*
X154117000Y-76258000I0J-250000D01*
G01*
X154117000Y-76758000D01*
G75*
G02*
X153867000Y-77008000I-250000J0D01*
G01*
X152917000Y-77008000D01*
G75*
G02*
X152667000Y-76758000I0J250000D01*
G01*
X152667000Y-76258000D01*
G75*
G02*
X152917000Y-76008000I250000J0D01*
G01*
G37*
G36*
G01*
X152917000Y-74108000D02*
X153867000Y-74108000D01*
G75*
G02*
X154117000Y-74358000I0J-250000D01*
G01*
X154117000Y-74858000D01*
G75*
G02*
X153867000Y-75108000I-250000J0D01*
G01*
X152917000Y-75108000D01*
G75*
G02*
X152667000Y-74858000I0J250000D01*
G01*
X152667000Y-74358000D01*
G75*
G02*
X152917000Y-74108000I250000J0D01*
G01*
G37*
G36*
G01*
X170631000Y-79304000D02*
X169681000Y-79304000D01*
G75*
G02*
X169431000Y-79054000I0J250000D01*
G01*
X169431000Y-78554000D01*
G75*
G02*
X169681000Y-78304000I250000J0D01*
G01*
X170631000Y-78304000D01*
G75*
G02*
X170881000Y-78554000I0J-250000D01*
G01*
X170881000Y-79054000D01*
G75*
G02*
X170631000Y-79304000I-250000J0D01*
G01*
G37*
G36*
G01*
X170631000Y-81204000D02*
X169681000Y-81204000D01*
G75*
G02*
X169431000Y-80954000I0J250000D01*
G01*
X169431000Y-80454000D01*
G75*
G02*
X169681000Y-80204000I250000J0D01*
G01*
X170631000Y-80204000D01*
G75*
G02*
X170881000Y-80454000I0J-250000D01*
G01*
X170881000Y-80954000D01*
G75*
G02*
X170631000Y-81204000I-250000J0D01*
G01*
G37*
G36*
G01*
X154883000Y-85400000D02*
X153933000Y-85400000D01*
G75*
G02*
X153683000Y-85150000I0J250000D01*
G01*
X153683000Y-84650000D01*
G75*
G02*
X153933000Y-84400000I250000J0D01*
G01*
X154883000Y-84400000D01*
G75*
G02*
X155133000Y-84650000I0J-250000D01*
G01*
X155133000Y-85150000D01*
G75*
G02*
X154883000Y-85400000I-250000J0D01*
G01*
G37*
G36*
G01*
X154883000Y-87300000D02*
X153933000Y-87300000D01*
G75*
G02*
X153683000Y-87050000I0J250000D01*
G01*
X153683000Y-86550000D01*
G75*
G02*
X153933000Y-86300000I250000J0D01*
G01*
X154883000Y-86300000D01*
G75*
G02*
X155133000Y-86550000I0J-250000D01*
G01*
X155133000Y-87050000D01*
G75*
G02*
X154883000Y-87300000I-250000J0D01*
G01*
G37*
D34*
X212320000Y-76640000D03*
D35*
X212320000Y-76640000D03*
D34*
X100560000Y-153348000D03*
D35*
X100560000Y-153348000D03*
D34*
X212320000Y-152840000D03*
D35*
X212320000Y-152840000D03*
D34*
X100560000Y-77148000D03*
D35*
X100560000Y-77148000D03*
D36*
X205780000Y-96936000D03*
X203280000Y-96936000D03*
X200780000Y-96936000D03*
X198280000Y-96936000D03*
X207280000Y-136936000D03*
X202280000Y-136936000D03*
X197280000Y-136936000D03*
X181776000Y-132036000D03*
X184276000Y-132036000D03*
X186776000Y-132036000D03*
X189276000Y-132036000D03*
X180276000Y-92036000D03*
X185276000Y-92036000D03*
X190276000Y-92036000D03*
D37*
X213628000Y-97628000D03*
X138628000Y-97628000D03*
D33*
X149054000Y-113216000D03*
X149054000Y-115756000D03*
X149054000Y-118296000D03*
X149054000Y-120836000D03*
X149054000Y-123376000D03*
X149054000Y-125916000D03*
X149054000Y-128456000D03*
X149054000Y-130996000D03*
X149054000Y-133536000D03*
X149054000Y-136076000D03*
X149054000Y-138616000D03*
X149054000Y-141156000D03*
X149054000Y-143696000D03*
X149054000Y-146236000D03*
X149054000Y-148776000D03*
X174554000Y-113216000D03*
X174554000Y-115756000D03*
X174554000Y-118296000D03*
X174554000Y-120836000D03*
X174554000Y-123376000D03*
X174554000Y-125916000D03*
X174554000Y-128456000D03*
X174554000Y-130996000D03*
X174554000Y-133536000D03*
X174554000Y-136076000D03*
X174554000Y-138616000D03*
X174554000Y-141156000D03*
X174554000Y-143696000D03*
X174554000Y-146236000D03*
X174554000Y-148776000D03*
M02*
