G04 #@! TF.GenerationSoftware,KiCad,Pcbnew,(5.1.10-1-10_14)*
G04 #@! TF.CreationDate,2022-01-11T16:09:18-08:00*
G04 #@! TF.ProjectId,CI_ComPCB,43495f43-6f6d-4504-9342-2e6b69636164,rev?*
G04 #@! TF.SameCoordinates,Original*
G04 #@! TF.FileFunction,Copper,L1,Top*
G04 #@! TF.FilePolarity,Positive*
%FSLAX46Y46*%
G04 Gerber Fmt 4.6, Leading zero omitted, Abs format (unit mm)*
G04 Created by KiCad (PCBNEW (5.1.10-1-10_14)) date 2022-01-11 16:09:18*
%MOMM*%
%LPD*%
G01*
G04 APERTURE LIST*
G04 #@! TA.AperFunction,ComponentPad*
%ADD10C,1.500000*%
G04 #@! TD*
G04 #@! TA.AperFunction,ComponentPad*
%ADD11C,2.300000*%
G04 #@! TD*
G04 #@! TA.AperFunction,ComponentPad*
%ADD12R,1.500000X1.500000*%
G04 #@! TD*
G04 #@! TA.AperFunction,ConnectorPad*
%ADD13C,5.700000*%
G04 #@! TD*
G04 #@! TA.AperFunction,ComponentPad*
%ADD14C,3.600000*%
G04 #@! TD*
G04 #@! TA.AperFunction,ComponentPad*
%ADD15C,1.524000*%
G04 #@! TD*
G04 #@! TA.AperFunction,ComponentPad*
%ADD16R,1.700000X1.700000*%
G04 #@! TD*
G04 #@! TA.AperFunction,SMDPad,CuDef*
%ADD17R,1.524000X1.524000*%
G04 #@! TD*
G04 #@! TA.AperFunction,SMDPad,CuDef*
%ADD18R,3.700000X3.600000*%
G04 #@! TD*
G04 #@! TA.AperFunction,SMDPad,CuDef*
%ADD19R,0.650000X1.500000*%
G04 #@! TD*
G04 #@! TA.AperFunction,SMDPad,CuDef*
%ADD20R,2.500000X1.700000*%
G04 #@! TD*
G04 #@! TA.AperFunction,SMDPad,CuDef*
%ADD21R,1.700000X2.500000*%
G04 #@! TD*
G04 #@! TA.AperFunction,ViaPad*
%ADD22C,0.609600*%
G04 #@! TD*
G04 #@! TA.AperFunction,Conductor*
%ADD23C,0.750000*%
G04 #@! TD*
G04 #@! TA.AperFunction,Conductor*
%ADD24C,0.203200*%
G04 #@! TD*
G04 #@! TA.AperFunction,Conductor*
%ADD25C,1.000000*%
G04 #@! TD*
G04 #@! TA.AperFunction,Conductor*
%ADD26C,1.270000*%
G04 #@! TD*
G04 #@! TA.AperFunction,Conductor*
%ADD27C,0.762000*%
G04 #@! TD*
G04 #@! TA.AperFunction,Conductor*
%ADD28C,0.508000*%
G04 #@! TD*
G04 #@! TA.AperFunction,Conductor*
%ADD29C,0.635000*%
G04 #@! TD*
G04 APERTURE END LIST*
D10*
X159240000Y-78920000D03*
X156950000Y-78920000D03*
X147810000Y-78920000D03*
X145520000Y-78920000D03*
D11*
X144250000Y-73210000D03*
X160510000Y-73210000D03*
D10*
X155932000Y-74100000D03*
X153900000Y-74100000D03*
X151868000Y-74100000D03*
X149836000Y-74100000D03*
X154916000Y-72320000D03*
X152884000Y-72320000D03*
X150852000Y-72320000D03*
D12*
X148820000Y-72320000D03*
D13*
X105640000Y-124900000D03*
D14*
X105640000Y-124900000D03*
D13*
X105640000Y-74100000D03*
D14*
X105640000Y-74100000D03*
D13*
X169140000Y-124900000D03*
D14*
X169140000Y-124900000D03*
D13*
X169140000Y-74100000D03*
D14*
X169140000Y-74100000D03*
D15*
X117050000Y-90226000D03*
X117050000Y-92766000D03*
X117050000Y-95306000D03*
X117050000Y-97846000D03*
X117050000Y-100386000D03*
X117050000Y-102926000D03*
X117050000Y-105466000D03*
X117050000Y-108006000D03*
X117050000Y-110546000D03*
X117050000Y-113086000D03*
X117050000Y-115626000D03*
X117050000Y-118166000D03*
X117050000Y-120706000D03*
X117050000Y-123246000D03*
X117050000Y-125786000D03*
X142550000Y-90226000D03*
X142550000Y-92766000D03*
X142550000Y-95306000D03*
X142550000Y-97846000D03*
X142550000Y-100386000D03*
X142550000Y-102926000D03*
X142550000Y-105466000D03*
X142550000Y-108006000D03*
X142550000Y-110546000D03*
X142550000Y-113086000D03*
X142550000Y-115626000D03*
X142550000Y-118166000D03*
X142550000Y-120706000D03*
X142550000Y-123246000D03*
X142550000Y-125786000D03*
G04 #@! TA.AperFunction,SMDPad,CuDef*
G36*
G01*
X141396001Y-73192000D02*
X140495999Y-73192000D01*
G75*
G02*
X140246000Y-72942001I0J249999D01*
G01*
X140246000Y-72416999D01*
G75*
G02*
X140495999Y-72167000I249999J0D01*
G01*
X141396001Y-72167000D01*
G75*
G02*
X141646000Y-72416999I0J-249999D01*
G01*
X141646000Y-72942001D01*
G75*
G02*
X141396001Y-73192000I-249999J0D01*
G01*
G37*
G04 #@! TD.AperFunction*
G04 #@! TA.AperFunction,SMDPad,CuDef*
G36*
G01*
X141396001Y-75017000D02*
X140495999Y-75017000D01*
G75*
G02*
X140246000Y-74767001I0J249999D01*
G01*
X140246000Y-74241999D01*
G75*
G02*
X140495999Y-73992000I249999J0D01*
G01*
X141396001Y-73992000D01*
G75*
G02*
X141646000Y-74241999I0J-249999D01*
G01*
X141646000Y-74767001D01*
G75*
G02*
X141396001Y-75017000I-249999J0D01*
G01*
G37*
G04 #@! TD.AperFunction*
D16*
X113514000Y-123122000D03*
D17*
X152820000Y-126448000D03*
X155320000Y-126448000D03*
X157820000Y-126448000D03*
X160320000Y-126448000D03*
X151320000Y-86448000D03*
X156320000Y-86448000D03*
X161320000Y-86448000D03*
G04 #@! TA.AperFunction,SMDPad,CuDef*
G36*
G01*
X138910000Y-91235000D02*
X138410000Y-91235000D01*
G75*
G02*
X138185000Y-91010000I0J225000D01*
G01*
X138185000Y-90560000D01*
G75*
G02*
X138410000Y-90335000I225000J0D01*
G01*
X138910000Y-90335000D01*
G75*
G02*
X139135000Y-90560000I0J-225000D01*
G01*
X139135000Y-91010000D01*
G75*
G02*
X138910000Y-91235000I-225000J0D01*
G01*
G37*
G04 #@! TD.AperFunction*
G04 #@! TA.AperFunction,SMDPad,CuDef*
G36*
G01*
X138910000Y-92785000D02*
X138410000Y-92785000D01*
G75*
G02*
X138185000Y-92560000I0J225000D01*
G01*
X138185000Y-92110000D01*
G75*
G02*
X138410000Y-91885000I225000J0D01*
G01*
X138910000Y-91885000D01*
G75*
G02*
X139135000Y-92110000I0J-225000D01*
G01*
X139135000Y-92560000D01*
G75*
G02*
X138910000Y-92785000I-225000J0D01*
G01*
G37*
G04 #@! TD.AperFunction*
D16*
X129008000Y-99246000D03*
G04 #@! TA.AperFunction,SMDPad,CuDef*
G36*
G01*
X130132000Y-73903998D02*
X130132000Y-74804002D01*
G75*
G02*
X129882002Y-75054000I-249998J0D01*
G01*
X129356998Y-75054000D01*
G75*
G02*
X129107000Y-74804002I0J249998D01*
G01*
X129107000Y-73903998D01*
G75*
G02*
X129356998Y-73654000I249998J0D01*
G01*
X129882002Y-73654000D01*
G75*
G02*
X130132000Y-73903998I0J-249998D01*
G01*
G37*
G04 #@! TD.AperFunction*
G04 #@! TA.AperFunction,SMDPad,CuDef*
G36*
G01*
X131957000Y-73903998D02*
X131957000Y-74804002D01*
G75*
G02*
X131707002Y-75054000I-249998J0D01*
G01*
X131181998Y-75054000D01*
G75*
G02*
X130932000Y-74804002I0J249998D01*
G01*
X130932000Y-73903998D01*
G75*
G02*
X131181998Y-73654000I249998J0D01*
G01*
X131707002Y-73654000D01*
G75*
G02*
X131957000Y-73903998I0J-249998D01*
G01*
G37*
G04 #@! TD.AperFunction*
G04 #@! TA.AperFunction,SMDPad,CuDef*
G36*
G01*
X134653998Y-77698500D02*
X135554002Y-77698500D01*
G75*
G02*
X135804000Y-77948498I0J-249998D01*
G01*
X135804000Y-78473502D01*
G75*
G02*
X135554002Y-78723500I-249998J0D01*
G01*
X134653998Y-78723500D01*
G75*
G02*
X134404000Y-78473502I0J249998D01*
G01*
X134404000Y-77948498D01*
G75*
G02*
X134653998Y-77698500I249998J0D01*
G01*
G37*
G04 #@! TD.AperFunction*
G04 #@! TA.AperFunction,SMDPad,CuDef*
G36*
G01*
X134653998Y-75873500D02*
X135554002Y-75873500D01*
G75*
G02*
X135804000Y-76123498I0J-249998D01*
G01*
X135804000Y-76648502D01*
G75*
G02*
X135554002Y-76898500I-249998J0D01*
G01*
X134653998Y-76898500D01*
G75*
G02*
X134404000Y-76648502I0J249998D01*
G01*
X134404000Y-76123498D01*
G75*
G02*
X134653998Y-75873500I249998J0D01*
G01*
G37*
G04 #@! TD.AperFunction*
G04 #@! TA.AperFunction,SMDPad,CuDef*
G36*
G01*
X130028000Y-77459998D02*
X130028000Y-78360002D01*
G75*
G02*
X129778002Y-78610000I-249998J0D01*
G01*
X129252998Y-78610000D01*
G75*
G02*
X129003000Y-78360002I0J249998D01*
G01*
X129003000Y-77459998D01*
G75*
G02*
X129252998Y-77210000I249998J0D01*
G01*
X129778002Y-77210000D01*
G75*
G02*
X130028000Y-77459998I0J-249998D01*
G01*
G37*
G04 #@! TD.AperFunction*
G04 #@! TA.AperFunction,SMDPad,CuDef*
G36*
G01*
X131853000Y-77459998D02*
X131853000Y-78360002D01*
G75*
G02*
X131603002Y-78610000I-249998J0D01*
G01*
X131077998Y-78610000D01*
G75*
G02*
X130828000Y-78360002I0J249998D01*
G01*
X130828000Y-77459998D01*
G75*
G02*
X131077998Y-77210000I249998J0D01*
G01*
X131603002Y-77210000D01*
G75*
G02*
X131853000Y-77459998I0J-249998D01*
G01*
G37*
G04 #@! TD.AperFunction*
D18*
X114852000Y-79942000D03*
X125452000Y-79942000D03*
D16*
X133072000Y-103310000D03*
D19*
X132691000Y-87910000D03*
X133961000Y-87910000D03*
X135231000Y-87910000D03*
X136501000Y-87910000D03*
X136501000Y-93310000D03*
X135231000Y-93310000D03*
X133961000Y-93310000D03*
X132691000Y-93310000D03*
D20*
X125388000Y-98738000D03*
X121388000Y-98738000D03*
D21*
X127484000Y-89086000D03*
X127484000Y-93086000D03*
G04 #@! TA.AperFunction,SMDPad,CuDef*
G36*
G01*
X121772000Y-90069000D02*
X121772000Y-89119000D01*
G75*
G02*
X122022000Y-88869000I250000J0D01*
G01*
X122522000Y-88869000D01*
G75*
G02*
X122772000Y-89119000I0J-250000D01*
G01*
X122772000Y-90069000D01*
G75*
G02*
X122522000Y-90319000I-250000J0D01*
G01*
X122022000Y-90319000D01*
G75*
G02*
X121772000Y-90069000I0J250000D01*
G01*
G37*
G04 #@! TD.AperFunction*
G04 #@! TA.AperFunction,SMDPad,CuDef*
G36*
G01*
X119872000Y-90069000D02*
X119872000Y-89119000D01*
G75*
G02*
X120122000Y-88869000I250000J0D01*
G01*
X120622000Y-88869000D01*
G75*
G02*
X120872000Y-89119000I0J-250000D01*
G01*
X120872000Y-90069000D01*
G75*
G02*
X120622000Y-90319000I-250000J0D01*
G01*
X120122000Y-90319000D01*
G75*
G02*
X119872000Y-90069000I0J250000D01*
G01*
G37*
G04 #@! TD.AperFunction*
G04 #@! TA.AperFunction,SMDPad,CuDef*
G36*
G01*
X130016000Y-80991000D02*
X130016000Y-81941000D01*
G75*
G02*
X129766000Y-82191000I-250000J0D01*
G01*
X129266000Y-82191000D01*
G75*
G02*
X129016000Y-81941000I0J250000D01*
G01*
X129016000Y-80991000D01*
G75*
G02*
X129266000Y-80741000I250000J0D01*
G01*
X129766000Y-80741000D01*
G75*
G02*
X130016000Y-80991000I0J-250000D01*
G01*
G37*
G04 #@! TD.AperFunction*
G04 #@! TA.AperFunction,SMDPad,CuDef*
G36*
G01*
X131916000Y-80991000D02*
X131916000Y-81941000D01*
G75*
G02*
X131666000Y-82191000I-250000J0D01*
G01*
X131166000Y-82191000D01*
G75*
G02*
X130916000Y-81941000I0J250000D01*
G01*
X130916000Y-80991000D01*
G75*
G02*
X131166000Y-80741000I250000J0D01*
G01*
X131666000Y-80741000D01*
G75*
G02*
X131916000Y-80991000I0J-250000D01*
G01*
G37*
G04 #@! TD.AperFunction*
G04 #@! TA.AperFunction,SMDPad,CuDef*
G36*
G01*
X121772000Y-94641000D02*
X121772000Y-93691000D01*
G75*
G02*
X122022000Y-93441000I250000J0D01*
G01*
X122522000Y-93441000D01*
G75*
G02*
X122772000Y-93691000I0J-250000D01*
G01*
X122772000Y-94641000D01*
G75*
G02*
X122522000Y-94891000I-250000J0D01*
G01*
X122022000Y-94891000D01*
G75*
G02*
X121772000Y-94641000I0J250000D01*
G01*
G37*
G04 #@! TD.AperFunction*
G04 #@! TA.AperFunction,SMDPad,CuDef*
G36*
G01*
X119872000Y-94641000D02*
X119872000Y-93691000D01*
G75*
G02*
X120122000Y-93441000I250000J0D01*
G01*
X120622000Y-93441000D01*
G75*
G02*
X120872000Y-93691000I0J-250000D01*
G01*
X120872000Y-94641000D01*
G75*
G02*
X120622000Y-94891000I-250000J0D01*
G01*
X120122000Y-94891000D01*
G75*
G02*
X119872000Y-94641000I0J250000D01*
G01*
G37*
G04 #@! TD.AperFunction*
G04 #@! TA.AperFunction,SMDPad,CuDef*
G36*
G01*
X135579000Y-82032000D02*
X134629000Y-82032000D01*
G75*
G02*
X134379000Y-81782000I0J250000D01*
G01*
X134379000Y-81282000D01*
G75*
G02*
X134629000Y-81032000I250000J0D01*
G01*
X135579000Y-81032000D01*
G75*
G02*
X135829000Y-81282000I0J-250000D01*
G01*
X135829000Y-81782000D01*
G75*
G02*
X135579000Y-82032000I-250000J0D01*
G01*
G37*
G04 #@! TD.AperFunction*
G04 #@! TA.AperFunction,SMDPad,CuDef*
G36*
G01*
X135579000Y-83932000D02*
X134629000Y-83932000D01*
G75*
G02*
X134379000Y-83682000I0J250000D01*
G01*
X134379000Y-83182000D01*
G75*
G02*
X134629000Y-82932000I250000J0D01*
G01*
X135579000Y-82932000D01*
G75*
G02*
X135829000Y-83182000I0J-250000D01*
G01*
X135829000Y-83682000D01*
G75*
G02*
X135579000Y-83932000I-250000J0D01*
G01*
G37*
G04 #@! TD.AperFunction*
G04 #@! TA.AperFunction,SMDPad,CuDef*
G36*
G01*
X130057000Y-86422000D02*
X131007000Y-86422000D01*
G75*
G02*
X131257000Y-86672000I0J-250000D01*
G01*
X131257000Y-87172000D01*
G75*
G02*
X131007000Y-87422000I-250000J0D01*
G01*
X130057000Y-87422000D01*
G75*
G02*
X129807000Y-87172000I0J250000D01*
G01*
X129807000Y-86672000D01*
G75*
G02*
X130057000Y-86422000I250000J0D01*
G01*
G37*
G04 #@! TD.AperFunction*
G04 #@! TA.AperFunction,SMDPad,CuDef*
G36*
G01*
X130057000Y-84522000D02*
X131007000Y-84522000D01*
G75*
G02*
X131257000Y-84772000I0J-250000D01*
G01*
X131257000Y-85272000D01*
G75*
G02*
X131007000Y-85522000I-250000J0D01*
G01*
X130057000Y-85522000D01*
G75*
G02*
X129807000Y-85272000I0J250000D01*
G01*
X129807000Y-84772000D01*
G75*
G02*
X130057000Y-84522000I250000J0D01*
G01*
G37*
G04 #@! TD.AperFunction*
G04 #@! TA.AperFunction,SMDPad,CuDef*
G36*
G01*
X132504000Y-99337000D02*
X132504000Y-100287000D01*
G75*
G02*
X132254000Y-100537000I-250000J0D01*
G01*
X131754000Y-100537000D01*
G75*
G02*
X131504000Y-100287000I0J250000D01*
G01*
X131504000Y-99337000D01*
G75*
G02*
X131754000Y-99087000I250000J0D01*
G01*
X132254000Y-99087000D01*
G75*
G02*
X132504000Y-99337000I0J-250000D01*
G01*
G37*
G04 #@! TD.AperFunction*
G04 #@! TA.AperFunction,SMDPad,CuDef*
G36*
G01*
X134404000Y-99337000D02*
X134404000Y-100287000D01*
G75*
G02*
X134154000Y-100537000I-250000J0D01*
G01*
X133654000Y-100537000D01*
G75*
G02*
X133404000Y-100287000I0J250000D01*
G01*
X133404000Y-99337000D01*
G75*
G02*
X133654000Y-99087000I250000J0D01*
G01*
X134154000Y-99087000D01*
G75*
G02*
X134404000Y-99337000I0J-250000D01*
G01*
G37*
G04 #@! TD.AperFunction*
G04 #@! TA.AperFunction,SMDPad,CuDef*
G36*
G01*
X132504000Y-96327000D02*
X132504000Y-97277000D01*
G75*
G02*
X132254000Y-97527000I-250000J0D01*
G01*
X131754000Y-97527000D01*
G75*
G02*
X131504000Y-97277000I0J250000D01*
G01*
X131504000Y-96327000D01*
G75*
G02*
X131754000Y-96077000I250000J0D01*
G01*
X132254000Y-96077000D01*
G75*
G02*
X132504000Y-96327000I0J-250000D01*
G01*
G37*
G04 #@! TD.AperFunction*
G04 #@! TA.AperFunction,SMDPad,CuDef*
G36*
G01*
X134404000Y-96327000D02*
X134404000Y-97277000D01*
G75*
G02*
X134154000Y-97527000I-250000J0D01*
G01*
X133654000Y-97527000D01*
G75*
G02*
X133404000Y-97277000I0J250000D01*
G01*
X133404000Y-96327000D01*
G75*
G02*
X133654000Y-96077000I250000J0D01*
G01*
X134154000Y-96077000D01*
G75*
G02*
X134404000Y-96327000I0J-250000D01*
G01*
G37*
G04 #@! TD.AperFunction*
D22*
X127548000Y-95626000D03*
X126278000Y-94356000D03*
X129008000Y-96706000D03*
X131260000Y-83278000D03*
X133038000Y-85056000D03*
X122272000Y-91494000D03*
X124370000Y-91692000D03*
X123100000Y-90422000D03*
X123356000Y-93086000D03*
X125896000Y-93086000D03*
X132004000Y-98178000D03*
X128786000Y-94388000D03*
X129802000Y-95404000D03*
X130564000Y-96166000D03*
X136628000Y-90610000D03*
X135414000Y-90300000D03*
X134144000Y-89030000D03*
X129516000Y-75878000D03*
X129516000Y-79942000D03*
X132818000Y-91372000D03*
X146573002Y-117534000D03*
X147296000Y-113724000D03*
D23*
X129516000Y-75878000D02*
X129516000Y-74457500D01*
X129516000Y-74457500D02*
X129620000Y-74354000D01*
X129516000Y-77910000D02*
X129516000Y-75878000D01*
X129516000Y-79942000D02*
X129516000Y-77910000D01*
D24*
X129516000Y-77910000D02*
X129515500Y-77910000D01*
D25*
X127548000Y-95626000D02*
X129008000Y-97086000D01*
X126278000Y-94356000D02*
X127548000Y-95626000D01*
X129008000Y-97086000D02*
X129008000Y-96706000D01*
X129008000Y-99246000D02*
X129008000Y-97086000D01*
D23*
X131040000Y-83278000D02*
X129296000Y-81534000D01*
X129516000Y-81534000D02*
X129516000Y-81466000D01*
X133038000Y-85056000D02*
X131260000Y-83278000D01*
X125764000Y-93086000D02*
X125008000Y-93086000D01*
X125896000Y-93086000D02*
X125764000Y-93086000D01*
X125896000Y-93086000D02*
X125764000Y-93086000D01*
X127484000Y-93086000D02*
X125896000Y-93086000D01*
X125008000Y-93086000D02*
X123356000Y-93086000D01*
X128786000Y-94388000D02*
X127484000Y-93086000D01*
X129802000Y-95404000D02*
X128786000Y-94388000D01*
X130564000Y-96166000D02*
X129802000Y-95404000D01*
X129516000Y-81466000D02*
X129516000Y-79942000D01*
D25*
X129008000Y-96706000D02*
X129008000Y-96198000D01*
X129008000Y-96198000D02*
X129802000Y-95404000D01*
X125008000Y-93086000D02*
X126278000Y-94356000D01*
X129008000Y-97086000D02*
X129008000Y-99246000D01*
D23*
X122272000Y-91494000D02*
X122272000Y-94166000D01*
X124370000Y-91692000D02*
X123100000Y-90422000D01*
X123100000Y-90422000D02*
X122272000Y-89594000D01*
X123356000Y-93086000D02*
X123352000Y-93086000D01*
X123352000Y-93086000D02*
X122272000Y-94166000D01*
X132004000Y-98178000D02*
X132004000Y-96802000D01*
X133961000Y-87910000D02*
X133961000Y-85979000D01*
X133961000Y-85979000D02*
X133038000Y-85056000D01*
X122272000Y-89594000D02*
X122272000Y-91494000D01*
X125764000Y-93086000D02*
X124370000Y-91692000D01*
X127484000Y-93086000D02*
X125896000Y-93086000D01*
X135414000Y-90300000D02*
X134144000Y-89030000D01*
X132004000Y-96802000D02*
X131200000Y-96802000D01*
X131200000Y-96802000D02*
X130564000Y-96166000D01*
X132004000Y-99812000D02*
X132004000Y-98178000D01*
X136628000Y-90610000D02*
X135724000Y-90610000D01*
X135724000Y-90610000D02*
X135414000Y-90300000D01*
X134144000Y-89030000D02*
X133961000Y-88847000D01*
X133961000Y-88847000D02*
X133961000Y-87910000D01*
X138660000Y-90610000D02*
X136628000Y-90610000D01*
X134342000Y-91372000D02*
X135414000Y-90300000D01*
X132818000Y-91372000D02*
X134342000Y-91372000D01*
X132818000Y-90356000D02*
X134144000Y-89030000D01*
X132818000Y-91372000D02*
X132818000Y-90356000D01*
D26*
X161320000Y-74020000D02*
X160510000Y-73210000D01*
X161320000Y-86448000D02*
X161320000Y-74020000D01*
X167592000Y-126448000D02*
X169140000Y-124900000D01*
X160320000Y-126448000D02*
X167592000Y-126448000D01*
D27*
X152158000Y-125786000D02*
X152820000Y-126448000D01*
X142550000Y-125786000D02*
X152158000Y-125786000D01*
X155320000Y-126448000D02*
X155320000Y-126320000D01*
X155320000Y-126280998D02*
X146573002Y-117534000D01*
X155320000Y-126448000D02*
X155320000Y-126280998D01*
X146573002Y-117534000D02*
X146573002Y-117534000D01*
X144118000Y-110546000D02*
X142550000Y-110546000D01*
X147296000Y-113724000D02*
X144118000Y-110546000D01*
X144458000Y-113086000D02*
X142550000Y-113086000D01*
X157820000Y-126448000D02*
X144458000Y-113086000D01*
D28*
X151320000Y-75584000D02*
X149836000Y-74100000D01*
D27*
X151320000Y-86448000D02*
X151320000Y-75584000D01*
X154922999Y-87845001D02*
X156320000Y-86448000D01*
X149922999Y-87718001D02*
X150049999Y-87845001D01*
D28*
X148450999Y-74764801D02*
X149922999Y-76236801D01*
D27*
X150049999Y-87845001D02*
X154922999Y-87845001D01*
X149922999Y-76236801D02*
X149922999Y-87718001D01*
D28*
X148450999Y-72691001D02*
X148450999Y-74764801D01*
D27*
X148820000Y-72322000D02*
X148450999Y-72691001D01*
X148820000Y-72320000D02*
X148820000Y-72322000D01*
D23*
X133904000Y-99812000D02*
X133904000Y-102478000D01*
X133904000Y-102478000D02*
X133072000Y-103310000D01*
X133904000Y-96802000D02*
X133904000Y-99812000D01*
X133961000Y-93310000D02*
X133961000Y-96745000D01*
X133961000Y-96745000D02*
X133904000Y-96802000D01*
D27*
X144945199Y-67519999D02*
X140946000Y-71519198D01*
X140946000Y-71519198D02*
X140946000Y-72679500D01*
X150115999Y-67519999D02*
X144945199Y-67519999D01*
D29*
X154916000Y-72320000D02*
X150115999Y-67519999D01*
D27*
X140246000Y-72679500D02*
X140946000Y-72679500D01*
X139422000Y-75133586D02*
X139422000Y-73314510D01*
X139676000Y-75370000D02*
X139516980Y-75210980D01*
X139610990Y-73314510D02*
X140246000Y-72679500D01*
X139930000Y-96943384D02*
X139930000Y-75624000D01*
X133072000Y-103310000D02*
X139770010Y-96611990D01*
D26*
X125388000Y-117448000D02*
X117050000Y-125786000D01*
X125388000Y-98738000D02*
X125388000Y-117448000D01*
D23*
X132691000Y-93310000D02*
X130532000Y-91151000D01*
X130532000Y-91151000D02*
X130532000Y-86922000D01*
X132691000Y-87910000D02*
X132691000Y-86410000D01*
X132691000Y-86410000D02*
X131303000Y-85022000D01*
X131303000Y-85022000D02*
X130532000Y-85022000D01*
X130532000Y-85022000D02*
X125452000Y-79942000D01*
X130532000Y-85022000D02*
X129807000Y-85022000D01*
X129807000Y-85022000D02*
X127484000Y-87345000D01*
X127484000Y-87345000D02*
X127484000Y-89086000D01*
X136501000Y-93310000D02*
X137860000Y-93310000D01*
X137860000Y-93310000D02*
X138660000Y-92510000D01*
X135104000Y-81532000D02*
X134963000Y-81532000D01*
X134963000Y-81532000D02*
X132692400Y-79261400D01*
D24*
X132692400Y-79261400D02*
X132691900Y-79261400D01*
X132691900Y-79261400D02*
X131340500Y-77910000D01*
D23*
X132692400Y-79261400D02*
X131341000Y-77910000D01*
X135231000Y-87910000D02*
X135231000Y-83559000D01*
X135231000Y-83559000D02*
X135104000Y-83432000D01*
X135104000Y-83432000D02*
X133382000Y-83432000D01*
X133382000Y-83432000D02*
X131416000Y-81466000D01*
D24*
X121388000Y-98166000D02*
X121388000Y-98738000D01*
D23*
X121388000Y-98166000D02*
X120372000Y-97150000D01*
X120372000Y-97150000D02*
X120372000Y-94166000D01*
X121960000Y-98738000D02*
X121388000Y-98166000D01*
X120372000Y-89594000D02*
X120372000Y-85462000D01*
X120372000Y-85462000D02*
X114852000Y-79942000D01*
X120372000Y-94166000D02*
X120372000Y-89594000D01*
X114852000Y-79942000D02*
X114852000Y-76962000D01*
X114852000Y-76962000D02*
X118789000Y-73025000D01*
X118789000Y-73025000D02*
X132255000Y-73025000D01*
X132255000Y-73025000D02*
X135104000Y-75873500D01*
X135104000Y-75873500D02*
X135104000Y-76386000D01*
D24*
X131444000Y-74802700D02*
X131444500Y-74802200D01*
X131444500Y-74802200D02*
X131444500Y-74354000D01*
D23*
X131444000Y-74802700D02*
X131444000Y-74354000D01*
X135104000Y-78211000D02*
X134404000Y-78211000D01*
X134404000Y-78211000D02*
X131444000Y-75251500D01*
X131444000Y-75251500D02*
X131444000Y-74802700D01*
X136501000Y-87910000D02*
X136501000Y-79608000D01*
X136501000Y-79608000D02*
X135104000Y-78211000D01*
D28*
X143976499Y-77534999D02*
X140946000Y-74504500D01*
D27*
X146424999Y-77534999D02*
X143976499Y-77534999D01*
X147810000Y-78920000D02*
X146424999Y-77534999D01*
M02*
