%FSLAX45Y45*%
G04 Gerber Fmt 4.5, Leading zero omitted, Abs format (unit mm)*
G04 Created by KiCad (PCBNEW (5.1.10)-1) date 2021-08-31 13:50:18*
%MOMM*%
%LPD*%
G01*
G04 APERTURE LIST*
%TA.AperFunction,Profile*%
%ADD10C,0.100000*%
%TD*%
%ADD11C,0.200000*%
%ADD12C,0.300000*%
G04 APERTURE END LIST*
D10*
X14628000Y-7410000D02*
X14374000Y-7410000D01*
X14628000Y-16046000D02*
X14628000Y-7410000D01*
X4468000Y-16046000D02*
X14628000Y-16046000D01*
X4468000Y-7410000D02*
X4468000Y-16046000D01*
X14374000Y-7410000D02*
X4468000Y-7410000D01*
D11*
X11058500Y-7704500D02*
X11383500Y-8029500D01*
X11383500Y-7704500D02*
X11058500Y-8029500D01*
X11067500Y-15491500D02*
X11392500Y-15816500D01*
X11392500Y-15491500D02*
X11067500Y-15816500D01*
X12328500Y-7704500D02*
X12653500Y-8029500D01*
X12653500Y-7704500D02*
X12328500Y-8029500D01*
X12337500Y-15491500D02*
X12662500Y-15816500D01*
X12662500Y-15491500D02*
X12337500Y-15816500D01*
D12*
X4749428Y-16516714D02*
X4749428Y-16216714D01*
X4820857Y-16216714D01*
X4863714Y-16231000D01*
X4892286Y-16259571D01*
X4906571Y-16288143D01*
X4920857Y-16345286D01*
X4920857Y-16388143D01*
X4906571Y-16445286D01*
X4892286Y-16473857D01*
X4863714Y-16502429D01*
X4820857Y-16516714D01*
X4749428Y-16516714D01*
X5049428Y-16516714D02*
X5049428Y-16316714D01*
X5049428Y-16373857D02*
X5063714Y-16345286D01*
X5078000Y-16331000D01*
X5106571Y-16316714D01*
X5135143Y-16316714D01*
X5235143Y-16516714D02*
X5235143Y-16316714D01*
X5235143Y-16216714D02*
X5220857Y-16231000D01*
X5235143Y-16245286D01*
X5249428Y-16231000D01*
X5235143Y-16216714D01*
X5235143Y-16245286D01*
X5420857Y-16516714D02*
X5392286Y-16502429D01*
X5378000Y-16473857D01*
X5378000Y-16216714D01*
X5578000Y-16516714D02*
X5549428Y-16502429D01*
X5535143Y-16473857D01*
X5535143Y-16216714D01*
X5920857Y-16516714D02*
X5920857Y-16216714D01*
X6020857Y-16431000D01*
X6120857Y-16216714D01*
X6120857Y-16516714D01*
X6392286Y-16516714D02*
X6392286Y-16359571D01*
X6378000Y-16331000D01*
X6349428Y-16316714D01*
X6292286Y-16316714D01*
X6263714Y-16331000D01*
X6392286Y-16502429D02*
X6363714Y-16516714D01*
X6292286Y-16516714D01*
X6263714Y-16502429D01*
X6249428Y-16473857D01*
X6249428Y-16445286D01*
X6263714Y-16416714D01*
X6292286Y-16402429D01*
X6363714Y-16402429D01*
X6392286Y-16388143D01*
X6535143Y-16316714D02*
X6535143Y-16616714D01*
X6535143Y-16331000D02*
X6563714Y-16316714D01*
X6620857Y-16316714D01*
X6649428Y-16331000D01*
X6663714Y-16345286D01*
X6678000Y-16373857D01*
X6678000Y-16459571D01*
X6663714Y-16488143D01*
X6649428Y-16502429D01*
X6620857Y-16516714D01*
X6563714Y-16516714D01*
X6535143Y-16502429D01*
X6806571Y-16488143D02*
X6820857Y-16502429D01*
X6806571Y-16516714D01*
X6792286Y-16502429D01*
X6806571Y-16488143D01*
X6806571Y-16516714D01*
X6806571Y-16331000D02*
X6820857Y-16345286D01*
X6806571Y-16359571D01*
X6792286Y-16345286D01*
X6806571Y-16331000D01*
X6806571Y-16359571D01*
X4138000Y-16848500D02*
X4463000Y-17173500D01*
X4463000Y-16848500D02*
X4138000Y-17173500D01*
X4720857Y-16846714D02*
X4906571Y-16846714D01*
X4806571Y-16961000D01*
X4849428Y-16961000D01*
X4878000Y-16975286D01*
X4892286Y-16989572D01*
X4906571Y-17018143D01*
X4906571Y-17089572D01*
X4892286Y-17118143D01*
X4878000Y-17132429D01*
X4849428Y-17146714D01*
X4763714Y-17146714D01*
X4735143Y-17132429D01*
X4720857Y-17118143D01*
X5035143Y-17118143D02*
X5049428Y-17132429D01*
X5035143Y-17146714D01*
X5020857Y-17132429D01*
X5035143Y-17118143D01*
X5035143Y-17146714D01*
X5163714Y-16875286D02*
X5178000Y-16861000D01*
X5206571Y-16846714D01*
X5278000Y-16846714D01*
X5306571Y-16861000D01*
X5320857Y-16875286D01*
X5335143Y-16903857D01*
X5335143Y-16932429D01*
X5320857Y-16975286D01*
X5149428Y-17146714D01*
X5335143Y-17146714D01*
X5606571Y-16846714D02*
X5463714Y-16846714D01*
X5449428Y-16989572D01*
X5463714Y-16975286D01*
X5492286Y-16961000D01*
X5563714Y-16961000D01*
X5592286Y-16975286D01*
X5606571Y-16989572D01*
X5620857Y-17018143D01*
X5620857Y-17089572D01*
X5606571Y-17118143D01*
X5592286Y-17132429D01*
X5563714Y-17146714D01*
X5492286Y-17146714D01*
X5463714Y-17132429D01*
X5449428Y-17118143D01*
X5806571Y-16846714D02*
X5835143Y-16846714D01*
X5863714Y-16861000D01*
X5878000Y-16875286D01*
X5892286Y-16903857D01*
X5906571Y-16961000D01*
X5906571Y-17032429D01*
X5892286Y-17089572D01*
X5878000Y-17118143D01*
X5863714Y-17132429D01*
X5835143Y-17146714D01*
X5806571Y-17146714D01*
X5778000Y-17132429D01*
X5763714Y-17118143D01*
X5749428Y-17089572D01*
X5735143Y-17032429D01*
X5735143Y-16961000D01*
X5749428Y-16903857D01*
X5763714Y-16875286D01*
X5778000Y-16861000D01*
X5806571Y-16846714D01*
X6035143Y-17146714D02*
X6035143Y-16946714D01*
X6035143Y-16975286D02*
X6049428Y-16961000D01*
X6078000Y-16946714D01*
X6120857Y-16946714D01*
X6149428Y-16961000D01*
X6163714Y-16989572D01*
X6163714Y-17146714D01*
X6163714Y-16989572D02*
X6178000Y-16961000D01*
X6206571Y-16946714D01*
X6249428Y-16946714D01*
X6278000Y-16961000D01*
X6292286Y-16989572D01*
X6292286Y-17146714D01*
X6435143Y-17146714D02*
X6435143Y-16946714D01*
X6435143Y-16975286D02*
X6449428Y-16961000D01*
X6478000Y-16946714D01*
X6520857Y-16946714D01*
X6549428Y-16961000D01*
X6563714Y-16989572D01*
X6563714Y-17146714D01*
X6563714Y-16989572D02*
X6578000Y-16961000D01*
X6606571Y-16946714D01*
X6649428Y-16946714D01*
X6678000Y-16961000D01*
X6692286Y-16989572D01*
X6692286Y-17146714D01*
X7278000Y-16832429D02*
X7020857Y-17218143D01*
X7663714Y-16846714D02*
X7692286Y-16846714D01*
X7720857Y-16861000D01*
X7735143Y-16875286D01*
X7749428Y-16903857D01*
X7763714Y-16961000D01*
X7763714Y-17032429D01*
X7749428Y-17089572D01*
X7735143Y-17118143D01*
X7720857Y-17132429D01*
X7692286Y-17146714D01*
X7663714Y-17146714D01*
X7635143Y-17132429D01*
X7620857Y-17118143D01*
X7606571Y-17089572D01*
X7592286Y-17032429D01*
X7592286Y-16961000D01*
X7606571Y-16903857D01*
X7620857Y-16875286D01*
X7635143Y-16861000D01*
X7663714Y-16846714D01*
X7892286Y-17118143D02*
X7906571Y-17132429D01*
X7892286Y-17146714D01*
X7878000Y-17132429D01*
X7892286Y-17118143D01*
X7892286Y-17146714D01*
X8192286Y-17146714D02*
X8020857Y-17146714D01*
X8106571Y-17146714D02*
X8106571Y-16846714D01*
X8078000Y-16889572D01*
X8049428Y-16918143D01*
X8020857Y-16932429D01*
X8306571Y-16875286D02*
X8320857Y-16861000D01*
X8349428Y-16846714D01*
X8420857Y-16846714D01*
X8449428Y-16861000D01*
X8463714Y-16875286D01*
X8478000Y-16903857D01*
X8478000Y-16932429D01*
X8463714Y-16975286D01*
X8292286Y-17146714D01*
X8478000Y-17146714D01*
X8649428Y-16975286D02*
X8620857Y-16961000D01*
X8606571Y-16946714D01*
X8592286Y-16918143D01*
X8592286Y-16903857D01*
X8606571Y-16875286D01*
X8620857Y-16861000D01*
X8649428Y-16846714D01*
X8706571Y-16846714D01*
X8735143Y-16861000D01*
X8749428Y-16875286D01*
X8763714Y-16903857D01*
X8763714Y-16918143D01*
X8749428Y-16946714D01*
X8735143Y-16961000D01*
X8706571Y-16975286D01*
X8649428Y-16975286D01*
X8620857Y-16989572D01*
X8606571Y-17003857D01*
X8592286Y-17032429D01*
X8592286Y-17089572D01*
X8606571Y-17118143D01*
X8620857Y-17132429D01*
X8649428Y-17146714D01*
X8706571Y-17146714D01*
X8735143Y-17132429D01*
X8749428Y-17118143D01*
X8763714Y-17089572D01*
X8763714Y-17032429D01*
X8749428Y-17003857D01*
X8735143Y-16989572D01*
X8706571Y-16975286D01*
X8949428Y-16846714D02*
X8978000Y-16846714D01*
X9006571Y-16861000D01*
X9020857Y-16875286D01*
X9035143Y-16903857D01*
X9049428Y-16961000D01*
X9049428Y-17032429D01*
X9035143Y-17089572D01*
X9020857Y-17118143D01*
X9006571Y-17132429D01*
X8978000Y-17146714D01*
X8949428Y-17146714D01*
X8920857Y-17132429D01*
X8906571Y-17118143D01*
X8892286Y-17089572D01*
X8878000Y-17032429D01*
X8878000Y-16961000D01*
X8892286Y-16903857D01*
X8906571Y-16875286D01*
X8920857Y-16861000D01*
X8949428Y-16846714D01*
X9163714Y-16846714D02*
X9163714Y-16903857D01*
X9278000Y-16846714D02*
X9278000Y-16903857D01*
X9720857Y-17261000D02*
X9706571Y-17246714D01*
X9678000Y-17203857D01*
X9663714Y-17175286D01*
X9649428Y-17132429D01*
X9635143Y-17061000D01*
X9635143Y-17003857D01*
X9649428Y-16932429D01*
X9663714Y-16889572D01*
X9678000Y-16861000D01*
X9706571Y-16818143D01*
X9720857Y-16803857D01*
X9963714Y-16946714D02*
X9963714Y-17146714D01*
X9892286Y-16832429D02*
X9820857Y-17046714D01*
X10006571Y-17046714D01*
X10349428Y-17146714D02*
X10349428Y-16846714D01*
X10478000Y-17146714D02*
X10478000Y-16989572D01*
X10463714Y-16961000D01*
X10435143Y-16946714D01*
X10392286Y-16946714D01*
X10363714Y-16961000D01*
X10349428Y-16975286D01*
X10663714Y-17146714D02*
X10635143Y-17132429D01*
X10620857Y-17118143D01*
X10606571Y-17089572D01*
X10606571Y-17003857D01*
X10620857Y-16975286D01*
X10635143Y-16961000D01*
X10663714Y-16946714D01*
X10706571Y-16946714D01*
X10735143Y-16961000D01*
X10749428Y-16975286D01*
X10763714Y-17003857D01*
X10763714Y-17089572D01*
X10749428Y-17118143D01*
X10735143Y-17132429D01*
X10706571Y-17146714D01*
X10663714Y-17146714D01*
X10935143Y-17146714D02*
X10906571Y-17132429D01*
X10892286Y-17103857D01*
X10892286Y-16846714D01*
X11163714Y-17132429D02*
X11135143Y-17146714D01*
X11078000Y-17146714D01*
X11049428Y-17132429D01*
X11035143Y-17103857D01*
X11035143Y-16989572D01*
X11049428Y-16961000D01*
X11078000Y-16946714D01*
X11135143Y-16946714D01*
X11163714Y-16961000D01*
X11178000Y-16989572D01*
X11178000Y-17018143D01*
X11035143Y-17046714D01*
X11292286Y-17132429D02*
X11320857Y-17146714D01*
X11378000Y-17146714D01*
X11406571Y-17132429D01*
X11420857Y-17103857D01*
X11420857Y-17089572D01*
X11406571Y-17061000D01*
X11378000Y-17046714D01*
X11335143Y-17046714D01*
X11306571Y-17032429D01*
X11292286Y-17003857D01*
X11292286Y-16989572D01*
X11306571Y-16961000D01*
X11335143Y-16946714D01*
X11378000Y-16946714D01*
X11406571Y-16961000D01*
X11520857Y-17261000D02*
X11535143Y-17246714D01*
X11563714Y-17203857D01*
X11578000Y-17175286D01*
X11592286Y-17132429D01*
X11606571Y-17061000D01*
X11606571Y-17003857D01*
X11592286Y-16932429D01*
X11578000Y-16889572D01*
X11563714Y-16861000D01*
X11535143Y-16818143D01*
X11520857Y-16803857D01*
X12063714Y-17261000D02*
X12049428Y-17246714D01*
X12020857Y-17203857D01*
X12006571Y-17175286D01*
X11992286Y-17132429D01*
X11978000Y-17061000D01*
X11978000Y-17003857D01*
X11992286Y-16932429D01*
X12006571Y-16889572D01*
X12020857Y-16861000D01*
X12049428Y-16818143D01*
X12063714Y-16803857D01*
X12178000Y-16946714D02*
X12178000Y-17146714D01*
X12178000Y-16975286D02*
X12192286Y-16961000D01*
X12220857Y-16946714D01*
X12263714Y-16946714D01*
X12292286Y-16961000D01*
X12306571Y-16989572D01*
X12306571Y-17146714D01*
X12492286Y-17146714D02*
X12463714Y-17132429D01*
X12449428Y-17118143D01*
X12435143Y-17089572D01*
X12435143Y-17003857D01*
X12449428Y-16975286D01*
X12463714Y-16961000D01*
X12492286Y-16946714D01*
X12535143Y-16946714D01*
X12563714Y-16961000D01*
X12578000Y-16975286D01*
X12592286Y-17003857D01*
X12592286Y-17089572D01*
X12578000Y-17118143D01*
X12563714Y-17132429D01*
X12535143Y-17146714D01*
X12492286Y-17146714D01*
X12678000Y-16946714D02*
X12792286Y-16946714D01*
X12720857Y-16846714D02*
X12720857Y-17103857D01*
X12735143Y-17132429D01*
X12763714Y-17146714D01*
X12792286Y-17146714D01*
X13120857Y-16946714D02*
X13120857Y-17246714D01*
X13120857Y-16961000D02*
X13149428Y-16946714D01*
X13206571Y-16946714D01*
X13235143Y-16961000D01*
X13249428Y-16975286D01*
X13263714Y-17003857D01*
X13263714Y-17089572D01*
X13249428Y-17118143D01*
X13235143Y-17132429D01*
X13206571Y-17146714D01*
X13149428Y-17146714D01*
X13120857Y-17132429D01*
X13435143Y-17146714D02*
X13406571Y-17132429D01*
X13392286Y-17103857D01*
X13392286Y-16846714D01*
X13678000Y-17146714D02*
X13678000Y-16989572D01*
X13663714Y-16961000D01*
X13635143Y-16946714D01*
X13578000Y-16946714D01*
X13549428Y-16961000D01*
X13678000Y-17132429D02*
X13649428Y-17146714D01*
X13578000Y-17146714D01*
X13549428Y-17132429D01*
X13535143Y-17103857D01*
X13535143Y-17075286D01*
X13549428Y-17046714D01*
X13578000Y-17032429D01*
X13649428Y-17032429D01*
X13678000Y-17018143D01*
X13778000Y-16946714D02*
X13892286Y-16946714D01*
X13820857Y-16846714D02*
X13820857Y-17103857D01*
X13835143Y-17132429D01*
X13863714Y-17146714D01*
X13892286Y-17146714D01*
X14106571Y-17132429D02*
X14078000Y-17146714D01*
X14020857Y-17146714D01*
X13992286Y-17132429D01*
X13978000Y-17103857D01*
X13978000Y-16989572D01*
X13992286Y-16961000D01*
X14020857Y-16946714D01*
X14078000Y-16946714D01*
X14106571Y-16961000D01*
X14120857Y-16989572D01*
X14120857Y-17018143D01*
X13978000Y-17046714D01*
X14378000Y-17146714D02*
X14378000Y-16846714D01*
X14378000Y-17132429D02*
X14349428Y-17146714D01*
X14292286Y-17146714D01*
X14263714Y-17132429D01*
X14249428Y-17118143D01*
X14235143Y-17089572D01*
X14235143Y-17003857D01*
X14249428Y-16975286D01*
X14263714Y-16961000D01*
X14292286Y-16946714D01*
X14349428Y-16946714D01*
X14378000Y-16961000D01*
X14492286Y-17261000D02*
X14506571Y-17246714D01*
X14535143Y-17203857D01*
X14549428Y-17175286D01*
X14563714Y-17132429D01*
X14578000Y-17061000D01*
X14578000Y-17003857D01*
X14563714Y-16932429D01*
X14549428Y-16889572D01*
X14535143Y-16861000D01*
X14506571Y-16818143D01*
X14492286Y-16803857D01*
M02*
