G04 #@! TF.GenerationSoftware,KiCad,Pcbnew,(5.1.10-1-10_14)*
G04 #@! TF.CreationDate,2022-01-11T16:09:18-08:00*
G04 #@! TF.ProjectId,CI_ComPCB,43495f43-6f6d-4504-9342-2e6b69636164,rev?*
G04 #@! TF.SameCoordinates,Original*
G04 #@! TF.FileFunction,Paste,Top*
G04 #@! TF.FilePolarity,Positive*
%FSLAX46Y46*%
G04 Gerber Fmt 4.6, Leading zero omitted, Abs format (unit mm)*
G04 Created by KiCad (PCBNEW (5.1.10-1-10_14)) date 2022-01-11 16:09:18*
%MOMM*%
%LPD*%
G01*
G04 APERTURE LIST*
%ADD10R,1.524000X1.524000*%
%ADD11R,3.700000X3.600000*%
%ADD12R,0.650000X1.500000*%
%ADD13R,2.500000X1.700000*%
%ADD14R,1.700000X2.500000*%
G04 APERTURE END LIST*
G36*
G01*
X141396001Y-73192000D02*
X140495999Y-73192000D01*
G75*
G02*
X140246000Y-72942001I0J249999D01*
G01*
X140246000Y-72416999D01*
G75*
G02*
X140495999Y-72167000I249999J0D01*
G01*
X141396001Y-72167000D01*
G75*
G02*
X141646000Y-72416999I0J-249999D01*
G01*
X141646000Y-72942001D01*
G75*
G02*
X141396001Y-73192000I-249999J0D01*
G01*
G37*
G36*
G01*
X141396001Y-75017000D02*
X140495999Y-75017000D01*
G75*
G02*
X140246000Y-74767001I0J249999D01*
G01*
X140246000Y-74241999D01*
G75*
G02*
X140495999Y-73992000I249999J0D01*
G01*
X141396001Y-73992000D01*
G75*
G02*
X141646000Y-74241999I0J-249999D01*
G01*
X141646000Y-74767001D01*
G75*
G02*
X141396001Y-75017000I-249999J0D01*
G01*
G37*
D10*
X152820000Y-126448000D03*
X155320000Y-126448000D03*
X157820000Y-126448000D03*
X160320000Y-126448000D03*
X151320000Y-86448000D03*
X156320000Y-86448000D03*
X161320000Y-86448000D03*
G36*
G01*
X138910000Y-91235000D02*
X138410000Y-91235000D01*
G75*
G02*
X138185000Y-91010000I0J225000D01*
G01*
X138185000Y-90560000D01*
G75*
G02*
X138410000Y-90335000I225000J0D01*
G01*
X138910000Y-90335000D01*
G75*
G02*
X139135000Y-90560000I0J-225000D01*
G01*
X139135000Y-91010000D01*
G75*
G02*
X138910000Y-91235000I-225000J0D01*
G01*
G37*
G36*
G01*
X138910000Y-92785000D02*
X138410000Y-92785000D01*
G75*
G02*
X138185000Y-92560000I0J225000D01*
G01*
X138185000Y-92110000D01*
G75*
G02*
X138410000Y-91885000I225000J0D01*
G01*
X138910000Y-91885000D01*
G75*
G02*
X139135000Y-92110000I0J-225000D01*
G01*
X139135000Y-92560000D01*
G75*
G02*
X138910000Y-92785000I-225000J0D01*
G01*
G37*
G36*
G01*
X130132000Y-73903998D02*
X130132000Y-74804002D01*
G75*
G02*
X129882002Y-75054000I-249998J0D01*
G01*
X129356998Y-75054000D01*
G75*
G02*
X129107000Y-74804002I0J249998D01*
G01*
X129107000Y-73903998D01*
G75*
G02*
X129356998Y-73654000I249998J0D01*
G01*
X129882002Y-73654000D01*
G75*
G02*
X130132000Y-73903998I0J-249998D01*
G01*
G37*
G36*
G01*
X131957000Y-73903998D02*
X131957000Y-74804002D01*
G75*
G02*
X131707002Y-75054000I-249998J0D01*
G01*
X131181998Y-75054000D01*
G75*
G02*
X130932000Y-74804002I0J249998D01*
G01*
X130932000Y-73903998D01*
G75*
G02*
X131181998Y-73654000I249998J0D01*
G01*
X131707002Y-73654000D01*
G75*
G02*
X131957000Y-73903998I0J-249998D01*
G01*
G37*
G36*
G01*
X134653998Y-77698500D02*
X135554002Y-77698500D01*
G75*
G02*
X135804000Y-77948498I0J-249998D01*
G01*
X135804000Y-78473502D01*
G75*
G02*
X135554002Y-78723500I-249998J0D01*
G01*
X134653998Y-78723500D01*
G75*
G02*
X134404000Y-78473502I0J249998D01*
G01*
X134404000Y-77948498D01*
G75*
G02*
X134653998Y-77698500I249998J0D01*
G01*
G37*
G36*
G01*
X134653998Y-75873500D02*
X135554002Y-75873500D01*
G75*
G02*
X135804000Y-76123498I0J-249998D01*
G01*
X135804000Y-76648502D01*
G75*
G02*
X135554002Y-76898500I-249998J0D01*
G01*
X134653998Y-76898500D01*
G75*
G02*
X134404000Y-76648502I0J249998D01*
G01*
X134404000Y-76123498D01*
G75*
G02*
X134653998Y-75873500I249998J0D01*
G01*
G37*
G36*
G01*
X130028000Y-77459998D02*
X130028000Y-78360002D01*
G75*
G02*
X129778002Y-78610000I-249998J0D01*
G01*
X129252998Y-78610000D01*
G75*
G02*
X129003000Y-78360002I0J249998D01*
G01*
X129003000Y-77459998D01*
G75*
G02*
X129252998Y-77210000I249998J0D01*
G01*
X129778002Y-77210000D01*
G75*
G02*
X130028000Y-77459998I0J-249998D01*
G01*
G37*
G36*
G01*
X131853000Y-77459998D02*
X131853000Y-78360002D01*
G75*
G02*
X131603002Y-78610000I-249998J0D01*
G01*
X131077998Y-78610000D01*
G75*
G02*
X130828000Y-78360002I0J249998D01*
G01*
X130828000Y-77459998D01*
G75*
G02*
X131077998Y-77210000I249998J0D01*
G01*
X131603002Y-77210000D01*
G75*
G02*
X131853000Y-77459998I0J-249998D01*
G01*
G37*
D11*
X114852000Y-79942000D03*
X125452000Y-79942000D03*
D12*
X132691000Y-87910000D03*
X133961000Y-87910000D03*
X135231000Y-87910000D03*
X136501000Y-87910000D03*
X136501000Y-93310000D03*
X135231000Y-93310000D03*
X133961000Y-93310000D03*
X132691000Y-93310000D03*
D13*
X125388000Y-98738000D03*
X121388000Y-98738000D03*
D14*
X127484000Y-89086000D03*
X127484000Y-93086000D03*
G36*
G01*
X121772000Y-90069000D02*
X121772000Y-89119000D01*
G75*
G02*
X122022000Y-88869000I250000J0D01*
G01*
X122522000Y-88869000D01*
G75*
G02*
X122772000Y-89119000I0J-250000D01*
G01*
X122772000Y-90069000D01*
G75*
G02*
X122522000Y-90319000I-250000J0D01*
G01*
X122022000Y-90319000D01*
G75*
G02*
X121772000Y-90069000I0J250000D01*
G01*
G37*
G36*
G01*
X119872000Y-90069000D02*
X119872000Y-89119000D01*
G75*
G02*
X120122000Y-88869000I250000J0D01*
G01*
X120622000Y-88869000D01*
G75*
G02*
X120872000Y-89119000I0J-250000D01*
G01*
X120872000Y-90069000D01*
G75*
G02*
X120622000Y-90319000I-250000J0D01*
G01*
X120122000Y-90319000D01*
G75*
G02*
X119872000Y-90069000I0J250000D01*
G01*
G37*
G36*
G01*
X130016000Y-80991000D02*
X130016000Y-81941000D01*
G75*
G02*
X129766000Y-82191000I-250000J0D01*
G01*
X129266000Y-82191000D01*
G75*
G02*
X129016000Y-81941000I0J250000D01*
G01*
X129016000Y-80991000D01*
G75*
G02*
X129266000Y-80741000I250000J0D01*
G01*
X129766000Y-80741000D01*
G75*
G02*
X130016000Y-80991000I0J-250000D01*
G01*
G37*
G36*
G01*
X131916000Y-80991000D02*
X131916000Y-81941000D01*
G75*
G02*
X131666000Y-82191000I-250000J0D01*
G01*
X131166000Y-82191000D01*
G75*
G02*
X130916000Y-81941000I0J250000D01*
G01*
X130916000Y-80991000D01*
G75*
G02*
X131166000Y-80741000I250000J0D01*
G01*
X131666000Y-80741000D01*
G75*
G02*
X131916000Y-80991000I0J-250000D01*
G01*
G37*
G36*
G01*
X121772000Y-94641000D02*
X121772000Y-93691000D01*
G75*
G02*
X122022000Y-93441000I250000J0D01*
G01*
X122522000Y-93441000D01*
G75*
G02*
X122772000Y-93691000I0J-250000D01*
G01*
X122772000Y-94641000D01*
G75*
G02*
X122522000Y-94891000I-250000J0D01*
G01*
X122022000Y-94891000D01*
G75*
G02*
X121772000Y-94641000I0J250000D01*
G01*
G37*
G36*
G01*
X119872000Y-94641000D02*
X119872000Y-93691000D01*
G75*
G02*
X120122000Y-93441000I250000J0D01*
G01*
X120622000Y-93441000D01*
G75*
G02*
X120872000Y-93691000I0J-250000D01*
G01*
X120872000Y-94641000D01*
G75*
G02*
X120622000Y-94891000I-250000J0D01*
G01*
X120122000Y-94891000D01*
G75*
G02*
X119872000Y-94641000I0J250000D01*
G01*
G37*
G36*
G01*
X135579000Y-82032000D02*
X134629000Y-82032000D01*
G75*
G02*
X134379000Y-81782000I0J250000D01*
G01*
X134379000Y-81282000D01*
G75*
G02*
X134629000Y-81032000I250000J0D01*
G01*
X135579000Y-81032000D01*
G75*
G02*
X135829000Y-81282000I0J-250000D01*
G01*
X135829000Y-81782000D01*
G75*
G02*
X135579000Y-82032000I-250000J0D01*
G01*
G37*
G36*
G01*
X135579000Y-83932000D02*
X134629000Y-83932000D01*
G75*
G02*
X134379000Y-83682000I0J250000D01*
G01*
X134379000Y-83182000D01*
G75*
G02*
X134629000Y-82932000I250000J0D01*
G01*
X135579000Y-82932000D01*
G75*
G02*
X135829000Y-83182000I0J-250000D01*
G01*
X135829000Y-83682000D01*
G75*
G02*
X135579000Y-83932000I-250000J0D01*
G01*
G37*
G36*
G01*
X130057000Y-86422000D02*
X131007000Y-86422000D01*
G75*
G02*
X131257000Y-86672000I0J-250000D01*
G01*
X131257000Y-87172000D01*
G75*
G02*
X131007000Y-87422000I-250000J0D01*
G01*
X130057000Y-87422000D01*
G75*
G02*
X129807000Y-87172000I0J250000D01*
G01*
X129807000Y-86672000D01*
G75*
G02*
X130057000Y-86422000I250000J0D01*
G01*
G37*
G36*
G01*
X130057000Y-84522000D02*
X131007000Y-84522000D01*
G75*
G02*
X131257000Y-84772000I0J-250000D01*
G01*
X131257000Y-85272000D01*
G75*
G02*
X131007000Y-85522000I-250000J0D01*
G01*
X130057000Y-85522000D01*
G75*
G02*
X129807000Y-85272000I0J250000D01*
G01*
X129807000Y-84772000D01*
G75*
G02*
X130057000Y-84522000I250000J0D01*
G01*
G37*
G36*
G01*
X132504000Y-99337000D02*
X132504000Y-100287000D01*
G75*
G02*
X132254000Y-100537000I-250000J0D01*
G01*
X131754000Y-100537000D01*
G75*
G02*
X131504000Y-100287000I0J250000D01*
G01*
X131504000Y-99337000D01*
G75*
G02*
X131754000Y-99087000I250000J0D01*
G01*
X132254000Y-99087000D01*
G75*
G02*
X132504000Y-99337000I0J-250000D01*
G01*
G37*
G36*
G01*
X134404000Y-99337000D02*
X134404000Y-100287000D01*
G75*
G02*
X134154000Y-100537000I-250000J0D01*
G01*
X133654000Y-100537000D01*
G75*
G02*
X133404000Y-100287000I0J250000D01*
G01*
X133404000Y-99337000D01*
G75*
G02*
X133654000Y-99087000I250000J0D01*
G01*
X134154000Y-99087000D01*
G75*
G02*
X134404000Y-99337000I0J-250000D01*
G01*
G37*
G36*
G01*
X132504000Y-96327000D02*
X132504000Y-97277000D01*
G75*
G02*
X132254000Y-97527000I-250000J0D01*
G01*
X131754000Y-97527000D01*
G75*
G02*
X131504000Y-97277000I0J250000D01*
G01*
X131504000Y-96327000D01*
G75*
G02*
X131754000Y-96077000I250000J0D01*
G01*
X132254000Y-96077000D01*
G75*
G02*
X132504000Y-96327000I0J-250000D01*
G01*
G37*
G36*
G01*
X134404000Y-96327000D02*
X134404000Y-97277000D01*
G75*
G02*
X134154000Y-97527000I-250000J0D01*
G01*
X133654000Y-97527000D01*
G75*
G02*
X133404000Y-97277000I0J250000D01*
G01*
X133404000Y-96327000D01*
G75*
G02*
X133654000Y-96077000I250000J0D01*
G01*
X134154000Y-96077000D01*
G75*
G02*
X134404000Y-96327000I0J-250000D01*
G01*
G37*
M02*
