G04 #@! TF.GenerationSoftware,KiCad,Pcbnew,(5.1.10)-1*
G04 #@! TF.CreationDate,2022-05-03T11:30:29-07:00*
G04 #@! TF.ProjectId,CI_ComPCB,43495f43-6f6d-4504-9342-2e6b69636164,rev?*
G04 #@! TF.SameCoordinates,Original*
G04 #@! TF.FileFunction,Paste,Top*
G04 #@! TF.FilePolarity,Positive*
%FSLAX46Y46*%
G04 Gerber Fmt 4.6, Leading zero omitted, Abs format (unit mm)*
G04 Created by KiCad (PCBNEW (5.1.10)-1) date 2022-05-03 11:30:29*
%MOMM*%
%LPD*%
G01*
G04 APERTURE LIST*
%ADD10R,1.500000X3.430000*%
%ADD11R,1.524000X8.000000*%
%ADD12R,3.000000X8.000000*%
%ADD13R,2.489200X3.429000*%
%ADD14R,0.650000X1.500000*%
%ADD15R,2.500000X1.700000*%
%ADD16R,1.700000X2.500000*%
G04 APERTURE END LIST*
G36*
G01*
X132050000Y-115329999D02*
X132050000Y-116630001D01*
G75*
G02*
X131800001Y-116880000I-249999J0D01*
G01*
X131149999Y-116880000D01*
G75*
G02*
X130900000Y-116630001I0J249999D01*
G01*
X130900000Y-115329999D01*
G75*
G02*
X131149999Y-115080000I249999J0D01*
G01*
X131800001Y-115080000D01*
G75*
G02*
X132050000Y-115329999I0J-249999D01*
G01*
G37*
G36*
G01*
X135000000Y-115329999D02*
X135000000Y-116630001D01*
G75*
G02*
X134750001Y-116880000I-249999J0D01*
G01*
X134099999Y-116880000D01*
G75*
G02*
X133850000Y-116630001I0J249999D01*
G01*
X133850000Y-115329999D01*
G75*
G02*
X134099999Y-115080000I249999J0D01*
G01*
X134750001Y-115080000D01*
G75*
G02*
X135000000Y-115329999I0J-249999D01*
G01*
G37*
G36*
G01*
X132050000Y-118679999D02*
X132050000Y-119980001D01*
G75*
G02*
X131800001Y-120230000I-249999J0D01*
G01*
X131149999Y-120230000D01*
G75*
G02*
X130900000Y-119980001I0J249999D01*
G01*
X130900000Y-118679999D01*
G75*
G02*
X131149999Y-118430000I249999J0D01*
G01*
X131800001Y-118430000D01*
G75*
G02*
X132050000Y-118679999I0J-249999D01*
G01*
G37*
G36*
G01*
X135000000Y-118679999D02*
X135000000Y-119980001D01*
G75*
G02*
X134750001Y-120230000I-249999J0D01*
G01*
X134099999Y-120230000D01*
G75*
G02*
X133850000Y-119980001I0J249999D01*
G01*
X133850000Y-118679999D01*
G75*
G02*
X134099999Y-118430000I249999J0D01*
G01*
X134750001Y-118430000D01*
G75*
G02*
X135000000Y-118679999I0J-249999D01*
G01*
G37*
G36*
G01*
X121260000Y-108675000D02*
X121260000Y-107725000D01*
G75*
G02*
X121510000Y-107475000I250000J0D01*
G01*
X122010000Y-107475000D01*
G75*
G02*
X122260000Y-107725000I0J-250000D01*
G01*
X122260000Y-108675000D01*
G75*
G02*
X122010000Y-108925000I-250000J0D01*
G01*
X121510000Y-108925000D01*
G75*
G02*
X121260000Y-108675000I0J250000D01*
G01*
G37*
G36*
G01*
X119360000Y-108675000D02*
X119360000Y-107725000D01*
G75*
G02*
X119610000Y-107475000I250000J0D01*
G01*
X120110000Y-107475000D01*
G75*
G02*
X120360000Y-107725000I0J-250000D01*
G01*
X120360000Y-108675000D01*
G75*
G02*
X120110000Y-108925000I-250000J0D01*
G01*
X119610000Y-108925000D01*
G75*
G02*
X119360000Y-108675000I0J250000D01*
G01*
G37*
G36*
G01*
X121160000Y-112585000D02*
X121160000Y-111635000D01*
G75*
G02*
X121410000Y-111385000I250000J0D01*
G01*
X121910000Y-111385000D01*
G75*
G02*
X122160000Y-111635000I0J-250000D01*
G01*
X122160000Y-112585000D01*
G75*
G02*
X121910000Y-112835000I-250000J0D01*
G01*
X121410000Y-112835000D01*
G75*
G02*
X121160000Y-112585000I0J250000D01*
G01*
G37*
G36*
G01*
X119260000Y-112585000D02*
X119260000Y-111635000D01*
G75*
G02*
X119510000Y-111385000I250000J0D01*
G01*
X120010000Y-111385000D01*
G75*
G02*
X120260000Y-111635000I0J-250000D01*
G01*
X120260000Y-112585000D01*
G75*
G02*
X120010000Y-112835000I-250000J0D01*
G01*
X119510000Y-112835000D01*
G75*
G02*
X119260000Y-112585000I0J250000D01*
G01*
G37*
D10*
X121250000Y-70450000D03*
X125850000Y-70450000D03*
G36*
G01*
X138260002Y-90657500D02*
X137359998Y-90657500D01*
G75*
G02*
X137110000Y-90407502I0J249998D01*
G01*
X137110000Y-89882498D01*
G75*
G02*
X137359998Y-89632500I249998J0D01*
G01*
X138260002Y-89632500D01*
G75*
G02*
X138510000Y-89882498I0J-249998D01*
G01*
X138510000Y-90407502D01*
G75*
G02*
X138260002Y-90657500I-249998J0D01*
G01*
G37*
G36*
G01*
X138260002Y-92482500D02*
X137359998Y-92482500D01*
G75*
G02*
X137110000Y-92232502I0J249998D01*
G01*
X137110000Y-91707498D01*
G75*
G02*
X137359998Y-91457500I249998J0D01*
G01*
X138260002Y-91457500D01*
G75*
G02*
X138510000Y-91707498I0J-249998D01*
G01*
X138510000Y-92232502D01*
G75*
G02*
X138260002Y-92482500I-249998J0D01*
G01*
G37*
D11*
X152820000Y-126575000D03*
X155320000Y-126575000D03*
X157820000Y-126575000D03*
X160320000Y-126575000D03*
D12*
X151320000Y-86575000D03*
X156320000Y-86575000D03*
X161320000Y-86575000D03*
D13*
X125756800Y-98674500D03*
X120321200Y-98674500D03*
G36*
G01*
X136030002Y-90677500D02*
X135129998Y-90677500D01*
G75*
G02*
X134880000Y-90427502I0J249998D01*
G01*
X134880000Y-89902498D01*
G75*
G02*
X135129998Y-89652500I249998J0D01*
G01*
X136030002Y-89652500D01*
G75*
G02*
X136280000Y-89902498I0J-249998D01*
G01*
X136280000Y-90427502D01*
G75*
G02*
X136030002Y-90677500I-249998J0D01*
G01*
G37*
G36*
G01*
X136030002Y-92502500D02*
X135129998Y-92502500D01*
G75*
G02*
X134880000Y-92252502I0J249998D01*
G01*
X134880000Y-91727498D01*
G75*
G02*
X135129998Y-91477500I249998J0D01*
G01*
X136030002Y-91477500D01*
G75*
G02*
X136280000Y-91727498I0J-249998D01*
G01*
X136280000Y-92252502D01*
G75*
G02*
X136030002Y-92502500I-249998J0D01*
G01*
G37*
G36*
G01*
X136091000Y-109581500D02*
X135591000Y-109581500D01*
G75*
G02*
X135366000Y-109356500I0J225000D01*
G01*
X135366000Y-108906500D01*
G75*
G02*
X135591000Y-108681500I225000J0D01*
G01*
X136091000Y-108681500D01*
G75*
G02*
X136316000Y-108906500I0J-225000D01*
G01*
X136316000Y-109356500D01*
G75*
G02*
X136091000Y-109581500I-225000J0D01*
G01*
G37*
G36*
G01*
X136091000Y-111131500D02*
X135591000Y-111131500D01*
G75*
G02*
X135366000Y-110906500I0J225000D01*
G01*
X135366000Y-110456500D01*
G75*
G02*
X135591000Y-110231500I225000J0D01*
G01*
X136091000Y-110231500D01*
G75*
G02*
X136316000Y-110456500I0J-225000D01*
G01*
X136316000Y-110906500D01*
G75*
G02*
X136091000Y-111131500I-225000J0D01*
G01*
G37*
G36*
G01*
X129243000Y-92890498D02*
X129243000Y-93790502D01*
G75*
G02*
X128993002Y-94040500I-249998J0D01*
G01*
X128467998Y-94040500D01*
G75*
G02*
X128218000Y-93790502I0J249998D01*
G01*
X128218000Y-92890498D01*
G75*
G02*
X128467998Y-92640500I249998J0D01*
G01*
X128993002Y-92640500D01*
G75*
G02*
X129243000Y-92890498I0J-249998D01*
G01*
G37*
G36*
G01*
X131068000Y-92890498D02*
X131068000Y-93790502D01*
G75*
G02*
X130818002Y-94040500I-249998J0D01*
G01*
X130292998Y-94040500D01*
G75*
G02*
X130043000Y-93790502I0J249998D01*
G01*
X130043000Y-92890498D01*
G75*
G02*
X130292998Y-92640500I249998J0D01*
G01*
X130818002Y-92640500D01*
G75*
G02*
X131068000Y-92890498I0J-249998D01*
G01*
G37*
G36*
G01*
X132709998Y-96002500D02*
X133610002Y-96002500D01*
G75*
G02*
X133860000Y-96252498I0J-249998D01*
G01*
X133860000Y-96777502D01*
G75*
G02*
X133610002Y-97027500I-249998J0D01*
G01*
X132709998Y-97027500D01*
G75*
G02*
X132460000Y-96777502I0J249998D01*
G01*
X132460000Y-96252498D01*
G75*
G02*
X132709998Y-96002500I249998J0D01*
G01*
G37*
G36*
G01*
X132709998Y-94177500D02*
X133610002Y-94177500D01*
G75*
G02*
X133860000Y-94427498I0J-249998D01*
G01*
X133860000Y-94952502D01*
G75*
G02*
X133610002Y-95202500I-249998J0D01*
G01*
X132709998Y-95202500D01*
G75*
G02*
X132460000Y-94952502I0J249998D01*
G01*
X132460000Y-94427498D01*
G75*
G02*
X132709998Y-94177500I249998J0D01*
G01*
G37*
G36*
G01*
X129139000Y-96446498D02*
X129139000Y-97346502D01*
G75*
G02*
X128889002Y-97596500I-249998J0D01*
G01*
X128363998Y-97596500D01*
G75*
G02*
X128114000Y-97346502I0J249998D01*
G01*
X128114000Y-96446498D01*
G75*
G02*
X128363998Y-96196500I249998J0D01*
G01*
X128889002Y-96196500D01*
G75*
G02*
X129139000Y-96446498I0J-249998D01*
G01*
G37*
G36*
G01*
X130964000Y-96446498D02*
X130964000Y-97346502D01*
G75*
G02*
X130714002Y-97596500I-249998J0D01*
G01*
X130188998Y-97596500D01*
G75*
G02*
X129939000Y-97346502I0J249998D01*
G01*
X129939000Y-96446498D01*
G75*
G02*
X130188998Y-96196500I249998J0D01*
G01*
X130714002Y-96196500D01*
G75*
G02*
X130964000Y-96446498I0J-249998D01*
G01*
G37*
D14*
X129872000Y-106256500D03*
X131142000Y-106256500D03*
X132412000Y-106256500D03*
X133682000Y-106256500D03*
X133682000Y-111656500D03*
X132412000Y-111656500D03*
X131142000Y-111656500D03*
X129872000Y-111656500D03*
D15*
X124499000Y-117724500D03*
X120499000Y-117724500D03*
D16*
X126595000Y-108072500D03*
X126595000Y-112072500D03*
G36*
G01*
X129127000Y-99977500D02*
X129127000Y-100927500D01*
G75*
G02*
X128877000Y-101177500I-250000J0D01*
G01*
X128377000Y-101177500D01*
G75*
G02*
X128127000Y-100927500I0J250000D01*
G01*
X128127000Y-99977500D01*
G75*
G02*
X128377000Y-99727500I250000J0D01*
G01*
X128877000Y-99727500D01*
G75*
G02*
X129127000Y-99977500I0J-250000D01*
G01*
G37*
G36*
G01*
X131027000Y-99977500D02*
X131027000Y-100927500D01*
G75*
G02*
X130777000Y-101177500I-250000J0D01*
G01*
X130277000Y-101177500D01*
G75*
G02*
X130027000Y-100927500I0J250000D01*
G01*
X130027000Y-99977500D01*
G75*
G02*
X130277000Y-99727500I250000J0D01*
G01*
X130777000Y-99727500D01*
G75*
G02*
X131027000Y-99977500I0J-250000D01*
G01*
G37*
G36*
G01*
X133605000Y-99190000D02*
X132655000Y-99190000D01*
G75*
G02*
X132405000Y-98940000I0J250000D01*
G01*
X132405000Y-98440000D01*
G75*
G02*
X132655000Y-98190000I250000J0D01*
G01*
X133605000Y-98190000D01*
G75*
G02*
X133855000Y-98440000I0J-250000D01*
G01*
X133855000Y-98940000D01*
G75*
G02*
X133605000Y-99190000I-250000J0D01*
G01*
G37*
G36*
G01*
X133605000Y-101090000D02*
X132655000Y-101090000D01*
G75*
G02*
X132405000Y-100840000I0J250000D01*
G01*
X132405000Y-100340000D01*
G75*
G02*
X132655000Y-100090000I250000J0D01*
G01*
X133605000Y-100090000D01*
G75*
G02*
X133855000Y-100340000I0J-250000D01*
G01*
X133855000Y-100840000D01*
G75*
G02*
X133605000Y-101090000I-250000J0D01*
G01*
G37*
G36*
G01*
X127510000Y-104495000D02*
X127510000Y-103545000D01*
G75*
G02*
X127760000Y-103295000I250000J0D01*
G01*
X128260000Y-103295000D01*
G75*
G02*
X128510000Y-103545000I0J-250000D01*
G01*
X128510000Y-104495000D01*
G75*
G02*
X128260000Y-104745000I-250000J0D01*
G01*
X127760000Y-104745000D01*
G75*
G02*
X127510000Y-104495000I0J250000D01*
G01*
G37*
G36*
G01*
X125610000Y-104495000D02*
X125610000Y-103545000D01*
G75*
G02*
X125860000Y-103295000I250000J0D01*
G01*
X126360000Y-103295000D01*
G75*
G02*
X126610000Y-103545000I0J-250000D01*
G01*
X126610000Y-104495000D01*
G75*
G02*
X126360000Y-104745000I-250000J0D01*
G01*
X125860000Y-104745000D01*
G75*
G02*
X125610000Y-104495000I0J250000D01*
G01*
G37*
M02*
