M48
; DRILL file {KiCad (5.1.10)-1} date 08/30/21 16:44:17
; FORMAT={-:-/ absolute / inch / decimal}
; #@! TF.CreationDate,2021-08-30T16:44:17-07:00
; #@! TF.GenerationSoftware,Kicad,Pcbnew,(5.1.10)-1
; #@! TF.FileFunction,Plated,1,2,PTH
FMAT,2
INCH
T1C0.0160
T2C0.0300
T3C0.0350
T4C0.0394
T5C0.0433
T6C0.0618
T7C0.0630
T8C0.0748
T9C0.1260
%
G90
G05
T1
X2.2272Y-4.6941
X2.2409Y-5.2118
X2.5181Y-3.5399
X2.5225Y-3.1031
X2.5531Y-3.2854
X2.7441Y-3.1299
X3.237Y-4.4804
X3.4252Y-5.8898
X3.5724Y-4.8071
X3.715Y-4.4916
X3.8169Y-5.8366
X4.4315Y-4.3575
X4.5253Y-5.9007
X4.5792Y-3.3686
X4.6339Y-3.3421
X4.7033Y-6.133
X4.744Y-6.2356
T2
X3.1988Y-4.5366
X3.1988Y-4.6366
X3.1988Y-4.7366
X3.1988Y-4.8366
X3.1988Y-4.9366
X3.1988Y-5.0366
X3.1988Y-5.1366
X3.1988Y-5.2366
X3.1988Y-5.3366
X3.1988Y-5.4366
X3.1988Y-5.5366
X3.1988Y-5.6366
X3.1988Y-5.7366
X3.1988Y-5.8366
X3.1988Y-5.9366
X3.4252Y-5.2756
X3.4252Y-6.1811
X3.563Y-5.2756
X3.8386Y-5.2756
X3.9764Y-5.2756
X3.9764Y-6.1811
X4.2028Y-4.5366
X4.2028Y-4.6366
X4.2028Y-4.7366
X4.2028Y-4.8366
X4.2028Y-4.9366
X4.2028Y-5.0366
X4.2028Y-5.1366
X4.2028Y-5.2366
X4.2028Y-5.3366
X4.2028Y-5.4366
X4.2028Y-5.5366
X4.2028Y-5.6366
X4.2028Y-5.7366
X4.2028Y-5.8366
X4.2028Y-5.9366
T3
X4.3976Y-3.4571
X4.4012Y-5.8031
X4.4878Y-3.4571
X4.4913Y-5.8031
X4.5276Y-3.1972
X4.5314Y-5.9929
X4.5676Y-3.2673
X4.5714Y-6.063
X4.6076Y-3.1972
X4.6114Y-5.9929
X4.6476Y-3.2673
X4.6514Y-6.063
X4.6876Y-3.1972
X4.6914Y-5.9929
X4.7276Y-3.2673
X4.7314Y-6.063
X4.7676Y-3.1972
X4.7714Y-5.9929
X4.8076Y-3.2673
X4.8114Y-6.063
X4.8476Y-3.4571
X4.8512Y-5.8031
X4.9378Y-3.4571
X4.9413Y-5.8031
T4
X3.0709Y-4.5457
X3.0709Y-4.6457
X3.0709Y-4.8213
X3.0709Y-4.9213
X3.0709Y-5.8268
X3.189Y-3.1283
X3.189Y-3.2283
X3.189Y-3.4646
X3.189Y-3.5646
T5
X2.2835Y-5.1543
X2.2835Y-5.2543
X2.2835Y-5.3543
T6
X4.3476Y-3.2323
X4.3512Y-6.028
X4.9878Y-3.2323
X4.9913Y-6.028
T7
X2.5984Y-5.6535
X2.5984Y-5.8386
X2.5984Y-6.0236
X2.7874Y-5.6535
X2.7874Y-5.8386
X2.7874Y-6.0236
X3.5669Y-3.3937
X3.5669Y-3.5827
X3.752Y-3.3937
X3.752Y-3.5827
X3.937Y-3.3937
X3.937Y-3.5827
X5.1969Y-4.9331
X5.1969Y-5.1181
X5.1969Y-5.3031
T8
X2.2441Y-4.0551
X5.1969Y-4.0551
T9
X1.9591Y-3.1173
X1.9591Y-6.1173
X5.5591Y-3.1173
X5.5591Y-6.1173
T0
M30
