%FSLAX45Y45*%
G04 Gerber Fmt 4.5, Leading zero omitted, Abs format (unit mm)*
G04 Created by KiCad (PCBNEW (5.1.10)-1) date 2021-08-31 13:50:18*
%MOMM*%
%LPD*%
G01*
G04 APERTURE LIST*
%TA.AperFunction,Profile*%
%ADD10C,0.100000*%
%TD*%
%ADD11C,0.200000*%
%ADD12C,0.300000*%
G04 APERTURE END LIST*
D10*
X14628000Y-7410000D02*
X14374000Y-7410000D01*
X14628000Y-16046000D02*
X14628000Y-7410000D01*
X4468000Y-16046000D02*
X14628000Y-16046000D01*
X4468000Y-7410000D02*
X4468000Y-16046000D01*
X14374000Y-7410000D02*
X4468000Y-7410000D01*
D11*
X5671680Y-13217680D02*
X5712320Y-13258320D01*
X5712320Y-13217680D02*
X5671680Y-13258320D01*
X6375550Y-8970930D02*
X6416190Y-9011570D01*
X6416190Y-8970930D02*
X6375550Y-9011570D01*
X6386720Y-7861440D02*
X6427360Y-7902080D01*
X6427360Y-7861440D02*
X6386720Y-7902080D01*
X6464680Y-8324680D02*
X6505320Y-8365320D01*
X6505320Y-8324680D02*
X6464680Y-8365320D01*
X6949680Y-7929680D02*
X6990320Y-7970320D01*
X6990320Y-7929680D02*
X6949680Y-7970320D01*
X8201550Y-11359900D02*
X8242190Y-11400540D01*
X8242190Y-11359900D02*
X8201550Y-11400540D01*
X8679680Y-12019680D02*
X8720320Y-12060320D01*
X8720320Y-12019680D02*
X8679680Y-12060320D01*
X8679680Y-14939680D02*
X8720320Y-14980320D01*
X8720320Y-14939680D02*
X8679680Y-14980320D01*
X9053490Y-12189680D02*
X9094130Y-12230320D01*
X9094130Y-12189680D02*
X9053490Y-12230320D01*
X9349680Y-12179680D02*
X9390320Y-12220320D01*
X9390320Y-12179680D02*
X9349680Y-12220320D01*
X9415850Y-11388270D02*
X9456490Y-11428910D01*
X9456490Y-11388270D02*
X9415850Y-11428910D01*
X9674680Y-14804680D02*
X9715320Y-14845320D01*
X9715320Y-14804680D02*
X9674680Y-14845320D01*
X11235690Y-11047850D02*
X11276330Y-11088490D01*
X11276330Y-11047850D02*
X11235690Y-11088490D01*
X11474050Y-14967430D02*
X11514690Y-15008070D01*
X11514690Y-14967430D02*
X11474050Y-15008070D01*
X11610900Y-8535830D02*
X11651540Y-8576470D01*
X11651540Y-8535830D02*
X11610900Y-8576470D01*
X11749660Y-8468630D02*
X11790300Y-8509270D01*
X11790300Y-8468630D02*
X11749660Y-8509270D01*
X11926090Y-15557530D02*
X11966730Y-15598170D01*
X11966730Y-15557530D02*
X11926090Y-15598170D01*
X12029450Y-15818050D02*
X12070090Y-15858690D01*
X12070090Y-15818050D02*
X12029450Y-15858690D01*
X8163100Y-11523000D02*
G75*
G03*
X8163100Y-11523000I-38100J0D01*
G01*
X8163100Y-11777000D02*
G75*
G03*
X8163100Y-11777000I-38100J0D01*
G01*
X8163100Y-12031000D02*
G75*
G03*
X8163100Y-12031000I-38100J0D01*
G01*
X8163100Y-12285000D02*
G75*
G03*
X8163100Y-12285000I-38100J0D01*
G01*
X8163100Y-12539000D02*
G75*
G03*
X8163100Y-12539000I-38100J0D01*
G01*
X8163100Y-12793000D02*
G75*
G03*
X8163100Y-12793000I-38100J0D01*
G01*
X8163100Y-13047000D02*
G75*
G03*
X8163100Y-13047000I-38100J0D01*
G01*
X8163100Y-13301000D02*
G75*
G03*
X8163100Y-13301000I-38100J0D01*
G01*
X8163100Y-13555000D02*
G75*
G03*
X8163100Y-13555000I-38100J0D01*
G01*
X8163100Y-13809000D02*
G75*
G03*
X8163100Y-13809000I-38100J0D01*
G01*
X8163100Y-14063000D02*
G75*
G03*
X8163100Y-14063000I-38100J0D01*
G01*
X8163100Y-14317000D02*
G75*
G03*
X8163100Y-14317000I-38100J0D01*
G01*
X8163100Y-14571000D02*
G75*
G03*
X8163100Y-14571000I-38100J0D01*
G01*
X8163100Y-14825000D02*
G75*
G03*
X8163100Y-14825000I-38100J0D01*
G01*
X8163100Y-15079000D02*
G75*
G03*
X8163100Y-15079000I-38100J0D01*
G01*
X8738100Y-13400000D02*
G75*
G03*
X8738100Y-13400000I-38100J0D01*
G01*
X8738100Y-15700000D02*
G75*
G03*
X8738100Y-15700000I-38100J0D01*
G01*
X9088100Y-13400000D02*
G75*
G03*
X9088100Y-13400000I-38100J0D01*
G01*
X9788100Y-13400000D02*
G75*
G03*
X9788100Y-13400000I-38100J0D01*
G01*
X10138100Y-13400000D02*
G75*
G03*
X10138100Y-13400000I-38100J0D01*
G01*
X10138100Y-15700000D02*
G75*
G03*
X10138100Y-15700000I-38100J0D01*
G01*
X10713100Y-11523000D02*
G75*
G03*
X10713100Y-11523000I-38100J0D01*
G01*
X10713100Y-11777000D02*
G75*
G03*
X10713100Y-11777000I-38100J0D01*
G01*
X10713100Y-12031000D02*
G75*
G03*
X10713100Y-12031000I-38100J0D01*
G01*
X10713100Y-12285000D02*
G75*
G03*
X10713100Y-12285000I-38100J0D01*
G01*
X10713100Y-12539000D02*
G75*
G03*
X10713100Y-12539000I-38100J0D01*
G01*
X10713100Y-12793000D02*
G75*
G03*
X10713100Y-12793000I-38100J0D01*
G01*
X10713100Y-13047000D02*
G75*
G03*
X10713100Y-13047000I-38100J0D01*
G01*
X10713100Y-13301000D02*
G75*
G03*
X10713100Y-13301000I-38100J0D01*
G01*
X10713100Y-13555000D02*
G75*
G03*
X10713100Y-13555000I-38100J0D01*
G01*
X10713100Y-13809000D02*
G75*
G03*
X10713100Y-13809000I-38100J0D01*
G01*
X10713100Y-14063000D02*
G75*
G03*
X10713100Y-14063000I-38100J0D01*
G01*
X10713100Y-14317000D02*
G75*
G03*
X10713100Y-14317000I-38100J0D01*
G01*
X10713100Y-14571000D02*
G75*
G03*
X10713100Y-14571000I-38100J0D01*
G01*
X10713100Y-14825000D02*
G75*
G03*
X10713100Y-14825000I-38100J0D01*
G01*
X10713100Y-15079000D02*
G75*
G03*
X10713100Y-15079000I-38100J0D01*
G01*
X11170000Y-8736500D02*
X11170000Y-8825500D01*
X11125500Y-8781000D02*
X11214500Y-8781000D01*
X11179000Y-14695500D02*
X11179000Y-14784500D01*
X11134500Y-14740000D02*
X11223500Y-14740000D01*
X11399000Y-8736500D02*
X11399000Y-8825500D01*
X11354500Y-8781000D02*
X11443500Y-8781000D01*
X11408000Y-14695500D02*
X11408000Y-14784500D01*
X11363500Y-14740000D02*
X11452500Y-14740000D01*
X11500000Y-8076500D02*
X11500000Y-8165500D01*
X11455500Y-8121000D02*
X11544500Y-8121000D01*
X11509800Y-15177500D02*
X11509800Y-15266500D01*
X11465300Y-15222000D02*
X11554300Y-15222000D01*
X11601600Y-8254500D02*
X11601600Y-8343500D01*
X11557100Y-8299000D02*
X11646100Y-8299000D01*
X11611400Y-15355500D02*
X11611400Y-15444500D01*
X11566900Y-15400000D02*
X11655900Y-15400000D01*
X11703200Y-8076500D02*
X11703200Y-8165500D01*
X11658700Y-8121000D02*
X11747700Y-8121000D01*
X11713000Y-15177500D02*
X11713000Y-15266500D01*
X11668500Y-15222000D02*
X11757500Y-15222000D01*
X11804800Y-8254500D02*
X11804800Y-8343500D01*
X11760300Y-8299000D02*
X11849300Y-8299000D01*
X11814600Y-15355500D02*
X11814600Y-15444500D01*
X11770100Y-15400000D02*
X11859100Y-15400000D01*
X11906400Y-8076500D02*
X11906400Y-8165500D01*
X11861900Y-8121000D02*
X11950900Y-8121000D01*
X11916200Y-15177500D02*
X11916200Y-15266500D01*
X11871700Y-15222000D02*
X11960700Y-15222000D01*
X12008000Y-8254500D02*
X12008000Y-8343500D01*
X11963500Y-8299000D02*
X12052500Y-8299000D01*
X12017800Y-15355500D02*
X12017800Y-15444500D01*
X11973300Y-15400000D02*
X12062300Y-15400000D01*
X12109600Y-8076500D02*
X12109600Y-8165500D01*
X12065100Y-8121000D02*
X12154100Y-8121000D01*
X12119400Y-15177500D02*
X12119400Y-15266500D01*
X12074900Y-15222000D02*
X12163900Y-15222000D01*
X12211200Y-8254500D02*
X12211200Y-8343500D01*
X12166700Y-8299000D02*
X12255700Y-8299000D01*
X12221000Y-15355500D02*
X12221000Y-15444500D01*
X12176500Y-15400000D02*
X12265500Y-15400000D01*
X12313000Y-8736500D02*
X12313000Y-8825500D01*
X12268500Y-8781000D02*
X12357500Y-8781000D01*
X12322000Y-14695500D02*
X12322000Y-14784500D01*
X12277500Y-14740000D02*
X12366500Y-14740000D01*
X12542000Y-8736500D02*
X12542000Y-8825500D01*
X12497500Y-8781000D02*
X12586500Y-8781000D01*
X12551000Y-14695500D02*
X12551000Y-14784500D01*
X12506500Y-14740000D02*
X12595500Y-14740000D01*
X7835356Y-11581356D02*
X7835356Y-11510644D01*
X7764644Y-11510644D01*
X7764644Y-11581356D01*
X7835356Y-11581356D01*
X7835356Y-11835356D02*
X7835356Y-11764644D01*
X7764644Y-11764644D01*
X7764644Y-11835356D01*
X7835356Y-11835356D01*
X7835356Y-12281356D02*
X7835356Y-12210644D01*
X7764644Y-12210644D01*
X7764644Y-12281356D01*
X7835356Y-12281356D01*
X7835356Y-12535356D02*
X7835356Y-12464644D01*
X7764644Y-12464644D01*
X7764644Y-12535356D01*
X7835356Y-12535356D01*
X7835356Y-14835356D02*
X7835356Y-14764644D01*
X7764644Y-14764644D01*
X7764644Y-14835356D01*
X7835356Y-14835356D01*
X8135356Y-7981356D02*
X8135356Y-7910644D01*
X8064644Y-7910644D01*
X8064644Y-7981356D01*
X8135356Y-7981356D01*
X8135356Y-8235356D02*
X8135356Y-8164644D01*
X8064644Y-8164644D01*
X8064644Y-8235356D01*
X8135356Y-8235356D01*
X8135356Y-8835356D02*
X8135356Y-8764644D01*
X8064644Y-8764644D01*
X8064644Y-8835356D01*
X8135356Y-8835356D01*
X8135356Y-9089356D02*
X8135356Y-9018644D01*
X8064644Y-9018644D01*
X8064644Y-9089356D01*
X8135356Y-9089356D01*
X5800000Y-13147000D02*
X5855000Y-13092000D01*
X5800000Y-13037000D01*
X5745000Y-13092000D01*
X5800000Y-13147000D01*
X5800000Y-13401000D02*
X5855000Y-13346000D01*
X5800000Y-13291000D01*
X5745000Y-13346000D01*
X5800000Y-13401000D01*
X5800000Y-13655000D02*
X5855000Y-13600000D01*
X5800000Y-13545000D01*
X5745000Y-13600000D01*
X5800000Y-13655000D01*
X10964500Y-8131500D02*
X11121500Y-8288500D01*
X11121500Y-8131500D02*
X10964500Y-8288500D01*
X11121500Y-8210000D02*
G75*
G03*
X11121500Y-8210000I-78500J0D01*
G01*
X10973500Y-15232500D02*
X11130500Y-15389500D01*
X11130500Y-15232500D02*
X10973500Y-15389500D01*
X11130500Y-15311000D02*
G75*
G03*
X11130500Y-15311000I-78500J0D01*
G01*
X12590500Y-8131500D02*
X12747500Y-8288500D01*
X12747500Y-8131500D02*
X12590500Y-8288500D01*
X12747500Y-8210000D02*
G75*
G03*
X12747500Y-8210000I-78500J0D01*
G01*
X12599500Y-15232500D02*
X12756500Y-15389500D01*
X12756500Y-15232500D02*
X12599500Y-15389500D01*
X12756500Y-15311000D02*
G75*
G03*
X12756500Y-15311000I-78500J0D01*
G01*
X6520000Y-14280000D02*
X6680000Y-14440000D01*
X6680000Y-14280000D02*
X6520000Y-14440000D01*
X6600000Y-14280000D02*
X6600000Y-14440000D01*
X6520000Y-14360000D02*
X6680000Y-14360000D01*
X6520000Y-14750000D02*
X6680000Y-14910000D01*
X6680000Y-14750000D02*
X6520000Y-14910000D01*
X6600000Y-14750000D02*
X6600000Y-14910000D01*
X6520000Y-14830000D02*
X6680000Y-14830000D01*
X6520000Y-15220000D02*
X6680000Y-15380000D01*
X6680000Y-15220000D02*
X6520000Y-15380000D01*
X6600000Y-15220000D02*
X6600000Y-15380000D01*
X6520000Y-15300000D02*
X6680000Y-15300000D01*
X7000000Y-14280000D02*
X7160000Y-14440000D01*
X7160000Y-14280000D02*
X7000000Y-14440000D01*
X7080000Y-14280000D02*
X7080000Y-14440000D01*
X7000000Y-14360000D02*
X7160000Y-14360000D01*
X7000000Y-14750000D02*
X7160000Y-14910000D01*
X7160000Y-14750000D02*
X7000000Y-14910000D01*
X7080000Y-14750000D02*
X7080000Y-14910000D01*
X7000000Y-14830000D02*
X7160000Y-14830000D01*
X7000000Y-15220000D02*
X7160000Y-15380000D01*
X7160000Y-15220000D02*
X7000000Y-15380000D01*
X7080000Y-15220000D02*
X7080000Y-15380000D01*
X7000000Y-15300000D02*
X7160000Y-15300000D01*
X8980000Y-8540000D02*
X9140000Y-8700000D01*
X9140000Y-8540000D02*
X8980000Y-8700000D01*
X9060000Y-8540000D02*
X9060000Y-8700000D01*
X8980000Y-8620000D02*
X9140000Y-8620000D01*
X8980000Y-9020000D02*
X9140000Y-9180000D01*
X9140000Y-9020000D02*
X8980000Y-9180000D01*
X9060000Y-9020000D02*
X9060000Y-9180000D01*
X8980000Y-9100000D02*
X9140000Y-9100000D01*
X9450000Y-8540000D02*
X9610000Y-8700000D01*
X9610000Y-8540000D02*
X9450000Y-8700000D01*
X9530000Y-8540000D02*
X9530000Y-8700000D01*
X9450000Y-8620000D02*
X9610000Y-8620000D01*
X9450000Y-9020000D02*
X9610000Y-9180000D01*
X9610000Y-9020000D02*
X9450000Y-9180000D01*
X9530000Y-9020000D02*
X9530000Y-9180000D01*
X9450000Y-9100000D02*
X9610000Y-9100000D01*
X9920000Y-8540000D02*
X10080000Y-8700000D01*
X10080000Y-8540000D02*
X9920000Y-8700000D01*
X10000000Y-8540000D02*
X10000000Y-8700000D01*
X9920000Y-8620000D02*
X10080000Y-8620000D01*
X9920000Y-9020000D02*
X10080000Y-9180000D01*
X10080000Y-9020000D02*
X9920000Y-9180000D01*
X10000000Y-9020000D02*
X10000000Y-9180000D01*
X9920000Y-9100000D02*
X10080000Y-9100000D01*
X13120000Y-12450000D02*
X13280000Y-12610000D01*
X13280000Y-12450000D02*
X13120000Y-12610000D01*
X13200000Y-12450000D02*
X13200000Y-12610000D01*
X13120000Y-12530000D02*
X13280000Y-12530000D01*
X13120000Y-12920000D02*
X13280000Y-13080000D01*
X13280000Y-12920000D02*
X13120000Y-13080000D01*
X13200000Y-12920000D02*
X13200000Y-13080000D01*
X13120000Y-13000000D02*
X13280000Y-13000000D01*
X13120000Y-13390000D02*
X13280000Y-13550000D01*
X13280000Y-13390000D02*
X13120000Y-13550000D01*
X13200000Y-13390000D02*
X13200000Y-13550000D01*
X13120000Y-13470000D02*
X13280000Y-13470000D01*
X5605000Y-10205000D02*
X5795000Y-10395000D01*
X5795000Y-10205000D02*
X5605000Y-10395000D01*
X5767176Y-10367176D02*
X5767176Y-10232824D01*
X5632824Y-10232824D01*
X5632824Y-10367176D01*
X5767176Y-10367176D01*
X13105000Y-10205000D02*
X13295000Y-10395000D01*
X13295000Y-10205000D02*
X13105000Y-10395000D01*
X13267176Y-10367176D02*
X13267176Y-10232824D01*
X13132824Y-10232824D01*
X13132824Y-10367176D01*
X13267176Y-10367176D01*
X4816000Y-7758000D02*
X5136000Y-8078000D01*
X5136000Y-7758000D02*
X4816000Y-8078000D01*
X4976000Y-8078000D02*
X5136000Y-7918000D01*
X4976000Y-7758000D01*
X4816000Y-7918000D01*
X4976000Y-8078000D01*
X4816000Y-15378000D02*
X5136000Y-15698000D01*
X5136000Y-15378000D02*
X4816000Y-15698000D01*
X4976000Y-15698000D02*
X5136000Y-15538000D01*
X4976000Y-15378000D01*
X4816000Y-15538000D01*
X4976000Y-15698000D01*
X13960000Y-7758000D02*
X14280000Y-8078000D01*
X14280000Y-7758000D02*
X13960000Y-8078000D01*
X14120000Y-8078000D02*
X14280000Y-7918000D01*
X14120000Y-7758000D01*
X13960000Y-7918000D01*
X14120000Y-8078000D01*
X13960000Y-15378000D02*
X14280000Y-15698000D01*
X14280000Y-15378000D02*
X13960000Y-15698000D01*
X14120000Y-15698000D02*
X14280000Y-15538000D01*
X14120000Y-15378000D01*
X13960000Y-15538000D01*
X14120000Y-15698000D01*
D12*
X4749428Y-16516714D02*
X4749428Y-16216714D01*
X4820857Y-16216714D01*
X4863714Y-16231000D01*
X4892286Y-16259571D01*
X4906571Y-16288143D01*
X4920857Y-16345286D01*
X4920857Y-16388143D01*
X4906571Y-16445286D01*
X4892286Y-16473857D01*
X4863714Y-16502429D01*
X4820857Y-16516714D01*
X4749428Y-16516714D01*
X5049428Y-16516714D02*
X5049428Y-16316714D01*
X5049428Y-16373857D02*
X5063714Y-16345286D01*
X5078000Y-16331000D01*
X5106571Y-16316714D01*
X5135143Y-16316714D01*
X5235143Y-16516714D02*
X5235143Y-16316714D01*
X5235143Y-16216714D02*
X5220857Y-16231000D01*
X5235143Y-16245286D01*
X5249428Y-16231000D01*
X5235143Y-16216714D01*
X5235143Y-16245286D01*
X5420857Y-16516714D02*
X5392286Y-16502429D01*
X5378000Y-16473857D01*
X5378000Y-16216714D01*
X5578000Y-16516714D02*
X5549428Y-16502429D01*
X5535143Y-16473857D01*
X5535143Y-16216714D01*
X5920857Y-16516714D02*
X5920857Y-16216714D01*
X6020857Y-16431000D01*
X6120857Y-16216714D01*
X6120857Y-16516714D01*
X6392286Y-16516714D02*
X6392286Y-16359571D01*
X6378000Y-16331000D01*
X6349428Y-16316714D01*
X6292286Y-16316714D01*
X6263714Y-16331000D01*
X6392286Y-16502429D02*
X6363714Y-16516714D01*
X6292286Y-16516714D01*
X6263714Y-16502429D01*
X6249428Y-16473857D01*
X6249428Y-16445286D01*
X6263714Y-16416714D01*
X6292286Y-16402429D01*
X6363714Y-16402429D01*
X6392286Y-16388143D01*
X6535143Y-16316714D02*
X6535143Y-16616714D01*
X6535143Y-16331000D02*
X6563714Y-16316714D01*
X6620857Y-16316714D01*
X6649428Y-16331000D01*
X6663714Y-16345286D01*
X6678000Y-16373857D01*
X6678000Y-16459571D01*
X6663714Y-16488143D01*
X6649428Y-16502429D01*
X6620857Y-16516714D01*
X6563714Y-16516714D01*
X6535143Y-16502429D01*
X6806571Y-16488143D02*
X6820857Y-16502429D01*
X6806571Y-16516714D01*
X6792286Y-16502429D01*
X6806571Y-16488143D01*
X6806571Y-16516714D01*
X6806571Y-16331000D02*
X6820857Y-16345286D01*
X6806571Y-16359571D01*
X6792286Y-16345286D01*
X6806571Y-16331000D01*
X6806571Y-16359571D01*
X4422360Y-16990680D02*
X4463000Y-17031320D01*
X4463000Y-16990680D02*
X4422360Y-17031320D01*
X4806571Y-16846714D02*
X4835143Y-16846714D01*
X4863714Y-16861000D01*
X4878000Y-16875286D01*
X4892286Y-16903857D01*
X4906571Y-16961000D01*
X4906571Y-17032429D01*
X4892286Y-17089572D01*
X4878000Y-17118143D01*
X4863714Y-17132429D01*
X4835143Y-17146714D01*
X4806571Y-17146714D01*
X4778000Y-17132429D01*
X4763714Y-17118143D01*
X4749428Y-17089572D01*
X4735143Y-17032429D01*
X4735143Y-16961000D01*
X4749428Y-16903857D01*
X4763714Y-16875286D01*
X4778000Y-16861000D01*
X4806571Y-16846714D01*
X5035143Y-17118143D02*
X5049428Y-17132429D01*
X5035143Y-17146714D01*
X5020857Y-17132429D01*
X5035143Y-17118143D01*
X5035143Y-17146714D01*
X5306571Y-16946714D02*
X5306571Y-17146714D01*
X5235143Y-16832429D02*
X5163714Y-17046714D01*
X5349428Y-17046714D01*
X5520857Y-16846714D02*
X5549428Y-16846714D01*
X5578000Y-16861000D01*
X5592286Y-16875286D01*
X5606571Y-16903857D01*
X5620857Y-16961000D01*
X5620857Y-17032429D01*
X5606571Y-17089572D01*
X5592286Y-17118143D01*
X5578000Y-17132429D01*
X5549428Y-17146714D01*
X5520857Y-17146714D01*
X5492286Y-17132429D01*
X5478000Y-17118143D01*
X5463714Y-17089572D01*
X5449428Y-17032429D01*
X5449428Y-16961000D01*
X5463714Y-16903857D01*
X5478000Y-16875286D01*
X5492286Y-16861000D01*
X5520857Y-16846714D01*
X5878000Y-16846714D02*
X5820857Y-16846714D01*
X5792286Y-16861000D01*
X5778000Y-16875286D01*
X5749428Y-16918143D01*
X5735143Y-16975286D01*
X5735143Y-17089572D01*
X5749428Y-17118143D01*
X5763714Y-17132429D01*
X5792286Y-17146714D01*
X5849428Y-17146714D01*
X5878000Y-17132429D01*
X5892286Y-17118143D01*
X5906571Y-17089572D01*
X5906571Y-17018143D01*
X5892286Y-16989572D01*
X5878000Y-16975286D01*
X5849428Y-16961000D01*
X5792286Y-16961000D01*
X5763714Y-16975286D01*
X5749428Y-16989572D01*
X5735143Y-17018143D01*
X6035143Y-17146714D02*
X6035143Y-16946714D01*
X6035143Y-16975286D02*
X6049428Y-16961000D01*
X6078000Y-16946714D01*
X6120857Y-16946714D01*
X6149428Y-16961000D01*
X6163714Y-16989572D01*
X6163714Y-17146714D01*
X6163714Y-16989572D02*
X6178000Y-16961000D01*
X6206571Y-16946714D01*
X6249428Y-16946714D01*
X6278000Y-16961000D01*
X6292286Y-16989572D01*
X6292286Y-17146714D01*
X6435143Y-17146714D02*
X6435143Y-16946714D01*
X6435143Y-16975286D02*
X6449428Y-16961000D01*
X6478000Y-16946714D01*
X6520857Y-16946714D01*
X6549428Y-16961000D01*
X6563714Y-16989572D01*
X6563714Y-17146714D01*
X6563714Y-16989572D02*
X6578000Y-16961000D01*
X6606571Y-16946714D01*
X6649428Y-16946714D01*
X6678000Y-16961000D01*
X6692286Y-16989572D01*
X6692286Y-17146714D01*
X7278000Y-16832429D02*
X7020857Y-17218143D01*
X7663714Y-16846714D02*
X7692286Y-16846714D01*
X7720857Y-16861000D01*
X7735143Y-16875286D01*
X7749428Y-16903857D01*
X7763714Y-16961000D01*
X7763714Y-17032429D01*
X7749428Y-17089572D01*
X7735143Y-17118143D01*
X7720857Y-17132429D01*
X7692286Y-17146714D01*
X7663714Y-17146714D01*
X7635143Y-17132429D01*
X7620857Y-17118143D01*
X7606571Y-17089572D01*
X7592286Y-17032429D01*
X7592286Y-16961000D01*
X7606571Y-16903857D01*
X7620857Y-16875286D01*
X7635143Y-16861000D01*
X7663714Y-16846714D01*
X7892286Y-17118143D02*
X7906571Y-17132429D01*
X7892286Y-17146714D01*
X7878000Y-17132429D01*
X7892286Y-17118143D01*
X7892286Y-17146714D01*
X8092286Y-16846714D02*
X8120857Y-16846714D01*
X8149428Y-16861000D01*
X8163714Y-16875286D01*
X8178000Y-16903857D01*
X8192286Y-16961000D01*
X8192286Y-17032429D01*
X8178000Y-17089572D01*
X8163714Y-17118143D01*
X8149428Y-17132429D01*
X8120857Y-17146714D01*
X8092286Y-17146714D01*
X8063714Y-17132429D01*
X8049428Y-17118143D01*
X8035143Y-17089572D01*
X8020857Y-17032429D01*
X8020857Y-16961000D01*
X8035143Y-16903857D01*
X8049428Y-16875286D01*
X8063714Y-16861000D01*
X8092286Y-16846714D01*
X8478000Y-17146714D02*
X8306571Y-17146714D01*
X8392286Y-17146714D02*
X8392286Y-16846714D01*
X8363714Y-16889572D01*
X8335143Y-16918143D01*
X8306571Y-16932429D01*
X8735143Y-16846714D02*
X8678000Y-16846714D01*
X8649428Y-16861000D01*
X8635143Y-16875286D01*
X8606571Y-16918143D01*
X8592286Y-16975286D01*
X8592286Y-17089572D01*
X8606571Y-17118143D01*
X8620857Y-17132429D01*
X8649428Y-17146714D01*
X8706571Y-17146714D01*
X8735143Y-17132429D01*
X8749428Y-17118143D01*
X8763714Y-17089572D01*
X8763714Y-17018143D01*
X8749428Y-16989572D01*
X8735143Y-16975286D01*
X8706571Y-16961000D01*
X8649428Y-16961000D01*
X8620857Y-16975286D01*
X8606571Y-16989572D01*
X8592286Y-17018143D01*
X8949428Y-16846714D02*
X8978000Y-16846714D01*
X9006571Y-16861000D01*
X9020857Y-16875286D01*
X9035143Y-16903857D01*
X9049428Y-16961000D01*
X9049428Y-17032429D01*
X9035143Y-17089572D01*
X9020857Y-17118143D01*
X9006571Y-17132429D01*
X8978000Y-17146714D01*
X8949428Y-17146714D01*
X8920857Y-17132429D01*
X8906571Y-17118143D01*
X8892286Y-17089572D01*
X8878000Y-17032429D01*
X8878000Y-16961000D01*
X8892286Y-16903857D01*
X8906571Y-16875286D01*
X8920857Y-16861000D01*
X8949428Y-16846714D01*
X9163714Y-16846714D02*
X9163714Y-16903857D01*
X9278000Y-16846714D02*
X9278000Y-16903857D01*
X9720857Y-17261000D02*
X9706571Y-17246714D01*
X9678000Y-17203857D01*
X9663714Y-17175286D01*
X9649428Y-17132429D01*
X9635143Y-17061000D01*
X9635143Y-17003857D01*
X9649428Y-16932429D01*
X9663714Y-16889572D01*
X9678000Y-16861000D01*
X9706571Y-16818143D01*
X9720857Y-16803857D01*
X9992286Y-17146714D02*
X9820857Y-17146714D01*
X9906571Y-17146714D02*
X9906571Y-16846714D01*
X9878000Y-16889572D01*
X9849428Y-16918143D01*
X9820857Y-16932429D01*
X10163714Y-16975286D02*
X10135143Y-16961000D01*
X10120857Y-16946714D01*
X10106571Y-16918143D01*
X10106571Y-16903857D01*
X10120857Y-16875286D01*
X10135143Y-16861000D01*
X10163714Y-16846714D01*
X10220857Y-16846714D01*
X10249428Y-16861000D01*
X10263714Y-16875286D01*
X10278000Y-16903857D01*
X10278000Y-16918143D01*
X10263714Y-16946714D01*
X10249428Y-16961000D01*
X10220857Y-16975286D01*
X10163714Y-16975286D01*
X10135143Y-16989572D01*
X10120857Y-17003857D01*
X10106571Y-17032429D01*
X10106571Y-17089572D01*
X10120857Y-17118143D01*
X10135143Y-17132429D01*
X10163714Y-17146714D01*
X10220857Y-17146714D01*
X10249428Y-17132429D01*
X10263714Y-17118143D01*
X10278000Y-17089572D01*
X10278000Y-17032429D01*
X10263714Y-17003857D01*
X10249428Y-16989572D01*
X10220857Y-16975286D01*
X10635143Y-17146714D02*
X10635143Y-16846714D01*
X10763714Y-17146714D02*
X10763714Y-16989572D01*
X10749428Y-16961000D01*
X10720857Y-16946714D01*
X10678000Y-16946714D01*
X10649428Y-16961000D01*
X10635143Y-16975286D01*
X10949428Y-17146714D02*
X10920857Y-17132429D01*
X10906571Y-17118143D01*
X10892286Y-17089572D01*
X10892286Y-17003857D01*
X10906571Y-16975286D01*
X10920857Y-16961000D01*
X10949428Y-16946714D01*
X10992286Y-16946714D01*
X11020857Y-16961000D01*
X11035143Y-16975286D01*
X11049428Y-17003857D01*
X11049428Y-17089572D01*
X11035143Y-17118143D01*
X11020857Y-17132429D01*
X10992286Y-17146714D01*
X10949428Y-17146714D01*
X11220857Y-17146714D02*
X11192286Y-17132429D01*
X11178000Y-17103857D01*
X11178000Y-16846714D01*
X11449428Y-17132429D02*
X11420857Y-17146714D01*
X11363714Y-17146714D01*
X11335143Y-17132429D01*
X11320857Y-17103857D01*
X11320857Y-16989572D01*
X11335143Y-16961000D01*
X11363714Y-16946714D01*
X11420857Y-16946714D01*
X11449428Y-16961000D01*
X11463714Y-16989572D01*
X11463714Y-17018143D01*
X11320857Y-17046714D01*
X11578000Y-17132429D02*
X11606571Y-17146714D01*
X11663714Y-17146714D01*
X11692286Y-17132429D01*
X11706571Y-17103857D01*
X11706571Y-17089572D01*
X11692286Y-17061000D01*
X11663714Y-17046714D01*
X11620857Y-17046714D01*
X11592286Y-17032429D01*
X11578000Y-17003857D01*
X11578000Y-16989572D01*
X11592286Y-16961000D01*
X11620857Y-16946714D01*
X11663714Y-16946714D01*
X11692286Y-16961000D01*
X11806571Y-17261000D02*
X11820857Y-17246714D01*
X11849428Y-17203857D01*
X11863714Y-17175286D01*
X11878000Y-17132429D01*
X11892286Y-17061000D01*
X11892286Y-17003857D01*
X11878000Y-16932429D01*
X11863714Y-16889572D01*
X11849428Y-16861000D01*
X11820857Y-16818143D01*
X11806571Y-16803857D01*
X4463000Y-17407000D02*
G75*
G03*
X4463000Y-17407000I-38100J0D01*
G01*
X4806571Y-17242714D02*
X4835143Y-17242714D01*
X4863714Y-17257000D01*
X4878000Y-17271286D01*
X4892286Y-17299857D01*
X4906571Y-17357000D01*
X4906571Y-17428429D01*
X4892286Y-17485572D01*
X4878000Y-17514143D01*
X4863714Y-17528429D01*
X4835143Y-17542714D01*
X4806571Y-17542714D01*
X4778000Y-17528429D01*
X4763714Y-17514143D01*
X4749428Y-17485572D01*
X4735143Y-17428429D01*
X4735143Y-17357000D01*
X4749428Y-17299857D01*
X4763714Y-17271286D01*
X4778000Y-17257000D01*
X4806571Y-17242714D01*
X5035143Y-17514143D02*
X5049428Y-17528429D01*
X5035143Y-17542714D01*
X5020857Y-17528429D01*
X5035143Y-17514143D01*
X5035143Y-17542714D01*
X5149428Y-17242714D02*
X5349428Y-17242714D01*
X5220857Y-17542714D01*
X5592286Y-17242714D02*
X5535143Y-17242714D01*
X5506571Y-17257000D01*
X5492286Y-17271286D01*
X5463714Y-17314143D01*
X5449428Y-17371286D01*
X5449428Y-17485572D01*
X5463714Y-17514143D01*
X5478000Y-17528429D01*
X5506571Y-17542714D01*
X5563714Y-17542714D01*
X5592286Y-17528429D01*
X5606571Y-17514143D01*
X5620857Y-17485572D01*
X5620857Y-17414143D01*
X5606571Y-17385572D01*
X5592286Y-17371286D01*
X5563714Y-17357000D01*
X5506571Y-17357000D01*
X5478000Y-17371286D01*
X5463714Y-17385572D01*
X5449428Y-17414143D01*
X5735143Y-17271286D02*
X5749428Y-17257000D01*
X5778000Y-17242714D01*
X5849428Y-17242714D01*
X5878000Y-17257000D01*
X5892286Y-17271286D01*
X5906571Y-17299857D01*
X5906571Y-17328429D01*
X5892286Y-17371286D01*
X5720857Y-17542714D01*
X5906571Y-17542714D01*
X6035143Y-17542714D02*
X6035143Y-17342714D01*
X6035143Y-17371286D02*
X6049428Y-17357000D01*
X6078000Y-17342714D01*
X6120857Y-17342714D01*
X6149428Y-17357000D01*
X6163714Y-17385572D01*
X6163714Y-17542714D01*
X6163714Y-17385572D02*
X6178000Y-17357000D01*
X6206571Y-17342714D01*
X6249428Y-17342714D01*
X6278000Y-17357000D01*
X6292286Y-17385572D01*
X6292286Y-17542714D01*
X6435143Y-17542714D02*
X6435143Y-17342714D01*
X6435143Y-17371286D02*
X6449428Y-17357000D01*
X6478000Y-17342714D01*
X6520857Y-17342714D01*
X6549428Y-17357000D01*
X6563714Y-17385572D01*
X6563714Y-17542714D01*
X6563714Y-17385572D02*
X6578000Y-17357000D01*
X6606571Y-17342714D01*
X6649428Y-17342714D01*
X6678000Y-17357000D01*
X6692286Y-17385572D01*
X6692286Y-17542714D01*
X7278000Y-17228429D02*
X7020857Y-17614143D01*
X7663714Y-17242714D02*
X7692286Y-17242714D01*
X7720857Y-17257000D01*
X7735143Y-17271286D01*
X7749428Y-17299857D01*
X7763714Y-17357000D01*
X7763714Y-17428429D01*
X7749428Y-17485572D01*
X7735143Y-17514143D01*
X7720857Y-17528429D01*
X7692286Y-17542714D01*
X7663714Y-17542714D01*
X7635143Y-17528429D01*
X7620857Y-17514143D01*
X7606571Y-17485572D01*
X7592286Y-17428429D01*
X7592286Y-17357000D01*
X7606571Y-17299857D01*
X7620857Y-17271286D01*
X7635143Y-17257000D01*
X7663714Y-17242714D01*
X7892286Y-17514143D02*
X7906571Y-17528429D01*
X7892286Y-17542714D01*
X7878000Y-17528429D01*
X7892286Y-17514143D01*
X7892286Y-17542714D01*
X8092286Y-17242714D02*
X8120857Y-17242714D01*
X8149428Y-17257000D01*
X8163714Y-17271286D01*
X8178000Y-17299857D01*
X8192286Y-17357000D01*
X8192286Y-17428429D01*
X8178000Y-17485572D01*
X8163714Y-17514143D01*
X8149428Y-17528429D01*
X8120857Y-17542714D01*
X8092286Y-17542714D01*
X8063714Y-17528429D01*
X8049428Y-17514143D01*
X8035143Y-17485572D01*
X8020857Y-17428429D01*
X8020857Y-17357000D01*
X8035143Y-17299857D01*
X8049428Y-17271286D01*
X8063714Y-17257000D01*
X8092286Y-17242714D01*
X8292286Y-17242714D02*
X8478000Y-17242714D01*
X8378000Y-17357000D01*
X8420857Y-17357000D01*
X8449428Y-17371286D01*
X8463714Y-17385572D01*
X8478000Y-17414143D01*
X8478000Y-17485572D01*
X8463714Y-17514143D01*
X8449428Y-17528429D01*
X8420857Y-17542714D01*
X8335143Y-17542714D01*
X8306571Y-17528429D01*
X8292286Y-17514143D01*
X8663714Y-17242714D02*
X8692286Y-17242714D01*
X8720857Y-17257000D01*
X8735143Y-17271286D01*
X8749428Y-17299857D01*
X8763714Y-17357000D01*
X8763714Y-17428429D01*
X8749428Y-17485572D01*
X8735143Y-17514143D01*
X8720857Y-17528429D01*
X8692286Y-17542714D01*
X8663714Y-17542714D01*
X8635143Y-17528429D01*
X8620857Y-17514143D01*
X8606571Y-17485572D01*
X8592286Y-17428429D01*
X8592286Y-17357000D01*
X8606571Y-17299857D01*
X8620857Y-17271286D01*
X8635143Y-17257000D01*
X8663714Y-17242714D01*
X8949428Y-17242714D02*
X8978000Y-17242714D01*
X9006571Y-17257000D01*
X9020857Y-17271286D01*
X9035143Y-17299857D01*
X9049428Y-17357000D01*
X9049428Y-17428429D01*
X9035143Y-17485572D01*
X9020857Y-17514143D01*
X9006571Y-17528429D01*
X8978000Y-17542714D01*
X8949428Y-17542714D01*
X8920857Y-17528429D01*
X8906571Y-17514143D01*
X8892286Y-17485572D01*
X8878000Y-17428429D01*
X8878000Y-17357000D01*
X8892286Y-17299857D01*
X8906571Y-17271286D01*
X8920857Y-17257000D01*
X8949428Y-17242714D01*
X9163714Y-17242714D02*
X9163714Y-17299857D01*
X9278000Y-17242714D02*
X9278000Y-17299857D01*
X9720857Y-17657000D02*
X9706571Y-17642714D01*
X9678000Y-17599857D01*
X9663714Y-17571286D01*
X9649428Y-17528429D01*
X9635143Y-17457000D01*
X9635143Y-17399857D01*
X9649428Y-17328429D01*
X9663714Y-17285572D01*
X9678000Y-17257000D01*
X9706571Y-17214143D01*
X9720857Y-17199857D01*
X9806571Y-17242714D02*
X9992286Y-17242714D01*
X9892286Y-17357000D01*
X9935143Y-17357000D01*
X9963714Y-17371286D01*
X9978000Y-17385572D01*
X9992286Y-17414143D01*
X9992286Y-17485572D01*
X9978000Y-17514143D01*
X9963714Y-17528429D01*
X9935143Y-17542714D01*
X9849428Y-17542714D01*
X9820857Y-17528429D01*
X9806571Y-17514143D01*
X10249428Y-17242714D02*
X10192286Y-17242714D01*
X10163714Y-17257000D01*
X10149428Y-17271286D01*
X10120857Y-17314143D01*
X10106571Y-17371286D01*
X10106571Y-17485572D01*
X10120857Y-17514143D01*
X10135143Y-17528429D01*
X10163714Y-17542714D01*
X10220857Y-17542714D01*
X10249428Y-17528429D01*
X10263714Y-17514143D01*
X10278000Y-17485572D01*
X10278000Y-17414143D01*
X10263714Y-17385572D01*
X10249428Y-17371286D01*
X10220857Y-17357000D01*
X10163714Y-17357000D01*
X10135143Y-17371286D01*
X10120857Y-17385572D01*
X10106571Y-17414143D01*
X10635143Y-17542714D02*
X10635143Y-17242714D01*
X10763714Y-17542714D02*
X10763714Y-17385572D01*
X10749428Y-17357000D01*
X10720857Y-17342714D01*
X10678000Y-17342714D01*
X10649428Y-17357000D01*
X10635143Y-17371286D01*
X10949428Y-17542714D02*
X10920857Y-17528429D01*
X10906571Y-17514143D01*
X10892286Y-17485572D01*
X10892286Y-17399857D01*
X10906571Y-17371286D01*
X10920857Y-17357000D01*
X10949428Y-17342714D01*
X10992286Y-17342714D01*
X11020857Y-17357000D01*
X11035143Y-17371286D01*
X11049428Y-17399857D01*
X11049428Y-17485572D01*
X11035143Y-17514143D01*
X11020857Y-17528429D01*
X10992286Y-17542714D01*
X10949428Y-17542714D01*
X11220857Y-17542714D02*
X11192286Y-17528429D01*
X11178000Y-17499857D01*
X11178000Y-17242714D01*
X11449428Y-17528429D02*
X11420857Y-17542714D01*
X11363714Y-17542714D01*
X11335143Y-17528429D01*
X11320857Y-17499857D01*
X11320857Y-17385572D01*
X11335143Y-17357000D01*
X11363714Y-17342714D01*
X11420857Y-17342714D01*
X11449428Y-17357000D01*
X11463714Y-17385572D01*
X11463714Y-17414143D01*
X11320857Y-17442714D01*
X11578000Y-17528429D02*
X11606571Y-17542714D01*
X11663714Y-17542714D01*
X11692286Y-17528429D01*
X11706571Y-17499857D01*
X11706571Y-17485572D01*
X11692286Y-17457000D01*
X11663714Y-17442714D01*
X11620857Y-17442714D01*
X11592286Y-17428429D01*
X11578000Y-17399857D01*
X11578000Y-17385572D01*
X11592286Y-17357000D01*
X11620857Y-17342714D01*
X11663714Y-17342714D01*
X11692286Y-17357000D01*
X11806571Y-17657000D02*
X11820857Y-17642714D01*
X11849428Y-17599857D01*
X11863714Y-17571286D01*
X11878000Y-17528429D01*
X11892286Y-17457000D01*
X11892286Y-17399857D01*
X11878000Y-17328429D01*
X11863714Y-17285572D01*
X11849428Y-17257000D01*
X11820857Y-17214143D01*
X11806571Y-17199857D01*
X4418500Y-17758500D02*
X4418500Y-17847500D01*
X4374000Y-17803000D02*
X4463000Y-17803000D01*
X4806571Y-17638714D02*
X4835143Y-17638714D01*
X4863714Y-17653000D01*
X4878000Y-17667286D01*
X4892286Y-17695857D01*
X4906571Y-17753000D01*
X4906571Y-17824429D01*
X4892286Y-17881572D01*
X4878000Y-17910143D01*
X4863714Y-17924429D01*
X4835143Y-17938714D01*
X4806571Y-17938714D01*
X4778000Y-17924429D01*
X4763714Y-17910143D01*
X4749428Y-17881572D01*
X4735143Y-17824429D01*
X4735143Y-17753000D01*
X4749428Y-17695857D01*
X4763714Y-17667286D01*
X4778000Y-17653000D01*
X4806571Y-17638714D01*
X5035143Y-17910143D02*
X5049428Y-17924429D01*
X5035143Y-17938714D01*
X5020857Y-17924429D01*
X5035143Y-17910143D01*
X5035143Y-17938714D01*
X5220857Y-17767286D02*
X5192286Y-17753000D01*
X5178000Y-17738714D01*
X5163714Y-17710143D01*
X5163714Y-17695857D01*
X5178000Y-17667286D01*
X5192286Y-17653000D01*
X5220857Y-17638714D01*
X5278000Y-17638714D01*
X5306571Y-17653000D01*
X5320857Y-17667286D01*
X5335143Y-17695857D01*
X5335143Y-17710143D01*
X5320857Y-17738714D01*
X5306571Y-17753000D01*
X5278000Y-17767286D01*
X5220857Y-17767286D01*
X5192286Y-17781572D01*
X5178000Y-17795857D01*
X5163714Y-17824429D01*
X5163714Y-17881572D01*
X5178000Y-17910143D01*
X5192286Y-17924429D01*
X5220857Y-17938714D01*
X5278000Y-17938714D01*
X5306571Y-17924429D01*
X5320857Y-17910143D01*
X5335143Y-17881572D01*
X5335143Y-17824429D01*
X5320857Y-17795857D01*
X5306571Y-17781572D01*
X5278000Y-17767286D01*
X5478000Y-17938714D02*
X5535143Y-17938714D01*
X5563714Y-17924429D01*
X5578000Y-17910143D01*
X5606571Y-17867286D01*
X5620857Y-17810143D01*
X5620857Y-17695857D01*
X5606571Y-17667286D01*
X5592286Y-17653000D01*
X5563714Y-17638714D01*
X5506571Y-17638714D01*
X5478000Y-17653000D01*
X5463714Y-17667286D01*
X5449428Y-17695857D01*
X5449428Y-17767286D01*
X5463714Y-17795857D01*
X5478000Y-17810143D01*
X5506571Y-17824429D01*
X5563714Y-17824429D01*
X5592286Y-17810143D01*
X5606571Y-17795857D01*
X5620857Y-17767286D01*
X5806571Y-17638714D02*
X5835143Y-17638714D01*
X5863714Y-17653000D01*
X5878000Y-17667286D01*
X5892286Y-17695857D01*
X5906571Y-17753000D01*
X5906571Y-17824429D01*
X5892286Y-17881572D01*
X5878000Y-17910143D01*
X5863714Y-17924429D01*
X5835143Y-17938714D01*
X5806571Y-17938714D01*
X5778000Y-17924429D01*
X5763714Y-17910143D01*
X5749428Y-17881572D01*
X5735143Y-17824429D01*
X5735143Y-17753000D01*
X5749428Y-17695857D01*
X5763714Y-17667286D01*
X5778000Y-17653000D01*
X5806571Y-17638714D01*
X6035143Y-17938714D02*
X6035143Y-17738714D01*
X6035143Y-17767286D02*
X6049428Y-17753000D01*
X6078000Y-17738714D01*
X6120857Y-17738714D01*
X6149428Y-17753000D01*
X6163714Y-17781572D01*
X6163714Y-17938714D01*
X6163714Y-17781572D02*
X6178000Y-17753000D01*
X6206571Y-17738714D01*
X6249428Y-17738714D01*
X6278000Y-17753000D01*
X6292286Y-17781572D01*
X6292286Y-17938714D01*
X6435143Y-17938714D02*
X6435143Y-17738714D01*
X6435143Y-17767286D02*
X6449428Y-17753000D01*
X6478000Y-17738714D01*
X6520857Y-17738714D01*
X6549428Y-17753000D01*
X6563714Y-17781572D01*
X6563714Y-17938714D01*
X6563714Y-17781572D02*
X6578000Y-17753000D01*
X6606571Y-17738714D01*
X6649428Y-17738714D01*
X6678000Y-17753000D01*
X6692286Y-17781572D01*
X6692286Y-17938714D01*
X7278000Y-17624429D02*
X7020857Y-18010143D01*
X7663714Y-17638714D02*
X7692286Y-17638714D01*
X7720857Y-17653000D01*
X7735143Y-17667286D01*
X7749428Y-17695857D01*
X7763714Y-17753000D01*
X7763714Y-17824429D01*
X7749428Y-17881572D01*
X7735143Y-17910143D01*
X7720857Y-17924429D01*
X7692286Y-17938714D01*
X7663714Y-17938714D01*
X7635143Y-17924429D01*
X7620857Y-17910143D01*
X7606571Y-17881572D01*
X7592286Y-17824429D01*
X7592286Y-17753000D01*
X7606571Y-17695857D01*
X7620857Y-17667286D01*
X7635143Y-17653000D01*
X7663714Y-17638714D01*
X7892286Y-17910143D02*
X7906571Y-17924429D01*
X7892286Y-17938714D01*
X7878000Y-17924429D01*
X7892286Y-17910143D01*
X7892286Y-17938714D01*
X8092286Y-17638714D02*
X8120857Y-17638714D01*
X8149428Y-17653000D01*
X8163714Y-17667286D01*
X8178000Y-17695857D01*
X8192286Y-17753000D01*
X8192286Y-17824429D01*
X8178000Y-17881572D01*
X8163714Y-17910143D01*
X8149428Y-17924429D01*
X8120857Y-17938714D01*
X8092286Y-17938714D01*
X8063714Y-17924429D01*
X8049428Y-17910143D01*
X8035143Y-17881572D01*
X8020857Y-17824429D01*
X8020857Y-17753000D01*
X8035143Y-17695857D01*
X8049428Y-17667286D01*
X8063714Y-17653000D01*
X8092286Y-17638714D01*
X8292286Y-17638714D02*
X8478000Y-17638714D01*
X8378000Y-17753000D01*
X8420857Y-17753000D01*
X8449428Y-17767286D01*
X8463714Y-17781572D01*
X8478000Y-17810143D01*
X8478000Y-17881572D01*
X8463714Y-17910143D01*
X8449428Y-17924429D01*
X8420857Y-17938714D01*
X8335143Y-17938714D01*
X8306571Y-17924429D01*
X8292286Y-17910143D01*
X8749428Y-17638714D02*
X8606571Y-17638714D01*
X8592286Y-17781572D01*
X8606571Y-17767286D01*
X8635143Y-17753000D01*
X8706571Y-17753000D01*
X8735143Y-17767286D01*
X8749428Y-17781572D01*
X8763714Y-17810143D01*
X8763714Y-17881572D01*
X8749428Y-17910143D01*
X8735143Y-17924429D01*
X8706571Y-17938714D01*
X8635143Y-17938714D01*
X8606571Y-17924429D01*
X8592286Y-17910143D01*
X8949428Y-17638714D02*
X8978000Y-17638714D01*
X9006571Y-17653000D01*
X9020857Y-17667286D01*
X9035143Y-17695857D01*
X9049428Y-17753000D01*
X9049428Y-17824429D01*
X9035143Y-17881572D01*
X9020857Y-17910143D01*
X9006571Y-17924429D01*
X8978000Y-17938714D01*
X8949428Y-17938714D01*
X8920857Y-17924429D01*
X8906571Y-17910143D01*
X8892286Y-17881572D01*
X8878000Y-17824429D01*
X8878000Y-17753000D01*
X8892286Y-17695857D01*
X8906571Y-17667286D01*
X8920857Y-17653000D01*
X8949428Y-17638714D01*
X9163714Y-17638714D02*
X9163714Y-17695857D01*
X9278000Y-17638714D02*
X9278000Y-17695857D01*
X9720857Y-18053000D02*
X9706571Y-18038714D01*
X9678000Y-17995857D01*
X9663714Y-17967286D01*
X9649428Y-17924429D01*
X9635143Y-17853000D01*
X9635143Y-17795857D01*
X9649428Y-17724429D01*
X9663714Y-17681572D01*
X9678000Y-17653000D01*
X9706571Y-17610143D01*
X9720857Y-17595857D01*
X9820857Y-17667286D02*
X9835143Y-17653000D01*
X9863714Y-17638714D01*
X9935143Y-17638714D01*
X9963714Y-17653000D01*
X9978000Y-17667286D01*
X9992286Y-17695857D01*
X9992286Y-17724429D01*
X9978000Y-17767286D01*
X9806571Y-17938714D01*
X9992286Y-17938714D01*
X10249428Y-17738714D02*
X10249428Y-17938714D01*
X10178000Y-17624429D02*
X10106571Y-17838714D01*
X10292286Y-17838714D01*
X10635143Y-17938714D02*
X10635143Y-17638714D01*
X10763714Y-17938714D02*
X10763714Y-17781572D01*
X10749428Y-17753000D01*
X10720857Y-17738714D01*
X10678000Y-17738714D01*
X10649428Y-17753000D01*
X10635143Y-17767286D01*
X10949428Y-17938714D02*
X10920857Y-17924429D01*
X10906571Y-17910143D01*
X10892286Y-17881572D01*
X10892286Y-17795857D01*
X10906571Y-17767286D01*
X10920857Y-17753000D01*
X10949428Y-17738714D01*
X10992286Y-17738714D01*
X11020857Y-17753000D01*
X11035143Y-17767286D01*
X11049428Y-17795857D01*
X11049428Y-17881572D01*
X11035143Y-17910143D01*
X11020857Y-17924429D01*
X10992286Y-17938714D01*
X10949428Y-17938714D01*
X11220857Y-17938714D02*
X11192286Y-17924429D01*
X11178000Y-17895857D01*
X11178000Y-17638714D01*
X11449428Y-17924429D02*
X11420857Y-17938714D01*
X11363714Y-17938714D01*
X11335143Y-17924429D01*
X11320857Y-17895857D01*
X11320857Y-17781572D01*
X11335143Y-17753000D01*
X11363714Y-17738714D01*
X11420857Y-17738714D01*
X11449428Y-17753000D01*
X11463714Y-17781572D01*
X11463714Y-17810143D01*
X11320857Y-17838714D01*
X11578000Y-17924429D02*
X11606571Y-17938714D01*
X11663714Y-17938714D01*
X11692286Y-17924429D01*
X11706571Y-17895857D01*
X11706571Y-17881572D01*
X11692286Y-17853000D01*
X11663714Y-17838714D01*
X11620857Y-17838714D01*
X11592286Y-17824429D01*
X11578000Y-17795857D01*
X11578000Y-17781572D01*
X11592286Y-17753000D01*
X11620857Y-17738714D01*
X11663714Y-17738714D01*
X11692286Y-17753000D01*
X11806571Y-18053000D02*
X11820857Y-18038714D01*
X11849428Y-17995857D01*
X11863714Y-17967286D01*
X11878000Y-17924429D01*
X11892286Y-17853000D01*
X11892286Y-17795857D01*
X11878000Y-17724429D01*
X11863714Y-17681572D01*
X11849428Y-17653000D01*
X11820857Y-17610143D01*
X11806571Y-17595857D01*
X4448356Y-18234356D02*
X4448356Y-18163644D01*
X4377644Y-18163644D01*
X4377644Y-18234356D01*
X4448356Y-18234356D01*
X4906571Y-18334714D02*
X4735143Y-18334714D01*
X4820857Y-18334714D02*
X4820857Y-18034714D01*
X4792286Y-18077572D01*
X4763714Y-18106143D01*
X4735143Y-18120429D01*
X5035143Y-18306143D02*
X5049428Y-18320429D01*
X5035143Y-18334714D01*
X5020857Y-18320429D01*
X5035143Y-18306143D01*
X5035143Y-18334714D01*
X5235143Y-18034714D02*
X5263714Y-18034714D01*
X5292286Y-18049000D01*
X5306571Y-18063286D01*
X5320857Y-18091857D01*
X5335143Y-18149000D01*
X5335143Y-18220429D01*
X5320857Y-18277572D01*
X5306571Y-18306143D01*
X5292286Y-18320429D01*
X5263714Y-18334714D01*
X5235143Y-18334714D01*
X5206571Y-18320429D01*
X5192286Y-18306143D01*
X5178000Y-18277572D01*
X5163714Y-18220429D01*
X5163714Y-18149000D01*
X5178000Y-18091857D01*
X5192286Y-18063286D01*
X5206571Y-18049000D01*
X5235143Y-18034714D01*
X5520857Y-18034714D02*
X5549428Y-18034714D01*
X5578000Y-18049000D01*
X5592286Y-18063286D01*
X5606571Y-18091857D01*
X5620857Y-18149000D01*
X5620857Y-18220429D01*
X5606571Y-18277572D01*
X5592286Y-18306143D01*
X5578000Y-18320429D01*
X5549428Y-18334714D01*
X5520857Y-18334714D01*
X5492286Y-18320429D01*
X5478000Y-18306143D01*
X5463714Y-18277572D01*
X5449428Y-18220429D01*
X5449428Y-18149000D01*
X5463714Y-18091857D01*
X5478000Y-18063286D01*
X5492286Y-18049000D01*
X5520857Y-18034714D01*
X5806571Y-18034714D02*
X5835143Y-18034714D01*
X5863714Y-18049000D01*
X5878000Y-18063286D01*
X5892286Y-18091857D01*
X5906571Y-18149000D01*
X5906571Y-18220429D01*
X5892286Y-18277572D01*
X5878000Y-18306143D01*
X5863714Y-18320429D01*
X5835143Y-18334714D01*
X5806571Y-18334714D01*
X5778000Y-18320429D01*
X5763714Y-18306143D01*
X5749428Y-18277572D01*
X5735143Y-18220429D01*
X5735143Y-18149000D01*
X5749428Y-18091857D01*
X5763714Y-18063286D01*
X5778000Y-18049000D01*
X5806571Y-18034714D01*
X6035143Y-18334714D02*
X6035143Y-18134714D01*
X6035143Y-18163286D02*
X6049428Y-18149000D01*
X6078000Y-18134714D01*
X6120857Y-18134714D01*
X6149428Y-18149000D01*
X6163714Y-18177572D01*
X6163714Y-18334714D01*
X6163714Y-18177572D02*
X6178000Y-18149000D01*
X6206571Y-18134714D01*
X6249428Y-18134714D01*
X6278000Y-18149000D01*
X6292286Y-18177572D01*
X6292286Y-18334714D01*
X6435143Y-18334714D02*
X6435143Y-18134714D01*
X6435143Y-18163286D02*
X6449428Y-18149000D01*
X6478000Y-18134714D01*
X6520857Y-18134714D01*
X6549428Y-18149000D01*
X6563714Y-18177572D01*
X6563714Y-18334714D01*
X6563714Y-18177572D02*
X6578000Y-18149000D01*
X6606571Y-18134714D01*
X6649428Y-18134714D01*
X6678000Y-18149000D01*
X6692286Y-18177572D01*
X6692286Y-18334714D01*
X7278000Y-18020429D02*
X7020857Y-18406143D01*
X7663714Y-18034714D02*
X7692286Y-18034714D01*
X7720857Y-18049000D01*
X7735143Y-18063286D01*
X7749428Y-18091857D01*
X7763714Y-18149000D01*
X7763714Y-18220429D01*
X7749428Y-18277572D01*
X7735143Y-18306143D01*
X7720857Y-18320429D01*
X7692286Y-18334714D01*
X7663714Y-18334714D01*
X7635143Y-18320429D01*
X7620857Y-18306143D01*
X7606571Y-18277572D01*
X7592286Y-18220429D01*
X7592286Y-18149000D01*
X7606571Y-18091857D01*
X7620857Y-18063286D01*
X7635143Y-18049000D01*
X7663714Y-18034714D01*
X7892286Y-18306143D02*
X7906571Y-18320429D01*
X7892286Y-18334714D01*
X7878000Y-18320429D01*
X7892286Y-18306143D01*
X7892286Y-18334714D01*
X8092286Y-18034714D02*
X8120857Y-18034714D01*
X8149428Y-18049000D01*
X8163714Y-18063286D01*
X8178000Y-18091857D01*
X8192286Y-18149000D01*
X8192286Y-18220429D01*
X8178000Y-18277572D01*
X8163714Y-18306143D01*
X8149428Y-18320429D01*
X8120857Y-18334714D01*
X8092286Y-18334714D01*
X8063714Y-18320429D01*
X8049428Y-18306143D01*
X8035143Y-18277572D01*
X8020857Y-18220429D01*
X8020857Y-18149000D01*
X8035143Y-18091857D01*
X8049428Y-18063286D01*
X8063714Y-18049000D01*
X8092286Y-18034714D01*
X8292286Y-18034714D02*
X8478000Y-18034714D01*
X8378000Y-18149000D01*
X8420857Y-18149000D01*
X8449428Y-18163286D01*
X8463714Y-18177572D01*
X8478000Y-18206143D01*
X8478000Y-18277572D01*
X8463714Y-18306143D01*
X8449428Y-18320429D01*
X8420857Y-18334714D01*
X8335143Y-18334714D01*
X8306571Y-18320429D01*
X8292286Y-18306143D01*
X8620857Y-18334714D02*
X8678000Y-18334714D01*
X8706571Y-18320429D01*
X8720857Y-18306143D01*
X8749428Y-18263286D01*
X8763714Y-18206143D01*
X8763714Y-18091857D01*
X8749428Y-18063286D01*
X8735143Y-18049000D01*
X8706571Y-18034714D01*
X8649428Y-18034714D01*
X8620857Y-18049000D01*
X8606571Y-18063286D01*
X8592286Y-18091857D01*
X8592286Y-18163286D01*
X8606571Y-18191857D01*
X8620857Y-18206143D01*
X8649428Y-18220429D01*
X8706571Y-18220429D01*
X8735143Y-18206143D01*
X8749428Y-18191857D01*
X8763714Y-18163286D01*
X9020857Y-18134714D02*
X9020857Y-18334714D01*
X8949428Y-18020429D02*
X8878000Y-18234714D01*
X9063714Y-18234714D01*
X9163714Y-18034714D02*
X9163714Y-18091857D01*
X9278000Y-18034714D02*
X9278000Y-18091857D01*
X9720857Y-18449000D02*
X9706571Y-18434714D01*
X9678000Y-18391857D01*
X9663714Y-18363286D01*
X9649428Y-18320429D01*
X9635143Y-18249000D01*
X9635143Y-18191857D01*
X9649428Y-18120429D01*
X9663714Y-18077572D01*
X9678000Y-18049000D01*
X9706571Y-18006143D01*
X9720857Y-17991857D01*
X9849428Y-18334714D02*
X9906571Y-18334714D01*
X9935143Y-18320429D01*
X9949428Y-18306143D01*
X9978000Y-18263286D01*
X9992286Y-18206143D01*
X9992286Y-18091857D01*
X9978000Y-18063286D01*
X9963714Y-18049000D01*
X9935143Y-18034714D01*
X9878000Y-18034714D01*
X9849428Y-18049000D01*
X9835143Y-18063286D01*
X9820857Y-18091857D01*
X9820857Y-18163286D01*
X9835143Y-18191857D01*
X9849428Y-18206143D01*
X9878000Y-18220429D01*
X9935143Y-18220429D01*
X9963714Y-18206143D01*
X9978000Y-18191857D01*
X9992286Y-18163286D01*
X10349428Y-18334714D02*
X10349428Y-18034714D01*
X10478000Y-18334714D02*
X10478000Y-18177572D01*
X10463714Y-18149000D01*
X10435143Y-18134714D01*
X10392286Y-18134714D01*
X10363714Y-18149000D01*
X10349428Y-18163286D01*
X10663714Y-18334714D02*
X10635143Y-18320429D01*
X10620857Y-18306143D01*
X10606571Y-18277572D01*
X10606571Y-18191857D01*
X10620857Y-18163286D01*
X10635143Y-18149000D01*
X10663714Y-18134714D01*
X10706571Y-18134714D01*
X10735143Y-18149000D01*
X10749428Y-18163286D01*
X10763714Y-18191857D01*
X10763714Y-18277572D01*
X10749428Y-18306143D01*
X10735143Y-18320429D01*
X10706571Y-18334714D01*
X10663714Y-18334714D01*
X10935143Y-18334714D02*
X10906571Y-18320429D01*
X10892286Y-18291857D01*
X10892286Y-18034714D01*
X11163714Y-18320429D02*
X11135143Y-18334714D01*
X11078000Y-18334714D01*
X11049428Y-18320429D01*
X11035143Y-18291857D01*
X11035143Y-18177572D01*
X11049428Y-18149000D01*
X11078000Y-18134714D01*
X11135143Y-18134714D01*
X11163714Y-18149000D01*
X11178000Y-18177572D01*
X11178000Y-18206143D01*
X11035143Y-18234714D01*
X11292286Y-18320429D02*
X11320857Y-18334714D01*
X11378000Y-18334714D01*
X11406571Y-18320429D01*
X11420857Y-18291857D01*
X11420857Y-18277572D01*
X11406571Y-18249000D01*
X11378000Y-18234714D01*
X11335143Y-18234714D01*
X11306571Y-18220429D01*
X11292286Y-18191857D01*
X11292286Y-18177572D01*
X11306571Y-18149000D01*
X11335143Y-18134714D01*
X11378000Y-18134714D01*
X11406571Y-18149000D01*
X11520857Y-18449000D02*
X11535143Y-18434714D01*
X11563714Y-18391857D01*
X11578000Y-18363286D01*
X11592286Y-18320429D01*
X11606571Y-18249000D01*
X11606571Y-18191857D01*
X11592286Y-18120429D01*
X11578000Y-18077572D01*
X11563714Y-18049000D01*
X11535143Y-18006143D01*
X11520857Y-17991857D01*
X4408000Y-18650000D02*
X4463000Y-18595000D01*
X4408000Y-18540000D01*
X4353000Y-18595000D01*
X4408000Y-18650000D01*
X4906571Y-18730714D02*
X4735143Y-18730714D01*
X4820857Y-18730714D02*
X4820857Y-18430714D01*
X4792286Y-18473572D01*
X4763714Y-18502143D01*
X4735143Y-18516429D01*
X5035143Y-18702143D02*
X5049428Y-18716429D01*
X5035143Y-18730714D01*
X5020857Y-18716429D01*
X5035143Y-18702143D01*
X5035143Y-18730714D01*
X5335143Y-18730714D02*
X5163714Y-18730714D01*
X5249428Y-18730714D02*
X5249428Y-18430714D01*
X5220857Y-18473572D01*
X5192286Y-18502143D01*
X5163714Y-18516429D01*
X5520857Y-18430714D02*
X5549428Y-18430714D01*
X5578000Y-18445000D01*
X5592286Y-18459286D01*
X5606571Y-18487857D01*
X5620857Y-18545000D01*
X5620857Y-18616429D01*
X5606571Y-18673572D01*
X5592286Y-18702143D01*
X5578000Y-18716429D01*
X5549428Y-18730714D01*
X5520857Y-18730714D01*
X5492286Y-18716429D01*
X5478000Y-18702143D01*
X5463714Y-18673572D01*
X5449428Y-18616429D01*
X5449428Y-18545000D01*
X5463714Y-18487857D01*
X5478000Y-18459286D01*
X5492286Y-18445000D01*
X5520857Y-18430714D01*
X5806571Y-18430714D02*
X5835143Y-18430714D01*
X5863714Y-18445000D01*
X5878000Y-18459286D01*
X5892286Y-18487857D01*
X5906571Y-18545000D01*
X5906571Y-18616429D01*
X5892286Y-18673572D01*
X5878000Y-18702143D01*
X5863714Y-18716429D01*
X5835143Y-18730714D01*
X5806571Y-18730714D01*
X5778000Y-18716429D01*
X5763714Y-18702143D01*
X5749428Y-18673572D01*
X5735143Y-18616429D01*
X5735143Y-18545000D01*
X5749428Y-18487857D01*
X5763714Y-18459286D01*
X5778000Y-18445000D01*
X5806571Y-18430714D01*
X6035143Y-18730714D02*
X6035143Y-18530714D01*
X6035143Y-18559286D02*
X6049428Y-18545000D01*
X6078000Y-18530714D01*
X6120857Y-18530714D01*
X6149428Y-18545000D01*
X6163714Y-18573572D01*
X6163714Y-18730714D01*
X6163714Y-18573572D02*
X6178000Y-18545000D01*
X6206571Y-18530714D01*
X6249428Y-18530714D01*
X6278000Y-18545000D01*
X6292286Y-18573572D01*
X6292286Y-18730714D01*
X6435143Y-18730714D02*
X6435143Y-18530714D01*
X6435143Y-18559286D02*
X6449428Y-18545000D01*
X6478000Y-18530714D01*
X6520857Y-18530714D01*
X6549428Y-18545000D01*
X6563714Y-18573572D01*
X6563714Y-18730714D01*
X6563714Y-18573572D02*
X6578000Y-18545000D01*
X6606571Y-18530714D01*
X6649428Y-18530714D01*
X6678000Y-18545000D01*
X6692286Y-18573572D01*
X6692286Y-18730714D01*
X7278000Y-18416429D02*
X7020857Y-18802143D01*
X7663714Y-18430714D02*
X7692286Y-18430714D01*
X7720857Y-18445000D01*
X7735143Y-18459286D01*
X7749428Y-18487857D01*
X7763714Y-18545000D01*
X7763714Y-18616429D01*
X7749428Y-18673572D01*
X7735143Y-18702143D01*
X7720857Y-18716429D01*
X7692286Y-18730714D01*
X7663714Y-18730714D01*
X7635143Y-18716429D01*
X7620857Y-18702143D01*
X7606571Y-18673572D01*
X7592286Y-18616429D01*
X7592286Y-18545000D01*
X7606571Y-18487857D01*
X7620857Y-18459286D01*
X7635143Y-18445000D01*
X7663714Y-18430714D01*
X7892286Y-18702143D02*
X7906571Y-18716429D01*
X7892286Y-18730714D01*
X7878000Y-18716429D01*
X7892286Y-18702143D01*
X7892286Y-18730714D01*
X8092286Y-18430714D02*
X8120857Y-18430714D01*
X8149428Y-18445000D01*
X8163714Y-18459286D01*
X8178000Y-18487857D01*
X8192286Y-18545000D01*
X8192286Y-18616429D01*
X8178000Y-18673572D01*
X8163714Y-18702143D01*
X8149428Y-18716429D01*
X8120857Y-18730714D01*
X8092286Y-18730714D01*
X8063714Y-18716429D01*
X8049428Y-18702143D01*
X8035143Y-18673572D01*
X8020857Y-18616429D01*
X8020857Y-18545000D01*
X8035143Y-18487857D01*
X8049428Y-18459286D01*
X8063714Y-18445000D01*
X8092286Y-18430714D01*
X8449428Y-18530714D02*
X8449428Y-18730714D01*
X8378000Y-18416429D02*
X8306571Y-18630714D01*
X8492286Y-18630714D01*
X8578000Y-18430714D02*
X8763714Y-18430714D01*
X8663714Y-18545000D01*
X8706571Y-18545000D01*
X8735143Y-18559286D01*
X8749428Y-18573572D01*
X8763714Y-18602143D01*
X8763714Y-18673572D01*
X8749428Y-18702143D01*
X8735143Y-18716429D01*
X8706571Y-18730714D01*
X8620857Y-18730714D01*
X8592286Y-18716429D01*
X8578000Y-18702143D01*
X8863714Y-18430714D02*
X9049428Y-18430714D01*
X8949428Y-18545000D01*
X8992286Y-18545000D01*
X9020857Y-18559286D01*
X9035143Y-18573572D01*
X9049428Y-18602143D01*
X9049428Y-18673572D01*
X9035143Y-18702143D01*
X9020857Y-18716429D01*
X8992286Y-18730714D01*
X8906571Y-18730714D01*
X8878000Y-18716429D01*
X8863714Y-18702143D01*
X9163714Y-18430714D02*
X9163714Y-18487857D01*
X9278000Y-18430714D02*
X9278000Y-18487857D01*
X9720857Y-18845000D02*
X9706571Y-18830714D01*
X9678000Y-18787857D01*
X9663714Y-18759286D01*
X9649428Y-18716429D01*
X9635143Y-18645000D01*
X9635143Y-18587857D01*
X9649428Y-18516429D01*
X9663714Y-18473572D01*
X9678000Y-18445000D01*
X9706571Y-18402143D01*
X9720857Y-18387857D01*
X9806571Y-18430714D02*
X9992286Y-18430714D01*
X9892286Y-18545000D01*
X9935143Y-18545000D01*
X9963714Y-18559286D01*
X9978000Y-18573572D01*
X9992286Y-18602143D01*
X9992286Y-18673572D01*
X9978000Y-18702143D01*
X9963714Y-18716429D01*
X9935143Y-18730714D01*
X9849428Y-18730714D01*
X9820857Y-18716429D01*
X9806571Y-18702143D01*
X10349428Y-18730714D02*
X10349428Y-18430714D01*
X10478000Y-18730714D02*
X10478000Y-18573572D01*
X10463714Y-18545000D01*
X10435143Y-18530714D01*
X10392286Y-18530714D01*
X10363714Y-18545000D01*
X10349428Y-18559286D01*
X10663714Y-18730714D02*
X10635143Y-18716429D01*
X10620857Y-18702143D01*
X10606571Y-18673572D01*
X10606571Y-18587857D01*
X10620857Y-18559286D01*
X10635143Y-18545000D01*
X10663714Y-18530714D01*
X10706571Y-18530714D01*
X10735143Y-18545000D01*
X10749428Y-18559286D01*
X10763714Y-18587857D01*
X10763714Y-18673572D01*
X10749428Y-18702143D01*
X10735143Y-18716429D01*
X10706571Y-18730714D01*
X10663714Y-18730714D01*
X10935143Y-18730714D02*
X10906571Y-18716429D01*
X10892286Y-18687857D01*
X10892286Y-18430714D01*
X11163714Y-18716429D02*
X11135143Y-18730714D01*
X11078000Y-18730714D01*
X11049428Y-18716429D01*
X11035143Y-18687857D01*
X11035143Y-18573572D01*
X11049428Y-18545000D01*
X11078000Y-18530714D01*
X11135143Y-18530714D01*
X11163714Y-18545000D01*
X11178000Y-18573572D01*
X11178000Y-18602143D01*
X11035143Y-18630714D01*
X11292286Y-18716429D02*
X11320857Y-18730714D01*
X11378000Y-18730714D01*
X11406571Y-18716429D01*
X11420857Y-18687857D01*
X11420857Y-18673572D01*
X11406571Y-18645000D01*
X11378000Y-18630714D01*
X11335143Y-18630714D01*
X11306571Y-18616429D01*
X11292286Y-18587857D01*
X11292286Y-18573572D01*
X11306571Y-18545000D01*
X11335143Y-18530714D01*
X11378000Y-18530714D01*
X11406571Y-18545000D01*
X11520857Y-18845000D02*
X11535143Y-18830714D01*
X11563714Y-18787857D01*
X11578000Y-18759286D01*
X11592286Y-18716429D01*
X11606571Y-18645000D01*
X11606571Y-18587857D01*
X11592286Y-18516429D01*
X11578000Y-18473572D01*
X11563714Y-18445000D01*
X11535143Y-18402143D01*
X11520857Y-18387857D01*
X4306000Y-18912500D02*
X4463000Y-19069500D01*
X4463000Y-18912500D02*
X4306000Y-19069500D01*
X4463000Y-18991000D02*
G75*
G03*
X4463000Y-18991000I-78500J0D01*
G01*
X4906571Y-19126714D02*
X4735143Y-19126714D01*
X4820857Y-19126714D02*
X4820857Y-18826714D01*
X4792286Y-18869572D01*
X4763714Y-18898143D01*
X4735143Y-18912429D01*
X5035143Y-19098143D02*
X5049428Y-19112429D01*
X5035143Y-19126714D01*
X5020857Y-19112429D01*
X5035143Y-19098143D01*
X5035143Y-19126714D01*
X5320857Y-18826714D02*
X5178000Y-18826714D01*
X5163714Y-18969572D01*
X5178000Y-18955286D01*
X5206571Y-18941000D01*
X5278000Y-18941000D01*
X5306571Y-18955286D01*
X5320857Y-18969572D01*
X5335143Y-18998143D01*
X5335143Y-19069572D01*
X5320857Y-19098143D01*
X5306571Y-19112429D01*
X5278000Y-19126714D01*
X5206571Y-19126714D01*
X5178000Y-19112429D01*
X5163714Y-19098143D01*
X5435143Y-18826714D02*
X5635143Y-18826714D01*
X5506571Y-19126714D01*
X5806571Y-18826714D02*
X5835143Y-18826714D01*
X5863714Y-18841000D01*
X5878000Y-18855286D01*
X5892286Y-18883857D01*
X5906571Y-18941000D01*
X5906571Y-19012429D01*
X5892286Y-19069572D01*
X5878000Y-19098143D01*
X5863714Y-19112429D01*
X5835143Y-19126714D01*
X5806571Y-19126714D01*
X5778000Y-19112429D01*
X5763714Y-19098143D01*
X5749428Y-19069572D01*
X5735143Y-19012429D01*
X5735143Y-18941000D01*
X5749428Y-18883857D01*
X5763714Y-18855286D01*
X5778000Y-18841000D01*
X5806571Y-18826714D01*
X6035143Y-19126714D02*
X6035143Y-18926714D01*
X6035143Y-18955286D02*
X6049428Y-18941000D01*
X6078000Y-18926714D01*
X6120857Y-18926714D01*
X6149428Y-18941000D01*
X6163714Y-18969572D01*
X6163714Y-19126714D01*
X6163714Y-18969572D02*
X6178000Y-18941000D01*
X6206571Y-18926714D01*
X6249428Y-18926714D01*
X6278000Y-18941000D01*
X6292286Y-18969572D01*
X6292286Y-19126714D01*
X6435143Y-19126714D02*
X6435143Y-18926714D01*
X6435143Y-18955286D02*
X6449428Y-18941000D01*
X6478000Y-18926714D01*
X6520857Y-18926714D01*
X6549428Y-18941000D01*
X6563714Y-18969572D01*
X6563714Y-19126714D01*
X6563714Y-18969572D02*
X6578000Y-18941000D01*
X6606571Y-18926714D01*
X6649428Y-18926714D01*
X6678000Y-18941000D01*
X6692286Y-18969572D01*
X6692286Y-19126714D01*
X7278000Y-18812429D02*
X7020857Y-19198143D01*
X7663714Y-18826714D02*
X7692286Y-18826714D01*
X7720857Y-18841000D01*
X7735143Y-18855286D01*
X7749428Y-18883857D01*
X7763714Y-18941000D01*
X7763714Y-19012429D01*
X7749428Y-19069572D01*
X7735143Y-19098143D01*
X7720857Y-19112429D01*
X7692286Y-19126714D01*
X7663714Y-19126714D01*
X7635143Y-19112429D01*
X7620857Y-19098143D01*
X7606571Y-19069572D01*
X7592286Y-19012429D01*
X7592286Y-18941000D01*
X7606571Y-18883857D01*
X7620857Y-18855286D01*
X7635143Y-18841000D01*
X7663714Y-18826714D01*
X7892286Y-19098143D02*
X7906571Y-19112429D01*
X7892286Y-19126714D01*
X7878000Y-19112429D01*
X7892286Y-19098143D01*
X7892286Y-19126714D01*
X8092286Y-18826714D02*
X8120857Y-18826714D01*
X8149428Y-18841000D01*
X8163714Y-18855286D01*
X8178000Y-18883857D01*
X8192286Y-18941000D01*
X8192286Y-19012429D01*
X8178000Y-19069572D01*
X8163714Y-19098143D01*
X8149428Y-19112429D01*
X8120857Y-19126714D01*
X8092286Y-19126714D01*
X8063714Y-19112429D01*
X8049428Y-19098143D01*
X8035143Y-19069572D01*
X8020857Y-19012429D01*
X8020857Y-18941000D01*
X8035143Y-18883857D01*
X8049428Y-18855286D01*
X8063714Y-18841000D01*
X8092286Y-18826714D01*
X8449428Y-18826714D02*
X8392286Y-18826714D01*
X8363714Y-18841000D01*
X8349428Y-18855286D01*
X8320857Y-18898143D01*
X8306571Y-18955286D01*
X8306571Y-19069572D01*
X8320857Y-19098143D01*
X8335143Y-19112429D01*
X8363714Y-19126714D01*
X8420857Y-19126714D01*
X8449428Y-19112429D01*
X8463714Y-19098143D01*
X8478000Y-19069572D01*
X8478000Y-18998143D01*
X8463714Y-18969572D01*
X8449428Y-18955286D01*
X8420857Y-18941000D01*
X8363714Y-18941000D01*
X8335143Y-18955286D01*
X8320857Y-18969572D01*
X8306571Y-18998143D01*
X8763714Y-19126714D02*
X8592286Y-19126714D01*
X8678000Y-19126714D02*
X8678000Y-18826714D01*
X8649428Y-18869572D01*
X8620857Y-18898143D01*
X8592286Y-18912429D01*
X8935143Y-18955286D02*
X8906571Y-18941000D01*
X8892286Y-18926714D01*
X8878000Y-18898143D01*
X8878000Y-18883857D01*
X8892286Y-18855286D01*
X8906571Y-18841000D01*
X8935143Y-18826714D01*
X8992286Y-18826714D01*
X9020857Y-18841000D01*
X9035143Y-18855286D01*
X9049428Y-18883857D01*
X9049428Y-18898143D01*
X9035143Y-18926714D01*
X9020857Y-18941000D01*
X8992286Y-18955286D01*
X8935143Y-18955286D01*
X8906571Y-18969572D01*
X8892286Y-18983857D01*
X8878000Y-19012429D01*
X8878000Y-19069572D01*
X8892286Y-19098143D01*
X8906571Y-19112429D01*
X8935143Y-19126714D01*
X8992286Y-19126714D01*
X9020857Y-19112429D01*
X9035143Y-19098143D01*
X9049428Y-19069572D01*
X9049428Y-19012429D01*
X9035143Y-18983857D01*
X9020857Y-18969572D01*
X8992286Y-18955286D01*
X9163714Y-18826714D02*
X9163714Y-18883857D01*
X9278000Y-18826714D02*
X9278000Y-18883857D01*
X9720857Y-19241000D02*
X9706571Y-19226714D01*
X9678000Y-19183857D01*
X9663714Y-19155286D01*
X9649428Y-19112429D01*
X9635143Y-19041000D01*
X9635143Y-18983857D01*
X9649428Y-18912429D01*
X9663714Y-18869572D01*
X9678000Y-18841000D01*
X9706571Y-18798143D01*
X9720857Y-18783857D01*
X9963714Y-18926714D02*
X9963714Y-19126714D01*
X9892286Y-18812429D02*
X9820857Y-19026714D01*
X10006571Y-19026714D01*
X10349428Y-19126714D02*
X10349428Y-18826714D01*
X10478000Y-19126714D02*
X10478000Y-18969572D01*
X10463714Y-18941000D01*
X10435143Y-18926714D01*
X10392286Y-18926714D01*
X10363714Y-18941000D01*
X10349428Y-18955286D01*
X10663714Y-19126714D02*
X10635143Y-19112429D01*
X10620857Y-19098143D01*
X10606571Y-19069572D01*
X10606571Y-18983857D01*
X10620857Y-18955286D01*
X10635143Y-18941000D01*
X10663714Y-18926714D01*
X10706571Y-18926714D01*
X10735143Y-18941000D01*
X10749428Y-18955286D01*
X10763714Y-18983857D01*
X10763714Y-19069572D01*
X10749428Y-19098143D01*
X10735143Y-19112429D01*
X10706571Y-19126714D01*
X10663714Y-19126714D01*
X10935143Y-19126714D02*
X10906571Y-19112429D01*
X10892286Y-19083857D01*
X10892286Y-18826714D01*
X11163714Y-19112429D02*
X11135143Y-19126714D01*
X11078000Y-19126714D01*
X11049428Y-19112429D01*
X11035143Y-19083857D01*
X11035143Y-18969572D01*
X11049428Y-18941000D01*
X11078000Y-18926714D01*
X11135143Y-18926714D01*
X11163714Y-18941000D01*
X11178000Y-18969572D01*
X11178000Y-18998143D01*
X11035143Y-19026714D01*
X11292286Y-19112429D02*
X11320857Y-19126714D01*
X11378000Y-19126714D01*
X11406571Y-19112429D01*
X11420857Y-19083857D01*
X11420857Y-19069572D01*
X11406571Y-19041000D01*
X11378000Y-19026714D01*
X11335143Y-19026714D01*
X11306571Y-19012429D01*
X11292286Y-18983857D01*
X11292286Y-18969572D01*
X11306571Y-18941000D01*
X11335143Y-18926714D01*
X11378000Y-18926714D01*
X11406571Y-18941000D01*
X11520857Y-19241000D02*
X11535143Y-19226714D01*
X11563714Y-19183857D01*
X11578000Y-19155286D01*
X11592286Y-19112429D01*
X11606571Y-19041000D01*
X11606571Y-18983857D01*
X11592286Y-18912429D01*
X11578000Y-18869572D01*
X11563714Y-18841000D01*
X11535143Y-18798143D01*
X11520857Y-18783857D01*
X4303000Y-19307000D02*
X4463000Y-19467000D01*
X4463000Y-19307000D02*
X4303000Y-19467000D01*
X4383000Y-19307000D02*
X4383000Y-19467000D01*
X4303000Y-19387000D02*
X4463000Y-19387000D01*
X4906571Y-19522714D02*
X4735143Y-19522714D01*
X4820857Y-19522714D02*
X4820857Y-19222714D01*
X4792286Y-19265572D01*
X4763714Y-19294143D01*
X4735143Y-19308429D01*
X5035143Y-19494143D02*
X5049428Y-19508429D01*
X5035143Y-19522714D01*
X5020857Y-19508429D01*
X5035143Y-19494143D01*
X5035143Y-19522714D01*
X5306571Y-19222714D02*
X5249428Y-19222714D01*
X5220857Y-19237000D01*
X5206571Y-19251286D01*
X5178000Y-19294143D01*
X5163714Y-19351286D01*
X5163714Y-19465572D01*
X5178000Y-19494143D01*
X5192286Y-19508429D01*
X5220857Y-19522714D01*
X5278000Y-19522714D01*
X5306571Y-19508429D01*
X5320857Y-19494143D01*
X5335143Y-19465572D01*
X5335143Y-19394143D01*
X5320857Y-19365572D01*
X5306571Y-19351286D01*
X5278000Y-19337000D01*
X5220857Y-19337000D01*
X5192286Y-19351286D01*
X5178000Y-19365572D01*
X5163714Y-19394143D01*
X5520857Y-19222714D02*
X5549428Y-19222714D01*
X5578000Y-19237000D01*
X5592286Y-19251286D01*
X5606571Y-19279857D01*
X5620857Y-19337000D01*
X5620857Y-19408429D01*
X5606571Y-19465572D01*
X5592286Y-19494143D01*
X5578000Y-19508429D01*
X5549428Y-19522714D01*
X5520857Y-19522714D01*
X5492286Y-19508429D01*
X5478000Y-19494143D01*
X5463714Y-19465572D01*
X5449428Y-19408429D01*
X5449428Y-19337000D01*
X5463714Y-19279857D01*
X5478000Y-19251286D01*
X5492286Y-19237000D01*
X5520857Y-19222714D01*
X5806571Y-19222714D02*
X5835143Y-19222714D01*
X5863714Y-19237000D01*
X5878000Y-19251286D01*
X5892286Y-19279857D01*
X5906571Y-19337000D01*
X5906571Y-19408429D01*
X5892286Y-19465572D01*
X5878000Y-19494143D01*
X5863714Y-19508429D01*
X5835143Y-19522714D01*
X5806571Y-19522714D01*
X5778000Y-19508429D01*
X5763714Y-19494143D01*
X5749428Y-19465572D01*
X5735143Y-19408429D01*
X5735143Y-19337000D01*
X5749428Y-19279857D01*
X5763714Y-19251286D01*
X5778000Y-19237000D01*
X5806571Y-19222714D01*
X6035143Y-19522714D02*
X6035143Y-19322714D01*
X6035143Y-19351286D02*
X6049428Y-19337000D01*
X6078000Y-19322714D01*
X6120857Y-19322714D01*
X6149428Y-19337000D01*
X6163714Y-19365572D01*
X6163714Y-19522714D01*
X6163714Y-19365572D02*
X6178000Y-19337000D01*
X6206571Y-19322714D01*
X6249428Y-19322714D01*
X6278000Y-19337000D01*
X6292286Y-19365572D01*
X6292286Y-19522714D01*
X6435143Y-19522714D02*
X6435143Y-19322714D01*
X6435143Y-19351286D02*
X6449428Y-19337000D01*
X6478000Y-19322714D01*
X6520857Y-19322714D01*
X6549428Y-19337000D01*
X6563714Y-19365572D01*
X6563714Y-19522714D01*
X6563714Y-19365572D02*
X6578000Y-19337000D01*
X6606571Y-19322714D01*
X6649428Y-19322714D01*
X6678000Y-19337000D01*
X6692286Y-19365572D01*
X6692286Y-19522714D01*
X7278000Y-19208429D02*
X7020857Y-19594143D01*
X7663714Y-19222714D02*
X7692286Y-19222714D01*
X7720857Y-19237000D01*
X7735143Y-19251286D01*
X7749428Y-19279857D01*
X7763714Y-19337000D01*
X7763714Y-19408429D01*
X7749428Y-19465572D01*
X7735143Y-19494143D01*
X7720857Y-19508429D01*
X7692286Y-19522714D01*
X7663714Y-19522714D01*
X7635143Y-19508429D01*
X7620857Y-19494143D01*
X7606571Y-19465572D01*
X7592286Y-19408429D01*
X7592286Y-19337000D01*
X7606571Y-19279857D01*
X7620857Y-19251286D01*
X7635143Y-19237000D01*
X7663714Y-19222714D01*
X7892286Y-19494143D02*
X7906571Y-19508429D01*
X7892286Y-19522714D01*
X7878000Y-19508429D01*
X7892286Y-19494143D01*
X7892286Y-19522714D01*
X8092286Y-19222714D02*
X8120857Y-19222714D01*
X8149428Y-19237000D01*
X8163714Y-19251286D01*
X8178000Y-19279857D01*
X8192286Y-19337000D01*
X8192286Y-19408429D01*
X8178000Y-19465572D01*
X8163714Y-19494143D01*
X8149428Y-19508429D01*
X8120857Y-19522714D01*
X8092286Y-19522714D01*
X8063714Y-19508429D01*
X8049428Y-19494143D01*
X8035143Y-19465572D01*
X8020857Y-19408429D01*
X8020857Y-19337000D01*
X8035143Y-19279857D01*
X8049428Y-19251286D01*
X8063714Y-19237000D01*
X8092286Y-19222714D01*
X8449428Y-19222714D02*
X8392286Y-19222714D01*
X8363714Y-19237000D01*
X8349428Y-19251286D01*
X8320857Y-19294143D01*
X8306571Y-19351286D01*
X8306571Y-19465572D01*
X8320857Y-19494143D01*
X8335143Y-19508429D01*
X8363714Y-19522714D01*
X8420857Y-19522714D01*
X8449428Y-19508429D01*
X8463714Y-19494143D01*
X8478000Y-19465572D01*
X8478000Y-19394143D01*
X8463714Y-19365572D01*
X8449428Y-19351286D01*
X8420857Y-19337000D01*
X8363714Y-19337000D01*
X8335143Y-19351286D01*
X8320857Y-19365572D01*
X8306571Y-19394143D01*
X8578000Y-19222714D02*
X8763714Y-19222714D01*
X8663714Y-19337000D01*
X8706571Y-19337000D01*
X8735143Y-19351286D01*
X8749428Y-19365572D01*
X8763714Y-19394143D01*
X8763714Y-19465572D01*
X8749428Y-19494143D01*
X8735143Y-19508429D01*
X8706571Y-19522714D01*
X8620857Y-19522714D01*
X8592286Y-19508429D01*
X8578000Y-19494143D01*
X8949428Y-19222714D02*
X8978000Y-19222714D01*
X9006571Y-19237000D01*
X9020857Y-19251286D01*
X9035143Y-19279857D01*
X9049428Y-19337000D01*
X9049428Y-19408429D01*
X9035143Y-19465572D01*
X9020857Y-19494143D01*
X9006571Y-19508429D01*
X8978000Y-19522714D01*
X8949428Y-19522714D01*
X8920857Y-19508429D01*
X8906571Y-19494143D01*
X8892286Y-19465572D01*
X8878000Y-19408429D01*
X8878000Y-19337000D01*
X8892286Y-19279857D01*
X8906571Y-19251286D01*
X8920857Y-19237000D01*
X8949428Y-19222714D01*
X9163714Y-19222714D02*
X9163714Y-19279857D01*
X9278000Y-19222714D02*
X9278000Y-19279857D01*
X9720857Y-19637000D02*
X9706571Y-19622714D01*
X9678000Y-19579857D01*
X9663714Y-19551286D01*
X9649428Y-19508429D01*
X9635143Y-19437000D01*
X9635143Y-19379857D01*
X9649428Y-19308429D01*
X9663714Y-19265572D01*
X9678000Y-19237000D01*
X9706571Y-19194143D01*
X9720857Y-19179857D01*
X9992286Y-19522714D02*
X9820857Y-19522714D01*
X9906571Y-19522714D02*
X9906571Y-19222714D01*
X9878000Y-19265572D01*
X9849428Y-19294143D01*
X9820857Y-19308429D01*
X10263714Y-19222714D02*
X10120857Y-19222714D01*
X10106571Y-19365572D01*
X10120857Y-19351286D01*
X10149428Y-19337000D01*
X10220857Y-19337000D01*
X10249428Y-19351286D01*
X10263714Y-19365572D01*
X10278000Y-19394143D01*
X10278000Y-19465572D01*
X10263714Y-19494143D01*
X10249428Y-19508429D01*
X10220857Y-19522714D01*
X10149428Y-19522714D01*
X10120857Y-19508429D01*
X10106571Y-19494143D01*
X10635143Y-19522714D02*
X10635143Y-19222714D01*
X10763714Y-19522714D02*
X10763714Y-19365572D01*
X10749428Y-19337000D01*
X10720857Y-19322714D01*
X10678000Y-19322714D01*
X10649428Y-19337000D01*
X10635143Y-19351286D01*
X10949428Y-19522714D02*
X10920857Y-19508429D01*
X10906571Y-19494143D01*
X10892286Y-19465572D01*
X10892286Y-19379857D01*
X10906571Y-19351286D01*
X10920857Y-19337000D01*
X10949428Y-19322714D01*
X10992286Y-19322714D01*
X11020857Y-19337000D01*
X11035143Y-19351286D01*
X11049428Y-19379857D01*
X11049428Y-19465572D01*
X11035143Y-19494143D01*
X11020857Y-19508429D01*
X10992286Y-19522714D01*
X10949428Y-19522714D01*
X11220857Y-19522714D02*
X11192286Y-19508429D01*
X11178000Y-19479857D01*
X11178000Y-19222714D01*
X11449428Y-19508429D02*
X11420857Y-19522714D01*
X11363714Y-19522714D01*
X11335143Y-19508429D01*
X11320857Y-19479857D01*
X11320857Y-19365572D01*
X11335143Y-19337000D01*
X11363714Y-19322714D01*
X11420857Y-19322714D01*
X11449428Y-19337000D01*
X11463714Y-19365572D01*
X11463714Y-19394143D01*
X11320857Y-19422714D01*
X11578000Y-19508429D02*
X11606571Y-19522714D01*
X11663714Y-19522714D01*
X11692286Y-19508429D01*
X11706571Y-19479857D01*
X11706571Y-19465572D01*
X11692286Y-19437000D01*
X11663714Y-19422714D01*
X11620857Y-19422714D01*
X11592286Y-19408429D01*
X11578000Y-19379857D01*
X11578000Y-19365572D01*
X11592286Y-19337000D01*
X11620857Y-19322714D01*
X11663714Y-19322714D01*
X11692286Y-19337000D01*
X11806571Y-19637000D02*
X11820857Y-19622714D01*
X11849428Y-19579857D01*
X11863714Y-19551286D01*
X11878000Y-19508429D01*
X11892286Y-19437000D01*
X11892286Y-19379857D01*
X11878000Y-19308429D01*
X11863714Y-19265572D01*
X11849428Y-19237000D01*
X11820857Y-19194143D01*
X11806571Y-19179857D01*
X4273000Y-19688000D02*
X4463000Y-19878000D01*
X4463000Y-19688000D02*
X4273000Y-19878000D01*
X4435176Y-19850176D02*
X4435176Y-19715824D01*
X4300824Y-19715824D01*
X4300824Y-19850176D01*
X4435176Y-19850176D01*
X4906571Y-19918714D02*
X4735143Y-19918714D01*
X4820857Y-19918714D02*
X4820857Y-19618714D01*
X4792286Y-19661572D01*
X4763714Y-19690143D01*
X4735143Y-19704429D01*
X5035143Y-19890143D02*
X5049428Y-19904429D01*
X5035143Y-19918714D01*
X5020857Y-19904429D01*
X5035143Y-19890143D01*
X5035143Y-19918714D01*
X5192286Y-19918714D02*
X5249428Y-19918714D01*
X5278000Y-19904429D01*
X5292286Y-19890143D01*
X5320857Y-19847286D01*
X5335143Y-19790143D01*
X5335143Y-19675857D01*
X5320857Y-19647286D01*
X5306571Y-19633000D01*
X5278000Y-19618714D01*
X5220857Y-19618714D01*
X5192286Y-19633000D01*
X5178000Y-19647286D01*
X5163714Y-19675857D01*
X5163714Y-19747286D01*
X5178000Y-19775857D01*
X5192286Y-19790143D01*
X5220857Y-19804429D01*
X5278000Y-19804429D01*
X5306571Y-19790143D01*
X5320857Y-19775857D01*
X5335143Y-19747286D01*
X5520857Y-19618714D02*
X5549428Y-19618714D01*
X5578000Y-19633000D01*
X5592286Y-19647286D01*
X5606571Y-19675857D01*
X5620857Y-19733000D01*
X5620857Y-19804429D01*
X5606571Y-19861572D01*
X5592286Y-19890143D01*
X5578000Y-19904429D01*
X5549428Y-19918714D01*
X5520857Y-19918714D01*
X5492286Y-19904429D01*
X5478000Y-19890143D01*
X5463714Y-19861572D01*
X5449428Y-19804429D01*
X5449428Y-19733000D01*
X5463714Y-19675857D01*
X5478000Y-19647286D01*
X5492286Y-19633000D01*
X5520857Y-19618714D01*
X5806571Y-19618714D02*
X5835143Y-19618714D01*
X5863714Y-19633000D01*
X5878000Y-19647286D01*
X5892286Y-19675857D01*
X5906571Y-19733000D01*
X5906571Y-19804429D01*
X5892286Y-19861572D01*
X5878000Y-19890143D01*
X5863714Y-19904429D01*
X5835143Y-19918714D01*
X5806571Y-19918714D01*
X5778000Y-19904429D01*
X5763714Y-19890143D01*
X5749428Y-19861572D01*
X5735143Y-19804429D01*
X5735143Y-19733000D01*
X5749428Y-19675857D01*
X5763714Y-19647286D01*
X5778000Y-19633000D01*
X5806571Y-19618714D01*
X6035143Y-19918714D02*
X6035143Y-19718714D01*
X6035143Y-19747286D02*
X6049428Y-19733000D01*
X6078000Y-19718714D01*
X6120857Y-19718714D01*
X6149428Y-19733000D01*
X6163714Y-19761572D01*
X6163714Y-19918714D01*
X6163714Y-19761572D02*
X6178000Y-19733000D01*
X6206571Y-19718714D01*
X6249428Y-19718714D01*
X6278000Y-19733000D01*
X6292286Y-19761572D01*
X6292286Y-19918714D01*
X6435143Y-19918714D02*
X6435143Y-19718714D01*
X6435143Y-19747286D02*
X6449428Y-19733000D01*
X6478000Y-19718714D01*
X6520857Y-19718714D01*
X6549428Y-19733000D01*
X6563714Y-19761572D01*
X6563714Y-19918714D01*
X6563714Y-19761572D02*
X6578000Y-19733000D01*
X6606571Y-19718714D01*
X6649428Y-19718714D01*
X6678000Y-19733000D01*
X6692286Y-19761572D01*
X6692286Y-19918714D01*
X7278000Y-19604429D02*
X7020857Y-19990143D01*
X7663714Y-19618714D02*
X7692286Y-19618714D01*
X7720857Y-19633000D01*
X7735143Y-19647286D01*
X7749428Y-19675857D01*
X7763714Y-19733000D01*
X7763714Y-19804429D01*
X7749428Y-19861572D01*
X7735143Y-19890143D01*
X7720857Y-19904429D01*
X7692286Y-19918714D01*
X7663714Y-19918714D01*
X7635143Y-19904429D01*
X7620857Y-19890143D01*
X7606571Y-19861572D01*
X7592286Y-19804429D01*
X7592286Y-19733000D01*
X7606571Y-19675857D01*
X7620857Y-19647286D01*
X7635143Y-19633000D01*
X7663714Y-19618714D01*
X7892286Y-19890143D02*
X7906571Y-19904429D01*
X7892286Y-19918714D01*
X7878000Y-19904429D01*
X7892286Y-19890143D01*
X7892286Y-19918714D01*
X8092286Y-19618714D02*
X8120857Y-19618714D01*
X8149428Y-19633000D01*
X8163714Y-19647286D01*
X8178000Y-19675857D01*
X8192286Y-19733000D01*
X8192286Y-19804429D01*
X8178000Y-19861572D01*
X8163714Y-19890143D01*
X8149428Y-19904429D01*
X8120857Y-19918714D01*
X8092286Y-19918714D01*
X8063714Y-19904429D01*
X8049428Y-19890143D01*
X8035143Y-19861572D01*
X8020857Y-19804429D01*
X8020857Y-19733000D01*
X8035143Y-19675857D01*
X8049428Y-19647286D01*
X8063714Y-19633000D01*
X8092286Y-19618714D01*
X8292286Y-19618714D02*
X8492286Y-19618714D01*
X8363714Y-19918714D01*
X8735143Y-19718714D02*
X8735143Y-19918714D01*
X8663714Y-19604429D02*
X8592286Y-19818714D01*
X8778000Y-19818714D01*
X8935143Y-19747286D02*
X8906571Y-19733000D01*
X8892286Y-19718714D01*
X8878000Y-19690143D01*
X8878000Y-19675857D01*
X8892286Y-19647286D01*
X8906571Y-19633000D01*
X8935143Y-19618714D01*
X8992286Y-19618714D01*
X9020857Y-19633000D01*
X9035143Y-19647286D01*
X9049428Y-19675857D01*
X9049428Y-19690143D01*
X9035143Y-19718714D01*
X9020857Y-19733000D01*
X8992286Y-19747286D01*
X8935143Y-19747286D01*
X8906571Y-19761572D01*
X8892286Y-19775857D01*
X8878000Y-19804429D01*
X8878000Y-19861572D01*
X8892286Y-19890143D01*
X8906571Y-19904429D01*
X8935143Y-19918714D01*
X8992286Y-19918714D01*
X9020857Y-19904429D01*
X9035143Y-19890143D01*
X9049428Y-19861572D01*
X9049428Y-19804429D01*
X9035143Y-19775857D01*
X9020857Y-19761572D01*
X8992286Y-19747286D01*
X9163714Y-19618714D02*
X9163714Y-19675857D01*
X9278000Y-19618714D02*
X9278000Y-19675857D01*
X9720857Y-20033000D02*
X9706571Y-20018714D01*
X9678000Y-19975857D01*
X9663714Y-19947286D01*
X9649428Y-19904429D01*
X9635143Y-19833000D01*
X9635143Y-19775857D01*
X9649428Y-19704429D01*
X9663714Y-19661572D01*
X9678000Y-19633000D01*
X9706571Y-19590143D01*
X9720857Y-19575857D01*
X9820857Y-19647286D02*
X9835143Y-19633000D01*
X9863714Y-19618714D01*
X9935143Y-19618714D01*
X9963714Y-19633000D01*
X9978000Y-19647286D01*
X9992286Y-19675857D01*
X9992286Y-19704429D01*
X9978000Y-19747286D01*
X9806571Y-19918714D01*
X9992286Y-19918714D01*
X10349428Y-19918714D02*
X10349428Y-19618714D01*
X10478000Y-19918714D02*
X10478000Y-19761572D01*
X10463714Y-19733000D01*
X10435143Y-19718714D01*
X10392286Y-19718714D01*
X10363714Y-19733000D01*
X10349428Y-19747286D01*
X10663714Y-19918714D02*
X10635143Y-19904429D01*
X10620857Y-19890143D01*
X10606571Y-19861572D01*
X10606571Y-19775857D01*
X10620857Y-19747286D01*
X10635143Y-19733000D01*
X10663714Y-19718714D01*
X10706571Y-19718714D01*
X10735143Y-19733000D01*
X10749428Y-19747286D01*
X10763714Y-19775857D01*
X10763714Y-19861572D01*
X10749428Y-19890143D01*
X10735143Y-19904429D01*
X10706571Y-19918714D01*
X10663714Y-19918714D01*
X10935143Y-19918714D02*
X10906571Y-19904429D01*
X10892286Y-19875857D01*
X10892286Y-19618714D01*
X11163714Y-19904429D02*
X11135143Y-19918714D01*
X11078000Y-19918714D01*
X11049428Y-19904429D01*
X11035143Y-19875857D01*
X11035143Y-19761572D01*
X11049428Y-19733000D01*
X11078000Y-19718714D01*
X11135143Y-19718714D01*
X11163714Y-19733000D01*
X11178000Y-19761572D01*
X11178000Y-19790143D01*
X11035143Y-19818714D01*
X11292286Y-19904429D02*
X11320857Y-19918714D01*
X11378000Y-19918714D01*
X11406571Y-19904429D01*
X11420857Y-19875857D01*
X11420857Y-19861572D01*
X11406571Y-19833000D01*
X11378000Y-19818714D01*
X11335143Y-19818714D01*
X11306571Y-19804429D01*
X11292286Y-19775857D01*
X11292286Y-19761572D01*
X11306571Y-19733000D01*
X11335143Y-19718714D01*
X11378000Y-19718714D01*
X11406571Y-19733000D01*
X11520857Y-20033000D02*
X11535143Y-20018714D01*
X11563714Y-19975857D01*
X11578000Y-19947286D01*
X11592286Y-19904429D01*
X11606571Y-19833000D01*
X11606571Y-19775857D01*
X11592286Y-19704429D01*
X11578000Y-19661572D01*
X11563714Y-19633000D01*
X11535143Y-19590143D01*
X11520857Y-19575857D01*
X4143000Y-20019000D02*
X4463000Y-20339000D01*
X4463000Y-20019000D02*
X4143000Y-20339000D01*
X4303000Y-20339000D02*
X4463000Y-20179000D01*
X4303000Y-20019000D01*
X4143000Y-20179000D01*
X4303000Y-20339000D01*
X4720857Y-20014714D02*
X4906571Y-20014714D01*
X4806571Y-20129000D01*
X4849428Y-20129000D01*
X4878000Y-20143286D01*
X4892286Y-20157572D01*
X4906571Y-20186143D01*
X4906571Y-20257572D01*
X4892286Y-20286143D01*
X4878000Y-20300429D01*
X4849428Y-20314714D01*
X4763714Y-20314714D01*
X4735143Y-20300429D01*
X4720857Y-20286143D01*
X5035143Y-20286143D02*
X5049428Y-20300429D01*
X5035143Y-20314714D01*
X5020857Y-20300429D01*
X5035143Y-20286143D01*
X5035143Y-20314714D01*
X5163714Y-20043286D02*
X5178000Y-20029000D01*
X5206571Y-20014714D01*
X5278000Y-20014714D01*
X5306571Y-20029000D01*
X5320857Y-20043286D01*
X5335143Y-20071857D01*
X5335143Y-20100429D01*
X5320857Y-20143286D01*
X5149428Y-20314714D01*
X5335143Y-20314714D01*
X5520857Y-20014714D02*
X5549428Y-20014714D01*
X5578000Y-20029000D01*
X5592286Y-20043286D01*
X5606571Y-20071857D01*
X5620857Y-20129000D01*
X5620857Y-20200429D01*
X5606571Y-20257572D01*
X5592286Y-20286143D01*
X5578000Y-20300429D01*
X5549428Y-20314714D01*
X5520857Y-20314714D01*
X5492286Y-20300429D01*
X5478000Y-20286143D01*
X5463714Y-20257572D01*
X5449428Y-20200429D01*
X5449428Y-20129000D01*
X5463714Y-20071857D01*
X5478000Y-20043286D01*
X5492286Y-20029000D01*
X5520857Y-20014714D01*
X5806571Y-20014714D02*
X5835143Y-20014714D01*
X5863714Y-20029000D01*
X5878000Y-20043286D01*
X5892286Y-20071857D01*
X5906571Y-20129000D01*
X5906571Y-20200429D01*
X5892286Y-20257572D01*
X5878000Y-20286143D01*
X5863714Y-20300429D01*
X5835143Y-20314714D01*
X5806571Y-20314714D01*
X5778000Y-20300429D01*
X5763714Y-20286143D01*
X5749428Y-20257572D01*
X5735143Y-20200429D01*
X5735143Y-20129000D01*
X5749428Y-20071857D01*
X5763714Y-20043286D01*
X5778000Y-20029000D01*
X5806571Y-20014714D01*
X6035143Y-20314714D02*
X6035143Y-20114714D01*
X6035143Y-20143286D02*
X6049428Y-20129000D01*
X6078000Y-20114714D01*
X6120857Y-20114714D01*
X6149428Y-20129000D01*
X6163714Y-20157572D01*
X6163714Y-20314714D01*
X6163714Y-20157572D02*
X6178000Y-20129000D01*
X6206571Y-20114714D01*
X6249428Y-20114714D01*
X6278000Y-20129000D01*
X6292286Y-20157572D01*
X6292286Y-20314714D01*
X6435143Y-20314714D02*
X6435143Y-20114714D01*
X6435143Y-20143286D02*
X6449428Y-20129000D01*
X6478000Y-20114714D01*
X6520857Y-20114714D01*
X6549428Y-20129000D01*
X6563714Y-20157572D01*
X6563714Y-20314714D01*
X6563714Y-20157572D02*
X6578000Y-20129000D01*
X6606571Y-20114714D01*
X6649428Y-20114714D01*
X6678000Y-20129000D01*
X6692286Y-20157572D01*
X6692286Y-20314714D01*
X7278000Y-20000429D02*
X7020857Y-20386143D01*
X7663714Y-20014714D02*
X7692286Y-20014714D01*
X7720857Y-20029000D01*
X7735143Y-20043286D01*
X7749428Y-20071857D01*
X7763714Y-20129000D01*
X7763714Y-20200429D01*
X7749428Y-20257572D01*
X7735143Y-20286143D01*
X7720857Y-20300429D01*
X7692286Y-20314714D01*
X7663714Y-20314714D01*
X7635143Y-20300429D01*
X7620857Y-20286143D01*
X7606571Y-20257572D01*
X7592286Y-20200429D01*
X7592286Y-20129000D01*
X7606571Y-20071857D01*
X7620857Y-20043286D01*
X7635143Y-20029000D01*
X7663714Y-20014714D01*
X7892286Y-20286143D02*
X7906571Y-20300429D01*
X7892286Y-20314714D01*
X7878000Y-20300429D01*
X7892286Y-20286143D01*
X7892286Y-20314714D01*
X8192286Y-20314714D02*
X8020857Y-20314714D01*
X8106571Y-20314714D02*
X8106571Y-20014714D01*
X8078000Y-20057572D01*
X8049428Y-20086143D01*
X8020857Y-20100429D01*
X8306571Y-20043286D02*
X8320857Y-20029000D01*
X8349428Y-20014714D01*
X8420857Y-20014714D01*
X8449428Y-20029000D01*
X8463714Y-20043286D01*
X8478000Y-20071857D01*
X8478000Y-20100429D01*
X8463714Y-20143286D01*
X8292286Y-20314714D01*
X8478000Y-20314714D01*
X8735143Y-20014714D02*
X8678000Y-20014714D01*
X8649428Y-20029000D01*
X8635143Y-20043286D01*
X8606571Y-20086143D01*
X8592286Y-20143286D01*
X8592286Y-20257572D01*
X8606571Y-20286143D01*
X8620857Y-20300429D01*
X8649428Y-20314714D01*
X8706571Y-20314714D01*
X8735143Y-20300429D01*
X8749428Y-20286143D01*
X8763714Y-20257572D01*
X8763714Y-20186143D01*
X8749428Y-20157572D01*
X8735143Y-20143286D01*
X8706571Y-20129000D01*
X8649428Y-20129000D01*
X8620857Y-20143286D01*
X8606571Y-20157572D01*
X8592286Y-20186143D01*
X8949428Y-20014714D02*
X8978000Y-20014714D01*
X9006571Y-20029000D01*
X9020857Y-20043286D01*
X9035143Y-20071857D01*
X9049428Y-20129000D01*
X9049428Y-20200429D01*
X9035143Y-20257572D01*
X9020857Y-20286143D01*
X9006571Y-20300429D01*
X8978000Y-20314714D01*
X8949428Y-20314714D01*
X8920857Y-20300429D01*
X8906571Y-20286143D01*
X8892286Y-20257572D01*
X8878000Y-20200429D01*
X8878000Y-20129000D01*
X8892286Y-20071857D01*
X8906571Y-20043286D01*
X8920857Y-20029000D01*
X8949428Y-20014714D01*
X9163714Y-20014714D02*
X9163714Y-20071857D01*
X9278000Y-20014714D02*
X9278000Y-20071857D01*
X9720857Y-20429000D02*
X9706571Y-20414714D01*
X9678000Y-20371857D01*
X9663714Y-20343286D01*
X9649428Y-20300429D01*
X9635143Y-20229000D01*
X9635143Y-20171857D01*
X9649428Y-20100429D01*
X9663714Y-20057572D01*
X9678000Y-20029000D01*
X9706571Y-19986143D01*
X9720857Y-19971857D01*
X9963714Y-20114714D02*
X9963714Y-20314714D01*
X9892286Y-20000429D02*
X9820857Y-20214714D01*
X10006571Y-20214714D01*
X10349428Y-20314714D02*
X10349428Y-20014714D01*
X10478000Y-20314714D02*
X10478000Y-20157572D01*
X10463714Y-20129000D01*
X10435143Y-20114714D01*
X10392286Y-20114714D01*
X10363714Y-20129000D01*
X10349428Y-20143286D01*
X10663714Y-20314714D02*
X10635143Y-20300429D01*
X10620857Y-20286143D01*
X10606571Y-20257572D01*
X10606571Y-20171857D01*
X10620857Y-20143286D01*
X10635143Y-20129000D01*
X10663714Y-20114714D01*
X10706571Y-20114714D01*
X10735143Y-20129000D01*
X10749428Y-20143286D01*
X10763714Y-20171857D01*
X10763714Y-20257572D01*
X10749428Y-20286143D01*
X10735143Y-20300429D01*
X10706571Y-20314714D01*
X10663714Y-20314714D01*
X10935143Y-20314714D02*
X10906571Y-20300429D01*
X10892286Y-20271857D01*
X10892286Y-20014714D01*
X11163714Y-20300429D02*
X11135143Y-20314714D01*
X11078000Y-20314714D01*
X11049428Y-20300429D01*
X11035143Y-20271857D01*
X11035143Y-20157572D01*
X11049428Y-20129000D01*
X11078000Y-20114714D01*
X11135143Y-20114714D01*
X11163714Y-20129000D01*
X11178000Y-20157572D01*
X11178000Y-20186143D01*
X11035143Y-20214714D01*
X11292286Y-20300429D02*
X11320857Y-20314714D01*
X11378000Y-20314714D01*
X11406571Y-20300429D01*
X11420857Y-20271857D01*
X11420857Y-20257572D01*
X11406571Y-20229000D01*
X11378000Y-20214714D01*
X11335143Y-20214714D01*
X11306571Y-20200429D01*
X11292286Y-20171857D01*
X11292286Y-20157572D01*
X11306571Y-20129000D01*
X11335143Y-20114714D01*
X11378000Y-20114714D01*
X11406571Y-20129000D01*
X11520857Y-20429000D02*
X11535143Y-20414714D01*
X11563714Y-20371857D01*
X11578000Y-20343286D01*
X11592286Y-20300429D01*
X11606571Y-20229000D01*
X11606571Y-20171857D01*
X11592286Y-20100429D01*
X11578000Y-20057572D01*
X11563714Y-20029000D01*
X11535143Y-19986143D01*
X11520857Y-19971857D01*
M02*
