M48
; DRILL file {KiCad (5.1.10-1-10_14)} date Tuesday, January 11, 2022 at 04:09:33 PM
; FORMAT={-:-/ absolute / inch / decimal}
; #@! TF.CreationDate,2022-01-11T16:09:33-08:00
; #@! TF.GenerationSoftware,Kicad,Pcbnew,(5.1.10-1-10_14)
; #@! TF.FileFunction,Plated,1,2,PTH
FMAT,2
INCH
T1C0.0160
T2C0.0300
T3C0.0350
T4C0.0394
T5C0.0618
T6C0.1260
%
G90
G05
T1
X4.8139Y-3.6021
X4.8465Y-3.5599
X4.8565Y-3.6648
X4.8965Y-3.6099
X4.9565Y-3.6648
X4.9716Y-3.7148
X5.0216Y-3.7648
X5.0703Y-3.7161
X5.0791Y-3.8073
X5.0991Y-2.9873
X5.0991Y-3.1473
X5.1103Y-3.7561
X5.1403Y-3.7861
X5.1677Y-3.2787
X5.197Y-3.8653
X5.2291Y-3.5973
X5.2377Y-3.3487
X5.2813Y-3.5051
X5.3313Y-3.5551
X5.3791Y-3.5673
X5.7706Y-4.6273
X5.7991Y-4.4773
T2
X4.6083Y-3.5522
X4.6083Y-3.6522
X4.6083Y-3.7522
X4.6083Y-3.8522
X4.6083Y-3.9522
X4.6083Y-4.0522
X4.6083Y-4.1522
X4.6083Y-4.2522
X4.6083Y-4.3522
X4.6083Y-4.4522
X4.6083Y-4.5522
X4.6083Y-4.6522
X4.6083Y-4.7522
X4.6083Y-4.8522
X4.6083Y-4.9522
X5.6122Y-3.5522
X5.6122Y-3.6522
X5.6122Y-3.7522
X5.6122Y-3.8522
X5.6122Y-3.9522
X5.6122Y-4.0522
X5.6122Y-4.1522
X5.6122Y-4.2522
X5.6122Y-4.3522
X5.6122Y-4.4522
X5.6122Y-4.5522
X5.6122Y-4.6522
X5.6122Y-4.7522
X5.6122Y-4.8522
X5.6122Y-4.9522
T3
X5.7291Y-3.1071
X5.8193Y-3.1071
X5.8591Y-2.8472
X5.8991Y-2.9173
X5.9391Y-2.8472
X5.9791Y-2.9173
X6.0191Y-2.8472
X6.0591Y-2.9173
X6.0991Y-2.8472
X6.1391Y-2.9173
X6.1791Y-3.1071
X6.2693Y-3.1071
T4
X4.4691Y-4.8473
X5.0791Y-3.9073
X5.2391Y-4.0673
T5
X5.6791Y-2.8823
X6.3193Y-2.8823
T6
X4.1591Y-2.9173
X4.1591Y-4.9173
X6.6591Y-2.9173
X6.6591Y-4.9173
T0
M30
