M48
; DRILL file {KiCad (5.1.10)-1} date 05/03/22 11:30:37
; FORMAT={-:-/ absolute / inch / decimal}
; #@! TF.CreationDate,2022-05-03T11:30:37-07:00
; #@! TF.GenerationSoftware,Kicad,Pcbnew,(5.1.10)-1
; #@! TF.FileFunction,Plated,1,2,PTH
FMAT,2
INCH
T1C0.0160
T2C0.0300
T3C0.0315
T4C0.0350
T5C0.0394
T6C0.0618
T7C0.1260
%
G90
G05
T1
X4.8241Y-4.3448
X4.8791Y-4.3098
X4.9091Y-4.3398
X4.9215Y-4.4123
X4.9366Y-4.4623
X4.9866Y-4.5123
X5.0353Y-4.4636
X5.0441Y-4.5548
X5.0641Y-3.7348
X5.0641Y-3.8948
X5.0753Y-4.5036
X5.1053Y-4.5336
X5.1181Y-4.3196
X5.1313Y-4.0234
X5.1631Y-4.0641
X5.1631Y-4.1073
X5.1703Y-4.2274
X5.2203Y-4.2774
X5.2681Y-4.2896
X5.6823Y-4.4866
X5.7127Y-3.5696
X5.7343Y-4.5402
X5.735Y-4.3949
X6.315Y-4.7583
X6.315Y-4.7883
X6.3512Y-3.6327
X6.352Y-3.5972
T2
X4.6083Y-3.5522
X4.6083Y-3.6522
X4.6083Y-3.7522
X4.6083Y-3.8522
X4.6083Y-3.9522
X4.6083Y-4.0522
X4.6083Y-4.1522
X4.6083Y-4.2522
X4.6083Y-4.3522
X4.6083Y-4.4522
X4.6083Y-4.5522
X4.6083Y-4.6522
X4.6083Y-4.7522
X4.6083Y-4.8522
X4.6083Y-4.9522
X5.2604Y-3.4157
X5.3604Y-3.4157
X5.4604Y-3.4157
X5.5604Y-3.4157
X5.6122Y-3.5522
X5.6122Y-3.6522
X5.6122Y-3.7522
X5.6122Y-3.8522
X5.6122Y-3.9522
X5.6122Y-4.0522
X5.6122Y-4.1522
X5.6122Y-4.2522
X5.6122Y-4.3522
X5.6122Y-4.4522
X5.6122Y-4.5522
X5.6122Y-4.6522
X5.6122Y-4.7522
X5.6122Y-4.8522
X5.6122Y-4.9522
T3
X4.7921Y-3.189
X4.9031Y-2.939
T4
X5.1391Y-3.1371
X5.2293Y-3.1371
X5.2691Y-2.8772
X5.3091Y-2.9473
X5.3491Y-2.8772
X5.3891Y-2.9473
X5.4291Y-2.8772
X5.4691Y-2.9473
X5.5091Y-2.8772
X5.5491Y-2.9473
X5.5891Y-3.1371
X5.6793Y-3.1371
T5
X4.4691Y-4.8473
X5.0441Y-4.6548
X5.4068Y-4.6094
T6
X5.0891Y-2.9123
X5.7293Y-2.9123
T7
X4.1591Y-2.9173
X4.1591Y-4.9173
X6.6591Y-2.9173
X6.6591Y-4.9173
T0
M30
