G04 #@! TF.GenerationSoftware,KiCad,Pcbnew,(5.1.10)-1*
G04 #@! TF.CreationDate,2021-10-29T16:39:56-07:00*
G04 #@! TF.ProjectId,CI_ComPCB,43495f43-6f6d-4504-9342-2e6b69636164,rev?*
G04 #@! TF.SameCoordinates,Original*
G04 #@! TF.FileFunction,Soldermask,Bot*
G04 #@! TF.FilePolarity,Negative*
%FSLAX46Y46*%
G04 Gerber Fmt 4.6, Leading zero omitted, Abs format (unit mm)*
G04 Created by KiCad (PCBNEW (5.1.10)-1) date 2021-10-29 16:39:56*
%MOMM*%
%LPD*%
G01*
G04 APERTURE LIST*
%ADD10C,1.980000*%
%ADD11C,1.935000*%
%ADD12R,1.980000X1.980000*%
%ADD13C,1.500000*%
%ADD14C,2.300000*%
%ADD15C,3.250000*%
%ADD16R,1.500000X1.500000*%
%ADD17O,1.700000X1.700000*%
%ADD18R,1.700000X1.700000*%
%ADD19R,1.500000X1.000000*%
%ADD20O,1.500000X1.000000*%
%ADD21C,2.475000*%
%ADD22O,2.000000X1.905000*%
%ADD23R,2.000000X1.905000*%
%ADD24C,1.524000*%
%ADD25C,5.700000*%
%ADD26C,3.600000*%
%ADD27C,2.500000*%
G04 APERTURE END LIST*
D10*
X112250000Y-98410000D03*
X112250000Y-86410000D03*
X124450000Y-86410000D03*
D11*
X126450000Y-92410000D03*
D12*
X124450000Y-98410000D03*
D10*
X112780000Y-131390000D03*
X112780000Y-119390000D03*
X124980000Y-119390000D03*
D11*
X126980000Y-125390000D03*
D12*
X124980000Y-131390000D03*
D13*
X204198000Y-84510000D03*
X201908000Y-84510000D03*
X192768000Y-84510000D03*
X190478000Y-84510000D03*
D14*
X189208000Y-78800000D03*
X205468000Y-78800000D03*
D15*
X203688000Y-75370000D03*
X190988000Y-75370000D03*
D13*
X200890000Y-79690000D03*
X198858000Y-79690000D03*
X196826000Y-79690000D03*
X194794000Y-79690000D03*
X199874000Y-77910000D03*
X197842000Y-77910000D03*
X195810000Y-77910000D03*
D16*
X193778000Y-77910000D03*
D13*
X190470000Y-144970000D03*
X192760000Y-144970000D03*
X201900000Y-144970000D03*
X204190000Y-144970000D03*
D14*
X205460000Y-150680000D03*
X189200000Y-150680000D03*
D15*
X190980000Y-154110000D03*
X203680000Y-154110000D03*
D13*
X193778000Y-149790000D03*
X195810000Y-149790000D03*
X197842000Y-149790000D03*
X199874000Y-149790000D03*
X194794000Y-151570000D03*
X196826000Y-151570000D03*
X198858000Y-151570000D03*
D16*
X200890000Y-151570000D03*
D17*
X175998000Y-155126000D03*
D18*
X173458000Y-155126000D03*
X162028000Y-120836000D03*
D17*
X160504000Y-124900000D03*
D18*
X160504000Y-127440000D03*
D19*
X109704000Y-81720000D03*
D20*
X109704000Y-79180000D03*
X109704000Y-80450000D03*
D19*
X109196000Y-114232000D03*
D20*
X109196000Y-111692000D03*
X109196000Y-112962000D03*
D17*
X133060000Y-100050000D03*
X133060000Y-97510000D03*
D18*
X133060000Y-94970000D03*
D17*
X132564000Y-132012000D03*
X132564000Y-129472000D03*
D18*
X132564000Y-126932000D03*
D17*
X133072000Y-86292000D03*
D18*
X133072000Y-88832000D03*
D17*
X132564000Y-118296000D03*
D18*
X132564000Y-120836000D03*
D21*
X118692000Y-145392000D03*
X123292000Y-145392000D03*
X127892000Y-145392000D03*
X118692000Y-152302000D03*
X123292000Y-152302000D03*
X127892000Y-152302000D03*
D18*
X149836000Y-86800000D03*
X154408000Y-82228000D03*
X149836000Y-82736000D03*
D22*
X137644000Y-144712000D03*
X137644000Y-142172000D03*
D23*
X137644000Y-139632000D03*
D18*
X166092000Y-124900000D03*
X145772000Y-147760000D03*
D24*
X169172000Y-132488000D03*
X169172000Y-155488000D03*
X155172000Y-155488000D03*
X155172000Y-132488000D03*
X158672000Y-132488000D03*
X165672000Y-132488000D03*
D25*
X212320000Y-76640000D03*
D26*
X212320000Y-76640000D03*
D25*
X100560000Y-153348000D03*
D26*
X100560000Y-153348000D03*
D25*
X212320000Y-152840000D03*
D26*
X212320000Y-152840000D03*
D25*
X100560000Y-77148000D03*
D26*
X100560000Y-77148000D03*
D27*
X213628000Y-97628000D03*
X138628000Y-97628000D03*
D24*
X149054000Y-113216000D03*
X149054000Y-115756000D03*
X149054000Y-118296000D03*
X149054000Y-120836000D03*
X149054000Y-123376000D03*
X149054000Y-125916000D03*
X149054000Y-128456000D03*
X149054000Y-130996000D03*
X149054000Y-133536000D03*
X149054000Y-136076000D03*
X149054000Y-138616000D03*
X149054000Y-141156000D03*
X149054000Y-143696000D03*
X149054000Y-146236000D03*
X149054000Y-148776000D03*
X174554000Y-113216000D03*
X174554000Y-115756000D03*
X174554000Y-118296000D03*
X174554000Y-120836000D03*
X174554000Y-123376000D03*
X174554000Y-125916000D03*
X174554000Y-128456000D03*
X174554000Y-130996000D03*
X174554000Y-133536000D03*
X174554000Y-136076000D03*
X174554000Y-138616000D03*
X174554000Y-141156000D03*
X174554000Y-143696000D03*
X174554000Y-146236000D03*
X174554000Y-148776000D03*
M02*
