M48
; DRILL file {KiCad (5.1.10-1-10_14)} date Thursday, January 13, 2022 at 10:32:15 AM
; FORMAT={-:-/ absolute / inch / decimal}
; #@! TF.CreationDate,2022-01-13T10:32:15-08:00
; #@! TF.GenerationSoftware,Kicad,Pcbnew,(5.1.10-1-10_14)
; #@! TF.FileFunction,Plated,1,2,PTH
FMAT,2
INCH
T1C0.0160
T2C0.0300
T3C0.0350
T4C0.0394
T5C0.0618
T6C0.1260
%
G90
G05
T1
X4.8491Y-4.3473
X4.9041Y-4.3123
X4.9341Y-4.3423
X4.9465Y-4.4148
X4.9616Y-4.4648
X5.0116Y-4.5148
X5.0603Y-4.4661
X5.0691Y-4.5573
X5.0891Y-3.7373
X5.0891Y-3.8973
X5.1003Y-4.5061
X5.1303Y-4.5361
X5.1577Y-4.0287
X5.2191Y-4.3473
X5.2277Y-4.0987
X5.2713Y-4.2551
X5.3213Y-4.3051
X5.3691Y-4.3173
X5.7706Y-4.6273
X5.7991Y-4.4773
X6.277Y-3.3293
X6.297Y-3.3493
X6.3781Y-4.9783
X6.4081Y-4.9783
X6.4481Y-4.9783
X6.4881Y-4.9783
X6.5181Y-4.9783
T2
X4.6083Y-3.5522
X4.6083Y-3.6522
X4.6083Y-3.7522
X4.6083Y-3.8522
X4.6083Y-3.9522
X4.6083Y-4.0522
X4.6083Y-4.1522
X4.6083Y-4.2522
X4.6083Y-4.3522
X4.6083Y-4.4522
X4.6083Y-4.5522
X4.6083Y-4.6522
X4.6083Y-4.7522
X4.6083Y-4.8522
X4.6083Y-4.9522
X5.6122Y-3.5522
X5.6122Y-3.6522
X5.6122Y-3.7522
X5.6122Y-3.8522
X5.6122Y-3.9522
X5.6122Y-4.0522
X5.6122Y-4.1522
X5.6122Y-4.2522
X5.6122Y-4.3522
X5.6122Y-4.4522
X5.6122Y-4.5522
X5.6122Y-4.6522
X5.6122Y-4.7522
X5.6122Y-4.8522
X5.6122Y-4.9522
T3
X5.1391Y-3.1371
X5.2293Y-3.1371
X5.2691Y-2.8772
X5.3091Y-2.9473
X5.3491Y-2.8772
X5.3891Y-2.9473
X5.4291Y-2.8772
X5.4691Y-2.9473
X5.5091Y-2.8772
X5.5491Y-2.9473
X5.5891Y-3.1371
X5.6793Y-3.1371
T4
X4.4691Y-4.8473
X5.0691Y-4.6573
X5.2691Y-4.8973
T5
X5.0891Y-2.9123
X5.7293Y-2.9123
T6
X4.1591Y-2.9173
X4.1591Y-4.9173
X6.6591Y-2.9173
X6.6591Y-4.9173
T0
M30
