G04 #@! TF.GenerationSoftware,KiCad,Pcbnew,(5.1.10)-1*
G04 #@! TF.CreationDate,2021-08-31T13:50:09-07:00*
G04 #@! TF.ProjectId,CI_ComPCB,43495f43-6f6d-4504-9342-2e6b69636164,rev?*
G04 #@! TF.SameCoordinates,Original*
G04 #@! TF.FileFunction,Legend,Bot*
G04 #@! TF.FilePolarity,Positive*
%FSLAX46Y46*%
G04 Gerber Fmt 4.6, Leading zero omitted, Abs format (unit mm)*
G04 Created by KiCad (PCBNEW (5.1.10)-1) date 2021-08-31 13:50:09*
%MOMM*%
%LPD*%
G01*
G04 APERTURE LIST*
%ADD10C,0.120000*%
%ADD11C,0.150000*%
G04 APERTURE END LIST*
D10*
X103000000Y-132000000D02*
X85000000Y-132000000D01*
X103000000Y-159000000D02*
X103000000Y-132000000D01*
X85000000Y-159000000D02*
X103000000Y-159000000D01*
X85000000Y-158000000D02*
X85000000Y-159000000D01*
X85000000Y-132000000D02*
X85000000Y-158000000D01*
X134000000Y-113000000D02*
X134000000Y-93000000D01*
X55000000Y-113000000D02*
X134000000Y-113000000D01*
X55000000Y-93000000D02*
X55000000Y-113000000D01*
X134000000Y-93000000D02*
X55000000Y-93000000D01*
D11*
X94952380Y-143095238D02*
X93952380Y-143095238D01*
X94428571Y-143095238D02*
X94428571Y-143666666D01*
X94952380Y-143666666D02*
X93952380Y-143666666D01*
X93952380Y-144047619D02*
X94952380Y-144285714D01*
X94238095Y-144476190D01*
X94952380Y-144666666D01*
X93952380Y-144904761D01*
X94571428Y-145285714D02*
X94571428Y-146047619D01*
X94047619Y-146476190D02*
X94000000Y-146523809D01*
X93952380Y-146619047D01*
X93952380Y-146857142D01*
X94000000Y-146952380D01*
X94047619Y-147000000D01*
X94142857Y-147047619D01*
X94238095Y-147047619D01*
X94380952Y-147000000D01*
X94952380Y-146428571D01*
X94952380Y-147047619D01*
X93952380Y-147666666D02*
X93952380Y-147761904D01*
X94000000Y-147857142D01*
X94047619Y-147904761D01*
X94142857Y-147952380D01*
X94333333Y-148000000D01*
X94571428Y-148000000D01*
X94761904Y-147952380D01*
X94857142Y-147904761D01*
X94904761Y-147857142D01*
X94952380Y-147761904D01*
X94952380Y-147666666D01*
X94904761Y-147571428D01*
X94857142Y-147523809D01*
X94761904Y-147476190D01*
X94571428Y-147428571D01*
X94333333Y-147428571D01*
X94142857Y-147476190D01*
X94047619Y-147523809D01*
X94000000Y-147571428D01*
X93952380Y-147666666D01*
X94952380Y-148952380D02*
X94952380Y-148380952D01*
X94952380Y-148666666D02*
X93952380Y-148666666D01*
X94095238Y-148571428D01*
X94190476Y-148476190D01*
X94238095Y-148380952D01*
X137619047Y-93952380D02*
X137619047Y-92952380D01*
X137619047Y-93428571D02*
X137047619Y-93428571D01*
X137047619Y-93952380D02*
X137047619Y-92952380D01*
X136428571Y-93952380D02*
X136523809Y-93904761D01*
X136571428Y-93857142D01*
X136619047Y-93761904D01*
X136619047Y-93476190D01*
X136571428Y-93380952D01*
X136523809Y-93333333D01*
X136428571Y-93285714D01*
X136285714Y-93285714D01*
X136190476Y-93333333D01*
X136142857Y-93380952D01*
X136095238Y-93476190D01*
X136095238Y-93761904D01*
X136142857Y-93857142D01*
X136190476Y-93904761D01*
X136285714Y-93952380D01*
X136428571Y-93952380D01*
X135523809Y-93952380D02*
X135619047Y-93904761D01*
X135666666Y-93809523D01*
X135666666Y-92952380D01*
X134714285Y-93952380D02*
X134714285Y-92952380D01*
X134714285Y-93904761D02*
X134809523Y-93952380D01*
X135000000Y-93952380D01*
X135095238Y-93904761D01*
X135142857Y-93857142D01*
X135190476Y-93761904D01*
X135190476Y-93476190D01*
X135142857Y-93380952D01*
X135095238Y-93333333D01*
X135000000Y-93285714D01*
X134809523Y-93285714D01*
X134714285Y-93333333D01*
X133857142Y-93904761D02*
X133952380Y-93952380D01*
X134142857Y-93952380D01*
X134238095Y-93904761D01*
X134285714Y-93809523D01*
X134285714Y-93428571D01*
X134238095Y-93333333D01*
X134142857Y-93285714D01*
X133952380Y-93285714D01*
X133857142Y-93333333D01*
X133809523Y-93428571D01*
X133809523Y-93523809D01*
X134285714Y-93619047D01*
X133380952Y-93952380D02*
X133380952Y-93285714D01*
X133380952Y-93476190D02*
X133333333Y-93380952D01*
X133285714Y-93333333D01*
X133190476Y-93285714D01*
X133095238Y-93285714D01*
X132809523Y-93047619D02*
X132761904Y-93000000D01*
X132666666Y-92952380D01*
X132428571Y-92952380D01*
X132333333Y-93000000D01*
X132285714Y-93047619D01*
X132238095Y-93142857D01*
X132238095Y-93238095D01*
X132285714Y-93380952D01*
X132857142Y-93952380D01*
X132238095Y-93952380D01*
X131619047Y-92952380D02*
X131523809Y-92952380D01*
X131428571Y-93000000D01*
X131380952Y-93047619D01*
X131333333Y-93142857D01*
X131285714Y-93333333D01*
X131285714Y-93571428D01*
X131333333Y-93761904D01*
X131380952Y-93857142D01*
X131428571Y-93904761D01*
X131523809Y-93952380D01*
X131619047Y-93952380D01*
X131714285Y-93904761D01*
X131761904Y-93857142D01*
X131809523Y-93761904D01*
X131857142Y-93571428D01*
X131857142Y-93333333D01*
X131809523Y-93142857D01*
X131761904Y-93047619D01*
X131714285Y-93000000D01*
X131619047Y-92952380D01*
X130333333Y-93952380D02*
X130904761Y-93952380D01*
X130619047Y-93952380D02*
X130619047Y-92952380D01*
X130714285Y-93095238D01*
X130809523Y-93190476D01*
X130904761Y-93238095D01*
M02*
