G04 #@! TF.GenerationSoftware,KiCad,Pcbnew,(5.1.10)-1*
G04 #@! TF.CreationDate,2021-10-29T16:39:56-07:00*
G04 #@! TF.ProjectId,CI_ComPCB,43495f43-6f6d-4504-9342-2e6b69636164,rev?*
G04 #@! TF.SameCoordinates,Original*
G04 #@! TF.FileFunction,Legend,Top*
G04 #@! TF.FilePolarity,Positive*
%FSLAX46Y46*%
G04 Gerber Fmt 4.6, Leading zero omitted, Abs format (unit mm)*
G04 Created by KiCad (PCBNEW (5.1.10)-1) date 2021-10-29 16:39:56*
%MOMM*%
%LPD*%
G01*
G04 APERTURE LIST*
%ADD10C,0.150000*%
%ADD11C,0.500000*%
%ADD12C,0.300000*%
%ADD13C,0.127000*%
%ADD14C,0.100000*%
%ADD15C,0.120000*%
%ADD16C,0.200000*%
%ADD17C,0.254000*%
G04 APERTURE END LIST*
D10*
X102971904Y-92602380D02*
X102971904Y-91602380D01*
X103448095Y-91935714D02*
X103448095Y-92602380D01*
X103448095Y-92030952D02*
X103495714Y-91983333D01*
X103590952Y-91935714D01*
X103733809Y-91935714D01*
X103829047Y-91983333D01*
X103876666Y-92078571D01*
X103876666Y-92602380D01*
X105067142Y-91554761D02*
X104210000Y-92840476D01*
X105590952Y-91602380D02*
X105781428Y-91602380D01*
X105876666Y-91650000D01*
X105971904Y-91745238D01*
X106019523Y-91935714D01*
X106019523Y-92269047D01*
X105971904Y-92459523D01*
X105876666Y-92554761D01*
X105781428Y-92602380D01*
X105590952Y-92602380D01*
X105495714Y-92554761D01*
X105400476Y-92459523D01*
X105352857Y-92269047D01*
X105352857Y-91935714D01*
X105400476Y-91745238D01*
X105495714Y-91650000D01*
X105590952Y-91602380D01*
X106876666Y-91935714D02*
X106876666Y-92602380D01*
X106448095Y-91935714D02*
X106448095Y-92459523D01*
X106495714Y-92554761D01*
X106590952Y-92602380D01*
X106733809Y-92602380D01*
X106829047Y-92554761D01*
X106876666Y-92507142D01*
X107210000Y-91935714D02*
X107590952Y-91935714D01*
X107352857Y-91602380D02*
X107352857Y-92459523D01*
X107400476Y-92554761D01*
X107495714Y-92602380D01*
X107590952Y-92602380D01*
D11*
X190489047Y-142020952D02*
X189655714Y-140830476D01*
X189060476Y-142020952D02*
X189060476Y-139520952D01*
X190012857Y-139520952D01*
X190250952Y-139640000D01*
X190370000Y-139759047D01*
X190489047Y-139997142D01*
X190489047Y-140354285D01*
X190370000Y-140592380D01*
X190250952Y-140711428D01*
X190012857Y-140830476D01*
X189060476Y-140830476D01*
X192631904Y-142020952D02*
X192631904Y-140711428D01*
X192512857Y-140473333D01*
X192274761Y-140354285D01*
X191798571Y-140354285D01*
X191560476Y-140473333D01*
X192631904Y-141901904D02*
X192393809Y-142020952D01*
X191798571Y-142020952D01*
X191560476Y-141901904D01*
X191441428Y-141663809D01*
X191441428Y-141425714D01*
X191560476Y-141187619D01*
X191798571Y-141068571D01*
X192393809Y-141068571D01*
X192631904Y-140949523D01*
X194893809Y-141901904D02*
X194655714Y-142020952D01*
X194179523Y-142020952D01*
X193941428Y-141901904D01*
X193822380Y-141782857D01*
X193703333Y-141544761D01*
X193703333Y-140830476D01*
X193822380Y-140592380D01*
X193941428Y-140473333D01*
X194179523Y-140354285D01*
X194655714Y-140354285D01*
X194893809Y-140473333D01*
X195965238Y-142020952D02*
X195965238Y-139520952D01*
X196203333Y-141068571D02*
X196917619Y-142020952D01*
X196917619Y-140354285D02*
X195965238Y-141306666D01*
X199774761Y-141901904D02*
X200131904Y-142020952D01*
X200727142Y-142020952D01*
X200965238Y-141901904D01*
X201084285Y-141782857D01*
X201203333Y-141544761D01*
X201203333Y-141306666D01*
X201084285Y-141068571D01*
X200965238Y-140949523D01*
X200727142Y-140830476D01*
X200250952Y-140711428D01*
X200012857Y-140592380D01*
X199893809Y-140473333D01*
X199774761Y-140235238D01*
X199774761Y-139997142D01*
X199893809Y-139759047D01*
X200012857Y-139640000D01*
X200250952Y-139520952D01*
X200846190Y-139520952D01*
X201203333Y-139640000D01*
X202274761Y-142020952D02*
X202274761Y-140354285D01*
X202274761Y-139520952D02*
X202155714Y-139640000D01*
X202274761Y-139759047D01*
X202393809Y-139640000D01*
X202274761Y-139520952D01*
X202274761Y-139759047D01*
X204536666Y-142020952D02*
X204536666Y-139520952D01*
X204536666Y-141901904D02*
X204298571Y-142020952D01*
X203822380Y-142020952D01*
X203584285Y-141901904D01*
X203465238Y-141782857D01*
X203346190Y-141544761D01*
X203346190Y-140830476D01*
X203465238Y-140592380D01*
X203584285Y-140473333D01*
X203822380Y-140354285D01*
X204298571Y-140354285D01*
X204536666Y-140473333D01*
X206679523Y-141901904D02*
X206441428Y-142020952D01*
X205965238Y-142020952D01*
X205727142Y-141901904D01*
X205608095Y-141663809D01*
X205608095Y-140711428D01*
X205727142Y-140473333D01*
X205965238Y-140354285D01*
X206441428Y-140354285D01*
X206679523Y-140473333D01*
X206798571Y-140711428D01*
X206798571Y-140949523D01*
X205608095Y-141187619D01*
D10*
X176489047Y-74467142D02*
X176441428Y-74514761D01*
X176298571Y-74562380D01*
X176203333Y-74562380D01*
X176060476Y-74514761D01*
X175965238Y-74419523D01*
X175917619Y-74324285D01*
X175870000Y-74133809D01*
X175870000Y-73990952D01*
X175917619Y-73800476D01*
X175965238Y-73705238D01*
X176060476Y-73610000D01*
X176203333Y-73562380D01*
X176298571Y-73562380D01*
X176441428Y-73610000D01*
X176489047Y-73657619D01*
X177060476Y-74562380D02*
X176965238Y-74514761D01*
X176917619Y-74467142D01*
X176870000Y-74371904D01*
X176870000Y-74086190D01*
X176917619Y-73990952D01*
X176965238Y-73943333D01*
X177060476Y-73895714D01*
X177203333Y-73895714D01*
X177298571Y-73943333D01*
X177346190Y-73990952D01*
X177393809Y-74086190D01*
X177393809Y-74371904D01*
X177346190Y-74467142D01*
X177298571Y-74514761D01*
X177203333Y-74562380D01*
X177060476Y-74562380D01*
X177822380Y-73895714D02*
X177822380Y-74562380D01*
X177822380Y-73990952D02*
X177870000Y-73943333D01*
X177965238Y-73895714D01*
X178108095Y-73895714D01*
X178203333Y-73943333D01*
X178250952Y-74038571D01*
X178250952Y-74562380D01*
X178584285Y-73895714D02*
X178965238Y-73895714D01*
X178727142Y-73562380D02*
X178727142Y-74419523D01*
X178774761Y-74514761D01*
X178870000Y-74562380D01*
X178965238Y-74562380D01*
X179298571Y-74562380D02*
X179298571Y-73895714D01*
X179298571Y-74086190D02*
X179346190Y-73990952D01*
X179393809Y-73943333D01*
X179489047Y-73895714D01*
X179584285Y-73895714D01*
X180060476Y-74562380D02*
X179965238Y-74514761D01*
X179917619Y-74467142D01*
X179870000Y-74371904D01*
X179870000Y-74086190D01*
X179917619Y-73990952D01*
X179965238Y-73943333D01*
X180060476Y-73895714D01*
X180203333Y-73895714D01*
X180298571Y-73943333D01*
X180346190Y-73990952D01*
X180393809Y-74086190D01*
X180393809Y-74371904D01*
X180346190Y-74467142D01*
X180298571Y-74514761D01*
X180203333Y-74562380D01*
X180060476Y-74562380D01*
X180965238Y-74562380D02*
X180870000Y-74514761D01*
X180822380Y-74419523D01*
X180822380Y-73562380D01*
X181489047Y-74562380D02*
X181393809Y-74514761D01*
X181346190Y-74419523D01*
X181346190Y-73562380D01*
X182250952Y-74514761D02*
X182155714Y-74562380D01*
X181965238Y-74562380D01*
X181870000Y-74514761D01*
X181822380Y-74419523D01*
X181822380Y-74038571D01*
X181870000Y-73943333D01*
X181965238Y-73895714D01*
X182155714Y-73895714D01*
X182250952Y-73943333D01*
X182298571Y-74038571D01*
X182298571Y-74133809D01*
X181822380Y-74229047D01*
X182727142Y-74562380D02*
X182727142Y-73895714D01*
X182727142Y-74086190D02*
X182774761Y-73990952D01*
X182822380Y-73943333D01*
X182917619Y-73895714D01*
X183012857Y-73895714D01*
X184060476Y-74514761D02*
X184203333Y-74562380D01*
X184441428Y-74562380D01*
X184536666Y-74514761D01*
X184584285Y-74467142D01*
X184631904Y-74371904D01*
X184631904Y-74276666D01*
X184584285Y-74181428D01*
X184536666Y-74133809D01*
X184441428Y-74086190D01*
X184250952Y-74038571D01*
X184155714Y-73990952D01*
X184108095Y-73943333D01*
X184060476Y-73848095D01*
X184060476Y-73752857D01*
X184108095Y-73657619D01*
X184155714Y-73610000D01*
X184250952Y-73562380D01*
X184489047Y-73562380D01*
X184631904Y-73610000D01*
X185060476Y-74562380D02*
X185060476Y-73895714D01*
X185060476Y-73562380D02*
X185012857Y-73610000D01*
X185060476Y-73657619D01*
X185108095Y-73610000D01*
X185060476Y-73562380D01*
X185060476Y-73657619D01*
X185965238Y-74562380D02*
X185965238Y-73562380D01*
X185965238Y-74514761D02*
X185870000Y-74562380D01*
X185679523Y-74562380D01*
X185584285Y-74514761D01*
X185536666Y-74467142D01*
X185489047Y-74371904D01*
X185489047Y-74086190D01*
X185536666Y-73990952D01*
X185584285Y-73943333D01*
X185679523Y-73895714D01*
X185870000Y-73895714D01*
X185965238Y-73943333D01*
X186822380Y-74514761D02*
X186727142Y-74562380D01*
X186536666Y-74562380D01*
X186441428Y-74514761D01*
X186393809Y-74419523D01*
X186393809Y-74038571D01*
X186441428Y-73943333D01*
X186536666Y-73895714D01*
X186727142Y-73895714D01*
X186822380Y-73943333D01*
X186870000Y-74038571D01*
X186870000Y-74133809D01*
X186393809Y-74229047D01*
X144306190Y-82162380D02*
X144639523Y-83162380D01*
X144972857Y-82162380D01*
X145449047Y-83162380D02*
X145353809Y-83114761D01*
X145306190Y-83067142D01*
X145258571Y-82971904D01*
X145258571Y-82686190D01*
X145306190Y-82590952D01*
X145353809Y-82543333D01*
X145449047Y-82495714D01*
X145591904Y-82495714D01*
X145687142Y-82543333D01*
X145734761Y-82590952D01*
X145782380Y-82686190D01*
X145782380Y-82971904D01*
X145734761Y-83067142D01*
X145687142Y-83114761D01*
X145591904Y-83162380D01*
X145449047Y-83162380D01*
X146639523Y-82495714D02*
X146639523Y-83162380D01*
X146210952Y-82495714D02*
X146210952Y-83019523D01*
X146258571Y-83114761D01*
X146353809Y-83162380D01*
X146496666Y-83162380D01*
X146591904Y-83114761D01*
X146639523Y-83067142D01*
X146972857Y-82495714D02*
X147353809Y-82495714D01*
X147115714Y-82162380D02*
X147115714Y-83019523D01*
X147163333Y-83114761D01*
X147258571Y-83162380D01*
X147353809Y-83162380D01*
X145196190Y-86202380D02*
X145529523Y-87202380D01*
X145862857Y-86202380D01*
X146196190Y-87202380D02*
X146196190Y-86535714D01*
X146196190Y-86202380D02*
X146148571Y-86250000D01*
X146196190Y-86297619D01*
X146243809Y-86250000D01*
X146196190Y-86202380D01*
X146196190Y-86297619D01*
X146672380Y-86535714D02*
X146672380Y-87202380D01*
X146672380Y-86630952D02*
X146720000Y-86583333D01*
X146815238Y-86535714D01*
X146958095Y-86535714D01*
X147053333Y-86583333D01*
X147100952Y-86678571D01*
X147100952Y-87202380D01*
X153998095Y-77910000D02*
X153902857Y-77862380D01*
X153760000Y-77862380D01*
X153617142Y-77910000D01*
X153521904Y-78005238D01*
X153474285Y-78100476D01*
X153426666Y-78290952D01*
X153426666Y-78433809D01*
X153474285Y-78624285D01*
X153521904Y-78719523D01*
X153617142Y-78814761D01*
X153760000Y-78862380D01*
X153855238Y-78862380D01*
X153998095Y-78814761D01*
X154045714Y-78767142D01*
X154045714Y-78433809D01*
X153855238Y-78433809D01*
X154474285Y-78862380D02*
X154474285Y-77862380D01*
X155045714Y-78862380D01*
X155045714Y-77862380D01*
X155521904Y-78862380D02*
X155521904Y-77862380D01*
X155760000Y-77862380D01*
X155902857Y-77910000D01*
X155998095Y-78005238D01*
X156045714Y-78100476D01*
X156093333Y-78290952D01*
X156093333Y-78433809D01*
X156045714Y-78624285D01*
X155998095Y-78719523D01*
X155902857Y-78814761D01*
X155760000Y-78862380D01*
X155521904Y-78862380D01*
X145718571Y-135680000D02*
X145766190Y-135537142D01*
X145813809Y-135489523D01*
X145909047Y-135441904D01*
X146051904Y-135441904D01*
X146147142Y-135489523D01*
X146194761Y-135537142D01*
X146242380Y-135632380D01*
X146242380Y-136013333D01*
X145242380Y-136013333D01*
X145242380Y-135680000D01*
X145290000Y-135584761D01*
X145337619Y-135537142D01*
X145432857Y-135489523D01*
X145528095Y-135489523D01*
X145623333Y-135537142D01*
X145670952Y-135584761D01*
X145718571Y-135680000D01*
X145718571Y-136013333D01*
X146242380Y-134584761D02*
X145718571Y-134584761D01*
X145623333Y-134632380D01*
X145575714Y-134727619D01*
X145575714Y-134918095D01*
X145623333Y-135013333D01*
X146194761Y-134584761D02*
X146242380Y-134680000D01*
X146242380Y-134918095D01*
X146194761Y-135013333D01*
X146099523Y-135060952D01*
X146004285Y-135060952D01*
X145909047Y-135013333D01*
X145861428Y-134918095D01*
X145861428Y-134680000D01*
X145813809Y-134584761D01*
X145575714Y-134251428D02*
X145575714Y-133870476D01*
X145242380Y-134108571D02*
X146099523Y-134108571D01*
X146194761Y-134060952D01*
X146242380Y-133965714D01*
X146242380Y-133870476D01*
X145575714Y-133680000D02*
X145575714Y-133299047D01*
X145242380Y-133537142D02*
X146099523Y-133537142D01*
X146194761Y-133489523D01*
X146242380Y-133394285D01*
X146242380Y-133299047D01*
X146194761Y-132584761D02*
X146242380Y-132680000D01*
X146242380Y-132870476D01*
X146194761Y-132965714D01*
X146099523Y-133013333D01*
X145718571Y-133013333D01*
X145623333Y-132965714D01*
X145575714Y-132870476D01*
X145575714Y-132680000D01*
X145623333Y-132584761D01*
X145718571Y-132537142D01*
X145813809Y-132537142D01*
X145909047Y-133013333D01*
X146242380Y-132108571D02*
X145575714Y-132108571D01*
X145766190Y-132108571D02*
X145670952Y-132060952D01*
X145623333Y-132013333D01*
X145575714Y-131918095D01*
X145575714Y-131822857D01*
X145575714Y-131584761D02*
X146242380Y-131346666D01*
X145575714Y-131108571D02*
X146242380Y-131346666D01*
X146480476Y-131441904D01*
X146528095Y-131489523D01*
X146575714Y-131584761D01*
X145242380Y-129775238D02*
X145242380Y-129584761D01*
X145290000Y-129489523D01*
X145385238Y-129394285D01*
X145575714Y-129346666D01*
X145909047Y-129346666D01*
X146099523Y-129394285D01*
X146194761Y-129489523D01*
X146242380Y-129584761D01*
X146242380Y-129775238D01*
X146194761Y-129870476D01*
X146099523Y-129965714D01*
X145909047Y-130013333D01*
X145575714Y-130013333D01*
X145385238Y-129965714D01*
X145290000Y-129870476D01*
X145242380Y-129775238D01*
X146242380Y-128918095D02*
X145242380Y-128918095D01*
X146242380Y-128346666D01*
X145242380Y-128346666D01*
X113984285Y-137974761D02*
X114270000Y-137974761D01*
X114412857Y-138070000D01*
X114555714Y-138260476D01*
X114627142Y-138641428D01*
X114627142Y-139308095D01*
X114555714Y-139689047D01*
X114412857Y-139879523D01*
X114270000Y-139974761D01*
X113984285Y-139974761D01*
X113841428Y-139879523D01*
X113698571Y-139689047D01*
X113627142Y-139308095D01*
X113627142Y-138641428D01*
X113698571Y-138260476D01*
X113841428Y-138070000D01*
X113984285Y-137974761D01*
X115770000Y-138927142D02*
X115270000Y-138927142D01*
X115270000Y-139974761D02*
X115270000Y-137974761D01*
X115984285Y-137974761D01*
X117055714Y-138927142D02*
X116555714Y-138927142D01*
X116555714Y-139974761D02*
X116555714Y-137974761D01*
X117270000Y-137974761D01*
X118984285Y-139212857D02*
X120127142Y-139212857D01*
X120841428Y-139212857D02*
X121984285Y-139212857D01*
X122698571Y-139212857D02*
X123841428Y-139212857D01*
X124555714Y-139212857D02*
X125698571Y-139212857D01*
X126412857Y-139212857D02*
X127555714Y-139212857D01*
X129698571Y-137974761D02*
X129984285Y-137974761D01*
X130127142Y-138070000D01*
X130270000Y-138260476D01*
X130341428Y-138641428D01*
X130341428Y-139308095D01*
X130270000Y-139689047D01*
X130127142Y-139879523D01*
X129984285Y-139974761D01*
X129698571Y-139974761D01*
X129555714Y-139879523D01*
X129412857Y-139689047D01*
X129341428Y-139308095D01*
X129341428Y-138641428D01*
X129412857Y-138260476D01*
X129555714Y-138070000D01*
X129698571Y-137974761D01*
X130984285Y-139974761D02*
X130984285Y-137974761D01*
X131841428Y-139974761D01*
X131841428Y-137974761D01*
X169940000Y-152787142D02*
X169892380Y-152834761D01*
X169749523Y-152882380D01*
X169654285Y-152882380D01*
X169511428Y-152834761D01*
X169416190Y-152739523D01*
X169368571Y-152644285D01*
X169320952Y-152453809D01*
X169320952Y-152310952D01*
X169368571Y-152120476D01*
X169416190Y-152025238D01*
X169511428Y-151930000D01*
X169654285Y-151882380D01*
X169749523Y-151882380D01*
X169892380Y-151930000D01*
X169940000Y-151977619D01*
X170368571Y-152882380D02*
X170368571Y-151882380D01*
X170797142Y-152882380D02*
X170797142Y-152358571D01*
X170749523Y-152263333D01*
X170654285Y-152215714D01*
X170511428Y-152215714D01*
X170416190Y-152263333D01*
X170368571Y-152310952D01*
X171178095Y-151882380D02*
X171797142Y-151882380D01*
X171463809Y-152263333D01*
X171606666Y-152263333D01*
X171701904Y-152310952D01*
X171749523Y-152358571D01*
X171797142Y-152453809D01*
X171797142Y-152691904D01*
X171749523Y-152787142D01*
X171701904Y-152834761D01*
X171606666Y-152882380D01*
X171320952Y-152882380D01*
X171225714Y-152834761D01*
X171178095Y-152787142D01*
X173416190Y-152882380D02*
X173416190Y-151882380D01*
X173416190Y-152834761D02*
X173320952Y-152882380D01*
X173130476Y-152882380D01*
X173035238Y-152834761D01*
X172987619Y-152787142D01*
X172940000Y-152691904D01*
X172940000Y-152406190D01*
X172987619Y-152310952D01*
X173035238Y-152263333D01*
X173130476Y-152215714D01*
X173320952Y-152215714D01*
X173416190Y-152263333D01*
X173892380Y-152882380D02*
X173892380Y-152215714D01*
X173892380Y-151882380D02*
X173844761Y-151930000D01*
X173892380Y-151977619D01*
X173940000Y-151930000D01*
X173892380Y-151882380D01*
X173892380Y-151977619D01*
X174320952Y-152834761D02*
X174416190Y-152882380D01*
X174606666Y-152882380D01*
X174701904Y-152834761D01*
X174749523Y-152739523D01*
X174749523Y-152691904D01*
X174701904Y-152596666D01*
X174606666Y-152549047D01*
X174463809Y-152549047D01*
X174368571Y-152501428D01*
X174320952Y-152406190D01*
X174320952Y-152358571D01*
X174368571Y-152263333D01*
X174463809Y-152215714D01*
X174606666Y-152215714D01*
X174701904Y-152263333D01*
X175130476Y-152834761D02*
X175225714Y-152882380D01*
X175416190Y-152882380D01*
X175511428Y-152834761D01*
X175559047Y-152739523D01*
X175559047Y-152691904D01*
X175511428Y-152596666D01*
X175416190Y-152549047D01*
X175273333Y-152549047D01*
X175178095Y-152501428D01*
X175130476Y-152406190D01*
X175130476Y-152358571D01*
X175178095Y-152263333D01*
X175273333Y-152215714D01*
X175416190Y-152215714D01*
X175511428Y-152263333D01*
X161288095Y-116610000D02*
X161192857Y-116562380D01*
X161050000Y-116562380D01*
X160907142Y-116610000D01*
X160811904Y-116705238D01*
X160764285Y-116800476D01*
X160716666Y-116990952D01*
X160716666Y-117133809D01*
X160764285Y-117324285D01*
X160811904Y-117419523D01*
X160907142Y-117514761D01*
X161050000Y-117562380D01*
X161145238Y-117562380D01*
X161288095Y-117514761D01*
X161335714Y-117467142D01*
X161335714Y-117133809D01*
X161145238Y-117133809D01*
X161764285Y-117562380D02*
X161764285Y-116562380D01*
X162335714Y-117562380D01*
X162335714Y-116562380D01*
X162811904Y-117562380D02*
X162811904Y-116562380D01*
X163050000Y-116562380D01*
X163192857Y-116610000D01*
X163288095Y-116705238D01*
X163335714Y-116800476D01*
X163383333Y-116990952D01*
X163383333Y-117133809D01*
X163335714Y-117324285D01*
X163288095Y-117419523D01*
X163192857Y-117514761D01*
X163050000Y-117562380D01*
X162811904Y-117562380D01*
X168286190Y-124392380D02*
X168619523Y-125392380D01*
X168952857Y-124392380D01*
X169286190Y-125392380D02*
X169286190Y-124725714D01*
X169286190Y-124392380D02*
X169238571Y-124440000D01*
X169286190Y-124487619D01*
X169333809Y-124440000D01*
X169286190Y-124392380D01*
X169286190Y-124487619D01*
X169762380Y-124725714D02*
X169762380Y-125392380D01*
X169762380Y-124820952D02*
X169810000Y-124773333D01*
X169905238Y-124725714D01*
X170048095Y-124725714D01*
X170143333Y-124773333D01*
X170190952Y-124868571D01*
X170190952Y-125392380D01*
X154886190Y-124827380D02*
X155219523Y-125827380D01*
X155552857Y-124827380D01*
X156029047Y-125827380D02*
X155933809Y-125779761D01*
X155886190Y-125732142D01*
X155838571Y-125636904D01*
X155838571Y-125351190D01*
X155886190Y-125255952D01*
X155933809Y-125208333D01*
X156029047Y-125160714D01*
X156171904Y-125160714D01*
X156267142Y-125208333D01*
X156314761Y-125255952D01*
X156362380Y-125351190D01*
X156362380Y-125636904D01*
X156314761Y-125732142D01*
X156267142Y-125779761D01*
X156171904Y-125827380D01*
X156029047Y-125827380D01*
X157219523Y-125160714D02*
X157219523Y-125827380D01*
X156790952Y-125160714D02*
X156790952Y-125684523D01*
X156838571Y-125779761D01*
X156933809Y-125827380D01*
X157076666Y-125827380D01*
X157171904Y-125779761D01*
X157219523Y-125732142D01*
X157552857Y-125160714D02*
X157933809Y-125160714D01*
X157695714Y-124827380D02*
X157695714Y-125684523D01*
X157743333Y-125779761D01*
X157838571Y-125827380D01*
X157933809Y-125827380D01*
X155100476Y-127477380D02*
X155100476Y-126477380D01*
X155338571Y-126477380D01*
X155481428Y-126525000D01*
X155576666Y-126620238D01*
X155624285Y-126715476D01*
X155671904Y-126905952D01*
X155671904Y-127048809D01*
X155624285Y-127239285D01*
X155576666Y-127334523D01*
X155481428Y-127429761D01*
X155338571Y-127477380D01*
X155100476Y-127477380D01*
X156100476Y-127477380D02*
X156100476Y-126810714D01*
X156100476Y-126477380D02*
X156052857Y-126525000D01*
X156100476Y-126572619D01*
X156148095Y-126525000D01*
X156100476Y-126477380D01*
X156100476Y-126572619D01*
X156529047Y-127429761D02*
X156624285Y-127477380D01*
X156814761Y-127477380D01*
X156910000Y-127429761D01*
X156957619Y-127334523D01*
X156957619Y-127286904D01*
X156910000Y-127191666D01*
X156814761Y-127144047D01*
X156671904Y-127144047D01*
X156576666Y-127096428D01*
X156529047Y-127001190D01*
X156529047Y-126953571D01*
X156576666Y-126858333D01*
X156671904Y-126810714D01*
X156814761Y-126810714D01*
X156910000Y-126858333D01*
X157338571Y-127429761D02*
X157433809Y-127477380D01*
X157624285Y-127477380D01*
X157719523Y-127429761D01*
X157767142Y-127334523D01*
X157767142Y-127286904D01*
X157719523Y-127191666D01*
X157624285Y-127144047D01*
X157481428Y-127144047D01*
X157386190Y-127096428D01*
X157338571Y-127001190D01*
X157338571Y-126953571D01*
X157386190Y-126858333D01*
X157481428Y-126810714D01*
X157624285Y-126810714D01*
X157719523Y-126858333D01*
X113940000Y-107577142D02*
X113892380Y-107624761D01*
X113749523Y-107672380D01*
X113654285Y-107672380D01*
X113511428Y-107624761D01*
X113416190Y-107529523D01*
X113368571Y-107434285D01*
X113320952Y-107243809D01*
X113320952Y-107100952D01*
X113368571Y-106910476D01*
X113416190Y-106815238D01*
X113511428Y-106720000D01*
X113654285Y-106672380D01*
X113749523Y-106672380D01*
X113892380Y-106720000D01*
X113940000Y-106767619D01*
X114368571Y-107672380D02*
X114368571Y-106672380D01*
X114797142Y-107672380D02*
X114797142Y-107148571D01*
X114749523Y-107053333D01*
X114654285Y-107005714D01*
X114511428Y-107005714D01*
X114416190Y-107053333D01*
X114368571Y-107100952D01*
X115701904Y-107672380D02*
X115701904Y-107148571D01*
X115654285Y-107053333D01*
X115559047Y-107005714D01*
X115368571Y-107005714D01*
X115273333Y-107053333D01*
X115701904Y-107624761D02*
X115606666Y-107672380D01*
X115368571Y-107672380D01*
X115273333Y-107624761D01*
X115225714Y-107529523D01*
X115225714Y-107434285D01*
X115273333Y-107339047D01*
X115368571Y-107291428D01*
X115606666Y-107291428D01*
X115701904Y-107243809D01*
X116178095Y-107672380D02*
X116178095Y-107005714D01*
X116178095Y-107196190D02*
X116225714Y-107100952D01*
X116273333Y-107053333D01*
X116368571Y-107005714D01*
X116463809Y-107005714D01*
X117225714Y-107005714D02*
X117225714Y-107815238D01*
X117178095Y-107910476D01*
X117130476Y-107958095D01*
X117035238Y-108005714D01*
X116892380Y-108005714D01*
X116797142Y-107958095D01*
X117225714Y-107624761D02*
X117130476Y-107672380D01*
X116940000Y-107672380D01*
X116844761Y-107624761D01*
X116797142Y-107577142D01*
X116749523Y-107481904D01*
X116749523Y-107196190D01*
X116797142Y-107100952D01*
X116844761Y-107053333D01*
X116940000Y-107005714D01*
X117130476Y-107005714D01*
X117225714Y-107053333D01*
X117701904Y-107672380D02*
X117701904Y-107005714D01*
X117701904Y-106672380D02*
X117654285Y-106720000D01*
X117701904Y-106767619D01*
X117749523Y-106720000D01*
X117701904Y-106672380D01*
X117701904Y-106767619D01*
X118178095Y-107005714D02*
X118178095Y-107672380D01*
X118178095Y-107100952D02*
X118225714Y-107053333D01*
X118320952Y-107005714D01*
X118463809Y-107005714D01*
X118559047Y-107053333D01*
X118606666Y-107148571D01*
X118606666Y-107672380D01*
X119511428Y-107005714D02*
X119511428Y-107815238D01*
X119463809Y-107910476D01*
X119416190Y-107958095D01*
X119320952Y-108005714D01*
X119178095Y-108005714D01*
X119082857Y-107958095D01*
X119511428Y-107624761D02*
X119416190Y-107672380D01*
X119225714Y-107672380D01*
X119130476Y-107624761D01*
X119082857Y-107577142D01*
X119035238Y-107481904D01*
X119035238Y-107196190D01*
X119082857Y-107100952D01*
X119130476Y-107053333D01*
X119225714Y-107005714D01*
X119416190Y-107005714D01*
X119511428Y-107053333D01*
X128974285Y-100722380D02*
X128974285Y-99722380D01*
X129545714Y-100722380D01*
X129545714Y-99722380D01*
X130593333Y-100627142D02*
X130545714Y-100674761D01*
X130402857Y-100722380D01*
X130307619Y-100722380D01*
X130164761Y-100674761D01*
X130069523Y-100579523D01*
X130021904Y-100484285D01*
X129974285Y-100293809D01*
X129974285Y-100150952D01*
X130021904Y-99960476D01*
X130069523Y-99865238D01*
X130164761Y-99770000D01*
X130307619Y-99722380D01*
X130402857Y-99722380D01*
X130545714Y-99770000D01*
X130593333Y-99817619D01*
X129046190Y-96932380D02*
X129379523Y-97932380D01*
X129712857Y-96932380D01*
X130046190Y-97932380D02*
X130046190Y-97265714D01*
X130046190Y-96932380D02*
X129998571Y-96980000D01*
X130046190Y-97027619D01*
X130093809Y-96980000D01*
X130046190Y-96932380D01*
X130046190Y-97027619D01*
X130522380Y-97265714D02*
X130522380Y-97932380D01*
X130522380Y-97360952D02*
X130570000Y-97313333D01*
X130665238Y-97265714D01*
X130808095Y-97265714D01*
X130903333Y-97313333D01*
X130950952Y-97408571D01*
X130950952Y-97932380D01*
X129080476Y-95052380D02*
X129080476Y-94052380D01*
X129651904Y-95052380D01*
X129651904Y-94052380D01*
X130318571Y-94052380D02*
X130509047Y-94052380D01*
X130604285Y-94100000D01*
X130699523Y-94195238D01*
X130747142Y-94385714D01*
X130747142Y-94719047D01*
X130699523Y-94909523D01*
X130604285Y-95004761D01*
X130509047Y-95052380D01*
X130318571Y-95052380D01*
X130223333Y-95004761D01*
X130128095Y-94909523D01*
X130080476Y-94719047D01*
X130080476Y-94385714D01*
X130128095Y-94195238D01*
X130223333Y-94100000D01*
X130318571Y-94052380D01*
D12*
X127525714Y-82578571D02*
X128025714Y-84078571D01*
X128525714Y-82578571D01*
X129025714Y-84078571D02*
X129025714Y-83078571D01*
X129025714Y-82578571D02*
X128954285Y-82650000D01*
X129025714Y-82721428D01*
X129097142Y-82650000D01*
X129025714Y-82578571D01*
X129025714Y-82721428D01*
X129739999Y-83078571D02*
X129739999Y-84078571D01*
X129739999Y-83221428D02*
X129811428Y-83150000D01*
X129954285Y-83078571D01*
X130168571Y-83078571D01*
X130311428Y-83150000D01*
X130382857Y-83292857D01*
X130382857Y-84078571D01*
X132882857Y-84078571D02*
X132882857Y-82578571D01*
X132882857Y-84007142D02*
X132739999Y-84078571D01*
X132454285Y-84078571D01*
X132311428Y-84007142D01*
X132239999Y-83935714D01*
X132168571Y-83792857D01*
X132168571Y-83364285D01*
X132239999Y-83221428D01*
X132311428Y-83150000D01*
X132454285Y-83078571D01*
X132739999Y-83078571D01*
X132882857Y-83150000D01*
X133597142Y-84078571D02*
X133597142Y-83078571D01*
X133597142Y-82578571D02*
X133525714Y-82650000D01*
X133597142Y-82721428D01*
X133668571Y-82650000D01*
X133597142Y-82578571D01*
X133597142Y-82721428D01*
X134240000Y-84007142D02*
X134382857Y-84078571D01*
X134668571Y-84078571D01*
X134811428Y-84007142D01*
X134882857Y-83864285D01*
X134882857Y-83792857D01*
X134811428Y-83650000D01*
X134668571Y-83578571D01*
X134454285Y-83578571D01*
X134311428Y-83507142D01*
X134240000Y-83364285D01*
X134240000Y-83292857D01*
X134311428Y-83150000D01*
X134454285Y-83078571D01*
X134668571Y-83078571D01*
X134811428Y-83150000D01*
X136168571Y-84007142D02*
X136025714Y-84078571D01*
X135740000Y-84078571D01*
X135597142Y-84007142D01*
X135525714Y-83935714D01*
X135454285Y-83792857D01*
X135454285Y-83364285D01*
X135525714Y-83221428D01*
X135597142Y-83150000D01*
X135740000Y-83078571D01*
X136025714Y-83078571D01*
X136168571Y-83150000D01*
X137025714Y-84078571D02*
X136882857Y-84007142D01*
X136811428Y-83935714D01*
X136740000Y-83792857D01*
X136740000Y-83364285D01*
X136811428Y-83221428D01*
X136882857Y-83150000D01*
X137025714Y-83078571D01*
X137240000Y-83078571D01*
X137382857Y-83150000D01*
X137454285Y-83221428D01*
X137525714Y-83364285D01*
X137525714Y-83792857D01*
X137454285Y-83935714D01*
X137382857Y-84007142D01*
X137240000Y-84078571D01*
X137025714Y-84078571D01*
X138168571Y-83078571D02*
X138168571Y-84078571D01*
X138168571Y-83221428D02*
X138240000Y-83150000D01*
X138382857Y-83078571D01*
X138597142Y-83078571D01*
X138740000Y-83150000D01*
X138811428Y-83292857D01*
X138811428Y-84078571D01*
X139525714Y-83078571D02*
X139525714Y-84078571D01*
X139525714Y-83221428D02*
X139597142Y-83150000D01*
X139740000Y-83078571D01*
X139954285Y-83078571D01*
X140097142Y-83150000D01*
X140168571Y-83292857D01*
X140168571Y-84078571D01*
X141454285Y-84007142D02*
X141311428Y-84078571D01*
X141025714Y-84078571D01*
X140882857Y-84007142D01*
X140811428Y-83864285D01*
X140811428Y-83292857D01*
X140882857Y-83150000D01*
X141025714Y-83078571D01*
X141311428Y-83078571D01*
X141454285Y-83150000D01*
X141525714Y-83292857D01*
X141525714Y-83435714D01*
X140811428Y-83578571D01*
X142811428Y-84007142D02*
X142668571Y-84078571D01*
X142382857Y-84078571D01*
X142240000Y-84007142D01*
X142168571Y-83935714D01*
X142097142Y-83792857D01*
X142097142Y-83364285D01*
X142168571Y-83221428D01*
X142240000Y-83150000D01*
X142382857Y-83078571D01*
X142668571Y-83078571D01*
X142811428Y-83150000D01*
X143240000Y-83078571D02*
X143811428Y-83078571D01*
X143454285Y-82578571D02*
X143454285Y-83864285D01*
X143525714Y-84007142D01*
X143668571Y-84078571D01*
X143811428Y-84078571D01*
D10*
X134714285Y-132752380D02*
X134714285Y-131752380D01*
X135285714Y-132752380D01*
X135285714Y-131752380D01*
X136333333Y-132657142D02*
X136285714Y-132704761D01*
X136142857Y-132752380D01*
X136047619Y-132752380D01*
X135904761Y-132704761D01*
X135809523Y-132609523D01*
X135761904Y-132514285D01*
X135714285Y-132323809D01*
X135714285Y-132180952D01*
X135761904Y-131990476D01*
X135809523Y-131895238D01*
X135904761Y-131800000D01*
X136047619Y-131752380D01*
X136142857Y-131752380D01*
X136285714Y-131800000D01*
X136333333Y-131847619D01*
X134820476Y-127082380D02*
X134820476Y-126082380D01*
X135391904Y-127082380D01*
X135391904Y-126082380D01*
X136058571Y-126082380D02*
X136249047Y-126082380D01*
X136344285Y-126130000D01*
X136439523Y-126225238D01*
X136487142Y-126415714D01*
X136487142Y-126749047D01*
X136439523Y-126939523D01*
X136344285Y-127034761D01*
X136249047Y-127082380D01*
X136058571Y-127082380D01*
X135963333Y-127034761D01*
X135868095Y-126939523D01*
X135820476Y-126749047D01*
X135820476Y-126415714D01*
X135868095Y-126225238D01*
X135963333Y-126130000D01*
X136058571Y-126082380D01*
X134786190Y-128962380D02*
X135119523Y-129962380D01*
X135452857Y-128962380D01*
X135786190Y-129962380D02*
X135786190Y-129295714D01*
X135786190Y-128962380D02*
X135738571Y-129010000D01*
X135786190Y-129057619D01*
X135833809Y-129010000D01*
X135786190Y-128962380D01*
X135786190Y-129057619D01*
X136262380Y-129295714D02*
X136262380Y-129962380D01*
X136262380Y-129390952D02*
X136310000Y-129343333D01*
X136405238Y-129295714D01*
X136548095Y-129295714D01*
X136643333Y-129343333D01*
X136690952Y-129438571D01*
X136690952Y-129962380D01*
D12*
X127415714Y-114328571D02*
X127915714Y-115828571D01*
X128415714Y-114328571D01*
X128915714Y-115828571D02*
X128915714Y-114828571D01*
X128915714Y-114328571D02*
X128844285Y-114400000D01*
X128915714Y-114471428D01*
X128987142Y-114400000D01*
X128915714Y-114328571D01*
X128915714Y-114471428D01*
X129629999Y-114828571D02*
X129629999Y-115828571D01*
X129629999Y-114971428D02*
X129701428Y-114900000D01*
X129844285Y-114828571D01*
X130058571Y-114828571D01*
X130201428Y-114900000D01*
X130272857Y-115042857D01*
X130272857Y-115828571D01*
X132772857Y-115828571D02*
X132772857Y-114328571D01*
X132772857Y-115757142D02*
X132629999Y-115828571D01*
X132344285Y-115828571D01*
X132201428Y-115757142D01*
X132129999Y-115685714D01*
X132058571Y-115542857D01*
X132058571Y-115114285D01*
X132129999Y-114971428D01*
X132201428Y-114900000D01*
X132344285Y-114828571D01*
X132629999Y-114828571D01*
X132772857Y-114900000D01*
X133487142Y-115828571D02*
X133487142Y-114828571D01*
X133487142Y-114328571D02*
X133415714Y-114400000D01*
X133487142Y-114471428D01*
X133558571Y-114400000D01*
X133487142Y-114328571D01*
X133487142Y-114471428D01*
X134129999Y-115757142D02*
X134272857Y-115828571D01*
X134558571Y-115828571D01*
X134701428Y-115757142D01*
X134772857Y-115614285D01*
X134772857Y-115542857D01*
X134701428Y-115400000D01*
X134558571Y-115328571D01*
X134344285Y-115328571D01*
X134201428Y-115257142D01*
X134129999Y-115114285D01*
X134129999Y-115042857D01*
X134201428Y-114900000D01*
X134344285Y-114828571D01*
X134558571Y-114828571D01*
X134701428Y-114900000D01*
X136058571Y-115757142D02*
X135915714Y-115828571D01*
X135630000Y-115828571D01*
X135487142Y-115757142D01*
X135415714Y-115685714D01*
X135344285Y-115542857D01*
X135344285Y-115114285D01*
X135415714Y-114971428D01*
X135487142Y-114900000D01*
X135630000Y-114828571D01*
X135915714Y-114828571D01*
X136058571Y-114900000D01*
X136915714Y-115828571D02*
X136772857Y-115757142D01*
X136701428Y-115685714D01*
X136630000Y-115542857D01*
X136630000Y-115114285D01*
X136701428Y-114971428D01*
X136772857Y-114900000D01*
X136915714Y-114828571D01*
X137130000Y-114828571D01*
X137272857Y-114900000D01*
X137344285Y-114971428D01*
X137415714Y-115114285D01*
X137415714Y-115542857D01*
X137344285Y-115685714D01*
X137272857Y-115757142D01*
X137130000Y-115828571D01*
X136915714Y-115828571D01*
X138058571Y-114828571D02*
X138058571Y-115828571D01*
X138058571Y-114971428D02*
X138130000Y-114900000D01*
X138272857Y-114828571D01*
X138487142Y-114828571D01*
X138630000Y-114900000D01*
X138701428Y-115042857D01*
X138701428Y-115828571D01*
X139415714Y-114828571D02*
X139415714Y-115828571D01*
X139415714Y-114971428D02*
X139487142Y-114900000D01*
X139630000Y-114828571D01*
X139844285Y-114828571D01*
X139987142Y-114900000D01*
X140058571Y-115042857D01*
X140058571Y-115828571D01*
X141344285Y-115757142D02*
X141201428Y-115828571D01*
X140915714Y-115828571D01*
X140772857Y-115757142D01*
X140701428Y-115614285D01*
X140701428Y-115042857D01*
X140772857Y-114900000D01*
X140915714Y-114828571D01*
X141201428Y-114828571D01*
X141344285Y-114900000D01*
X141415714Y-115042857D01*
X141415714Y-115185714D01*
X140701428Y-115328571D01*
X142701428Y-115757142D02*
X142558571Y-115828571D01*
X142272857Y-115828571D01*
X142130000Y-115757142D01*
X142058571Y-115685714D01*
X141987142Y-115542857D01*
X141987142Y-115114285D01*
X142058571Y-114971428D01*
X142130000Y-114900000D01*
X142272857Y-114828571D01*
X142558571Y-114828571D01*
X142701428Y-114900000D01*
X143130000Y-114828571D02*
X143701428Y-114828571D01*
X143344285Y-114328571D02*
X143344285Y-115614285D01*
X143415714Y-115757142D01*
X143558571Y-115828571D01*
X143701428Y-115828571D01*
D10*
X198392571Y-119886857D02*
X198392571Y-119553523D01*
X198916380Y-119410666D02*
X198916380Y-119886857D01*
X197916380Y-119886857D01*
X197916380Y-119410666D01*
X198868761Y-119029714D02*
X198916380Y-118886857D01*
X198916380Y-118648761D01*
X198868761Y-118553523D01*
X198821142Y-118505904D01*
X198725904Y-118458285D01*
X198630666Y-118458285D01*
X198535428Y-118505904D01*
X198487809Y-118553523D01*
X198440190Y-118648761D01*
X198392571Y-118839238D01*
X198344952Y-118934476D01*
X198297333Y-118982095D01*
X198202095Y-119029714D01*
X198106857Y-119029714D01*
X198011619Y-118982095D01*
X197964000Y-118934476D01*
X197916380Y-118839238D01*
X197916380Y-118601142D01*
X197964000Y-118458285D01*
X198916380Y-118029714D02*
X197916380Y-118029714D01*
X197916380Y-117648761D01*
X197964000Y-117553523D01*
X198011619Y-117505904D01*
X198106857Y-117458285D01*
X198249714Y-117458285D01*
X198344952Y-117505904D01*
X198392571Y-117553523D01*
X198440190Y-117648761D01*
X198440190Y-118029714D01*
X197916380Y-117124952D02*
X197916380Y-116505904D01*
X198297333Y-116839238D01*
X198297333Y-116696380D01*
X198344952Y-116601142D01*
X198392571Y-116553523D01*
X198487809Y-116505904D01*
X198725904Y-116505904D01*
X198821142Y-116553523D01*
X198868761Y-116601142D01*
X198916380Y-116696380D01*
X198916380Y-116982095D01*
X198868761Y-117077333D01*
X198821142Y-117124952D01*
X198011619Y-116124952D02*
X197964000Y-116077333D01*
X197916380Y-115982095D01*
X197916380Y-115744000D01*
X197964000Y-115648761D01*
X198011619Y-115601142D01*
X198106857Y-115553523D01*
X198202095Y-115553523D01*
X198344952Y-115601142D01*
X198916380Y-116172571D01*
X198916380Y-115553523D01*
X140454857Y-85323047D02*
X140407238Y-85275428D01*
X140359619Y-85132571D01*
X140359619Y-85037333D01*
X140407238Y-84894476D01*
X140502476Y-84799238D01*
X140597714Y-84751619D01*
X140788190Y-84704000D01*
X140931047Y-84704000D01*
X141121523Y-84751619D01*
X141216761Y-84799238D01*
X141312000Y-84894476D01*
X141359619Y-85037333D01*
X141359619Y-85132571D01*
X141312000Y-85275428D01*
X141264380Y-85323047D01*
X140359619Y-85894476D02*
X140407238Y-85799238D01*
X140454857Y-85751619D01*
X140550095Y-85704000D01*
X140835809Y-85704000D01*
X140931047Y-85751619D01*
X140978666Y-85799238D01*
X141026285Y-85894476D01*
X141026285Y-86037333D01*
X140978666Y-86132571D01*
X140931047Y-86180190D01*
X140835809Y-86227809D01*
X140550095Y-86227809D01*
X140454857Y-86180190D01*
X140407238Y-86132571D01*
X140359619Y-86037333D01*
X140359619Y-85894476D01*
X141026285Y-86656380D02*
X140359619Y-86656380D01*
X140931047Y-86656380D02*
X140978666Y-86704000D01*
X141026285Y-86799238D01*
X141026285Y-86942095D01*
X140978666Y-87037333D01*
X140883428Y-87084952D01*
X140359619Y-87084952D01*
X141026285Y-87418285D02*
X141026285Y-87799238D01*
X141359619Y-87561142D02*
X140502476Y-87561142D01*
X140407238Y-87608761D01*
X140359619Y-87704000D01*
X140359619Y-87799238D01*
X140359619Y-88132571D02*
X141026285Y-88132571D01*
X140835809Y-88132571D02*
X140931047Y-88180190D01*
X140978666Y-88227809D01*
X141026285Y-88323047D01*
X141026285Y-88418285D01*
X140359619Y-88894476D02*
X140407238Y-88799238D01*
X140454857Y-88751619D01*
X140550095Y-88704000D01*
X140835809Y-88704000D01*
X140931047Y-88751619D01*
X140978666Y-88799238D01*
X141026285Y-88894476D01*
X141026285Y-89037333D01*
X140978666Y-89132571D01*
X140931047Y-89180190D01*
X140835809Y-89227809D01*
X140550095Y-89227809D01*
X140454857Y-89180190D01*
X140407238Y-89132571D01*
X140359619Y-89037333D01*
X140359619Y-88894476D01*
X140359619Y-89799238D02*
X140407238Y-89704000D01*
X140502476Y-89656380D01*
X141359619Y-89656380D01*
X140359619Y-90323047D02*
X140407238Y-90227809D01*
X140502476Y-90180190D01*
X141359619Y-90180190D01*
X140407238Y-91084952D02*
X140359619Y-90989714D01*
X140359619Y-90799238D01*
X140407238Y-90704000D01*
X140502476Y-90656380D01*
X140883428Y-90656380D01*
X140978666Y-90704000D01*
X141026285Y-90799238D01*
X141026285Y-90989714D01*
X140978666Y-91084952D01*
X140883428Y-91132571D01*
X140788190Y-91132571D01*
X140692952Y-90656380D01*
X140359619Y-91561142D02*
X141026285Y-91561142D01*
X140835809Y-91561142D02*
X140931047Y-91608761D01*
X140978666Y-91656380D01*
X141026285Y-91751619D01*
X141026285Y-91846857D01*
X140407238Y-92894476D02*
X140359619Y-93037333D01*
X140359619Y-93275428D01*
X140407238Y-93370666D01*
X140454857Y-93418285D01*
X140550095Y-93465904D01*
X140645333Y-93465904D01*
X140740571Y-93418285D01*
X140788190Y-93370666D01*
X140835809Y-93275428D01*
X140883428Y-93084952D01*
X140931047Y-92989714D01*
X140978666Y-92942095D01*
X141073904Y-92894476D01*
X141169142Y-92894476D01*
X141264380Y-92942095D01*
X141312000Y-92989714D01*
X141359619Y-93084952D01*
X141359619Y-93323047D01*
X141312000Y-93465904D01*
X140359619Y-93894476D02*
X141026285Y-93894476D01*
X141359619Y-93894476D02*
X141312000Y-93846857D01*
X141264380Y-93894476D01*
X141312000Y-93942095D01*
X141359619Y-93894476D01*
X141264380Y-93894476D01*
X140359619Y-94799238D02*
X141359619Y-94799238D01*
X140407238Y-94799238D02*
X140359619Y-94704000D01*
X140359619Y-94513523D01*
X140407238Y-94418285D01*
X140454857Y-94370666D01*
X140550095Y-94323047D01*
X140835809Y-94323047D01*
X140931047Y-94370666D01*
X140978666Y-94418285D01*
X141026285Y-94513523D01*
X141026285Y-94704000D01*
X140978666Y-94799238D01*
X140407238Y-95656380D02*
X140359619Y-95561142D01*
X140359619Y-95370666D01*
X140407238Y-95275428D01*
X140502476Y-95227809D01*
X140883428Y-95227809D01*
X140978666Y-95275428D01*
X141026285Y-95370666D01*
X141026285Y-95561142D01*
X140978666Y-95656380D01*
X140883428Y-95704000D01*
X140788190Y-95704000D01*
X140692952Y-95227809D01*
D12*
X127469142Y-75392714D02*
X127397714Y-75464142D01*
X127183428Y-75535571D01*
X127040571Y-75535571D01*
X126826285Y-75464142D01*
X126683428Y-75321285D01*
X126612000Y-75178428D01*
X126540571Y-74892714D01*
X126540571Y-74678428D01*
X126612000Y-74392714D01*
X126683428Y-74249857D01*
X126826285Y-74107000D01*
X127040571Y-74035571D01*
X127183428Y-74035571D01*
X127397714Y-74107000D01*
X127469142Y-74178428D01*
X128112000Y-75535571D02*
X128112000Y-74035571D01*
X128469142Y-75678428D02*
X129612000Y-75678428D01*
X130826285Y-75392714D02*
X130754857Y-75464142D01*
X130540571Y-75535571D01*
X130397714Y-75535571D01*
X130183428Y-75464142D01*
X130040571Y-75321285D01*
X129969142Y-75178428D01*
X129897714Y-74892714D01*
X129897714Y-74678428D01*
X129969142Y-74392714D01*
X130040571Y-74249857D01*
X130183428Y-74107000D01*
X130397714Y-74035571D01*
X130540571Y-74035571D01*
X130754857Y-74107000D01*
X130826285Y-74178428D01*
X131683428Y-75535571D02*
X131540571Y-75464142D01*
X131469142Y-75392714D01*
X131397714Y-75249857D01*
X131397714Y-74821285D01*
X131469142Y-74678428D01*
X131540571Y-74607000D01*
X131683428Y-74535571D01*
X131897714Y-74535571D01*
X132040571Y-74607000D01*
X132112000Y-74678428D01*
X132183428Y-74821285D01*
X132183428Y-75249857D01*
X132112000Y-75392714D01*
X132040571Y-75464142D01*
X131897714Y-75535571D01*
X131683428Y-75535571D01*
X132826285Y-75535571D02*
X132826285Y-74535571D01*
X132826285Y-74678428D02*
X132897714Y-74607000D01*
X133040571Y-74535571D01*
X133254857Y-74535571D01*
X133397714Y-74607000D01*
X133469142Y-74749857D01*
X133469142Y-75535571D01*
X133469142Y-74749857D02*
X133540571Y-74607000D01*
X133683428Y-74535571D01*
X133897714Y-74535571D01*
X134040571Y-74607000D01*
X134112000Y-74749857D01*
X134112000Y-75535571D01*
X134826285Y-75535571D02*
X134826285Y-74035571D01*
X135397714Y-74035571D01*
X135540571Y-74107000D01*
X135612000Y-74178428D01*
X135683428Y-74321285D01*
X135683428Y-74535571D01*
X135612000Y-74678428D01*
X135540571Y-74749857D01*
X135397714Y-74821285D01*
X134826285Y-74821285D01*
X137183428Y-75392714D02*
X137112000Y-75464142D01*
X136897714Y-75535571D01*
X136754857Y-75535571D01*
X136540571Y-75464142D01*
X136397714Y-75321285D01*
X136326285Y-75178428D01*
X136254857Y-74892714D01*
X136254857Y-74678428D01*
X136326285Y-74392714D01*
X136397714Y-74249857D01*
X136540571Y-74107000D01*
X136754857Y-74035571D01*
X136897714Y-74035571D01*
X137112000Y-74107000D01*
X137183428Y-74178428D01*
X138326285Y-74749857D02*
X138540571Y-74821285D01*
X138612000Y-74892714D01*
X138683428Y-75035571D01*
X138683428Y-75249857D01*
X138612000Y-75392714D01*
X138540571Y-75464142D01*
X138397714Y-75535571D01*
X137826285Y-75535571D01*
X137826285Y-74035571D01*
X138326285Y-74035571D01*
X138469142Y-74107000D01*
X138540571Y-74178428D01*
X138612000Y-74321285D01*
X138612000Y-74464142D01*
X138540571Y-74607000D01*
X138469142Y-74678428D01*
X138326285Y-74749857D01*
X137826285Y-74749857D01*
X140254857Y-74035571D02*
X140754857Y-75535571D01*
X141254857Y-74035571D01*
X142540571Y-75535571D02*
X141683428Y-75535571D01*
X142112000Y-75535571D02*
X142112000Y-74035571D01*
X141969142Y-74249857D01*
X141826285Y-74392714D01*
X141683428Y-74464142D01*
X143183428Y-75392714D02*
X143254857Y-75464142D01*
X143183428Y-75535571D01*
X143112000Y-75464142D01*
X143183428Y-75392714D01*
X143183428Y-75535571D01*
X143826285Y-74178428D02*
X143897714Y-74107000D01*
X144040571Y-74035571D01*
X144397714Y-74035571D01*
X144540571Y-74107000D01*
X144612000Y-74178428D01*
X144683428Y-74321285D01*
X144683428Y-74464142D01*
X144612000Y-74678428D01*
X143754857Y-75535571D01*
X144683428Y-75535571D01*
X130862000Y-78085571D02*
X130862000Y-76585571D01*
X131576285Y-77085571D02*
X131576285Y-78085571D01*
X131576285Y-77228428D02*
X131647714Y-77157000D01*
X131790571Y-77085571D01*
X132004857Y-77085571D01*
X132147714Y-77157000D01*
X132219142Y-77299857D01*
X132219142Y-78085571D01*
X132933428Y-77085571D02*
X132933428Y-78085571D01*
X132933428Y-77228428D02*
X133004857Y-77157000D01*
X133147714Y-77085571D01*
X133362000Y-77085571D01*
X133504857Y-77157000D01*
X133576285Y-77299857D01*
X133576285Y-78085571D01*
X134504857Y-78085571D02*
X134362000Y-78014142D01*
X134290571Y-77942714D01*
X134219142Y-77799857D01*
X134219142Y-77371285D01*
X134290571Y-77228428D01*
X134362000Y-77157000D01*
X134504857Y-77085571D01*
X134719142Y-77085571D01*
X134862000Y-77157000D01*
X134933428Y-77228428D01*
X135004857Y-77371285D01*
X135004857Y-77799857D01*
X134933428Y-77942714D01*
X134862000Y-78014142D01*
X134719142Y-78085571D01*
X134504857Y-78085571D01*
X135504857Y-77085571D02*
X135862000Y-78085571D01*
X136219142Y-77085571D01*
X136790571Y-78085571D02*
X136790571Y-77085571D01*
X136790571Y-76585571D02*
X136719142Y-76657000D01*
X136790571Y-76728428D01*
X136862000Y-76657000D01*
X136790571Y-76585571D01*
X136790571Y-76728428D01*
X137362000Y-77085571D02*
X137719142Y-78085571D01*
X138076285Y-77085571D01*
X139219142Y-78014142D02*
X139076285Y-78085571D01*
X138790571Y-78085571D01*
X138647714Y-78014142D01*
X138576285Y-77871285D01*
X138576285Y-77299857D01*
X138647714Y-77157000D01*
X138790571Y-77085571D01*
X139076285Y-77085571D01*
X139219142Y-77157000D01*
X139290571Y-77299857D01*
X139290571Y-77442714D01*
X138576285Y-77585571D01*
D11*
X138938285Y-153737142D02*
X138938285Y-156165714D01*
X139081142Y-156451428D01*
X139224000Y-156594285D01*
X139509714Y-156737142D01*
X140081142Y-156737142D01*
X140366857Y-156594285D01*
X140509714Y-156451428D01*
X140652571Y-156165714D01*
X140652571Y-153737142D01*
X141938285Y-156594285D02*
X142366857Y-156737142D01*
X143081142Y-156737142D01*
X143366857Y-156594285D01*
X143509714Y-156451428D01*
X143652571Y-156165714D01*
X143652571Y-155880000D01*
X143509714Y-155594285D01*
X143366857Y-155451428D01*
X143081142Y-155308571D01*
X142509714Y-155165714D01*
X142224000Y-155022857D01*
X142081142Y-154880000D01*
X141938285Y-154594285D01*
X141938285Y-154308571D01*
X142081142Y-154022857D01*
X142224000Y-153880000D01*
X142509714Y-153737142D01*
X143224000Y-153737142D01*
X143652571Y-153880000D01*
X145938285Y-155165714D02*
X146366857Y-155308571D01*
X146509714Y-155451428D01*
X146652571Y-155737142D01*
X146652571Y-156165714D01*
X146509714Y-156451428D01*
X146366857Y-156594285D01*
X146081142Y-156737142D01*
X144938285Y-156737142D01*
X144938285Y-153737142D01*
X145938285Y-153737142D01*
X146224000Y-153880000D01*
X146366857Y-154022857D01*
X146509714Y-154308571D01*
X146509714Y-154594285D01*
X146366857Y-154880000D01*
X146224000Y-155022857D01*
X145938285Y-155165714D01*
X144938285Y-155165714D01*
D12*
X128650000Y-98529000D02*
G75*
G03*
X128650000Y-98529000I-100000J0D01*
G01*
D13*
X108800000Y-84660000D02*
X127900000Y-84660000D01*
X108800000Y-100160000D02*
X108800000Y-84660000D01*
X127900000Y-100160000D02*
X108800000Y-100160000D01*
X127900000Y-84660000D02*
X127900000Y-100160000D01*
D12*
X129180000Y-131509000D02*
G75*
G03*
X129180000Y-131509000I-100000J0D01*
G01*
D13*
X109330000Y-117640000D02*
X128430000Y-117640000D01*
X109330000Y-133140000D02*
X109330000Y-117640000D01*
X128430000Y-133140000D02*
X109330000Y-133140000D01*
X128430000Y-117640000D02*
X128430000Y-133140000D01*
D14*
X119360000Y-82612000D02*
X119360000Y-82212000D01*
X119360000Y-82612000D02*
X119760000Y-82612000D01*
X123860000Y-82612000D02*
X123460000Y-82612000D01*
X123860000Y-82612000D02*
X123860000Y-82212000D01*
X123860000Y-79812000D02*
X123860000Y-80212000D01*
X123860000Y-79812000D02*
X123460000Y-79812000D01*
X119360000Y-79812000D02*
X119360000Y-80212000D01*
X119360000Y-79812000D02*
X119760000Y-79812000D01*
X122973980Y-82611540D02*
X123050180Y-82611540D01*
X122973980Y-82146720D02*
X122973980Y-82611540D01*
X123050180Y-82146720D02*
X122973980Y-82146720D01*
X123050180Y-82611540D02*
X123050180Y-82146720D01*
X122973980Y-79809920D02*
X123050180Y-79809920D01*
X122973980Y-80269660D02*
X122973980Y-79809920D01*
X123050180Y-80269660D02*
X122973980Y-80269660D01*
X123050180Y-79809920D02*
X123050180Y-80269660D01*
X119360000Y-115632000D02*
X119360000Y-115232000D01*
X119360000Y-115632000D02*
X119760000Y-115632000D01*
X123860000Y-115632000D02*
X123460000Y-115632000D01*
X123860000Y-115632000D02*
X123860000Y-115232000D01*
X123860000Y-112832000D02*
X123860000Y-113232000D01*
X123860000Y-112832000D02*
X123460000Y-112832000D01*
X119360000Y-112832000D02*
X119360000Y-113232000D01*
X119360000Y-112832000D02*
X119760000Y-112832000D01*
X122973980Y-115631540D02*
X123050180Y-115631540D01*
X122973980Y-115166720D02*
X122973980Y-115631540D01*
X123050180Y-115166720D02*
X122973980Y-115166720D01*
X123050180Y-115631540D02*
X123050180Y-115166720D01*
X122973980Y-112829920D02*
X123050180Y-112829920D01*
X122973980Y-113289660D02*
X122973980Y-112829920D01*
X123050180Y-113289660D02*
X122973980Y-113289660D01*
X123050180Y-112829920D02*
X123050180Y-113289660D01*
D15*
X172190000Y-113290580D02*
X172190000Y-113009420D01*
X171170000Y-113290580D02*
X171170000Y-113009420D01*
X188973000Y-69800000D02*
X205703000Y-69800000D01*
X188973000Y-69800000D02*
X188973000Y-77410000D01*
X205703000Y-69800000D02*
X205703000Y-77410000D01*
X188973000Y-85770000D02*
X205703000Y-85770000D01*
X188973000Y-85770000D02*
X188973000Y-80210000D01*
X205703000Y-85770000D02*
X205703000Y-80210000D01*
X188778000Y-77210000D02*
X188278000Y-77710000D01*
X188278000Y-77710000D02*
X188278000Y-76710000D01*
X188278000Y-76710000D02*
X188778000Y-77210000D01*
X205695000Y-159680000D02*
X188965000Y-159680000D01*
X205695000Y-159680000D02*
X205695000Y-152070000D01*
X188965000Y-159680000D02*
X188965000Y-152070000D01*
X205695000Y-143710000D02*
X188965000Y-143710000D01*
X205695000Y-143710000D02*
X205695000Y-149270000D01*
X188965000Y-143710000D02*
X188965000Y-149270000D01*
X205890000Y-152270000D02*
X206390000Y-151770000D01*
X206390000Y-151770000D02*
X206390000Y-152770000D01*
X206390000Y-152770000D02*
X205890000Y-152270000D01*
X178106564Y-153067000D02*
X177652436Y-153067000D01*
X178106564Y-151597000D02*
X177652436Y-151597000D01*
X180392564Y-156623000D02*
X179938436Y-156623000D01*
X180392564Y-155153000D02*
X179938436Y-155153000D01*
X177328000Y-156456000D02*
X177328000Y-153796000D01*
X174728000Y-156456000D02*
X177328000Y-156456000D01*
X174728000Y-153796000D02*
X177328000Y-153796000D01*
X174728000Y-156456000D02*
X174728000Y-153796000D01*
X173458000Y-156456000D02*
X172128000Y-156456000D01*
X172128000Y-156456000D02*
X172128000Y-155126000D01*
X160698000Y-122166000D02*
X163358000Y-122166000D01*
X160698000Y-122106000D02*
X160698000Y-122166000D01*
X163358000Y-122106000D02*
X163358000Y-122166000D01*
X160698000Y-122106000D02*
X163358000Y-122106000D01*
X160698000Y-120836000D02*
X160698000Y-119506000D01*
X160698000Y-119506000D02*
X162028000Y-119506000D01*
X161834000Y-123570000D02*
X159174000Y-123570000D01*
X161834000Y-126170000D02*
X161834000Y-123570000D01*
X159174000Y-126170000D02*
X159174000Y-123570000D01*
X161834000Y-126170000D02*
X159174000Y-126170000D01*
X161834000Y-127440000D02*
X161834000Y-128770000D01*
X161834000Y-128770000D02*
X160504000Y-128770000D01*
X123804936Y-102829000D02*
X124259064Y-102829000D01*
X123804936Y-104299000D02*
X124259064Y-104299000D01*
X122123064Y-77883000D02*
X121668936Y-77883000D01*
X122123064Y-76413000D02*
X121668936Y-76413000D01*
X122631064Y-110395000D02*
X122176936Y-110395000D01*
X122631064Y-108925000D02*
X122176936Y-108925000D01*
X109984936Y-74889000D02*
X110439064Y-74889000D01*
X109984936Y-76359000D02*
X110439064Y-76359000D01*
X110088936Y-105877000D02*
X110543064Y-105877000D01*
X110088936Y-107347000D02*
X110543064Y-107347000D01*
D14*
X111304000Y-78100000D02*
X111004000Y-77950000D01*
X111304000Y-78100000D02*
X111304000Y-78400000D01*
X111304000Y-82500000D02*
X111304000Y-82800000D01*
X111304000Y-82800000D02*
X111004000Y-82950000D01*
D10*
X108154000Y-78500000D02*
G75*
G03*
X108104000Y-82350000I1900000J-1950000D01*
G01*
D14*
X110796000Y-110612000D02*
X110496000Y-110462000D01*
X110796000Y-110612000D02*
X110796000Y-110912000D01*
X110796000Y-115012000D02*
X110796000Y-115312000D01*
X110796000Y-115312000D02*
X110496000Y-115462000D01*
D10*
X107646000Y-111012000D02*
G75*
G03*
X107596000Y-114862000I1900000J-1950000D01*
G01*
D15*
X131730000Y-101380000D02*
X134390000Y-101380000D01*
X131730000Y-96240000D02*
X131730000Y-101380000D01*
X134390000Y-96240000D02*
X134390000Y-101380000D01*
X131730000Y-96240000D02*
X134390000Y-96240000D01*
X131730000Y-94970000D02*
X131730000Y-93640000D01*
X131730000Y-93640000D02*
X133060000Y-93640000D01*
X131234000Y-133342000D02*
X133894000Y-133342000D01*
X131234000Y-128202000D02*
X131234000Y-133342000D01*
X133894000Y-128202000D02*
X133894000Y-133342000D01*
X131234000Y-128202000D02*
X133894000Y-128202000D01*
X131234000Y-126932000D02*
X131234000Y-125602000D01*
X131234000Y-125602000D02*
X132564000Y-125602000D01*
X134402000Y-84962000D02*
X131742000Y-84962000D01*
X134402000Y-87562000D02*
X134402000Y-84962000D01*
X131742000Y-87562000D02*
X131742000Y-84962000D01*
X134402000Y-87562000D02*
X131742000Y-87562000D01*
X134402000Y-88832000D02*
X134402000Y-90162000D01*
X134402000Y-90162000D02*
X133072000Y-90162000D01*
X133894000Y-116966000D02*
X131234000Y-116966000D01*
X133894000Y-119566000D02*
X133894000Y-116966000D01*
X131234000Y-119566000D02*
X131234000Y-116966000D01*
X133894000Y-119566000D02*
X131234000Y-119566000D01*
X133894000Y-120836000D02*
X133894000Y-122166000D01*
X133894000Y-122166000D02*
X132564000Y-122166000D01*
X120964000Y-104064000D02*
X119464000Y-104064000D01*
X120964000Y-104064000D02*
X121064000Y-104064000D01*
X121064000Y-104064000D02*
X121164000Y-104064000D01*
X121164000Y-104064000D02*
X121164000Y-103864000D01*
X121164000Y-103864000D02*
X121164000Y-103064000D01*
X121164000Y-103064000D02*
X119464000Y-103064000D01*
D14*
X139046080Y-92812180D02*
X138586340Y-92812180D01*
X138586340Y-92812180D02*
X138586340Y-92735980D01*
X138586340Y-92735980D02*
X139046080Y-92735980D01*
X139046080Y-92735980D02*
X139046080Y-92812180D01*
X136244460Y-92812180D02*
X136709280Y-92812180D01*
X136709280Y-92812180D02*
X136709280Y-92735980D01*
X136709280Y-92735980D02*
X136244460Y-92735980D01*
X136244460Y-92735980D02*
X136244460Y-92812180D01*
X139044000Y-89122000D02*
X139044000Y-89522000D01*
X139044000Y-89122000D02*
X138644000Y-89122000D01*
X139044000Y-93622000D02*
X139044000Y-93222000D01*
X139044000Y-93622000D02*
X138644000Y-93622000D01*
X136244000Y-93622000D02*
X136644000Y-93622000D01*
X136244000Y-93622000D02*
X136244000Y-93222000D01*
X136244000Y-89122000D02*
X136244000Y-89522000D01*
X136244000Y-89122000D02*
X136644000Y-89122000D01*
D15*
X114458000Y-77664000D02*
X115958000Y-77664000D01*
X114458000Y-77664000D02*
X114358000Y-77664000D01*
X114358000Y-77664000D02*
X114258000Y-77664000D01*
X114258000Y-77664000D02*
X114258000Y-77864000D01*
X114258000Y-77864000D02*
X114258000Y-78664000D01*
X114258000Y-78664000D02*
X115958000Y-78664000D01*
X113684000Y-110176000D02*
X115184000Y-110176000D01*
X113684000Y-110176000D02*
X113584000Y-110176000D01*
X113584000Y-110176000D02*
X113484000Y-110176000D01*
X113484000Y-110176000D02*
X113484000Y-110376000D01*
X113484000Y-110376000D02*
X113484000Y-111176000D01*
X113484000Y-111176000D02*
X115184000Y-111176000D01*
D14*
X127892000Y-156432000D02*
X127892000Y-156432000D01*
X127792000Y-156432000D02*
X127792000Y-156432000D01*
X133452000Y-155832000D02*
X113132000Y-155832000D01*
X133452000Y-141862000D02*
X133452000Y-155832000D01*
X113132000Y-141862000D02*
X133452000Y-141862000D01*
X113132000Y-155832000D02*
X113132000Y-141862000D01*
X127792000Y-156432000D02*
G75*
G03*
X127892000Y-156432000I50000J0D01*
G01*
X127892000Y-156432000D02*
G75*
G03*
X127792000Y-156432000I-50000J0D01*
G01*
D15*
X148506000Y-88130000D02*
X151166000Y-88130000D01*
X148506000Y-88070000D02*
X148506000Y-88130000D01*
X151166000Y-88070000D02*
X151166000Y-88130000D01*
X148506000Y-88070000D02*
X151166000Y-88070000D01*
X148506000Y-86800000D02*
X148506000Y-85470000D01*
X148506000Y-85470000D02*
X149836000Y-85470000D01*
X153078000Y-83558000D02*
X155738000Y-83558000D01*
X153078000Y-83498000D02*
X153078000Y-83558000D01*
X155738000Y-83498000D02*
X155738000Y-83558000D01*
X153078000Y-83498000D02*
X155738000Y-83498000D01*
X153078000Y-82228000D02*
X153078000Y-80898000D01*
X153078000Y-80898000D02*
X154408000Y-80898000D01*
X148506000Y-84066000D02*
X151166000Y-84066000D01*
X148506000Y-84006000D02*
X148506000Y-84066000D01*
X151166000Y-84006000D02*
X151166000Y-84066000D01*
X148506000Y-84006000D02*
X151166000Y-84006000D01*
X148506000Y-82736000D02*
X148506000Y-81406000D01*
X148506000Y-81406000D02*
X149836000Y-81406000D01*
X182629000Y-81843564D02*
X182629000Y-81389436D01*
X184099000Y-81843564D02*
X184099000Y-81389436D01*
X210515000Y-145350436D02*
X210515000Y-145804564D01*
X209045000Y-145350436D02*
X209045000Y-145804564D01*
X163779064Y-96679000D02*
X163324936Y-96679000D01*
X163779064Y-95209000D02*
X163324936Y-95209000D01*
X168859000Y-98661436D02*
X168859000Y-99115564D01*
X167389000Y-98661436D02*
X167389000Y-99115564D01*
X163675064Y-100235000D02*
X163220936Y-100235000D01*
X163675064Y-98765000D02*
X163220936Y-98765000D01*
X166984936Y-76413000D02*
X167439064Y-76413000D01*
X166984936Y-77883000D02*
X167439064Y-77883000D01*
X163472258Y-75130500D02*
X162997742Y-75130500D01*
X163472258Y-74085500D02*
X162997742Y-74085500D01*
X142443000Y-134220936D02*
X142443000Y-134675064D01*
X140973000Y-134220936D02*
X140973000Y-134675064D01*
X146507000Y-142556936D02*
X146507000Y-143011064D01*
X145037000Y-142556936D02*
X145037000Y-143011064D01*
X140914000Y-137052000D02*
X140914000Y-147292000D01*
X136273000Y-137052000D02*
X136273000Y-147292000D01*
X140914000Y-137052000D02*
X136273000Y-137052000D01*
X140914000Y-147292000D02*
X136273000Y-147292000D01*
X139404000Y-137052000D02*
X139404000Y-147292000D01*
X140914000Y-140322000D02*
X139404000Y-140322000D01*
X140914000Y-144023000D02*
X139404000Y-144023000D01*
D16*
X146772000Y-107782000D02*
X159572000Y-107782000D01*
X159572000Y-95282000D02*
X146772000Y-95282000D01*
D14*
X161030000Y-80560000D02*
X161030000Y-84660000D01*
X156930000Y-84660000D02*
X156930000Y-80560000D01*
D16*
X159030000Y-79610000D02*
G75*
G03*
X159030000Y-79610000I-50000J0D01*
G01*
D15*
X167422000Y-126230000D02*
X167422000Y-123570000D01*
X167362000Y-126230000D02*
X167422000Y-126230000D01*
X167362000Y-123570000D02*
X167422000Y-123570000D01*
X167362000Y-126230000D02*
X167362000Y-123570000D01*
X166092000Y-126230000D02*
X164762000Y-126230000D01*
X164762000Y-126230000D02*
X164762000Y-124900000D01*
X144442000Y-149090000D02*
X147102000Y-149090000D01*
X144442000Y-149030000D02*
X144442000Y-149090000D01*
X147102000Y-149030000D02*
X147102000Y-149090000D01*
X144442000Y-149030000D02*
X147102000Y-149030000D01*
X144442000Y-147760000D02*
X144442000Y-146430000D01*
X144442000Y-146430000D02*
X145772000Y-146430000D01*
D16*
X165166000Y-113800000D02*
X165166000Y-110600000D01*
X165166000Y-110600000D02*
X170066000Y-110600000D01*
X170066000Y-110600000D02*
X170066000Y-113800000D01*
X170066000Y-113800000D02*
X165166000Y-113800000D01*
X165036000Y-115650000D02*
X165036000Y-114150000D01*
D14*
X167403000Y-80306000D02*
X167403000Y-80306000D01*
X167303000Y-80306000D02*
X167303000Y-80306000D01*
X167403000Y-80306000D02*
G75*
G02*
X167303000Y-80306000I-50000J0D01*
G01*
X167303000Y-80306000D02*
G75*
G02*
X167403000Y-80306000I50000J0D01*
G01*
D15*
X153172000Y-130488000D02*
X171172000Y-130488000D01*
X153172000Y-157488000D02*
X153172000Y-130488000D01*
X171172000Y-157488000D02*
X153172000Y-157488000D01*
X171172000Y-156488000D02*
X171172000Y-157488000D01*
X171172000Y-130488000D02*
X171172000Y-156488000D01*
D14*
X176373920Y-81835820D02*
X176833660Y-81835820D01*
X176833660Y-81835820D02*
X176833660Y-81912020D01*
X176833660Y-81912020D02*
X176373920Y-81912020D01*
X176373920Y-81912020D02*
X176373920Y-81835820D01*
X179175540Y-81835820D02*
X178710720Y-81835820D01*
X178710720Y-81835820D02*
X178710720Y-81912020D01*
X178710720Y-81912020D02*
X179175540Y-81912020D01*
X179175540Y-81912020D02*
X179175540Y-81835820D01*
X176376000Y-85526000D02*
X176376000Y-85126000D01*
X176376000Y-85526000D02*
X176776000Y-85526000D01*
X176376000Y-81026000D02*
X176376000Y-81426000D01*
X176376000Y-81026000D02*
X176776000Y-81026000D01*
X179176000Y-81026000D02*
X178776000Y-81026000D01*
X179176000Y-81026000D02*
X179176000Y-81426000D01*
X179176000Y-85526000D02*
X179176000Y-85126000D01*
X179176000Y-85526000D02*
X178776000Y-85526000D01*
X157848180Y-118925920D02*
X157848180Y-119385660D01*
X157848180Y-119385660D02*
X157771980Y-119385660D01*
X157771980Y-119385660D02*
X157771980Y-118925920D01*
X157771980Y-118925920D02*
X157848180Y-118925920D01*
X157848180Y-121727540D02*
X157848180Y-121262720D01*
X157848180Y-121262720D02*
X157771980Y-121262720D01*
X157771980Y-121262720D02*
X157771980Y-121727540D01*
X157771980Y-121727540D02*
X157848180Y-121727540D01*
X154158000Y-118928000D02*
X154558000Y-118928000D01*
X154158000Y-118928000D02*
X154158000Y-119328000D01*
X158658000Y-118928000D02*
X158258000Y-118928000D01*
X158658000Y-118928000D02*
X158658000Y-119328000D01*
X158658000Y-121728000D02*
X158658000Y-121328000D01*
X158658000Y-121728000D02*
X158258000Y-121728000D01*
X154158000Y-121728000D02*
X154558000Y-121728000D01*
X154158000Y-121728000D02*
X154158000Y-121328000D01*
X159101920Y-111235820D02*
X159561660Y-111235820D01*
X159561660Y-111235820D02*
X159561660Y-111312020D01*
X159561660Y-111312020D02*
X159101920Y-111312020D01*
X159101920Y-111312020D02*
X159101920Y-111235820D01*
X161903540Y-111235820D02*
X161438720Y-111235820D01*
X161438720Y-111235820D02*
X161438720Y-111312020D01*
X161438720Y-111312020D02*
X161903540Y-111312020D01*
X161903540Y-111312020D02*
X161903540Y-111235820D01*
X159104000Y-114926000D02*
X159104000Y-114526000D01*
X159104000Y-114926000D02*
X159504000Y-114926000D01*
X159104000Y-110426000D02*
X159104000Y-110826000D01*
X159104000Y-110426000D02*
X159504000Y-110426000D01*
X161904000Y-110426000D02*
X161504000Y-110426000D01*
X161904000Y-110426000D02*
X161904000Y-110826000D01*
X161904000Y-114926000D02*
X161904000Y-114526000D01*
X161904000Y-114926000D02*
X161504000Y-114926000D01*
X151238080Y-78588180D02*
X150778340Y-78588180D01*
X150778340Y-78588180D02*
X150778340Y-78511980D01*
X150778340Y-78511980D02*
X151238080Y-78511980D01*
X151238080Y-78511980D02*
X151238080Y-78588180D01*
X148436460Y-78588180D02*
X148901280Y-78588180D01*
X148901280Y-78588180D02*
X148901280Y-78511980D01*
X148901280Y-78511980D02*
X148436460Y-78511980D01*
X148436460Y-78511980D02*
X148436460Y-78588180D01*
X151236000Y-74898000D02*
X151236000Y-75298000D01*
X151236000Y-74898000D02*
X150836000Y-74898000D01*
X151236000Y-79398000D02*
X151236000Y-78998000D01*
X151236000Y-79398000D02*
X150836000Y-79398000D01*
X148436000Y-79398000D02*
X148836000Y-79398000D01*
X148436000Y-79398000D02*
X148436000Y-78998000D01*
X148436000Y-74898000D02*
X148436000Y-75298000D01*
X148436000Y-74898000D02*
X148836000Y-74898000D01*
D15*
X145272000Y-139208000D02*
X145272000Y-137708000D01*
X145272000Y-139208000D02*
X145272000Y-139308000D01*
X145272000Y-139308000D02*
X145272000Y-139408000D01*
X145272000Y-139408000D02*
X145472000Y-139408000D01*
X145472000Y-139408000D02*
X146272000Y-139408000D01*
X146272000Y-139408000D02*
X146272000Y-137708000D01*
X154080748Y-110449000D02*
X154603252Y-110449000D01*
X154080748Y-111919000D02*
X154603252Y-111919000D01*
X163747252Y-103791000D02*
X163224748Y-103791000D01*
X163747252Y-102321000D02*
X163224748Y-102321000D01*
X154080748Y-115021000D02*
X154603252Y-115021000D01*
X154080748Y-116491000D02*
X154603252Y-116491000D01*
X167389000Y-104333252D02*
X167389000Y-103810748D01*
X168859000Y-104333252D02*
X168859000Y-103810748D01*
X164287000Y-107300748D02*
X164287000Y-107823252D01*
X162817000Y-107300748D02*
X162817000Y-107823252D01*
X166235252Y-122137000D02*
X165712748Y-122137000D01*
X166235252Y-120667000D02*
X165712748Y-120667000D01*
X166235252Y-119127000D02*
X165712748Y-119127000D01*
X166235252Y-117657000D02*
X165712748Y-117657000D01*
X160223000Y-75362748D02*
X160223000Y-75885252D01*
X158753000Y-75362748D02*
X158753000Y-75885252D01*
X157175000Y-75296748D02*
X157175000Y-75819252D01*
X155705000Y-75296748D02*
X155705000Y-75819252D01*
X154127000Y-75296748D02*
X154127000Y-75819252D01*
X152657000Y-75296748D02*
X152657000Y-75819252D01*
X169421000Y-80015252D02*
X169421000Y-79492748D01*
X170891000Y-80015252D02*
X170891000Y-79492748D01*
X153673000Y-86111252D02*
X153673000Y-85588748D01*
X155143000Y-86111252D02*
X155143000Y-85588748D01*
X209780000Y-138436000D02*
X194480000Y-138436000D01*
X209780000Y-108436000D02*
X209780000Y-109436000D01*
X209780000Y-138436000D02*
X209780000Y-95436000D01*
X209780000Y-95436000D02*
X194480000Y-95436000D01*
X194480000Y-95436000D02*
X194480000Y-138436000D01*
X177776000Y-90536000D02*
X193076000Y-90536000D01*
X177776000Y-120536000D02*
X177776000Y-119536000D01*
X177776000Y-90536000D02*
X177776000Y-133536000D01*
X177776000Y-133536000D02*
X193076000Y-133536000D01*
X193076000Y-133536000D02*
X193076000Y-90536000D01*
X147804000Y-157596000D02*
X175804000Y-157596000D01*
X147804000Y-105596000D02*
X147804000Y-157596000D01*
X175804000Y-157596000D02*
X175804000Y-105596000D01*
X147804000Y-105596000D02*
X175804000Y-105596000D01*
X150304000Y-149596000D02*
X147804000Y-149596000D01*
X150304000Y-110596000D02*
X150304000Y-149596000D01*
X147804000Y-110596000D02*
X150304000Y-110596000D01*
X175804000Y-110596000D02*
X173304000Y-110596000D01*
X173304000Y-149596000D02*
X175804000Y-149596000D01*
X173304000Y-110596000D02*
X173304000Y-149596000D01*
D10*
X123284994Y-101698263D02*
X123284994Y-100698169D01*
X123856477Y-101698263D02*
X123427865Y-101126781D01*
X123856477Y-100698169D02*
X123284994Y-101269651D01*
X124713700Y-100698169D02*
X124523206Y-100698169D01*
X124427959Y-100745793D01*
X124380335Y-100793416D01*
X124285088Y-100936287D01*
X124237465Y-101126781D01*
X124237465Y-101507769D01*
X124285088Y-101603016D01*
X124332712Y-101650639D01*
X124427959Y-101698263D01*
X124618453Y-101698263D01*
X124713700Y-101650639D01*
X124761324Y-101603016D01*
X124808947Y-101507769D01*
X124808947Y-101269651D01*
X124761324Y-101174404D01*
X124713700Y-101126781D01*
X124618453Y-101079157D01*
X124427959Y-101079157D01*
X124332712Y-101126781D01*
X124285088Y-101174404D01*
X124237465Y-101269651D01*
X125428053Y-100698169D02*
X125523300Y-100698169D01*
X125618547Y-100745793D01*
X125666171Y-100793416D01*
X125713794Y-100888663D01*
X125761418Y-101079157D01*
X125761418Y-101317275D01*
X125713794Y-101507769D01*
X125666171Y-101603016D01*
X125618547Y-101650639D01*
X125523300Y-101698263D01*
X125428053Y-101698263D01*
X125332806Y-101650639D01*
X125285182Y-101603016D01*
X125237559Y-101507769D01*
X125189935Y-101317275D01*
X125189935Y-101079157D01*
X125237559Y-100888663D01*
X125285182Y-100793416D01*
X125332806Y-100745793D01*
X125428053Y-100698169D01*
X126142406Y-100793416D02*
X126190029Y-100745793D01*
X126285276Y-100698169D01*
X126523394Y-100698169D01*
X126618641Y-100745793D01*
X126666265Y-100793416D01*
X126713888Y-100888663D01*
X126713888Y-100983910D01*
X126666265Y-101126781D01*
X126094782Y-101698263D01*
X126713888Y-101698263D01*
X123814994Y-134678263D02*
X123814994Y-133678169D01*
X124386477Y-134678263D02*
X123957865Y-134106781D01*
X124386477Y-133678169D02*
X123814994Y-134249651D01*
X125243700Y-133678169D02*
X125053206Y-133678169D01*
X124957959Y-133725793D01*
X124910335Y-133773416D01*
X124815088Y-133916287D01*
X124767465Y-134106781D01*
X124767465Y-134487769D01*
X124815088Y-134583016D01*
X124862712Y-134630639D01*
X124957959Y-134678263D01*
X125148453Y-134678263D01*
X125243700Y-134630639D01*
X125291324Y-134583016D01*
X125338947Y-134487769D01*
X125338947Y-134249651D01*
X125291324Y-134154404D01*
X125243700Y-134106781D01*
X125148453Y-134059157D01*
X124957959Y-134059157D01*
X124862712Y-134106781D01*
X124815088Y-134154404D01*
X124767465Y-134249651D01*
X125958053Y-133678169D02*
X126053300Y-133678169D01*
X126148547Y-133725793D01*
X126196171Y-133773416D01*
X126243794Y-133868663D01*
X126291418Y-134059157D01*
X126291418Y-134297275D01*
X126243794Y-134487769D01*
X126196171Y-134583016D01*
X126148547Y-134630639D01*
X126053300Y-134678263D01*
X125958053Y-134678263D01*
X125862806Y-134630639D01*
X125815182Y-134583016D01*
X125767559Y-134487769D01*
X125719935Y-134297275D01*
X125719935Y-134059157D01*
X125767559Y-133868663D01*
X125815182Y-133773416D01*
X125862806Y-133725793D01*
X125958053Y-133678169D01*
X127243888Y-134678263D02*
X126672406Y-134678263D01*
X126958147Y-134678263D02*
X126958147Y-133678169D01*
X126862900Y-133821040D01*
X126767653Y-133916287D01*
X126672406Y-133963910D01*
X119919523Y-84264380D02*
X119919523Y-83264380D01*
X120157619Y-83264380D01*
X120300476Y-83312000D01*
X120395714Y-83407238D01*
X120443333Y-83502476D01*
X120490952Y-83692952D01*
X120490952Y-83835809D01*
X120443333Y-84026285D01*
X120395714Y-84121523D01*
X120300476Y-84216761D01*
X120157619Y-84264380D01*
X119919523Y-84264380D01*
X121348095Y-83264380D02*
X121157619Y-83264380D01*
X121062380Y-83312000D01*
X121014761Y-83359619D01*
X120919523Y-83502476D01*
X120871904Y-83692952D01*
X120871904Y-84073904D01*
X120919523Y-84169142D01*
X120967142Y-84216761D01*
X121062380Y-84264380D01*
X121252857Y-84264380D01*
X121348095Y-84216761D01*
X121395714Y-84169142D01*
X121443333Y-84073904D01*
X121443333Y-83835809D01*
X121395714Y-83740571D01*
X121348095Y-83692952D01*
X121252857Y-83645333D01*
X121062380Y-83645333D01*
X120967142Y-83692952D01*
X120919523Y-83740571D01*
X120871904Y-83835809D01*
X122062380Y-83264380D02*
X122157619Y-83264380D01*
X122252857Y-83312000D01*
X122300476Y-83359619D01*
X122348095Y-83454857D01*
X122395714Y-83645333D01*
X122395714Y-83883428D01*
X122348095Y-84073904D01*
X122300476Y-84169142D01*
X122252857Y-84216761D01*
X122157619Y-84264380D01*
X122062380Y-84264380D01*
X121967142Y-84216761D01*
X121919523Y-84169142D01*
X121871904Y-84073904D01*
X121824285Y-83883428D01*
X121824285Y-83645333D01*
X121871904Y-83454857D01*
X121919523Y-83359619D01*
X121967142Y-83312000D01*
X122062380Y-83264380D01*
X123252857Y-83597714D02*
X123252857Y-84264380D01*
X123014761Y-83216761D02*
X122776666Y-83931047D01*
X123395714Y-83931047D01*
X119919523Y-117284380D02*
X119919523Y-116284380D01*
X120157619Y-116284380D01*
X120300476Y-116332000D01*
X120395714Y-116427238D01*
X120443333Y-116522476D01*
X120490952Y-116712952D01*
X120490952Y-116855809D01*
X120443333Y-117046285D01*
X120395714Y-117141523D01*
X120300476Y-117236761D01*
X120157619Y-117284380D01*
X119919523Y-117284380D01*
X121348095Y-116284380D02*
X121157619Y-116284380D01*
X121062380Y-116332000D01*
X121014761Y-116379619D01*
X120919523Y-116522476D01*
X120871904Y-116712952D01*
X120871904Y-117093904D01*
X120919523Y-117189142D01*
X120967142Y-117236761D01*
X121062380Y-117284380D01*
X121252857Y-117284380D01*
X121348095Y-117236761D01*
X121395714Y-117189142D01*
X121443333Y-117093904D01*
X121443333Y-116855809D01*
X121395714Y-116760571D01*
X121348095Y-116712952D01*
X121252857Y-116665333D01*
X121062380Y-116665333D01*
X120967142Y-116712952D01*
X120919523Y-116760571D01*
X120871904Y-116855809D01*
X122062380Y-116284380D02*
X122157619Y-116284380D01*
X122252857Y-116332000D01*
X122300476Y-116379619D01*
X122348095Y-116474857D01*
X122395714Y-116665333D01*
X122395714Y-116903428D01*
X122348095Y-117093904D01*
X122300476Y-117189142D01*
X122252857Y-117236761D01*
X122157619Y-117284380D01*
X122062380Y-117284380D01*
X121967142Y-117236761D01*
X121919523Y-117189142D01*
X121871904Y-117093904D01*
X121824285Y-116903428D01*
X121824285Y-116665333D01*
X121871904Y-116474857D01*
X121919523Y-116379619D01*
X121967142Y-116332000D01*
X122062380Y-116284380D01*
X122729047Y-116284380D02*
X123348095Y-116284380D01*
X123014761Y-116665333D01*
X123157619Y-116665333D01*
X123252857Y-116712952D01*
X123300476Y-116760571D01*
X123348095Y-116855809D01*
X123348095Y-117093904D01*
X123300476Y-117189142D01*
X123252857Y-117236761D01*
X123157619Y-117284380D01*
X122871904Y-117284380D01*
X122776666Y-117236761D01*
X122729047Y-117189142D01*
X170607142Y-114269047D02*
X170654761Y-114316666D01*
X170702380Y-114459523D01*
X170702380Y-114554761D01*
X170654761Y-114697619D01*
X170559523Y-114792857D01*
X170464285Y-114840476D01*
X170273809Y-114888095D01*
X170130952Y-114888095D01*
X169940476Y-114840476D01*
X169845238Y-114792857D01*
X169750000Y-114697619D01*
X169702380Y-114554761D01*
X169702380Y-114459523D01*
X169750000Y-114316666D01*
X169797619Y-114269047D01*
X170035714Y-113411904D02*
X170702380Y-113411904D01*
X169654761Y-113650000D02*
X170369047Y-113888095D01*
X170369047Y-113269047D01*
X169702380Y-112697619D02*
X169702380Y-112602380D01*
X169750000Y-112507142D01*
X169797619Y-112459523D01*
X169892857Y-112411904D01*
X170083333Y-112364285D01*
X170321428Y-112364285D01*
X170511904Y-112411904D01*
X170607142Y-112459523D01*
X170654761Y-112507142D01*
X170702380Y-112602380D01*
X170702380Y-112697619D01*
X170654761Y-112792857D01*
X170607142Y-112840476D01*
X170511904Y-112888095D01*
X170321428Y-112935714D01*
X170083333Y-112935714D01*
X169892857Y-112888095D01*
X169797619Y-112840476D01*
X169750000Y-112792857D01*
X169702380Y-112697619D01*
X170035714Y-111507142D02*
X170702380Y-111507142D01*
X169654761Y-111745238D02*
X170369047Y-111983333D01*
X170369047Y-111364285D01*
X196052285Y-67862380D02*
X196052285Y-68576666D01*
X196004666Y-68719523D01*
X195909428Y-68814761D01*
X195766571Y-68862380D01*
X195671333Y-68862380D01*
X197004666Y-67862380D02*
X196528476Y-67862380D01*
X196480857Y-68338571D01*
X196528476Y-68290952D01*
X196623714Y-68243333D01*
X196861809Y-68243333D01*
X196957047Y-68290952D01*
X197004666Y-68338571D01*
X197052285Y-68433809D01*
X197052285Y-68671904D01*
X197004666Y-68767142D01*
X196957047Y-68814761D01*
X196861809Y-68862380D01*
X196623714Y-68862380D01*
X196528476Y-68814761D01*
X196480857Y-68767142D01*
X197671333Y-67862380D02*
X197766571Y-67862380D01*
X197861809Y-67910000D01*
X197909428Y-67957619D01*
X197957047Y-68052857D01*
X198004666Y-68243333D01*
X198004666Y-68481428D01*
X197957047Y-68671904D01*
X197909428Y-68767142D01*
X197861809Y-68814761D01*
X197766571Y-68862380D01*
X197671333Y-68862380D01*
X197576095Y-68814761D01*
X197528476Y-68767142D01*
X197480857Y-68671904D01*
X197433238Y-68481428D01*
X197433238Y-68243333D01*
X197480857Y-68052857D01*
X197528476Y-67957619D01*
X197576095Y-67910000D01*
X197671333Y-67862380D01*
X198385619Y-67957619D02*
X198433238Y-67910000D01*
X198528476Y-67862380D01*
X198766571Y-67862380D01*
X198861809Y-67910000D01*
X198909428Y-67957619D01*
X198957047Y-68052857D01*
X198957047Y-68148095D01*
X198909428Y-68290952D01*
X198338000Y-68862380D01*
X198957047Y-68862380D01*
X196044285Y-160522380D02*
X196044285Y-161236666D01*
X195996666Y-161379523D01*
X195901428Y-161474761D01*
X195758571Y-161522380D01*
X195663333Y-161522380D01*
X196996666Y-160522380D02*
X196520476Y-160522380D01*
X196472857Y-160998571D01*
X196520476Y-160950952D01*
X196615714Y-160903333D01*
X196853809Y-160903333D01*
X196949047Y-160950952D01*
X196996666Y-160998571D01*
X197044285Y-161093809D01*
X197044285Y-161331904D01*
X196996666Y-161427142D01*
X196949047Y-161474761D01*
X196853809Y-161522380D01*
X196615714Y-161522380D01*
X196520476Y-161474761D01*
X196472857Y-161427142D01*
X197663333Y-160522380D02*
X197758571Y-160522380D01*
X197853809Y-160570000D01*
X197901428Y-160617619D01*
X197949047Y-160712857D01*
X197996666Y-160903333D01*
X197996666Y-161141428D01*
X197949047Y-161331904D01*
X197901428Y-161427142D01*
X197853809Y-161474761D01*
X197758571Y-161522380D01*
X197663333Y-161522380D01*
X197568095Y-161474761D01*
X197520476Y-161427142D01*
X197472857Y-161331904D01*
X197425238Y-161141428D01*
X197425238Y-160903333D01*
X197472857Y-160712857D01*
X197520476Y-160617619D01*
X197568095Y-160570000D01*
X197663333Y-160522380D01*
X198949047Y-161522380D02*
X198377619Y-161522380D01*
X198663333Y-161522380D02*
X198663333Y-160522380D01*
X198568095Y-160665238D01*
X198472857Y-160760476D01*
X198377619Y-160808095D01*
X176760452Y-154434380D02*
X176427119Y-153958190D01*
X176189023Y-154434380D02*
X176189023Y-153434380D01*
X176569976Y-153434380D01*
X176665214Y-153482000D01*
X176712833Y-153529619D01*
X176760452Y-153624857D01*
X176760452Y-153767714D01*
X176712833Y-153862952D01*
X176665214Y-153910571D01*
X176569976Y-153958190D01*
X176189023Y-153958190D01*
X177617595Y-153434380D02*
X177427119Y-153434380D01*
X177331880Y-153482000D01*
X177284261Y-153529619D01*
X177189023Y-153672476D01*
X177141404Y-153862952D01*
X177141404Y-154243904D01*
X177189023Y-154339142D01*
X177236642Y-154386761D01*
X177331880Y-154434380D01*
X177522357Y-154434380D01*
X177617595Y-154386761D01*
X177665214Y-154339142D01*
X177712833Y-154243904D01*
X177712833Y-154005809D01*
X177665214Y-153910571D01*
X177617595Y-153862952D01*
X177522357Y-153815333D01*
X177331880Y-153815333D01*
X177236642Y-153862952D01*
X177189023Y-153910571D01*
X177141404Y-154005809D01*
X178331880Y-153434380D02*
X178427119Y-153434380D01*
X178522357Y-153482000D01*
X178569976Y-153529619D01*
X178617595Y-153624857D01*
X178665214Y-153815333D01*
X178665214Y-154053428D01*
X178617595Y-154243904D01*
X178569976Y-154339142D01*
X178522357Y-154386761D01*
X178427119Y-154434380D01*
X178331880Y-154434380D01*
X178236642Y-154386761D01*
X178189023Y-154339142D01*
X178141404Y-154243904D01*
X178093785Y-154053428D01*
X178093785Y-153815333D01*
X178141404Y-153624857D01*
X178189023Y-153529619D01*
X178236642Y-153482000D01*
X178331880Y-153434380D01*
X178998547Y-153434380D02*
X179665214Y-153434380D01*
X179236642Y-154434380D01*
X179046452Y-157990380D02*
X178713119Y-157514190D01*
X178475023Y-157990380D02*
X178475023Y-156990380D01*
X178855976Y-156990380D01*
X178951214Y-157038000D01*
X178998833Y-157085619D01*
X179046452Y-157180857D01*
X179046452Y-157323714D01*
X178998833Y-157418952D01*
X178951214Y-157466571D01*
X178855976Y-157514190D01*
X178475023Y-157514190D01*
X179903595Y-156990380D02*
X179713119Y-156990380D01*
X179617880Y-157038000D01*
X179570261Y-157085619D01*
X179475023Y-157228476D01*
X179427404Y-157418952D01*
X179427404Y-157799904D01*
X179475023Y-157895142D01*
X179522642Y-157942761D01*
X179617880Y-157990380D01*
X179808357Y-157990380D01*
X179903595Y-157942761D01*
X179951214Y-157895142D01*
X179998833Y-157799904D01*
X179998833Y-157561809D01*
X179951214Y-157466571D01*
X179903595Y-157418952D01*
X179808357Y-157371333D01*
X179617880Y-157371333D01*
X179522642Y-157418952D01*
X179475023Y-157466571D01*
X179427404Y-157561809D01*
X180617880Y-156990380D02*
X180713119Y-156990380D01*
X180808357Y-157038000D01*
X180855976Y-157085619D01*
X180903595Y-157180857D01*
X180951214Y-157371333D01*
X180951214Y-157609428D01*
X180903595Y-157799904D01*
X180855976Y-157895142D01*
X180808357Y-157942761D01*
X180713119Y-157990380D01*
X180617880Y-157990380D01*
X180522642Y-157942761D01*
X180475023Y-157895142D01*
X180427404Y-157799904D01*
X180379785Y-157609428D01*
X180379785Y-157371333D01*
X180427404Y-157180857D01*
X180475023Y-157085619D01*
X180522642Y-157038000D01*
X180617880Y-156990380D01*
X181808357Y-156990380D02*
X181617880Y-156990380D01*
X181522642Y-157038000D01*
X181475023Y-157085619D01*
X181379785Y-157228476D01*
X181332166Y-157418952D01*
X181332166Y-157799904D01*
X181379785Y-157895142D01*
X181427404Y-157942761D01*
X181522642Y-157990380D01*
X181713119Y-157990380D01*
X181808357Y-157942761D01*
X181855976Y-157895142D01*
X181903595Y-157799904D01*
X181903595Y-157561809D01*
X181855976Y-157466571D01*
X181808357Y-157418952D01*
X181713119Y-157371333D01*
X181522642Y-157371333D01*
X181427404Y-157418952D01*
X181379785Y-157466571D01*
X181332166Y-157561809D01*
X170580380Y-156411714D02*
X171294666Y-156411714D01*
X171437523Y-156459333D01*
X171532761Y-156554571D01*
X171580380Y-156697428D01*
X171580380Y-156792666D01*
X170580380Y-155506952D02*
X170580380Y-155697428D01*
X170628000Y-155792666D01*
X170675619Y-155840285D01*
X170818476Y-155935523D01*
X171008952Y-155983142D01*
X171389904Y-155983142D01*
X171485142Y-155935523D01*
X171532761Y-155887904D01*
X171580380Y-155792666D01*
X171580380Y-155602190D01*
X171532761Y-155506952D01*
X171485142Y-155459333D01*
X171389904Y-155411714D01*
X171151809Y-155411714D01*
X171056571Y-155459333D01*
X171008952Y-155506952D01*
X170961333Y-155602190D01*
X170961333Y-155792666D01*
X171008952Y-155887904D01*
X171056571Y-155935523D01*
X171151809Y-155983142D01*
X170580380Y-154792666D02*
X170580380Y-154697428D01*
X170628000Y-154602190D01*
X170675619Y-154554571D01*
X170770857Y-154506952D01*
X170961333Y-154459333D01*
X171199428Y-154459333D01*
X171389904Y-154506952D01*
X171485142Y-154554571D01*
X171532761Y-154602190D01*
X171580380Y-154697428D01*
X171580380Y-154792666D01*
X171532761Y-154887904D01*
X171485142Y-154935523D01*
X171389904Y-154983142D01*
X171199428Y-155030761D01*
X170961333Y-155030761D01*
X170770857Y-154983142D01*
X170675619Y-154935523D01*
X170628000Y-154887904D01*
X170580380Y-154792666D01*
X170580380Y-153554571D02*
X170580380Y-154030761D01*
X171056571Y-154078380D01*
X171008952Y-154030761D01*
X170961333Y-153935523D01*
X170961333Y-153697428D01*
X171008952Y-153602190D01*
X171056571Y-153554571D01*
X171151809Y-153506952D01*
X171389904Y-153506952D01*
X171485142Y-153554571D01*
X171532761Y-153602190D01*
X171580380Y-153697428D01*
X171580380Y-153935523D01*
X171532761Y-154030761D01*
X171485142Y-154078380D01*
X160742285Y-117958380D02*
X160742285Y-118672666D01*
X160694666Y-118815523D01*
X160599428Y-118910761D01*
X160456571Y-118958380D01*
X160361333Y-118958380D01*
X161647047Y-118291714D02*
X161647047Y-118958380D01*
X161408952Y-117910761D02*
X161170857Y-118625047D01*
X161789904Y-118625047D01*
X162361333Y-117958380D02*
X162456571Y-117958380D01*
X162551809Y-118006000D01*
X162599428Y-118053619D01*
X162647047Y-118148857D01*
X162694666Y-118339333D01*
X162694666Y-118577428D01*
X162647047Y-118767904D01*
X162599428Y-118863142D01*
X162551809Y-118910761D01*
X162456571Y-118958380D01*
X162361333Y-118958380D01*
X162266095Y-118910761D01*
X162218476Y-118863142D01*
X162170857Y-118767904D01*
X162123238Y-118577428D01*
X162123238Y-118339333D01*
X162170857Y-118148857D01*
X162218476Y-118053619D01*
X162266095Y-118006000D01*
X162361333Y-117958380D01*
X163028000Y-117958380D02*
X163647047Y-117958380D01*
X163313714Y-118339333D01*
X163456571Y-118339333D01*
X163551809Y-118386952D01*
X163599428Y-118434571D01*
X163647047Y-118529809D01*
X163647047Y-118767904D01*
X163599428Y-118863142D01*
X163551809Y-118910761D01*
X163456571Y-118958380D01*
X163170857Y-118958380D01*
X163075619Y-118910761D01*
X163028000Y-118863142D01*
X159218285Y-129222380D02*
X159218285Y-129936666D01*
X159170666Y-130079523D01*
X159075428Y-130174761D01*
X158932571Y-130222380D01*
X158837333Y-130222380D01*
X160123047Y-129555714D02*
X160123047Y-130222380D01*
X159884952Y-129174761D02*
X159646857Y-129889047D01*
X160265904Y-129889047D01*
X160837333Y-129222380D02*
X160932571Y-129222380D01*
X161027809Y-129270000D01*
X161075428Y-129317619D01*
X161123047Y-129412857D01*
X161170666Y-129603333D01*
X161170666Y-129841428D01*
X161123047Y-130031904D01*
X161075428Y-130127142D01*
X161027809Y-130174761D01*
X160932571Y-130222380D01*
X160837333Y-130222380D01*
X160742095Y-130174761D01*
X160694476Y-130127142D01*
X160646857Y-130031904D01*
X160599238Y-129841428D01*
X160599238Y-129603333D01*
X160646857Y-129412857D01*
X160694476Y-129317619D01*
X160742095Y-129270000D01*
X160837333Y-129222380D01*
X161551619Y-129317619D02*
X161599238Y-129270000D01*
X161694476Y-129222380D01*
X161932571Y-129222380D01*
X162027809Y-129270000D01*
X162075428Y-129317619D01*
X162123047Y-129412857D01*
X162123047Y-129508095D01*
X162075428Y-129650952D01*
X161504000Y-130222380D01*
X162123047Y-130222380D01*
X122912952Y-102366380D02*
X122579619Y-101890190D01*
X122341523Y-102366380D02*
X122341523Y-101366380D01*
X122722476Y-101366380D01*
X122817714Y-101414000D01*
X122865333Y-101461619D01*
X122912952Y-101556857D01*
X122912952Y-101699714D01*
X122865333Y-101794952D01*
X122817714Y-101842571D01*
X122722476Y-101890190D01*
X122341523Y-101890190D01*
X123770095Y-101366380D02*
X123579619Y-101366380D01*
X123484380Y-101414000D01*
X123436761Y-101461619D01*
X123341523Y-101604476D01*
X123293904Y-101794952D01*
X123293904Y-102175904D01*
X123341523Y-102271142D01*
X123389142Y-102318761D01*
X123484380Y-102366380D01*
X123674857Y-102366380D01*
X123770095Y-102318761D01*
X123817714Y-102271142D01*
X123865333Y-102175904D01*
X123865333Y-101937809D01*
X123817714Y-101842571D01*
X123770095Y-101794952D01*
X123674857Y-101747333D01*
X123484380Y-101747333D01*
X123389142Y-101794952D01*
X123341523Y-101842571D01*
X123293904Y-101937809D01*
X124484380Y-101366380D02*
X124579619Y-101366380D01*
X124674857Y-101414000D01*
X124722476Y-101461619D01*
X124770095Y-101556857D01*
X124817714Y-101747333D01*
X124817714Y-101985428D01*
X124770095Y-102175904D01*
X124722476Y-102271142D01*
X124674857Y-102318761D01*
X124579619Y-102366380D01*
X124484380Y-102366380D01*
X124389142Y-102318761D01*
X124341523Y-102271142D01*
X124293904Y-102175904D01*
X124246285Y-101985428D01*
X124246285Y-101747333D01*
X124293904Y-101556857D01*
X124341523Y-101461619D01*
X124389142Y-101414000D01*
X124484380Y-101366380D01*
X125722476Y-101366380D02*
X125246285Y-101366380D01*
X125198666Y-101842571D01*
X125246285Y-101794952D01*
X125341523Y-101747333D01*
X125579619Y-101747333D01*
X125674857Y-101794952D01*
X125722476Y-101842571D01*
X125770095Y-101937809D01*
X125770095Y-102175904D01*
X125722476Y-102271142D01*
X125674857Y-102318761D01*
X125579619Y-102366380D01*
X125341523Y-102366380D01*
X125246285Y-102318761D01*
X125198666Y-102271142D01*
X120776952Y-79250380D02*
X120443619Y-78774190D01*
X120205523Y-79250380D02*
X120205523Y-78250380D01*
X120586476Y-78250380D01*
X120681714Y-78298000D01*
X120729333Y-78345619D01*
X120776952Y-78440857D01*
X120776952Y-78583714D01*
X120729333Y-78678952D01*
X120681714Y-78726571D01*
X120586476Y-78774190D01*
X120205523Y-78774190D01*
X121634095Y-78250380D02*
X121443619Y-78250380D01*
X121348380Y-78298000D01*
X121300761Y-78345619D01*
X121205523Y-78488476D01*
X121157904Y-78678952D01*
X121157904Y-79059904D01*
X121205523Y-79155142D01*
X121253142Y-79202761D01*
X121348380Y-79250380D01*
X121538857Y-79250380D01*
X121634095Y-79202761D01*
X121681714Y-79155142D01*
X121729333Y-79059904D01*
X121729333Y-78821809D01*
X121681714Y-78726571D01*
X121634095Y-78678952D01*
X121538857Y-78631333D01*
X121348380Y-78631333D01*
X121253142Y-78678952D01*
X121205523Y-78726571D01*
X121157904Y-78821809D01*
X122348380Y-78250380D02*
X122443619Y-78250380D01*
X122538857Y-78298000D01*
X122586476Y-78345619D01*
X122634095Y-78440857D01*
X122681714Y-78631333D01*
X122681714Y-78869428D01*
X122634095Y-79059904D01*
X122586476Y-79155142D01*
X122538857Y-79202761D01*
X122443619Y-79250380D01*
X122348380Y-79250380D01*
X122253142Y-79202761D01*
X122205523Y-79155142D01*
X122157904Y-79059904D01*
X122110285Y-78869428D01*
X122110285Y-78631333D01*
X122157904Y-78440857D01*
X122205523Y-78345619D01*
X122253142Y-78298000D01*
X122348380Y-78250380D01*
X123538857Y-78583714D02*
X123538857Y-79250380D01*
X123300761Y-78202761D02*
X123062666Y-78917047D01*
X123681714Y-78917047D01*
X121284952Y-111762380D02*
X120951619Y-111286190D01*
X120713523Y-111762380D02*
X120713523Y-110762380D01*
X121094476Y-110762380D01*
X121189714Y-110810000D01*
X121237333Y-110857619D01*
X121284952Y-110952857D01*
X121284952Y-111095714D01*
X121237333Y-111190952D01*
X121189714Y-111238571D01*
X121094476Y-111286190D01*
X120713523Y-111286190D01*
X122142095Y-110762380D02*
X121951619Y-110762380D01*
X121856380Y-110810000D01*
X121808761Y-110857619D01*
X121713523Y-111000476D01*
X121665904Y-111190952D01*
X121665904Y-111571904D01*
X121713523Y-111667142D01*
X121761142Y-111714761D01*
X121856380Y-111762380D01*
X122046857Y-111762380D01*
X122142095Y-111714761D01*
X122189714Y-111667142D01*
X122237333Y-111571904D01*
X122237333Y-111333809D01*
X122189714Y-111238571D01*
X122142095Y-111190952D01*
X122046857Y-111143333D01*
X121856380Y-111143333D01*
X121761142Y-111190952D01*
X121713523Y-111238571D01*
X121665904Y-111333809D01*
X122856380Y-110762380D02*
X122951619Y-110762380D01*
X123046857Y-110810000D01*
X123094476Y-110857619D01*
X123142095Y-110952857D01*
X123189714Y-111143333D01*
X123189714Y-111381428D01*
X123142095Y-111571904D01*
X123094476Y-111667142D01*
X123046857Y-111714761D01*
X122951619Y-111762380D01*
X122856380Y-111762380D01*
X122761142Y-111714761D01*
X122713523Y-111667142D01*
X122665904Y-111571904D01*
X122618285Y-111381428D01*
X122618285Y-111143333D01*
X122665904Y-110952857D01*
X122713523Y-110857619D01*
X122761142Y-110810000D01*
X122856380Y-110762380D01*
X123523047Y-110762380D02*
X124142095Y-110762380D01*
X123808761Y-111143333D01*
X123951619Y-111143333D01*
X124046857Y-111190952D01*
X124094476Y-111238571D01*
X124142095Y-111333809D01*
X124142095Y-111571904D01*
X124094476Y-111667142D01*
X124046857Y-111714761D01*
X123951619Y-111762380D01*
X123665904Y-111762380D01*
X123570666Y-111714761D01*
X123523047Y-111667142D01*
X109092952Y-74426380D02*
X108759619Y-73950190D01*
X108521523Y-74426380D02*
X108521523Y-73426380D01*
X108902476Y-73426380D01*
X108997714Y-73474000D01*
X109045333Y-73521619D01*
X109092952Y-73616857D01*
X109092952Y-73759714D01*
X109045333Y-73854952D01*
X108997714Y-73902571D01*
X108902476Y-73950190D01*
X108521523Y-73950190D01*
X109950095Y-73426380D02*
X109759619Y-73426380D01*
X109664380Y-73474000D01*
X109616761Y-73521619D01*
X109521523Y-73664476D01*
X109473904Y-73854952D01*
X109473904Y-74235904D01*
X109521523Y-74331142D01*
X109569142Y-74378761D01*
X109664380Y-74426380D01*
X109854857Y-74426380D01*
X109950095Y-74378761D01*
X109997714Y-74331142D01*
X110045333Y-74235904D01*
X110045333Y-73997809D01*
X109997714Y-73902571D01*
X109950095Y-73854952D01*
X109854857Y-73807333D01*
X109664380Y-73807333D01*
X109569142Y-73854952D01*
X109521523Y-73902571D01*
X109473904Y-73997809D01*
X110664380Y-73426380D02*
X110759619Y-73426380D01*
X110854857Y-73474000D01*
X110902476Y-73521619D01*
X110950095Y-73616857D01*
X110997714Y-73807333D01*
X110997714Y-74045428D01*
X110950095Y-74235904D01*
X110902476Y-74331142D01*
X110854857Y-74378761D01*
X110759619Y-74426380D01*
X110664380Y-74426380D01*
X110569142Y-74378761D01*
X110521523Y-74331142D01*
X110473904Y-74235904D01*
X110426285Y-74045428D01*
X110426285Y-73807333D01*
X110473904Y-73616857D01*
X110521523Y-73521619D01*
X110569142Y-73474000D01*
X110664380Y-73426380D01*
X111378666Y-73521619D02*
X111426285Y-73474000D01*
X111521523Y-73426380D01*
X111759619Y-73426380D01*
X111854857Y-73474000D01*
X111902476Y-73521619D01*
X111950095Y-73616857D01*
X111950095Y-73712095D01*
X111902476Y-73854952D01*
X111331047Y-74426380D01*
X111950095Y-74426380D01*
X109196952Y-105414380D02*
X108863619Y-104938190D01*
X108625523Y-105414380D02*
X108625523Y-104414380D01*
X109006476Y-104414380D01*
X109101714Y-104462000D01*
X109149333Y-104509619D01*
X109196952Y-104604857D01*
X109196952Y-104747714D01*
X109149333Y-104842952D01*
X109101714Y-104890571D01*
X109006476Y-104938190D01*
X108625523Y-104938190D01*
X110054095Y-104414380D02*
X109863619Y-104414380D01*
X109768380Y-104462000D01*
X109720761Y-104509619D01*
X109625523Y-104652476D01*
X109577904Y-104842952D01*
X109577904Y-105223904D01*
X109625523Y-105319142D01*
X109673142Y-105366761D01*
X109768380Y-105414380D01*
X109958857Y-105414380D01*
X110054095Y-105366761D01*
X110101714Y-105319142D01*
X110149333Y-105223904D01*
X110149333Y-104985809D01*
X110101714Y-104890571D01*
X110054095Y-104842952D01*
X109958857Y-104795333D01*
X109768380Y-104795333D01*
X109673142Y-104842952D01*
X109625523Y-104890571D01*
X109577904Y-104985809D01*
X110768380Y-104414380D02*
X110863619Y-104414380D01*
X110958857Y-104462000D01*
X111006476Y-104509619D01*
X111054095Y-104604857D01*
X111101714Y-104795333D01*
X111101714Y-105033428D01*
X111054095Y-105223904D01*
X111006476Y-105319142D01*
X110958857Y-105366761D01*
X110863619Y-105414380D01*
X110768380Y-105414380D01*
X110673142Y-105366761D01*
X110625523Y-105319142D01*
X110577904Y-105223904D01*
X110530285Y-105033428D01*
X110530285Y-104795333D01*
X110577904Y-104604857D01*
X110625523Y-104509619D01*
X110673142Y-104462000D01*
X110768380Y-104414380D01*
X112054095Y-105414380D02*
X111482666Y-105414380D01*
X111768380Y-105414380D02*
X111768380Y-104414380D01*
X111673142Y-104557238D01*
X111577904Y-104652476D01*
X111482666Y-104700095D01*
X106901619Y-81497619D02*
X106854000Y-81592857D01*
X106758761Y-81688095D01*
X106615904Y-81830952D01*
X106568285Y-81926190D01*
X106568285Y-82021428D01*
X106806380Y-81973809D02*
X106758761Y-82069047D01*
X106663523Y-82164285D01*
X106473047Y-82211904D01*
X106139714Y-82211904D01*
X105949238Y-82164285D01*
X105854000Y-82069047D01*
X105806380Y-81973809D01*
X105806380Y-81783333D01*
X105854000Y-81688095D01*
X105949238Y-81592857D01*
X106139714Y-81545238D01*
X106473047Y-81545238D01*
X106663523Y-81592857D01*
X106758761Y-81688095D01*
X106806380Y-81783333D01*
X106806380Y-81973809D01*
X105806380Y-80688095D02*
X105806380Y-80878571D01*
X105854000Y-80973809D01*
X105901619Y-81021428D01*
X106044476Y-81116666D01*
X106234952Y-81164285D01*
X106615904Y-81164285D01*
X106711142Y-81116666D01*
X106758761Y-81069047D01*
X106806380Y-80973809D01*
X106806380Y-80783333D01*
X106758761Y-80688095D01*
X106711142Y-80640476D01*
X106615904Y-80592857D01*
X106377809Y-80592857D01*
X106282571Y-80640476D01*
X106234952Y-80688095D01*
X106187333Y-80783333D01*
X106187333Y-80973809D01*
X106234952Y-81069047D01*
X106282571Y-81116666D01*
X106377809Y-81164285D01*
X105806380Y-79973809D02*
X105806380Y-79878571D01*
X105854000Y-79783333D01*
X105901619Y-79735714D01*
X105996857Y-79688095D01*
X106187333Y-79640476D01*
X106425428Y-79640476D01*
X106615904Y-79688095D01*
X106711142Y-79735714D01*
X106758761Y-79783333D01*
X106806380Y-79878571D01*
X106806380Y-79973809D01*
X106758761Y-80069047D01*
X106711142Y-80116666D01*
X106615904Y-80164285D01*
X106425428Y-80211904D01*
X106187333Y-80211904D01*
X105996857Y-80164285D01*
X105901619Y-80116666D01*
X105854000Y-80069047D01*
X105806380Y-79973809D01*
X105901619Y-79259523D02*
X105854000Y-79211904D01*
X105806380Y-79116666D01*
X105806380Y-78878571D01*
X105854000Y-78783333D01*
X105901619Y-78735714D01*
X105996857Y-78688095D01*
X106092095Y-78688095D01*
X106234952Y-78735714D01*
X106806380Y-79307142D01*
X106806380Y-78688095D01*
X106393619Y-114009619D02*
X106346000Y-114104857D01*
X106250761Y-114200095D01*
X106107904Y-114342952D01*
X106060285Y-114438190D01*
X106060285Y-114533428D01*
X106298380Y-114485809D02*
X106250761Y-114581047D01*
X106155523Y-114676285D01*
X105965047Y-114723904D01*
X105631714Y-114723904D01*
X105441238Y-114676285D01*
X105346000Y-114581047D01*
X105298380Y-114485809D01*
X105298380Y-114295333D01*
X105346000Y-114200095D01*
X105441238Y-114104857D01*
X105631714Y-114057238D01*
X105965047Y-114057238D01*
X106155523Y-114104857D01*
X106250761Y-114200095D01*
X106298380Y-114295333D01*
X106298380Y-114485809D01*
X105298380Y-113200095D02*
X105298380Y-113390571D01*
X105346000Y-113485809D01*
X105393619Y-113533428D01*
X105536476Y-113628666D01*
X105726952Y-113676285D01*
X106107904Y-113676285D01*
X106203142Y-113628666D01*
X106250761Y-113581047D01*
X106298380Y-113485809D01*
X106298380Y-113295333D01*
X106250761Y-113200095D01*
X106203142Y-113152476D01*
X106107904Y-113104857D01*
X105869809Y-113104857D01*
X105774571Y-113152476D01*
X105726952Y-113200095D01*
X105679333Y-113295333D01*
X105679333Y-113485809D01*
X105726952Y-113581047D01*
X105774571Y-113628666D01*
X105869809Y-113676285D01*
X105298380Y-112485809D02*
X105298380Y-112390571D01*
X105346000Y-112295333D01*
X105393619Y-112247714D01*
X105488857Y-112200095D01*
X105679333Y-112152476D01*
X105917428Y-112152476D01*
X106107904Y-112200095D01*
X106203142Y-112247714D01*
X106250761Y-112295333D01*
X106298380Y-112390571D01*
X106298380Y-112485809D01*
X106250761Y-112581047D01*
X106203142Y-112628666D01*
X106107904Y-112676285D01*
X105917428Y-112723904D01*
X105679333Y-112723904D01*
X105488857Y-112676285D01*
X105393619Y-112628666D01*
X105346000Y-112581047D01*
X105298380Y-112485809D01*
X106298380Y-111200095D02*
X106298380Y-111771523D01*
X106298380Y-111485809D02*
X105298380Y-111485809D01*
X105441238Y-111581047D01*
X105536476Y-111676285D01*
X105584095Y-111771523D01*
X131774285Y-92092380D02*
X131774285Y-92806666D01*
X131726666Y-92949523D01*
X131631428Y-93044761D01*
X131488571Y-93092380D01*
X131393333Y-93092380D01*
X132679047Y-92092380D02*
X132488571Y-92092380D01*
X132393333Y-92140000D01*
X132345714Y-92187619D01*
X132250476Y-92330476D01*
X132202857Y-92520952D01*
X132202857Y-92901904D01*
X132250476Y-92997142D01*
X132298095Y-93044761D01*
X132393333Y-93092380D01*
X132583809Y-93092380D01*
X132679047Y-93044761D01*
X132726666Y-92997142D01*
X132774285Y-92901904D01*
X132774285Y-92663809D01*
X132726666Y-92568571D01*
X132679047Y-92520952D01*
X132583809Y-92473333D01*
X132393333Y-92473333D01*
X132298095Y-92520952D01*
X132250476Y-92568571D01*
X132202857Y-92663809D01*
X133393333Y-92092380D02*
X133488571Y-92092380D01*
X133583809Y-92140000D01*
X133631428Y-92187619D01*
X133679047Y-92282857D01*
X133726666Y-92473333D01*
X133726666Y-92711428D01*
X133679047Y-92901904D01*
X133631428Y-92997142D01*
X133583809Y-93044761D01*
X133488571Y-93092380D01*
X133393333Y-93092380D01*
X133298095Y-93044761D01*
X133250476Y-92997142D01*
X133202857Y-92901904D01*
X133155238Y-92711428D01*
X133155238Y-92473333D01*
X133202857Y-92282857D01*
X133250476Y-92187619D01*
X133298095Y-92140000D01*
X133393333Y-92092380D01*
X134583809Y-92425714D02*
X134583809Y-93092380D01*
X134345714Y-92044761D02*
X134107619Y-92759047D01*
X134726666Y-92759047D01*
X131278285Y-124054380D02*
X131278285Y-124768666D01*
X131230666Y-124911523D01*
X131135428Y-125006761D01*
X130992571Y-125054380D01*
X130897333Y-125054380D01*
X132183047Y-124054380D02*
X131992571Y-124054380D01*
X131897333Y-124102000D01*
X131849714Y-124149619D01*
X131754476Y-124292476D01*
X131706857Y-124482952D01*
X131706857Y-124863904D01*
X131754476Y-124959142D01*
X131802095Y-125006761D01*
X131897333Y-125054380D01*
X132087809Y-125054380D01*
X132183047Y-125006761D01*
X132230666Y-124959142D01*
X132278285Y-124863904D01*
X132278285Y-124625809D01*
X132230666Y-124530571D01*
X132183047Y-124482952D01*
X132087809Y-124435333D01*
X131897333Y-124435333D01*
X131802095Y-124482952D01*
X131754476Y-124530571D01*
X131706857Y-124625809D01*
X132897333Y-124054380D02*
X132992571Y-124054380D01*
X133087809Y-124102000D01*
X133135428Y-124149619D01*
X133183047Y-124244857D01*
X133230666Y-124435333D01*
X133230666Y-124673428D01*
X133183047Y-124863904D01*
X133135428Y-124959142D01*
X133087809Y-125006761D01*
X132992571Y-125054380D01*
X132897333Y-125054380D01*
X132802095Y-125006761D01*
X132754476Y-124959142D01*
X132706857Y-124863904D01*
X132659238Y-124673428D01*
X132659238Y-124435333D01*
X132706857Y-124244857D01*
X132754476Y-124149619D01*
X132802095Y-124102000D01*
X132897333Y-124054380D01*
X133564000Y-124054380D02*
X134183047Y-124054380D01*
X133849714Y-124435333D01*
X133992571Y-124435333D01*
X134087809Y-124482952D01*
X134135428Y-124530571D01*
X134183047Y-124625809D01*
X134183047Y-124863904D01*
X134135428Y-124959142D01*
X134087809Y-125006761D01*
X133992571Y-125054380D01*
X133706857Y-125054380D01*
X133611619Y-125006761D01*
X133564000Y-124959142D01*
X131786285Y-90614380D02*
X131786285Y-91328666D01*
X131738666Y-91471523D01*
X131643428Y-91566761D01*
X131500571Y-91614380D01*
X131405333Y-91614380D01*
X132691047Y-90614380D02*
X132500571Y-90614380D01*
X132405333Y-90662000D01*
X132357714Y-90709619D01*
X132262476Y-90852476D01*
X132214857Y-91042952D01*
X132214857Y-91423904D01*
X132262476Y-91519142D01*
X132310095Y-91566761D01*
X132405333Y-91614380D01*
X132595809Y-91614380D01*
X132691047Y-91566761D01*
X132738666Y-91519142D01*
X132786285Y-91423904D01*
X132786285Y-91185809D01*
X132738666Y-91090571D01*
X132691047Y-91042952D01*
X132595809Y-90995333D01*
X132405333Y-90995333D01*
X132310095Y-91042952D01*
X132262476Y-91090571D01*
X132214857Y-91185809D01*
X133405333Y-90614380D02*
X133500571Y-90614380D01*
X133595809Y-90662000D01*
X133643428Y-90709619D01*
X133691047Y-90804857D01*
X133738666Y-90995333D01*
X133738666Y-91233428D01*
X133691047Y-91423904D01*
X133643428Y-91519142D01*
X133595809Y-91566761D01*
X133500571Y-91614380D01*
X133405333Y-91614380D01*
X133310095Y-91566761D01*
X133262476Y-91519142D01*
X133214857Y-91423904D01*
X133167238Y-91233428D01*
X133167238Y-90995333D01*
X133214857Y-90804857D01*
X133262476Y-90709619D01*
X133310095Y-90662000D01*
X133405333Y-90614380D01*
X134119619Y-90709619D02*
X134167238Y-90662000D01*
X134262476Y-90614380D01*
X134500571Y-90614380D01*
X134595809Y-90662000D01*
X134643428Y-90709619D01*
X134691047Y-90804857D01*
X134691047Y-90900095D01*
X134643428Y-91042952D01*
X134072000Y-91614380D01*
X134691047Y-91614380D01*
X131278285Y-122618380D02*
X131278285Y-123332666D01*
X131230666Y-123475523D01*
X131135428Y-123570761D01*
X130992571Y-123618380D01*
X130897333Y-123618380D01*
X132183047Y-122618380D02*
X131992571Y-122618380D01*
X131897333Y-122666000D01*
X131849714Y-122713619D01*
X131754476Y-122856476D01*
X131706857Y-123046952D01*
X131706857Y-123427904D01*
X131754476Y-123523142D01*
X131802095Y-123570761D01*
X131897333Y-123618380D01*
X132087809Y-123618380D01*
X132183047Y-123570761D01*
X132230666Y-123523142D01*
X132278285Y-123427904D01*
X132278285Y-123189809D01*
X132230666Y-123094571D01*
X132183047Y-123046952D01*
X132087809Y-122999333D01*
X131897333Y-122999333D01*
X131802095Y-123046952D01*
X131754476Y-123094571D01*
X131706857Y-123189809D01*
X132897333Y-122618380D02*
X132992571Y-122618380D01*
X133087809Y-122666000D01*
X133135428Y-122713619D01*
X133183047Y-122808857D01*
X133230666Y-122999333D01*
X133230666Y-123237428D01*
X133183047Y-123427904D01*
X133135428Y-123523142D01*
X133087809Y-123570761D01*
X132992571Y-123618380D01*
X132897333Y-123618380D01*
X132802095Y-123570761D01*
X132754476Y-123523142D01*
X132706857Y-123427904D01*
X132659238Y-123237428D01*
X132659238Y-122999333D01*
X132706857Y-122808857D01*
X132754476Y-122713619D01*
X132802095Y-122666000D01*
X132897333Y-122618380D01*
X134183047Y-123618380D02*
X133611619Y-123618380D01*
X133897333Y-123618380D02*
X133897333Y-122618380D01*
X133802095Y-122761238D01*
X133706857Y-122856476D01*
X133611619Y-122904095D01*
X118173523Y-105626380D02*
X118173523Y-104626380D01*
X118411619Y-104626380D01*
X118554476Y-104674000D01*
X118649714Y-104769238D01*
X118697333Y-104864476D01*
X118744952Y-105054952D01*
X118744952Y-105197809D01*
X118697333Y-105388285D01*
X118649714Y-105483523D01*
X118554476Y-105578761D01*
X118411619Y-105626380D01*
X118173523Y-105626380D01*
X119602095Y-104626380D02*
X119411619Y-104626380D01*
X119316380Y-104674000D01*
X119268761Y-104721619D01*
X119173523Y-104864476D01*
X119125904Y-105054952D01*
X119125904Y-105435904D01*
X119173523Y-105531142D01*
X119221142Y-105578761D01*
X119316380Y-105626380D01*
X119506857Y-105626380D01*
X119602095Y-105578761D01*
X119649714Y-105531142D01*
X119697333Y-105435904D01*
X119697333Y-105197809D01*
X119649714Y-105102571D01*
X119602095Y-105054952D01*
X119506857Y-105007333D01*
X119316380Y-105007333D01*
X119221142Y-105054952D01*
X119173523Y-105102571D01*
X119125904Y-105197809D01*
X120316380Y-104626380D02*
X120411619Y-104626380D01*
X120506857Y-104674000D01*
X120554476Y-104721619D01*
X120602095Y-104816857D01*
X120649714Y-105007333D01*
X120649714Y-105245428D01*
X120602095Y-105435904D01*
X120554476Y-105531142D01*
X120506857Y-105578761D01*
X120411619Y-105626380D01*
X120316380Y-105626380D01*
X120221142Y-105578761D01*
X120173523Y-105531142D01*
X120125904Y-105435904D01*
X120078285Y-105245428D01*
X120078285Y-105007333D01*
X120125904Y-104816857D01*
X120173523Y-104721619D01*
X120221142Y-104674000D01*
X120316380Y-104626380D01*
X121506857Y-104626380D02*
X121316380Y-104626380D01*
X121221142Y-104674000D01*
X121173523Y-104721619D01*
X121078285Y-104864476D01*
X121030666Y-105054952D01*
X121030666Y-105435904D01*
X121078285Y-105531142D01*
X121125904Y-105578761D01*
X121221142Y-105626380D01*
X121411619Y-105626380D01*
X121506857Y-105578761D01*
X121554476Y-105531142D01*
X121602095Y-105435904D01*
X121602095Y-105197809D01*
X121554476Y-105102571D01*
X121506857Y-105054952D01*
X121411619Y-105007333D01*
X121221142Y-105007333D01*
X121125904Y-105054952D01*
X121078285Y-105102571D01*
X121030666Y-105197809D01*
X135496380Y-93062476D02*
X134496380Y-93062476D01*
X134496380Y-92824380D01*
X134544000Y-92681523D01*
X134639238Y-92586285D01*
X134734476Y-92538666D01*
X134924952Y-92491047D01*
X135067809Y-92491047D01*
X135258285Y-92538666D01*
X135353523Y-92586285D01*
X135448761Y-92681523D01*
X135496380Y-92824380D01*
X135496380Y-93062476D01*
X134496380Y-91633904D02*
X134496380Y-91824380D01*
X134544000Y-91919619D01*
X134591619Y-91967238D01*
X134734476Y-92062476D01*
X134924952Y-92110095D01*
X135305904Y-92110095D01*
X135401142Y-92062476D01*
X135448761Y-92014857D01*
X135496380Y-91919619D01*
X135496380Y-91729142D01*
X135448761Y-91633904D01*
X135401142Y-91586285D01*
X135305904Y-91538666D01*
X135067809Y-91538666D01*
X134972571Y-91586285D01*
X134924952Y-91633904D01*
X134877333Y-91729142D01*
X134877333Y-91919619D01*
X134924952Y-92014857D01*
X134972571Y-92062476D01*
X135067809Y-92110095D01*
X134496380Y-90919619D02*
X134496380Y-90824380D01*
X134544000Y-90729142D01*
X134591619Y-90681523D01*
X134686857Y-90633904D01*
X134877333Y-90586285D01*
X135115428Y-90586285D01*
X135305904Y-90633904D01*
X135401142Y-90681523D01*
X135448761Y-90729142D01*
X135496380Y-90824380D01*
X135496380Y-90919619D01*
X135448761Y-91014857D01*
X135401142Y-91062476D01*
X135305904Y-91110095D01*
X135115428Y-91157714D01*
X134877333Y-91157714D01*
X134686857Y-91110095D01*
X134591619Y-91062476D01*
X134544000Y-91014857D01*
X134496380Y-90919619D01*
X134496380Y-89681523D02*
X134496380Y-90157714D01*
X134972571Y-90205333D01*
X134924952Y-90157714D01*
X134877333Y-90062476D01*
X134877333Y-89824380D01*
X134924952Y-89729142D01*
X134972571Y-89681523D01*
X135067809Y-89633904D01*
X135305904Y-89633904D01*
X135401142Y-89681523D01*
X135448761Y-89729142D01*
X135496380Y-89824380D01*
X135496380Y-90062476D01*
X135448761Y-90157714D01*
X135401142Y-90205333D01*
X113867523Y-77006380D02*
X113867523Y-76006380D01*
X114105619Y-76006380D01*
X114248476Y-76054000D01*
X114343714Y-76149238D01*
X114391333Y-76244476D01*
X114438952Y-76434952D01*
X114438952Y-76577809D01*
X114391333Y-76768285D01*
X114343714Y-76863523D01*
X114248476Y-76958761D01*
X114105619Y-77006380D01*
X113867523Y-77006380D01*
X115296095Y-76006380D02*
X115105619Y-76006380D01*
X115010380Y-76054000D01*
X114962761Y-76101619D01*
X114867523Y-76244476D01*
X114819904Y-76434952D01*
X114819904Y-76815904D01*
X114867523Y-76911142D01*
X114915142Y-76958761D01*
X115010380Y-77006380D01*
X115200857Y-77006380D01*
X115296095Y-76958761D01*
X115343714Y-76911142D01*
X115391333Y-76815904D01*
X115391333Y-76577809D01*
X115343714Y-76482571D01*
X115296095Y-76434952D01*
X115200857Y-76387333D01*
X115010380Y-76387333D01*
X114915142Y-76434952D01*
X114867523Y-76482571D01*
X114819904Y-76577809D01*
X116010380Y-76006380D02*
X116105619Y-76006380D01*
X116200857Y-76054000D01*
X116248476Y-76101619D01*
X116296095Y-76196857D01*
X116343714Y-76387333D01*
X116343714Y-76625428D01*
X116296095Y-76815904D01*
X116248476Y-76911142D01*
X116200857Y-76958761D01*
X116105619Y-77006380D01*
X116010380Y-77006380D01*
X115915142Y-76958761D01*
X115867523Y-76911142D01*
X115819904Y-76815904D01*
X115772285Y-76625428D01*
X115772285Y-76387333D01*
X115819904Y-76196857D01*
X115867523Y-76101619D01*
X115915142Y-76054000D01*
X116010380Y-76006380D01*
X116724666Y-76101619D02*
X116772285Y-76054000D01*
X116867523Y-76006380D01*
X117105619Y-76006380D01*
X117200857Y-76054000D01*
X117248476Y-76101619D01*
X117296095Y-76196857D01*
X117296095Y-76292095D01*
X117248476Y-76434952D01*
X116677047Y-77006380D01*
X117296095Y-77006380D01*
X113093523Y-109518380D02*
X113093523Y-108518380D01*
X113331619Y-108518380D01*
X113474476Y-108566000D01*
X113569714Y-108661238D01*
X113617333Y-108756476D01*
X113664952Y-108946952D01*
X113664952Y-109089809D01*
X113617333Y-109280285D01*
X113569714Y-109375523D01*
X113474476Y-109470761D01*
X113331619Y-109518380D01*
X113093523Y-109518380D01*
X114522095Y-108518380D02*
X114331619Y-108518380D01*
X114236380Y-108566000D01*
X114188761Y-108613619D01*
X114093523Y-108756476D01*
X114045904Y-108946952D01*
X114045904Y-109327904D01*
X114093523Y-109423142D01*
X114141142Y-109470761D01*
X114236380Y-109518380D01*
X114426857Y-109518380D01*
X114522095Y-109470761D01*
X114569714Y-109423142D01*
X114617333Y-109327904D01*
X114617333Y-109089809D01*
X114569714Y-108994571D01*
X114522095Y-108946952D01*
X114426857Y-108899333D01*
X114236380Y-108899333D01*
X114141142Y-108946952D01*
X114093523Y-108994571D01*
X114045904Y-109089809D01*
X115236380Y-108518380D02*
X115331619Y-108518380D01*
X115426857Y-108566000D01*
X115474476Y-108613619D01*
X115522095Y-108708857D01*
X115569714Y-108899333D01*
X115569714Y-109137428D01*
X115522095Y-109327904D01*
X115474476Y-109423142D01*
X115426857Y-109470761D01*
X115331619Y-109518380D01*
X115236380Y-109518380D01*
X115141142Y-109470761D01*
X115093523Y-109423142D01*
X115045904Y-109327904D01*
X114998285Y-109137428D01*
X114998285Y-108899333D01*
X115045904Y-108708857D01*
X115093523Y-108613619D01*
X115141142Y-108566000D01*
X115236380Y-108518380D01*
X116522095Y-109518380D02*
X115950666Y-109518380D01*
X116236380Y-109518380D02*
X116236380Y-108518380D01*
X116141142Y-108661238D01*
X116045904Y-108756476D01*
X115950666Y-108804095D01*
D17*
X123806047Y-155279142D02*
X123866523Y-155097714D01*
X123866523Y-154795333D01*
X123806047Y-154674380D01*
X123745571Y-154613904D01*
X123624619Y-154553428D01*
X123503666Y-154553428D01*
X123382714Y-154613904D01*
X123322238Y-154674380D01*
X123261761Y-154795333D01*
X123201285Y-155037238D01*
X123140809Y-155158190D01*
X123080333Y-155218666D01*
X122959380Y-155279142D01*
X122838428Y-155279142D01*
X122717476Y-155218666D01*
X122657000Y-155158190D01*
X122596523Y-155037238D01*
X122596523Y-154734857D01*
X122657000Y-154553428D01*
X123866523Y-153343904D02*
X123866523Y-154069619D01*
X123866523Y-153706761D02*
X122596523Y-153706761D01*
X122777952Y-153827714D01*
X122898904Y-153948666D01*
X122959380Y-154069619D01*
X122596523Y-152557714D02*
X122596523Y-152436761D01*
X122657000Y-152315809D01*
X122717476Y-152255333D01*
X122838428Y-152194857D01*
X123080333Y-152134380D01*
X123382714Y-152134380D01*
X123624619Y-152194857D01*
X123745571Y-152255333D01*
X123806047Y-152315809D01*
X123866523Y-152436761D01*
X123866523Y-152557714D01*
X123806047Y-152678666D01*
X123745571Y-152739142D01*
X123624619Y-152799619D01*
X123382714Y-152860095D01*
X123080333Y-152860095D01*
X122838428Y-152799619D01*
X122717476Y-152739142D01*
X122657000Y-152678666D01*
X122596523Y-152557714D01*
X122717476Y-151650571D02*
X122657000Y-151590095D01*
X122596523Y-151469142D01*
X122596523Y-151166761D01*
X122657000Y-151045809D01*
X122717476Y-150985333D01*
X122838428Y-150924857D01*
X122959380Y-150924857D01*
X123140809Y-150985333D01*
X123866523Y-151711047D01*
X123866523Y-150924857D01*
D10*
X148550285Y-83922380D02*
X148550285Y-84636666D01*
X148502666Y-84779523D01*
X148407428Y-84874761D01*
X148264571Y-84922380D01*
X148169333Y-84922380D01*
X148931238Y-83922380D02*
X149550285Y-83922380D01*
X149216952Y-84303333D01*
X149359809Y-84303333D01*
X149455047Y-84350952D01*
X149502666Y-84398571D01*
X149550285Y-84493809D01*
X149550285Y-84731904D01*
X149502666Y-84827142D01*
X149455047Y-84874761D01*
X149359809Y-84922380D01*
X149074095Y-84922380D01*
X148978857Y-84874761D01*
X148931238Y-84827142D01*
X150169333Y-83922380D02*
X150264571Y-83922380D01*
X150359809Y-83970000D01*
X150407428Y-84017619D01*
X150455047Y-84112857D01*
X150502666Y-84303333D01*
X150502666Y-84541428D01*
X150455047Y-84731904D01*
X150407428Y-84827142D01*
X150359809Y-84874761D01*
X150264571Y-84922380D01*
X150169333Y-84922380D01*
X150074095Y-84874761D01*
X150026476Y-84827142D01*
X149978857Y-84731904D01*
X149931238Y-84541428D01*
X149931238Y-84303333D01*
X149978857Y-84112857D01*
X150026476Y-84017619D01*
X150074095Y-83970000D01*
X150169333Y-83922380D01*
X150836000Y-83922380D02*
X151455047Y-83922380D01*
X151121714Y-84303333D01*
X151264571Y-84303333D01*
X151359809Y-84350952D01*
X151407428Y-84398571D01*
X151455047Y-84493809D01*
X151455047Y-84731904D01*
X151407428Y-84827142D01*
X151359809Y-84874761D01*
X151264571Y-84922380D01*
X150978857Y-84922380D01*
X150883619Y-84874761D01*
X150836000Y-84827142D01*
X153122285Y-79350380D02*
X153122285Y-80064666D01*
X153074666Y-80207523D01*
X152979428Y-80302761D01*
X152836571Y-80350380D01*
X152741333Y-80350380D01*
X153503238Y-79350380D02*
X154122285Y-79350380D01*
X153788952Y-79731333D01*
X153931809Y-79731333D01*
X154027047Y-79778952D01*
X154074666Y-79826571D01*
X154122285Y-79921809D01*
X154122285Y-80159904D01*
X154074666Y-80255142D01*
X154027047Y-80302761D01*
X153931809Y-80350380D01*
X153646095Y-80350380D01*
X153550857Y-80302761D01*
X153503238Y-80255142D01*
X154741333Y-79350380D02*
X154836571Y-79350380D01*
X154931809Y-79398000D01*
X154979428Y-79445619D01*
X155027047Y-79540857D01*
X155074666Y-79731333D01*
X155074666Y-79969428D01*
X155027047Y-80159904D01*
X154979428Y-80255142D01*
X154931809Y-80302761D01*
X154836571Y-80350380D01*
X154741333Y-80350380D01*
X154646095Y-80302761D01*
X154598476Y-80255142D01*
X154550857Y-80159904D01*
X154503238Y-79969428D01*
X154503238Y-79731333D01*
X154550857Y-79540857D01*
X154598476Y-79445619D01*
X154646095Y-79398000D01*
X154741333Y-79350380D01*
X155455619Y-79445619D02*
X155503238Y-79398000D01*
X155598476Y-79350380D01*
X155836571Y-79350380D01*
X155931809Y-79398000D01*
X155979428Y-79445619D01*
X156027047Y-79540857D01*
X156027047Y-79636095D01*
X155979428Y-79778952D01*
X155408000Y-80350380D01*
X156027047Y-80350380D01*
X148550285Y-79858380D02*
X148550285Y-80572666D01*
X148502666Y-80715523D01*
X148407428Y-80810761D01*
X148264571Y-80858380D01*
X148169333Y-80858380D01*
X148931238Y-79858380D02*
X149550285Y-79858380D01*
X149216952Y-80239333D01*
X149359809Y-80239333D01*
X149455047Y-80286952D01*
X149502666Y-80334571D01*
X149550285Y-80429809D01*
X149550285Y-80667904D01*
X149502666Y-80763142D01*
X149455047Y-80810761D01*
X149359809Y-80858380D01*
X149074095Y-80858380D01*
X148978857Y-80810761D01*
X148931238Y-80763142D01*
X150169333Y-79858380D02*
X150264571Y-79858380D01*
X150359809Y-79906000D01*
X150407428Y-79953619D01*
X150455047Y-80048857D01*
X150502666Y-80239333D01*
X150502666Y-80477428D01*
X150455047Y-80667904D01*
X150407428Y-80763142D01*
X150359809Y-80810761D01*
X150264571Y-80858380D01*
X150169333Y-80858380D01*
X150074095Y-80810761D01*
X150026476Y-80763142D01*
X149978857Y-80667904D01*
X149931238Y-80477428D01*
X149931238Y-80239333D01*
X149978857Y-80048857D01*
X150026476Y-79953619D01*
X150074095Y-79906000D01*
X150169333Y-79858380D01*
X151455047Y-80858380D02*
X150883619Y-80858380D01*
X151169333Y-80858380D02*
X151169333Y-79858380D01*
X151074095Y-80001238D01*
X150978857Y-80096476D01*
X150883619Y-80144095D01*
X182166380Y-82735547D02*
X181690190Y-83068880D01*
X182166380Y-83306976D02*
X181166380Y-83306976D01*
X181166380Y-82926023D01*
X181214000Y-82830785D01*
X181261619Y-82783166D01*
X181356857Y-82735547D01*
X181499714Y-82735547D01*
X181594952Y-82783166D01*
X181642571Y-82830785D01*
X181690190Y-82926023D01*
X181690190Y-83306976D01*
X181166380Y-81830785D02*
X181166380Y-82306976D01*
X181642571Y-82354595D01*
X181594952Y-82306976D01*
X181547333Y-82211738D01*
X181547333Y-81973642D01*
X181594952Y-81878404D01*
X181642571Y-81830785D01*
X181737809Y-81783166D01*
X181975904Y-81783166D01*
X182071142Y-81830785D01*
X182118761Y-81878404D01*
X182166380Y-81973642D01*
X182166380Y-82211738D01*
X182118761Y-82306976D01*
X182071142Y-82354595D01*
X181166380Y-81164119D02*
X181166380Y-81068880D01*
X181214000Y-80973642D01*
X181261619Y-80926023D01*
X181356857Y-80878404D01*
X181547333Y-80830785D01*
X181785428Y-80830785D01*
X181975904Y-80878404D01*
X182071142Y-80926023D01*
X182118761Y-80973642D01*
X182166380Y-81068880D01*
X182166380Y-81164119D01*
X182118761Y-81259357D01*
X182071142Y-81306976D01*
X181975904Y-81354595D01*
X181785428Y-81402214D01*
X181547333Y-81402214D01*
X181356857Y-81354595D01*
X181261619Y-81306976D01*
X181214000Y-81259357D01*
X181166380Y-81164119D01*
X181261619Y-80449833D02*
X181214000Y-80402214D01*
X181166380Y-80306976D01*
X181166380Y-80068880D01*
X181214000Y-79973642D01*
X181261619Y-79926023D01*
X181356857Y-79878404D01*
X181452095Y-79878404D01*
X181594952Y-79926023D01*
X182166380Y-80497452D01*
X182166380Y-79878404D01*
X211882380Y-146696547D02*
X211406190Y-147029880D01*
X211882380Y-147267976D02*
X210882380Y-147267976D01*
X210882380Y-146887023D01*
X210930000Y-146791785D01*
X210977619Y-146744166D01*
X211072857Y-146696547D01*
X211215714Y-146696547D01*
X211310952Y-146744166D01*
X211358571Y-146791785D01*
X211406190Y-146887023D01*
X211406190Y-147267976D01*
X210882380Y-145791785D02*
X210882380Y-146267976D01*
X211358571Y-146315595D01*
X211310952Y-146267976D01*
X211263333Y-146172738D01*
X211263333Y-145934642D01*
X211310952Y-145839404D01*
X211358571Y-145791785D01*
X211453809Y-145744166D01*
X211691904Y-145744166D01*
X211787142Y-145791785D01*
X211834761Y-145839404D01*
X211882380Y-145934642D01*
X211882380Y-146172738D01*
X211834761Y-146267976D01*
X211787142Y-146315595D01*
X210882380Y-145125119D02*
X210882380Y-145029880D01*
X210930000Y-144934642D01*
X210977619Y-144887023D01*
X211072857Y-144839404D01*
X211263333Y-144791785D01*
X211501428Y-144791785D01*
X211691904Y-144839404D01*
X211787142Y-144887023D01*
X211834761Y-144934642D01*
X211882380Y-145029880D01*
X211882380Y-145125119D01*
X211834761Y-145220357D01*
X211787142Y-145267976D01*
X211691904Y-145315595D01*
X211501428Y-145363214D01*
X211263333Y-145363214D01*
X211072857Y-145315595D01*
X210977619Y-145267976D01*
X210930000Y-145220357D01*
X210882380Y-145125119D01*
X211882380Y-143839404D02*
X211882380Y-144410833D01*
X211882380Y-144125119D02*
X210882380Y-144125119D01*
X211025238Y-144220357D01*
X211120476Y-144315595D01*
X211168095Y-144410833D01*
X162432952Y-98046380D02*
X162099619Y-97570190D01*
X161861523Y-98046380D02*
X161861523Y-97046380D01*
X162242476Y-97046380D01*
X162337714Y-97094000D01*
X162385333Y-97141619D01*
X162432952Y-97236857D01*
X162432952Y-97379714D01*
X162385333Y-97474952D01*
X162337714Y-97522571D01*
X162242476Y-97570190D01*
X161861523Y-97570190D01*
X163290095Y-97379714D02*
X163290095Y-98046380D01*
X163052000Y-96998761D02*
X162813904Y-97713047D01*
X163432952Y-97713047D01*
X164004380Y-97046380D02*
X164099619Y-97046380D01*
X164194857Y-97094000D01*
X164242476Y-97141619D01*
X164290095Y-97236857D01*
X164337714Y-97427333D01*
X164337714Y-97665428D01*
X164290095Y-97855904D01*
X164242476Y-97951142D01*
X164194857Y-97998761D01*
X164099619Y-98046380D01*
X164004380Y-98046380D01*
X163909142Y-97998761D01*
X163861523Y-97951142D01*
X163813904Y-97855904D01*
X163766285Y-97665428D01*
X163766285Y-97427333D01*
X163813904Y-97236857D01*
X163861523Y-97141619D01*
X163909142Y-97094000D01*
X164004380Y-97046380D01*
X165194857Y-97379714D02*
X165194857Y-98046380D01*
X164956761Y-96998761D02*
X164718666Y-97713047D01*
X165337714Y-97713047D01*
X170226380Y-100007547D02*
X169750190Y-100340880D01*
X170226380Y-100578976D02*
X169226380Y-100578976D01*
X169226380Y-100198023D01*
X169274000Y-100102785D01*
X169321619Y-100055166D01*
X169416857Y-100007547D01*
X169559714Y-100007547D01*
X169654952Y-100055166D01*
X169702571Y-100102785D01*
X169750190Y-100198023D01*
X169750190Y-100578976D01*
X169559714Y-99150404D02*
X170226380Y-99150404D01*
X169178761Y-99388500D02*
X169893047Y-99626595D01*
X169893047Y-99007547D01*
X169226380Y-98436119D02*
X169226380Y-98340880D01*
X169274000Y-98245642D01*
X169321619Y-98198023D01*
X169416857Y-98150404D01*
X169607333Y-98102785D01*
X169845428Y-98102785D01*
X170035904Y-98150404D01*
X170131142Y-98198023D01*
X170178761Y-98245642D01*
X170226380Y-98340880D01*
X170226380Y-98436119D01*
X170178761Y-98531357D01*
X170131142Y-98578976D01*
X170035904Y-98626595D01*
X169845428Y-98674214D01*
X169607333Y-98674214D01*
X169416857Y-98626595D01*
X169321619Y-98578976D01*
X169274000Y-98531357D01*
X169226380Y-98436119D01*
X169226380Y-97769452D02*
X169226380Y-97150404D01*
X169607333Y-97483738D01*
X169607333Y-97340880D01*
X169654952Y-97245642D01*
X169702571Y-97198023D01*
X169797809Y-97150404D01*
X170035904Y-97150404D01*
X170131142Y-97198023D01*
X170178761Y-97245642D01*
X170226380Y-97340880D01*
X170226380Y-97626595D01*
X170178761Y-97721833D01*
X170131142Y-97769452D01*
X162328952Y-101602380D02*
X161995619Y-101126190D01*
X161757523Y-101602380D02*
X161757523Y-100602380D01*
X162138476Y-100602380D01*
X162233714Y-100650000D01*
X162281333Y-100697619D01*
X162328952Y-100792857D01*
X162328952Y-100935714D01*
X162281333Y-101030952D01*
X162233714Y-101078571D01*
X162138476Y-101126190D01*
X161757523Y-101126190D01*
X163186095Y-100935714D02*
X163186095Y-101602380D01*
X162948000Y-100554761D02*
X162709904Y-101269047D01*
X163328952Y-101269047D01*
X163900380Y-100602380D02*
X163995619Y-100602380D01*
X164090857Y-100650000D01*
X164138476Y-100697619D01*
X164186095Y-100792857D01*
X164233714Y-100983333D01*
X164233714Y-101221428D01*
X164186095Y-101411904D01*
X164138476Y-101507142D01*
X164090857Y-101554761D01*
X163995619Y-101602380D01*
X163900380Y-101602380D01*
X163805142Y-101554761D01*
X163757523Y-101507142D01*
X163709904Y-101411904D01*
X163662285Y-101221428D01*
X163662285Y-100983333D01*
X163709904Y-100792857D01*
X163757523Y-100697619D01*
X163805142Y-100650000D01*
X163900380Y-100602380D01*
X165186095Y-101602380D02*
X164614666Y-101602380D01*
X164900380Y-101602380D02*
X164900380Y-100602380D01*
X164805142Y-100745238D01*
X164709904Y-100840476D01*
X164614666Y-100888095D01*
X166092952Y-75950380D02*
X165759619Y-75474190D01*
X165521523Y-75950380D02*
X165521523Y-74950380D01*
X165902476Y-74950380D01*
X165997714Y-74998000D01*
X166045333Y-75045619D01*
X166092952Y-75140857D01*
X166092952Y-75283714D01*
X166045333Y-75378952D01*
X165997714Y-75426571D01*
X165902476Y-75474190D01*
X165521523Y-75474190D01*
X166426285Y-74950380D02*
X167045333Y-74950380D01*
X166712000Y-75331333D01*
X166854857Y-75331333D01*
X166950095Y-75378952D01*
X166997714Y-75426571D01*
X167045333Y-75521809D01*
X167045333Y-75759904D01*
X166997714Y-75855142D01*
X166950095Y-75902761D01*
X166854857Y-75950380D01*
X166569142Y-75950380D01*
X166473904Y-75902761D01*
X166426285Y-75855142D01*
X167664380Y-74950380D02*
X167759619Y-74950380D01*
X167854857Y-74998000D01*
X167902476Y-75045619D01*
X167950095Y-75140857D01*
X167997714Y-75331333D01*
X167997714Y-75569428D01*
X167950095Y-75759904D01*
X167902476Y-75855142D01*
X167854857Y-75902761D01*
X167759619Y-75950380D01*
X167664380Y-75950380D01*
X167569142Y-75902761D01*
X167521523Y-75855142D01*
X167473904Y-75759904D01*
X167426285Y-75569428D01*
X167426285Y-75331333D01*
X167473904Y-75140857D01*
X167521523Y-75045619D01*
X167569142Y-74998000D01*
X167664380Y-74950380D01*
X168378666Y-75045619D02*
X168426285Y-74998000D01*
X168521523Y-74950380D01*
X168759619Y-74950380D01*
X168854857Y-74998000D01*
X168902476Y-75045619D01*
X168950095Y-75140857D01*
X168950095Y-75236095D01*
X168902476Y-75378952D01*
X168331047Y-75950380D01*
X168950095Y-75950380D01*
X162115952Y-76490380D02*
X161782619Y-76014190D01*
X161544523Y-76490380D02*
X161544523Y-75490380D01*
X161925476Y-75490380D01*
X162020714Y-75538000D01*
X162068333Y-75585619D01*
X162115952Y-75680857D01*
X162115952Y-75823714D01*
X162068333Y-75918952D01*
X162020714Y-75966571D01*
X161925476Y-76014190D01*
X161544523Y-76014190D01*
X162449285Y-75490380D02*
X163068333Y-75490380D01*
X162735000Y-75871333D01*
X162877857Y-75871333D01*
X162973095Y-75918952D01*
X163020714Y-75966571D01*
X163068333Y-76061809D01*
X163068333Y-76299904D01*
X163020714Y-76395142D01*
X162973095Y-76442761D01*
X162877857Y-76490380D01*
X162592142Y-76490380D01*
X162496904Y-76442761D01*
X162449285Y-76395142D01*
X163687380Y-75490380D02*
X163782619Y-75490380D01*
X163877857Y-75538000D01*
X163925476Y-75585619D01*
X163973095Y-75680857D01*
X164020714Y-75871333D01*
X164020714Y-76109428D01*
X163973095Y-76299904D01*
X163925476Y-76395142D01*
X163877857Y-76442761D01*
X163782619Y-76490380D01*
X163687380Y-76490380D01*
X163592142Y-76442761D01*
X163544523Y-76395142D01*
X163496904Y-76299904D01*
X163449285Y-76109428D01*
X163449285Y-75871333D01*
X163496904Y-75680857D01*
X163544523Y-75585619D01*
X163592142Y-75538000D01*
X163687380Y-75490380D01*
X164973095Y-76490380D02*
X164401666Y-76490380D01*
X164687380Y-76490380D02*
X164687380Y-75490380D01*
X164592142Y-75633238D01*
X164496904Y-75728476D01*
X164401666Y-75776095D01*
X143810380Y-135567047D02*
X143334190Y-135900380D01*
X143810380Y-136138476D02*
X142810380Y-136138476D01*
X142810380Y-135757523D01*
X142858000Y-135662285D01*
X142905619Y-135614666D01*
X143000857Y-135567047D01*
X143143714Y-135567047D01*
X143238952Y-135614666D01*
X143286571Y-135662285D01*
X143334190Y-135757523D01*
X143334190Y-136138476D01*
X142905619Y-135186095D02*
X142858000Y-135138476D01*
X142810380Y-135043238D01*
X142810380Y-134805142D01*
X142858000Y-134709904D01*
X142905619Y-134662285D01*
X143000857Y-134614666D01*
X143096095Y-134614666D01*
X143238952Y-134662285D01*
X143810380Y-135233714D01*
X143810380Y-134614666D01*
X142810380Y-133995619D02*
X142810380Y-133900380D01*
X142858000Y-133805142D01*
X142905619Y-133757523D01*
X143000857Y-133709904D01*
X143191333Y-133662285D01*
X143429428Y-133662285D01*
X143619904Y-133709904D01*
X143715142Y-133757523D01*
X143762761Y-133805142D01*
X143810380Y-133900380D01*
X143810380Y-133995619D01*
X143762761Y-134090857D01*
X143715142Y-134138476D01*
X143619904Y-134186095D01*
X143429428Y-134233714D01*
X143191333Y-134233714D01*
X143000857Y-134186095D01*
X142905619Y-134138476D01*
X142858000Y-134090857D01*
X142810380Y-133995619D01*
X142905619Y-133281333D02*
X142858000Y-133233714D01*
X142810380Y-133138476D01*
X142810380Y-132900380D01*
X142858000Y-132805142D01*
X142905619Y-132757523D01*
X143000857Y-132709904D01*
X143096095Y-132709904D01*
X143238952Y-132757523D01*
X143810380Y-133328952D01*
X143810380Y-132709904D01*
X147874380Y-143903047D02*
X147398190Y-144236380D01*
X147874380Y-144474476D02*
X146874380Y-144474476D01*
X146874380Y-144093523D01*
X146922000Y-143998285D01*
X146969619Y-143950666D01*
X147064857Y-143903047D01*
X147207714Y-143903047D01*
X147302952Y-143950666D01*
X147350571Y-143998285D01*
X147398190Y-144093523D01*
X147398190Y-144474476D01*
X146969619Y-143522095D02*
X146922000Y-143474476D01*
X146874380Y-143379238D01*
X146874380Y-143141142D01*
X146922000Y-143045904D01*
X146969619Y-142998285D01*
X147064857Y-142950666D01*
X147160095Y-142950666D01*
X147302952Y-142998285D01*
X147874380Y-143569714D01*
X147874380Y-142950666D01*
X146874380Y-142331619D02*
X146874380Y-142236380D01*
X146922000Y-142141142D01*
X146969619Y-142093523D01*
X147064857Y-142045904D01*
X147255333Y-141998285D01*
X147493428Y-141998285D01*
X147683904Y-142045904D01*
X147779142Y-142093523D01*
X147826761Y-142141142D01*
X147874380Y-142236380D01*
X147874380Y-142331619D01*
X147826761Y-142426857D01*
X147779142Y-142474476D01*
X147683904Y-142522095D01*
X147493428Y-142569714D01*
X147255333Y-142569714D01*
X147064857Y-142522095D01*
X146969619Y-142474476D01*
X146922000Y-142426857D01*
X146874380Y-142331619D01*
X147874380Y-141045904D02*
X147874380Y-141617333D01*
X147874380Y-141331619D02*
X146874380Y-141331619D01*
X147017238Y-141426857D01*
X147112476Y-141522095D01*
X147160095Y-141617333D01*
X142461619Y-143219619D02*
X142414000Y-143314857D01*
X142318761Y-143410095D01*
X142175904Y-143552952D01*
X142128285Y-143648190D01*
X142128285Y-143743428D01*
X142366380Y-143695809D02*
X142318761Y-143791047D01*
X142223523Y-143886285D01*
X142033047Y-143933904D01*
X141699714Y-143933904D01*
X141509238Y-143886285D01*
X141414000Y-143791047D01*
X141366380Y-143695809D01*
X141366380Y-143505333D01*
X141414000Y-143410095D01*
X141509238Y-143314857D01*
X141699714Y-143267238D01*
X142033047Y-143267238D01*
X142223523Y-143314857D01*
X142318761Y-143410095D01*
X142366380Y-143505333D01*
X142366380Y-143695809D01*
X141461619Y-142886285D02*
X141414000Y-142838666D01*
X141366380Y-142743428D01*
X141366380Y-142505333D01*
X141414000Y-142410095D01*
X141461619Y-142362476D01*
X141556857Y-142314857D01*
X141652095Y-142314857D01*
X141794952Y-142362476D01*
X142366380Y-142933904D01*
X142366380Y-142314857D01*
X141366380Y-141695809D02*
X141366380Y-141600571D01*
X141414000Y-141505333D01*
X141461619Y-141457714D01*
X141556857Y-141410095D01*
X141747333Y-141362476D01*
X141985428Y-141362476D01*
X142175904Y-141410095D01*
X142271142Y-141457714D01*
X142318761Y-141505333D01*
X142366380Y-141600571D01*
X142366380Y-141695809D01*
X142318761Y-141791047D01*
X142271142Y-141838666D01*
X142175904Y-141886285D01*
X141985428Y-141933904D01*
X141747333Y-141933904D01*
X141556857Y-141886285D01*
X141461619Y-141838666D01*
X141414000Y-141791047D01*
X141366380Y-141695809D01*
X142366380Y-140410095D02*
X142366380Y-140981523D01*
X142366380Y-140695809D02*
X141366380Y-140695809D01*
X141509238Y-140791047D01*
X141604476Y-140886285D01*
X141652095Y-140981523D01*
D17*
X151750809Y-102106523D02*
X151146047Y-102106523D01*
X151146047Y-100836523D01*
X152718428Y-101259857D02*
X152718428Y-102106523D01*
X152416047Y-100776047D02*
X152113666Y-101683190D01*
X152899857Y-101683190D01*
X153625571Y-100836523D02*
X153746523Y-100836523D01*
X153867476Y-100897000D01*
X153927952Y-100957476D01*
X153988428Y-101078428D01*
X154048904Y-101320333D01*
X154048904Y-101622714D01*
X153988428Y-101864619D01*
X153927952Y-101985571D01*
X153867476Y-102046047D01*
X153746523Y-102106523D01*
X153625571Y-102106523D01*
X153504619Y-102046047D01*
X153444142Y-101985571D01*
X153383666Y-101864619D01*
X153323190Y-101622714D01*
X153323190Y-101320333D01*
X153383666Y-101078428D01*
X153444142Y-100957476D01*
X153504619Y-100897000D01*
X153625571Y-100836523D01*
X155258428Y-102106523D02*
X154532714Y-102106523D01*
X154895571Y-102106523D02*
X154895571Y-100836523D01*
X154774619Y-101017952D01*
X154653666Y-101138904D01*
X154532714Y-101199380D01*
X159554523Y-84031190D02*
X159554523Y-84635952D01*
X158284523Y-84635952D01*
X158284523Y-83728809D02*
X158284523Y-82942619D01*
X158768333Y-83365952D01*
X158768333Y-83184523D01*
X158828809Y-83063571D01*
X158889285Y-83003095D01*
X159010238Y-82942619D01*
X159312619Y-82942619D01*
X159433571Y-83003095D01*
X159494047Y-83063571D01*
X159554523Y-83184523D01*
X159554523Y-83547380D01*
X159494047Y-83668333D01*
X159433571Y-83728809D01*
X158284523Y-82156428D02*
X158284523Y-82035476D01*
X158345000Y-81914523D01*
X158405476Y-81854047D01*
X158526428Y-81793571D01*
X158768333Y-81733095D01*
X159070714Y-81733095D01*
X159312619Y-81793571D01*
X159433571Y-81854047D01*
X159494047Y-81914523D01*
X159554523Y-82035476D01*
X159554523Y-82156428D01*
X159494047Y-82277380D01*
X159433571Y-82337857D01*
X159312619Y-82398333D01*
X159070714Y-82458809D01*
X158768333Y-82458809D01*
X158526428Y-82398333D01*
X158405476Y-82337857D01*
X158345000Y-82277380D01*
X158284523Y-82156428D01*
X159554523Y-80523571D02*
X159554523Y-81249285D01*
X159554523Y-80886428D02*
X158284523Y-80886428D01*
X158465952Y-81007380D01*
X158586904Y-81128333D01*
X158647380Y-81249285D01*
D10*
X163214380Y-126185714D02*
X163928666Y-126185714D01*
X164071523Y-126233333D01*
X164166761Y-126328571D01*
X164214380Y-126471428D01*
X164214380Y-126566666D01*
X163547714Y-125280952D02*
X164214380Y-125280952D01*
X163166761Y-125519047D02*
X163881047Y-125757142D01*
X163881047Y-125138095D01*
X163214380Y-124566666D02*
X163214380Y-124471428D01*
X163262000Y-124376190D01*
X163309619Y-124328571D01*
X163404857Y-124280952D01*
X163595333Y-124233333D01*
X163833428Y-124233333D01*
X164023904Y-124280952D01*
X164119142Y-124328571D01*
X164166761Y-124376190D01*
X164214380Y-124471428D01*
X164214380Y-124566666D01*
X164166761Y-124661904D01*
X164119142Y-124709523D01*
X164023904Y-124757142D01*
X163833428Y-124804761D01*
X163595333Y-124804761D01*
X163404857Y-124757142D01*
X163309619Y-124709523D01*
X163262000Y-124661904D01*
X163214380Y-124566666D01*
X164214380Y-123280952D02*
X164214380Y-123852380D01*
X164214380Y-123566666D02*
X163214380Y-123566666D01*
X163357238Y-123661904D01*
X163452476Y-123757142D01*
X163500095Y-123852380D01*
X144486285Y-144882380D02*
X144486285Y-145596666D01*
X144438666Y-145739523D01*
X144343428Y-145834761D01*
X144200571Y-145882380D01*
X144105333Y-145882380D01*
X145486285Y-145882380D02*
X144914857Y-145882380D01*
X145200571Y-145882380D02*
X145200571Y-144882380D01*
X145105333Y-145025238D01*
X145010095Y-145120476D01*
X144914857Y-145168095D01*
X146105333Y-144882380D02*
X146200571Y-144882380D01*
X146295809Y-144930000D01*
X146343428Y-144977619D01*
X146391047Y-145072857D01*
X146438666Y-145263333D01*
X146438666Y-145501428D01*
X146391047Y-145691904D01*
X146343428Y-145787142D01*
X146295809Y-145834761D01*
X146200571Y-145882380D01*
X146105333Y-145882380D01*
X146010095Y-145834761D01*
X145962476Y-145787142D01*
X145914857Y-145691904D01*
X145867238Y-145501428D01*
X145867238Y-145263333D01*
X145914857Y-145072857D01*
X145962476Y-144977619D01*
X146010095Y-144930000D01*
X146105333Y-144882380D01*
X147391047Y-145882380D02*
X146819619Y-145882380D01*
X147105333Y-145882380D02*
X147105333Y-144882380D01*
X147010095Y-145025238D01*
X146914857Y-145120476D01*
X146819619Y-145168095D01*
D17*
X168190523Y-114649285D02*
X166920523Y-114649285D01*
X168069571Y-113318809D02*
X168130047Y-113379285D01*
X168190523Y-113560714D01*
X168190523Y-113681666D01*
X168130047Y-113863095D01*
X168009095Y-113984047D01*
X167888142Y-114044523D01*
X167646238Y-114105000D01*
X167464809Y-114105000D01*
X167222904Y-114044523D01*
X167101952Y-113984047D01*
X166981000Y-113863095D01*
X166920523Y-113681666D01*
X166920523Y-113560714D01*
X166981000Y-113379285D01*
X167041476Y-113318809D01*
X167343857Y-112230238D02*
X168190523Y-112230238D01*
X166860047Y-112532619D02*
X167767190Y-112835000D01*
X167767190Y-112048809D01*
X166920523Y-111323095D02*
X166920523Y-111202142D01*
X166981000Y-111081190D01*
X167041476Y-111020714D01*
X167162428Y-110960238D01*
X167404333Y-110899761D01*
X167706714Y-110899761D01*
X167948619Y-110960238D01*
X168069571Y-111020714D01*
X168130047Y-111081190D01*
X168190523Y-111202142D01*
X168190523Y-111323095D01*
X168130047Y-111444047D01*
X168069571Y-111504523D01*
X167948619Y-111565000D01*
X167706714Y-111625476D01*
X167404333Y-111625476D01*
X167162428Y-111565000D01*
X167041476Y-111504523D01*
X166981000Y-111444047D01*
X166920523Y-111323095D01*
X168190523Y-109690238D02*
X168190523Y-110415952D01*
X168190523Y-110053095D02*
X166920523Y-110053095D01*
X167101952Y-110174047D01*
X167222904Y-110295000D01*
X167283380Y-110415952D01*
X163353714Y-83080523D02*
X163353714Y-81810523D01*
X164684190Y-82959571D02*
X164623714Y-83020047D01*
X164442285Y-83080523D01*
X164321333Y-83080523D01*
X164139904Y-83020047D01*
X164018952Y-82899095D01*
X163958476Y-82778142D01*
X163898000Y-82536238D01*
X163898000Y-82354809D01*
X163958476Y-82112904D01*
X164018952Y-81991952D01*
X164139904Y-81871000D01*
X164321333Y-81810523D01*
X164442285Y-81810523D01*
X164623714Y-81871000D01*
X164684190Y-81931476D01*
X165107523Y-81810523D02*
X165893714Y-81810523D01*
X165470380Y-82294333D01*
X165651809Y-82294333D01*
X165772761Y-82354809D01*
X165833238Y-82415285D01*
X165893714Y-82536238D01*
X165893714Y-82838619D01*
X165833238Y-82959571D01*
X165772761Y-83020047D01*
X165651809Y-83080523D01*
X165288952Y-83080523D01*
X165168000Y-83020047D01*
X165107523Y-82959571D01*
X166679904Y-81810523D02*
X166800857Y-81810523D01*
X166921809Y-81871000D01*
X166982285Y-81931476D01*
X167042761Y-82052428D01*
X167103238Y-82294333D01*
X167103238Y-82596714D01*
X167042761Y-82838619D01*
X166982285Y-82959571D01*
X166921809Y-83020047D01*
X166800857Y-83080523D01*
X166679904Y-83080523D01*
X166558952Y-83020047D01*
X166498476Y-82959571D01*
X166438000Y-82838619D01*
X166377523Y-82596714D01*
X166377523Y-82294333D01*
X166438000Y-82052428D01*
X166498476Y-81931476D01*
X166558952Y-81871000D01*
X166679904Y-81810523D01*
X168312761Y-83080523D02*
X167587047Y-83080523D01*
X167949904Y-83080523D02*
X167949904Y-81810523D01*
X167828952Y-81991952D01*
X167708000Y-82112904D01*
X167587047Y-82173380D01*
D10*
X162124380Y-147392761D02*
X161124380Y-147392761D01*
X161600571Y-147392761D02*
X161600571Y-146821333D01*
X162124380Y-146821333D02*
X161124380Y-146821333D01*
X161124380Y-146440380D02*
X162124380Y-146202285D01*
X161410095Y-146011809D01*
X162124380Y-145821333D01*
X161124380Y-145583238D01*
X161743428Y-145202285D02*
X161743428Y-144440380D01*
X161219619Y-144011809D02*
X161172000Y-143964190D01*
X161124380Y-143868952D01*
X161124380Y-143630857D01*
X161172000Y-143535619D01*
X161219619Y-143488000D01*
X161314857Y-143440380D01*
X161410095Y-143440380D01*
X161552952Y-143488000D01*
X162124380Y-144059428D01*
X162124380Y-143440380D01*
X161124380Y-142821333D02*
X161124380Y-142726095D01*
X161172000Y-142630857D01*
X161219619Y-142583238D01*
X161314857Y-142535619D01*
X161505333Y-142488000D01*
X161743428Y-142488000D01*
X161933904Y-142535619D01*
X162029142Y-142583238D01*
X162076761Y-142630857D01*
X162124380Y-142726095D01*
X162124380Y-142821333D01*
X162076761Y-142916571D01*
X162029142Y-142964190D01*
X161933904Y-143011809D01*
X161743428Y-143059428D01*
X161505333Y-143059428D01*
X161314857Y-143011809D01*
X161219619Y-142964190D01*
X161172000Y-142916571D01*
X161124380Y-142821333D01*
X162124380Y-141535619D02*
X162124380Y-142107047D01*
X162124380Y-141821333D02*
X161124380Y-141821333D01*
X161267238Y-141916571D01*
X161362476Y-142011809D01*
X161410095Y-142107047D01*
X180828380Y-84966476D02*
X179828380Y-84966476D01*
X179828380Y-84728380D01*
X179876000Y-84585523D01*
X179971238Y-84490285D01*
X180066476Y-84442666D01*
X180256952Y-84395047D01*
X180399809Y-84395047D01*
X180590285Y-84442666D01*
X180685523Y-84490285D01*
X180780761Y-84585523D01*
X180828380Y-84728380D01*
X180828380Y-84966476D01*
X179828380Y-83490285D02*
X179828380Y-83966476D01*
X180304571Y-84014095D01*
X180256952Y-83966476D01*
X180209333Y-83871238D01*
X180209333Y-83633142D01*
X180256952Y-83537904D01*
X180304571Y-83490285D01*
X180399809Y-83442666D01*
X180637904Y-83442666D01*
X180733142Y-83490285D01*
X180780761Y-83537904D01*
X180828380Y-83633142D01*
X180828380Y-83871238D01*
X180780761Y-83966476D01*
X180733142Y-84014095D01*
X179828380Y-82823619D02*
X179828380Y-82728380D01*
X179876000Y-82633142D01*
X179923619Y-82585523D01*
X180018857Y-82537904D01*
X180209333Y-82490285D01*
X180447428Y-82490285D01*
X180637904Y-82537904D01*
X180733142Y-82585523D01*
X180780761Y-82633142D01*
X180828380Y-82728380D01*
X180828380Y-82823619D01*
X180780761Y-82918857D01*
X180733142Y-82966476D01*
X180637904Y-83014095D01*
X180447428Y-83061714D01*
X180209333Y-83061714D01*
X180018857Y-83014095D01*
X179923619Y-82966476D01*
X179876000Y-82918857D01*
X179828380Y-82823619D01*
X180828380Y-81537904D02*
X180828380Y-82109333D01*
X180828380Y-81823619D02*
X179828380Y-81823619D01*
X179971238Y-81918857D01*
X180066476Y-82014095D01*
X180114095Y-82109333D01*
X154717523Y-123380380D02*
X154717523Y-122380380D01*
X154955619Y-122380380D01*
X155098476Y-122428000D01*
X155193714Y-122523238D01*
X155241333Y-122618476D01*
X155288952Y-122808952D01*
X155288952Y-122951809D01*
X155241333Y-123142285D01*
X155193714Y-123237523D01*
X155098476Y-123332761D01*
X154955619Y-123380380D01*
X154717523Y-123380380D01*
X156146095Y-122713714D02*
X156146095Y-123380380D01*
X155908000Y-122332761D02*
X155669904Y-123047047D01*
X156288952Y-123047047D01*
X156860380Y-122380380D02*
X156955619Y-122380380D01*
X157050857Y-122428000D01*
X157098476Y-122475619D01*
X157146095Y-122570857D01*
X157193714Y-122761333D01*
X157193714Y-122999428D01*
X157146095Y-123189904D01*
X157098476Y-123285142D01*
X157050857Y-123332761D01*
X156955619Y-123380380D01*
X156860380Y-123380380D01*
X156765142Y-123332761D01*
X156717523Y-123285142D01*
X156669904Y-123189904D01*
X156622285Y-122999428D01*
X156622285Y-122761333D01*
X156669904Y-122570857D01*
X156717523Y-122475619D01*
X156765142Y-122428000D01*
X156860380Y-122380380D01*
X157574666Y-122475619D02*
X157622285Y-122428000D01*
X157717523Y-122380380D01*
X157955619Y-122380380D01*
X158050857Y-122428000D01*
X158098476Y-122475619D01*
X158146095Y-122570857D01*
X158146095Y-122666095D01*
X158098476Y-122808952D01*
X157527047Y-123380380D01*
X158146095Y-123380380D01*
X163556380Y-114366476D02*
X162556380Y-114366476D01*
X162556380Y-114128380D01*
X162604000Y-113985523D01*
X162699238Y-113890285D01*
X162794476Y-113842666D01*
X162984952Y-113795047D01*
X163127809Y-113795047D01*
X163318285Y-113842666D01*
X163413523Y-113890285D01*
X163508761Y-113985523D01*
X163556380Y-114128380D01*
X163556380Y-114366476D01*
X162889714Y-112937904D02*
X163556380Y-112937904D01*
X162508761Y-113176000D02*
X163223047Y-113414095D01*
X163223047Y-112795047D01*
X162556380Y-112223619D02*
X162556380Y-112128380D01*
X162604000Y-112033142D01*
X162651619Y-111985523D01*
X162746857Y-111937904D01*
X162937333Y-111890285D01*
X163175428Y-111890285D01*
X163365904Y-111937904D01*
X163461142Y-111985523D01*
X163508761Y-112033142D01*
X163556380Y-112128380D01*
X163556380Y-112223619D01*
X163508761Y-112318857D01*
X163461142Y-112366476D01*
X163365904Y-112414095D01*
X163175428Y-112461714D01*
X162937333Y-112461714D01*
X162746857Y-112414095D01*
X162651619Y-112366476D01*
X162604000Y-112318857D01*
X162556380Y-112223619D01*
X163556380Y-110937904D02*
X163556380Y-111509333D01*
X163556380Y-111223619D02*
X162556380Y-111223619D01*
X162699238Y-111318857D01*
X162794476Y-111414095D01*
X162842095Y-111509333D01*
X147688380Y-78838476D02*
X146688380Y-78838476D01*
X146688380Y-78600380D01*
X146736000Y-78457523D01*
X146831238Y-78362285D01*
X146926476Y-78314666D01*
X147116952Y-78267047D01*
X147259809Y-78267047D01*
X147450285Y-78314666D01*
X147545523Y-78362285D01*
X147640761Y-78457523D01*
X147688380Y-78600380D01*
X147688380Y-78838476D01*
X146688380Y-77933714D02*
X146688380Y-77314666D01*
X147069333Y-77648000D01*
X147069333Y-77505142D01*
X147116952Y-77409904D01*
X147164571Y-77362285D01*
X147259809Y-77314666D01*
X147497904Y-77314666D01*
X147593142Y-77362285D01*
X147640761Y-77409904D01*
X147688380Y-77505142D01*
X147688380Y-77790857D01*
X147640761Y-77886095D01*
X147593142Y-77933714D01*
X146688380Y-76695619D02*
X146688380Y-76600380D01*
X146736000Y-76505142D01*
X146783619Y-76457523D01*
X146878857Y-76409904D01*
X147069333Y-76362285D01*
X147307428Y-76362285D01*
X147497904Y-76409904D01*
X147593142Y-76457523D01*
X147640761Y-76505142D01*
X147688380Y-76600380D01*
X147688380Y-76695619D01*
X147640761Y-76790857D01*
X147593142Y-76838476D01*
X147497904Y-76886095D01*
X147307428Y-76933714D01*
X147069333Y-76933714D01*
X146878857Y-76886095D01*
X146783619Y-76838476D01*
X146736000Y-76790857D01*
X146688380Y-76695619D01*
X147688380Y-75409904D02*
X147688380Y-75981333D01*
X147688380Y-75695619D02*
X146688380Y-75695619D01*
X146831238Y-75790857D01*
X146926476Y-75886095D01*
X146974095Y-75981333D01*
X144614380Y-139798476D02*
X143614380Y-139798476D01*
X143614380Y-139560380D01*
X143662000Y-139417523D01*
X143757238Y-139322285D01*
X143852476Y-139274666D01*
X144042952Y-139227047D01*
X144185809Y-139227047D01*
X144376285Y-139274666D01*
X144471523Y-139322285D01*
X144566761Y-139417523D01*
X144614380Y-139560380D01*
X144614380Y-139798476D01*
X143709619Y-138846095D02*
X143662000Y-138798476D01*
X143614380Y-138703238D01*
X143614380Y-138465142D01*
X143662000Y-138369904D01*
X143709619Y-138322285D01*
X143804857Y-138274666D01*
X143900095Y-138274666D01*
X144042952Y-138322285D01*
X144614380Y-138893714D01*
X144614380Y-138274666D01*
X143614380Y-137655619D02*
X143614380Y-137560380D01*
X143662000Y-137465142D01*
X143709619Y-137417523D01*
X143804857Y-137369904D01*
X143995333Y-137322285D01*
X144233428Y-137322285D01*
X144423904Y-137369904D01*
X144519142Y-137417523D01*
X144566761Y-137465142D01*
X144614380Y-137560380D01*
X144614380Y-137655619D01*
X144566761Y-137750857D01*
X144519142Y-137798476D01*
X144423904Y-137846095D01*
X144233428Y-137893714D01*
X143995333Y-137893714D01*
X143804857Y-137846095D01*
X143709619Y-137798476D01*
X143662000Y-137750857D01*
X143614380Y-137655619D01*
X144614380Y-136369904D02*
X144614380Y-136941333D01*
X144614380Y-136655619D02*
X143614380Y-136655619D01*
X143757238Y-136750857D01*
X143852476Y-136846095D01*
X143900095Y-136941333D01*
X153222952Y-109861142D02*
X153175333Y-109908761D01*
X153032476Y-109956380D01*
X152937238Y-109956380D01*
X152794380Y-109908761D01*
X152699142Y-109813523D01*
X152651523Y-109718285D01*
X152603904Y-109527809D01*
X152603904Y-109384952D01*
X152651523Y-109194476D01*
X152699142Y-109099238D01*
X152794380Y-109004000D01*
X152937238Y-108956380D01*
X153032476Y-108956380D01*
X153175333Y-109004000D01*
X153222952Y-109051619D01*
X154080095Y-109289714D02*
X154080095Y-109956380D01*
X153842000Y-108908761D02*
X153603904Y-109623047D01*
X154222952Y-109623047D01*
X154794380Y-108956380D02*
X154889619Y-108956380D01*
X154984857Y-109004000D01*
X155032476Y-109051619D01*
X155080095Y-109146857D01*
X155127714Y-109337333D01*
X155127714Y-109575428D01*
X155080095Y-109765904D01*
X155032476Y-109861142D01*
X154984857Y-109908761D01*
X154889619Y-109956380D01*
X154794380Y-109956380D01*
X154699142Y-109908761D01*
X154651523Y-109861142D01*
X154603904Y-109765904D01*
X154556285Y-109575428D01*
X154556285Y-109337333D01*
X154603904Y-109146857D01*
X154651523Y-109051619D01*
X154699142Y-109004000D01*
X154794380Y-108956380D01*
X155699142Y-109384952D02*
X155603904Y-109337333D01*
X155556285Y-109289714D01*
X155508666Y-109194476D01*
X155508666Y-109146857D01*
X155556285Y-109051619D01*
X155603904Y-109004000D01*
X155699142Y-108956380D01*
X155889619Y-108956380D01*
X155984857Y-109004000D01*
X156032476Y-109051619D01*
X156080095Y-109146857D01*
X156080095Y-109194476D01*
X156032476Y-109289714D01*
X155984857Y-109337333D01*
X155889619Y-109384952D01*
X155699142Y-109384952D01*
X155603904Y-109432571D01*
X155556285Y-109480190D01*
X155508666Y-109575428D01*
X155508666Y-109765904D01*
X155556285Y-109861142D01*
X155603904Y-109908761D01*
X155699142Y-109956380D01*
X155889619Y-109956380D01*
X155984857Y-109908761D01*
X156032476Y-109861142D01*
X156080095Y-109765904D01*
X156080095Y-109575428D01*
X156032476Y-109480190D01*
X155984857Y-109432571D01*
X155889619Y-109384952D01*
X162366952Y-105093142D02*
X162319333Y-105140761D01*
X162176476Y-105188380D01*
X162081238Y-105188380D01*
X161938380Y-105140761D01*
X161843142Y-105045523D01*
X161795523Y-104950285D01*
X161747904Y-104759809D01*
X161747904Y-104616952D01*
X161795523Y-104426476D01*
X161843142Y-104331238D01*
X161938380Y-104236000D01*
X162081238Y-104188380D01*
X162176476Y-104188380D01*
X162319333Y-104236000D01*
X162366952Y-104283619D01*
X163224095Y-104521714D02*
X163224095Y-105188380D01*
X162986000Y-104140761D02*
X162747904Y-104855047D01*
X163366952Y-104855047D01*
X163938380Y-104188380D02*
X164033619Y-104188380D01*
X164128857Y-104236000D01*
X164176476Y-104283619D01*
X164224095Y-104378857D01*
X164271714Y-104569333D01*
X164271714Y-104807428D01*
X164224095Y-104997904D01*
X164176476Y-105093142D01*
X164128857Y-105140761D01*
X164033619Y-105188380D01*
X163938380Y-105188380D01*
X163843142Y-105140761D01*
X163795523Y-105093142D01*
X163747904Y-104997904D01*
X163700285Y-104807428D01*
X163700285Y-104569333D01*
X163747904Y-104378857D01*
X163795523Y-104283619D01*
X163843142Y-104236000D01*
X163938380Y-104188380D01*
X164605047Y-104188380D02*
X165271714Y-104188380D01*
X164843142Y-105188380D01*
X153222952Y-114433142D02*
X153175333Y-114480761D01*
X153032476Y-114528380D01*
X152937238Y-114528380D01*
X152794380Y-114480761D01*
X152699142Y-114385523D01*
X152651523Y-114290285D01*
X152603904Y-114099809D01*
X152603904Y-113956952D01*
X152651523Y-113766476D01*
X152699142Y-113671238D01*
X152794380Y-113576000D01*
X152937238Y-113528380D01*
X153032476Y-113528380D01*
X153175333Y-113576000D01*
X153222952Y-113623619D01*
X154080095Y-113861714D02*
X154080095Y-114528380D01*
X153842000Y-113480761D02*
X153603904Y-114195047D01*
X154222952Y-114195047D01*
X154794380Y-113528380D02*
X154889619Y-113528380D01*
X154984857Y-113576000D01*
X155032476Y-113623619D01*
X155080095Y-113718857D01*
X155127714Y-113909333D01*
X155127714Y-114147428D01*
X155080095Y-114337904D01*
X155032476Y-114433142D01*
X154984857Y-114480761D01*
X154889619Y-114528380D01*
X154794380Y-114528380D01*
X154699142Y-114480761D01*
X154651523Y-114433142D01*
X154603904Y-114337904D01*
X154556285Y-114147428D01*
X154556285Y-113909333D01*
X154603904Y-113718857D01*
X154651523Y-113623619D01*
X154699142Y-113576000D01*
X154794380Y-113528380D01*
X155984857Y-113528380D02*
X155794380Y-113528380D01*
X155699142Y-113576000D01*
X155651523Y-113623619D01*
X155556285Y-113766476D01*
X155508666Y-113956952D01*
X155508666Y-114337904D01*
X155556285Y-114433142D01*
X155603904Y-114480761D01*
X155699142Y-114528380D01*
X155889619Y-114528380D01*
X155984857Y-114480761D01*
X156032476Y-114433142D01*
X156080095Y-114337904D01*
X156080095Y-114099809D01*
X156032476Y-114004571D01*
X155984857Y-113956952D01*
X155889619Y-113909333D01*
X155699142Y-113909333D01*
X155603904Y-113956952D01*
X155556285Y-114004571D01*
X155508666Y-114099809D01*
X166801142Y-105257047D02*
X166848761Y-105304666D01*
X166896380Y-105447523D01*
X166896380Y-105542761D01*
X166848761Y-105685619D01*
X166753523Y-105780857D01*
X166658285Y-105828476D01*
X166467809Y-105876095D01*
X166324952Y-105876095D01*
X166134476Y-105828476D01*
X166039238Y-105780857D01*
X165944000Y-105685619D01*
X165896380Y-105542761D01*
X165896380Y-105447523D01*
X165944000Y-105304666D01*
X165991619Y-105257047D01*
X166229714Y-104399904D02*
X166896380Y-104399904D01*
X165848761Y-104638000D02*
X166563047Y-104876095D01*
X166563047Y-104257047D01*
X165896380Y-103685619D02*
X165896380Y-103590380D01*
X165944000Y-103495142D01*
X165991619Y-103447523D01*
X166086857Y-103399904D01*
X166277333Y-103352285D01*
X166515428Y-103352285D01*
X166705904Y-103399904D01*
X166801142Y-103447523D01*
X166848761Y-103495142D01*
X166896380Y-103590380D01*
X166896380Y-103685619D01*
X166848761Y-103780857D01*
X166801142Y-103828476D01*
X166705904Y-103876095D01*
X166515428Y-103923714D01*
X166277333Y-103923714D01*
X166086857Y-103876095D01*
X165991619Y-103828476D01*
X165944000Y-103780857D01*
X165896380Y-103685619D01*
X165896380Y-102447523D02*
X165896380Y-102923714D01*
X166372571Y-102971333D01*
X166324952Y-102923714D01*
X166277333Y-102828476D01*
X166277333Y-102590380D01*
X166324952Y-102495142D01*
X166372571Y-102447523D01*
X166467809Y-102399904D01*
X166705904Y-102399904D01*
X166801142Y-102447523D01*
X166848761Y-102495142D01*
X166896380Y-102590380D01*
X166896380Y-102828476D01*
X166848761Y-102923714D01*
X166801142Y-102971333D01*
X161877142Y-108239047D02*
X161924761Y-108286666D01*
X161972380Y-108429523D01*
X161972380Y-108524761D01*
X161924761Y-108667619D01*
X161829523Y-108762857D01*
X161734285Y-108810476D01*
X161543809Y-108858095D01*
X161400952Y-108858095D01*
X161210476Y-108810476D01*
X161115238Y-108762857D01*
X161020000Y-108667619D01*
X160972380Y-108524761D01*
X160972380Y-108429523D01*
X161020000Y-108286666D01*
X161067619Y-108239047D01*
X161305714Y-107381904D02*
X161972380Y-107381904D01*
X160924761Y-107620000D02*
X161639047Y-107858095D01*
X161639047Y-107239047D01*
X160972380Y-106667619D02*
X160972380Y-106572380D01*
X161020000Y-106477142D01*
X161067619Y-106429523D01*
X161162857Y-106381904D01*
X161353333Y-106334285D01*
X161591428Y-106334285D01*
X161781904Y-106381904D01*
X161877142Y-106429523D01*
X161924761Y-106477142D01*
X161972380Y-106572380D01*
X161972380Y-106667619D01*
X161924761Y-106762857D01*
X161877142Y-106810476D01*
X161781904Y-106858095D01*
X161591428Y-106905714D01*
X161353333Y-106905714D01*
X161162857Y-106858095D01*
X161067619Y-106810476D01*
X161020000Y-106762857D01*
X160972380Y-106667619D01*
X160972380Y-106000952D02*
X160972380Y-105381904D01*
X161353333Y-105715238D01*
X161353333Y-105572380D01*
X161400952Y-105477142D01*
X161448571Y-105429523D01*
X161543809Y-105381904D01*
X161781904Y-105381904D01*
X161877142Y-105429523D01*
X161924761Y-105477142D01*
X161972380Y-105572380D01*
X161972380Y-105858095D01*
X161924761Y-105953333D01*
X161877142Y-106000952D01*
X164854952Y-123439142D02*
X164807333Y-123486761D01*
X164664476Y-123534380D01*
X164569238Y-123534380D01*
X164426380Y-123486761D01*
X164331142Y-123391523D01*
X164283523Y-123296285D01*
X164235904Y-123105809D01*
X164235904Y-122962952D01*
X164283523Y-122772476D01*
X164331142Y-122677238D01*
X164426380Y-122582000D01*
X164569238Y-122534380D01*
X164664476Y-122534380D01*
X164807333Y-122582000D01*
X164854952Y-122629619D01*
X165712095Y-122867714D02*
X165712095Y-123534380D01*
X165474000Y-122486761D02*
X165235904Y-123201047D01*
X165854952Y-123201047D01*
X166426380Y-122534380D02*
X166521619Y-122534380D01*
X166616857Y-122582000D01*
X166664476Y-122629619D01*
X166712095Y-122724857D01*
X166759714Y-122915333D01*
X166759714Y-123153428D01*
X166712095Y-123343904D01*
X166664476Y-123439142D01*
X166616857Y-123486761D01*
X166521619Y-123534380D01*
X166426380Y-123534380D01*
X166331142Y-123486761D01*
X166283523Y-123439142D01*
X166235904Y-123343904D01*
X166188285Y-123153428D01*
X166188285Y-122915333D01*
X166235904Y-122724857D01*
X166283523Y-122629619D01*
X166331142Y-122582000D01*
X166426380Y-122534380D01*
X167140666Y-122629619D02*
X167188285Y-122582000D01*
X167283523Y-122534380D01*
X167521619Y-122534380D01*
X167616857Y-122582000D01*
X167664476Y-122629619D01*
X167712095Y-122724857D01*
X167712095Y-122820095D01*
X167664476Y-122962952D01*
X167093047Y-123534380D01*
X167712095Y-123534380D01*
X164854952Y-120429142D02*
X164807333Y-120476761D01*
X164664476Y-120524380D01*
X164569238Y-120524380D01*
X164426380Y-120476761D01*
X164331142Y-120381523D01*
X164283523Y-120286285D01*
X164235904Y-120095809D01*
X164235904Y-119952952D01*
X164283523Y-119762476D01*
X164331142Y-119667238D01*
X164426380Y-119572000D01*
X164569238Y-119524380D01*
X164664476Y-119524380D01*
X164807333Y-119572000D01*
X164854952Y-119619619D01*
X165712095Y-119857714D02*
X165712095Y-120524380D01*
X165474000Y-119476761D02*
X165235904Y-120191047D01*
X165854952Y-120191047D01*
X166426380Y-119524380D02*
X166521619Y-119524380D01*
X166616857Y-119572000D01*
X166664476Y-119619619D01*
X166712095Y-119714857D01*
X166759714Y-119905333D01*
X166759714Y-120143428D01*
X166712095Y-120333904D01*
X166664476Y-120429142D01*
X166616857Y-120476761D01*
X166521619Y-120524380D01*
X166426380Y-120524380D01*
X166331142Y-120476761D01*
X166283523Y-120429142D01*
X166235904Y-120333904D01*
X166188285Y-120143428D01*
X166188285Y-119905333D01*
X166235904Y-119714857D01*
X166283523Y-119619619D01*
X166331142Y-119572000D01*
X166426380Y-119524380D01*
X167712095Y-120524380D02*
X167140666Y-120524380D01*
X167426380Y-120524380D02*
X167426380Y-119524380D01*
X167331142Y-119667238D01*
X167235904Y-119762476D01*
X167140666Y-119810095D01*
X161525142Y-76743047D02*
X161572761Y-76790666D01*
X161620380Y-76933523D01*
X161620380Y-77028761D01*
X161572761Y-77171619D01*
X161477523Y-77266857D01*
X161382285Y-77314476D01*
X161191809Y-77362095D01*
X161048952Y-77362095D01*
X160858476Y-77314476D01*
X160763238Y-77266857D01*
X160668000Y-77171619D01*
X160620380Y-77028761D01*
X160620380Y-76933523D01*
X160668000Y-76790666D01*
X160715619Y-76743047D01*
X160620380Y-76409714D02*
X160620380Y-75790666D01*
X161001333Y-76124000D01*
X161001333Y-75981142D01*
X161048952Y-75885904D01*
X161096571Y-75838285D01*
X161191809Y-75790666D01*
X161429904Y-75790666D01*
X161525142Y-75838285D01*
X161572761Y-75885904D01*
X161620380Y-75981142D01*
X161620380Y-76266857D01*
X161572761Y-76362095D01*
X161525142Y-76409714D01*
X160620380Y-75171619D02*
X160620380Y-75076380D01*
X160668000Y-74981142D01*
X160715619Y-74933523D01*
X160810857Y-74885904D01*
X161001333Y-74838285D01*
X161239428Y-74838285D01*
X161429904Y-74885904D01*
X161525142Y-74933523D01*
X161572761Y-74981142D01*
X161620380Y-75076380D01*
X161620380Y-75171619D01*
X161572761Y-75266857D01*
X161525142Y-75314476D01*
X161429904Y-75362095D01*
X161239428Y-75409714D01*
X161001333Y-75409714D01*
X160810857Y-75362095D01*
X160715619Y-75314476D01*
X160668000Y-75266857D01*
X160620380Y-75171619D01*
X160620380Y-73933523D02*
X160620380Y-74409714D01*
X161096571Y-74457333D01*
X161048952Y-74409714D01*
X161001333Y-74314476D01*
X161001333Y-74076380D01*
X161048952Y-73981142D01*
X161096571Y-73933523D01*
X161191809Y-73885904D01*
X161429904Y-73885904D01*
X161525142Y-73933523D01*
X161572761Y-73981142D01*
X161620380Y-74076380D01*
X161620380Y-74314476D01*
X161572761Y-74409714D01*
X161525142Y-74457333D01*
X158477142Y-76677047D02*
X158524761Y-76724666D01*
X158572380Y-76867523D01*
X158572380Y-76962761D01*
X158524761Y-77105619D01*
X158429523Y-77200857D01*
X158334285Y-77248476D01*
X158143809Y-77296095D01*
X158000952Y-77296095D01*
X157810476Y-77248476D01*
X157715238Y-77200857D01*
X157620000Y-77105619D01*
X157572380Y-76962761D01*
X157572380Y-76867523D01*
X157620000Y-76724666D01*
X157667619Y-76677047D01*
X157572380Y-76343714D02*
X157572380Y-75724666D01*
X157953333Y-76058000D01*
X157953333Y-75915142D01*
X158000952Y-75819904D01*
X158048571Y-75772285D01*
X158143809Y-75724666D01*
X158381904Y-75724666D01*
X158477142Y-75772285D01*
X158524761Y-75819904D01*
X158572380Y-75915142D01*
X158572380Y-76200857D01*
X158524761Y-76296095D01*
X158477142Y-76343714D01*
X157572380Y-75105619D02*
X157572380Y-75010380D01*
X157620000Y-74915142D01*
X157667619Y-74867523D01*
X157762857Y-74819904D01*
X157953333Y-74772285D01*
X158191428Y-74772285D01*
X158381904Y-74819904D01*
X158477142Y-74867523D01*
X158524761Y-74915142D01*
X158572380Y-75010380D01*
X158572380Y-75105619D01*
X158524761Y-75200857D01*
X158477142Y-75248476D01*
X158381904Y-75296095D01*
X158191428Y-75343714D01*
X157953333Y-75343714D01*
X157762857Y-75296095D01*
X157667619Y-75248476D01*
X157620000Y-75200857D01*
X157572380Y-75105619D01*
X157905714Y-73915142D02*
X158572380Y-73915142D01*
X157524761Y-74153238D02*
X158239047Y-74391333D01*
X158239047Y-73772285D01*
X155429142Y-76677047D02*
X155476761Y-76724666D01*
X155524380Y-76867523D01*
X155524380Y-76962761D01*
X155476761Y-77105619D01*
X155381523Y-77200857D01*
X155286285Y-77248476D01*
X155095809Y-77296095D01*
X154952952Y-77296095D01*
X154762476Y-77248476D01*
X154667238Y-77200857D01*
X154572000Y-77105619D01*
X154524380Y-76962761D01*
X154524380Y-76867523D01*
X154572000Y-76724666D01*
X154619619Y-76677047D01*
X154524380Y-76343714D02*
X154524380Y-75724666D01*
X154905333Y-76058000D01*
X154905333Y-75915142D01*
X154952952Y-75819904D01*
X155000571Y-75772285D01*
X155095809Y-75724666D01*
X155333904Y-75724666D01*
X155429142Y-75772285D01*
X155476761Y-75819904D01*
X155524380Y-75915142D01*
X155524380Y-76200857D01*
X155476761Y-76296095D01*
X155429142Y-76343714D01*
X154524380Y-75105619D02*
X154524380Y-75010380D01*
X154572000Y-74915142D01*
X154619619Y-74867523D01*
X154714857Y-74819904D01*
X154905333Y-74772285D01*
X155143428Y-74772285D01*
X155333904Y-74819904D01*
X155429142Y-74867523D01*
X155476761Y-74915142D01*
X155524380Y-75010380D01*
X155524380Y-75105619D01*
X155476761Y-75200857D01*
X155429142Y-75248476D01*
X155333904Y-75296095D01*
X155143428Y-75343714D01*
X154905333Y-75343714D01*
X154714857Y-75296095D01*
X154619619Y-75248476D01*
X154572000Y-75200857D01*
X154524380Y-75105619D01*
X154524380Y-74438952D02*
X154524380Y-73819904D01*
X154905333Y-74153238D01*
X154905333Y-74010380D01*
X154952952Y-73915142D01*
X155000571Y-73867523D01*
X155095809Y-73819904D01*
X155333904Y-73819904D01*
X155429142Y-73867523D01*
X155476761Y-73915142D01*
X155524380Y-74010380D01*
X155524380Y-74296095D01*
X155476761Y-74391333D01*
X155429142Y-74438952D01*
X168833142Y-80873047D02*
X168880761Y-80920666D01*
X168928380Y-81063523D01*
X168928380Y-81158761D01*
X168880761Y-81301619D01*
X168785523Y-81396857D01*
X168690285Y-81444476D01*
X168499809Y-81492095D01*
X168356952Y-81492095D01*
X168166476Y-81444476D01*
X168071238Y-81396857D01*
X167976000Y-81301619D01*
X167928380Y-81158761D01*
X167928380Y-81063523D01*
X167976000Y-80920666D01*
X168023619Y-80873047D01*
X167928380Y-80539714D02*
X167928380Y-79920666D01*
X168309333Y-80254000D01*
X168309333Y-80111142D01*
X168356952Y-80015904D01*
X168404571Y-79968285D01*
X168499809Y-79920666D01*
X168737904Y-79920666D01*
X168833142Y-79968285D01*
X168880761Y-80015904D01*
X168928380Y-80111142D01*
X168928380Y-80396857D01*
X168880761Y-80492095D01*
X168833142Y-80539714D01*
X167928380Y-79301619D02*
X167928380Y-79206380D01*
X167976000Y-79111142D01*
X168023619Y-79063523D01*
X168118857Y-79015904D01*
X168309333Y-78968285D01*
X168547428Y-78968285D01*
X168737904Y-79015904D01*
X168833142Y-79063523D01*
X168880761Y-79111142D01*
X168928380Y-79206380D01*
X168928380Y-79301619D01*
X168880761Y-79396857D01*
X168833142Y-79444476D01*
X168737904Y-79492095D01*
X168547428Y-79539714D01*
X168309333Y-79539714D01*
X168118857Y-79492095D01*
X168023619Y-79444476D01*
X167976000Y-79396857D01*
X167928380Y-79301619D01*
X168023619Y-78587333D02*
X167976000Y-78539714D01*
X167928380Y-78444476D01*
X167928380Y-78206380D01*
X167976000Y-78111142D01*
X168023619Y-78063523D01*
X168118857Y-78015904D01*
X168214095Y-78015904D01*
X168356952Y-78063523D01*
X168928380Y-78634952D01*
X168928380Y-78015904D01*
X152733142Y-87411047D02*
X152780761Y-87458666D01*
X152828380Y-87601523D01*
X152828380Y-87696761D01*
X152780761Y-87839619D01*
X152685523Y-87934857D01*
X152590285Y-87982476D01*
X152399809Y-88030095D01*
X152256952Y-88030095D01*
X152066476Y-87982476D01*
X151971238Y-87934857D01*
X151876000Y-87839619D01*
X151828380Y-87696761D01*
X151828380Y-87601523D01*
X151876000Y-87458666D01*
X151923619Y-87411047D01*
X151828380Y-87077714D02*
X151828380Y-86458666D01*
X152209333Y-86792000D01*
X152209333Y-86649142D01*
X152256952Y-86553904D01*
X152304571Y-86506285D01*
X152399809Y-86458666D01*
X152637904Y-86458666D01*
X152733142Y-86506285D01*
X152780761Y-86553904D01*
X152828380Y-86649142D01*
X152828380Y-86934857D01*
X152780761Y-87030095D01*
X152733142Y-87077714D01*
X151828380Y-85839619D02*
X151828380Y-85744380D01*
X151876000Y-85649142D01*
X151923619Y-85601523D01*
X152018857Y-85553904D01*
X152209333Y-85506285D01*
X152447428Y-85506285D01*
X152637904Y-85553904D01*
X152733142Y-85601523D01*
X152780761Y-85649142D01*
X152828380Y-85744380D01*
X152828380Y-85839619D01*
X152780761Y-85934857D01*
X152733142Y-85982476D01*
X152637904Y-86030095D01*
X152447428Y-86077714D01*
X152209333Y-86077714D01*
X152018857Y-86030095D01*
X151923619Y-85982476D01*
X151876000Y-85934857D01*
X151828380Y-85839619D01*
X152828380Y-84553904D02*
X152828380Y-85125333D01*
X152828380Y-84839619D02*
X151828380Y-84839619D01*
X151971238Y-84934857D01*
X152066476Y-85030095D01*
X152114095Y-85125333D01*
X210605714Y-73242380D02*
X210605714Y-72242380D01*
X210605714Y-72718571D02*
X211177142Y-72718571D01*
X211177142Y-73242380D02*
X211177142Y-72242380D01*
X212177142Y-73242380D02*
X211605714Y-73242380D01*
X211891428Y-73242380D02*
X211891428Y-72242380D01*
X211796190Y-72385238D01*
X211700952Y-72480476D01*
X211605714Y-72528095D01*
X212796190Y-72242380D02*
X212891428Y-72242380D01*
X212986666Y-72290000D01*
X213034285Y-72337619D01*
X213081904Y-72432857D01*
X213129523Y-72623333D01*
X213129523Y-72861428D01*
X213081904Y-73051904D01*
X213034285Y-73147142D01*
X212986666Y-73194761D01*
X212891428Y-73242380D01*
X212796190Y-73242380D01*
X212700952Y-73194761D01*
X212653333Y-73147142D01*
X212605714Y-73051904D01*
X212558095Y-72861428D01*
X212558095Y-72623333D01*
X212605714Y-72432857D01*
X212653333Y-72337619D01*
X212700952Y-72290000D01*
X212796190Y-72242380D01*
X213986666Y-72575714D02*
X213986666Y-73242380D01*
X213748571Y-72194761D02*
X213510476Y-72909047D01*
X214129523Y-72909047D01*
X98845714Y-149950380D02*
X98845714Y-148950380D01*
X98845714Y-149426571D02*
X99417142Y-149426571D01*
X99417142Y-149950380D02*
X99417142Y-148950380D01*
X100417142Y-149950380D02*
X99845714Y-149950380D01*
X100131428Y-149950380D02*
X100131428Y-148950380D01*
X100036190Y-149093238D01*
X99940952Y-149188476D01*
X99845714Y-149236095D01*
X101036190Y-148950380D02*
X101131428Y-148950380D01*
X101226666Y-148998000D01*
X101274285Y-149045619D01*
X101321904Y-149140857D01*
X101369523Y-149331333D01*
X101369523Y-149569428D01*
X101321904Y-149759904D01*
X101274285Y-149855142D01*
X101226666Y-149902761D01*
X101131428Y-149950380D01*
X101036190Y-149950380D01*
X100940952Y-149902761D01*
X100893333Y-149855142D01*
X100845714Y-149759904D01*
X100798095Y-149569428D01*
X100798095Y-149331333D01*
X100845714Y-149140857D01*
X100893333Y-149045619D01*
X100940952Y-148998000D01*
X101036190Y-148950380D01*
X101702857Y-148950380D02*
X102321904Y-148950380D01*
X101988571Y-149331333D01*
X102131428Y-149331333D01*
X102226666Y-149378952D01*
X102274285Y-149426571D01*
X102321904Y-149521809D01*
X102321904Y-149759904D01*
X102274285Y-149855142D01*
X102226666Y-149902761D01*
X102131428Y-149950380D01*
X101845714Y-149950380D01*
X101750476Y-149902761D01*
X101702857Y-149855142D01*
X210605714Y-149442380D02*
X210605714Y-148442380D01*
X210605714Y-148918571D02*
X211177142Y-148918571D01*
X211177142Y-149442380D02*
X211177142Y-148442380D01*
X212177142Y-149442380D02*
X211605714Y-149442380D01*
X211891428Y-149442380D02*
X211891428Y-148442380D01*
X211796190Y-148585238D01*
X211700952Y-148680476D01*
X211605714Y-148728095D01*
X212796190Y-148442380D02*
X212891428Y-148442380D01*
X212986666Y-148490000D01*
X213034285Y-148537619D01*
X213081904Y-148632857D01*
X213129523Y-148823333D01*
X213129523Y-149061428D01*
X213081904Y-149251904D01*
X213034285Y-149347142D01*
X212986666Y-149394761D01*
X212891428Y-149442380D01*
X212796190Y-149442380D01*
X212700952Y-149394761D01*
X212653333Y-149347142D01*
X212605714Y-149251904D01*
X212558095Y-149061428D01*
X212558095Y-148823333D01*
X212605714Y-148632857D01*
X212653333Y-148537619D01*
X212700952Y-148490000D01*
X212796190Y-148442380D01*
X213510476Y-148537619D02*
X213558095Y-148490000D01*
X213653333Y-148442380D01*
X213891428Y-148442380D01*
X213986666Y-148490000D01*
X214034285Y-148537619D01*
X214081904Y-148632857D01*
X214081904Y-148728095D01*
X214034285Y-148870952D01*
X213462857Y-149442380D01*
X214081904Y-149442380D01*
X98845714Y-73750380D02*
X98845714Y-72750380D01*
X98845714Y-73226571D02*
X99417142Y-73226571D01*
X99417142Y-73750380D02*
X99417142Y-72750380D01*
X100417142Y-73750380D02*
X99845714Y-73750380D01*
X100131428Y-73750380D02*
X100131428Y-72750380D01*
X100036190Y-72893238D01*
X99940952Y-72988476D01*
X99845714Y-73036095D01*
X101036190Y-72750380D02*
X101131428Y-72750380D01*
X101226666Y-72798000D01*
X101274285Y-72845619D01*
X101321904Y-72940857D01*
X101369523Y-73131333D01*
X101369523Y-73369428D01*
X101321904Y-73559904D01*
X101274285Y-73655142D01*
X101226666Y-73702761D01*
X101131428Y-73750380D01*
X101036190Y-73750380D01*
X100940952Y-73702761D01*
X100893333Y-73655142D01*
X100845714Y-73559904D01*
X100798095Y-73369428D01*
X100798095Y-73131333D01*
X100845714Y-72940857D01*
X100893333Y-72845619D01*
X100940952Y-72798000D01*
X101036190Y-72750380D01*
X102321904Y-73750380D02*
X101750476Y-73750380D01*
X102036190Y-73750380D02*
X102036190Y-72750380D01*
X101940952Y-72893238D01*
X101845714Y-72988476D01*
X101750476Y-73036095D01*
X211137142Y-100602666D02*
X211184761Y-100650285D01*
X211232380Y-100793142D01*
X211232380Y-100888380D01*
X211184761Y-101031238D01*
X211089523Y-101126476D01*
X210994285Y-101174095D01*
X210803809Y-101221714D01*
X210660952Y-101221714D01*
X210470476Y-101174095D01*
X210375238Y-101126476D01*
X210280000Y-101031238D01*
X210232380Y-100888380D01*
X210232380Y-100793142D01*
X210280000Y-100650285D01*
X210327619Y-100602666D01*
X211232380Y-100031238D02*
X211184761Y-100126476D01*
X211137142Y-100174095D01*
X211041904Y-100221714D01*
X210756190Y-100221714D01*
X210660952Y-100174095D01*
X210613333Y-100126476D01*
X210565714Y-100031238D01*
X210565714Y-99888380D01*
X210613333Y-99793142D01*
X210660952Y-99745523D01*
X210756190Y-99697904D01*
X211041904Y-99697904D01*
X211137142Y-99745523D01*
X211184761Y-99793142D01*
X211232380Y-99888380D01*
X211232380Y-100031238D01*
X210565714Y-99269333D02*
X211232380Y-99269333D01*
X210660952Y-99269333D02*
X210613333Y-99221714D01*
X210565714Y-99126476D01*
X210565714Y-98983619D01*
X210613333Y-98888380D01*
X210708571Y-98840761D01*
X211232380Y-98840761D01*
X210565714Y-98459809D02*
X211232380Y-98221714D01*
X210565714Y-97983619D01*
X211184761Y-97221714D02*
X211232380Y-97316952D01*
X211232380Y-97507428D01*
X211184761Y-97602666D01*
X211089523Y-97650285D01*
X210708571Y-97650285D01*
X210613333Y-97602666D01*
X210565714Y-97507428D01*
X210565714Y-97316952D01*
X210613333Y-97221714D01*
X210708571Y-97174095D01*
X210803809Y-97174095D01*
X210899047Y-97650285D01*
X211232380Y-96745523D02*
X210565714Y-96745523D01*
X210756190Y-96745523D02*
X210660952Y-96697904D01*
X210613333Y-96650285D01*
X210565714Y-96555047D01*
X210565714Y-96459809D01*
X210565714Y-96269333D02*
X210565714Y-95888380D01*
X210232380Y-96126476D02*
X211089523Y-96126476D01*
X211184761Y-96078857D01*
X211232380Y-95983619D01*
X211232380Y-95888380D01*
X211184761Y-95174095D02*
X211232380Y-95269333D01*
X211232380Y-95459809D01*
X211184761Y-95555047D01*
X211089523Y-95602666D01*
X210708571Y-95602666D01*
X210613333Y-95555047D01*
X210565714Y-95459809D01*
X210565714Y-95269333D01*
X210613333Y-95174095D01*
X210708571Y-95126476D01*
X210803809Y-95126476D01*
X210899047Y-95602666D01*
X211232380Y-94697904D02*
X210565714Y-94697904D01*
X210756190Y-94697904D02*
X210660952Y-94650285D01*
X210613333Y-94602666D01*
X210565714Y-94507428D01*
X210565714Y-94412190D01*
X210232380Y-93602666D02*
X210232380Y-94078857D01*
X210708571Y-94126476D01*
X210660952Y-94078857D01*
X210613333Y-93983619D01*
X210613333Y-93745523D01*
X210660952Y-93650285D01*
X210708571Y-93602666D01*
X210803809Y-93555047D01*
X211041904Y-93555047D01*
X211137142Y-93602666D01*
X211184761Y-93650285D01*
X211232380Y-93745523D01*
X211232380Y-93983619D01*
X211184761Y-94078857D01*
X211137142Y-94126476D01*
X210232380Y-92936000D02*
X210232380Y-92840761D01*
X210280000Y-92745523D01*
X210327619Y-92697904D01*
X210422857Y-92650285D01*
X210613333Y-92602666D01*
X210851428Y-92602666D01*
X211041904Y-92650285D01*
X211137142Y-92697904D01*
X211184761Y-92745523D01*
X211232380Y-92840761D01*
X211232380Y-92936000D01*
X211184761Y-93031238D01*
X211137142Y-93078857D01*
X211041904Y-93126476D01*
X210851428Y-93174095D01*
X210613333Y-93174095D01*
X210422857Y-93126476D01*
X210327619Y-93078857D01*
X210280000Y-93031238D01*
X210232380Y-92936000D01*
X210327619Y-92221714D02*
X210280000Y-92174095D01*
X210232380Y-92078857D01*
X210232380Y-91840761D01*
X210280000Y-91745523D01*
X210327619Y-91697904D01*
X210422857Y-91650285D01*
X210518095Y-91650285D01*
X210660952Y-91697904D01*
X211232380Y-92269333D01*
X211232380Y-91650285D01*
X177133142Y-136702666D02*
X177180761Y-136750285D01*
X177228380Y-136893142D01*
X177228380Y-136988380D01*
X177180761Y-137131238D01*
X177085523Y-137226476D01*
X176990285Y-137274095D01*
X176799809Y-137321714D01*
X176656952Y-137321714D01*
X176466476Y-137274095D01*
X176371238Y-137226476D01*
X176276000Y-137131238D01*
X176228380Y-136988380D01*
X176228380Y-136893142D01*
X176276000Y-136750285D01*
X176323619Y-136702666D01*
X177228380Y-136131238D02*
X177180761Y-136226476D01*
X177133142Y-136274095D01*
X177037904Y-136321714D01*
X176752190Y-136321714D01*
X176656952Y-136274095D01*
X176609333Y-136226476D01*
X176561714Y-136131238D01*
X176561714Y-135988380D01*
X176609333Y-135893142D01*
X176656952Y-135845523D01*
X176752190Y-135797904D01*
X177037904Y-135797904D01*
X177133142Y-135845523D01*
X177180761Y-135893142D01*
X177228380Y-135988380D01*
X177228380Y-136131238D01*
X176561714Y-135369333D02*
X177228380Y-135369333D01*
X176656952Y-135369333D02*
X176609333Y-135321714D01*
X176561714Y-135226476D01*
X176561714Y-135083619D01*
X176609333Y-134988380D01*
X176704571Y-134940761D01*
X177228380Y-134940761D01*
X176561714Y-134559809D02*
X177228380Y-134321714D01*
X176561714Y-134083619D01*
X177180761Y-133321714D02*
X177228380Y-133416952D01*
X177228380Y-133607428D01*
X177180761Y-133702666D01*
X177085523Y-133750285D01*
X176704571Y-133750285D01*
X176609333Y-133702666D01*
X176561714Y-133607428D01*
X176561714Y-133416952D01*
X176609333Y-133321714D01*
X176704571Y-133274095D01*
X176799809Y-133274095D01*
X176895047Y-133750285D01*
X177228380Y-132845523D02*
X176561714Y-132845523D01*
X176752190Y-132845523D02*
X176656952Y-132797904D01*
X176609333Y-132750285D01*
X176561714Y-132655047D01*
X176561714Y-132559809D01*
X176561714Y-132369333D02*
X176561714Y-131988380D01*
X176228380Y-132226476D02*
X177085523Y-132226476D01*
X177180761Y-132178857D01*
X177228380Y-132083619D01*
X177228380Y-131988380D01*
X177180761Y-131274095D02*
X177228380Y-131369333D01*
X177228380Y-131559809D01*
X177180761Y-131655047D01*
X177085523Y-131702666D01*
X176704571Y-131702666D01*
X176609333Y-131655047D01*
X176561714Y-131559809D01*
X176561714Y-131369333D01*
X176609333Y-131274095D01*
X176704571Y-131226476D01*
X176799809Y-131226476D01*
X176895047Y-131702666D01*
X177228380Y-130797904D02*
X176561714Y-130797904D01*
X176752190Y-130797904D02*
X176656952Y-130750285D01*
X176609333Y-130702666D01*
X176561714Y-130607428D01*
X176561714Y-130512190D01*
X176228380Y-129702666D02*
X176228380Y-130178857D01*
X176704571Y-130226476D01*
X176656952Y-130178857D01*
X176609333Y-130083619D01*
X176609333Y-129845523D01*
X176656952Y-129750285D01*
X176704571Y-129702666D01*
X176799809Y-129655047D01*
X177037904Y-129655047D01*
X177133142Y-129702666D01*
X177180761Y-129750285D01*
X177228380Y-129845523D01*
X177228380Y-130083619D01*
X177180761Y-130178857D01*
X177133142Y-130226476D01*
X176228380Y-129036000D02*
X176228380Y-128940761D01*
X176276000Y-128845523D01*
X176323619Y-128797904D01*
X176418857Y-128750285D01*
X176609333Y-128702666D01*
X176847428Y-128702666D01*
X177037904Y-128750285D01*
X177133142Y-128797904D01*
X177180761Y-128845523D01*
X177228380Y-128940761D01*
X177228380Y-129036000D01*
X177180761Y-129131238D01*
X177133142Y-129178857D01*
X177037904Y-129226476D01*
X176847428Y-129274095D01*
X176609333Y-129274095D01*
X176418857Y-129226476D01*
X176323619Y-129178857D01*
X176276000Y-129131238D01*
X176228380Y-129036000D01*
X177228380Y-127750285D02*
X177228380Y-128321714D01*
X177228380Y-128036000D02*
X176228380Y-128036000D01*
X176371238Y-128131238D01*
X176466476Y-128226476D01*
X176514095Y-128321714D01*
X160339714Y-149348380D02*
X160339714Y-150157904D01*
X160387333Y-150253142D01*
X160434952Y-150300761D01*
X160530190Y-150348380D01*
X160720666Y-150348380D01*
X160815904Y-150300761D01*
X160863523Y-150253142D01*
X160911142Y-150157904D01*
X160911142Y-149348380D01*
X161911142Y-150348380D02*
X161339714Y-150348380D01*
X161625428Y-150348380D02*
X161625428Y-149348380D01*
X161530190Y-149491238D01*
X161434952Y-149586476D01*
X161339714Y-149634095D01*
X162530190Y-149348380D02*
X162625428Y-149348380D01*
X162720666Y-149396000D01*
X162768285Y-149443619D01*
X162815904Y-149538857D01*
X162863523Y-149729333D01*
X162863523Y-149967428D01*
X162815904Y-150157904D01*
X162768285Y-150253142D01*
X162720666Y-150300761D01*
X162625428Y-150348380D01*
X162530190Y-150348380D01*
X162434952Y-150300761D01*
X162387333Y-150253142D01*
X162339714Y-150157904D01*
X162292095Y-149967428D01*
X162292095Y-149729333D01*
X162339714Y-149538857D01*
X162387333Y-149443619D01*
X162434952Y-149396000D01*
X162530190Y-149348380D01*
X163815904Y-150348380D02*
X163244476Y-150348380D01*
X163530190Y-150348380D02*
X163530190Y-149348380D01*
X163434952Y-149491238D01*
X163339714Y-149586476D01*
X163244476Y-149634095D01*
M02*
