G04 #@! TF.GenerationSoftware,KiCad,Pcbnew,(5.1.10-1-10_14)*
G04 #@! TF.CreationDate,2022-01-11T16:09:18-08:00*
G04 #@! TF.ProjectId,CI_ComPCB,43495f43-6f6d-4504-9342-2e6b69636164,rev?*
G04 #@! TF.SameCoordinates,Original*
G04 #@! TF.FileFunction,Soldermask,Bot*
G04 #@! TF.FilePolarity,Negative*
%FSLAX46Y46*%
G04 Gerber Fmt 4.6, Leading zero omitted, Abs format (unit mm)*
G04 Created by KiCad (PCBNEW (5.1.10-1-10_14)) date 2022-01-11 16:09:18*
%MOMM*%
%LPD*%
G01*
G04 APERTURE LIST*
%ADD10C,1.500000*%
%ADD11C,2.300000*%
%ADD12C,3.250000*%
%ADD13R,1.500000X1.500000*%
%ADD14C,5.700000*%
%ADD15C,3.600000*%
%ADD16C,1.524000*%
%ADD17R,1.700000X1.700000*%
G04 APERTURE END LIST*
D10*
X159240000Y-78920000D03*
X156950000Y-78920000D03*
X147810000Y-78920000D03*
X145520000Y-78920000D03*
D11*
X144250000Y-73210000D03*
X160510000Y-73210000D03*
D12*
X158730000Y-69780000D03*
X146030000Y-69780000D03*
D10*
X155932000Y-74100000D03*
X153900000Y-74100000D03*
X151868000Y-74100000D03*
X149836000Y-74100000D03*
X154916000Y-72320000D03*
X152884000Y-72320000D03*
X150852000Y-72320000D03*
D13*
X148820000Y-72320000D03*
D14*
X105640000Y-124900000D03*
D15*
X105640000Y-124900000D03*
D14*
X105640000Y-74100000D03*
D15*
X105640000Y-74100000D03*
D14*
X169140000Y-124900000D03*
D15*
X169140000Y-124900000D03*
D14*
X169140000Y-74100000D03*
D15*
X169140000Y-74100000D03*
D16*
X117050000Y-90226000D03*
X117050000Y-92766000D03*
X117050000Y-95306000D03*
X117050000Y-97846000D03*
X117050000Y-100386000D03*
X117050000Y-102926000D03*
X117050000Y-105466000D03*
X117050000Y-108006000D03*
X117050000Y-110546000D03*
X117050000Y-113086000D03*
X117050000Y-115626000D03*
X117050000Y-118166000D03*
X117050000Y-120706000D03*
X117050000Y-123246000D03*
X117050000Y-125786000D03*
X142550000Y-90226000D03*
X142550000Y-92766000D03*
X142550000Y-95306000D03*
X142550000Y-97846000D03*
X142550000Y-100386000D03*
X142550000Y-102926000D03*
X142550000Y-105466000D03*
X142550000Y-108006000D03*
X142550000Y-110546000D03*
X142550000Y-113086000D03*
X142550000Y-115626000D03*
X142550000Y-118166000D03*
X142550000Y-120706000D03*
X142550000Y-123246000D03*
X142550000Y-125786000D03*
D17*
X113514000Y-123122000D03*
X129008000Y-99246000D03*
X133072000Y-103310000D03*
M02*
