G04 #@! TF.GenerationSoftware,KiCad,Pcbnew,(5.1.10)-1*
G04 #@! TF.CreationDate,2022-05-03T11:30:29-07:00*
G04 #@! TF.ProjectId,CI_ComPCB,43495f43-6f6d-4504-9342-2e6b69636164,rev?*
G04 #@! TF.SameCoordinates,Original*
G04 #@! TF.FileFunction,Legend,Bot*
G04 #@! TF.FilePolarity,Positive*
%FSLAX46Y46*%
G04 Gerber Fmt 4.6, Leading zero omitted, Abs format (unit mm)*
G04 Created by KiCad (PCBNEW (5.1.10)-1) date 2022-05-03 11:30:29*
%MOMM*%
%LPD*%
G01*
G04 APERTURE LIST*
%ADD10C,0.300000*%
%ADD11C,0.150000*%
%ADD12C,0.508000*%
%ADD13C,0.120000*%
G04 APERTURE END LIST*
D10*
X147318571Y-67987142D02*
X147318571Y-68844285D01*
X148818571Y-68415714D02*
X147318571Y-68415714D01*
X147318571Y-69201428D02*
X148818571Y-70201428D01*
X147318571Y-70201428D02*
X148818571Y-69201428D01*
X127458571Y-68810000D02*
X126744285Y-68310000D01*
X127458571Y-67952857D02*
X125958571Y-67952857D01*
X125958571Y-68524285D01*
X126030000Y-68667142D01*
X126101428Y-68738571D01*
X126244285Y-68810000D01*
X126458571Y-68810000D01*
X126601428Y-68738571D01*
X126672857Y-68667142D01*
X126744285Y-68524285D01*
X126744285Y-67952857D01*
X125958571Y-69310000D02*
X127458571Y-70310000D01*
X125958571Y-70310000D02*
X127458571Y-69310000D01*
D11*
X134044761Y-88275714D02*
X134092380Y-88418571D01*
X134092380Y-88656666D01*
X134044761Y-88751904D01*
X133997142Y-88799523D01*
X133901904Y-88847142D01*
X133806666Y-88847142D01*
X133711428Y-88799523D01*
X133663809Y-88751904D01*
X133616190Y-88656666D01*
X133568571Y-88466190D01*
X133520952Y-88370952D01*
X133473333Y-88323333D01*
X133378095Y-88275714D01*
X133282857Y-88275714D01*
X133187619Y-88323333D01*
X133140000Y-88370952D01*
X133092380Y-88466190D01*
X133092380Y-88704285D01*
X133140000Y-88847142D01*
X134092380Y-89275714D02*
X133092380Y-89275714D01*
X133092380Y-89513809D01*
X133140000Y-89656666D01*
X133235238Y-89751904D01*
X133330476Y-89799523D01*
X133520952Y-89847142D01*
X133663809Y-89847142D01*
X133854285Y-89799523D01*
X133949523Y-89751904D01*
X134044761Y-89656666D01*
X134092380Y-89513809D01*
X134092380Y-89275714D01*
X133806666Y-90228095D02*
X133806666Y-90704285D01*
X134092380Y-90132857D02*
X133092380Y-90466190D01*
X134092380Y-90799523D01*
X136574761Y-88409523D02*
X136622380Y-88552380D01*
X136622380Y-88790476D01*
X136574761Y-88885714D01*
X136527142Y-88933333D01*
X136431904Y-88980952D01*
X136336666Y-88980952D01*
X136241428Y-88933333D01*
X136193809Y-88885714D01*
X136146190Y-88790476D01*
X136098571Y-88600000D01*
X136050952Y-88504761D01*
X136003333Y-88457142D01*
X135908095Y-88409523D01*
X135812857Y-88409523D01*
X135717619Y-88457142D01*
X135670000Y-88504761D01*
X135622380Y-88600000D01*
X135622380Y-88838095D01*
X135670000Y-88980952D01*
X136527142Y-89980952D02*
X136574761Y-89933333D01*
X136622380Y-89790476D01*
X136622380Y-89695238D01*
X136574761Y-89552380D01*
X136479523Y-89457142D01*
X136384285Y-89409523D01*
X136193809Y-89361904D01*
X136050952Y-89361904D01*
X135860476Y-89409523D01*
X135765238Y-89457142D01*
X135670000Y-89552380D01*
X135622380Y-89695238D01*
X135622380Y-89790476D01*
X135670000Y-89933333D01*
X135717619Y-89980952D01*
X136622380Y-90885714D02*
X136622380Y-90409523D01*
X135622380Y-90409523D01*
X138222380Y-88171428D02*
X138222380Y-88790476D01*
X138603333Y-88457142D01*
X138603333Y-88600000D01*
X138650952Y-88695238D01*
X138698571Y-88742857D01*
X138793809Y-88790476D01*
X139031904Y-88790476D01*
X139127142Y-88742857D01*
X139174761Y-88695238D01*
X139222380Y-88600000D01*
X139222380Y-88314285D01*
X139174761Y-88219047D01*
X139127142Y-88171428D01*
X139127142Y-89219047D02*
X139174761Y-89266666D01*
X139222380Y-89219047D01*
X139174761Y-89171428D01*
X139127142Y-89219047D01*
X139222380Y-89219047D01*
X138222380Y-89600000D02*
X138222380Y-90219047D01*
X138603333Y-89885714D01*
X138603333Y-90028571D01*
X138650952Y-90123809D01*
X138698571Y-90171428D01*
X138793809Y-90219047D01*
X139031904Y-90219047D01*
X139127142Y-90171428D01*
X139174761Y-90123809D01*
X139222380Y-90028571D01*
X139222380Y-89742857D01*
X139174761Y-89647619D01*
X139127142Y-89600000D01*
X138555714Y-90552380D02*
X139222380Y-90790476D01*
X138555714Y-91028571D01*
X142500000Y-85948095D02*
X142452380Y-85852857D01*
X142452380Y-85710000D01*
X142500000Y-85567142D01*
X142595238Y-85471904D01*
X142690476Y-85424285D01*
X142880952Y-85376666D01*
X143023809Y-85376666D01*
X143214285Y-85424285D01*
X143309523Y-85471904D01*
X143404761Y-85567142D01*
X143452380Y-85710000D01*
X143452380Y-85805238D01*
X143404761Y-85948095D01*
X143357142Y-85995714D01*
X143023809Y-85995714D01*
X143023809Y-85805238D01*
X143452380Y-86424285D02*
X142452380Y-86424285D01*
X143452380Y-86995714D01*
X142452380Y-86995714D01*
X143452380Y-87471904D02*
X142452380Y-87471904D01*
X142452380Y-87710000D01*
X142500000Y-87852857D01*
X142595238Y-87948095D01*
X142690476Y-87995714D01*
X142880952Y-88043333D01*
X143023809Y-88043333D01*
X143214285Y-87995714D01*
X143309523Y-87948095D01*
X143404761Y-87852857D01*
X143452380Y-87710000D01*
X143452380Y-87471904D01*
D12*
X169724285Y-119390714D02*
X169905714Y-119572142D01*
X170450000Y-119753571D01*
X170812857Y-119753571D01*
X171357142Y-119572142D01*
X171720000Y-119209285D01*
X171901428Y-118846428D01*
X172082857Y-118120714D01*
X172082857Y-117576428D01*
X171901428Y-116850714D01*
X171720000Y-116487857D01*
X171357142Y-116125000D01*
X170812857Y-115943571D01*
X170450000Y-115943571D01*
X169905714Y-116125000D01*
X169724285Y-116306428D01*
X168091428Y-119753571D02*
X168091428Y-115943571D01*
X162104285Y-117757857D02*
X161560000Y-117939285D01*
X161378571Y-118120714D01*
X161197142Y-118483571D01*
X161197142Y-119027857D01*
X161378571Y-119390714D01*
X161560000Y-119572142D01*
X161922857Y-119753571D01*
X163374285Y-119753571D01*
X163374285Y-115943571D01*
X162104285Y-115943571D01*
X161741428Y-116125000D01*
X161560000Y-116306428D01*
X161378571Y-116669285D01*
X161378571Y-117032142D01*
X161560000Y-117395000D01*
X161741428Y-117576428D01*
X162104285Y-117757857D01*
X163374285Y-117757857D01*
X159020000Y-119753571D02*
X159382857Y-119572142D01*
X159564285Y-119390714D01*
X159745714Y-119027857D01*
X159745714Y-117939285D01*
X159564285Y-117576428D01*
X159382857Y-117395000D01*
X159020000Y-117213571D01*
X158475714Y-117213571D01*
X158112857Y-117395000D01*
X157931428Y-117576428D01*
X157750000Y-117939285D01*
X157750000Y-119027857D01*
X157931428Y-119390714D01*
X158112857Y-119572142D01*
X158475714Y-119753571D01*
X159020000Y-119753571D01*
X154484285Y-119753571D02*
X154484285Y-117757857D01*
X154665714Y-117395000D01*
X155028571Y-117213571D01*
X155754285Y-117213571D01*
X156117142Y-117395000D01*
X154484285Y-119572142D02*
X154847142Y-119753571D01*
X155754285Y-119753571D01*
X156117142Y-119572142D01*
X156298571Y-119209285D01*
X156298571Y-118846428D01*
X156117142Y-118483571D01*
X155754285Y-118302142D01*
X154847142Y-118302142D01*
X154484285Y-118120714D01*
X152670000Y-119753571D02*
X152670000Y-117213571D01*
X152670000Y-117939285D02*
X152488571Y-117576428D01*
X152307142Y-117395000D01*
X151944285Y-117213571D01*
X151581428Y-117213571D01*
X148678571Y-119753571D02*
X148678571Y-115943571D01*
X148678571Y-119572142D02*
X149041428Y-119753571D01*
X149767142Y-119753571D01*
X150130000Y-119572142D01*
X150311428Y-119390714D01*
X150492857Y-119027857D01*
X150492857Y-117939285D01*
X150311428Y-117576428D01*
X150130000Y-117395000D01*
X149767142Y-117213571D01*
X149041428Y-117213571D01*
X148678571Y-117395000D01*
D11*
X163264404Y-123252380D02*
X163264404Y-122252380D01*
X162788214Y-122585714D02*
X162788214Y-123252380D01*
X162788214Y-122680952D02*
X162740595Y-122633333D01*
X162645357Y-122585714D01*
X162502500Y-122585714D01*
X162407261Y-122633333D01*
X162359642Y-122728571D01*
X162359642Y-123252380D01*
X161883452Y-122585714D02*
X161883452Y-123252380D01*
X161883452Y-122680952D02*
X161835833Y-122633333D01*
X161740595Y-122585714D01*
X161597738Y-122585714D01*
X161502500Y-122633333D01*
X161454880Y-122728571D01*
X161454880Y-123252380D01*
X160835833Y-123252380D02*
X160931071Y-123204761D01*
X160978690Y-123157142D01*
X161026309Y-123061904D01*
X161026309Y-122776190D01*
X160978690Y-122680952D01*
X160931071Y-122633333D01*
X160835833Y-122585714D01*
X160692976Y-122585714D01*
X160597738Y-122633333D01*
X160550119Y-122680952D01*
X160502500Y-122776190D01*
X160502500Y-123061904D01*
X160550119Y-123157142D01*
X160597738Y-123204761D01*
X160692976Y-123252380D01*
X160835833Y-123252380D01*
X160169166Y-122585714D02*
X159931071Y-123252380D01*
X159692976Y-122585714D01*
X159312023Y-123252380D02*
X159312023Y-122585714D01*
X159312023Y-122252380D02*
X159359642Y-122300000D01*
X159312023Y-122347619D01*
X159264404Y-122300000D01*
X159312023Y-122252380D01*
X159312023Y-122347619D01*
X158931071Y-122585714D02*
X158692976Y-123252380D01*
X158454880Y-122585714D01*
X157692976Y-123204761D02*
X157788214Y-123252380D01*
X157978690Y-123252380D01*
X158073928Y-123204761D01*
X158121547Y-123109523D01*
X158121547Y-122728571D01*
X158073928Y-122633333D01*
X157978690Y-122585714D01*
X157788214Y-122585714D01*
X157692976Y-122633333D01*
X157645357Y-122728571D01*
X157645357Y-122823809D01*
X158121547Y-122919047D01*
X162978690Y-123902380D02*
X162978690Y-124616666D01*
X163026309Y-124759523D01*
X163121547Y-124854761D01*
X163264404Y-124902380D01*
X163359642Y-124902380D01*
X162073928Y-124902380D02*
X162073928Y-124378571D01*
X162121547Y-124283333D01*
X162216785Y-124235714D01*
X162407261Y-124235714D01*
X162502500Y-124283333D01*
X162073928Y-124854761D02*
X162169166Y-124902380D01*
X162407261Y-124902380D01*
X162502500Y-124854761D01*
X162550119Y-124759523D01*
X162550119Y-124664285D01*
X162502500Y-124569047D01*
X162407261Y-124521428D01*
X162169166Y-124521428D01*
X162073928Y-124473809D01*
X161597738Y-124235714D02*
X161597738Y-124902380D01*
X161597738Y-124330952D02*
X161550119Y-124283333D01*
X161454880Y-124235714D01*
X161312023Y-124235714D01*
X161216785Y-124283333D01*
X161169166Y-124378571D01*
X161169166Y-124902380D01*
X159978690Y-123997619D02*
X159931071Y-123950000D01*
X159835833Y-123902380D01*
X159597738Y-123902380D01*
X159502500Y-123950000D01*
X159454880Y-123997619D01*
X159407261Y-124092857D01*
X159407261Y-124188095D01*
X159454880Y-124330952D01*
X160026309Y-124902380D01*
X159407261Y-124902380D01*
X158788214Y-123902380D02*
X158692976Y-123902380D01*
X158597738Y-123950000D01*
X158550119Y-123997619D01*
X158502500Y-124092857D01*
X158454880Y-124283333D01*
X158454880Y-124521428D01*
X158502500Y-124711904D01*
X158550119Y-124807142D01*
X158597738Y-124854761D01*
X158692976Y-124902380D01*
X158788214Y-124902380D01*
X158883452Y-124854761D01*
X158931071Y-124807142D01*
X158978690Y-124711904D01*
X159026309Y-124521428D01*
X159026309Y-124283333D01*
X158978690Y-124092857D01*
X158931071Y-123997619D01*
X158883452Y-123950000D01*
X158788214Y-123902380D01*
X158073928Y-123997619D02*
X158026309Y-123950000D01*
X157931071Y-123902380D01*
X157692976Y-123902380D01*
X157597738Y-123950000D01*
X157550119Y-123997619D01*
X157502500Y-124092857D01*
X157502500Y-124188095D01*
X157550119Y-124330952D01*
X158121547Y-124902380D01*
X157502500Y-124902380D01*
X157121547Y-123997619D02*
X157073928Y-123950000D01*
X156978690Y-123902380D01*
X156740595Y-123902380D01*
X156645357Y-123950000D01*
X156597738Y-123997619D01*
X156550119Y-124092857D01*
X156550119Y-124188095D01*
X156597738Y-124330952D01*
X157169166Y-124902380D01*
X156550119Y-124902380D01*
X163407261Y-125552380D02*
X163073928Y-126552380D01*
X162740595Y-125552380D01*
X161883452Y-126552380D02*
X162454880Y-126552380D01*
X162169166Y-126552380D02*
X162169166Y-125552380D01*
X162264404Y-125695238D01*
X162359642Y-125790476D01*
X162454880Y-125838095D01*
X161454880Y-126457142D02*
X161407261Y-126504761D01*
X161454880Y-126552380D01*
X161502500Y-126504761D01*
X161454880Y-126457142D01*
X161454880Y-126552380D01*
X161073928Y-125552380D02*
X160454880Y-125552380D01*
X160788214Y-125933333D01*
X160645357Y-125933333D01*
X160550119Y-125980952D01*
X160502500Y-126028571D01*
X160454880Y-126123809D01*
X160454880Y-126361904D01*
X160502500Y-126457142D01*
X160550119Y-126504761D01*
X160645357Y-126552380D01*
X160931071Y-126552380D01*
X161026309Y-126504761D01*
X161073928Y-126457142D01*
X160026309Y-126552380D02*
X160026309Y-125552380D01*
X160026309Y-125933333D02*
X159931071Y-125885714D01*
X159740595Y-125885714D01*
X159645357Y-125933333D01*
X159597738Y-125980952D01*
X159550119Y-126076190D01*
X159550119Y-126361904D01*
X159597738Y-126457142D01*
X159645357Y-126504761D01*
X159740595Y-126552380D01*
X159931071Y-126552380D01*
X160026309Y-126504761D01*
X159359642Y-126647619D02*
X158597738Y-126647619D01*
X158359642Y-125885714D02*
X158359642Y-126885714D01*
X158359642Y-125933333D02*
X158264404Y-125885714D01*
X158073928Y-125885714D01*
X157978690Y-125933333D01*
X157931071Y-125980952D01*
X157883452Y-126076190D01*
X157883452Y-126361904D01*
X157931071Y-126457142D01*
X157978690Y-126504761D01*
X158073928Y-126552380D01*
X158264404Y-126552380D01*
X158359642Y-126504761D01*
X157454880Y-126552380D02*
X157454880Y-125885714D01*
X157454880Y-126076190D02*
X157407261Y-125980952D01*
X157359642Y-125933333D01*
X157264404Y-125885714D01*
X157169166Y-125885714D01*
X156692976Y-126552380D02*
X156788214Y-126504761D01*
X156835833Y-126457142D01*
X156883452Y-126361904D01*
X156883452Y-126076190D01*
X156835833Y-125980952D01*
X156788214Y-125933333D01*
X156692976Y-125885714D01*
X156550119Y-125885714D01*
X156454880Y-125933333D01*
X156407261Y-125980952D01*
X156359642Y-126076190D01*
X156359642Y-126361904D01*
X156407261Y-126457142D01*
X156454880Y-126504761D01*
X156550119Y-126552380D01*
X156692976Y-126552380D01*
X155502500Y-126552380D02*
X155502500Y-125552380D01*
X155502500Y-126504761D02*
X155597738Y-126552380D01*
X155788214Y-126552380D01*
X155883452Y-126504761D01*
X155931071Y-126457142D01*
X155978690Y-126361904D01*
X155978690Y-126076190D01*
X155931071Y-125980952D01*
X155883452Y-125933333D01*
X155788214Y-125885714D01*
X155597738Y-125885714D01*
X155502500Y-125933333D01*
X154597738Y-125885714D02*
X154597738Y-126552380D01*
X155026309Y-125885714D02*
X155026309Y-126409523D01*
X154978690Y-126504761D01*
X154883452Y-126552380D01*
X154740595Y-126552380D01*
X154645357Y-126504761D01*
X154597738Y-126457142D01*
X153692976Y-126504761D02*
X153788214Y-126552380D01*
X153978690Y-126552380D01*
X154073928Y-126504761D01*
X154121547Y-126457142D01*
X154169166Y-126361904D01*
X154169166Y-126076190D01*
X154121547Y-125980952D01*
X154073928Y-125933333D01*
X153978690Y-125885714D01*
X153788214Y-125885714D01*
X153692976Y-125933333D01*
X153407261Y-125885714D02*
X153026309Y-125885714D01*
X153264404Y-125552380D02*
X153264404Y-126409523D01*
X153216785Y-126504761D01*
X153121547Y-126552380D01*
X153026309Y-126552380D01*
X152692976Y-126552380D02*
X152692976Y-125885714D01*
X152692976Y-125552380D02*
X152740595Y-125600000D01*
X152692976Y-125647619D01*
X152645357Y-125600000D01*
X152692976Y-125552380D01*
X152692976Y-125647619D01*
X152073928Y-126552380D02*
X152169166Y-126504761D01*
X152216785Y-126457142D01*
X152264404Y-126361904D01*
X152264404Y-126076190D01*
X152216785Y-125980952D01*
X152169166Y-125933333D01*
X152073928Y-125885714D01*
X151931071Y-125885714D01*
X151835833Y-125933333D01*
X151788214Y-125980952D01*
X151740595Y-126076190D01*
X151740595Y-126361904D01*
X151788214Y-126457142D01*
X151835833Y-126504761D01*
X151931071Y-126552380D01*
X152073928Y-126552380D01*
X151312023Y-125885714D02*
X151312023Y-126552380D01*
X151312023Y-125980952D02*
X151264404Y-125933333D01*
X151169166Y-125885714D01*
X151026309Y-125885714D01*
X150931071Y-125933333D01*
X150883452Y-126028571D01*
X150883452Y-126552380D01*
D13*
X123393500Y-84220000D02*
X151393500Y-84220000D01*
X123393500Y-112220000D02*
X123393500Y-84220000D01*
X151393500Y-112220000D02*
X123393500Y-112220000D01*
X151393500Y-84220000D02*
X151393500Y-112220000D01*
D11*
X150164285Y-85192380D02*
X150164285Y-86001904D01*
X150116666Y-86097142D01*
X150069047Y-86144761D01*
X149973809Y-86192380D01*
X149783333Y-86192380D01*
X149688095Y-86144761D01*
X149640476Y-86097142D01*
X149592857Y-86001904D01*
X149592857Y-85192380D01*
X148592857Y-86192380D02*
X149164285Y-86192380D01*
X148878571Y-86192380D02*
X148878571Y-85192380D01*
X148973809Y-85335238D01*
X149069047Y-85430476D01*
X149164285Y-85478095D01*
X147973809Y-85192380D02*
X147878571Y-85192380D01*
X147783333Y-85240000D01*
X147735714Y-85287619D01*
X147688095Y-85382857D01*
X147640476Y-85573333D01*
X147640476Y-85811428D01*
X147688095Y-86001904D01*
X147735714Y-86097142D01*
X147783333Y-86144761D01*
X147878571Y-86192380D01*
X147973809Y-86192380D01*
X148069047Y-86144761D01*
X148116666Y-86097142D01*
X148164285Y-86001904D01*
X148211904Y-85811428D01*
X148211904Y-85573333D01*
X148164285Y-85382857D01*
X148116666Y-85287619D01*
X148069047Y-85240000D01*
X147973809Y-85192380D01*
X147259523Y-85287619D02*
X147211904Y-85240000D01*
X147116666Y-85192380D01*
X146878571Y-85192380D01*
X146783333Y-85240000D01*
X146735714Y-85287619D01*
X146688095Y-85382857D01*
X146688095Y-85478095D01*
X146735714Y-85620952D01*
X147307142Y-86192380D01*
X146688095Y-86192380D01*
M02*
