%FSLAX45Y45*%
G04 Gerber Fmt 4.5, Leading zero omitted, Abs format (unit mm)*
G04 Created by KiCad (PCBNEW (5.1.10)-1) date 2021-10-29 16:40:03*
%MOMM*%
%LPD*%
G01*
G04 APERTURE LIST*
%TA.AperFunction,Profile*%
%ADD10C,0.100000*%
%TD*%
%ADD11C,0.200000*%
%ADD12C,0.300000*%
G04 APERTURE END LIST*
D10*
X21740000Y-7156000D02*
X21486000Y-7156000D01*
X21740000Y-15792000D02*
X21740000Y-7156000D01*
X9548000Y-15792000D02*
X21740000Y-15792000D01*
X9548000Y-7156000D02*
X9548000Y-15792000D01*
X21486000Y-7156000D02*
X9548000Y-7156000D01*
D11*
X18935500Y-15248500D02*
X19260500Y-15573500D01*
X19260500Y-15248500D02*
X18935500Y-15573500D01*
X18936300Y-7374500D02*
X19261300Y-7699500D01*
X19261300Y-7374500D02*
X18936300Y-7699500D01*
X20205500Y-15248500D02*
X20530500Y-15573500D01*
X20530500Y-15248500D02*
X20205500Y-15573500D01*
X20206300Y-7374500D02*
X20531300Y-7699500D01*
X20531300Y-7374500D02*
X20206300Y-7699500D01*
D12*
X9829428Y-16262714D02*
X9829428Y-15962714D01*
X9900857Y-15962714D01*
X9943714Y-15977000D01*
X9972286Y-16005571D01*
X9986571Y-16034143D01*
X10000857Y-16091286D01*
X10000857Y-16134143D01*
X9986571Y-16191286D01*
X9972286Y-16219857D01*
X9943714Y-16248429D01*
X9900857Y-16262714D01*
X9829428Y-16262714D01*
X10129428Y-16262714D02*
X10129428Y-16062714D01*
X10129428Y-16119857D02*
X10143714Y-16091286D01*
X10158000Y-16077000D01*
X10186571Y-16062714D01*
X10215143Y-16062714D01*
X10315143Y-16262714D02*
X10315143Y-16062714D01*
X10315143Y-15962714D02*
X10300857Y-15977000D01*
X10315143Y-15991286D01*
X10329428Y-15977000D01*
X10315143Y-15962714D01*
X10315143Y-15991286D01*
X10500857Y-16262714D02*
X10472286Y-16248429D01*
X10458000Y-16219857D01*
X10458000Y-15962714D01*
X10658000Y-16262714D02*
X10629428Y-16248429D01*
X10615143Y-16219857D01*
X10615143Y-15962714D01*
X11000857Y-16262714D02*
X11000857Y-15962714D01*
X11100857Y-16177000D01*
X11200857Y-15962714D01*
X11200857Y-16262714D01*
X11472286Y-16262714D02*
X11472286Y-16105571D01*
X11458000Y-16077000D01*
X11429428Y-16062714D01*
X11372286Y-16062714D01*
X11343714Y-16077000D01*
X11472286Y-16248429D02*
X11443714Y-16262714D01*
X11372286Y-16262714D01*
X11343714Y-16248429D01*
X11329428Y-16219857D01*
X11329428Y-16191286D01*
X11343714Y-16162714D01*
X11372286Y-16148429D01*
X11443714Y-16148429D01*
X11472286Y-16134143D01*
X11615143Y-16062714D02*
X11615143Y-16362714D01*
X11615143Y-16077000D02*
X11643714Y-16062714D01*
X11700857Y-16062714D01*
X11729428Y-16077000D01*
X11743714Y-16091286D01*
X11758000Y-16119857D01*
X11758000Y-16205571D01*
X11743714Y-16234143D01*
X11729428Y-16248429D01*
X11700857Y-16262714D01*
X11643714Y-16262714D01*
X11615143Y-16248429D01*
X11886571Y-16234143D02*
X11900857Y-16248429D01*
X11886571Y-16262714D01*
X11872286Y-16248429D01*
X11886571Y-16234143D01*
X11886571Y-16262714D01*
X11886571Y-16077000D02*
X11900857Y-16091286D01*
X11886571Y-16105571D01*
X11872286Y-16091286D01*
X11886571Y-16077000D01*
X11886571Y-16105571D01*
X9218000Y-16594500D02*
X9543000Y-16919500D01*
X9543000Y-16594500D02*
X9218000Y-16919500D01*
X9800857Y-16592714D02*
X9986571Y-16592714D01*
X9886571Y-16707000D01*
X9929428Y-16707000D01*
X9958000Y-16721286D01*
X9972286Y-16735571D01*
X9986571Y-16764143D01*
X9986571Y-16835572D01*
X9972286Y-16864143D01*
X9958000Y-16878429D01*
X9929428Y-16892714D01*
X9843714Y-16892714D01*
X9815143Y-16878429D01*
X9800857Y-16864143D01*
X10115143Y-16864143D02*
X10129428Y-16878429D01*
X10115143Y-16892714D01*
X10100857Y-16878429D01*
X10115143Y-16864143D01*
X10115143Y-16892714D01*
X10243714Y-16621286D02*
X10258000Y-16607000D01*
X10286571Y-16592714D01*
X10358000Y-16592714D01*
X10386571Y-16607000D01*
X10400857Y-16621286D01*
X10415143Y-16649857D01*
X10415143Y-16678429D01*
X10400857Y-16721286D01*
X10229428Y-16892714D01*
X10415143Y-16892714D01*
X10686571Y-16592714D02*
X10543714Y-16592714D01*
X10529428Y-16735571D01*
X10543714Y-16721286D01*
X10572286Y-16707000D01*
X10643714Y-16707000D01*
X10672286Y-16721286D01*
X10686571Y-16735571D01*
X10700857Y-16764143D01*
X10700857Y-16835572D01*
X10686571Y-16864143D01*
X10672286Y-16878429D01*
X10643714Y-16892714D01*
X10572286Y-16892714D01*
X10543714Y-16878429D01*
X10529428Y-16864143D01*
X10886571Y-16592714D02*
X10915143Y-16592714D01*
X10943714Y-16607000D01*
X10958000Y-16621286D01*
X10972286Y-16649857D01*
X10986571Y-16707000D01*
X10986571Y-16778429D01*
X10972286Y-16835572D01*
X10958000Y-16864143D01*
X10943714Y-16878429D01*
X10915143Y-16892714D01*
X10886571Y-16892714D01*
X10858000Y-16878429D01*
X10843714Y-16864143D01*
X10829428Y-16835572D01*
X10815143Y-16778429D01*
X10815143Y-16707000D01*
X10829428Y-16649857D01*
X10843714Y-16621286D01*
X10858000Y-16607000D01*
X10886571Y-16592714D01*
X11115143Y-16892714D02*
X11115143Y-16692714D01*
X11115143Y-16721286D02*
X11129428Y-16707000D01*
X11158000Y-16692714D01*
X11200857Y-16692714D01*
X11229428Y-16707000D01*
X11243714Y-16735571D01*
X11243714Y-16892714D01*
X11243714Y-16735571D02*
X11258000Y-16707000D01*
X11286571Y-16692714D01*
X11329428Y-16692714D01*
X11358000Y-16707000D01*
X11372286Y-16735571D01*
X11372286Y-16892714D01*
X11515143Y-16892714D02*
X11515143Y-16692714D01*
X11515143Y-16721286D02*
X11529428Y-16707000D01*
X11558000Y-16692714D01*
X11600857Y-16692714D01*
X11629428Y-16707000D01*
X11643714Y-16735571D01*
X11643714Y-16892714D01*
X11643714Y-16735571D02*
X11658000Y-16707000D01*
X11686571Y-16692714D01*
X11729428Y-16692714D01*
X11758000Y-16707000D01*
X11772286Y-16735571D01*
X11772286Y-16892714D01*
X12358000Y-16578429D02*
X12100857Y-16964143D01*
X12743714Y-16592714D02*
X12772286Y-16592714D01*
X12800857Y-16607000D01*
X12815143Y-16621286D01*
X12829428Y-16649857D01*
X12843714Y-16707000D01*
X12843714Y-16778429D01*
X12829428Y-16835572D01*
X12815143Y-16864143D01*
X12800857Y-16878429D01*
X12772286Y-16892714D01*
X12743714Y-16892714D01*
X12715143Y-16878429D01*
X12700857Y-16864143D01*
X12686571Y-16835572D01*
X12672286Y-16778429D01*
X12672286Y-16707000D01*
X12686571Y-16649857D01*
X12700857Y-16621286D01*
X12715143Y-16607000D01*
X12743714Y-16592714D01*
X12972286Y-16864143D02*
X12986571Y-16878429D01*
X12972286Y-16892714D01*
X12958000Y-16878429D01*
X12972286Y-16864143D01*
X12972286Y-16892714D01*
X13272286Y-16892714D02*
X13100857Y-16892714D01*
X13186571Y-16892714D02*
X13186571Y-16592714D01*
X13158000Y-16635571D01*
X13129428Y-16664143D01*
X13100857Y-16678429D01*
X13386571Y-16621286D02*
X13400857Y-16607000D01*
X13429428Y-16592714D01*
X13500857Y-16592714D01*
X13529428Y-16607000D01*
X13543714Y-16621286D01*
X13558000Y-16649857D01*
X13558000Y-16678429D01*
X13543714Y-16721286D01*
X13372286Y-16892714D01*
X13558000Y-16892714D01*
X13729428Y-16721286D02*
X13700857Y-16707000D01*
X13686571Y-16692714D01*
X13672286Y-16664143D01*
X13672286Y-16649857D01*
X13686571Y-16621286D01*
X13700857Y-16607000D01*
X13729428Y-16592714D01*
X13786571Y-16592714D01*
X13815143Y-16607000D01*
X13829428Y-16621286D01*
X13843714Y-16649857D01*
X13843714Y-16664143D01*
X13829428Y-16692714D01*
X13815143Y-16707000D01*
X13786571Y-16721286D01*
X13729428Y-16721286D01*
X13700857Y-16735571D01*
X13686571Y-16749857D01*
X13672286Y-16778429D01*
X13672286Y-16835572D01*
X13686571Y-16864143D01*
X13700857Y-16878429D01*
X13729428Y-16892714D01*
X13786571Y-16892714D01*
X13815143Y-16878429D01*
X13829428Y-16864143D01*
X13843714Y-16835572D01*
X13843714Y-16778429D01*
X13829428Y-16749857D01*
X13815143Y-16735571D01*
X13786571Y-16721286D01*
X14029428Y-16592714D02*
X14058000Y-16592714D01*
X14086571Y-16607000D01*
X14100857Y-16621286D01*
X14115143Y-16649857D01*
X14129428Y-16707000D01*
X14129428Y-16778429D01*
X14115143Y-16835572D01*
X14100857Y-16864143D01*
X14086571Y-16878429D01*
X14058000Y-16892714D01*
X14029428Y-16892714D01*
X14000857Y-16878429D01*
X13986571Y-16864143D01*
X13972286Y-16835572D01*
X13958000Y-16778429D01*
X13958000Y-16707000D01*
X13972286Y-16649857D01*
X13986571Y-16621286D01*
X14000857Y-16607000D01*
X14029428Y-16592714D01*
X14243714Y-16592714D02*
X14243714Y-16649857D01*
X14358000Y-16592714D02*
X14358000Y-16649857D01*
X14800857Y-17007000D02*
X14786571Y-16992714D01*
X14758000Y-16949857D01*
X14743714Y-16921286D01*
X14729428Y-16878429D01*
X14715143Y-16807000D01*
X14715143Y-16749857D01*
X14729428Y-16678429D01*
X14743714Y-16635571D01*
X14758000Y-16607000D01*
X14786571Y-16564143D01*
X14800857Y-16549857D01*
X15043714Y-16692714D02*
X15043714Y-16892714D01*
X14972286Y-16578429D02*
X14900857Y-16792714D01*
X15086571Y-16792714D01*
X15429428Y-16892714D02*
X15429428Y-16592714D01*
X15558000Y-16892714D02*
X15558000Y-16735571D01*
X15543714Y-16707000D01*
X15515143Y-16692714D01*
X15472286Y-16692714D01*
X15443714Y-16707000D01*
X15429428Y-16721286D01*
X15743714Y-16892714D02*
X15715143Y-16878429D01*
X15700857Y-16864143D01*
X15686571Y-16835572D01*
X15686571Y-16749857D01*
X15700857Y-16721286D01*
X15715143Y-16707000D01*
X15743714Y-16692714D01*
X15786571Y-16692714D01*
X15815143Y-16707000D01*
X15829428Y-16721286D01*
X15843714Y-16749857D01*
X15843714Y-16835572D01*
X15829428Y-16864143D01*
X15815143Y-16878429D01*
X15786571Y-16892714D01*
X15743714Y-16892714D01*
X16015143Y-16892714D02*
X15986571Y-16878429D01*
X15972286Y-16849857D01*
X15972286Y-16592714D01*
X16243714Y-16878429D02*
X16215143Y-16892714D01*
X16158000Y-16892714D01*
X16129428Y-16878429D01*
X16115143Y-16849857D01*
X16115143Y-16735571D01*
X16129428Y-16707000D01*
X16158000Y-16692714D01*
X16215143Y-16692714D01*
X16243714Y-16707000D01*
X16258000Y-16735571D01*
X16258000Y-16764143D01*
X16115143Y-16792714D01*
X16372286Y-16878429D02*
X16400857Y-16892714D01*
X16458000Y-16892714D01*
X16486571Y-16878429D01*
X16500857Y-16849857D01*
X16500857Y-16835572D01*
X16486571Y-16807000D01*
X16458000Y-16792714D01*
X16415143Y-16792714D01*
X16386571Y-16778429D01*
X16372286Y-16749857D01*
X16372286Y-16735571D01*
X16386571Y-16707000D01*
X16415143Y-16692714D01*
X16458000Y-16692714D01*
X16486571Y-16707000D01*
X16600857Y-17007000D02*
X16615143Y-16992714D01*
X16643714Y-16949857D01*
X16658000Y-16921286D01*
X16672286Y-16878429D01*
X16686571Y-16807000D01*
X16686571Y-16749857D01*
X16672286Y-16678429D01*
X16658000Y-16635571D01*
X16643714Y-16607000D01*
X16615143Y-16564143D01*
X16600857Y-16549857D01*
X17143714Y-17007000D02*
X17129428Y-16992714D01*
X17100857Y-16949857D01*
X17086571Y-16921286D01*
X17072286Y-16878429D01*
X17058000Y-16807000D01*
X17058000Y-16749857D01*
X17072286Y-16678429D01*
X17086571Y-16635571D01*
X17100857Y-16607000D01*
X17129428Y-16564143D01*
X17143714Y-16549857D01*
X17258000Y-16692714D02*
X17258000Y-16892714D01*
X17258000Y-16721286D02*
X17272286Y-16707000D01*
X17300857Y-16692714D01*
X17343714Y-16692714D01*
X17372286Y-16707000D01*
X17386571Y-16735571D01*
X17386571Y-16892714D01*
X17572286Y-16892714D02*
X17543714Y-16878429D01*
X17529428Y-16864143D01*
X17515143Y-16835572D01*
X17515143Y-16749857D01*
X17529428Y-16721286D01*
X17543714Y-16707000D01*
X17572286Y-16692714D01*
X17615143Y-16692714D01*
X17643714Y-16707000D01*
X17658000Y-16721286D01*
X17672286Y-16749857D01*
X17672286Y-16835572D01*
X17658000Y-16864143D01*
X17643714Y-16878429D01*
X17615143Y-16892714D01*
X17572286Y-16892714D01*
X17758000Y-16692714D02*
X17872286Y-16692714D01*
X17800857Y-16592714D02*
X17800857Y-16849857D01*
X17815143Y-16878429D01*
X17843714Y-16892714D01*
X17872286Y-16892714D01*
X18200857Y-16692714D02*
X18200857Y-16992714D01*
X18200857Y-16707000D02*
X18229428Y-16692714D01*
X18286571Y-16692714D01*
X18315143Y-16707000D01*
X18329428Y-16721286D01*
X18343714Y-16749857D01*
X18343714Y-16835572D01*
X18329428Y-16864143D01*
X18315143Y-16878429D01*
X18286571Y-16892714D01*
X18229428Y-16892714D01*
X18200857Y-16878429D01*
X18515143Y-16892714D02*
X18486571Y-16878429D01*
X18472286Y-16849857D01*
X18472286Y-16592714D01*
X18758000Y-16892714D02*
X18758000Y-16735571D01*
X18743714Y-16707000D01*
X18715143Y-16692714D01*
X18658000Y-16692714D01*
X18629428Y-16707000D01*
X18758000Y-16878429D02*
X18729428Y-16892714D01*
X18658000Y-16892714D01*
X18629428Y-16878429D01*
X18615143Y-16849857D01*
X18615143Y-16821286D01*
X18629428Y-16792714D01*
X18658000Y-16778429D01*
X18729428Y-16778429D01*
X18758000Y-16764143D01*
X18858000Y-16692714D02*
X18972286Y-16692714D01*
X18900857Y-16592714D02*
X18900857Y-16849857D01*
X18915143Y-16878429D01*
X18943714Y-16892714D01*
X18972286Y-16892714D01*
X19186571Y-16878429D02*
X19158000Y-16892714D01*
X19100857Y-16892714D01*
X19072286Y-16878429D01*
X19058000Y-16849857D01*
X19058000Y-16735571D01*
X19072286Y-16707000D01*
X19100857Y-16692714D01*
X19158000Y-16692714D01*
X19186571Y-16707000D01*
X19200857Y-16735571D01*
X19200857Y-16764143D01*
X19058000Y-16792714D01*
X19458000Y-16892714D02*
X19458000Y-16592714D01*
X19458000Y-16878429D02*
X19429428Y-16892714D01*
X19372286Y-16892714D01*
X19343714Y-16878429D01*
X19329428Y-16864143D01*
X19315143Y-16835572D01*
X19315143Y-16749857D01*
X19329428Y-16721286D01*
X19343714Y-16707000D01*
X19372286Y-16692714D01*
X19429428Y-16692714D01*
X19458000Y-16707000D01*
X19572286Y-17007000D02*
X19586571Y-16992714D01*
X19615143Y-16949857D01*
X19629428Y-16921286D01*
X19643714Y-16878429D01*
X19658000Y-16807000D01*
X19658000Y-16749857D01*
X19643714Y-16678429D01*
X19629428Y-16635571D01*
X19615143Y-16607000D01*
X19586571Y-16564143D01*
X19572286Y-16549857D01*
M02*
