G04 #@! TF.GenerationSoftware,KiCad,Pcbnew,(5.1.10-1-10_14)*
G04 #@! TF.CreationDate,2022-01-13T10:29:40-08:00*
G04 #@! TF.ProjectId,CI_ComPCB,43495f43-6f6d-4504-9342-2e6b69636164,rev?*
G04 #@! TF.SameCoordinates,Original*
G04 #@! TF.FileFunction,Copper,L2,Bot*
G04 #@! TF.FilePolarity,Positive*
%FSLAX46Y46*%
G04 Gerber Fmt 4.6, Leading zero omitted, Abs format (unit mm)*
G04 Created by KiCad (PCBNEW (5.1.10-1-10_14)) date 2022-01-13 10:29:40*
%MOMM*%
%LPD*%
G01*
G04 APERTURE LIST*
G04 #@! TA.AperFunction,ComponentPad*
%ADD10C,1.500000*%
G04 #@! TD*
G04 #@! TA.AperFunction,ComponentPad*
%ADD11C,2.300000*%
G04 #@! TD*
G04 #@! TA.AperFunction,ComponentPad*
%ADD12R,1.500000X1.500000*%
G04 #@! TD*
G04 #@! TA.AperFunction,ConnectorPad*
%ADD13C,5.700000*%
G04 #@! TD*
G04 #@! TA.AperFunction,ComponentPad*
%ADD14C,3.600000*%
G04 #@! TD*
G04 #@! TA.AperFunction,ComponentPad*
%ADD15C,1.524000*%
G04 #@! TD*
G04 #@! TA.AperFunction,ComponentPad*
%ADD16R,1.700000X1.700000*%
G04 #@! TD*
G04 #@! TA.AperFunction,ViaPad*
%ADD17C,0.609600*%
G04 #@! TD*
G04 #@! TA.AperFunction,Conductor*
%ADD18C,0.762000*%
G04 #@! TD*
G04 #@! TA.AperFunction,Conductor*
%ADD19C,0.254000*%
G04 #@! TD*
G04 #@! TA.AperFunction,Conductor*
%ADD20C,0.100000*%
G04 #@! TD*
G04 APERTURE END LIST*
D10*
X144254000Y-79682000D03*
X141964000Y-79682000D03*
X132824000Y-79682000D03*
X130534000Y-79682000D03*
D11*
X129264000Y-73972000D03*
X145524000Y-73972000D03*
D10*
X140946000Y-74862000D03*
X138914000Y-74862000D03*
X136882000Y-74862000D03*
X134850000Y-74862000D03*
X139930000Y-73082000D03*
X137898000Y-73082000D03*
X135866000Y-73082000D03*
D12*
X133834000Y-73082000D03*
D13*
X105640000Y-124900000D03*
D14*
X105640000Y-124900000D03*
D13*
X105640000Y-74100000D03*
D14*
X105640000Y-74100000D03*
D13*
X169140000Y-124900000D03*
D14*
X169140000Y-124900000D03*
D13*
X169140000Y-74100000D03*
D14*
X169140000Y-74100000D03*
D15*
X117050000Y-90226000D03*
X117050000Y-92766000D03*
X117050000Y-95306000D03*
X117050000Y-97846000D03*
X117050000Y-100386000D03*
X117050000Y-102926000D03*
X117050000Y-105466000D03*
X117050000Y-108006000D03*
X117050000Y-110546000D03*
X117050000Y-113086000D03*
X117050000Y-115626000D03*
X117050000Y-118166000D03*
X117050000Y-120706000D03*
X117050000Y-123246000D03*
X117050000Y-125786000D03*
X142550000Y-90226000D03*
X142550000Y-92766000D03*
X142550000Y-95306000D03*
X142550000Y-97846000D03*
X142550000Y-100386000D03*
X142550000Y-102926000D03*
X142550000Y-105466000D03*
X142550000Y-108006000D03*
X142550000Y-110546000D03*
X142550000Y-113086000D03*
X142550000Y-115626000D03*
X142550000Y-118166000D03*
X142550000Y-120706000D03*
X142550000Y-123246000D03*
X142550000Y-125786000D03*
D16*
X113514000Y-123122000D03*
X128754000Y-118296000D03*
X133834000Y-124392000D03*
D17*
X127294000Y-114676000D03*
X126024000Y-113406000D03*
X128754000Y-115756000D03*
X131006000Y-102328000D03*
X132784000Y-104106000D03*
X125642000Y-112136000D03*
X128532000Y-113438000D03*
X129548000Y-114454000D03*
X130310000Y-115216000D03*
X136374000Y-109660000D03*
X135160000Y-109350000D03*
X133890000Y-108080000D03*
X129262000Y-94928000D03*
X129262000Y-98992000D03*
X132564000Y-110422000D03*
X124563000Y-109533000D03*
X125325000Y-110295000D03*
X123166000Y-110422000D03*
X159945000Y-85073000D03*
X159437000Y-84565000D03*
X162004000Y-126448000D03*
X162766000Y-126448000D03*
X163782000Y-126448000D03*
X164798000Y-126448000D03*
X165560000Y-126448000D03*
X146573002Y-117534000D03*
X147296000Y-113724000D03*
D18*
X146573002Y-117534000D02*
X146573002Y-114446998D01*
X146573002Y-114446998D02*
X147296000Y-113724000D01*
X147296000Y-113724000D02*
X147296000Y-113724000D01*
D19*
X176075001Y-131835000D02*
X98705000Y-131835000D01*
X98705000Y-127352033D01*
X103367572Y-127352033D01*
X103685757Y-127805850D01*
X104290210Y-128131269D01*
X104946535Y-128332512D01*
X105629510Y-128401845D01*
X106312888Y-128336605D01*
X106970407Y-128139298D01*
X107576799Y-127817506D01*
X107594243Y-127805850D01*
X107912428Y-127352033D01*
X166867572Y-127352033D01*
X167185757Y-127805850D01*
X167790210Y-128131269D01*
X168446535Y-128332512D01*
X169129510Y-128401845D01*
X169812888Y-128336605D01*
X170470407Y-128139298D01*
X171076799Y-127817506D01*
X171094243Y-127805850D01*
X171412428Y-127352033D01*
X169140000Y-125079605D01*
X166867572Y-127352033D01*
X107912428Y-127352033D01*
X105640000Y-125079605D01*
X103367572Y-127352033D01*
X98705000Y-127352033D01*
X98705000Y-124889510D01*
X102138155Y-124889510D01*
X102203395Y-125572888D01*
X102400702Y-126230407D01*
X102722494Y-126836799D01*
X102734150Y-126854243D01*
X103187967Y-127172428D01*
X105460395Y-124900000D01*
X105819605Y-124900000D01*
X108092033Y-127172428D01*
X108545850Y-126854243D01*
X108871269Y-126249790D01*
X109055665Y-125648408D01*
X115653000Y-125648408D01*
X115653000Y-125923592D01*
X115706686Y-126193490D01*
X115811995Y-126447727D01*
X115964880Y-126676535D01*
X116159465Y-126871120D01*
X116388273Y-127024005D01*
X116642510Y-127129314D01*
X116912408Y-127183000D01*
X117187592Y-127183000D01*
X117457490Y-127129314D01*
X117711727Y-127024005D01*
X117940535Y-126871120D01*
X118135120Y-126676535D01*
X118288005Y-126447727D01*
X118393314Y-126193490D01*
X118447000Y-125923592D01*
X118447000Y-125648408D01*
X118393314Y-125378510D01*
X118288005Y-125124273D01*
X118135120Y-124895465D01*
X117940535Y-124700880D01*
X117711727Y-124547995D01*
X117640057Y-124518308D01*
X117653023Y-124513636D01*
X117768980Y-124451656D01*
X117835960Y-124211565D01*
X117050000Y-123425605D01*
X116264040Y-124211565D01*
X116331020Y-124451656D01*
X116466760Y-124515485D01*
X116388273Y-124547995D01*
X116159465Y-124700880D01*
X115964880Y-124895465D01*
X115811995Y-125124273D01*
X115706686Y-125378510D01*
X115653000Y-125648408D01*
X109055665Y-125648408D01*
X109072512Y-125593465D01*
X109141845Y-124910490D01*
X109076605Y-124227112D01*
X109000052Y-123972000D01*
X112025928Y-123972000D01*
X112038188Y-124096482D01*
X112074498Y-124216180D01*
X112133463Y-124326494D01*
X112212815Y-124423185D01*
X112309506Y-124502537D01*
X112419820Y-124561502D01*
X112539518Y-124597812D01*
X112664000Y-124610072D01*
X113228250Y-124607000D01*
X113387000Y-124448250D01*
X113387000Y-123249000D01*
X113641000Y-123249000D01*
X113641000Y-124448250D01*
X113799750Y-124607000D01*
X114364000Y-124610072D01*
X114488482Y-124597812D01*
X114608180Y-124561502D01*
X114718494Y-124502537D01*
X114815185Y-124423185D01*
X114894537Y-124326494D01*
X114953502Y-124216180D01*
X114989812Y-124096482D01*
X115002072Y-123972000D01*
X114999000Y-123407750D01*
X114909267Y-123318017D01*
X115648090Y-123318017D01*
X115689078Y-123590133D01*
X115782364Y-123849023D01*
X115844344Y-123964980D01*
X116084435Y-124031960D01*
X116870395Y-123246000D01*
X117229605Y-123246000D01*
X118015565Y-124031960D01*
X118255656Y-123964980D01*
X118372756Y-123715952D01*
X118415915Y-123542000D01*
X132345928Y-123542000D01*
X132345928Y-125242000D01*
X132358188Y-125366482D01*
X132394498Y-125486180D01*
X132453463Y-125596494D01*
X132532815Y-125693185D01*
X132629506Y-125772537D01*
X132739820Y-125831502D01*
X132859518Y-125867812D01*
X132984000Y-125880072D01*
X134684000Y-125880072D01*
X134808482Y-125867812D01*
X134928180Y-125831502D01*
X135038494Y-125772537D01*
X135135185Y-125693185D01*
X135171932Y-125648408D01*
X141153000Y-125648408D01*
X141153000Y-125923592D01*
X141206686Y-126193490D01*
X141311995Y-126447727D01*
X141464880Y-126676535D01*
X141659465Y-126871120D01*
X141888273Y-127024005D01*
X142142510Y-127129314D01*
X142412408Y-127183000D01*
X142687592Y-127183000D01*
X142957490Y-127129314D01*
X143211727Y-127024005D01*
X143440535Y-126871120D01*
X143635120Y-126676535D01*
X143788005Y-126447727D01*
X143893314Y-126193490D01*
X143947000Y-125923592D01*
X143947000Y-125648408D01*
X143893314Y-125378510D01*
X143788005Y-125124273D01*
X143635120Y-124895465D01*
X143629165Y-124889510D01*
X165638155Y-124889510D01*
X165703395Y-125572888D01*
X165900702Y-126230407D01*
X166222494Y-126836799D01*
X166234150Y-126854243D01*
X166687967Y-127172428D01*
X168960395Y-124900000D01*
X169319605Y-124900000D01*
X171592033Y-127172428D01*
X172045850Y-126854243D01*
X172371269Y-126249790D01*
X172572512Y-125593465D01*
X172641845Y-124910490D01*
X172576605Y-124227112D01*
X172379298Y-123569593D01*
X172057506Y-122963201D01*
X172045850Y-122945757D01*
X171592033Y-122627572D01*
X169319605Y-124900000D01*
X168960395Y-124900000D01*
X166687967Y-122627572D01*
X166234150Y-122945757D01*
X165908731Y-123550210D01*
X165707488Y-124206535D01*
X165638155Y-124889510D01*
X143629165Y-124889510D01*
X143440535Y-124700880D01*
X143211727Y-124547995D01*
X143140057Y-124518308D01*
X143153023Y-124513636D01*
X143268980Y-124451656D01*
X143335960Y-124211565D01*
X142550000Y-123425605D01*
X141764040Y-124211565D01*
X141831020Y-124451656D01*
X141966760Y-124515485D01*
X141888273Y-124547995D01*
X141659465Y-124700880D01*
X141464880Y-124895465D01*
X141311995Y-125124273D01*
X141206686Y-125378510D01*
X141153000Y-125648408D01*
X135171932Y-125648408D01*
X135214537Y-125596494D01*
X135273502Y-125486180D01*
X135309812Y-125366482D01*
X135322072Y-125242000D01*
X135322072Y-123542000D01*
X135309812Y-123417518D01*
X135279629Y-123318017D01*
X141148090Y-123318017D01*
X141189078Y-123590133D01*
X141282364Y-123849023D01*
X141344344Y-123964980D01*
X141584435Y-124031960D01*
X142370395Y-123246000D01*
X142729605Y-123246000D01*
X143515565Y-124031960D01*
X143755656Y-123964980D01*
X143872756Y-123715952D01*
X143939023Y-123448865D01*
X143951910Y-123173983D01*
X143910922Y-122901867D01*
X143817636Y-122642977D01*
X143755656Y-122527020D01*
X143515565Y-122460040D01*
X142729605Y-123246000D01*
X142370395Y-123246000D01*
X141584435Y-122460040D01*
X141344344Y-122527020D01*
X141227244Y-122776048D01*
X141160977Y-123043135D01*
X141148090Y-123318017D01*
X135279629Y-123318017D01*
X135273502Y-123297820D01*
X135214537Y-123187506D01*
X135135185Y-123090815D01*
X135038494Y-123011463D01*
X134928180Y-122952498D01*
X134808482Y-122916188D01*
X134684000Y-122903928D01*
X132984000Y-122903928D01*
X132859518Y-122916188D01*
X132739820Y-122952498D01*
X132629506Y-123011463D01*
X132532815Y-123090815D01*
X132453463Y-123187506D01*
X132394498Y-123297820D01*
X132358188Y-123417518D01*
X132345928Y-123542000D01*
X118415915Y-123542000D01*
X118439023Y-123448865D01*
X118451910Y-123173983D01*
X118410922Y-122901867D01*
X118317636Y-122642977D01*
X118255656Y-122527020D01*
X118015565Y-122460040D01*
X117229605Y-123246000D01*
X116870395Y-123246000D01*
X116084435Y-122460040D01*
X115844344Y-122527020D01*
X115727244Y-122776048D01*
X115660977Y-123043135D01*
X115648090Y-123318017D01*
X114909267Y-123318017D01*
X114840250Y-123249000D01*
X113641000Y-123249000D01*
X113387000Y-123249000D01*
X112187750Y-123249000D01*
X112029000Y-123407750D01*
X112025928Y-123972000D01*
X109000052Y-123972000D01*
X108879298Y-123569593D01*
X108557506Y-122963201D01*
X108545850Y-122945757D01*
X108092033Y-122627572D01*
X105819605Y-124900000D01*
X105460395Y-124900000D01*
X103187967Y-122627572D01*
X102734150Y-122945757D01*
X102408731Y-123550210D01*
X102207488Y-124206535D01*
X102138155Y-124889510D01*
X98705000Y-124889510D01*
X98705000Y-122447967D01*
X103367572Y-122447967D01*
X105640000Y-124720395D01*
X107912428Y-122447967D01*
X107789053Y-122272000D01*
X112025928Y-122272000D01*
X112029000Y-122836250D01*
X112187750Y-122995000D01*
X113387000Y-122995000D01*
X113387000Y-121795750D01*
X113641000Y-121795750D01*
X113641000Y-122995000D01*
X114840250Y-122995000D01*
X114999000Y-122836250D01*
X115002072Y-122272000D01*
X114989812Y-122147518D01*
X114953502Y-122027820D01*
X114894537Y-121917506D01*
X114815185Y-121820815D01*
X114718494Y-121741463D01*
X114608180Y-121682498D01*
X114488482Y-121646188D01*
X114364000Y-121633928D01*
X113799750Y-121637000D01*
X113641000Y-121795750D01*
X113387000Y-121795750D01*
X113228250Y-121637000D01*
X112664000Y-121633928D01*
X112539518Y-121646188D01*
X112419820Y-121682498D01*
X112309506Y-121741463D01*
X112212815Y-121820815D01*
X112133463Y-121917506D01*
X112074498Y-122027820D01*
X112038188Y-122147518D01*
X112025928Y-122272000D01*
X107789053Y-122272000D01*
X107594243Y-121994150D01*
X106989790Y-121668731D01*
X106333465Y-121467488D01*
X105650490Y-121398155D01*
X104967112Y-121463395D01*
X104309593Y-121660702D01*
X103703201Y-121982494D01*
X103685757Y-121994150D01*
X103367572Y-122447967D01*
X98705000Y-122447967D01*
X98705000Y-90088408D01*
X115653000Y-90088408D01*
X115653000Y-90363592D01*
X115706686Y-90633490D01*
X115811995Y-90887727D01*
X115964880Y-91116535D01*
X116159465Y-91311120D01*
X116388273Y-91464005D01*
X116465515Y-91496000D01*
X116388273Y-91527995D01*
X116159465Y-91680880D01*
X115964880Y-91875465D01*
X115811995Y-92104273D01*
X115706686Y-92358510D01*
X115653000Y-92628408D01*
X115653000Y-92903592D01*
X115706686Y-93173490D01*
X115811995Y-93427727D01*
X115964880Y-93656535D01*
X116159465Y-93851120D01*
X116388273Y-94004005D01*
X116465515Y-94036000D01*
X116388273Y-94067995D01*
X116159465Y-94220880D01*
X115964880Y-94415465D01*
X115811995Y-94644273D01*
X115706686Y-94898510D01*
X115653000Y-95168408D01*
X115653000Y-95443592D01*
X115706686Y-95713490D01*
X115811995Y-95967727D01*
X115964880Y-96196535D01*
X116159465Y-96391120D01*
X116388273Y-96544005D01*
X116465515Y-96576000D01*
X116388273Y-96607995D01*
X116159465Y-96760880D01*
X115964880Y-96955465D01*
X115811995Y-97184273D01*
X115706686Y-97438510D01*
X115653000Y-97708408D01*
X115653000Y-97983592D01*
X115706686Y-98253490D01*
X115811995Y-98507727D01*
X115964880Y-98736535D01*
X116159465Y-98931120D01*
X116388273Y-99084005D01*
X116465515Y-99116000D01*
X116388273Y-99147995D01*
X116159465Y-99300880D01*
X115964880Y-99495465D01*
X115811995Y-99724273D01*
X115706686Y-99978510D01*
X115653000Y-100248408D01*
X115653000Y-100523592D01*
X115706686Y-100793490D01*
X115811995Y-101047727D01*
X115964880Y-101276535D01*
X116159465Y-101471120D01*
X116388273Y-101624005D01*
X116465515Y-101656000D01*
X116388273Y-101687995D01*
X116159465Y-101840880D01*
X115964880Y-102035465D01*
X115811995Y-102264273D01*
X115706686Y-102518510D01*
X115653000Y-102788408D01*
X115653000Y-103063592D01*
X115706686Y-103333490D01*
X115811995Y-103587727D01*
X115964880Y-103816535D01*
X116159465Y-104011120D01*
X116388273Y-104164005D01*
X116465515Y-104196000D01*
X116388273Y-104227995D01*
X116159465Y-104380880D01*
X115964880Y-104575465D01*
X115811995Y-104804273D01*
X115706686Y-105058510D01*
X115653000Y-105328408D01*
X115653000Y-105603592D01*
X115706686Y-105873490D01*
X115811995Y-106127727D01*
X115964880Y-106356535D01*
X116159465Y-106551120D01*
X116388273Y-106704005D01*
X116465515Y-106736000D01*
X116388273Y-106767995D01*
X116159465Y-106920880D01*
X115964880Y-107115465D01*
X115811995Y-107344273D01*
X115706686Y-107598510D01*
X115653000Y-107868408D01*
X115653000Y-108143592D01*
X115706686Y-108413490D01*
X115811995Y-108667727D01*
X115964880Y-108896535D01*
X116159465Y-109091120D01*
X116388273Y-109244005D01*
X116465515Y-109276000D01*
X116388273Y-109307995D01*
X116159465Y-109460880D01*
X115964880Y-109655465D01*
X115811995Y-109884273D01*
X115706686Y-110138510D01*
X115653000Y-110408408D01*
X115653000Y-110683592D01*
X115706686Y-110953490D01*
X115811995Y-111207727D01*
X115964880Y-111436535D01*
X116159465Y-111631120D01*
X116388273Y-111784005D01*
X116465515Y-111816000D01*
X116388273Y-111847995D01*
X116159465Y-112000880D01*
X115964880Y-112195465D01*
X115811995Y-112424273D01*
X115706686Y-112678510D01*
X115653000Y-112948408D01*
X115653000Y-113223592D01*
X115706686Y-113493490D01*
X115811995Y-113747727D01*
X115964880Y-113976535D01*
X116159465Y-114171120D01*
X116388273Y-114324005D01*
X116465515Y-114356000D01*
X116388273Y-114387995D01*
X116159465Y-114540880D01*
X115964880Y-114735465D01*
X115811995Y-114964273D01*
X115706686Y-115218510D01*
X115653000Y-115488408D01*
X115653000Y-115763592D01*
X115706686Y-116033490D01*
X115811995Y-116287727D01*
X115964880Y-116516535D01*
X116159465Y-116711120D01*
X116388273Y-116864005D01*
X116465515Y-116896000D01*
X116388273Y-116927995D01*
X116159465Y-117080880D01*
X115964880Y-117275465D01*
X115811995Y-117504273D01*
X115706686Y-117758510D01*
X115653000Y-118028408D01*
X115653000Y-118303592D01*
X115706686Y-118573490D01*
X115811995Y-118827727D01*
X115964880Y-119056535D01*
X116159465Y-119251120D01*
X116388273Y-119404005D01*
X116465515Y-119436000D01*
X116388273Y-119467995D01*
X116159465Y-119620880D01*
X115964880Y-119815465D01*
X115811995Y-120044273D01*
X115706686Y-120298510D01*
X115653000Y-120568408D01*
X115653000Y-120843592D01*
X115706686Y-121113490D01*
X115811995Y-121367727D01*
X115964880Y-121596535D01*
X116159465Y-121791120D01*
X116388273Y-121944005D01*
X116459943Y-121973692D01*
X116446977Y-121978364D01*
X116331020Y-122040344D01*
X116264040Y-122280435D01*
X117050000Y-123066395D01*
X117835960Y-122280435D01*
X117768980Y-122040344D01*
X117633240Y-121976515D01*
X117711727Y-121944005D01*
X117940535Y-121791120D01*
X118135120Y-121596535D01*
X118288005Y-121367727D01*
X118393314Y-121113490D01*
X118447000Y-120843592D01*
X118447000Y-120568408D01*
X118393314Y-120298510D01*
X118288005Y-120044273D01*
X118135120Y-119815465D01*
X117940535Y-119620880D01*
X117711727Y-119467995D01*
X117634485Y-119436000D01*
X117711727Y-119404005D01*
X117940535Y-119251120D01*
X118045655Y-119146000D01*
X127265928Y-119146000D01*
X127278188Y-119270482D01*
X127314498Y-119390180D01*
X127373463Y-119500494D01*
X127452815Y-119597185D01*
X127549506Y-119676537D01*
X127659820Y-119735502D01*
X127779518Y-119771812D01*
X127904000Y-119784072D01*
X128468250Y-119781000D01*
X128627000Y-119622250D01*
X128627000Y-118423000D01*
X128881000Y-118423000D01*
X128881000Y-119622250D01*
X129039750Y-119781000D01*
X129604000Y-119784072D01*
X129728482Y-119771812D01*
X129848180Y-119735502D01*
X129958494Y-119676537D01*
X130055185Y-119597185D01*
X130134537Y-119500494D01*
X130193502Y-119390180D01*
X130229812Y-119270482D01*
X130242072Y-119146000D01*
X130239000Y-118581750D01*
X130080250Y-118423000D01*
X128881000Y-118423000D01*
X128627000Y-118423000D01*
X127427750Y-118423000D01*
X127269000Y-118581750D01*
X127265928Y-119146000D01*
X118045655Y-119146000D01*
X118135120Y-119056535D01*
X118288005Y-118827727D01*
X118393314Y-118573490D01*
X118447000Y-118303592D01*
X118447000Y-118028408D01*
X118393314Y-117758510D01*
X118288005Y-117504273D01*
X118249069Y-117446000D01*
X127265928Y-117446000D01*
X127269000Y-118010250D01*
X127427750Y-118169000D01*
X128627000Y-118169000D01*
X128627000Y-116969750D01*
X128881000Y-116969750D01*
X128881000Y-118169000D01*
X130080250Y-118169000D01*
X130239000Y-118010250D01*
X130242072Y-117446000D01*
X130229812Y-117321518D01*
X130193502Y-117201820D01*
X130134537Y-117091506D01*
X130055185Y-116994815D01*
X129958494Y-116915463D01*
X129848180Y-116856498D01*
X129728482Y-116820188D01*
X129604000Y-116807928D01*
X129039750Y-116811000D01*
X128881000Y-116969750D01*
X128627000Y-116969750D01*
X128468250Y-116811000D01*
X127904000Y-116807928D01*
X127779518Y-116820188D01*
X127659820Y-116856498D01*
X127549506Y-116915463D01*
X127452815Y-116994815D01*
X127373463Y-117091506D01*
X127314498Y-117201820D01*
X127278188Y-117321518D01*
X127265928Y-117446000D01*
X118249069Y-117446000D01*
X118135120Y-117275465D01*
X117940535Y-117080880D01*
X117711727Y-116927995D01*
X117634485Y-116896000D01*
X117711727Y-116864005D01*
X117940535Y-116711120D01*
X118135120Y-116516535D01*
X118288005Y-116287727D01*
X118393314Y-116033490D01*
X118447000Y-115763592D01*
X118447000Y-115488408D01*
X118393314Y-115218510D01*
X118288005Y-114964273D01*
X118135120Y-114735465D01*
X117940535Y-114540880D01*
X117711727Y-114387995D01*
X117634485Y-114356000D01*
X117711727Y-114324005D01*
X117940535Y-114171120D01*
X118135120Y-113976535D01*
X118288005Y-113747727D01*
X118393314Y-113493490D01*
X118447000Y-113223592D01*
X118447000Y-112948408D01*
X118393314Y-112678510D01*
X118288005Y-112424273D01*
X118135120Y-112195465D01*
X117940535Y-112000880D01*
X117711727Y-111847995D01*
X117634485Y-111816000D01*
X117711727Y-111784005D01*
X117940535Y-111631120D01*
X118135120Y-111436535D01*
X118288005Y-111207727D01*
X118393314Y-110953490D01*
X118447000Y-110683592D01*
X118447000Y-110408408D01*
X118393314Y-110138510D01*
X118288005Y-109884273D01*
X118135120Y-109655465D01*
X117940535Y-109460880D01*
X117711727Y-109307995D01*
X117634485Y-109276000D01*
X117711727Y-109244005D01*
X117940535Y-109091120D01*
X118135120Y-108896535D01*
X118288005Y-108667727D01*
X118393314Y-108413490D01*
X118447000Y-108143592D01*
X118447000Y-107868408D01*
X118393314Y-107598510D01*
X118288005Y-107344273D01*
X118135120Y-107115465D01*
X117940535Y-106920880D01*
X117711727Y-106767995D01*
X117634485Y-106736000D01*
X117711727Y-106704005D01*
X117940535Y-106551120D01*
X118135120Y-106356535D01*
X118288005Y-106127727D01*
X118393314Y-105873490D01*
X118447000Y-105603592D01*
X118447000Y-105328408D01*
X118393314Y-105058510D01*
X118288005Y-104804273D01*
X118135120Y-104575465D01*
X117940535Y-104380880D01*
X117711727Y-104227995D01*
X117634485Y-104196000D01*
X117711727Y-104164005D01*
X117940535Y-104011120D01*
X118135120Y-103816535D01*
X118288005Y-103587727D01*
X118393314Y-103333490D01*
X118447000Y-103063592D01*
X118447000Y-102788408D01*
X118393314Y-102518510D01*
X118288005Y-102264273D01*
X118135120Y-102035465D01*
X117940535Y-101840880D01*
X117711727Y-101687995D01*
X117634485Y-101656000D01*
X117711727Y-101624005D01*
X117940535Y-101471120D01*
X118135120Y-101276535D01*
X118288005Y-101047727D01*
X118393314Y-100793490D01*
X118447000Y-100523592D01*
X118447000Y-100248408D01*
X118393314Y-99978510D01*
X118288005Y-99724273D01*
X118135120Y-99495465D01*
X117940535Y-99300880D01*
X117711727Y-99147995D01*
X117634485Y-99116000D01*
X117711727Y-99084005D01*
X117940535Y-98931120D01*
X118135120Y-98736535D01*
X118288005Y-98507727D01*
X118393314Y-98253490D01*
X118447000Y-97983592D01*
X118447000Y-97708408D01*
X118393314Y-97438510D01*
X118288005Y-97184273D01*
X118135120Y-96955465D01*
X117940535Y-96760880D01*
X117711727Y-96607995D01*
X117634485Y-96576000D01*
X117711727Y-96544005D01*
X117940535Y-96391120D01*
X118135120Y-96196535D01*
X118288005Y-95967727D01*
X118393314Y-95713490D01*
X118447000Y-95443592D01*
X118447000Y-95168408D01*
X118393314Y-94898510D01*
X118288005Y-94644273D01*
X118135120Y-94415465D01*
X117940535Y-94220880D01*
X117711727Y-94067995D01*
X117634485Y-94036000D01*
X117711727Y-94004005D01*
X117940535Y-93851120D01*
X118135120Y-93656535D01*
X118288005Y-93427727D01*
X118393314Y-93173490D01*
X118447000Y-92903592D01*
X118447000Y-92628408D01*
X118393314Y-92358510D01*
X118288005Y-92104273D01*
X118135120Y-91875465D01*
X117940535Y-91680880D01*
X117711727Y-91527995D01*
X117634485Y-91496000D01*
X117711727Y-91464005D01*
X117940535Y-91311120D01*
X118135120Y-91116535D01*
X118288005Y-90887727D01*
X118393314Y-90633490D01*
X118447000Y-90363592D01*
X118447000Y-90088408D01*
X141153000Y-90088408D01*
X141153000Y-90363592D01*
X141206686Y-90633490D01*
X141311995Y-90887727D01*
X141464880Y-91116535D01*
X141659465Y-91311120D01*
X141888273Y-91464005D01*
X141965515Y-91496000D01*
X141888273Y-91527995D01*
X141659465Y-91680880D01*
X141464880Y-91875465D01*
X141311995Y-92104273D01*
X141206686Y-92358510D01*
X141153000Y-92628408D01*
X141153000Y-92903592D01*
X141206686Y-93173490D01*
X141311995Y-93427727D01*
X141464880Y-93656535D01*
X141659465Y-93851120D01*
X141888273Y-94004005D01*
X141965515Y-94036000D01*
X141888273Y-94067995D01*
X141659465Y-94220880D01*
X141464880Y-94415465D01*
X141311995Y-94644273D01*
X141206686Y-94898510D01*
X141153000Y-95168408D01*
X141153000Y-95443592D01*
X141206686Y-95713490D01*
X141311995Y-95967727D01*
X141464880Y-96196535D01*
X141659465Y-96391120D01*
X141888273Y-96544005D01*
X141965515Y-96576000D01*
X141888273Y-96607995D01*
X141659465Y-96760880D01*
X141464880Y-96955465D01*
X141311995Y-97184273D01*
X141206686Y-97438510D01*
X141153000Y-97708408D01*
X141153000Y-97983592D01*
X141206686Y-98253490D01*
X141311995Y-98507727D01*
X141464880Y-98736535D01*
X141659465Y-98931120D01*
X141888273Y-99084005D01*
X141965515Y-99116000D01*
X141888273Y-99147995D01*
X141659465Y-99300880D01*
X141464880Y-99495465D01*
X141311995Y-99724273D01*
X141206686Y-99978510D01*
X141153000Y-100248408D01*
X141153000Y-100523592D01*
X141206686Y-100793490D01*
X141311995Y-101047727D01*
X141464880Y-101276535D01*
X141659465Y-101471120D01*
X141888273Y-101624005D01*
X141965515Y-101656000D01*
X141888273Y-101687995D01*
X141659465Y-101840880D01*
X141464880Y-102035465D01*
X141311995Y-102264273D01*
X141206686Y-102518510D01*
X141153000Y-102788408D01*
X141153000Y-103063592D01*
X141206686Y-103333490D01*
X141311995Y-103587727D01*
X141464880Y-103816535D01*
X141659465Y-104011120D01*
X141888273Y-104164005D01*
X141965515Y-104196000D01*
X141888273Y-104227995D01*
X141659465Y-104380880D01*
X141464880Y-104575465D01*
X141311995Y-104804273D01*
X141206686Y-105058510D01*
X141153000Y-105328408D01*
X141153000Y-105603592D01*
X141206686Y-105873490D01*
X141311995Y-106127727D01*
X141464880Y-106356535D01*
X141659465Y-106551120D01*
X141888273Y-106704005D01*
X141965515Y-106736000D01*
X141888273Y-106767995D01*
X141659465Y-106920880D01*
X141464880Y-107115465D01*
X141311995Y-107344273D01*
X141206686Y-107598510D01*
X141153000Y-107868408D01*
X141153000Y-108143592D01*
X141206686Y-108413490D01*
X141311995Y-108667727D01*
X141464880Y-108896535D01*
X141659465Y-109091120D01*
X141888273Y-109244005D01*
X141965515Y-109276000D01*
X141888273Y-109307995D01*
X141659465Y-109460880D01*
X141464880Y-109655465D01*
X141311995Y-109884273D01*
X141206686Y-110138510D01*
X141153000Y-110408408D01*
X141153000Y-110683592D01*
X141206686Y-110953490D01*
X141311995Y-111207727D01*
X141464880Y-111436535D01*
X141659465Y-111631120D01*
X141888273Y-111784005D01*
X141965515Y-111816000D01*
X141888273Y-111847995D01*
X141659465Y-112000880D01*
X141464880Y-112195465D01*
X141311995Y-112424273D01*
X141206686Y-112678510D01*
X141153000Y-112948408D01*
X141153000Y-113223592D01*
X141206686Y-113493490D01*
X141311995Y-113747727D01*
X141464880Y-113976535D01*
X141659465Y-114171120D01*
X141888273Y-114324005D01*
X141965515Y-114356000D01*
X141888273Y-114387995D01*
X141659465Y-114540880D01*
X141464880Y-114735465D01*
X141311995Y-114964273D01*
X141206686Y-115218510D01*
X141153000Y-115488408D01*
X141153000Y-115763592D01*
X141206686Y-116033490D01*
X141311995Y-116287727D01*
X141464880Y-116516535D01*
X141659465Y-116711120D01*
X141888273Y-116864005D01*
X141965515Y-116896000D01*
X141888273Y-116927995D01*
X141659465Y-117080880D01*
X141464880Y-117275465D01*
X141311995Y-117504273D01*
X141206686Y-117758510D01*
X141153000Y-118028408D01*
X141153000Y-118303592D01*
X141206686Y-118573490D01*
X141311995Y-118827727D01*
X141464880Y-119056535D01*
X141659465Y-119251120D01*
X141888273Y-119404005D01*
X141965515Y-119436000D01*
X141888273Y-119467995D01*
X141659465Y-119620880D01*
X141464880Y-119815465D01*
X141311995Y-120044273D01*
X141206686Y-120298510D01*
X141153000Y-120568408D01*
X141153000Y-120843592D01*
X141206686Y-121113490D01*
X141311995Y-121367727D01*
X141464880Y-121596535D01*
X141659465Y-121791120D01*
X141888273Y-121944005D01*
X141959943Y-121973692D01*
X141946977Y-121978364D01*
X141831020Y-122040344D01*
X141764040Y-122280435D01*
X142550000Y-123066395D01*
X143168428Y-122447967D01*
X166867572Y-122447967D01*
X169140000Y-124720395D01*
X171412428Y-122447967D01*
X171094243Y-121994150D01*
X170489790Y-121668731D01*
X169833465Y-121467488D01*
X169150490Y-121398155D01*
X168467112Y-121463395D01*
X167809593Y-121660702D01*
X167203201Y-121982494D01*
X167185757Y-121994150D01*
X166867572Y-122447967D01*
X143168428Y-122447967D01*
X143335960Y-122280435D01*
X143268980Y-122040344D01*
X143133240Y-121976515D01*
X143211727Y-121944005D01*
X143440535Y-121791120D01*
X143635120Y-121596535D01*
X143788005Y-121367727D01*
X143893314Y-121113490D01*
X143947000Y-120843592D01*
X143947000Y-120568408D01*
X143893314Y-120298510D01*
X143788005Y-120044273D01*
X143635120Y-119815465D01*
X143440535Y-119620880D01*
X143211727Y-119467995D01*
X143134485Y-119436000D01*
X143211727Y-119404005D01*
X143440535Y-119251120D01*
X143635120Y-119056535D01*
X143788005Y-118827727D01*
X143893314Y-118573490D01*
X143947000Y-118303592D01*
X143947000Y-118028408D01*
X143893314Y-117758510D01*
X143788005Y-117504273D01*
X143635120Y-117275465D01*
X143440535Y-117080880D01*
X143211727Y-116927995D01*
X143134485Y-116896000D01*
X143211727Y-116864005D01*
X143440535Y-116711120D01*
X143635120Y-116516535D01*
X143788005Y-116287727D01*
X143893314Y-116033490D01*
X143947000Y-115763592D01*
X143947000Y-115488408D01*
X143893314Y-115218510D01*
X143788005Y-114964273D01*
X143635120Y-114735465D01*
X143440535Y-114540880D01*
X143300032Y-114446998D01*
X145552087Y-114446998D01*
X145557003Y-114496909D01*
X145557002Y-117583901D01*
X145571704Y-117733170D01*
X145629800Y-117924686D01*
X145724142Y-118101190D01*
X145851106Y-118255896D01*
X146005812Y-118382860D01*
X146182315Y-118477202D01*
X146373831Y-118535298D01*
X146573002Y-118554915D01*
X146772172Y-118535298D01*
X146963688Y-118477202D01*
X147140192Y-118382860D01*
X147294898Y-118255896D01*
X147421862Y-118101190D01*
X147516204Y-117924687D01*
X147574300Y-117733171D01*
X147589002Y-117583902D01*
X147589002Y-114867838D01*
X147979133Y-114477708D01*
X148017896Y-114445896D01*
X148144860Y-114291190D01*
X148239202Y-114114687D01*
X148297298Y-113923171D01*
X148316915Y-113724000D01*
X148297298Y-113524829D01*
X148239202Y-113333313D01*
X148144860Y-113156810D01*
X148017896Y-113002104D01*
X147863190Y-112875140D01*
X147686687Y-112780798D01*
X147495171Y-112722702D01*
X147345902Y-112708000D01*
X147296000Y-112703085D01*
X147246098Y-112708000D01*
X147096829Y-112722702D01*
X146905313Y-112780798D01*
X146728810Y-112875140D01*
X146574104Y-113002104D01*
X146542292Y-113040867D01*
X145889869Y-113693290D01*
X145851107Y-113725102D01*
X145724143Y-113879808D01*
X145672442Y-113976535D01*
X145629801Y-114056311D01*
X145571704Y-114247828D01*
X145552087Y-114446998D01*
X143300032Y-114446998D01*
X143211727Y-114387995D01*
X143134485Y-114356000D01*
X143211727Y-114324005D01*
X143440535Y-114171120D01*
X143635120Y-113976535D01*
X143788005Y-113747727D01*
X143893314Y-113493490D01*
X143947000Y-113223592D01*
X143947000Y-112948408D01*
X143893314Y-112678510D01*
X143788005Y-112424273D01*
X143635120Y-112195465D01*
X143440535Y-112000880D01*
X143211727Y-111847995D01*
X143134485Y-111816000D01*
X143211727Y-111784005D01*
X143440535Y-111631120D01*
X143635120Y-111436535D01*
X143788005Y-111207727D01*
X143893314Y-110953490D01*
X143947000Y-110683592D01*
X143947000Y-110408408D01*
X143893314Y-110138510D01*
X143788005Y-109884273D01*
X143635120Y-109655465D01*
X143440535Y-109460880D01*
X143211727Y-109307995D01*
X143134485Y-109276000D01*
X143211727Y-109244005D01*
X143440535Y-109091120D01*
X143635120Y-108896535D01*
X143788005Y-108667727D01*
X143893314Y-108413490D01*
X143947000Y-108143592D01*
X143947000Y-107868408D01*
X143893314Y-107598510D01*
X143788005Y-107344273D01*
X143635120Y-107115465D01*
X143440535Y-106920880D01*
X143211727Y-106767995D01*
X143134485Y-106736000D01*
X143211727Y-106704005D01*
X143440535Y-106551120D01*
X143635120Y-106356535D01*
X143788005Y-106127727D01*
X143893314Y-105873490D01*
X143947000Y-105603592D01*
X143947000Y-105328408D01*
X143893314Y-105058510D01*
X143788005Y-104804273D01*
X143635120Y-104575465D01*
X143440535Y-104380880D01*
X143211727Y-104227995D01*
X143134485Y-104196000D01*
X143211727Y-104164005D01*
X143440535Y-104011120D01*
X143635120Y-103816535D01*
X143788005Y-103587727D01*
X143893314Y-103333490D01*
X143947000Y-103063592D01*
X143947000Y-102788408D01*
X143893314Y-102518510D01*
X143788005Y-102264273D01*
X143635120Y-102035465D01*
X143440535Y-101840880D01*
X143211727Y-101687995D01*
X143134485Y-101656000D01*
X143211727Y-101624005D01*
X143440535Y-101471120D01*
X143635120Y-101276535D01*
X143788005Y-101047727D01*
X143893314Y-100793490D01*
X143947000Y-100523592D01*
X143947000Y-100248408D01*
X143893314Y-99978510D01*
X143788005Y-99724273D01*
X143635120Y-99495465D01*
X143440535Y-99300880D01*
X143211727Y-99147995D01*
X143134485Y-99116000D01*
X143211727Y-99084005D01*
X143440535Y-98931120D01*
X143635120Y-98736535D01*
X143788005Y-98507727D01*
X143893314Y-98253490D01*
X143947000Y-97983592D01*
X143947000Y-97708408D01*
X143893314Y-97438510D01*
X143788005Y-97184273D01*
X143635120Y-96955465D01*
X143440535Y-96760880D01*
X143211727Y-96607995D01*
X143134485Y-96576000D01*
X143211727Y-96544005D01*
X143440535Y-96391120D01*
X143635120Y-96196535D01*
X143788005Y-95967727D01*
X143893314Y-95713490D01*
X143947000Y-95443592D01*
X143947000Y-95168408D01*
X143893314Y-94898510D01*
X143788005Y-94644273D01*
X143635120Y-94415465D01*
X143440535Y-94220880D01*
X143211727Y-94067995D01*
X143134485Y-94036000D01*
X143211727Y-94004005D01*
X143440535Y-93851120D01*
X143635120Y-93656535D01*
X143788005Y-93427727D01*
X143893314Y-93173490D01*
X143947000Y-92903592D01*
X143947000Y-92628408D01*
X143893314Y-92358510D01*
X143788005Y-92104273D01*
X143635120Y-91875465D01*
X143440535Y-91680880D01*
X143211727Y-91527995D01*
X143134485Y-91496000D01*
X143211727Y-91464005D01*
X143440535Y-91311120D01*
X143635120Y-91116535D01*
X143788005Y-90887727D01*
X143893314Y-90633490D01*
X143947000Y-90363592D01*
X143947000Y-90088408D01*
X143893314Y-89818510D01*
X143788005Y-89564273D01*
X143635120Y-89335465D01*
X143440535Y-89140880D01*
X143211727Y-88987995D01*
X142957490Y-88882686D01*
X142687592Y-88829000D01*
X142412408Y-88829000D01*
X142142510Y-88882686D01*
X141888273Y-88987995D01*
X141659465Y-89140880D01*
X141464880Y-89335465D01*
X141311995Y-89564273D01*
X141206686Y-89818510D01*
X141153000Y-90088408D01*
X118447000Y-90088408D01*
X118393314Y-89818510D01*
X118288005Y-89564273D01*
X118135120Y-89335465D01*
X117940535Y-89140880D01*
X117711727Y-88987995D01*
X117457490Y-88882686D01*
X117187592Y-88829000D01*
X116912408Y-88829000D01*
X116642510Y-88882686D01*
X116388273Y-88987995D01*
X116159465Y-89140880D01*
X115964880Y-89335465D01*
X115811995Y-89564273D01*
X115706686Y-89818510D01*
X115653000Y-90088408D01*
X98705000Y-90088408D01*
X98705000Y-80638993D01*
X129756612Y-80638993D01*
X129822137Y-80877860D01*
X130069116Y-80993760D01*
X130333960Y-81059250D01*
X130606492Y-81071812D01*
X130876238Y-81030965D01*
X131132832Y-80938277D01*
X131245863Y-80877860D01*
X131311388Y-80638993D01*
X130534000Y-79861605D01*
X129756612Y-80638993D01*
X98705000Y-80638993D01*
X98705000Y-79754492D01*
X129144188Y-79754492D01*
X129185035Y-80024238D01*
X129277723Y-80280832D01*
X129338140Y-80393863D01*
X129577007Y-80459388D01*
X130354395Y-79682000D01*
X130713605Y-79682000D01*
X131490993Y-80459388D01*
X131648787Y-80416103D01*
X131748201Y-80564886D01*
X131941114Y-80757799D01*
X132167957Y-80909371D01*
X132420011Y-81013775D01*
X132687589Y-81067000D01*
X132960411Y-81067000D01*
X133227989Y-81013775D01*
X133480043Y-80909371D01*
X133706886Y-80757799D01*
X133899799Y-80564886D01*
X134051371Y-80338043D01*
X134155775Y-80085989D01*
X134209000Y-79818411D01*
X134209000Y-79545589D01*
X140579000Y-79545589D01*
X140579000Y-79818411D01*
X140632225Y-80085989D01*
X140736629Y-80338043D01*
X140888201Y-80564886D01*
X141081114Y-80757799D01*
X141307957Y-80909371D01*
X141560011Y-81013775D01*
X141827589Y-81067000D01*
X142100411Y-81067000D01*
X142367989Y-81013775D01*
X142620043Y-80909371D01*
X142846886Y-80757799D01*
X143039799Y-80564886D01*
X143109000Y-80461320D01*
X143178201Y-80564886D01*
X143371114Y-80757799D01*
X143597957Y-80909371D01*
X143850011Y-81013775D01*
X144117589Y-81067000D01*
X144390411Y-81067000D01*
X144657989Y-81013775D01*
X144910043Y-80909371D01*
X145136886Y-80757799D01*
X145329799Y-80564886D01*
X145481371Y-80338043D01*
X145585775Y-80085989D01*
X145639000Y-79818411D01*
X145639000Y-79545589D01*
X145585775Y-79278011D01*
X145481371Y-79025957D01*
X145329799Y-78799114D01*
X145136886Y-78606201D01*
X144910043Y-78454629D01*
X144657989Y-78350225D01*
X144390411Y-78297000D01*
X144117589Y-78297000D01*
X143850011Y-78350225D01*
X143597957Y-78454629D01*
X143371114Y-78606201D01*
X143178201Y-78799114D01*
X143109000Y-78902680D01*
X143039799Y-78799114D01*
X142846886Y-78606201D01*
X142620043Y-78454629D01*
X142367989Y-78350225D01*
X142100411Y-78297000D01*
X141827589Y-78297000D01*
X141560011Y-78350225D01*
X141307957Y-78454629D01*
X141081114Y-78606201D01*
X140888201Y-78799114D01*
X140736629Y-79025957D01*
X140632225Y-79278011D01*
X140579000Y-79545589D01*
X134209000Y-79545589D01*
X134155775Y-79278011D01*
X134051371Y-79025957D01*
X133899799Y-78799114D01*
X133706886Y-78606201D01*
X133480043Y-78454629D01*
X133227989Y-78350225D01*
X132960411Y-78297000D01*
X132687589Y-78297000D01*
X132420011Y-78350225D01*
X132167957Y-78454629D01*
X131941114Y-78606201D01*
X131748201Y-78799114D01*
X131648787Y-78947897D01*
X131490993Y-78904612D01*
X130713605Y-79682000D01*
X130354395Y-79682000D01*
X129577007Y-78904612D01*
X129338140Y-78970137D01*
X129222240Y-79217116D01*
X129156750Y-79481960D01*
X129144188Y-79754492D01*
X98705000Y-79754492D01*
X98705000Y-78725007D01*
X129756612Y-78725007D01*
X130534000Y-79502395D01*
X131311388Y-78725007D01*
X131245863Y-78486140D01*
X130998884Y-78370240D01*
X130734040Y-78304750D01*
X130461508Y-78292188D01*
X130191762Y-78333035D01*
X129935168Y-78425723D01*
X129822137Y-78486140D01*
X129756612Y-78725007D01*
X98705000Y-78725007D01*
X98705000Y-76552033D01*
X103367572Y-76552033D01*
X103685757Y-77005850D01*
X104290210Y-77331269D01*
X104946535Y-77532512D01*
X105629510Y-77601845D01*
X106312888Y-77536605D01*
X106970407Y-77339298D01*
X107576799Y-77017506D01*
X107594243Y-77005850D01*
X107912428Y-76552033D01*
X166867572Y-76552033D01*
X167185757Y-77005850D01*
X167790210Y-77331269D01*
X168446535Y-77532512D01*
X169129510Y-77601845D01*
X169812888Y-77536605D01*
X170470407Y-77339298D01*
X171076799Y-77017506D01*
X171094243Y-77005850D01*
X171412428Y-76552033D01*
X169140000Y-74279605D01*
X166867572Y-76552033D01*
X107912428Y-76552033D01*
X105640000Y-74279605D01*
X103367572Y-76552033D01*
X98705000Y-76552033D01*
X98705000Y-74089510D01*
X102138155Y-74089510D01*
X102203395Y-74772888D01*
X102400702Y-75430407D01*
X102722494Y-76036799D01*
X102734150Y-76054243D01*
X103187967Y-76372428D01*
X105460395Y-74100000D01*
X105819605Y-74100000D01*
X108092033Y-76372428D01*
X108545850Y-76054243D01*
X108871269Y-75449790D01*
X108943460Y-75214349D01*
X128201256Y-75214349D01*
X128315118Y-75494090D01*
X128630296Y-75649961D01*
X128969826Y-75741349D01*
X129320661Y-75764741D01*
X129669319Y-75719240D01*
X130002400Y-75606594D01*
X130212882Y-75494090D01*
X130326744Y-75214349D01*
X129264000Y-74151605D01*
X128201256Y-75214349D01*
X108943460Y-75214349D01*
X109072512Y-74793465D01*
X109141845Y-74110490D01*
X109134034Y-74028661D01*
X127471259Y-74028661D01*
X127516760Y-74377319D01*
X127629406Y-74710400D01*
X127741910Y-74920882D01*
X128021651Y-75034744D01*
X129084395Y-73972000D01*
X128021651Y-72909256D01*
X127741910Y-73023118D01*
X127586039Y-73338296D01*
X127494651Y-73677826D01*
X127471259Y-74028661D01*
X109134034Y-74028661D01*
X109076605Y-73427112D01*
X108879298Y-72769593D01*
X108858103Y-72729651D01*
X128201256Y-72729651D01*
X129264000Y-73792395D01*
X129278143Y-73778253D01*
X129457748Y-73957858D01*
X129443605Y-73972000D01*
X130506349Y-75034744D01*
X130786090Y-74920882D01*
X130941961Y-74605704D01*
X131033349Y-74266174D01*
X131056741Y-73915339D01*
X131011240Y-73566681D01*
X130898594Y-73233600D01*
X130786090Y-73023118D01*
X130506351Y-72909257D01*
X130621662Y-72793946D01*
X130582118Y-72754402D01*
X130821409Y-72802000D01*
X131266591Y-72802000D01*
X131703218Y-72715149D01*
X132114511Y-72544786D01*
X132446841Y-72322730D01*
X132445928Y-72332000D01*
X132445928Y-73832000D01*
X132458188Y-73956482D01*
X132494498Y-74076180D01*
X132553463Y-74186494D01*
X132632815Y-74283185D01*
X132729506Y-74362537D01*
X132839820Y-74421502D01*
X132959518Y-74457812D01*
X133084000Y-74470072D01*
X133515826Y-74470072D01*
X133465000Y-74725589D01*
X133465000Y-74998411D01*
X133518225Y-75265989D01*
X133622629Y-75518043D01*
X133774201Y-75744886D01*
X133967114Y-75937799D01*
X134193957Y-76089371D01*
X134446011Y-76193775D01*
X134713589Y-76247000D01*
X134986411Y-76247000D01*
X135253989Y-76193775D01*
X135506043Y-76089371D01*
X135732886Y-75937799D01*
X135866000Y-75804685D01*
X135999114Y-75937799D01*
X136225957Y-76089371D01*
X136478011Y-76193775D01*
X136745589Y-76247000D01*
X137018411Y-76247000D01*
X137285989Y-76193775D01*
X137538043Y-76089371D01*
X137764886Y-75937799D01*
X137898000Y-75804685D01*
X138031114Y-75937799D01*
X138257957Y-76089371D01*
X138510011Y-76193775D01*
X138777589Y-76247000D01*
X139050411Y-76247000D01*
X139317989Y-76193775D01*
X139570043Y-76089371D01*
X139796886Y-75937799D01*
X139915692Y-75818993D01*
X140168612Y-75818993D01*
X140234137Y-76057860D01*
X140481116Y-76173760D01*
X140745960Y-76239250D01*
X141018492Y-76251812D01*
X141288238Y-76210965D01*
X141544832Y-76118277D01*
X141657863Y-76057860D01*
X141723388Y-75818993D01*
X140946000Y-75041605D01*
X140168612Y-75818993D01*
X139915692Y-75818993D01*
X139989799Y-75744886D01*
X140141371Y-75518043D01*
X140163305Y-75465090D01*
X140766395Y-74862000D01*
X141125605Y-74862000D01*
X141902993Y-75639388D01*
X142141860Y-75573863D01*
X142257760Y-75326884D01*
X142285587Y-75214349D01*
X144461256Y-75214349D01*
X144575118Y-75494090D01*
X144890296Y-75649961D01*
X145229826Y-75741349D01*
X145580661Y-75764741D01*
X145929319Y-75719240D01*
X146262400Y-75606594D01*
X146472882Y-75494090D01*
X146586744Y-75214349D01*
X145524000Y-74151605D01*
X144461256Y-75214349D01*
X142285587Y-75214349D01*
X142323250Y-75062040D01*
X142335812Y-74789508D01*
X142294965Y-74519762D01*
X142202277Y-74263168D01*
X142141860Y-74150137D01*
X141902993Y-74084612D01*
X141125605Y-74862000D01*
X140766395Y-74862000D01*
X140752253Y-74847858D01*
X140931858Y-74668253D01*
X140946000Y-74682395D01*
X141723388Y-73905007D01*
X141657863Y-73666140D01*
X141410884Y-73550240D01*
X141251488Y-73510825D01*
X141261775Y-73485989D01*
X141315000Y-73218411D01*
X141315000Y-72945589D01*
X141261775Y-72678011D01*
X141157371Y-72425957D01*
X141005799Y-72199114D01*
X140812886Y-72006201D01*
X140586043Y-71854629D01*
X140333989Y-71750225D01*
X140066411Y-71697000D01*
X139793589Y-71697000D01*
X139526011Y-71750225D01*
X139273957Y-71854629D01*
X139047114Y-72006201D01*
X138914000Y-72139315D01*
X138780886Y-72006201D01*
X138554043Y-71854629D01*
X138301989Y-71750225D01*
X138034411Y-71697000D01*
X137761589Y-71697000D01*
X137494011Y-71750225D01*
X137241957Y-71854629D01*
X137015114Y-72006201D01*
X136882000Y-72139315D01*
X136748886Y-72006201D01*
X136522043Y-71854629D01*
X136269989Y-71750225D01*
X136002411Y-71697000D01*
X135729589Y-71697000D01*
X135462011Y-71750225D01*
X135209957Y-71854629D01*
X135083202Y-71939324D01*
X135035185Y-71880815D01*
X134938494Y-71801463D01*
X134828180Y-71742498D01*
X134708482Y-71706188D01*
X134584000Y-71693928D01*
X133084000Y-71693928D01*
X132985931Y-71703587D01*
X133046786Y-71612511D01*
X133217149Y-71201218D01*
X133304000Y-70764591D01*
X133304000Y-70319409D01*
X141484000Y-70319409D01*
X141484000Y-70764591D01*
X141570851Y-71201218D01*
X141741214Y-71612511D01*
X141988544Y-71982666D01*
X142303334Y-72297456D01*
X142673489Y-72544786D01*
X143084782Y-72715149D01*
X143521409Y-72802000D01*
X143966591Y-72802000D01*
X144205882Y-72754402D01*
X144166338Y-72793946D01*
X144281649Y-72909257D01*
X144001910Y-73023118D01*
X143846039Y-73338296D01*
X143754651Y-73677826D01*
X143731259Y-74028661D01*
X143776760Y-74377319D01*
X143889406Y-74710400D01*
X144001910Y-74920882D01*
X144281651Y-75034744D01*
X145344395Y-73972000D01*
X145703605Y-73972000D01*
X146766349Y-75034744D01*
X147046090Y-74920882D01*
X147201961Y-74605704D01*
X147293349Y-74266174D01*
X147305128Y-74089510D01*
X165638155Y-74089510D01*
X165703395Y-74772888D01*
X165900702Y-75430407D01*
X166222494Y-76036799D01*
X166234150Y-76054243D01*
X166687967Y-76372428D01*
X168960395Y-74100000D01*
X169319605Y-74100000D01*
X171592033Y-76372428D01*
X172045850Y-76054243D01*
X172371269Y-75449790D01*
X172572512Y-74793465D01*
X172641845Y-74110490D01*
X172576605Y-73427112D01*
X172379298Y-72769593D01*
X172057506Y-72163201D01*
X172045850Y-72145757D01*
X171592033Y-71827572D01*
X169319605Y-74100000D01*
X168960395Y-74100000D01*
X166687967Y-71827572D01*
X166234150Y-72145757D01*
X165908731Y-72750210D01*
X165707488Y-73406535D01*
X165638155Y-74089510D01*
X147305128Y-74089510D01*
X147316741Y-73915339D01*
X147271240Y-73566681D01*
X147158594Y-73233600D01*
X147046090Y-73023118D01*
X146766349Y-72909256D01*
X145703605Y-73972000D01*
X145344395Y-73972000D01*
X145330253Y-73957858D01*
X145509858Y-73778253D01*
X145524000Y-73792395D01*
X146586744Y-72729651D01*
X146472882Y-72449910D01*
X146157704Y-72294039D01*
X145818174Y-72202651D01*
X145467339Y-72179259D01*
X145278177Y-72203945D01*
X145499456Y-71982666D01*
X145723095Y-71647967D01*
X166867572Y-71647967D01*
X169140000Y-73920395D01*
X171412428Y-71647967D01*
X171094243Y-71194150D01*
X170489790Y-70868731D01*
X169833465Y-70667488D01*
X169150490Y-70598155D01*
X168467112Y-70663395D01*
X167809593Y-70860702D01*
X167203201Y-71182494D01*
X167185757Y-71194150D01*
X166867572Y-71647967D01*
X145723095Y-71647967D01*
X145746786Y-71612511D01*
X145917149Y-71201218D01*
X146004000Y-70764591D01*
X146004000Y-70319409D01*
X145917149Y-69882782D01*
X145746786Y-69471489D01*
X145499456Y-69101334D01*
X145184666Y-68786544D01*
X144814511Y-68539214D01*
X144403218Y-68368851D01*
X143966591Y-68282000D01*
X143521409Y-68282000D01*
X143084782Y-68368851D01*
X142673489Y-68539214D01*
X142303334Y-68786544D01*
X141988544Y-69101334D01*
X141741214Y-69471489D01*
X141570851Y-69882782D01*
X141484000Y-70319409D01*
X133304000Y-70319409D01*
X133217149Y-69882782D01*
X133046786Y-69471489D01*
X132799456Y-69101334D01*
X132484666Y-68786544D01*
X132114511Y-68539214D01*
X131703218Y-68368851D01*
X131266591Y-68282000D01*
X130821409Y-68282000D01*
X130384782Y-68368851D01*
X129973489Y-68539214D01*
X129603334Y-68786544D01*
X129288544Y-69101334D01*
X129041214Y-69471489D01*
X128870851Y-69882782D01*
X128784000Y-70319409D01*
X128784000Y-70764591D01*
X128870851Y-71201218D01*
X129041214Y-71612511D01*
X129288544Y-71982666D01*
X129504982Y-72199104D01*
X129207339Y-72179259D01*
X128858681Y-72224760D01*
X128525600Y-72337406D01*
X128315118Y-72449910D01*
X128201256Y-72729651D01*
X108858103Y-72729651D01*
X108557506Y-72163201D01*
X108545850Y-72145757D01*
X108092033Y-71827572D01*
X105819605Y-74100000D01*
X105460395Y-74100000D01*
X103187967Y-71827572D01*
X102734150Y-72145757D01*
X102408731Y-72750210D01*
X102207488Y-73406535D01*
X102138155Y-74089510D01*
X98705000Y-74089510D01*
X98705000Y-71647967D01*
X103367572Y-71647967D01*
X105640000Y-73920395D01*
X107912428Y-71647967D01*
X107594243Y-71194150D01*
X106989790Y-70868731D01*
X106333465Y-70667488D01*
X105650490Y-70598155D01*
X104967112Y-70663395D01*
X104309593Y-70860702D01*
X103703201Y-71182494D01*
X103685757Y-71194150D01*
X103367572Y-71647967D01*
X98705000Y-71647967D01*
X98705000Y-67165000D01*
X176075000Y-67165000D01*
X176075001Y-131835000D01*
G04 #@! TA.AperFunction,Conductor*
D20*
G36*
X176075001Y-131835000D02*
G01*
X98705000Y-131835000D01*
X98705000Y-127352033D01*
X103367572Y-127352033D01*
X103685757Y-127805850D01*
X104290210Y-128131269D01*
X104946535Y-128332512D01*
X105629510Y-128401845D01*
X106312888Y-128336605D01*
X106970407Y-128139298D01*
X107576799Y-127817506D01*
X107594243Y-127805850D01*
X107912428Y-127352033D01*
X166867572Y-127352033D01*
X167185757Y-127805850D01*
X167790210Y-128131269D01*
X168446535Y-128332512D01*
X169129510Y-128401845D01*
X169812888Y-128336605D01*
X170470407Y-128139298D01*
X171076799Y-127817506D01*
X171094243Y-127805850D01*
X171412428Y-127352033D01*
X169140000Y-125079605D01*
X166867572Y-127352033D01*
X107912428Y-127352033D01*
X105640000Y-125079605D01*
X103367572Y-127352033D01*
X98705000Y-127352033D01*
X98705000Y-124889510D01*
X102138155Y-124889510D01*
X102203395Y-125572888D01*
X102400702Y-126230407D01*
X102722494Y-126836799D01*
X102734150Y-126854243D01*
X103187967Y-127172428D01*
X105460395Y-124900000D01*
X105819605Y-124900000D01*
X108092033Y-127172428D01*
X108545850Y-126854243D01*
X108871269Y-126249790D01*
X109055665Y-125648408D01*
X115653000Y-125648408D01*
X115653000Y-125923592D01*
X115706686Y-126193490D01*
X115811995Y-126447727D01*
X115964880Y-126676535D01*
X116159465Y-126871120D01*
X116388273Y-127024005D01*
X116642510Y-127129314D01*
X116912408Y-127183000D01*
X117187592Y-127183000D01*
X117457490Y-127129314D01*
X117711727Y-127024005D01*
X117940535Y-126871120D01*
X118135120Y-126676535D01*
X118288005Y-126447727D01*
X118393314Y-126193490D01*
X118447000Y-125923592D01*
X118447000Y-125648408D01*
X118393314Y-125378510D01*
X118288005Y-125124273D01*
X118135120Y-124895465D01*
X117940535Y-124700880D01*
X117711727Y-124547995D01*
X117640057Y-124518308D01*
X117653023Y-124513636D01*
X117768980Y-124451656D01*
X117835960Y-124211565D01*
X117050000Y-123425605D01*
X116264040Y-124211565D01*
X116331020Y-124451656D01*
X116466760Y-124515485D01*
X116388273Y-124547995D01*
X116159465Y-124700880D01*
X115964880Y-124895465D01*
X115811995Y-125124273D01*
X115706686Y-125378510D01*
X115653000Y-125648408D01*
X109055665Y-125648408D01*
X109072512Y-125593465D01*
X109141845Y-124910490D01*
X109076605Y-124227112D01*
X109000052Y-123972000D01*
X112025928Y-123972000D01*
X112038188Y-124096482D01*
X112074498Y-124216180D01*
X112133463Y-124326494D01*
X112212815Y-124423185D01*
X112309506Y-124502537D01*
X112419820Y-124561502D01*
X112539518Y-124597812D01*
X112664000Y-124610072D01*
X113228250Y-124607000D01*
X113387000Y-124448250D01*
X113387000Y-123249000D01*
X113641000Y-123249000D01*
X113641000Y-124448250D01*
X113799750Y-124607000D01*
X114364000Y-124610072D01*
X114488482Y-124597812D01*
X114608180Y-124561502D01*
X114718494Y-124502537D01*
X114815185Y-124423185D01*
X114894537Y-124326494D01*
X114953502Y-124216180D01*
X114989812Y-124096482D01*
X115002072Y-123972000D01*
X114999000Y-123407750D01*
X114909267Y-123318017D01*
X115648090Y-123318017D01*
X115689078Y-123590133D01*
X115782364Y-123849023D01*
X115844344Y-123964980D01*
X116084435Y-124031960D01*
X116870395Y-123246000D01*
X117229605Y-123246000D01*
X118015565Y-124031960D01*
X118255656Y-123964980D01*
X118372756Y-123715952D01*
X118415915Y-123542000D01*
X132345928Y-123542000D01*
X132345928Y-125242000D01*
X132358188Y-125366482D01*
X132394498Y-125486180D01*
X132453463Y-125596494D01*
X132532815Y-125693185D01*
X132629506Y-125772537D01*
X132739820Y-125831502D01*
X132859518Y-125867812D01*
X132984000Y-125880072D01*
X134684000Y-125880072D01*
X134808482Y-125867812D01*
X134928180Y-125831502D01*
X135038494Y-125772537D01*
X135135185Y-125693185D01*
X135171932Y-125648408D01*
X141153000Y-125648408D01*
X141153000Y-125923592D01*
X141206686Y-126193490D01*
X141311995Y-126447727D01*
X141464880Y-126676535D01*
X141659465Y-126871120D01*
X141888273Y-127024005D01*
X142142510Y-127129314D01*
X142412408Y-127183000D01*
X142687592Y-127183000D01*
X142957490Y-127129314D01*
X143211727Y-127024005D01*
X143440535Y-126871120D01*
X143635120Y-126676535D01*
X143788005Y-126447727D01*
X143893314Y-126193490D01*
X143947000Y-125923592D01*
X143947000Y-125648408D01*
X143893314Y-125378510D01*
X143788005Y-125124273D01*
X143635120Y-124895465D01*
X143629165Y-124889510D01*
X165638155Y-124889510D01*
X165703395Y-125572888D01*
X165900702Y-126230407D01*
X166222494Y-126836799D01*
X166234150Y-126854243D01*
X166687967Y-127172428D01*
X168960395Y-124900000D01*
X169319605Y-124900000D01*
X171592033Y-127172428D01*
X172045850Y-126854243D01*
X172371269Y-126249790D01*
X172572512Y-125593465D01*
X172641845Y-124910490D01*
X172576605Y-124227112D01*
X172379298Y-123569593D01*
X172057506Y-122963201D01*
X172045850Y-122945757D01*
X171592033Y-122627572D01*
X169319605Y-124900000D01*
X168960395Y-124900000D01*
X166687967Y-122627572D01*
X166234150Y-122945757D01*
X165908731Y-123550210D01*
X165707488Y-124206535D01*
X165638155Y-124889510D01*
X143629165Y-124889510D01*
X143440535Y-124700880D01*
X143211727Y-124547995D01*
X143140057Y-124518308D01*
X143153023Y-124513636D01*
X143268980Y-124451656D01*
X143335960Y-124211565D01*
X142550000Y-123425605D01*
X141764040Y-124211565D01*
X141831020Y-124451656D01*
X141966760Y-124515485D01*
X141888273Y-124547995D01*
X141659465Y-124700880D01*
X141464880Y-124895465D01*
X141311995Y-125124273D01*
X141206686Y-125378510D01*
X141153000Y-125648408D01*
X135171932Y-125648408D01*
X135214537Y-125596494D01*
X135273502Y-125486180D01*
X135309812Y-125366482D01*
X135322072Y-125242000D01*
X135322072Y-123542000D01*
X135309812Y-123417518D01*
X135279629Y-123318017D01*
X141148090Y-123318017D01*
X141189078Y-123590133D01*
X141282364Y-123849023D01*
X141344344Y-123964980D01*
X141584435Y-124031960D01*
X142370395Y-123246000D01*
X142729605Y-123246000D01*
X143515565Y-124031960D01*
X143755656Y-123964980D01*
X143872756Y-123715952D01*
X143939023Y-123448865D01*
X143951910Y-123173983D01*
X143910922Y-122901867D01*
X143817636Y-122642977D01*
X143755656Y-122527020D01*
X143515565Y-122460040D01*
X142729605Y-123246000D01*
X142370395Y-123246000D01*
X141584435Y-122460040D01*
X141344344Y-122527020D01*
X141227244Y-122776048D01*
X141160977Y-123043135D01*
X141148090Y-123318017D01*
X135279629Y-123318017D01*
X135273502Y-123297820D01*
X135214537Y-123187506D01*
X135135185Y-123090815D01*
X135038494Y-123011463D01*
X134928180Y-122952498D01*
X134808482Y-122916188D01*
X134684000Y-122903928D01*
X132984000Y-122903928D01*
X132859518Y-122916188D01*
X132739820Y-122952498D01*
X132629506Y-123011463D01*
X132532815Y-123090815D01*
X132453463Y-123187506D01*
X132394498Y-123297820D01*
X132358188Y-123417518D01*
X132345928Y-123542000D01*
X118415915Y-123542000D01*
X118439023Y-123448865D01*
X118451910Y-123173983D01*
X118410922Y-122901867D01*
X118317636Y-122642977D01*
X118255656Y-122527020D01*
X118015565Y-122460040D01*
X117229605Y-123246000D01*
X116870395Y-123246000D01*
X116084435Y-122460040D01*
X115844344Y-122527020D01*
X115727244Y-122776048D01*
X115660977Y-123043135D01*
X115648090Y-123318017D01*
X114909267Y-123318017D01*
X114840250Y-123249000D01*
X113641000Y-123249000D01*
X113387000Y-123249000D01*
X112187750Y-123249000D01*
X112029000Y-123407750D01*
X112025928Y-123972000D01*
X109000052Y-123972000D01*
X108879298Y-123569593D01*
X108557506Y-122963201D01*
X108545850Y-122945757D01*
X108092033Y-122627572D01*
X105819605Y-124900000D01*
X105460395Y-124900000D01*
X103187967Y-122627572D01*
X102734150Y-122945757D01*
X102408731Y-123550210D01*
X102207488Y-124206535D01*
X102138155Y-124889510D01*
X98705000Y-124889510D01*
X98705000Y-122447967D01*
X103367572Y-122447967D01*
X105640000Y-124720395D01*
X107912428Y-122447967D01*
X107789053Y-122272000D01*
X112025928Y-122272000D01*
X112029000Y-122836250D01*
X112187750Y-122995000D01*
X113387000Y-122995000D01*
X113387000Y-121795750D01*
X113641000Y-121795750D01*
X113641000Y-122995000D01*
X114840250Y-122995000D01*
X114999000Y-122836250D01*
X115002072Y-122272000D01*
X114989812Y-122147518D01*
X114953502Y-122027820D01*
X114894537Y-121917506D01*
X114815185Y-121820815D01*
X114718494Y-121741463D01*
X114608180Y-121682498D01*
X114488482Y-121646188D01*
X114364000Y-121633928D01*
X113799750Y-121637000D01*
X113641000Y-121795750D01*
X113387000Y-121795750D01*
X113228250Y-121637000D01*
X112664000Y-121633928D01*
X112539518Y-121646188D01*
X112419820Y-121682498D01*
X112309506Y-121741463D01*
X112212815Y-121820815D01*
X112133463Y-121917506D01*
X112074498Y-122027820D01*
X112038188Y-122147518D01*
X112025928Y-122272000D01*
X107789053Y-122272000D01*
X107594243Y-121994150D01*
X106989790Y-121668731D01*
X106333465Y-121467488D01*
X105650490Y-121398155D01*
X104967112Y-121463395D01*
X104309593Y-121660702D01*
X103703201Y-121982494D01*
X103685757Y-121994150D01*
X103367572Y-122447967D01*
X98705000Y-122447967D01*
X98705000Y-90088408D01*
X115653000Y-90088408D01*
X115653000Y-90363592D01*
X115706686Y-90633490D01*
X115811995Y-90887727D01*
X115964880Y-91116535D01*
X116159465Y-91311120D01*
X116388273Y-91464005D01*
X116465515Y-91496000D01*
X116388273Y-91527995D01*
X116159465Y-91680880D01*
X115964880Y-91875465D01*
X115811995Y-92104273D01*
X115706686Y-92358510D01*
X115653000Y-92628408D01*
X115653000Y-92903592D01*
X115706686Y-93173490D01*
X115811995Y-93427727D01*
X115964880Y-93656535D01*
X116159465Y-93851120D01*
X116388273Y-94004005D01*
X116465515Y-94036000D01*
X116388273Y-94067995D01*
X116159465Y-94220880D01*
X115964880Y-94415465D01*
X115811995Y-94644273D01*
X115706686Y-94898510D01*
X115653000Y-95168408D01*
X115653000Y-95443592D01*
X115706686Y-95713490D01*
X115811995Y-95967727D01*
X115964880Y-96196535D01*
X116159465Y-96391120D01*
X116388273Y-96544005D01*
X116465515Y-96576000D01*
X116388273Y-96607995D01*
X116159465Y-96760880D01*
X115964880Y-96955465D01*
X115811995Y-97184273D01*
X115706686Y-97438510D01*
X115653000Y-97708408D01*
X115653000Y-97983592D01*
X115706686Y-98253490D01*
X115811995Y-98507727D01*
X115964880Y-98736535D01*
X116159465Y-98931120D01*
X116388273Y-99084005D01*
X116465515Y-99116000D01*
X116388273Y-99147995D01*
X116159465Y-99300880D01*
X115964880Y-99495465D01*
X115811995Y-99724273D01*
X115706686Y-99978510D01*
X115653000Y-100248408D01*
X115653000Y-100523592D01*
X115706686Y-100793490D01*
X115811995Y-101047727D01*
X115964880Y-101276535D01*
X116159465Y-101471120D01*
X116388273Y-101624005D01*
X116465515Y-101656000D01*
X116388273Y-101687995D01*
X116159465Y-101840880D01*
X115964880Y-102035465D01*
X115811995Y-102264273D01*
X115706686Y-102518510D01*
X115653000Y-102788408D01*
X115653000Y-103063592D01*
X115706686Y-103333490D01*
X115811995Y-103587727D01*
X115964880Y-103816535D01*
X116159465Y-104011120D01*
X116388273Y-104164005D01*
X116465515Y-104196000D01*
X116388273Y-104227995D01*
X116159465Y-104380880D01*
X115964880Y-104575465D01*
X115811995Y-104804273D01*
X115706686Y-105058510D01*
X115653000Y-105328408D01*
X115653000Y-105603592D01*
X115706686Y-105873490D01*
X115811995Y-106127727D01*
X115964880Y-106356535D01*
X116159465Y-106551120D01*
X116388273Y-106704005D01*
X116465515Y-106736000D01*
X116388273Y-106767995D01*
X116159465Y-106920880D01*
X115964880Y-107115465D01*
X115811995Y-107344273D01*
X115706686Y-107598510D01*
X115653000Y-107868408D01*
X115653000Y-108143592D01*
X115706686Y-108413490D01*
X115811995Y-108667727D01*
X115964880Y-108896535D01*
X116159465Y-109091120D01*
X116388273Y-109244005D01*
X116465515Y-109276000D01*
X116388273Y-109307995D01*
X116159465Y-109460880D01*
X115964880Y-109655465D01*
X115811995Y-109884273D01*
X115706686Y-110138510D01*
X115653000Y-110408408D01*
X115653000Y-110683592D01*
X115706686Y-110953490D01*
X115811995Y-111207727D01*
X115964880Y-111436535D01*
X116159465Y-111631120D01*
X116388273Y-111784005D01*
X116465515Y-111816000D01*
X116388273Y-111847995D01*
X116159465Y-112000880D01*
X115964880Y-112195465D01*
X115811995Y-112424273D01*
X115706686Y-112678510D01*
X115653000Y-112948408D01*
X115653000Y-113223592D01*
X115706686Y-113493490D01*
X115811995Y-113747727D01*
X115964880Y-113976535D01*
X116159465Y-114171120D01*
X116388273Y-114324005D01*
X116465515Y-114356000D01*
X116388273Y-114387995D01*
X116159465Y-114540880D01*
X115964880Y-114735465D01*
X115811995Y-114964273D01*
X115706686Y-115218510D01*
X115653000Y-115488408D01*
X115653000Y-115763592D01*
X115706686Y-116033490D01*
X115811995Y-116287727D01*
X115964880Y-116516535D01*
X116159465Y-116711120D01*
X116388273Y-116864005D01*
X116465515Y-116896000D01*
X116388273Y-116927995D01*
X116159465Y-117080880D01*
X115964880Y-117275465D01*
X115811995Y-117504273D01*
X115706686Y-117758510D01*
X115653000Y-118028408D01*
X115653000Y-118303592D01*
X115706686Y-118573490D01*
X115811995Y-118827727D01*
X115964880Y-119056535D01*
X116159465Y-119251120D01*
X116388273Y-119404005D01*
X116465515Y-119436000D01*
X116388273Y-119467995D01*
X116159465Y-119620880D01*
X115964880Y-119815465D01*
X115811995Y-120044273D01*
X115706686Y-120298510D01*
X115653000Y-120568408D01*
X115653000Y-120843592D01*
X115706686Y-121113490D01*
X115811995Y-121367727D01*
X115964880Y-121596535D01*
X116159465Y-121791120D01*
X116388273Y-121944005D01*
X116459943Y-121973692D01*
X116446977Y-121978364D01*
X116331020Y-122040344D01*
X116264040Y-122280435D01*
X117050000Y-123066395D01*
X117835960Y-122280435D01*
X117768980Y-122040344D01*
X117633240Y-121976515D01*
X117711727Y-121944005D01*
X117940535Y-121791120D01*
X118135120Y-121596535D01*
X118288005Y-121367727D01*
X118393314Y-121113490D01*
X118447000Y-120843592D01*
X118447000Y-120568408D01*
X118393314Y-120298510D01*
X118288005Y-120044273D01*
X118135120Y-119815465D01*
X117940535Y-119620880D01*
X117711727Y-119467995D01*
X117634485Y-119436000D01*
X117711727Y-119404005D01*
X117940535Y-119251120D01*
X118045655Y-119146000D01*
X127265928Y-119146000D01*
X127278188Y-119270482D01*
X127314498Y-119390180D01*
X127373463Y-119500494D01*
X127452815Y-119597185D01*
X127549506Y-119676537D01*
X127659820Y-119735502D01*
X127779518Y-119771812D01*
X127904000Y-119784072D01*
X128468250Y-119781000D01*
X128627000Y-119622250D01*
X128627000Y-118423000D01*
X128881000Y-118423000D01*
X128881000Y-119622250D01*
X129039750Y-119781000D01*
X129604000Y-119784072D01*
X129728482Y-119771812D01*
X129848180Y-119735502D01*
X129958494Y-119676537D01*
X130055185Y-119597185D01*
X130134537Y-119500494D01*
X130193502Y-119390180D01*
X130229812Y-119270482D01*
X130242072Y-119146000D01*
X130239000Y-118581750D01*
X130080250Y-118423000D01*
X128881000Y-118423000D01*
X128627000Y-118423000D01*
X127427750Y-118423000D01*
X127269000Y-118581750D01*
X127265928Y-119146000D01*
X118045655Y-119146000D01*
X118135120Y-119056535D01*
X118288005Y-118827727D01*
X118393314Y-118573490D01*
X118447000Y-118303592D01*
X118447000Y-118028408D01*
X118393314Y-117758510D01*
X118288005Y-117504273D01*
X118249069Y-117446000D01*
X127265928Y-117446000D01*
X127269000Y-118010250D01*
X127427750Y-118169000D01*
X128627000Y-118169000D01*
X128627000Y-116969750D01*
X128881000Y-116969750D01*
X128881000Y-118169000D01*
X130080250Y-118169000D01*
X130239000Y-118010250D01*
X130242072Y-117446000D01*
X130229812Y-117321518D01*
X130193502Y-117201820D01*
X130134537Y-117091506D01*
X130055185Y-116994815D01*
X129958494Y-116915463D01*
X129848180Y-116856498D01*
X129728482Y-116820188D01*
X129604000Y-116807928D01*
X129039750Y-116811000D01*
X128881000Y-116969750D01*
X128627000Y-116969750D01*
X128468250Y-116811000D01*
X127904000Y-116807928D01*
X127779518Y-116820188D01*
X127659820Y-116856498D01*
X127549506Y-116915463D01*
X127452815Y-116994815D01*
X127373463Y-117091506D01*
X127314498Y-117201820D01*
X127278188Y-117321518D01*
X127265928Y-117446000D01*
X118249069Y-117446000D01*
X118135120Y-117275465D01*
X117940535Y-117080880D01*
X117711727Y-116927995D01*
X117634485Y-116896000D01*
X117711727Y-116864005D01*
X117940535Y-116711120D01*
X118135120Y-116516535D01*
X118288005Y-116287727D01*
X118393314Y-116033490D01*
X118447000Y-115763592D01*
X118447000Y-115488408D01*
X118393314Y-115218510D01*
X118288005Y-114964273D01*
X118135120Y-114735465D01*
X117940535Y-114540880D01*
X117711727Y-114387995D01*
X117634485Y-114356000D01*
X117711727Y-114324005D01*
X117940535Y-114171120D01*
X118135120Y-113976535D01*
X118288005Y-113747727D01*
X118393314Y-113493490D01*
X118447000Y-113223592D01*
X118447000Y-112948408D01*
X118393314Y-112678510D01*
X118288005Y-112424273D01*
X118135120Y-112195465D01*
X117940535Y-112000880D01*
X117711727Y-111847995D01*
X117634485Y-111816000D01*
X117711727Y-111784005D01*
X117940535Y-111631120D01*
X118135120Y-111436535D01*
X118288005Y-111207727D01*
X118393314Y-110953490D01*
X118447000Y-110683592D01*
X118447000Y-110408408D01*
X118393314Y-110138510D01*
X118288005Y-109884273D01*
X118135120Y-109655465D01*
X117940535Y-109460880D01*
X117711727Y-109307995D01*
X117634485Y-109276000D01*
X117711727Y-109244005D01*
X117940535Y-109091120D01*
X118135120Y-108896535D01*
X118288005Y-108667727D01*
X118393314Y-108413490D01*
X118447000Y-108143592D01*
X118447000Y-107868408D01*
X118393314Y-107598510D01*
X118288005Y-107344273D01*
X118135120Y-107115465D01*
X117940535Y-106920880D01*
X117711727Y-106767995D01*
X117634485Y-106736000D01*
X117711727Y-106704005D01*
X117940535Y-106551120D01*
X118135120Y-106356535D01*
X118288005Y-106127727D01*
X118393314Y-105873490D01*
X118447000Y-105603592D01*
X118447000Y-105328408D01*
X118393314Y-105058510D01*
X118288005Y-104804273D01*
X118135120Y-104575465D01*
X117940535Y-104380880D01*
X117711727Y-104227995D01*
X117634485Y-104196000D01*
X117711727Y-104164005D01*
X117940535Y-104011120D01*
X118135120Y-103816535D01*
X118288005Y-103587727D01*
X118393314Y-103333490D01*
X118447000Y-103063592D01*
X118447000Y-102788408D01*
X118393314Y-102518510D01*
X118288005Y-102264273D01*
X118135120Y-102035465D01*
X117940535Y-101840880D01*
X117711727Y-101687995D01*
X117634485Y-101656000D01*
X117711727Y-101624005D01*
X117940535Y-101471120D01*
X118135120Y-101276535D01*
X118288005Y-101047727D01*
X118393314Y-100793490D01*
X118447000Y-100523592D01*
X118447000Y-100248408D01*
X118393314Y-99978510D01*
X118288005Y-99724273D01*
X118135120Y-99495465D01*
X117940535Y-99300880D01*
X117711727Y-99147995D01*
X117634485Y-99116000D01*
X117711727Y-99084005D01*
X117940535Y-98931120D01*
X118135120Y-98736535D01*
X118288005Y-98507727D01*
X118393314Y-98253490D01*
X118447000Y-97983592D01*
X118447000Y-97708408D01*
X118393314Y-97438510D01*
X118288005Y-97184273D01*
X118135120Y-96955465D01*
X117940535Y-96760880D01*
X117711727Y-96607995D01*
X117634485Y-96576000D01*
X117711727Y-96544005D01*
X117940535Y-96391120D01*
X118135120Y-96196535D01*
X118288005Y-95967727D01*
X118393314Y-95713490D01*
X118447000Y-95443592D01*
X118447000Y-95168408D01*
X118393314Y-94898510D01*
X118288005Y-94644273D01*
X118135120Y-94415465D01*
X117940535Y-94220880D01*
X117711727Y-94067995D01*
X117634485Y-94036000D01*
X117711727Y-94004005D01*
X117940535Y-93851120D01*
X118135120Y-93656535D01*
X118288005Y-93427727D01*
X118393314Y-93173490D01*
X118447000Y-92903592D01*
X118447000Y-92628408D01*
X118393314Y-92358510D01*
X118288005Y-92104273D01*
X118135120Y-91875465D01*
X117940535Y-91680880D01*
X117711727Y-91527995D01*
X117634485Y-91496000D01*
X117711727Y-91464005D01*
X117940535Y-91311120D01*
X118135120Y-91116535D01*
X118288005Y-90887727D01*
X118393314Y-90633490D01*
X118447000Y-90363592D01*
X118447000Y-90088408D01*
X141153000Y-90088408D01*
X141153000Y-90363592D01*
X141206686Y-90633490D01*
X141311995Y-90887727D01*
X141464880Y-91116535D01*
X141659465Y-91311120D01*
X141888273Y-91464005D01*
X141965515Y-91496000D01*
X141888273Y-91527995D01*
X141659465Y-91680880D01*
X141464880Y-91875465D01*
X141311995Y-92104273D01*
X141206686Y-92358510D01*
X141153000Y-92628408D01*
X141153000Y-92903592D01*
X141206686Y-93173490D01*
X141311995Y-93427727D01*
X141464880Y-93656535D01*
X141659465Y-93851120D01*
X141888273Y-94004005D01*
X141965515Y-94036000D01*
X141888273Y-94067995D01*
X141659465Y-94220880D01*
X141464880Y-94415465D01*
X141311995Y-94644273D01*
X141206686Y-94898510D01*
X141153000Y-95168408D01*
X141153000Y-95443592D01*
X141206686Y-95713490D01*
X141311995Y-95967727D01*
X141464880Y-96196535D01*
X141659465Y-96391120D01*
X141888273Y-96544005D01*
X141965515Y-96576000D01*
X141888273Y-96607995D01*
X141659465Y-96760880D01*
X141464880Y-96955465D01*
X141311995Y-97184273D01*
X141206686Y-97438510D01*
X141153000Y-97708408D01*
X141153000Y-97983592D01*
X141206686Y-98253490D01*
X141311995Y-98507727D01*
X141464880Y-98736535D01*
X141659465Y-98931120D01*
X141888273Y-99084005D01*
X141965515Y-99116000D01*
X141888273Y-99147995D01*
X141659465Y-99300880D01*
X141464880Y-99495465D01*
X141311995Y-99724273D01*
X141206686Y-99978510D01*
X141153000Y-100248408D01*
X141153000Y-100523592D01*
X141206686Y-100793490D01*
X141311995Y-101047727D01*
X141464880Y-101276535D01*
X141659465Y-101471120D01*
X141888273Y-101624005D01*
X141965515Y-101656000D01*
X141888273Y-101687995D01*
X141659465Y-101840880D01*
X141464880Y-102035465D01*
X141311995Y-102264273D01*
X141206686Y-102518510D01*
X141153000Y-102788408D01*
X141153000Y-103063592D01*
X141206686Y-103333490D01*
X141311995Y-103587727D01*
X141464880Y-103816535D01*
X141659465Y-104011120D01*
X141888273Y-104164005D01*
X141965515Y-104196000D01*
X141888273Y-104227995D01*
X141659465Y-104380880D01*
X141464880Y-104575465D01*
X141311995Y-104804273D01*
X141206686Y-105058510D01*
X141153000Y-105328408D01*
X141153000Y-105603592D01*
X141206686Y-105873490D01*
X141311995Y-106127727D01*
X141464880Y-106356535D01*
X141659465Y-106551120D01*
X141888273Y-106704005D01*
X141965515Y-106736000D01*
X141888273Y-106767995D01*
X141659465Y-106920880D01*
X141464880Y-107115465D01*
X141311995Y-107344273D01*
X141206686Y-107598510D01*
X141153000Y-107868408D01*
X141153000Y-108143592D01*
X141206686Y-108413490D01*
X141311995Y-108667727D01*
X141464880Y-108896535D01*
X141659465Y-109091120D01*
X141888273Y-109244005D01*
X141965515Y-109276000D01*
X141888273Y-109307995D01*
X141659465Y-109460880D01*
X141464880Y-109655465D01*
X141311995Y-109884273D01*
X141206686Y-110138510D01*
X141153000Y-110408408D01*
X141153000Y-110683592D01*
X141206686Y-110953490D01*
X141311995Y-111207727D01*
X141464880Y-111436535D01*
X141659465Y-111631120D01*
X141888273Y-111784005D01*
X141965515Y-111816000D01*
X141888273Y-111847995D01*
X141659465Y-112000880D01*
X141464880Y-112195465D01*
X141311995Y-112424273D01*
X141206686Y-112678510D01*
X141153000Y-112948408D01*
X141153000Y-113223592D01*
X141206686Y-113493490D01*
X141311995Y-113747727D01*
X141464880Y-113976535D01*
X141659465Y-114171120D01*
X141888273Y-114324005D01*
X141965515Y-114356000D01*
X141888273Y-114387995D01*
X141659465Y-114540880D01*
X141464880Y-114735465D01*
X141311995Y-114964273D01*
X141206686Y-115218510D01*
X141153000Y-115488408D01*
X141153000Y-115763592D01*
X141206686Y-116033490D01*
X141311995Y-116287727D01*
X141464880Y-116516535D01*
X141659465Y-116711120D01*
X141888273Y-116864005D01*
X141965515Y-116896000D01*
X141888273Y-116927995D01*
X141659465Y-117080880D01*
X141464880Y-117275465D01*
X141311995Y-117504273D01*
X141206686Y-117758510D01*
X141153000Y-118028408D01*
X141153000Y-118303592D01*
X141206686Y-118573490D01*
X141311995Y-118827727D01*
X141464880Y-119056535D01*
X141659465Y-119251120D01*
X141888273Y-119404005D01*
X141965515Y-119436000D01*
X141888273Y-119467995D01*
X141659465Y-119620880D01*
X141464880Y-119815465D01*
X141311995Y-120044273D01*
X141206686Y-120298510D01*
X141153000Y-120568408D01*
X141153000Y-120843592D01*
X141206686Y-121113490D01*
X141311995Y-121367727D01*
X141464880Y-121596535D01*
X141659465Y-121791120D01*
X141888273Y-121944005D01*
X141959943Y-121973692D01*
X141946977Y-121978364D01*
X141831020Y-122040344D01*
X141764040Y-122280435D01*
X142550000Y-123066395D01*
X143168428Y-122447967D01*
X166867572Y-122447967D01*
X169140000Y-124720395D01*
X171412428Y-122447967D01*
X171094243Y-121994150D01*
X170489790Y-121668731D01*
X169833465Y-121467488D01*
X169150490Y-121398155D01*
X168467112Y-121463395D01*
X167809593Y-121660702D01*
X167203201Y-121982494D01*
X167185757Y-121994150D01*
X166867572Y-122447967D01*
X143168428Y-122447967D01*
X143335960Y-122280435D01*
X143268980Y-122040344D01*
X143133240Y-121976515D01*
X143211727Y-121944005D01*
X143440535Y-121791120D01*
X143635120Y-121596535D01*
X143788005Y-121367727D01*
X143893314Y-121113490D01*
X143947000Y-120843592D01*
X143947000Y-120568408D01*
X143893314Y-120298510D01*
X143788005Y-120044273D01*
X143635120Y-119815465D01*
X143440535Y-119620880D01*
X143211727Y-119467995D01*
X143134485Y-119436000D01*
X143211727Y-119404005D01*
X143440535Y-119251120D01*
X143635120Y-119056535D01*
X143788005Y-118827727D01*
X143893314Y-118573490D01*
X143947000Y-118303592D01*
X143947000Y-118028408D01*
X143893314Y-117758510D01*
X143788005Y-117504273D01*
X143635120Y-117275465D01*
X143440535Y-117080880D01*
X143211727Y-116927995D01*
X143134485Y-116896000D01*
X143211727Y-116864005D01*
X143440535Y-116711120D01*
X143635120Y-116516535D01*
X143788005Y-116287727D01*
X143893314Y-116033490D01*
X143947000Y-115763592D01*
X143947000Y-115488408D01*
X143893314Y-115218510D01*
X143788005Y-114964273D01*
X143635120Y-114735465D01*
X143440535Y-114540880D01*
X143300032Y-114446998D01*
X145552087Y-114446998D01*
X145557003Y-114496909D01*
X145557002Y-117583901D01*
X145571704Y-117733170D01*
X145629800Y-117924686D01*
X145724142Y-118101190D01*
X145851106Y-118255896D01*
X146005812Y-118382860D01*
X146182315Y-118477202D01*
X146373831Y-118535298D01*
X146573002Y-118554915D01*
X146772172Y-118535298D01*
X146963688Y-118477202D01*
X147140192Y-118382860D01*
X147294898Y-118255896D01*
X147421862Y-118101190D01*
X147516204Y-117924687D01*
X147574300Y-117733171D01*
X147589002Y-117583902D01*
X147589002Y-114867838D01*
X147979133Y-114477708D01*
X148017896Y-114445896D01*
X148144860Y-114291190D01*
X148239202Y-114114687D01*
X148297298Y-113923171D01*
X148316915Y-113724000D01*
X148297298Y-113524829D01*
X148239202Y-113333313D01*
X148144860Y-113156810D01*
X148017896Y-113002104D01*
X147863190Y-112875140D01*
X147686687Y-112780798D01*
X147495171Y-112722702D01*
X147345902Y-112708000D01*
X147296000Y-112703085D01*
X147246098Y-112708000D01*
X147096829Y-112722702D01*
X146905313Y-112780798D01*
X146728810Y-112875140D01*
X146574104Y-113002104D01*
X146542292Y-113040867D01*
X145889869Y-113693290D01*
X145851107Y-113725102D01*
X145724143Y-113879808D01*
X145672442Y-113976535D01*
X145629801Y-114056311D01*
X145571704Y-114247828D01*
X145552087Y-114446998D01*
X143300032Y-114446998D01*
X143211727Y-114387995D01*
X143134485Y-114356000D01*
X143211727Y-114324005D01*
X143440535Y-114171120D01*
X143635120Y-113976535D01*
X143788005Y-113747727D01*
X143893314Y-113493490D01*
X143947000Y-113223592D01*
X143947000Y-112948408D01*
X143893314Y-112678510D01*
X143788005Y-112424273D01*
X143635120Y-112195465D01*
X143440535Y-112000880D01*
X143211727Y-111847995D01*
X143134485Y-111816000D01*
X143211727Y-111784005D01*
X143440535Y-111631120D01*
X143635120Y-111436535D01*
X143788005Y-111207727D01*
X143893314Y-110953490D01*
X143947000Y-110683592D01*
X143947000Y-110408408D01*
X143893314Y-110138510D01*
X143788005Y-109884273D01*
X143635120Y-109655465D01*
X143440535Y-109460880D01*
X143211727Y-109307995D01*
X143134485Y-109276000D01*
X143211727Y-109244005D01*
X143440535Y-109091120D01*
X143635120Y-108896535D01*
X143788005Y-108667727D01*
X143893314Y-108413490D01*
X143947000Y-108143592D01*
X143947000Y-107868408D01*
X143893314Y-107598510D01*
X143788005Y-107344273D01*
X143635120Y-107115465D01*
X143440535Y-106920880D01*
X143211727Y-106767995D01*
X143134485Y-106736000D01*
X143211727Y-106704005D01*
X143440535Y-106551120D01*
X143635120Y-106356535D01*
X143788005Y-106127727D01*
X143893314Y-105873490D01*
X143947000Y-105603592D01*
X143947000Y-105328408D01*
X143893314Y-105058510D01*
X143788005Y-104804273D01*
X143635120Y-104575465D01*
X143440535Y-104380880D01*
X143211727Y-104227995D01*
X143134485Y-104196000D01*
X143211727Y-104164005D01*
X143440535Y-104011120D01*
X143635120Y-103816535D01*
X143788005Y-103587727D01*
X143893314Y-103333490D01*
X143947000Y-103063592D01*
X143947000Y-102788408D01*
X143893314Y-102518510D01*
X143788005Y-102264273D01*
X143635120Y-102035465D01*
X143440535Y-101840880D01*
X143211727Y-101687995D01*
X143134485Y-101656000D01*
X143211727Y-101624005D01*
X143440535Y-101471120D01*
X143635120Y-101276535D01*
X143788005Y-101047727D01*
X143893314Y-100793490D01*
X143947000Y-100523592D01*
X143947000Y-100248408D01*
X143893314Y-99978510D01*
X143788005Y-99724273D01*
X143635120Y-99495465D01*
X143440535Y-99300880D01*
X143211727Y-99147995D01*
X143134485Y-99116000D01*
X143211727Y-99084005D01*
X143440535Y-98931120D01*
X143635120Y-98736535D01*
X143788005Y-98507727D01*
X143893314Y-98253490D01*
X143947000Y-97983592D01*
X143947000Y-97708408D01*
X143893314Y-97438510D01*
X143788005Y-97184273D01*
X143635120Y-96955465D01*
X143440535Y-96760880D01*
X143211727Y-96607995D01*
X143134485Y-96576000D01*
X143211727Y-96544005D01*
X143440535Y-96391120D01*
X143635120Y-96196535D01*
X143788005Y-95967727D01*
X143893314Y-95713490D01*
X143947000Y-95443592D01*
X143947000Y-95168408D01*
X143893314Y-94898510D01*
X143788005Y-94644273D01*
X143635120Y-94415465D01*
X143440535Y-94220880D01*
X143211727Y-94067995D01*
X143134485Y-94036000D01*
X143211727Y-94004005D01*
X143440535Y-93851120D01*
X143635120Y-93656535D01*
X143788005Y-93427727D01*
X143893314Y-93173490D01*
X143947000Y-92903592D01*
X143947000Y-92628408D01*
X143893314Y-92358510D01*
X143788005Y-92104273D01*
X143635120Y-91875465D01*
X143440535Y-91680880D01*
X143211727Y-91527995D01*
X143134485Y-91496000D01*
X143211727Y-91464005D01*
X143440535Y-91311120D01*
X143635120Y-91116535D01*
X143788005Y-90887727D01*
X143893314Y-90633490D01*
X143947000Y-90363592D01*
X143947000Y-90088408D01*
X143893314Y-89818510D01*
X143788005Y-89564273D01*
X143635120Y-89335465D01*
X143440535Y-89140880D01*
X143211727Y-88987995D01*
X142957490Y-88882686D01*
X142687592Y-88829000D01*
X142412408Y-88829000D01*
X142142510Y-88882686D01*
X141888273Y-88987995D01*
X141659465Y-89140880D01*
X141464880Y-89335465D01*
X141311995Y-89564273D01*
X141206686Y-89818510D01*
X141153000Y-90088408D01*
X118447000Y-90088408D01*
X118393314Y-89818510D01*
X118288005Y-89564273D01*
X118135120Y-89335465D01*
X117940535Y-89140880D01*
X117711727Y-88987995D01*
X117457490Y-88882686D01*
X117187592Y-88829000D01*
X116912408Y-88829000D01*
X116642510Y-88882686D01*
X116388273Y-88987995D01*
X116159465Y-89140880D01*
X115964880Y-89335465D01*
X115811995Y-89564273D01*
X115706686Y-89818510D01*
X115653000Y-90088408D01*
X98705000Y-90088408D01*
X98705000Y-80638993D01*
X129756612Y-80638993D01*
X129822137Y-80877860D01*
X130069116Y-80993760D01*
X130333960Y-81059250D01*
X130606492Y-81071812D01*
X130876238Y-81030965D01*
X131132832Y-80938277D01*
X131245863Y-80877860D01*
X131311388Y-80638993D01*
X130534000Y-79861605D01*
X129756612Y-80638993D01*
X98705000Y-80638993D01*
X98705000Y-79754492D01*
X129144188Y-79754492D01*
X129185035Y-80024238D01*
X129277723Y-80280832D01*
X129338140Y-80393863D01*
X129577007Y-80459388D01*
X130354395Y-79682000D01*
X130713605Y-79682000D01*
X131490993Y-80459388D01*
X131648787Y-80416103D01*
X131748201Y-80564886D01*
X131941114Y-80757799D01*
X132167957Y-80909371D01*
X132420011Y-81013775D01*
X132687589Y-81067000D01*
X132960411Y-81067000D01*
X133227989Y-81013775D01*
X133480043Y-80909371D01*
X133706886Y-80757799D01*
X133899799Y-80564886D01*
X134051371Y-80338043D01*
X134155775Y-80085989D01*
X134209000Y-79818411D01*
X134209000Y-79545589D01*
X140579000Y-79545589D01*
X140579000Y-79818411D01*
X140632225Y-80085989D01*
X140736629Y-80338043D01*
X140888201Y-80564886D01*
X141081114Y-80757799D01*
X141307957Y-80909371D01*
X141560011Y-81013775D01*
X141827589Y-81067000D01*
X142100411Y-81067000D01*
X142367989Y-81013775D01*
X142620043Y-80909371D01*
X142846886Y-80757799D01*
X143039799Y-80564886D01*
X143109000Y-80461320D01*
X143178201Y-80564886D01*
X143371114Y-80757799D01*
X143597957Y-80909371D01*
X143850011Y-81013775D01*
X144117589Y-81067000D01*
X144390411Y-81067000D01*
X144657989Y-81013775D01*
X144910043Y-80909371D01*
X145136886Y-80757799D01*
X145329799Y-80564886D01*
X145481371Y-80338043D01*
X145585775Y-80085989D01*
X145639000Y-79818411D01*
X145639000Y-79545589D01*
X145585775Y-79278011D01*
X145481371Y-79025957D01*
X145329799Y-78799114D01*
X145136886Y-78606201D01*
X144910043Y-78454629D01*
X144657989Y-78350225D01*
X144390411Y-78297000D01*
X144117589Y-78297000D01*
X143850011Y-78350225D01*
X143597957Y-78454629D01*
X143371114Y-78606201D01*
X143178201Y-78799114D01*
X143109000Y-78902680D01*
X143039799Y-78799114D01*
X142846886Y-78606201D01*
X142620043Y-78454629D01*
X142367989Y-78350225D01*
X142100411Y-78297000D01*
X141827589Y-78297000D01*
X141560011Y-78350225D01*
X141307957Y-78454629D01*
X141081114Y-78606201D01*
X140888201Y-78799114D01*
X140736629Y-79025957D01*
X140632225Y-79278011D01*
X140579000Y-79545589D01*
X134209000Y-79545589D01*
X134155775Y-79278011D01*
X134051371Y-79025957D01*
X133899799Y-78799114D01*
X133706886Y-78606201D01*
X133480043Y-78454629D01*
X133227989Y-78350225D01*
X132960411Y-78297000D01*
X132687589Y-78297000D01*
X132420011Y-78350225D01*
X132167957Y-78454629D01*
X131941114Y-78606201D01*
X131748201Y-78799114D01*
X131648787Y-78947897D01*
X131490993Y-78904612D01*
X130713605Y-79682000D01*
X130354395Y-79682000D01*
X129577007Y-78904612D01*
X129338140Y-78970137D01*
X129222240Y-79217116D01*
X129156750Y-79481960D01*
X129144188Y-79754492D01*
X98705000Y-79754492D01*
X98705000Y-78725007D01*
X129756612Y-78725007D01*
X130534000Y-79502395D01*
X131311388Y-78725007D01*
X131245863Y-78486140D01*
X130998884Y-78370240D01*
X130734040Y-78304750D01*
X130461508Y-78292188D01*
X130191762Y-78333035D01*
X129935168Y-78425723D01*
X129822137Y-78486140D01*
X129756612Y-78725007D01*
X98705000Y-78725007D01*
X98705000Y-76552033D01*
X103367572Y-76552033D01*
X103685757Y-77005850D01*
X104290210Y-77331269D01*
X104946535Y-77532512D01*
X105629510Y-77601845D01*
X106312888Y-77536605D01*
X106970407Y-77339298D01*
X107576799Y-77017506D01*
X107594243Y-77005850D01*
X107912428Y-76552033D01*
X166867572Y-76552033D01*
X167185757Y-77005850D01*
X167790210Y-77331269D01*
X168446535Y-77532512D01*
X169129510Y-77601845D01*
X169812888Y-77536605D01*
X170470407Y-77339298D01*
X171076799Y-77017506D01*
X171094243Y-77005850D01*
X171412428Y-76552033D01*
X169140000Y-74279605D01*
X166867572Y-76552033D01*
X107912428Y-76552033D01*
X105640000Y-74279605D01*
X103367572Y-76552033D01*
X98705000Y-76552033D01*
X98705000Y-74089510D01*
X102138155Y-74089510D01*
X102203395Y-74772888D01*
X102400702Y-75430407D01*
X102722494Y-76036799D01*
X102734150Y-76054243D01*
X103187967Y-76372428D01*
X105460395Y-74100000D01*
X105819605Y-74100000D01*
X108092033Y-76372428D01*
X108545850Y-76054243D01*
X108871269Y-75449790D01*
X108943460Y-75214349D01*
X128201256Y-75214349D01*
X128315118Y-75494090D01*
X128630296Y-75649961D01*
X128969826Y-75741349D01*
X129320661Y-75764741D01*
X129669319Y-75719240D01*
X130002400Y-75606594D01*
X130212882Y-75494090D01*
X130326744Y-75214349D01*
X129264000Y-74151605D01*
X128201256Y-75214349D01*
X108943460Y-75214349D01*
X109072512Y-74793465D01*
X109141845Y-74110490D01*
X109134034Y-74028661D01*
X127471259Y-74028661D01*
X127516760Y-74377319D01*
X127629406Y-74710400D01*
X127741910Y-74920882D01*
X128021651Y-75034744D01*
X129084395Y-73972000D01*
X128021651Y-72909256D01*
X127741910Y-73023118D01*
X127586039Y-73338296D01*
X127494651Y-73677826D01*
X127471259Y-74028661D01*
X109134034Y-74028661D01*
X109076605Y-73427112D01*
X108879298Y-72769593D01*
X108858103Y-72729651D01*
X128201256Y-72729651D01*
X129264000Y-73792395D01*
X129278143Y-73778253D01*
X129457748Y-73957858D01*
X129443605Y-73972000D01*
X130506349Y-75034744D01*
X130786090Y-74920882D01*
X130941961Y-74605704D01*
X131033349Y-74266174D01*
X131056741Y-73915339D01*
X131011240Y-73566681D01*
X130898594Y-73233600D01*
X130786090Y-73023118D01*
X130506351Y-72909257D01*
X130621662Y-72793946D01*
X130582118Y-72754402D01*
X130821409Y-72802000D01*
X131266591Y-72802000D01*
X131703218Y-72715149D01*
X132114511Y-72544786D01*
X132446841Y-72322730D01*
X132445928Y-72332000D01*
X132445928Y-73832000D01*
X132458188Y-73956482D01*
X132494498Y-74076180D01*
X132553463Y-74186494D01*
X132632815Y-74283185D01*
X132729506Y-74362537D01*
X132839820Y-74421502D01*
X132959518Y-74457812D01*
X133084000Y-74470072D01*
X133515826Y-74470072D01*
X133465000Y-74725589D01*
X133465000Y-74998411D01*
X133518225Y-75265989D01*
X133622629Y-75518043D01*
X133774201Y-75744886D01*
X133967114Y-75937799D01*
X134193957Y-76089371D01*
X134446011Y-76193775D01*
X134713589Y-76247000D01*
X134986411Y-76247000D01*
X135253989Y-76193775D01*
X135506043Y-76089371D01*
X135732886Y-75937799D01*
X135866000Y-75804685D01*
X135999114Y-75937799D01*
X136225957Y-76089371D01*
X136478011Y-76193775D01*
X136745589Y-76247000D01*
X137018411Y-76247000D01*
X137285989Y-76193775D01*
X137538043Y-76089371D01*
X137764886Y-75937799D01*
X137898000Y-75804685D01*
X138031114Y-75937799D01*
X138257957Y-76089371D01*
X138510011Y-76193775D01*
X138777589Y-76247000D01*
X139050411Y-76247000D01*
X139317989Y-76193775D01*
X139570043Y-76089371D01*
X139796886Y-75937799D01*
X139915692Y-75818993D01*
X140168612Y-75818993D01*
X140234137Y-76057860D01*
X140481116Y-76173760D01*
X140745960Y-76239250D01*
X141018492Y-76251812D01*
X141288238Y-76210965D01*
X141544832Y-76118277D01*
X141657863Y-76057860D01*
X141723388Y-75818993D01*
X140946000Y-75041605D01*
X140168612Y-75818993D01*
X139915692Y-75818993D01*
X139989799Y-75744886D01*
X140141371Y-75518043D01*
X140163305Y-75465090D01*
X140766395Y-74862000D01*
X141125605Y-74862000D01*
X141902993Y-75639388D01*
X142141860Y-75573863D01*
X142257760Y-75326884D01*
X142285587Y-75214349D01*
X144461256Y-75214349D01*
X144575118Y-75494090D01*
X144890296Y-75649961D01*
X145229826Y-75741349D01*
X145580661Y-75764741D01*
X145929319Y-75719240D01*
X146262400Y-75606594D01*
X146472882Y-75494090D01*
X146586744Y-75214349D01*
X145524000Y-74151605D01*
X144461256Y-75214349D01*
X142285587Y-75214349D01*
X142323250Y-75062040D01*
X142335812Y-74789508D01*
X142294965Y-74519762D01*
X142202277Y-74263168D01*
X142141860Y-74150137D01*
X141902993Y-74084612D01*
X141125605Y-74862000D01*
X140766395Y-74862000D01*
X140752253Y-74847858D01*
X140931858Y-74668253D01*
X140946000Y-74682395D01*
X141723388Y-73905007D01*
X141657863Y-73666140D01*
X141410884Y-73550240D01*
X141251488Y-73510825D01*
X141261775Y-73485989D01*
X141315000Y-73218411D01*
X141315000Y-72945589D01*
X141261775Y-72678011D01*
X141157371Y-72425957D01*
X141005799Y-72199114D01*
X140812886Y-72006201D01*
X140586043Y-71854629D01*
X140333989Y-71750225D01*
X140066411Y-71697000D01*
X139793589Y-71697000D01*
X139526011Y-71750225D01*
X139273957Y-71854629D01*
X139047114Y-72006201D01*
X138914000Y-72139315D01*
X138780886Y-72006201D01*
X138554043Y-71854629D01*
X138301989Y-71750225D01*
X138034411Y-71697000D01*
X137761589Y-71697000D01*
X137494011Y-71750225D01*
X137241957Y-71854629D01*
X137015114Y-72006201D01*
X136882000Y-72139315D01*
X136748886Y-72006201D01*
X136522043Y-71854629D01*
X136269989Y-71750225D01*
X136002411Y-71697000D01*
X135729589Y-71697000D01*
X135462011Y-71750225D01*
X135209957Y-71854629D01*
X135083202Y-71939324D01*
X135035185Y-71880815D01*
X134938494Y-71801463D01*
X134828180Y-71742498D01*
X134708482Y-71706188D01*
X134584000Y-71693928D01*
X133084000Y-71693928D01*
X132985931Y-71703587D01*
X133046786Y-71612511D01*
X133217149Y-71201218D01*
X133304000Y-70764591D01*
X133304000Y-70319409D01*
X141484000Y-70319409D01*
X141484000Y-70764591D01*
X141570851Y-71201218D01*
X141741214Y-71612511D01*
X141988544Y-71982666D01*
X142303334Y-72297456D01*
X142673489Y-72544786D01*
X143084782Y-72715149D01*
X143521409Y-72802000D01*
X143966591Y-72802000D01*
X144205882Y-72754402D01*
X144166338Y-72793946D01*
X144281649Y-72909257D01*
X144001910Y-73023118D01*
X143846039Y-73338296D01*
X143754651Y-73677826D01*
X143731259Y-74028661D01*
X143776760Y-74377319D01*
X143889406Y-74710400D01*
X144001910Y-74920882D01*
X144281651Y-75034744D01*
X145344395Y-73972000D01*
X145703605Y-73972000D01*
X146766349Y-75034744D01*
X147046090Y-74920882D01*
X147201961Y-74605704D01*
X147293349Y-74266174D01*
X147305128Y-74089510D01*
X165638155Y-74089510D01*
X165703395Y-74772888D01*
X165900702Y-75430407D01*
X166222494Y-76036799D01*
X166234150Y-76054243D01*
X166687967Y-76372428D01*
X168960395Y-74100000D01*
X169319605Y-74100000D01*
X171592033Y-76372428D01*
X172045850Y-76054243D01*
X172371269Y-75449790D01*
X172572512Y-74793465D01*
X172641845Y-74110490D01*
X172576605Y-73427112D01*
X172379298Y-72769593D01*
X172057506Y-72163201D01*
X172045850Y-72145757D01*
X171592033Y-71827572D01*
X169319605Y-74100000D01*
X168960395Y-74100000D01*
X166687967Y-71827572D01*
X166234150Y-72145757D01*
X165908731Y-72750210D01*
X165707488Y-73406535D01*
X165638155Y-74089510D01*
X147305128Y-74089510D01*
X147316741Y-73915339D01*
X147271240Y-73566681D01*
X147158594Y-73233600D01*
X147046090Y-73023118D01*
X146766349Y-72909256D01*
X145703605Y-73972000D01*
X145344395Y-73972000D01*
X145330253Y-73957858D01*
X145509858Y-73778253D01*
X145524000Y-73792395D01*
X146586744Y-72729651D01*
X146472882Y-72449910D01*
X146157704Y-72294039D01*
X145818174Y-72202651D01*
X145467339Y-72179259D01*
X145278177Y-72203945D01*
X145499456Y-71982666D01*
X145723095Y-71647967D01*
X166867572Y-71647967D01*
X169140000Y-73920395D01*
X171412428Y-71647967D01*
X171094243Y-71194150D01*
X170489790Y-70868731D01*
X169833465Y-70667488D01*
X169150490Y-70598155D01*
X168467112Y-70663395D01*
X167809593Y-70860702D01*
X167203201Y-71182494D01*
X167185757Y-71194150D01*
X166867572Y-71647967D01*
X145723095Y-71647967D01*
X145746786Y-71612511D01*
X145917149Y-71201218D01*
X146004000Y-70764591D01*
X146004000Y-70319409D01*
X145917149Y-69882782D01*
X145746786Y-69471489D01*
X145499456Y-69101334D01*
X145184666Y-68786544D01*
X144814511Y-68539214D01*
X144403218Y-68368851D01*
X143966591Y-68282000D01*
X143521409Y-68282000D01*
X143084782Y-68368851D01*
X142673489Y-68539214D01*
X142303334Y-68786544D01*
X141988544Y-69101334D01*
X141741214Y-69471489D01*
X141570851Y-69882782D01*
X141484000Y-70319409D01*
X133304000Y-70319409D01*
X133217149Y-69882782D01*
X133046786Y-69471489D01*
X132799456Y-69101334D01*
X132484666Y-68786544D01*
X132114511Y-68539214D01*
X131703218Y-68368851D01*
X131266591Y-68282000D01*
X130821409Y-68282000D01*
X130384782Y-68368851D01*
X129973489Y-68539214D01*
X129603334Y-68786544D01*
X129288544Y-69101334D01*
X129041214Y-69471489D01*
X128870851Y-69882782D01*
X128784000Y-70319409D01*
X128784000Y-70764591D01*
X128870851Y-71201218D01*
X129041214Y-71612511D01*
X129288544Y-71982666D01*
X129504982Y-72199104D01*
X129207339Y-72179259D01*
X128858681Y-72224760D01*
X128525600Y-72337406D01*
X128315118Y-72449910D01*
X128201256Y-72729651D01*
X108858103Y-72729651D01*
X108557506Y-72163201D01*
X108545850Y-72145757D01*
X108092033Y-71827572D01*
X105819605Y-74100000D01*
X105460395Y-74100000D01*
X103187967Y-71827572D01*
X102734150Y-72145757D01*
X102408731Y-72750210D01*
X102207488Y-73406535D01*
X102138155Y-74089510D01*
X98705000Y-74089510D01*
X98705000Y-71647967D01*
X103367572Y-71647967D01*
X105640000Y-73920395D01*
X107912428Y-71647967D01*
X107594243Y-71194150D01*
X106989790Y-70868731D01*
X106333465Y-70667488D01*
X105650490Y-70598155D01*
X104967112Y-70663395D01*
X104309593Y-70860702D01*
X103703201Y-71182494D01*
X103685757Y-71194150D01*
X103367572Y-71647967D01*
X98705000Y-71647967D01*
X98705000Y-67165000D01*
X176075000Y-67165000D01*
X176075001Y-131835000D01*
G37*
G04 #@! TD.AperFunction*
M02*
