%FSLAX45Y45*%
G04 Gerber Fmt 4.5, Leading zero omitted, Abs format (unit mm)*
G04 Created by KiCad (PCBNEW (5.1.10)-1) date 2021-10-29 16:40:03*
%MOMM*%
%LPD*%
G01*
G04 APERTURE LIST*
%TA.AperFunction,Profile*%
%ADD10C,0.100000*%
%TD*%
%ADD11C,0.200000*%
%ADD12C,0.300000*%
G04 APERTURE END LIST*
D10*
X21740000Y-7156000D02*
X21486000Y-7156000D01*
X21740000Y-15792000D02*
X21740000Y-7156000D01*
X9548000Y-15792000D02*
X21740000Y-15792000D01*
X9548000Y-7156000D02*
X9548000Y-15792000D01*
X21486000Y-7156000D02*
X9548000Y-7156000D01*
D11*
X11009870Y-10519790D02*
X11050510Y-10560430D01*
X11050510Y-10519790D02*
X11009870Y-10560430D01*
X11453770Y-7573200D02*
X11494410Y-7613840D01*
X11494410Y-7573200D02*
X11453770Y-7613840D01*
X12798350Y-10640880D02*
X12838990Y-10681520D01*
X12838990Y-10640880D02*
X12798350Y-10681520D01*
X13591680Y-12774480D02*
X13632320Y-12815120D01*
X13632320Y-12774480D02*
X13591680Y-12815120D01*
X13617080Y-11809280D02*
X13657720Y-11849920D01*
X13657720Y-11809280D02*
X13617080Y-11849920D01*
X13921880Y-10107480D02*
X13962520Y-10148120D01*
X13962520Y-10107480D02*
X13921880Y-10148120D01*
X13998080Y-11504480D02*
X14038720Y-11545120D01*
X14038720Y-11504480D02*
X13998080Y-11545120D01*
X14150480Y-9599480D02*
X14191120Y-9640120D01*
X14191120Y-9599480D02*
X14150480Y-9640120D01*
X14413480Y-13515730D02*
X14454120Y-13556370D01*
X14454120Y-13515730D02*
X14413480Y-13556370D01*
X14428800Y-14349280D02*
X14469440Y-14389920D01*
X14469440Y-14349280D02*
X14428800Y-14389920D01*
X14540680Y-8899680D02*
X14581320Y-8940320D01*
X14581320Y-8899680D02*
X14540680Y-8940320D01*
X14540680Y-9289680D02*
X14581320Y-9330320D01*
X14581320Y-9289680D02*
X14540680Y-9330320D01*
X14861680Y-9091480D02*
X14902320Y-9132120D01*
X14902320Y-9091480D02*
X14861680Y-9132120D01*
X15191880Y-9955080D02*
X15232520Y-9995720D01*
X15232520Y-9955080D02*
X15191880Y-9995720D01*
X15401680Y-7713280D02*
X15442320Y-7753920D01*
X15442320Y-7713280D02*
X15401680Y-7753920D01*
X15402290Y-13715480D02*
X15442930Y-13756120D01*
X15442930Y-13715480D02*
X15402290Y-13756120D01*
X15420480Y-7846880D02*
X15461120Y-7887520D01*
X15461120Y-7846880D02*
X15420480Y-7887520D01*
X15420480Y-7948480D02*
X15461120Y-7989120D01*
X15461120Y-7948480D02*
X15420480Y-7989120D01*
X15420480Y-8354880D02*
X15461120Y-8395520D01*
X15461120Y-8354880D02*
X15420480Y-8395520D01*
X15484480Y-7630480D02*
X15525120Y-7671120D01*
X15525120Y-7630480D02*
X15484480Y-7671120D01*
X15496680Y-9802680D02*
X15537320Y-9843320D01*
X15537320Y-9802680D02*
X15496680Y-9843320D01*
X15508880Y-11288080D02*
X15549520Y-11328720D01*
X15549520Y-11288080D02*
X15508880Y-11328720D01*
X15591680Y-11180880D02*
X15632320Y-11221520D01*
X15632320Y-11180880D02*
X15591680Y-11221520D01*
X15617280Y-11447280D02*
X15657920Y-11487920D01*
X15657920Y-11447280D02*
X15617280Y-11487920D01*
X15643380Y-8233580D02*
X15684020Y-8274220D01*
X15684020Y-8233580D02*
X15643380Y-8274220D01*
X15718680Y-11307880D02*
X15759320Y-11348520D01*
X15759320Y-11307880D02*
X15718680Y-11348520D01*
X15789280Y-7630480D02*
X15829920Y-7671120D01*
X15829920Y-7630480D02*
X15789280Y-7671120D01*
X15795780Y-8233580D02*
X15836420Y-8274220D01*
X15836420Y-8233580D02*
X15795780Y-8274220D01*
X15871280Y-11447280D02*
X15911920Y-11487920D01*
X15911920Y-11447280D02*
X15871280Y-11487920D01*
X15909480Y-11574280D02*
X15950120Y-11614920D01*
X15950120Y-11574280D02*
X15909480Y-11614920D01*
X15948180Y-8233580D02*
X15988820Y-8274220D01*
X15988820Y-8233580D02*
X15948180Y-8274220D01*
X16036480Y-11701280D02*
X16077120Y-11741920D01*
X16077120Y-11701280D02*
X16036480Y-11741920D01*
X16049780Y-8233580D02*
X16090420Y-8274220D01*
X16090420Y-8233580D02*
X16049780Y-8274220D01*
X16121680Y-15198680D02*
X16162320Y-15239320D01*
X16162320Y-15198680D02*
X16121680Y-15239320D01*
X16151380Y-8233580D02*
X16192020Y-8274220D01*
X16192020Y-8233580D02*
X16151380Y-8274220D01*
X16160280Y-11577480D02*
X16200920Y-11618120D01*
X16200920Y-11577480D02*
X16160280Y-11618120D01*
X16182480Y-11809280D02*
X16223120Y-11849920D01*
X16223120Y-11809280D02*
X16182480Y-11849920D01*
X16208680Y-14844680D02*
X16249320Y-14885320D01*
X16249320Y-14844680D02*
X16208680Y-14885320D01*
X16233280Y-9726480D02*
X16273920Y-9767120D01*
X16273920Y-9726480D02*
X16233280Y-9767120D01*
X16233280Y-10132880D02*
X16273920Y-10173520D01*
X16273920Y-10132880D02*
X16233280Y-10173520D01*
X16252980Y-8233580D02*
X16293620Y-8274220D01*
X16293620Y-8233580D02*
X16252980Y-8274220D01*
X16261880Y-11679080D02*
X16302520Y-11719720D01*
X16302520Y-11679080D02*
X16261880Y-11719720D01*
X16338080Y-11755280D02*
X16378720Y-11795920D01*
X16378720Y-11755280D02*
X16338080Y-11795920D01*
X16407680Y-10466480D02*
X16448320Y-10507120D01*
X16448320Y-10466480D02*
X16407680Y-10507120D01*
X16482080Y-11956480D02*
X16522720Y-11997120D01*
X16522720Y-11956480D02*
X16482080Y-11997120D01*
X16563480Y-11275880D02*
X16604120Y-11316520D01*
X16604120Y-11275880D02*
X16563480Y-11316520D01*
X16585480Y-10644280D02*
X16626120Y-10684920D01*
X16626120Y-10644280D02*
X16585480Y-10684920D01*
X16696080Y-11041680D02*
X16736720Y-11082320D01*
X16736720Y-11041680D02*
X16696080Y-11082320D01*
X16792080Y-7897680D02*
X16832720Y-7938320D01*
X16832720Y-7897680D02*
X16792080Y-7938320D01*
X16823080Y-11168680D02*
X16863720Y-11209320D01*
X16863720Y-11168680D02*
X16823080Y-11209320D01*
X16842880Y-7846880D02*
X16883520Y-7887520D01*
X16883520Y-7846880D02*
X16842880Y-7887520D01*
X16870680Y-8230280D02*
X16911320Y-8270920D01*
X16911320Y-8230280D02*
X16870680Y-8270920D01*
X16944480Y-11199680D02*
X16985120Y-11240320D01*
X16985120Y-11199680D02*
X16944480Y-11240320D01*
X16995280Y-15416080D02*
X17035920Y-15456720D01*
X17035920Y-15416080D02*
X16995280Y-15456720D01*
X17065780Y-15359580D02*
X17106420Y-15400220D01*
X17106420Y-15359580D02*
X17065780Y-15400220D01*
X17187080Y-15238280D02*
X17227720Y-15278920D01*
X17227720Y-15238280D02*
X17187080Y-15278920D01*
X17274680Y-15238280D02*
X17315320Y-15278920D01*
X17315320Y-15238280D02*
X17274680Y-15278920D01*
X17554080Y-15238280D02*
X17594720Y-15278920D01*
X17594720Y-15238280D02*
X17554080Y-15278920D01*
X17606010Y-10558100D02*
X17646650Y-10598740D01*
X17646650Y-10558100D02*
X17606010Y-10598740D01*
X17736970Y-10856590D02*
X17777610Y-10897230D01*
X17777610Y-10856590D02*
X17736970Y-10897230D01*
X18011280Y-14882680D02*
X18051920Y-14923320D01*
X18051920Y-14882680D02*
X18011280Y-14923320D01*
X18126420Y-14866150D02*
X18167060Y-14906790D01*
X18167060Y-14866150D02*
X18126420Y-14906790D01*
X18138280Y-11758480D02*
X18178920Y-11799120D01*
X18178920Y-11758480D02*
X18138280Y-11799120D01*
X18189080Y-15568480D02*
X18229720Y-15609120D01*
X18229720Y-15568480D02*
X18189080Y-15609120D01*
X18290680Y-8507280D02*
X18331320Y-8547920D01*
X18331320Y-8507280D02*
X18290680Y-8547920D01*
X18366880Y-8989880D02*
X18407520Y-9030520D01*
X18407520Y-8989880D02*
X18366880Y-9030520D01*
X18544680Y-8710480D02*
X18585320Y-8751120D01*
X18585320Y-8710480D02*
X18544680Y-8751120D01*
X18544680Y-11758480D02*
X18585320Y-11799120D01*
X18585320Y-11758480D02*
X18544680Y-11799120D01*
X18639800Y-9183280D02*
X18680440Y-9223920D01*
X18680440Y-9183280D02*
X18639800Y-9223920D01*
X19060670Y-9071490D02*
X19101310Y-9112130D01*
X19101310Y-9071490D02*
X19060670Y-9112130D01*
X19136900Y-13183280D02*
X19177540Y-13223920D01*
X19177540Y-13183280D02*
X19136900Y-13223920D01*
X19682420Y-9561490D02*
X19723060Y-9602130D01*
X19723060Y-9561490D02*
X19682420Y-9602130D01*
X20037130Y-14247680D02*
X20077770Y-14288320D01*
X20077770Y-14247680D02*
X20037130Y-14288320D01*
X20703680Y-8913680D02*
X20744320Y-8954320D01*
X20744320Y-8913680D02*
X20703680Y-8954320D01*
X10947100Y-11169200D02*
G75*
G03*
X10947100Y-11169200I-27500J0D01*
G01*
X10947100Y-11296200D02*
G75*
G03*
X10947100Y-11296200I-27500J0D01*
G01*
X10947100Y-11423200D02*
G75*
G03*
X10947100Y-11423200I-27500J0D01*
G01*
X10997900Y-7918000D02*
G75*
G03*
X10997900Y-7918000I-27500J0D01*
G01*
X10997900Y-8045000D02*
G75*
G03*
X10997900Y-8045000I-27500J0D01*
G01*
X10997900Y-8172000D02*
G75*
G03*
X10997900Y-8172000I-27500J0D01*
G01*
X14905400Y-11283500D02*
X14905400Y-11359700D01*
X14867300Y-11321600D02*
X14943500Y-11321600D01*
X14905400Y-11537500D02*
X14905400Y-11613700D01*
X14867300Y-11575600D02*
X14943500Y-11575600D01*
X14905400Y-11791500D02*
X14905400Y-11867700D01*
X14867300Y-11829600D02*
X14943500Y-11829600D01*
X14905400Y-12045500D02*
X14905400Y-12121700D01*
X14867300Y-12083600D02*
X14943500Y-12083600D01*
X14905400Y-12299500D02*
X14905400Y-12375700D01*
X14867300Y-12337600D02*
X14943500Y-12337600D01*
X14905400Y-12553500D02*
X14905400Y-12629700D01*
X14867300Y-12591600D02*
X14943500Y-12591600D01*
X14905400Y-12807500D02*
X14905400Y-12883700D01*
X14867300Y-12845600D02*
X14943500Y-12845600D01*
X14905400Y-13061500D02*
X14905400Y-13137700D01*
X14867300Y-13099600D02*
X14943500Y-13099600D01*
X14905400Y-13315500D02*
X14905400Y-13391700D01*
X14867300Y-13353600D02*
X14943500Y-13353600D01*
X14905400Y-13569500D02*
X14905400Y-13645700D01*
X14867300Y-13607600D02*
X14943500Y-13607600D01*
X14905400Y-13823500D02*
X14905400Y-13899700D01*
X14867300Y-13861600D02*
X14943500Y-13861600D01*
X14905400Y-14077500D02*
X14905400Y-14153700D01*
X14867300Y-14115600D02*
X14943500Y-14115600D01*
X14905400Y-14331500D02*
X14905400Y-14407700D01*
X14867300Y-14369600D02*
X14943500Y-14369600D01*
X14905400Y-14585500D02*
X14905400Y-14661700D01*
X14867300Y-14623600D02*
X14943500Y-14623600D01*
X14905400Y-14839500D02*
X14905400Y-14915700D01*
X14867300Y-14877600D02*
X14943500Y-14877600D01*
X15517200Y-13210700D02*
X15517200Y-13286900D01*
X15479100Y-13248800D02*
X15555300Y-13248800D01*
X15517200Y-15510700D02*
X15517200Y-15586900D01*
X15479100Y-15548800D02*
X15555300Y-15548800D01*
X15867200Y-13210700D02*
X15867200Y-13286900D01*
X15829100Y-13248800D02*
X15905300Y-13248800D01*
X16567200Y-13210700D02*
X16567200Y-13286900D01*
X16529100Y-13248800D02*
X16605300Y-13248800D01*
X16917200Y-13210700D02*
X16917200Y-13286900D01*
X16879100Y-13248800D02*
X16955300Y-13248800D01*
X16917200Y-15510700D02*
X16917200Y-15586900D01*
X16879100Y-15548800D02*
X16955300Y-15548800D01*
X17455400Y-11283500D02*
X17455400Y-11359700D01*
X17417300Y-11321600D02*
X17493500Y-11321600D01*
X17455400Y-11537500D02*
X17455400Y-11613700D01*
X17417300Y-11575600D02*
X17493500Y-11575600D01*
X17455400Y-11791500D02*
X17455400Y-11867700D01*
X17417300Y-11829600D02*
X17493500Y-11829600D01*
X17455400Y-12045500D02*
X17455400Y-12121700D01*
X17417300Y-12083600D02*
X17493500Y-12083600D01*
X17455400Y-12299500D02*
X17455400Y-12375700D01*
X17417300Y-12337600D02*
X17493500Y-12337600D01*
X17455400Y-12553500D02*
X17455400Y-12629700D01*
X17417300Y-12591600D02*
X17493500Y-12591600D01*
X17455400Y-12807500D02*
X17455400Y-12883700D01*
X17417300Y-12845600D02*
X17493500Y-12845600D01*
X17455400Y-13061500D02*
X17455400Y-13137700D01*
X17417300Y-13099600D02*
X17493500Y-13099600D01*
X17455400Y-13315500D02*
X17455400Y-13391700D01*
X17417300Y-13353600D02*
X17493500Y-13353600D01*
X17455400Y-13569500D02*
X17455400Y-13645700D01*
X17417300Y-13607600D02*
X17493500Y-13607600D01*
X17455400Y-13823500D02*
X17455400Y-13899700D01*
X17417300Y-13861600D02*
X17493500Y-13861600D01*
X17455400Y-14077500D02*
X17455400Y-14153700D01*
X17417300Y-14115600D02*
X17493500Y-14115600D01*
X17455400Y-14331500D02*
X17455400Y-14407700D01*
X17417300Y-14369600D02*
X17493500Y-14369600D01*
X17455400Y-14585500D02*
X17455400Y-14661700D01*
X17417300Y-14623600D02*
X17493500Y-14623600D01*
X17455400Y-14839500D02*
X17455400Y-14915700D01*
X17417300Y-14877600D02*
X17493500Y-14877600D01*
X19078467Y-14528467D02*
X19078467Y-14465533D01*
X19015533Y-14465533D01*
X19015533Y-14528467D01*
X19078467Y-14528467D01*
X19079267Y-8482467D02*
X19079267Y-8419533D01*
X19016333Y-8419533D01*
X19016333Y-8482467D01*
X19079267Y-8482467D01*
X19307467Y-14528467D02*
X19307467Y-14465533D01*
X19244533Y-14465533D01*
X19244533Y-14528467D01*
X19307467Y-14528467D01*
X19308267Y-8482467D02*
X19308267Y-8419533D01*
X19245333Y-8419533D01*
X19245333Y-8482467D01*
X19308267Y-8482467D01*
X19409267Y-7822467D02*
X19409267Y-7759533D01*
X19346333Y-7759533D01*
X19346333Y-7822467D01*
X19409267Y-7822467D01*
X19409267Y-15010467D02*
X19409267Y-14947533D01*
X19346333Y-14947533D01*
X19346333Y-15010467D01*
X19409267Y-15010467D01*
X19510867Y-8000467D02*
X19510867Y-7937533D01*
X19447933Y-7937533D01*
X19447933Y-8000467D01*
X19510867Y-8000467D01*
X19510867Y-15188467D02*
X19510867Y-15125533D01*
X19447933Y-15125533D01*
X19447933Y-15188467D01*
X19510867Y-15188467D01*
X19612467Y-7822467D02*
X19612467Y-7759533D01*
X19549533Y-7759533D01*
X19549533Y-7822467D01*
X19612467Y-7822467D01*
X19612467Y-15010467D02*
X19612467Y-14947533D01*
X19549533Y-14947533D01*
X19549533Y-15010467D01*
X19612467Y-15010467D01*
X19714067Y-8000467D02*
X19714067Y-7937533D01*
X19651133Y-7937533D01*
X19651133Y-8000467D01*
X19714067Y-8000467D01*
X19714067Y-15188467D02*
X19714067Y-15125533D01*
X19651133Y-15125533D01*
X19651133Y-15188467D01*
X19714067Y-15188467D01*
X19815667Y-7822467D02*
X19815667Y-7759533D01*
X19752733Y-7759533D01*
X19752733Y-7822467D01*
X19815667Y-7822467D01*
X19815667Y-15010467D02*
X19815667Y-14947533D01*
X19752733Y-14947533D01*
X19752733Y-15010467D01*
X19815667Y-15010467D01*
X19917267Y-8000467D02*
X19917267Y-7937533D01*
X19854333Y-7937533D01*
X19854333Y-8000467D01*
X19917267Y-8000467D01*
X19917267Y-15188467D02*
X19917267Y-15125533D01*
X19854333Y-15125533D01*
X19854333Y-15188467D01*
X19917267Y-15188467D01*
X20018867Y-7822467D02*
X20018867Y-7759533D01*
X19955933Y-7759533D01*
X19955933Y-7822467D01*
X20018867Y-7822467D01*
X20018867Y-15010467D02*
X20018867Y-14947533D01*
X19955933Y-14947533D01*
X19955933Y-15010467D01*
X20018867Y-15010467D01*
X20120467Y-8000467D02*
X20120467Y-7937533D01*
X20057533Y-7937533D01*
X20057533Y-8000467D01*
X20120467Y-8000467D01*
X20120467Y-15188467D02*
X20120467Y-15125533D01*
X20057533Y-15125533D01*
X20057533Y-15188467D01*
X20120467Y-15188467D01*
X20221467Y-14528467D02*
X20221467Y-14465533D01*
X20158533Y-14465533D01*
X20158533Y-14528467D01*
X20221467Y-14528467D01*
X20222267Y-8482467D02*
X20222267Y-8419533D01*
X20159333Y-8419533D01*
X20159333Y-8482467D01*
X20222267Y-8482467D01*
X20450467Y-14528467D02*
X20450467Y-14465533D01*
X20387533Y-14465533D01*
X20387533Y-14528467D01*
X20450467Y-14528467D01*
X20451267Y-8482467D02*
X20451267Y-8419533D01*
X20388333Y-8419533D01*
X20388333Y-8482467D01*
X20451267Y-8482467D01*
X13256400Y-11879600D02*
X13306400Y-11829600D01*
X13256400Y-11779600D01*
X13206400Y-11829600D01*
X13256400Y-11879600D01*
X13256400Y-12133600D02*
X13306400Y-12083600D01*
X13256400Y-12033600D01*
X13206400Y-12083600D01*
X13256400Y-12133600D01*
X13256400Y-12743200D02*
X13306400Y-12693200D01*
X13256400Y-12643200D01*
X13206400Y-12693200D01*
X13256400Y-12743200D01*
X13256400Y-12997200D02*
X13306400Y-12947200D01*
X13256400Y-12897200D01*
X13206400Y-12947200D01*
X13256400Y-12997200D01*
X13256400Y-13251200D02*
X13306400Y-13201200D01*
X13256400Y-13151200D01*
X13206400Y-13201200D01*
X13256400Y-13251200D01*
X13306000Y-9547000D02*
X13356000Y-9497000D01*
X13306000Y-9447000D01*
X13256000Y-9497000D01*
X13306000Y-9547000D01*
X13306000Y-9801000D02*
X13356000Y-9751000D01*
X13306000Y-9701000D01*
X13256000Y-9751000D01*
X13306000Y-9801000D01*
X13306000Y-10055000D02*
X13356000Y-10005000D01*
X13306000Y-9955000D01*
X13256000Y-10005000D01*
X13306000Y-10055000D01*
X13307200Y-8679200D02*
X13357200Y-8629200D01*
X13307200Y-8579200D01*
X13257200Y-8629200D01*
X13307200Y-8679200D01*
X13307200Y-8933200D02*
X13357200Y-8883200D01*
X13307200Y-8833200D01*
X13257200Y-8883200D01*
X13307200Y-8933200D01*
X14577200Y-14826000D02*
X14627200Y-14776000D01*
X14577200Y-14726000D01*
X14527200Y-14776000D01*
X14577200Y-14826000D01*
X14983600Y-8323600D02*
X15033600Y-8273600D01*
X14983600Y-8223600D01*
X14933600Y-8273600D01*
X14983600Y-8323600D01*
X14983600Y-8730000D02*
X15033600Y-8680000D01*
X14983600Y-8630000D01*
X14933600Y-8680000D01*
X14983600Y-8730000D01*
X15440800Y-8272800D02*
X15490800Y-8222800D01*
X15440800Y-8172800D01*
X15390800Y-8222800D01*
X15440800Y-8272800D01*
X16050400Y-12540000D02*
X16100400Y-12490000D01*
X16050400Y-12440000D01*
X16000400Y-12490000D01*
X16050400Y-12540000D01*
X16050400Y-12794000D02*
X16100400Y-12744000D01*
X16050400Y-12694000D01*
X16000400Y-12744000D01*
X16050400Y-12794000D01*
X16202800Y-12133600D02*
X16252800Y-12083600D01*
X16202800Y-12033600D01*
X16152800Y-12083600D01*
X16202800Y-12133600D01*
X16609200Y-12540000D02*
X16659200Y-12490000D01*
X16609200Y-12440000D01*
X16559200Y-12490000D01*
X16609200Y-12540000D01*
X17345800Y-15562600D02*
X17395800Y-15512600D01*
X17345800Y-15462600D01*
X17295800Y-15512600D01*
X17345800Y-15562600D01*
X17599800Y-15562600D02*
X17649800Y-15512600D01*
X17599800Y-15462600D01*
X17549800Y-15512600D01*
X17599800Y-15562600D01*
X13709400Y-13908200D02*
X13819400Y-14018200D01*
X13819400Y-13908200D02*
X13709400Y-14018200D01*
X13819400Y-13963200D02*
G75*
G03*
X13819400Y-13963200I-55000J0D01*
G01*
X13709400Y-14162200D02*
X13819400Y-14272200D01*
X13819400Y-14162200D02*
X13709400Y-14272200D01*
X13819400Y-14217200D02*
G75*
G03*
X13819400Y-14217200I-55000J0D01*
G01*
X13709400Y-14416200D02*
X13819400Y-14526200D01*
X13819400Y-14416200D02*
X13709400Y-14526200D01*
X13819400Y-14471200D02*
G75*
G03*
X13819400Y-14471200I-55000J0D01*
G01*
X12580500Y-9176500D02*
X12709500Y-9305500D01*
X12709500Y-9176500D02*
X12580500Y-9305500D01*
X12645000Y-9176500D02*
X12645000Y-9305500D01*
X12580500Y-9241000D02*
X12709500Y-9241000D01*
X12633500Y-12474500D02*
X12762500Y-12603500D01*
X12762500Y-12474500D02*
X12633500Y-12603500D01*
X12698000Y-12474500D02*
X12698000Y-12603500D01*
X12633500Y-12539000D02*
X12762500Y-12539000D01*
X11159000Y-8575000D02*
X11291000Y-8707000D01*
X11291000Y-8575000D02*
X11159000Y-8707000D01*
X11271669Y-8687670D02*
X11271669Y-8594331D01*
X11178331Y-8594331D01*
X11178331Y-8687670D01*
X11271669Y-8687670D01*
X11159000Y-9775000D02*
X11291000Y-9907000D01*
X11291000Y-9775000D02*
X11159000Y-9907000D01*
X11271669Y-9887670D02*
X11271669Y-9794331D01*
X11178331Y-9794331D01*
X11178331Y-9887670D01*
X11271669Y-9887670D01*
X11212000Y-11873000D02*
X11344000Y-12005000D01*
X11344000Y-11873000D02*
X11212000Y-12005000D01*
X11324669Y-11985669D02*
X11324669Y-11892330D01*
X11231330Y-11892330D01*
X11231330Y-11985669D01*
X11324669Y-11985669D01*
X11212000Y-13073000D02*
X11344000Y-13205000D01*
X11344000Y-13073000D02*
X11212000Y-13205000D01*
X11324669Y-13185669D02*
X11324669Y-13092330D01*
X11231330Y-13092330D01*
X11231330Y-13185669D01*
X11324669Y-13185669D01*
X12379000Y-8575000D02*
X12511000Y-8707000D01*
X12511000Y-8575000D02*
X12379000Y-8707000D01*
X12491669Y-8687670D02*
X12491669Y-8594331D01*
X12398330Y-8594331D01*
X12398330Y-8687670D01*
X12491669Y-8687670D01*
X12379000Y-9775000D02*
X12511000Y-9907000D01*
X12511000Y-9775000D02*
X12379000Y-9907000D01*
X12491669Y-9887670D02*
X12491669Y-9794331D01*
X12398330Y-9794331D01*
X12398330Y-9887670D01*
X12491669Y-9887670D01*
X12432000Y-11873000D02*
X12564000Y-12005000D01*
X12564000Y-11873000D02*
X12432000Y-12005000D01*
X12544669Y-11985669D02*
X12544669Y-11892330D01*
X12451330Y-11892330D01*
X12451330Y-11985669D01*
X12544669Y-11985669D01*
X12432000Y-13073000D02*
X12564000Y-13205000D01*
X12564000Y-13073000D02*
X12432000Y-13205000D01*
X12544669Y-13185669D02*
X12544669Y-13092330D01*
X12451330Y-13092330D01*
X12451330Y-13185669D01*
X12544669Y-13185669D01*
X18841500Y-14989500D02*
X18998500Y-15146500D01*
X18998500Y-14989500D02*
X18841500Y-15146500D01*
X18920000Y-15146500D02*
X18998500Y-15068000D01*
X18920000Y-14989500D01*
X18841500Y-15068000D01*
X18920000Y-15146500D01*
X18842300Y-7801500D02*
X18999300Y-7958500D01*
X18999300Y-7801500D02*
X18842300Y-7958500D01*
X18920800Y-7958500D02*
X18999300Y-7880000D01*
X18920800Y-7801500D01*
X18842300Y-7880000D01*
X18920800Y-7958500D01*
X20467500Y-14989500D02*
X20624500Y-15146500D01*
X20624500Y-14989500D02*
X20467500Y-15146500D01*
X20546000Y-15146500D02*
X20624500Y-15068000D01*
X20546000Y-14989500D01*
X20467500Y-15068000D01*
X20546000Y-15146500D01*
X20468300Y-7801500D02*
X20625300Y-7958500D01*
X20625300Y-7801500D02*
X20468300Y-7958500D01*
X20546800Y-7958500D02*
X20625300Y-7880000D01*
X20546800Y-7801500D01*
X20468300Y-7880000D01*
X20546800Y-7958500D01*
X11869200Y-14456700D02*
X11869200Y-14621700D01*
X11786700Y-14539200D02*
X11951700Y-14539200D01*
X11951700Y-14539200D02*
G75*
G03*
X11951700Y-14539200I-82500J0D01*
G01*
X11869200Y-15147700D02*
X11869200Y-15312700D01*
X11786700Y-15230200D02*
X11951700Y-15230200D01*
X11951700Y-15230200D02*
G75*
G03*
X11951700Y-15230200I-82500J0D01*
G01*
X12329200Y-14456700D02*
X12329200Y-14621700D01*
X12246700Y-14539200D02*
X12411700Y-14539200D01*
X12411700Y-14539200D02*
G75*
G03*
X12411700Y-14539200I-82500J0D01*
G01*
X12329200Y-15147700D02*
X12329200Y-15312700D01*
X12246700Y-15230200D02*
X12411700Y-15230200D01*
X12411700Y-15230200D02*
G75*
G03*
X12411700Y-15230200I-82500J0D01*
G01*
X12789200Y-14456700D02*
X12789200Y-14621700D01*
X12706700Y-14539200D02*
X12871700Y-14539200D01*
X12871700Y-14539200D02*
G75*
G03*
X12871700Y-14539200I-82500J0D01*
G01*
X12789200Y-15147700D02*
X12789200Y-15312700D01*
X12706700Y-15230200D02*
X12871700Y-15230200D01*
X12871700Y-15230200D02*
G75*
G03*
X12871700Y-15230200I-82500J0D01*
G01*
X13929976Y-9829976D02*
X13929976Y-9695624D01*
X13795624Y-9695624D01*
X13795624Y-9829976D01*
X13929976Y-9829976D01*
X13957800Y-9762800D02*
G75*
G03*
X13957800Y-9762800I-95000J0D01*
G01*
X21429976Y-9829976D02*
X21429976Y-9695624D01*
X21295624Y-9695624D01*
X21295624Y-9829976D01*
X21429976Y-9829976D01*
X21457800Y-9762800D02*
G75*
G03*
X21457800Y-9762800I-95000J0D01*
G01*
X10056000Y-7874800D02*
X10216000Y-7714800D01*
X10056000Y-7554800D01*
X9896000Y-7714800D01*
X10056000Y-7874800D01*
X10216000Y-7714800D02*
G75*
G03*
X10216000Y-7714800I-160000J0D01*
G01*
X10056000Y-15494800D02*
X10216000Y-15334800D01*
X10056000Y-15174800D01*
X9896000Y-15334800D01*
X10056000Y-15494800D01*
X10216000Y-15334800D02*
G75*
G03*
X10216000Y-15334800I-160000J0D01*
G01*
X21232000Y-7824000D02*
X21392000Y-7664000D01*
X21232000Y-7504000D01*
X21072000Y-7664000D01*
X21232000Y-7824000D01*
X21392000Y-7664000D02*
G75*
G03*
X21392000Y-7664000I-160000J0D01*
G01*
X21232000Y-15444000D02*
X21392000Y-15284000D01*
X21232000Y-15124000D01*
X21072000Y-15284000D01*
X21232000Y-15444000D01*
X21392000Y-15284000D02*
G75*
G03*
X21392000Y-15284000I-160000J0D01*
G01*
D12*
X9829428Y-16262714D02*
X9829428Y-15962714D01*
X9900857Y-15962714D01*
X9943714Y-15977000D01*
X9972286Y-16005571D01*
X9986571Y-16034143D01*
X10000857Y-16091286D01*
X10000857Y-16134143D01*
X9986571Y-16191286D01*
X9972286Y-16219857D01*
X9943714Y-16248429D01*
X9900857Y-16262714D01*
X9829428Y-16262714D01*
X10129428Y-16262714D02*
X10129428Y-16062714D01*
X10129428Y-16119857D02*
X10143714Y-16091286D01*
X10158000Y-16077000D01*
X10186571Y-16062714D01*
X10215143Y-16062714D01*
X10315143Y-16262714D02*
X10315143Y-16062714D01*
X10315143Y-15962714D02*
X10300857Y-15977000D01*
X10315143Y-15991286D01*
X10329428Y-15977000D01*
X10315143Y-15962714D01*
X10315143Y-15991286D01*
X10500857Y-16262714D02*
X10472286Y-16248429D01*
X10458000Y-16219857D01*
X10458000Y-15962714D01*
X10658000Y-16262714D02*
X10629428Y-16248429D01*
X10615143Y-16219857D01*
X10615143Y-15962714D01*
X11000857Y-16262714D02*
X11000857Y-15962714D01*
X11100857Y-16177000D01*
X11200857Y-15962714D01*
X11200857Y-16262714D01*
X11472286Y-16262714D02*
X11472286Y-16105571D01*
X11458000Y-16077000D01*
X11429428Y-16062714D01*
X11372286Y-16062714D01*
X11343714Y-16077000D01*
X11472286Y-16248429D02*
X11443714Y-16262714D01*
X11372286Y-16262714D01*
X11343714Y-16248429D01*
X11329428Y-16219857D01*
X11329428Y-16191286D01*
X11343714Y-16162714D01*
X11372286Y-16148429D01*
X11443714Y-16148429D01*
X11472286Y-16134143D01*
X11615143Y-16062714D02*
X11615143Y-16362714D01*
X11615143Y-16077000D02*
X11643714Y-16062714D01*
X11700857Y-16062714D01*
X11729428Y-16077000D01*
X11743714Y-16091286D01*
X11758000Y-16119857D01*
X11758000Y-16205571D01*
X11743714Y-16234143D01*
X11729428Y-16248429D01*
X11700857Y-16262714D01*
X11643714Y-16262714D01*
X11615143Y-16248429D01*
X11886571Y-16234143D02*
X11900857Y-16248429D01*
X11886571Y-16262714D01*
X11872286Y-16248429D01*
X11886571Y-16234143D01*
X11886571Y-16262714D01*
X11886571Y-16077000D02*
X11900857Y-16091286D01*
X11886571Y-16105571D01*
X11872286Y-16091286D01*
X11886571Y-16077000D01*
X11886571Y-16105571D01*
X9502360Y-16736680D02*
X9543000Y-16777320D01*
X9543000Y-16736680D02*
X9502360Y-16777320D01*
X9886571Y-16592714D02*
X9915143Y-16592714D01*
X9943714Y-16607000D01*
X9958000Y-16621286D01*
X9972286Y-16649857D01*
X9986571Y-16707000D01*
X9986571Y-16778429D01*
X9972286Y-16835572D01*
X9958000Y-16864143D01*
X9943714Y-16878429D01*
X9915143Y-16892714D01*
X9886571Y-16892714D01*
X9858000Y-16878429D01*
X9843714Y-16864143D01*
X9829428Y-16835572D01*
X9815143Y-16778429D01*
X9815143Y-16707000D01*
X9829428Y-16649857D01*
X9843714Y-16621286D01*
X9858000Y-16607000D01*
X9886571Y-16592714D01*
X10115143Y-16864143D02*
X10129428Y-16878429D01*
X10115143Y-16892714D01*
X10100857Y-16878429D01*
X10115143Y-16864143D01*
X10115143Y-16892714D01*
X10386571Y-16692714D02*
X10386571Y-16892714D01*
X10315143Y-16578429D02*
X10243714Y-16792714D01*
X10429428Y-16792714D01*
X10600857Y-16592714D02*
X10629428Y-16592714D01*
X10658000Y-16607000D01*
X10672286Y-16621286D01*
X10686571Y-16649857D01*
X10700857Y-16707000D01*
X10700857Y-16778429D01*
X10686571Y-16835572D01*
X10672286Y-16864143D01*
X10658000Y-16878429D01*
X10629428Y-16892714D01*
X10600857Y-16892714D01*
X10572286Y-16878429D01*
X10558000Y-16864143D01*
X10543714Y-16835572D01*
X10529428Y-16778429D01*
X10529428Y-16707000D01*
X10543714Y-16649857D01*
X10558000Y-16621286D01*
X10572286Y-16607000D01*
X10600857Y-16592714D01*
X10958000Y-16592714D02*
X10900857Y-16592714D01*
X10872286Y-16607000D01*
X10858000Y-16621286D01*
X10829428Y-16664143D01*
X10815143Y-16721286D01*
X10815143Y-16835572D01*
X10829428Y-16864143D01*
X10843714Y-16878429D01*
X10872286Y-16892714D01*
X10929428Y-16892714D01*
X10958000Y-16878429D01*
X10972286Y-16864143D01*
X10986571Y-16835572D01*
X10986571Y-16764143D01*
X10972286Y-16735571D01*
X10958000Y-16721286D01*
X10929428Y-16707000D01*
X10872286Y-16707000D01*
X10843714Y-16721286D01*
X10829428Y-16735571D01*
X10815143Y-16764143D01*
X11115143Y-16892714D02*
X11115143Y-16692714D01*
X11115143Y-16721286D02*
X11129428Y-16707000D01*
X11158000Y-16692714D01*
X11200857Y-16692714D01*
X11229428Y-16707000D01*
X11243714Y-16735571D01*
X11243714Y-16892714D01*
X11243714Y-16735571D02*
X11258000Y-16707000D01*
X11286571Y-16692714D01*
X11329428Y-16692714D01*
X11358000Y-16707000D01*
X11372286Y-16735571D01*
X11372286Y-16892714D01*
X11515143Y-16892714D02*
X11515143Y-16692714D01*
X11515143Y-16721286D02*
X11529428Y-16707000D01*
X11558000Y-16692714D01*
X11600857Y-16692714D01*
X11629428Y-16707000D01*
X11643714Y-16735571D01*
X11643714Y-16892714D01*
X11643714Y-16735571D02*
X11658000Y-16707000D01*
X11686571Y-16692714D01*
X11729428Y-16692714D01*
X11758000Y-16707000D01*
X11772286Y-16735571D01*
X11772286Y-16892714D01*
X12358000Y-16578429D02*
X12100857Y-16964143D01*
X12743714Y-16592714D02*
X12772286Y-16592714D01*
X12800857Y-16607000D01*
X12815143Y-16621286D01*
X12829428Y-16649857D01*
X12843714Y-16707000D01*
X12843714Y-16778429D01*
X12829428Y-16835572D01*
X12815143Y-16864143D01*
X12800857Y-16878429D01*
X12772286Y-16892714D01*
X12743714Y-16892714D01*
X12715143Y-16878429D01*
X12700857Y-16864143D01*
X12686571Y-16835572D01*
X12672286Y-16778429D01*
X12672286Y-16707000D01*
X12686571Y-16649857D01*
X12700857Y-16621286D01*
X12715143Y-16607000D01*
X12743714Y-16592714D01*
X12972286Y-16864143D02*
X12986571Y-16878429D01*
X12972286Y-16892714D01*
X12958000Y-16878429D01*
X12972286Y-16864143D01*
X12972286Y-16892714D01*
X13172286Y-16592714D02*
X13200857Y-16592714D01*
X13229428Y-16607000D01*
X13243714Y-16621286D01*
X13258000Y-16649857D01*
X13272286Y-16707000D01*
X13272286Y-16778429D01*
X13258000Y-16835572D01*
X13243714Y-16864143D01*
X13229428Y-16878429D01*
X13200857Y-16892714D01*
X13172286Y-16892714D01*
X13143714Y-16878429D01*
X13129428Y-16864143D01*
X13115143Y-16835572D01*
X13100857Y-16778429D01*
X13100857Y-16707000D01*
X13115143Y-16649857D01*
X13129428Y-16621286D01*
X13143714Y-16607000D01*
X13172286Y-16592714D01*
X13558000Y-16892714D02*
X13386571Y-16892714D01*
X13472286Y-16892714D02*
X13472286Y-16592714D01*
X13443714Y-16635571D01*
X13415143Y-16664143D01*
X13386571Y-16678429D01*
X13815143Y-16592714D02*
X13758000Y-16592714D01*
X13729428Y-16607000D01*
X13715143Y-16621286D01*
X13686571Y-16664143D01*
X13672286Y-16721286D01*
X13672286Y-16835572D01*
X13686571Y-16864143D01*
X13700857Y-16878429D01*
X13729428Y-16892714D01*
X13786571Y-16892714D01*
X13815143Y-16878429D01*
X13829428Y-16864143D01*
X13843714Y-16835572D01*
X13843714Y-16764143D01*
X13829428Y-16735571D01*
X13815143Y-16721286D01*
X13786571Y-16707000D01*
X13729428Y-16707000D01*
X13700857Y-16721286D01*
X13686571Y-16735571D01*
X13672286Y-16764143D01*
X14029428Y-16592714D02*
X14058000Y-16592714D01*
X14086571Y-16607000D01*
X14100857Y-16621286D01*
X14115143Y-16649857D01*
X14129428Y-16707000D01*
X14129428Y-16778429D01*
X14115143Y-16835572D01*
X14100857Y-16864143D01*
X14086571Y-16878429D01*
X14058000Y-16892714D01*
X14029428Y-16892714D01*
X14000857Y-16878429D01*
X13986571Y-16864143D01*
X13972286Y-16835572D01*
X13958000Y-16778429D01*
X13958000Y-16707000D01*
X13972286Y-16649857D01*
X13986571Y-16621286D01*
X14000857Y-16607000D01*
X14029428Y-16592714D01*
X14243714Y-16592714D02*
X14243714Y-16649857D01*
X14358000Y-16592714D02*
X14358000Y-16649857D01*
X14800857Y-17007000D02*
X14786571Y-16992714D01*
X14758000Y-16949857D01*
X14743714Y-16921286D01*
X14729428Y-16878429D01*
X14715143Y-16807000D01*
X14715143Y-16749857D01*
X14729428Y-16678429D01*
X14743714Y-16635571D01*
X14758000Y-16607000D01*
X14786571Y-16564143D01*
X14800857Y-16549857D01*
X14886571Y-16592714D02*
X15086571Y-16592714D01*
X14958000Y-16892714D01*
X15329428Y-16692714D02*
X15329428Y-16892714D01*
X15258000Y-16578429D02*
X15186571Y-16792714D01*
X15372286Y-16792714D01*
X15715143Y-16892714D02*
X15715143Y-16592714D01*
X15843714Y-16892714D02*
X15843714Y-16735571D01*
X15829428Y-16707000D01*
X15800857Y-16692714D01*
X15758000Y-16692714D01*
X15729428Y-16707000D01*
X15715143Y-16721286D01*
X16029428Y-16892714D02*
X16000857Y-16878429D01*
X15986571Y-16864143D01*
X15972286Y-16835572D01*
X15972286Y-16749857D01*
X15986571Y-16721286D01*
X16000857Y-16707000D01*
X16029428Y-16692714D01*
X16072286Y-16692714D01*
X16100857Y-16707000D01*
X16115143Y-16721286D01*
X16129428Y-16749857D01*
X16129428Y-16835572D01*
X16115143Y-16864143D01*
X16100857Y-16878429D01*
X16072286Y-16892714D01*
X16029428Y-16892714D01*
X16300857Y-16892714D02*
X16272286Y-16878429D01*
X16258000Y-16849857D01*
X16258000Y-16592714D01*
X16529428Y-16878429D02*
X16500857Y-16892714D01*
X16443714Y-16892714D01*
X16415143Y-16878429D01*
X16400857Y-16849857D01*
X16400857Y-16735571D01*
X16415143Y-16707000D01*
X16443714Y-16692714D01*
X16500857Y-16692714D01*
X16529428Y-16707000D01*
X16543714Y-16735571D01*
X16543714Y-16764143D01*
X16400857Y-16792714D01*
X16658000Y-16878429D02*
X16686571Y-16892714D01*
X16743714Y-16892714D01*
X16772286Y-16878429D01*
X16786571Y-16849857D01*
X16786571Y-16835572D01*
X16772286Y-16807000D01*
X16743714Y-16792714D01*
X16700857Y-16792714D01*
X16672286Y-16778429D01*
X16658000Y-16749857D01*
X16658000Y-16735571D01*
X16672286Y-16707000D01*
X16700857Y-16692714D01*
X16743714Y-16692714D01*
X16772286Y-16707000D01*
X16886571Y-17007000D02*
X16900857Y-16992714D01*
X16929428Y-16949857D01*
X16943714Y-16921286D01*
X16958000Y-16878429D01*
X16972286Y-16807000D01*
X16972286Y-16749857D01*
X16958000Y-16678429D01*
X16943714Y-16635571D01*
X16929428Y-16607000D01*
X16900857Y-16564143D01*
X16886571Y-16549857D01*
X9543000Y-17153000D02*
G75*
G03*
X9543000Y-17153000I-27500J0D01*
G01*
X9886571Y-16988714D02*
X9915143Y-16988714D01*
X9943714Y-17003000D01*
X9958000Y-17017286D01*
X9972286Y-17045857D01*
X9986571Y-17103000D01*
X9986571Y-17174429D01*
X9972286Y-17231572D01*
X9958000Y-17260143D01*
X9943714Y-17274429D01*
X9915143Y-17288714D01*
X9886571Y-17288714D01*
X9858000Y-17274429D01*
X9843714Y-17260143D01*
X9829428Y-17231572D01*
X9815143Y-17174429D01*
X9815143Y-17103000D01*
X9829428Y-17045857D01*
X9843714Y-17017286D01*
X9858000Y-17003000D01*
X9886571Y-16988714D01*
X10115143Y-17260143D02*
X10129428Y-17274429D01*
X10115143Y-17288714D01*
X10100857Y-17274429D01*
X10115143Y-17260143D01*
X10115143Y-17288714D01*
X10400857Y-16988714D02*
X10258000Y-16988714D01*
X10243714Y-17131572D01*
X10258000Y-17117286D01*
X10286571Y-17103000D01*
X10358000Y-17103000D01*
X10386571Y-17117286D01*
X10400857Y-17131572D01*
X10415143Y-17160143D01*
X10415143Y-17231572D01*
X10400857Y-17260143D01*
X10386571Y-17274429D01*
X10358000Y-17288714D01*
X10286571Y-17288714D01*
X10258000Y-17274429D01*
X10243714Y-17260143D01*
X10686571Y-16988714D02*
X10543714Y-16988714D01*
X10529428Y-17131572D01*
X10543714Y-17117286D01*
X10572286Y-17103000D01*
X10643714Y-17103000D01*
X10672286Y-17117286D01*
X10686571Y-17131572D01*
X10700857Y-17160143D01*
X10700857Y-17231572D01*
X10686571Y-17260143D01*
X10672286Y-17274429D01*
X10643714Y-17288714D01*
X10572286Y-17288714D01*
X10543714Y-17274429D01*
X10529428Y-17260143D01*
X10886571Y-16988714D02*
X10915143Y-16988714D01*
X10943714Y-17003000D01*
X10958000Y-17017286D01*
X10972286Y-17045857D01*
X10986571Y-17103000D01*
X10986571Y-17174429D01*
X10972286Y-17231572D01*
X10958000Y-17260143D01*
X10943714Y-17274429D01*
X10915143Y-17288714D01*
X10886571Y-17288714D01*
X10858000Y-17274429D01*
X10843714Y-17260143D01*
X10829428Y-17231572D01*
X10815143Y-17174429D01*
X10815143Y-17103000D01*
X10829428Y-17045857D01*
X10843714Y-17017286D01*
X10858000Y-17003000D01*
X10886571Y-16988714D01*
X11115143Y-17288714D02*
X11115143Y-17088714D01*
X11115143Y-17117286D02*
X11129428Y-17103000D01*
X11158000Y-17088714D01*
X11200857Y-17088714D01*
X11229428Y-17103000D01*
X11243714Y-17131572D01*
X11243714Y-17288714D01*
X11243714Y-17131572D02*
X11258000Y-17103000D01*
X11286571Y-17088714D01*
X11329428Y-17088714D01*
X11358000Y-17103000D01*
X11372286Y-17131572D01*
X11372286Y-17288714D01*
X11515143Y-17288714D02*
X11515143Y-17088714D01*
X11515143Y-17117286D02*
X11529428Y-17103000D01*
X11558000Y-17088714D01*
X11600857Y-17088714D01*
X11629428Y-17103000D01*
X11643714Y-17131572D01*
X11643714Y-17288714D01*
X11643714Y-17131572D02*
X11658000Y-17103000D01*
X11686571Y-17088714D01*
X11729428Y-17088714D01*
X11758000Y-17103000D01*
X11772286Y-17131572D01*
X11772286Y-17288714D01*
X12358000Y-16974429D02*
X12100857Y-17360143D01*
X12743714Y-16988714D02*
X12772286Y-16988714D01*
X12800857Y-17003000D01*
X12815143Y-17017286D01*
X12829428Y-17045857D01*
X12843714Y-17103000D01*
X12843714Y-17174429D01*
X12829428Y-17231572D01*
X12815143Y-17260143D01*
X12800857Y-17274429D01*
X12772286Y-17288714D01*
X12743714Y-17288714D01*
X12715143Y-17274429D01*
X12700857Y-17260143D01*
X12686571Y-17231572D01*
X12672286Y-17174429D01*
X12672286Y-17103000D01*
X12686571Y-17045857D01*
X12700857Y-17017286D01*
X12715143Y-17003000D01*
X12743714Y-16988714D01*
X12972286Y-17260143D02*
X12986571Y-17274429D01*
X12972286Y-17288714D01*
X12958000Y-17274429D01*
X12972286Y-17260143D01*
X12972286Y-17288714D01*
X13172286Y-16988714D02*
X13200857Y-16988714D01*
X13229428Y-17003000D01*
X13243714Y-17017286D01*
X13258000Y-17045857D01*
X13272286Y-17103000D01*
X13272286Y-17174429D01*
X13258000Y-17231572D01*
X13243714Y-17260143D01*
X13229428Y-17274429D01*
X13200857Y-17288714D01*
X13172286Y-17288714D01*
X13143714Y-17274429D01*
X13129428Y-17260143D01*
X13115143Y-17231572D01*
X13100857Y-17174429D01*
X13100857Y-17103000D01*
X13115143Y-17045857D01*
X13129428Y-17017286D01*
X13143714Y-17003000D01*
X13172286Y-16988714D01*
X13386571Y-17017286D02*
X13400857Y-17003000D01*
X13429428Y-16988714D01*
X13500857Y-16988714D01*
X13529428Y-17003000D01*
X13543714Y-17017286D01*
X13558000Y-17045857D01*
X13558000Y-17074429D01*
X13543714Y-17117286D01*
X13372286Y-17288714D01*
X13558000Y-17288714D01*
X13843714Y-17288714D02*
X13672286Y-17288714D01*
X13758000Y-17288714D02*
X13758000Y-16988714D01*
X13729428Y-17031572D01*
X13700857Y-17060143D01*
X13672286Y-17074429D01*
X13943714Y-16988714D02*
X14143714Y-16988714D01*
X14015143Y-17288714D01*
X14243714Y-16988714D02*
X14243714Y-17045857D01*
X14358000Y-16988714D02*
X14358000Y-17045857D01*
X14800857Y-17403000D02*
X14786571Y-17388714D01*
X14758000Y-17345857D01*
X14743714Y-17317286D01*
X14729428Y-17274429D01*
X14715143Y-17203000D01*
X14715143Y-17145857D01*
X14729428Y-17074429D01*
X14743714Y-17031572D01*
X14758000Y-17003000D01*
X14786571Y-16960143D01*
X14800857Y-16945857D01*
X15043714Y-16988714D02*
X14986571Y-16988714D01*
X14958000Y-17003000D01*
X14943714Y-17017286D01*
X14915143Y-17060143D01*
X14900857Y-17117286D01*
X14900857Y-17231572D01*
X14915143Y-17260143D01*
X14929428Y-17274429D01*
X14958000Y-17288714D01*
X15015143Y-17288714D01*
X15043714Y-17274429D01*
X15058000Y-17260143D01*
X15072286Y-17231572D01*
X15072286Y-17160143D01*
X15058000Y-17131572D01*
X15043714Y-17117286D01*
X15015143Y-17103000D01*
X14958000Y-17103000D01*
X14929428Y-17117286D01*
X14915143Y-17131572D01*
X14900857Y-17160143D01*
X15429428Y-17288714D02*
X15429428Y-16988714D01*
X15558000Y-17288714D02*
X15558000Y-17131572D01*
X15543714Y-17103000D01*
X15515143Y-17088714D01*
X15472286Y-17088714D01*
X15443714Y-17103000D01*
X15429428Y-17117286D01*
X15743714Y-17288714D02*
X15715143Y-17274429D01*
X15700857Y-17260143D01*
X15686571Y-17231572D01*
X15686571Y-17145857D01*
X15700857Y-17117286D01*
X15715143Y-17103000D01*
X15743714Y-17088714D01*
X15786571Y-17088714D01*
X15815143Y-17103000D01*
X15829428Y-17117286D01*
X15843714Y-17145857D01*
X15843714Y-17231572D01*
X15829428Y-17260143D01*
X15815143Y-17274429D01*
X15786571Y-17288714D01*
X15743714Y-17288714D01*
X16015143Y-17288714D02*
X15986571Y-17274429D01*
X15972286Y-17245857D01*
X15972286Y-16988714D01*
X16243714Y-17274429D02*
X16215143Y-17288714D01*
X16158000Y-17288714D01*
X16129428Y-17274429D01*
X16115143Y-17245857D01*
X16115143Y-17131572D01*
X16129428Y-17103000D01*
X16158000Y-17088714D01*
X16215143Y-17088714D01*
X16243714Y-17103000D01*
X16258000Y-17131572D01*
X16258000Y-17160143D01*
X16115143Y-17188714D01*
X16372286Y-17274429D02*
X16400857Y-17288714D01*
X16458000Y-17288714D01*
X16486571Y-17274429D01*
X16500857Y-17245857D01*
X16500857Y-17231572D01*
X16486571Y-17203000D01*
X16458000Y-17188714D01*
X16415143Y-17188714D01*
X16386571Y-17174429D01*
X16372286Y-17145857D01*
X16372286Y-17131572D01*
X16386571Y-17103000D01*
X16415143Y-17088714D01*
X16458000Y-17088714D01*
X16486571Y-17103000D01*
X16600857Y-17403000D02*
X16615143Y-17388714D01*
X16643714Y-17345857D01*
X16658000Y-17317286D01*
X16672286Y-17274429D01*
X16686571Y-17203000D01*
X16686571Y-17145857D01*
X16672286Y-17074429D01*
X16658000Y-17031572D01*
X16643714Y-17003000D01*
X16615143Y-16960143D01*
X16600857Y-16945857D01*
X9504900Y-17510900D02*
X9504900Y-17587100D01*
X9466800Y-17549000D02*
X9543000Y-17549000D01*
X9886571Y-17384714D02*
X9915143Y-17384714D01*
X9943714Y-17399000D01*
X9958000Y-17413286D01*
X9972286Y-17441857D01*
X9986571Y-17499000D01*
X9986571Y-17570429D01*
X9972286Y-17627572D01*
X9958000Y-17656143D01*
X9943714Y-17670429D01*
X9915143Y-17684714D01*
X9886571Y-17684714D01*
X9858000Y-17670429D01*
X9843714Y-17656143D01*
X9829428Y-17627572D01*
X9815143Y-17570429D01*
X9815143Y-17499000D01*
X9829428Y-17441857D01*
X9843714Y-17413286D01*
X9858000Y-17399000D01*
X9886571Y-17384714D01*
X10115143Y-17656143D02*
X10129428Y-17670429D01*
X10115143Y-17684714D01*
X10100857Y-17670429D01*
X10115143Y-17656143D01*
X10115143Y-17684714D01*
X10229428Y-17384714D02*
X10429428Y-17384714D01*
X10300857Y-17684714D01*
X10672286Y-17384714D02*
X10615143Y-17384714D01*
X10586571Y-17399000D01*
X10572286Y-17413286D01*
X10543714Y-17456143D01*
X10529428Y-17513286D01*
X10529428Y-17627572D01*
X10543714Y-17656143D01*
X10558000Y-17670429D01*
X10586571Y-17684714D01*
X10643714Y-17684714D01*
X10672286Y-17670429D01*
X10686571Y-17656143D01*
X10700857Y-17627572D01*
X10700857Y-17556143D01*
X10686571Y-17527572D01*
X10672286Y-17513286D01*
X10643714Y-17499000D01*
X10586571Y-17499000D01*
X10558000Y-17513286D01*
X10543714Y-17527572D01*
X10529428Y-17556143D01*
X10815143Y-17413286D02*
X10829428Y-17399000D01*
X10858000Y-17384714D01*
X10929428Y-17384714D01*
X10958000Y-17399000D01*
X10972286Y-17413286D01*
X10986571Y-17441857D01*
X10986571Y-17470429D01*
X10972286Y-17513286D01*
X10800857Y-17684714D01*
X10986571Y-17684714D01*
X11115143Y-17684714D02*
X11115143Y-17484714D01*
X11115143Y-17513286D02*
X11129428Y-17499000D01*
X11158000Y-17484714D01*
X11200857Y-17484714D01*
X11229428Y-17499000D01*
X11243714Y-17527572D01*
X11243714Y-17684714D01*
X11243714Y-17527572D02*
X11258000Y-17499000D01*
X11286571Y-17484714D01*
X11329428Y-17484714D01*
X11358000Y-17499000D01*
X11372286Y-17527572D01*
X11372286Y-17684714D01*
X11515143Y-17684714D02*
X11515143Y-17484714D01*
X11515143Y-17513286D02*
X11529428Y-17499000D01*
X11558000Y-17484714D01*
X11600857Y-17484714D01*
X11629428Y-17499000D01*
X11643714Y-17527572D01*
X11643714Y-17684714D01*
X11643714Y-17527572D02*
X11658000Y-17499000D01*
X11686571Y-17484714D01*
X11729428Y-17484714D01*
X11758000Y-17499000D01*
X11772286Y-17527572D01*
X11772286Y-17684714D01*
X12358000Y-17370429D02*
X12100857Y-17756143D01*
X12743714Y-17384714D02*
X12772286Y-17384714D01*
X12800857Y-17399000D01*
X12815143Y-17413286D01*
X12829428Y-17441857D01*
X12843714Y-17499000D01*
X12843714Y-17570429D01*
X12829428Y-17627572D01*
X12815143Y-17656143D01*
X12800857Y-17670429D01*
X12772286Y-17684714D01*
X12743714Y-17684714D01*
X12715143Y-17670429D01*
X12700857Y-17656143D01*
X12686571Y-17627572D01*
X12672286Y-17570429D01*
X12672286Y-17499000D01*
X12686571Y-17441857D01*
X12700857Y-17413286D01*
X12715143Y-17399000D01*
X12743714Y-17384714D01*
X12972286Y-17656143D02*
X12986571Y-17670429D01*
X12972286Y-17684714D01*
X12958000Y-17670429D01*
X12972286Y-17656143D01*
X12972286Y-17684714D01*
X13172286Y-17384714D02*
X13200857Y-17384714D01*
X13229428Y-17399000D01*
X13243714Y-17413286D01*
X13258000Y-17441857D01*
X13272286Y-17499000D01*
X13272286Y-17570429D01*
X13258000Y-17627572D01*
X13243714Y-17656143D01*
X13229428Y-17670429D01*
X13200857Y-17684714D01*
X13172286Y-17684714D01*
X13143714Y-17670429D01*
X13129428Y-17656143D01*
X13115143Y-17627572D01*
X13100857Y-17570429D01*
X13100857Y-17499000D01*
X13115143Y-17441857D01*
X13129428Y-17413286D01*
X13143714Y-17399000D01*
X13172286Y-17384714D01*
X13372286Y-17384714D02*
X13558000Y-17384714D01*
X13458000Y-17499000D01*
X13500857Y-17499000D01*
X13529428Y-17513286D01*
X13543714Y-17527572D01*
X13558000Y-17556143D01*
X13558000Y-17627572D01*
X13543714Y-17656143D01*
X13529428Y-17670429D01*
X13500857Y-17684714D01*
X13415143Y-17684714D01*
X13386571Y-17670429D01*
X13372286Y-17656143D01*
X13743714Y-17384714D02*
X13772286Y-17384714D01*
X13800857Y-17399000D01*
X13815143Y-17413286D01*
X13829428Y-17441857D01*
X13843714Y-17499000D01*
X13843714Y-17570429D01*
X13829428Y-17627572D01*
X13815143Y-17656143D01*
X13800857Y-17670429D01*
X13772286Y-17684714D01*
X13743714Y-17684714D01*
X13715143Y-17670429D01*
X13700857Y-17656143D01*
X13686571Y-17627572D01*
X13672286Y-17570429D01*
X13672286Y-17499000D01*
X13686571Y-17441857D01*
X13700857Y-17413286D01*
X13715143Y-17399000D01*
X13743714Y-17384714D01*
X14029428Y-17384714D02*
X14058000Y-17384714D01*
X14086571Y-17399000D01*
X14100857Y-17413286D01*
X14115143Y-17441857D01*
X14129428Y-17499000D01*
X14129428Y-17570429D01*
X14115143Y-17627572D01*
X14100857Y-17656143D01*
X14086571Y-17670429D01*
X14058000Y-17684714D01*
X14029428Y-17684714D01*
X14000857Y-17670429D01*
X13986571Y-17656143D01*
X13972286Y-17627572D01*
X13958000Y-17570429D01*
X13958000Y-17499000D01*
X13972286Y-17441857D01*
X13986571Y-17413286D01*
X14000857Y-17399000D01*
X14029428Y-17384714D01*
X14243714Y-17384714D02*
X14243714Y-17441857D01*
X14358000Y-17384714D02*
X14358000Y-17441857D01*
X14800857Y-17799000D02*
X14786571Y-17784714D01*
X14758000Y-17741857D01*
X14743714Y-17713286D01*
X14729428Y-17670429D01*
X14715143Y-17599000D01*
X14715143Y-17541857D01*
X14729428Y-17470429D01*
X14743714Y-17427572D01*
X14758000Y-17399000D01*
X14786571Y-17356143D01*
X14800857Y-17341857D01*
X14886571Y-17384714D02*
X15072286Y-17384714D01*
X14972286Y-17499000D01*
X15015143Y-17499000D01*
X15043714Y-17513286D01*
X15058000Y-17527572D01*
X15072286Y-17556143D01*
X15072286Y-17627572D01*
X15058000Y-17656143D01*
X15043714Y-17670429D01*
X15015143Y-17684714D01*
X14929428Y-17684714D01*
X14900857Y-17670429D01*
X14886571Y-17656143D01*
X15329428Y-17384714D02*
X15272286Y-17384714D01*
X15243714Y-17399000D01*
X15229428Y-17413286D01*
X15200857Y-17456143D01*
X15186571Y-17513286D01*
X15186571Y-17627572D01*
X15200857Y-17656143D01*
X15215143Y-17670429D01*
X15243714Y-17684714D01*
X15300857Y-17684714D01*
X15329428Y-17670429D01*
X15343714Y-17656143D01*
X15358000Y-17627572D01*
X15358000Y-17556143D01*
X15343714Y-17527572D01*
X15329428Y-17513286D01*
X15300857Y-17499000D01*
X15243714Y-17499000D01*
X15215143Y-17513286D01*
X15200857Y-17527572D01*
X15186571Y-17556143D01*
X15715143Y-17684714D02*
X15715143Y-17384714D01*
X15843714Y-17684714D02*
X15843714Y-17527572D01*
X15829428Y-17499000D01*
X15800857Y-17484714D01*
X15758000Y-17484714D01*
X15729428Y-17499000D01*
X15715143Y-17513286D01*
X16029428Y-17684714D02*
X16000857Y-17670429D01*
X15986571Y-17656143D01*
X15972286Y-17627572D01*
X15972286Y-17541857D01*
X15986571Y-17513286D01*
X16000857Y-17499000D01*
X16029428Y-17484714D01*
X16072286Y-17484714D01*
X16100857Y-17499000D01*
X16115143Y-17513286D01*
X16129428Y-17541857D01*
X16129428Y-17627572D01*
X16115143Y-17656143D01*
X16100857Y-17670429D01*
X16072286Y-17684714D01*
X16029428Y-17684714D01*
X16300857Y-17684714D02*
X16272286Y-17670429D01*
X16258000Y-17641857D01*
X16258000Y-17384714D01*
X16529428Y-17670429D02*
X16500857Y-17684714D01*
X16443714Y-17684714D01*
X16415143Y-17670429D01*
X16400857Y-17641857D01*
X16400857Y-17527572D01*
X16415143Y-17499000D01*
X16443714Y-17484714D01*
X16500857Y-17484714D01*
X16529428Y-17499000D01*
X16543714Y-17527572D01*
X16543714Y-17556143D01*
X16400857Y-17584714D01*
X16658000Y-17670429D02*
X16686571Y-17684714D01*
X16743714Y-17684714D01*
X16772286Y-17670429D01*
X16786571Y-17641857D01*
X16786571Y-17627572D01*
X16772286Y-17599000D01*
X16743714Y-17584714D01*
X16700857Y-17584714D01*
X16672286Y-17570429D01*
X16658000Y-17541857D01*
X16658000Y-17527572D01*
X16672286Y-17499000D01*
X16700857Y-17484714D01*
X16743714Y-17484714D01*
X16772286Y-17499000D01*
X16886571Y-17799000D02*
X16900857Y-17784714D01*
X16929428Y-17741857D01*
X16943714Y-17713286D01*
X16958000Y-17670429D01*
X16972286Y-17599000D01*
X16972286Y-17541857D01*
X16958000Y-17470429D01*
X16943714Y-17427572D01*
X16929428Y-17399000D01*
X16900857Y-17356143D01*
X16886571Y-17341857D01*
X9529967Y-17976467D02*
X9529967Y-17913534D01*
X9467033Y-17913534D01*
X9467033Y-17976467D01*
X9529967Y-17976467D01*
X9886571Y-17780714D02*
X9915143Y-17780714D01*
X9943714Y-17795000D01*
X9958000Y-17809286D01*
X9972286Y-17837857D01*
X9986571Y-17895000D01*
X9986571Y-17966429D01*
X9972286Y-18023572D01*
X9958000Y-18052143D01*
X9943714Y-18066429D01*
X9915143Y-18080714D01*
X9886571Y-18080714D01*
X9858000Y-18066429D01*
X9843714Y-18052143D01*
X9829428Y-18023572D01*
X9815143Y-17966429D01*
X9815143Y-17895000D01*
X9829428Y-17837857D01*
X9843714Y-17809286D01*
X9858000Y-17795000D01*
X9886571Y-17780714D01*
X10115143Y-18052143D02*
X10129428Y-18066429D01*
X10115143Y-18080714D01*
X10100857Y-18066429D01*
X10115143Y-18052143D01*
X10115143Y-18080714D01*
X10300857Y-17909286D02*
X10272286Y-17895000D01*
X10258000Y-17880714D01*
X10243714Y-17852143D01*
X10243714Y-17837857D01*
X10258000Y-17809286D01*
X10272286Y-17795000D01*
X10300857Y-17780714D01*
X10358000Y-17780714D01*
X10386571Y-17795000D01*
X10400857Y-17809286D01*
X10415143Y-17837857D01*
X10415143Y-17852143D01*
X10400857Y-17880714D01*
X10386571Y-17895000D01*
X10358000Y-17909286D01*
X10300857Y-17909286D01*
X10272286Y-17923572D01*
X10258000Y-17937857D01*
X10243714Y-17966429D01*
X10243714Y-18023572D01*
X10258000Y-18052143D01*
X10272286Y-18066429D01*
X10300857Y-18080714D01*
X10358000Y-18080714D01*
X10386571Y-18066429D01*
X10400857Y-18052143D01*
X10415143Y-18023572D01*
X10415143Y-17966429D01*
X10400857Y-17937857D01*
X10386571Y-17923572D01*
X10358000Y-17909286D01*
X10558000Y-18080714D02*
X10615143Y-18080714D01*
X10643714Y-18066429D01*
X10658000Y-18052143D01*
X10686571Y-18009286D01*
X10700857Y-17952143D01*
X10700857Y-17837857D01*
X10686571Y-17809286D01*
X10672286Y-17795000D01*
X10643714Y-17780714D01*
X10586571Y-17780714D01*
X10558000Y-17795000D01*
X10543714Y-17809286D01*
X10529428Y-17837857D01*
X10529428Y-17909286D01*
X10543714Y-17937857D01*
X10558000Y-17952143D01*
X10586571Y-17966429D01*
X10643714Y-17966429D01*
X10672286Y-17952143D01*
X10686571Y-17937857D01*
X10700857Y-17909286D01*
X10886571Y-17780714D02*
X10915143Y-17780714D01*
X10943714Y-17795000D01*
X10958000Y-17809286D01*
X10972286Y-17837857D01*
X10986571Y-17895000D01*
X10986571Y-17966429D01*
X10972286Y-18023572D01*
X10958000Y-18052143D01*
X10943714Y-18066429D01*
X10915143Y-18080714D01*
X10886571Y-18080714D01*
X10858000Y-18066429D01*
X10843714Y-18052143D01*
X10829428Y-18023572D01*
X10815143Y-17966429D01*
X10815143Y-17895000D01*
X10829428Y-17837857D01*
X10843714Y-17809286D01*
X10858000Y-17795000D01*
X10886571Y-17780714D01*
X11115143Y-18080714D02*
X11115143Y-17880714D01*
X11115143Y-17909286D02*
X11129428Y-17895000D01*
X11158000Y-17880714D01*
X11200857Y-17880714D01*
X11229428Y-17895000D01*
X11243714Y-17923572D01*
X11243714Y-18080714D01*
X11243714Y-17923572D02*
X11258000Y-17895000D01*
X11286571Y-17880714D01*
X11329428Y-17880714D01*
X11358000Y-17895000D01*
X11372286Y-17923572D01*
X11372286Y-18080714D01*
X11515143Y-18080714D02*
X11515143Y-17880714D01*
X11515143Y-17909286D02*
X11529428Y-17895000D01*
X11558000Y-17880714D01*
X11600857Y-17880714D01*
X11629428Y-17895000D01*
X11643714Y-17923572D01*
X11643714Y-18080714D01*
X11643714Y-17923572D02*
X11658000Y-17895000D01*
X11686571Y-17880714D01*
X11729428Y-17880714D01*
X11758000Y-17895000D01*
X11772286Y-17923572D01*
X11772286Y-18080714D01*
X12358000Y-17766429D02*
X12100857Y-18152143D01*
X12743714Y-17780714D02*
X12772286Y-17780714D01*
X12800857Y-17795000D01*
X12815143Y-17809286D01*
X12829428Y-17837857D01*
X12843714Y-17895000D01*
X12843714Y-17966429D01*
X12829428Y-18023572D01*
X12815143Y-18052143D01*
X12800857Y-18066429D01*
X12772286Y-18080714D01*
X12743714Y-18080714D01*
X12715143Y-18066429D01*
X12700857Y-18052143D01*
X12686571Y-18023572D01*
X12672286Y-17966429D01*
X12672286Y-17895000D01*
X12686571Y-17837857D01*
X12700857Y-17809286D01*
X12715143Y-17795000D01*
X12743714Y-17780714D01*
X12972286Y-18052143D02*
X12986571Y-18066429D01*
X12972286Y-18080714D01*
X12958000Y-18066429D01*
X12972286Y-18052143D01*
X12972286Y-18080714D01*
X13172286Y-17780714D02*
X13200857Y-17780714D01*
X13229428Y-17795000D01*
X13243714Y-17809286D01*
X13258000Y-17837857D01*
X13272286Y-17895000D01*
X13272286Y-17966429D01*
X13258000Y-18023572D01*
X13243714Y-18052143D01*
X13229428Y-18066429D01*
X13200857Y-18080714D01*
X13172286Y-18080714D01*
X13143714Y-18066429D01*
X13129428Y-18052143D01*
X13115143Y-18023572D01*
X13100857Y-17966429D01*
X13100857Y-17895000D01*
X13115143Y-17837857D01*
X13129428Y-17809286D01*
X13143714Y-17795000D01*
X13172286Y-17780714D01*
X13372286Y-17780714D02*
X13558000Y-17780714D01*
X13458000Y-17895000D01*
X13500857Y-17895000D01*
X13529428Y-17909286D01*
X13543714Y-17923572D01*
X13558000Y-17952143D01*
X13558000Y-18023572D01*
X13543714Y-18052143D01*
X13529428Y-18066429D01*
X13500857Y-18080714D01*
X13415143Y-18080714D01*
X13386571Y-18066429D01*
X13372286Y-18052143D01*
X13829428Y-17780714D02*
X13686571Y-17780714D01*
X13672286Y-17923572D01*
X13686571Y-17909286D01*
X13715143Y-17895000D01*
X13786571Y-17895000D01*
X13815143Y-17909286D01*
X13829428Y-17923572D01*
X13843714Y-17952143D01*
X13843714Y-18023572D01*
X13829428Y-18052143D01*
X13815143Y-18066429D01*
X13786571Y-18080714D01*
X13715143Y-18080714D01*
X13686571Y-18066429D01*
X13672286Y-18052143D01*
X14029428Y-17780714D02*
X14058000Y-17780714D01*
X14086571Y-17795000D01*
X14100857Y-17809286D01*
X14115143Y-17837857D01*
X14129428Y-17895000D01*
X14129428Y-17966429D01*
X14115143Y-18023572D01*
X14100857Y-18052143D01*
X14086571Y-18066429D01*
X14058000Y-18080714D01*
X14029428Y-18080714D01*
X14000857Y-18066429D01*
X13986571Y-18052143D01*
X13972286Y-18023572D01*
X13958000Y-17966429D01*
X13958000Y-17895000D01*
X13972286Y-17837857D01*
X13986571Y-17809286D01*
X14000857Y-17795000D01*
X14029428Y-17780714D01*
X14243714Y-17780714D02*
X14243714Y-17837857D01*
X14358000Y-17780714D02*
X14358000Y-17837857D01*
X14800857Y-18195000D02*
X14786571Y-18180714D01*
X14758000Y-18137857D01*
X14743714Y-18109286D01*
X14729428Y-18066429D01*
X14715143Y-17995000D01*
X14715143Y-17937857D01*
X14729428Y-17866429D01*
X14743714Y-17823572D01*
X14758000Y-17795000D01*
X14786571Y-17752143D01*
X14800857Y-17737857D01*
X14900857Y-17809286D02*
X14915143Y-17795000D01*
X14943714Y-17780714D01*
X15015143Y-17780714D01*
X15043714Y-17795000D01*
X15058000Y-17809286D01*
X15072286Y-17837857D01*
X15072286Y-17866429D01*
X15058000Y-17909286D01*
X14886571Y-18080714D01*
X15072286Y-18080714D01*
X15329428Y-17880714D02*
X15329428Y-18080714D01*
X15258000Y-17766429D02*
X15186571Y-17980714D01*
X15372286Y-17980714D01*
X15715143Y-18080714D02*
X15715143Y-17780714D01*
X15843714Y-18080714D02*
X15843714Y-17923572D01*
X15829428Y-17895000D01*
X15800857Y-17880714D01*
X15758000Y-17880714D01*
X15729428Y-17895000D01*
X15715143Y-17909286D01*
X16029428Y-18080714D02*
X16000857Y-18066429D01*
X15986571Y-18052143D01*
X15972286Y-18023572D01*
X15972286Y-17937857D01*
X15986571Y-17909286D01*
X16000857Y-17895000D01*
X16029428Y-17880714D01*
X16072286Y-17880714D01*
X16100857Y-17895000D01*
X16115143Y-17909286D01*
X16129428Y-17937857D01*
X16129428Y-18023572D01*
X16115143Y-18052143D01*
X16100857Y-18066429D01*
X16072286Y-18080714D01*
X16029428Y-18080714D01*
X16300857Y-18080714D02*
X16272286Y-18066429D01*
X16258000Y-18037857D01*
X16258000Y-17780714D01*
X16529428Y-18066429D02*
X16500857Y-18080714D01*
X16443714Y-18080714D01*
X16415143Y-18066429D01*
X16400857Y-18037857D01*
X16400857Y-17923572D01*
X16415143Y-17895000D01*
X16443714Y-17880714D01*
X16500857Y-17880714D01*
X16529428Y-17895000D01*
X16543714Y-17923572D01*
X16543714Y-17952143D01*
X16400857Y-17980714D01*
X16658000Y-18066429D02*
X16686571Y-18080714D01*
X16743714Y-18080714D01*
X16772286Y-18066429D01*
X16786571Y-18037857D01*
X16786571Y-18023572D01*
X16772286Y-17995000D01*
X16743714Y-17980714D01*
X16700857Y-17980714D01*
X16672286Y-17966429D01*
X16658000Y-17937857D01*
X16658000Y-17923572D01*
X16672286Y-17895000D01*
X16700857Y-17880714D01*
X16743714Y-17880714D01*
X16772286Y-17895000D01*
X16886571Y-18195000D02*
X16900857Y-18180714D01*
X16929428Y-18137857D01*
X16943714Y-18109286D01*
X16958000Y-18066429D01*
X16972286Y-17995000D01*
X16972286Y-17937857D01*
X16958000Y-17866429D01*
X16943714Y-17823572D01*
X16929428Y-17795000D01*
X16900857Y-17752143D01*
X16886571Y-17737857D01*
X9493000Y-18391000D02*
X9543000Y-18341000D01*
X9493000Y-18291000D01*
X9443000Y-18341000D01*
X9493000Y-18391000D01*
X9986571Y-18476714D02*
X9815143Y-18476714D01*
X9900857Y-18476714D02*
X9900857Y-18176714D01*
X9872286Y-18219572D01*
X9843714Y-18248143D01*
X9815143Y-18262429D01*
X10115143Y-18448143D02*
X10129428Y-18462429D01*
X10115143Y-18476714D01*
X10100857Y-18462429D01*
X10115143Y-18448143D01*
X10115143Y-18476714D01*
X10315143Y-18176714D02*
X10343714Y-18176714D01*
X10372286Y-18191000D01*
X10386571Y-18205286D01*
X10400857Y-18233857D01*
X10415143Y-18291000D01*
X10415143Y-18362429D01*
X10400857Y-18419572D01*
X10386571Y-18448143D01*
X10372286Y-18462429D01*
X10343714Y-18476714D01*
X10315143Y-18476714D01*
X10286571Y-18462429D01*
X10272286Y-18448143D01*
X10258000Y-18419572D01*
X10243714Y-18362429D01*
X10243714Y-18291000D01*
X10258000Y-18233857D01*
X10272286Y-18205286D01*
X10286571Y-18191000D01*
X10315143Y-18176714D01*
X10600857Y-18176714D02*
X10629428Y-18176714D01*
X10658000Y-18191000D01*
X10672286Y-18205286D01*
X10686571Y-18233857D01*
X10700857Y-18291000D01*
X10700857Y-18362429D01*
X10686571Y-18419572D01*
X10672286Y-18448143D01*
X10658000Y-18462429D01*
X10629428Y-18476714D01*
X10600857Y-18476714D01*
X10572286Y-18462429D01*
X10558000Y-18448143D01*
X10543714Y-18419572D01*
X10529428Y-18362429D01*
X10529428Y-18291000D01*
X10543714Y-18233857D01*
X10558000Y-18205286D01*
X10572286Y-18191000D01*
X10600857Y-18176714D01*
X10886571Y-18176714D02*
X10915143Y-18176714D01*
X10943714Y-18191000D01*
X10958000Y-18205286D01*
X10972286Y-18233857D01*
X10986571Y-18291000D01*
X10986571Y-18362429D01*
X10972286Y-18419572D01*
X10958000Y-18448143D01*
X10943714Y-18462429D01*
X10915143Y-18476714D01*
X10886571Y-18476714D01*
X10858000Y-18462429D01*
X10843714Y-18448143D01*
X10829428Y-18419572D01*
X10815143Y-18362429D01*
X10815143Y-18291000D01*
X10829428Y-18233857D01*
X10843714Y-18205286D01*
X10858000Y-18191000D01*
X10886571Y-18176714D01*
X11115143Y-18476714D02*
X11115143Y-18276714D01*
X11115143Y-18305286D02*
X11129428Y-18291000D01*
X11158000Y-18276714D01*
X11200857Y-18276714D01*
X11229428Y-18291000D01*
X11243714Y-18319572D01*
X11243714Y-18476714D01*
X11243714Y-18319572D02*
X11258000Y-18291000D01*
X11286571Y-18276714D01*
X11329428Y-18276714D01*
X11358000Y-18291000D01*
X11372286Y-18319572D01*
X11372286Y-18476714D01*
X11515143Y-18476714D02*
X11515143Y-18276714D01*
X11515143Y-18305286D02*
X11529428Y-18291000D01*
X11558000Y-18276714D01*
X11600857Y-18276714D01*
X11629428Y-18291000D01*
X11643714Y-18319572D01*
X11643714Y-18476714D01*
X11643714Y-18319572D02*
X11658000Y-18291000D01*
X11686571Y-18276714D01*
X11729428Y-18276714D01*
X11758000Y-18291000D01*
X11772286Y-18319572D01*
X11772286Y-18476714D01*
X12358000Y-18162429D02*
X12100857Y-18548143D01*
X12743714Y-18176714D02*
X12772286Y-18176714D01*
X12800857Y-18191000D01*
X12815143Y-18205286D01*
X12829428Y-18233857D01*
X12843714Y-18291000D01*
X12843714Y-18362429D01*
X12829428Y-18419572D01*
X12815143Y-18448143D01*
X12800857Y-18462429D01*
X12772286Y-18476714D01*
X12743714Y-18476714D01*
X12715143Y-18462429D01*
X12700857Y-18448143D01*
X12686571Y-18419572D01*
X12672286Y-18362429D01*
X12672286Y-18291000D01*
X12686571Y-18233857D01*
X12700857Y-18205286D01*
X12715143Y-18191000D01*
X12743714Y-18176714D01*
X12972286Y-18448143D02*
X12986571Y-18462429D01*
X12972286Y-18476714D01*
X12958000Y-18462429D01*
X12972286Y-18448143D01*
X12972286Y-18476714D01*
X13172286Y-18176714D02*
X13200857Y-18176714D01*
X13229428Y-18191000D01*
X13243714Y-18205286D01*
X13258000Y-18233857D01*
X13272286Y-18291000D01*
X13272286Y-18362429D01*
X13258000Y-18419572D01*
X13243714Y-18448143D01*
X13229428Y-18462429D01*
X13200857Y-18476714D01*
X13172286Y-18476714D01*
X13143714Y-18462429D01*
X13129428Y-18448143D01*
X13115143Y-18419572D01*
X13100857Y-18362429D01*
X13100857Y-18291000D01*
X13115143Y-18233857D01*
X13129428Y-18205286D01*
X13143714Y-18191000D01*
X13172286Y-18176714D01*
X13372286Y-18176714D02*
X13558000Y-18176714D01*
X13458000Y-18291000D01*
X13500857Y-18291000D01*
X13529428Y-18305286D01*
X13543714Y-18319572D01*
X13558000Y-18348143D01*
X13558000Y-18419572D01*
X13543714Y-18448143D01*
X13529428Y-18462429D01*
X13500857Y-18476714D01*
X13415143Y-18476714D01*
X13386571Y-18462429D01*
X13372286Y-18448143D01*
X13700857Y-18476714D02*
X13758000Y-18476714D01*
X13786571Y-18462429D01*
X13800857Y-18448143D01*
X13829428Y-18405286D01*
X13843714Y-18348143D01*
X13843714Y-18233857D01*
X13829428Y-18205286D01*
X13815143Y-18191000D01*
X13786571Y-18176714D01*
X13729428Y-18176714D01*
X13700857Y-18191000D01*
X13686571Y-18205286D01*
X13672286Y-18233857D01*
X13672286Y-18305286D01*
X13686571Y-18333857D01*
X13700857Y-18348143D01*
X13729428Y-18362429D01*
X13786571Y-18362429D01*
X13815143Y-18348143D01*
X13829428Y-18333857D01*
X13843714Y-18305286D01*
X14100857Y-18276714D02*
X14100857Y-18476714D01*
X14029428Y-18162429D02*
X13958000Y-18376714D01*
X14143714Y-18376714D01*
X14243714Y-18176714D02*
X14243714Y-18233857D01*
X14358000Y-18176714D02*
X14358000Y-18233857D01*
X14800857Y-18591000D02*
X14786571Y-18576714D01*
X14758000Y-18533857D01*
X14743714Y-18505286D01*
X14729428Y-18462429D01*
X14715143Y-18391000D01*
X14715143Y-18333857D01*
X14729428Y-18262429D01*
X14743714Y-18219572D01*
X14758000Y-18191000D01*
X14786571Y-18148143D01*
X14800857Y-18133857D01*
X14900857Y-18205286D02*
X14915143Y-18191000D01*
X14943714Y-18176714D01*
X15015143Y-18176714D01*
X15043714Y-18191000D01*
X15058000Y-18205286D01*
X15072286Y-18233857D01*
X15072286Y-18262429D01*
X15058000Y-18305286D01*
X14886571Y-18476714D01*
X15072286Y-18476714D01*
X15258000Y-18176714D02*
X15286571Y-18176714D01*
X15315143Y-18191000D01*
X15329428Y-18205286D01*
X15343714Y-18233857D01*
X15358000Y-18291000D01*
X15358000Y-18362429D01*
X15343714Y-18419572D01*
X15329428Y-18448143D01*
X15315143Y-18462429D01*
X15286571Y-18476714D01*
X15258000Y-18476714D01*
X15229428Y-18462429D01*
X15215143Y-18448143D01*
X15200857Y-18419572D01*
X15186571Y-18362429D01*
X15186571Y-18291000D01*
X15200857Y-18233857D01*
X15215143Y-18205286D01*
X15229428Y-18191000D01*
X15258000Y-18176714D01*
X15715143Y-18476714D02*
X15715143Y-18176714D01*
X15843714Y-18476714D02*
X15843714Y-18319572D01*
X15829428Y-18291000D01*
X15800857Y-18276714D01*
X15758000Y-18276714D01*
X15729428Y-18291000D01*
X15715143Y-18305286D01*
X16029428Y-18476714D02*
X16000857Y-18462429D01*
X15986571Y-18448143D01*
X15972286Y-18419572D01*
X15972286Y-18333857D01*
X15986571Y-18305286D01*
X16000857Y-18291000D01*
X16029428Y-18276714D01*
X16072286Y-18276714D01*
X16100857Y-18291000D01*
X16115143Y-18305286D01*
X16129428Y-18333857D01*
X16129428Y-18419572D01*
X16115143Y-18448143D01*
X16100857Y-18462429D01*
X16072286Y-18476714D01*
X16029428Y-18476714D01*
X16300857Y-18476714D02*
X16272286Y-18462429D01*
X16258000Y-18433857D01*
X16258000Y-18176714D01*
X16529428Y-18462429D02*
X16500857Y-18476714D01*
X16443714Y-18476714D01*
X16415143Y-18462429D01*
X16400857Y-18433857D01*
X16400857Y-18319572D01*
X16415143Y-18291000D01*
X16443714Y-18276714D01*
X16500857Y-18276714D01*
X16529428Y-18291000D01*
X16543714Y-18319572D01*
X16543714Y-18348143D01*
X16400857Y-18376714D01*
X16658000Y-18462429D02*
X16686571Y-18476714D01*
X16743714Y-18476714D01*
X16772286Y-18462429D01*
X16786571Y-18433857D01*
X16786571Y-18419572D01*
X16772286Y-18391000D01*
X16743714Y-18376714D01*
X16700857Y-18376714D01*
X16672286Y-18362429D01*
X16658000Y-18333857D01*
X16658000Y-18319572D01*
X16672286Y-18291000D01*
X16700857Y-18276714D01*
X16743714Y-18276714D01*
X16772286Y-18291000D01*
X16886571Y-18591000D02*
X16900857Y-18576714D01*
X16929428Y-18533857D01*
X16943714Y-18505286D01*
X16958000Y-18462429D01*
X16972286Y-18391000D01*
X16972286Y-18333857D01*
X16958000Y-18262429D01*
X16943714Y-18219572D01*
X16929428Y-18191000D01*
X16900857Y-18148143D01*
X16886571Y-18133857D01*
X9433000Y-18682000D02*
X9543000Y-18792000D01*
X9543000Y-18682000D02*
X9433000Y-18792000D01*
X9543000Y-18737000D02*
G75*
G03*
X9543000Y-18737000I-55000J0D01*
G01*
X9986571Y-18872714D02*
X9815143Y-18872714D01*
X9900857Y-18872714D02*
X9900857Y-18572714D01*
X9872286Y-18615572D01*
X9843714Y-18644143D01*
X9815143Y-18658429D01*
X10115143Y-18844143D02*
X10129428Y-18858429D01*
X10115143Y-18872714D01*
X10100857Y-18858429D01*
X10115143Y-18844143D01*
X10115143Y-18872714D01*
X10415143Y-18872714D02*
X10243714Y-18872714D01*
X10329428Y-18872714D02*
X10329428Y-18572714D01*
X10300857Y-18615572D01*
X10272286Y-18644143D01*
X10243714Y-18658429D01*
X10600857Y-18572714D02*
X10629428Y-18572714D01*
X10658000Y-18587000D01*
X10672286Y-18601286D01*
X10686571Y-18629857D01*
X10700857Y-18687000D01*
X10700857Y-18758429D01*
X10686571Y-18815572D01*
X10672286Y-18844143D01*
X10658000Y-18858429D01*
X10629428Y-18872714D01*
X10600857Y-18872714D01*
X10572286Y-18858429D01*
X10558000Y-18844143D01*
X10543714Y-18815572D01*
X10529428Y-18758429D01*
X10529428Y-18687000D01*
X10543714Y-18629857D01*
X10558000Y-18601286D01*
X10572286Y-18587000D01*
X10600857Y-18572714D01*
X10886571Y-18572714D02*
X10915143Y-18572714D01*
X10943714Y-18587000D01*
X10958000Y-18601286D01*
X10972286Y-18629857D01*
X10986571Y-18687000D01*
X10986571Y-18758429D01*
X10972286Y-18815572D01*
X10958000Y-18844143D01*
X10943714Y-18858429D01*
X10915143Y-18872714D01*
X10886571Y-18872714D01*
X10858000Y-18858429D01*
X10843714Y-18844143D01*
X10829428Y-18815572D01*
X10815143Y-18758429D01*
X10815143Y-18687000D01*
X10829428Y-18629857D01*
X10843714Y-18601286D01*
X10858000Y-18587000D01*
X10886571Y-18572714D01*
X11115143Y-18872714D02*
X11115143Y-18672714D01*
X11115143Y-18701286D02*
X11129428Y-18687000D01*
X11158000Y-18672714D01*
X11200857Y-18672714D01*
X11229428Y-18687000D01*
X11243714Y-18715572D01*
X11243714Y-18872714D01*
X11243714Y-18715572D02*
X11258000Y-18687000D01*
X11286571Y-18672714D01*
X11329428Y-18672714D01*
X11358000Y-18687000D01*
X11372286Y-18715572D01*
X11372286Y-18872714D01*
X11515143Y-18872714D02*
X11515143Y-18672714D01*
X11515143Y-18701286D02*
X11529428Y-18687000D01*
X11558000Y-18672714D01*
X11600857Y-18672714D01*
X11629428Y-18687000D01*
X11643714Y-18715572D01*
X11643714Y-18872714D01*
X11643714Y-18715572D02*
X11658000Y-18687000D01*
X11686571Y-18672714D01*
X11729428Y-18672714D01*
X11758000Y-18687000D01*
X11772286Y-18715572D01*
X11772286Y-18872714D01*
X12358000Y-18558429D02*
X12100857Y-18944143D01*
X12743714Y-18572714D02*
X12772286Y-18572714D01*
X12800857Y-18587000D01*
X12815143Y-18601286D01*
X12829428Y-18629857D01*
X12843714Y-18687000D01*
X12843714Y-18758429D01*
X12829428Y-18815572D01*
X12815143Y-18844143D01*
X12800857Y-18858429D01*
X12772286Y-18872714D01*
X12743714Y-18872714D01*
X12715143Y-18858429D01*
X12700857Y-18844143D01*
X12686571Y-18815572D01*
X12672286Y-18758429D01*
X12672286Y-18687000D01*
X12686571Y-18629857D01*
X12700857Y-18601286D01*
X12715143Y-18587000D01*
X12743714Y-18572714D01*
X12972286Y-18844143D02*
X12986571Y-18858429D01*
X12972286Y-18872714D01*
X12958000Y-18858429D01*
X12972286Y-18844143D01*
X12972286Y-18872714D01*
X13172286Y-18572714D02*
X13200857Y-18572714D01*
X13229428Y-18587000D01*
X13243714Y-18601286D01*
X13258000Y-18629857D01*
X13272286Y-18687000D01*
X13272286Y-18758429D01*
X13258000Y-18815572D01*
X13243714Y-18844143D01*
X13229428Y-18858429D01*
X13200857Y-18872714D01*
X13172286Y-18872714D01*
X13143714Y-18858429D01*
X13129428Y-18844143D01*
X13115143Y-18815572D01*
X13100857Y-18758429D01*
X13100857Y-18687000D01*
X13115143Y-18629857D01*
X13129428Y-18601286D01*
X13143714Y-18587000D01*
X13172286Y-18572714D01*
X13529428Y-18672714D02*
X13529428Y-18872714D01*
X13458000Y-18558429D02*
X13386571Y-18772714D01*
X13572286Y-18772714D01*
X13658000Y-18572714D02*
X13843714Y-18572714D01*
X13743714Y-18687000D01*
X13786571Y-18687000D01*
X13815143Y-18701286D01*
X13829428Y-18715572D01*
X13843714Y-18744143D01*
X13843714Y-18815572D01*
X13829428Y-18844143D01*
X13815143Y-18858429D01*
X13786571Y-18872714D01*
X13700857Y-18872714D01*
X13672286Y-18858429D01*
X13658000Y-18844143D01*
X13943714Y-18572714D02*
X14129428Y-18572714D01*
X14029428Y-18687000D01*
X14072286Y-18687000D01*
X14100857Y-18701286D01*
X14115143Y-18715572D01*
X14129428Y-18744143D01*
X14129428Y-18815572D01*
X14115143Y-18844143D01*
X14100857Y-18858429D01*
X14072286Y-18872714D01*
X13986571Y-18872714D01*
X13958000Y-18858429D01*
X13943714Y-18844143D01*
X14243714Y-18572714D02*
X14243714Y-18629857D01*
X14358000Y-18572714D02*
X14358000Y-18629857D01*
X14800857Y-18987000D02*
X14786571Y-18972714D01*
X14758000Y-18929857D01*
X14743714Y-18901286D01*
X14729428Y-18858429D01*
X14715143Y-18787000D01*
X14715143Y-18729857D01*
X14729428Y-18658429D01*
X14743714Y-18615572D01*
X14758000Y-18587000D01*
X14786571Y-18544143D01*
X14800857Y-18529857D01*
X14886571Y-18572714D02*
X15072286Y-18572714D01*
X14972286Y-18687000D01*
X15015143Y-18687000D01*
X15043714Y-18701286D01*
X15058000Y-18715572D01*
X15072286Y-18744143D01*
X15072286Y-18815572D01*
X15058000Y-18844143D01*
X15043714Y-18858429D01*
X15015143Y-18872714D01*
X14929428Y-18872714D01*
X14900857Y-18858429D01*
X14886571Y-18844143D01*
X15429428Y-18872714D02*
X15429428Y-18572714D01*
X15558000Y-18872714D02*
X15558000Y-18715572D01*
X15543714Y-18687000D01*
X15515143Y-18672714D01*
X15472286Y-18672714D01*
X15443714Y-18687000D01*
X15429428Y-18701286D01*
X15743714Y-18872714D02*
X15715143Y-18858429D01*
X15700857Y-18844143D01*
X15686571Y-18815572D01*
X15686571Y-18729857D01*
X15700857Y-18701286D01*
X15715143Y-18687000D01*
X15743714Y-18672714D01*
X15786571Y-18672714D01*
X15815143Y-18687000D01*
X15829428Y-18701286D01*
X15843714Y-18729857D01*
X15843714Y-18815572D01*
X15829428Y-18844143D01*
X15815143Y-18858429D01*
X15786571Y-18872714D01*
X15743714Y-18872714D01*
X16015143Y-18872714D02*
X15986571Y-18858429D01*
X15972286Y-18829857D01*
X15972286Y-18572714D01*
X16243714Y-18858429D02*
X16215143Y-18872714D01*
X16158000Y-18872714D01*
X16129428Y-18858429D01*
X16115143Y-18829857D01*
X16115143Y-18715572D01*
X16129428Y-18687000D01*
X16158000Y-18672714D01*
X16215143Y-18672714D01*
X16243714Y-18687000D01*
X16258000Y-18715572D01*
X16258000Y-18744143D01*
X16115143Y-18772714D01*
X16372286Y-18858429D02*
X16400857Y-18872714D01*
X16458000Y-18872714D01*
X16486571Y-18858429D01*
X16500857Y-18829857D01*
X16500857Y-18815572D01*
X16486571Y-18787000D01*
X16458000Y-18772714D01*
X16415143Y-18772714D01*
X16386571Y-18758429D01*
X16372286Y-18729857D01*
X16372286Y-18715572D01*
X16386571Y-18687000D01*
X16415143Y-18672714D01*
X16458000Y-18672714D01*
X16486571Y-18687000D01*
X16600857Y-18987000D02*
X16615143Y-18972714D01*
X16643714Y-18929857D01*
X16658000Y-18901286D01*
X16672286Y-18858429D01*
X16686571Y-18787000D01*
X16686571Y-18729857D01*
X16672286Y-18658429D01*
X16658000Y-18615572D01*
X16643714Y-18587000D01*
X16615143Y-18544143D01*
X16600857Y-18529857D01*
X9414000Y-19068500D02*
X9543000Y-19197500D01*
X9543000Y-19068500D02*
X9414000Y-19197500D01*
X9478500Y-19068500D02*
X9478500Y-19197500D01*
X9414000Y-19133000D02*
X9543000Y-19133000D01*
X9986571Y-19268714D02*
X9815143Y-19268714D01*
X9900857Y-19268714D02*
X9900857Y-18968714D01*
X9872286Y-19011572D01*
X9843714Y-19040143D01*
X9815143Y-19054429D01*
X10115143Y-19240143D02*
X10129428Y-19254429D01*
X10115143Y-19268714D01*
X10100857Y-19254429D01*
X10115143Y-19240143D01*
X10115143Y-19268714D01*
X10243714Y-18997286D02*
X10258000Y-18983000D01*
X10286571Y-18968714D01*
X10358000Y-18968714D01*
X10386571Y-18983000D01*
X10400857Y-18997286D01*
X10415143Y-19025857D01*
X10415143Y-19054429D01*
X10400857Y-19097286D01*
X10229428Y-19268714D01*
X10415143Y-19268714D01*
X10558000Y-19268714D02*
X10615143Y-19268714D01*
X10643714Y-19254429D01*
X10658000Y-19240143D01*
X10686571Y-19197286D01*
X10700857Y-19140143D01*
X10700857Y-19025857D01*
X10686571Y-18997286D01*
X10672286Y-18983000D01*
X10643714Y-18968714D01*
X10586571Y-18968714D01*
X10558000Y-18983000D01*
X10543714Y-18997286D01*
X10529428Y-19025857D01*
X10529428Y-19097286D01*
X10543714Y-19125857D01*
X10558000Y-19140143D01*
X10586571Y-19154429D01*
X10643714Y-19154429D01*
X10672286Y-19140143D01*
X10686571Y-19125857D01*
X10700857Y-19097286D01*
X10886571Y-18968714D02*
X10915143Y-18968714D01*
X10943714Y-18983000D01*
X10958000Y-18997286D01*
X10972286Y-19025857D01*
X10986571Y-19083000D01*
X10986571Y-19154429D01*
X10972286Y-19211572D01*
X10958000Y-19240143D01*
X10943714Y-19254429D01*
X10915143Y-19268714D01*
X10886571Y-19268714D01*
X10858000Y-19254429D01*
X10843714Y-19240143D01*
X10829428Y-19211572D01*
X10815143Y-19154429D01*
X10815143Y-19083000D01*
X10829428Y-19025857D01*
X10843714Y-18997286D01*
X10858000Y-18983000D01*
X10886571Y-18968714D01*
X11115143Y-19268714D02*
X11115143Y-19068714D01*
X11115143Y-19097286D02*
X11129428Y-19083000D01*
X11158000Y-19068714D01*
X11200857Y-19068714D01*
X11229428Y-19083000D01*
X11243714Y-19111572D01*
X11243714Y-19268714D01*
X11243714Y-19111572D02*
X11258000Y-19083000D01*
X11286571Y-19068714D01*
X11329428Y-19068714D01*
X11358000Y-19083000D01*
X11372286Y-19111572D01*
X11372286Y-19268714D01*
X11515143Y-19268714D02*
X11515143Y-19068714D01*
X11515143Y-19097286D02*
X11529428Y-19083000D01*
X11558000Y-19068714D01*
X11600857Y-19068714D01*
X11629428Y-19083000D01*
X11643714Y-19111572D01*
X11643714Y-19268714D01*
X11643714Y-19111572D02*
X11658000Y-19083000D01*
X11686571Y-19068714D01*
X11729428Y-19068714D01*
X11758000Y-19083000D01*
X11772286Y-19111572D01*
X11772286Y-19268714D01*
X12358000Y-18954429D02*
X12100857Y-19340143D01*
X12743714Y-18968714D02*
X12772286Y-18968714D01*
X12800857Y-18983000D01*
X12815143Y-18997286D01*
X12829428Y-19025857D01*
X12843714Y-19083000D01*
X12843714Y-19154429D01*
X12829428Y-19211572D01*
X12815143Y-19240143D01*
X12800857Y-19254429D01*
X12772286Y-19268714D01*
X12743714Y-19268714D01*
X12715143Y-19254429D01*
X12700857Y-19240143D01*
X12686571Y-19211572D01*
X12672286Y-19154429D01*
X12672286Y-19083000D01*
X12686571Y-19025857D01*
X12700857Y-18997286D01*
X12715143Y-18983000D01*
X12743714Y-18968714D01*
X12972286Y-19240143D02*
X12986571Y-19254429D01*
X12972286Y-19268714D01*
X12958000Y-19254429D01*
X12972286Y-19240143D01*
X12972286Y-19268714D01*
X13172286Y-18968714D02*
X13200857Y-18968714D01*
X13229428Y-18983000D01*
X13243714Y-18997286D01*
X13258000Y-19025857D01*
X13272286Y-19083000D01*
X13272286Y-19154429D01*
X13258000Y-19211572D01*
X13243714Y-19240143D01*
X13229428Y-19254429D01*
X13200857Y-19268714D01*
X13172286Y-19268714D01*
X13143714Y-19254429D01*
X13129428Y-19240143D01*
X13115143Y-19211572D01*
X13100857Y-19154429D01*
X13100857Y-19083000D01*
X13115143Y-19025857D01*
X13129428Y-18997286D01*
X13143714Y-18983000D01*
X13172286Y-18968714D01*
X13543714Y-18968714D02*
X13400857Y-18968714D01*
X13386571Y-19111572D01*
X13400857Y-19097286D01*
X13429428Y-19083000D01*
X13500857Y-19083000D01*
X13529428Y-19097286D01*
X13543714Y-19111572D01*
X13558000Y-19140143D01*
X13558000Y-19211572D01*
X13543714Y-19240143D01*
X13529428Y-19254429D01*
X13500857Y-19268714D01*
X13429428Y-19268714D01*
X13400857Y-19254429D01*
X13386571Y-19240143D01*
X13743714Y-18968714D02*
X13772286Y-18968714D01*
X13800857Y-18983000D01*
X13815143Y-18997286D01*
X13829428Y-19025857D01*
X13843714Y-19083000D01*
X13843714Y-19154429D01*
X13829428Y-19211572D01*
X13815143Y-19240143D01*
X13800857Y-19254429D01*
X13772286Y-19268714D01*
X13743714Y-19268714D01*
X13715143Y-19254429D01*
X13700857Y-19240143D01*
X13686571Y-19211572D01*
X13672286Y-19154429D01*
X13672286Y-19083000D01*
X13686571Y-19025857D01*
X13700857Y-18997286D01*
X13715143Y-18983000D01*
X13743714Y-18968714D01*
X14015143Y-19097286D02*
X13986571Y-19083000D01*
X13972286Y-19068714D01*
X13958000Y-19040143D01*
X13958000Y-19025857D01*
X13972286Y-18997286D01*
X13986571Y-18983000D01*
X14015143Y-18968714D01*
X14072286Y-18968714D01*
X14100857Y-18983000D01*
X14115143Y-18997286D01*
X14129428Y-19025857D01*
X14129428Y-19040143D01*
X14115143Y-19068714D01*
X14100857Y-19083000D01*
X14072286Y-19097286D01*
X14015143Y-19097286D01*
X13986571Y-19111572D01*
X13972286Y-19125857D01*
X13958000Y-19154429D01*
X13958000Y-19211572D01*
X13972286Y-19240143D01*
X13986571Y-19254429D01*
X14015143Y-19268714D01*
X14072286Y-19268714D01*
X14100857Y-19254429D01*
X14115143Y-19240143D01*
X14129428Y-19211572D01*
X14129428Y-19154429D01*
X14115143Y-19125857D01*
X14100857Y-19111572D01*
X14072286Y-19097286D01*
X14243714Y-18968714D02*
X14243714Y-19025857D01*
X14358000Y-18968714D02*
X14358000Y-19025857D01*
X14800857Y-19383000D02*
X14786571Y-19368714D01*
X14758000Y-19325857D01*
X14743714Y-19297286D01*
X14729428Y-19254429D01*
X14715143Y-19183000D01*
X14715143Y-19125857D01*
X14729428Y-19054429D01*
X14743714Y-19011572D01*
X14758000Y-18983000D01*
X14786571Y-18940143D01*
X14800857Y-18925857D01*
X14900857Y-18997286D02*
X14915143Y-18983000D01*
X14943714Y-18968714D01*
X15015143Y-18968714D01*
X15043714Y-18983000D01*
X15058000Y-18997286D01*
X15072286Y-19025857D01*
X15072286Y-19054429D01*
X15058000Y-19097286D01*
X14886571Y-19268714D01*
X15072286Y-19268714D01*
X15429428Y-19268714D02*
X15429428Y-18968714D01*
X15558000Y-19268714D02*
X15558000Y-19111572D01*
X15543714Y-19083000D01*
X15515143Y-19068714D01*
X15472286Y-19068714D01*
X15443714Y-19083000D01*
X15429428Y-19097286D01*
X15743714Y-19268714D02*
X15715143Y-19254429D01*
X15700857Y-19240143D01*
X15686571Y-19211572D01*
X15686571Y-19125857D01*
X15700857Y-19097286D01*
X15715143Y-19083000D01*
X15743714Y-19068714D01*
X15786571Y-19068714D01*
X15815143Y-19083000D01*
X15829428Y-19097286D01*
X15843714Y-19125857D01*
X15843714Y-19211572D01*
X15829428Y-19240143D01*
X15815143Y-19254429D01*
X15786571Y-19268714D01*
X15743714Y-19268714D01*
X16015143Y-19268714D02*
X15986571Y-19254429D01*
X15972286Y-19225857D01*
X15972286Y-18968714D01*
X16243714Y-19254429D02*
X16215143Y-19268714D01*
X16158000Y-19268714D01*
X16129428Y-19254429D01*
X16115143Y-19225857D01*
X16115143Y-19111572D01*
X16129428Y-19083000D01*
X16158000Y-19068714D01*
X16215143Y-19068714D01*
X16243714Y-19083000D01*
X16258000Y-19111572D01*
X16258000Y-19140143D01*
X16115143Y-19168714D01*
X16372286Y-19254429D02*
X16400857Y-19268714D01*
X16458000Y-19268714D01*
X16486571Y-19254429D01*
X16500857Y-19225857D01*
X16500857Y-19211572D01*
X16486571Y-19183000D01*
X16458000Y-19168714D01*
X16415143Y-19168714D01*
X16386571Y-19154429D01*
X16372286Y-19125857D01*
X16372286Y-19111572D01*
X16386571Y-19083000D01*
X16415143Y-19068714D01*
X16458000Y-19068714D01*
X16486571Y-19083000D01*
X16600857Y-19383000D02*
X16615143Y-19368714D01*
X16643714Y-19325857D01*
X16658000Y-19297286D01*
X16672286Y-19254429D01*
X16686571Y-19183000D01*
X16686571Y-19125857D01*
X16672286Y-19054429D01*
X16658000Y-19011572D01*
X16643714Y-18983000D01*
X16615143Y-18940143D01*
X16600857Y-18925857D01*
X9411000Y-19463000D02*
X9543000Y-19595000D01*
X9543000Y-19463000D02*
X9411000Y-19595000D01*
X9523669Y-19575670D02*
X9523669Y-19482331D01*
X9430330Y-19482331D01*
X9430330Y-19575670D01*
X9523669Y-19575670D01*
X9986571Y-19664714D02*
X9815143Y-19664714D01*
X9900857Y-19664714D02*
X9900857Y-19364714D01*
X9872286Y-19407572D01*
X9843714Y-19436143D01*
X9815143Y-19450429D01*
X10115143Y-19636143D02*
X10129428Y-19650429D01*
X10115143Y-19664714D01*
X10100857Y-19650429D01*
X10115143Y-19636143D01*
X10115143Y-19664714D01*
X10229428Y-19364714D02*
X10415143Y-19364714D01*
X10315143Y-19479000D01*
X10358000Y-19479000D01*
X10386571Y-19493286D01*
X10400857Y-19507572D01*
X10415143Y-19536143D01*
X10415143Y-19607572D01*
X10400857Y-19636143D01*
X10386571Y-19650429D01*
X10358000Y-19664714D01*
X10272286Y-19664714D01*
X10243714Y-19650429D01*
X10229428Y-19636143D01*
X10529428Y-19393286D02*
X10543714Y-19379000D01*
X10572286Y-19364714D01*
X10643714Y-19364714D01*
X10672286Y-19379000D01*
X10686571Y-19393286D01*
X10700857Y-19421857D01*
X10700857Y-19450429D01*
X10686571Y-19493286D01*
X10515143Y-19664714D01*
X10700857Y-19664714D01*
X10886571Y-19364714D02*
X10915143Y-19364714D01*
X10943714Y-19379000D01*
X10958000Y-19393286D01*
X10972286Y-19421857D01*
X10986571Y-19479000D01*
X10986571Y-19550429D01*
X10972286Y-19607572D01*
X10958000Y-19636143D01*
X10943714Y-19650429D01*
X10915143Y-19664714D01*
X10886571Y-19664714D01*
X10858000Y-19650429D01*
X10843714Y-19636143D01*
X10829428Y-19607572D01*
X10815143Y-19550429D01*
X10815143Y-19479000D01*
X10829428Y-19421857D01*
X10843714Y-19393286D01*
X10858000Y-19379000D01*
X10886571Y-19364714D01*
X11115143Y-19664714D02*
X11115143Y-19464714D01*
X11115143Y-19493286D02*
X11129428Y-19479000D01*
X11158000Y-19464714D01*
X11200857Y-19464714D01*
X11229428Y-19479000D01*
X11243714Y-19507572D01*
X11243714Y-19664714D01*
X11243714Y-19507572D02*
X11258000Y-19479000D01*
X11286571Y-19464714D01*
X11329428Y-19464714D01*
X11358000Y-19479000D01*
X11372286Y-19507572D01*
X11372286Y-19664714D01*
X11515143Y-19664714D02*
X11515143Y-19464714D01*
X11515143Y-19493286D02*
X11529428Y-19479000D01*
X11558000Y-19464714D01*
X11600857Y-19464714D01*
X11629428Y-19479000D01*
X11643714Y-19507572D01*
X11643714Y-19664714D01*
X11643714Y-19507572D02*
X11658000Y-19479000D01*
X11686571Y-19464714D01*
X11729428Y-19464714D01*
X11758000Y-19479000D01*
X11772286Y-19507572D01*
X11772286Y-19664714D01*
X12358000Y-19350429D02*
X12100857Y-19736143D01*
X12743714Y-19364714D02*
X12772286Y-19364714D01*
X12800857Y-19379000D01*
X12815143Y-19393286D01*
X12829428Y-19421857D01*
X12843714Y-19479000D01*
X12843714Y-19550429D01*
X12829428Y-19607572D01*
X12815143Y-19636143D01*
X12800857Y-19650429D01*
X12772286Y-19664714D01*
X12743714Y-19664714D01*
X12715143Y-19650429D01*
X12700857Y-19636143D01*
X12686571Y-19607572D01*
X12672286Y-19550429D01*
X12672286Y-19479000D01*
X12686571Y-19421857D01*
X12700857Y-19393286D01*
X12715143Y-19379000D01*
X12743714Y-19364714D01*
X12972286Y-19636143D02*
X12986571Y-19650429D01*
X12972286Y-19664714D01*
X12958000Y-19650429D01*
X12972286Y-19636143D01*
X12972286Y-19664714D01*
X13172286Y-19364714D02*
X13200857Y-19364714D01*
X13229428Y-19379000D01*
X13243714Y-19393286D01*
X13258000Y-19421857D01*
X13272286Y-19479000D01*
X13272286Y-19550429D01*
X13258000Y-19607572D01*
X13243714Y-19636143D01*
X13229428Y-19650429D01*
X13200857Y-19664714D01*
X13172286Y-19664714D01*
X13143714Y-19650429D01*
X13129428Y-19636143D01*
X13115143Y-19607572D01*
X13100857Y-19550429D01*
X13100857Y-19479000D01*
X13115143Y-19421857D01*
X13129428Y-19393286D01*
X13143714Y-19379000D01*
X13172286Y-19364714D01*
X13543714Y-19364714D02*
X13400857Y-19364714D01*
X13386571Y-19507572D01*
X13400857Y-19493286D01*
X13429428Y-19479000D01*
X13500857Y-19479000D01*
X13529428Y-19493286D01*
X13543714Y-19507572D01*
X13558000Y-19536143D01*
X13558000Y-19607572D01*
X13543714Y-19636143D01*
X13529428Y-19650429D01*
X13500857Y-19664714D01*
X13429428Y-19664714D01*
X13400857Y-19650429D01*
X13386571Y-19636143D01*
X13672286Y-19393286D02*
X13686571Y-19379000D01*
X13715143Y-19364714D01*
X13786571Y-19364714D01*
X13815143Y-19379000D01*
X13829428Y-19393286D01*
X13843714Y-19421857D01*
X13843714Y-19450429D01*
X13829428Y-19493286D01*
X13658000Y-19664714D01*
X13843714Y-19664714D01*
X14029428Y-19364714D02*
X14058000Y-19364714D01*
X14086571Y-19379000D01*
X14100857Y-19393286D01*
X14115143Y-19421857D01*
X14129428Y-19479000D01*
X14129428Y-19550429D01*
X14115143Y-19607572D01*
X14100857Y-19636143D01*
X14086571Y-19650429D01*
X14058000Y-19664714D01*
X14029428Y-19664714D01*
X14000857Y-19650429D01*
X13986571Y-19636143D01*
X13972286Y-19607572D01*
X13958000Y-19550429D01*
X13958000Y-19479000D01*
X13972286Y-19421857D01*
X13986571Y-19393286D01*
X14000857Y-19379000D01*
X14029428Y-19364714D01*
X14243714Y-19364714D02*
X14243714Y-19421857D01*
X14358000Y-19364714D02*
X14358000Y-19421857D01*
X14800857Y-19779000D02*
X14786571Y-19764714D01*
X14758000Y-19721857D01*
X14743714Y-19693286D01*
X14729428Y-19650429D01*
X14715143Y-19579000D01*
X14715143Y-19521857D01*
X14729428Y-19450429D01*
X14743714Y-19407572D01*
X14758000Y-19379000D01*
X14786571Y-19336143D01*
X14800857Y-19321857D01*
X14958000Y-19493286D02*
X14929428Y-19479000D01*
X14915143Y-19464714D01*
X14900857Y-19436143D01*
X14900857Y-19421857D01*
X14915143Y-19393286D01*
X14929428Y-19379000D01*
X14958000Y-19364714D01*
X15015143Y-19364714D01*
X15043714Y-19379000D01*
X15058000Y-19393286D01*
X15072286Y-19421857D01*
X15072286Y-19436143D01*
X15058000Y-19464714D01*
X15043714Y-19479000D01*
X15015143Y-19493286D01*
X14958000Y-19493286D01*
X14929428Y-19507572D01*
X14915143Y-19521857D01*
X14900857Y-19550429D01*
X14900857Y-19607572D01*
X14915143Y-19636143D01*
X14929428Y-19650429D01*
X14958000Y-19664714D01*
X15015143Y-19664714D01*
X15043714Y-19650429D01*
X15058000Y-19636143D01*
X15072286Y-19607572D01*
X15072286Y-19550429D01*
X15058000Y-19521857D01*
X15043714Y-19507572D01*
X15015143Y-19493286D01*
X15429428Y-19664714D02*
X15429428Y-19364714D01*
X15558000Y-19664714D02*
X15558000Y-19507572D01*
X15543714Y-19479000D01*
X15515143Y-19464714D01*
X15472286Y-19464714D01*
X15443714Y-19479000D01*
X15429428Y-19493286D01*
X15743714Y-19664714D02*
X15715143Y-19650429D01*
X15700857Y-19636143D01*
X15686571Y-19607572D01*
X15686571Y-19521857D01*
X15700857Y-19493286D01*
X15715143Y-19479000D01*
X15743714Y-19464714D01*
X15786571Y-19464714D01*
X15815143Y-19479000D01*
X15829428Y-19493286D01*
X15843714Y-19521857D01*
X15843714Y-19607572D01*
X15829428Y-19636143D01*
X15815143Y-19650429D01*
X15786571Y-19664714D01*
X15743714Y-19664714D01*
X16015143Y-19664714D02*
X15986571Y-19650429D01*
X15972286Y-19621857D01*
X15972286Y-19364714D01*
X16243714Y-19650429D02*
X16215143Y-19664714D01*
X16158000Y-19664714D01*
X16129428Y-19650429D01*
X16115143Y-19621857D01*
X16115143Y-19507572D01*
X16129428Y-19479000D01*
X16158000Y-19464714D01*
X16215143Y-19464714D01*
X16243714Y-19479000D01*
X16258000Y-19507572D01*
X16258000Y-19536143D01*
X16115143Y-19564714D01*
X16372286Y-19650429D02*
X16400857Y-19664714D01*
X16458000Y-19664714D01*
X16486571Y-19650429D01*
X16500857Y-19621857D01*
X16500857Y-19607572D01*
X16486571Y-19579000D01*
X16458000Y-19564714D01*
X16415143Y-19564714D01*
X16386571Y-19550429D01*
X16372286Y-19521857D01*
X16372286Y-19507572D01*
X16386571Y-19479000D01*
X16415143Y-19464714D01*
X16458000Y-19464714D01*
X16486571Y-19479000D01*
X16600857Y-19779000D02*
X16615143Y-19764714D01*
X16643714Y-19721857D01*
X16658000Y-19693286D01*
X16672286Y-19650429D01*
X16686571Y-19579000D01*
X16686571Y-19521857D01*
X16672286Y-19450429D01*
X16658000Y-19407572D01*
X16643714Y-19379000D01*
X16615143Y-19336143D01*
X16600857Y-19321857D01*
X9386000Y-19846500D02*
X9543000Y-20003500D01*
X9543000Y-19846500D02*
X9386000Y-20003500D01*
X9464500Y-20003500D02*
X9543000Y-19925000D01*
X9464500Y-19846500D01*
X9386000Y-19925000D01*
X9464500Y-20003500D01*
X9986571Y-20060714D02*
X9815143Y-20060714D01*
X9900857Y-20060714D02*
X9900857Y-19760714D01*
X9872286Y-19803572D01*
X9843714Y-19832143D01*
X9815143Y-19846429D01*
X10115143Y-20032143D02*
X10129428Y-20046429D01*
X10115143Y-20060714D01*
X10100857Y-20046429D01*
X10115143Y-20032143D01*
X10115143Y-20060714D01*
X10400857Y-19760714D02*
X10258000Y-19760714D01*
X10243714Y-19903572D01*
X10258000Y-19889286D01*
X10286571Y-19875000D01*
X10358000Y-19875000D01*
X10386571Y-19889286D01*
X10400857Y-19903572D01*
X10415143Y-19932143D01*
X10415143Y-20003572D01*
X10400857Y-20032143D01*
X10386571Y-20046429D01*
X10358000Y-20060714D01*
X10286571Y-20060714D01*
X10258000Y-20046429D01*
X10243714Y-20032143D01*
X10515143Y-19760714D02*
X10715143Y-19760714D01*
X10586571Y-20060714D01*
X10886571Y-19760714D02*
X10915143Y-19760714D01*
X10943714Y-19775000D01*
X10958000Y-19789286D01*
X10972286Y-19817857D01*
X10986571Y-19875000D01*
X10986571Y-19946429D01*
X10972286Y-20003572D01*
X10958000Y-20032143D01*
X10943714Y-20046429D01*
X10915143Y-20060714D01*
X10886571Y-20060714D01*
X10858000Y-20046429D01*
X10843714Y-20032143D01*
X10829428Y-20003572D01*
X10815143Y-19946429D01*
X10815143Y-19875000D01*
X10829428Y-19817857D01*
X10843714Y-19789286D01*
X10858000Y-19775000D01*
X10886571Y-19760714D01*
X11115143Y-20060714D02*
X11115143Y-19860714D01*
X11115143Y-19889286D02*
X11129428Y-19875000D01*
X11158000Y-19860714D01*
X11200857Y-19860714D01*
X11229428Y-19875000D01*
X11243714Y-19903572D01*
X11243714Y-20060714D01*
X11243714Y-19903572D02*
X11258000Y-19875000D01*
X11286571Y-19860714D01*
X11329428Y-19860714D01*
X11358000Y-19875000D01*
X11372286Y-19903572D01*
X11372286Y-20060714D01*
X11515143Y-20060714D02*
X11515143Y-19860714D01*
X11515143Y-19889286D02*
X11529428Y-19875000D01*
X11558000Y-19860714D01*
X11600857Y-19860714D01*
X11629428Y-19875000D01*
X11643714Y-19903572D01*
X11643714Y-20060714D01*
X11643714Y-19903572D02*
X11658000Y-19875000D01*
X11686571Y-19860714D01*
X11729428Y-19860714D01*
X11758000Y-19875000D01*
X11772286Y-19903572D01*
X11772286Y-20060714D01*
X12358000Y-19746429D02*
X12100857Y-20132143D01*
X12743714Y-19760714D02*
X12772286Y-19760714D01*
X12800857Y-19775000D01*
X12815143Y-19789286D01*
X12829428Y-19817857D01*
X12843714Y-19875000D01*
X12843714Y-19946429D01*
X12829428Y-20003572D01*
X12815143Y-20032143D01*
X12800857Y-20046429D01*
X12772286Y-20060714D01*
X12743714Y-20060714D01*
X12715143Y-20046429D01*
X12700857Y-20032143D01*
X12686571Y-20003572D01*
X12672286Y-19946429D01*
X12672286Y-19875000D01*
X12686571Y-19817857D01*
X12700857Y-19789286D01*
X12715143Y-19775000D01*
X12743714Y-19760714D01*
X12972286Y-20032143D02*
X12986571Y-20046429D01*
X12972286Y-20060714D01*
X12958000Y-20046429D01*
X12972286Y-20032143D01*
X12972286Y-20060714D01*
X13172286Y-19760714D02*
X13200857Y-19760714D01*
X13229428Y-19775000D01*
X13243714Y-19789286D01*
X13258000Y-19817857D01*
X13272286Y-19875000D01*
X13272286Y-19946429D01*
X13258000Y-20003572D01*
X13243714Y-20032143D01*
X13229428Y-20046429D01*
X13200857Y-20060714D01*
X13172286Y-20060714D01*
X13143714Y-20046429D01*
X13129428Y-20032143D01*
X13115143Y-20003572D01*
X13100857Y-19946429D01*
X13100857Y-19875000D01*
X13115143Y-19817857D01*
X13129428Y-19789286D01*
X13143714Y-19775000D01*
X13172286Y-19760714D01*
X13529428Y-19760714D02*
X13472286Y-19760714D01*
X13443714Y-19775000D01*
X13429428Y-19789286D01*
X13400857Y-19832143D01*
X13386571Y-19889286D01*
X13386571Y-20003572D01*
X13400857Y-20032143D01*
X13415143Y-20046429D01*
X13443714Y-20060714D01*
X13500857Y-20060714D01*
X13529428Y-20046429D01*
X13543714Y-20032143D01*
X13558000Y-20003572D01*
X13558000Y-19932143D01*
X13543714Y-19903572D01*
X13529428Y-19889286D01*
X13500857Y-19875000D01*
X13443714Y-19875000D01*
X13415143Y-19889286D01*
X13400857Y-19903572D01*
X13386571Y-19932143D01*
X13843714Y-20060714D02*
X13672286Y-20060714D01*
X13758000Y-20060714D02*
X13758000Y-19760714D01*
X13729428Y-19803572D01*
X13700857Y-19832143D01*
X13672286Y-19846429D01*
X14015143Y-19889286D02*
X13986571Y-19875000D01*
X13972286Y-19860714D01*
X13958000Y-19832143D01*
X13958000Y-19817857D01*
X13972286Y-19789286D01*
X13986571Y-19775000D01*
X14015143Y-19760714D01*
X14072286Y-19760714D01*
X14100857Y-19775000D01*
X14115143Y-19789286D01*
X14129428Y-19817857D01*
X14129428Y-19832143D01*
X14115143Y-19860714D01*
X14100857Y-19875000D01*
X14072286Y-19889286D01*
X14015143Y-19889286D01*
X13986571Y-19903572D01*
X13972286Y-19917857D01*
X13958000Y-19946429D01*
X13958000Y-20003572D01*
X13972286Y-20032143D01*
X13986571Y-20046429D01*
X14015143Y-20060714D01*
X14072286Y-20060714D01*
X14100857Y-20046429D01*
X14115143Y-20032143D01*
X14129428Y-20003572D01*
X14129428Y-19946429D01*
X14115143Y-19917857D01*
X14100857Y-19903572D01*
X14072286Y-19889286D01*
X14243714Y-19760714D02*
X14243714Y-19817857D01*
X14358000Y-19760714D02*
X14358000Y-19817857D01*
X14800857Y-20175000D02*
X14786571Y-20160714D01*
X14758000Y-20117857D01*
X14743714Y-20089286D01*
X14729428Y-20046429D01*
X14715143Y-19975000D01*
X14715143Y-19917857D01*
X14729428Y-19846429D01*
X14743714Y-19803572D01*
X14758000Y-19775000D01*
X14786571Y-19732143D01*
X14800857Y-19717857D01*
X15043714Y-19860714D02*
X15043714Y-20060714D01*
X14972286Y-19746429D02*
X14900857Y-19960714D01*
X15086571Y-19960714D01*
X15429428Y-20060714D02*
X15429428Y-19760714D01*
X15558000Y-20060714D02*
X15558000Y-19903572D01*
X15543714Y-19875000D01*
X15515143Y-19860714D01*
X15472286Y-19860714D01*
X15443714Y-19875000D01*
X15429428Y-19889286D01*
X15743714Y-20060714D02*
X15715143Y-20046429D01*
X15700857Y-20032143D01*
X15686571Y-20003572D01*
X15686571Y-19917857D01*
X15700857Y-19889286D01*
X15715143Y-19875000D01*
X15743714Y-19860714D01*
X15786571Y-19860714D01*
X15815143Y-19875000D01*
X15829428Y-19889286D01*
X15843714Y-19917857D01*
X15843714Y-20003572D01*
X15829428Y-20032143D01*
X15815143Y-20046429D01*
X15786571Y-20060714D01*
X15743714Y-20060714D01*
X16015143Y-20060714D02*
X15986571Y-20046429D01*
X15972286Y-20017857D01*
X15972286Y-19760714D01*
X16243714Y-20046429D02*
X16215143Y-20060714D01*
X16158000Y-20060714D01*
X16129428Y-20046429D01*
X16115143Y-20017857D01*
X16115143Y-19903572D01*
X16129428Y-19875000D01*
X16158000Y-19860714D01*
X16215143Y-19860714D01*
X16243714Y-19875000D01*
X16258000Y-19903572D01*
X16258000Y-19932143D01*
X16115143Y-19960714D01*
X16372286Y-20046429D02*
X16400857Y-20060714D01*
X16458000Y-20060714D01*
X16486571Y-20046429D01*
X16500857Y-20017857D01*
X16500857Y-20003572D01*
X16486571Y-19975000D01*
X16458000Y-19960714D01*
X16415143Y-19960714D01*
X16386571Y-19946429D01*
X16372286Y-19917857D01*
X16372286Y-19903572D01*
X16386571Y-19875000D01*
X16415143Y-19860714D01*
X16458000Y-19860714D01*
X16486571Y-19875000D01*
X16600857Y-20175000D02*
X16615143Y-20160714D01*
X16643714Y-20117857D01*
X16658000Y-20089286D01*
X16672286Y-20046429D01*
X16686571Y-19975000D01*
X16686571Y-19917857D01*
X16672286Y-19846429D01*
X16658000Y-19803572D01*
X16643714Y-19775000D01*
X16615143Y-19732143D01*
X16600857Y-19717857D01*
X9460500Y-20238500D02*
X9460500Y-20403500D01*
X9378000Y-20321000D02*
X9543000Y-20321000D01*
X9543000Y-20321000D02*
G75*
G03*
X9543000Y-20321000I-82500J0D01*
G01*
X9986571Y-20456714D02*
X9815143Y-20456714D01*
X9900857Y-20456714D02*
X9900857Y-20156714D01*
X9872286Y-20199572D01*
X9843714Y-20228143D01*
X9815143Y-20242429D01*
X10115143Y-20428143D02*
X10129428Y-20442429D01*
X10115143Y-20456714D01*
X10100857Y-20442429D01*
X10115143Y-20428143D01*
X10115143Y-20456714D01*
X10386571Y-20156714D02*
X10329428Y-20156714D01*
X10300857Y-20171000D01*
X10286571Y-20185286D01*
X10258000Y-20228143D01*
X10243714Y-20285286D01*
X10243714Y-20399572D01*
X10258000Y-20428143D01*
X10272286Y-20442429D01*
X10300857Y-20456714D01*
X10358000Y-20456714D01*
X10386571Y-20442429D01*
X10400857Y-20428143D01*
X10415143Y-20399572D01*
X10415143Y-20328143D01*
X10400857Y-20299572D01*
X10386571Y-20285286D01*
X10358000Y-20271000D01*
X10300857Y-20271000D01*
X10272286Y-20285286D01*
X10258000Y-20299572D01*
X10243714Y-20328143D01*
X10686571Y-20156714D02*
X10543714Y-20156714D01*
X10529428Y-20299572D01*
X10543714Y-20285286D01*
X10572286Y-20271000D01*
X10643714Y-20271000D01*
X10672286Y-20285286D01*
X10686571Y-20299572D01*
X10700857Y-20328143D01*
X10700857Y-20399572D01*
X10686571Y-20428143D01*
X10672286Y-20442429D01*
X10643714Y-20456714D01*
X10572286Y-20456714D01*
X10543714Y-20442429D01*
X10529428Y-20428143D01*
X10886571Y-20156714D02*
X10915143Y-20156714D01*
X10943714Y-20171000D01*
X10958000Y-20185286D01*
X10972286Y-20213857D01*
X10986571Y-20271000D01*
X10986571Y-20342429D01*
X10972286Y-20399572D01*
X10958000Y-20428143D01*
X10943714Y-20442429D01*
X10915143Y-20456714D01*
X10886571Y-20456714D01*
X10858000Y-20442429D01*
X10843714Y-20428143D01*
X10829428Y-20399572D01*
X10815143Y-20342429D01*
X10815143Y-20271000D01*
X10829428Y-20213857D01*
X10843714Y-20185286D01*
X10858000Y-20171000D01*
X10886571Y-20156714D01*
X11115143Y-20456714D02*
X11115143Y-20256714D01*
X11115143Y-20285286D02*
X11129428Y-20271000D01*
X11158000Y-20256714D01*
X11200857Y-20256714D01*
X11229428Y-20271000D01*
X11243714Y-20299572D01*
X11243714Y-20456714D01*
X11243714Y-20299572D02*
X11258000Y-20271000D01*
X11286571Y-20256714D01*
X11329428Y-20256714D01*
X11358000Y-20271000D01*
X11372286Y-20299572D01*
X11372286Y-20456714D01*
X11515143Y-20456714D02*
X11515143Y-20256714D01*
X11515143Y-20285286D02*
X11529428Y-20271000D01*
X11558000Y-20256714D01*
X11600857Y-20256714D01*
X11629428Y-20271000D01*
X11643714Y-20299572D01*
X11643714Y-20456714D01*
X11643714Y-20299572D02*
X11658000Y-20271000D01*
X11686571Y-20256714D01*
X11729428Y-20256714D01*
X11758000Y-20271000D01*
X11772286Y-20299572D01*
X11772286Y-20456714D01*
X12358000Y-20142429D02*
X12100857Y-20528143D01*
X12743714Y-20156714D02*
X12772286Y-20156714D01*
X12800857Y-20171000D01*
X12815143Y-20185286D01*
X12829428Y-20213857D01*
X12843714Y-20271000D01*
X12843714Y-20342429D01*
X12829428Y-20399572D01*
X12815143Y-20428143D01*
X12800857Y-20442429D01*
X12772286Y-20456714D01*
X12743714Y-20456714D01*
X12715143Y-20442429D01*
X12700857Y-20428143D01*
X12686571Y-20399572D01*
X12672286Y-20342429D01*
X12672286Y-20271000D01*
X12686571Y-20213857D01*
X12700857Y-20185286D01*
X12715143Y-20171000D01*
X12743714Y-20156714D01*
X12972286Y-20428143D02*
X12986571Y-20442429D01*
X12972286Y-20456714D01*
X12958000Y-20442429D01*
X12972286Y-20428143D01*
X12972286Y-20456714D01*
X13172286Y-20156714D02*
X13200857Y-20156714D01*
X13229428Y-20171000D01*
X13243714Y-20185286D01*
X13258000Y-20213857D01*
X13272286Y-20271000D01*
X13272286Y-20342429D01*
X13258000Y-20399572D01*
X13243714Y-20428143D01*
X13229428Y-20442429D01*
X13200857Y-20456714D01*
X13172286Y-20456714D01*
X13143714Y-20442429D01*
X13129428Y-20428143D01*
X13115143Y-20399572D01*
X13100857Y-20342429D01*
X13100857Y-20271000D01*
X13115143Y-20213857D01*
X13129428Y-20185286D01*
X13143714Y-20171000D01*
X13172286Y-20156714D01*
X13529428Y-20156714D02*
X13472286Y-20156714D01*
X13443714Y-20171000D01*
X13429428Y-20185286D01*
X13400857Y-20228143D01*
X13386571Y-20285286D01*
X13386571Y-20399572D01*
X13400857Y-20428143D01*
X13415143Y-20442429D01*
X13443714Y-20456714D01*
X13500857Y-20456714D01*
X13529428Y-20442429D01*
X13543714Y-20428143D01*
X13558000Y-20399572D01*
X13558000Y-20328143D01*
X13543714Y-20299572D01*
X13529428Y-20285286D01*
X13500857Y-20271000D01*
X13443714Y-20271000D01*
X13415143Y-20285286D01*
X13400857Y-20299572D01*
X13386571Y-20328143D01*
X13829428Y-20156714D02*
X13686571Y-20156714D01*
X13672286Y-20299572D01*
X13686571Y-20285286D01*
X13715143Y-20271000D01*
X13786571Y-20271000D01*
X13815143Y-20285286D01*
X13829428Y-20299572D01*
X13843714Y-20328143D01*
X13843714Y-20399572D01*
X13829428Y-20428143D01*
X13815143Y-20442429D01*
X13786571Y-20456714D01*
X13715143Y-20456714D01*
X13686571Y-20442429D01*
X13672286Y-20428143D01*
X14029428Y-20156714D02*
X14058000Y-20156714D01*
X14086571Y-20171000D01*
X14100857Y-20185286D01*
X14115143Y-20213857D01*
X14129428Y-20271000D01*
X14129428Y-20342429D01*
X14115143Y-20399572D01*
X14100857Y-20428143D01*
X14086571Y-20442429D01*
X14058000Y-20456714D01*
X14029428Y-20456714D01*
X14000857Y-20442429D01*
X13986571Y-20428143D01*
X13972286Y-20399572D01*
X13958000Y-20342429D01*
X13958000Y-20271000D01*
X13972286Y-20213857D01*
X13986571Y-20185286D01*
X14000857Y-20171000D01*
X14029428Y-20156714D01*
X14243714Y-20156714D02*
X14243714Y-20213857D01*
X14358000Y-20156714D02*
X14358000Y-20213857D01*
X14800857Y-20571000D02*
X14786571Y-20556714D01*
X14758000Y-20513857D01*
X14743714Y-20485286D01*
X14729428Y-20442429D01*
X14715143Y-20371000D01*
X14715143Y-20313857D01*
X14729428Y-20242429D01*
X14743714Y-20199572D01*
X14758000Y-20171000D01*
X14786571Y-20128143D01*
X14800857Y-20113857D01*
X15043714Y-20156714D02*
X14986571Y-20156714D01*
X14958000Y-20171000D01*
X14943714Y-20185286D01*
X14915143Y-20228143D01*
X14900857Y-20285286D01*
X14900857Y-20399572D01*
X14915143Y-20428143D01*
X14929428Y-20442429D01*
X14958000Y-20456714D01*
X15015143Y-20456714D01*
X15043714Y-20442429D01*
X15058000Y-20428143D01*
X15072286Y-20399572D01*
X15072286Y-20328143D01*
X15058000Y-20299572D01*
X15043714Y-20285286D01*
X15015143Y-20271000D01*
X14958000Y-20271000D01*
X14929428Y-20285286D01*
X14915143Y-20299572D01*
X14900857Y-20328143D01*
X15429428Y-20456714D02*
X15429428Y-20156714D01*
X15558000Y-20456714D02*
X15558000Y-20299572D01*
X15543714Y-20271000D01*
X15515143Y-20256714D01*
X15472286Y-20256714D01*
X15443714Y-20271000D01*
X15429428Y-20285286D01*
X15743714Y-20456714D02*
X15715143Y-20442429D01*
X15700857Y-20428143D01*
X15686571Y-20399572D01*
X15686571Y-20313857D01*
X15700857Y-20285286D01*
X15715143Y-20271000D01*
X15743714Y-20256714D01*
X15786571Y-20256714D01*
X15815143Y-20271000D01*
X15829428Y-20285286D01*
X15843714Y-20313857D01*
X15843714Y-20399572D01*
X15829428Y-20428143D01*
X15815143Y-20442429D01*
X15786571Y-20456714D01*
X15743714Y-20456714D01*
X16015143Y-20456714D02*
X15986571Y-20442429D01*
X15972286Y-20413857D01*
X15972286Y-20156714D01*
X16243714Y-20442429D02*
X16215143Y-20456714D01*
X16158000Y-20456714D01*
X16129428Y-20442429D01*
X16115143Y-20413857D01*
X16115143Y-20299572D01*
X16129428Y-20271000D01*
X16158000Y-20256714D01*
X16215143Y-20256714D01*
X16243714Y-20271000D01*
X16258000Y-20299572D01*
X16258000Y-20328143D01*
X16115143Y-20356714D01*
X16372286Y-20442429D02*
X16400857Y-20456714D01*
X16458000Y-20456714D01*
X16486571Y-20442429D01*
X16500857Y-20413857D01*
X16500857Y-20399572D01*
X16486571Y-20371000D01*
X16458000Y-20356714D01*
X16415143Y-20356714D01*
X16386571Y-20342429D01*
X16372286Y-20313857D01*
X16372286Y-20299572D01*
X16386571Y-20271000D01*
X16415143Y-20256714D01*
X16458000Y-20256714D01*
X16486571Y-20271000D01*
X16600857Y-20571000D02*
X16615143Y-20556714D01*
X16643714Y-20513857D01*
X16658000Y-20485286D01*
X16672286Y-20442429D01*
X16686571Y-20371000D01*
X16686571Y-20313857D01*
X16672286Y-20242429D01*
X16658000Y-20199572D01*
X16643714Y-20171000D01*
X16615143Y-20128143D01*
X16600857Y-20113857D01*
X9515176Y-20784176D02*
X9515176Y-20649824D01*
X9380824Y-20649824D01*
X9380824Y-20784176D01*
X9515176Y-20784176D01*
X9543000Y-20717000D02*
G75*
G03*
X9543000Y-20717000I-95000J0D01*
G01*
X9986571Y-20852714D02*
X9815143Y-20852714D01*
X9900857Y-20852714D02*
X9900857Y-20552714D01*
X9872286Y-20595572D01*
X9843714Y-20624143D01*
X9815143Y-20638429D01*
X10115143Y-20824143D02*
X10129428Y-20838429D01*
X10115143Y-20852714D01*
X10100857Y-20838429D01*
X10115143Y-20824143D01*
X10115143Y-20852714D01*
X10272286Y-20852714D02*
X10329428Y-20852714D01*
X10358000Y-20838429D01*
X10372286Y-20824143D01*
X10400857Y-20781286D01*
X10415143Y-20724143D01*
X10415143Y-20609857D01*
X10400857Y-20581286D01*
X10386571Y-20567000D01*
X10358000Y-20552714D01*
X10300857Y-20552714D01*
X10272286Y-20567000D01*
X10258000Y-20581286D01*
X10243714Y-20609857D01*
X10243714Y-20681286D01*
X10258000Y-20709857D01*
X10272286Y-20724143D01*
X10300857Y-20738429D01*
X10358000Y-20738429D01*
X10386571Y-20724143D01*
X10400857Y-20709857D01*
X10415143Y-20681286D01*
X10600857Y-20552714D02*
X10629428Y-20552714D01*
X10658000Y-20567000D01*
X10672286Y-20581286D01*
X10686571Y-20609857D01*
X10700857Y-20667000D01*
X10700857Y-20738429D01*
X10686571Y-20795572D01*
X10672286Y-20824143D01*
X10658000Y-20838429D01*
X10629428Y-20852714D01*
X10600857Y-20852714D01*
X10572286Y-20838429D01*
X10558000Y-20824143D01*
X10543714Y-20795572D01*
X10529428Y-20738429D01*
X10529428Y-20667000D01*
X10543714Y-20609857D01*
X10558000Y-20581286D01*
X10572286Y-20567000D01*
X10600857Y-20552714D01*
X10886571Y-20552714D02*
X10915143Y-20552714D01*
X10943714Y-20567000D01*
X10958000Y-20581286D01*
X10972286Y-20609857D01*
X10986571Y-20667000D01*
X10986571Y-20738429D01*
X10972286Y-20795572D01*
X10958000Y-20824143D01*
X10943714Y-20838429D01*
X10915143Y-20852714D01*
X10886571Y-20852714D01*
X10858000Y-20838429D01*
X10843714Y-20824143D01*
X10829428Y-20795572D01*
X10815143Y-20738429D01*
X10815143Y-20667000D01*
X10829428Y-20609857D01*
X10843714Y-20581286D01*
X10858000Y-20567000D01*
X10886571Y-20552714D01*
X11115143Y-20852714D02*
X11115143Y-20652714D01*
X11115143Y-20681286D02*
X11129428Y-20667000D01*
X11158000Y-20652714D01*
X11200857Y-20652714D01*
X11229428Y-20667000D01*
X11243714Y-20695572D01*
X11243714Y-20852714D01*
X11243714Y-20695572D02*
X11258000Y-20667000D01*
X11286571Y-20652714D01*
X11329428Y-20652714D01*
X11358000Y-20667000D01*
X11372286Y-20695572D01*
X11372286Y-20852714D01*
X11515143Y-20852714D02*
X11515143Y-20652714D01*
X11515143Y-20681286D02*
X11529428Y-20667000D01*
X11558000Y-20652714D01*
X11600857Y-20652714D01*
X11629428Y-20667000D01*
X11643714Y-20695572D01*
X11643714Y-20852714D01*
X11643714Y-20695572D02*
X11658000Y-20667000D01*
X11686571Y-20652714D01*
X11729428Y-20652714D01*
X11758000Y-20667000D01*
X11772286Y-20695572D01*
X11772286Y-20852714D01*
X12358000Y-20538429D02*
X12100857Y-20924143D01*
X12743714Y-20552714D02*
X12772286Y-20552714D01*
X12800857Y-20567000D01*
X12815143Y-20581286D01*
X12829428Y-20609857D01*
X12843714Y-20667000D01*
X12843714Y-20738429D01*
X12829428Y-20795572D01*
X12815143Y-20824143D01*
X12800857Y-20838429D01*
X12772286Y-20852714D01*
X12743714Y-20852714D01*
X12715143Y-20838429D01*
X12700857Y-20824143D01*
X12686571Y-20795572D01*
X12672286Y-20738429D01*
X12672286Y-20667000D01*
X12686571Y-20609857D01*
X12700857Y-20581286D01*
X12715143Y-20567000D01*
X12743714Y-20552714D01*
X12972286Y-20824143D02*
X12986571Y-20838429D01*
X12972286Y-20852714D01*
X12958000Y-20838429D01*
X12972286Y-20824143D01*
X12972286Y-20852714D01*
X13172286Y-20552714D02*
X13200857Y-20552714D01*
X13229428Y-20567000D01*
X13243714Y-20581286D01*
X13258000Y-20609857D01*
X13272286Y-20667000D01*
X13272286Y-20738429D01*
X13258000Y-20795572D01*
X13243714Y-20824143D01*
X13229428Y-20838429D01*
X13200857Y-20852714D01*
X13172286Y-20852714D01*
X13143714Y-20838429D01*
X13129428Y-20824143D01*
X13115143Y-20795572D01*
X13100857Y-20738429D01*
X13100857Y-20667000D01*
X13115143Y-20609857D01*
X13129428Y-20581286D01*
X13143714Y-20567000D01*
X13172286Y-20552714D01*
X13372286Y-20552714D02*
X13572286Y-20552714D01*
X13443714Y-20852714D01*
X13815143Y-20652714D02*
X13815143Y-20852714D01*
X13743714Y-20538429D02*
X13672286Y-20752714D01*
X13858000Y-20752714D01*
X14015143Y-20681286D02*
X13986571Y-20667000D01*
X13972286Y-20652714D01*
X13958000Y-20624143D01*
X13958000Y-20609857D01*
X13972286Y-20581286D01*
X13986571Y-20567000D01*
X14015143Y-20552714D01*
X14072286Y-20552714D01*
X14100857Y-20567000D01*
X14115143Y-20581286D01*
X14129428Y-20609857D01*
X14129428Y-20624143D01*
X14115143Y-20652714D01*
X14100857Y-20667000D01*
X14072286Y-20681286D01*
X14015143Y-20681286D01*
X13986571Y-20695572D01*
X13972286Y-20709857D01*
X13958000Y-20738429D01*
X13958000Y-20795572D01*
X13972286Y-20824143D01*
X13986571Y-20838429D01*
X14015143Y-20852714D01*
X14072286Y-20852714D01*
X14100857Y-20838429D01*
X14115143Y-20824143D01*
X14129428Y-20795572D01*
X14129428Y-20738429D01*
X14115143Y-20709857D01*
X14100857Y-20695572D01*
X14072286Y-20681286D01*
X14243714Y-20552714D02*
X14243714Y-20609857D01*
X14358000Y-20552714D02*
X14358000Y-20609857D01*
X14800857Y-20967000D02*
X14786571Y-20952714D01*
X14758000Y-20909857D01*
X14743714Y-20881286D01*
X14729428Y-20838429D01*
X14715143Y-20767000D01*
X14715143Y-20709857D01*
X14729428Y-20638429D01*
X14743714Y-20595572D01*
X14758000Y-20567000D01*
X14786571Y-20524143D01*
X14800857Y-20509857D01*
X14900857Y-20581286D02*
X14915143Y-20567000D01*
X14943714Y-20552714D01*
X15015143Y-20552714D01*
X15043714Y-20567000D01*
X15058000Y-20581286D01*
X15072286Y-20609857D01*
X15072286Y-20638429D01*
X15058000Y-20681286D01*
X14886571Y-20852714D01*
X15072286Y-20852714D01*
X15429428Y-20852714D02*
X15429428Y-20552714D01*
X15558000Y-20852714D02*
X15558000Y-20695572D01*
X15543714Y-20667000D01*
X15515143Y-20652714D01*
X15472286Y-20652714D01*
X15443714Y-20667000D01*
X15429428Y-20681286D01*
X15743714Y-20852714D02*
X15715143Y-20838429D01*
X15700857Y-20824143D01*
X15686571Y-20795572D01*
X15686571Y-20709857D01*
X15700857Y-20681286D01*
X15715143Y-20667000D01*
X15743714Y-20652714D01*
X15786571Y-20652714D01*
X15815143Y-20667000D01*
X15829428Y-20681286D01*
X15843714Y-20709857D01*
X15843714Y-20795572D01*
X15829428Y-20824143D01*
X15815143Y-20838429D01*
X15786571Y-20852714D01*
X15743714Y-20852714D01*
X16015143Y-20852714D02*
X15986571Y-20838429D01*
X15972286Y-20809857D01*
X15972286Y-20552714D01*
X16243714Y-20838429D02*
X16215143Y-20852714D01*
X16158000Y-20852714D01*
X16129428Y-20838429D01*
X16115143Y-20809857D01*
X16115143Y-20695572D01*
X16129428Y-20667000D01*
X16158000Y-20652714D01*
X16215143Y-20652714D01*
X16243714Y-20667000D01*
X16258000Y-20695572D01*
X16258000Y-20724143D01*
X16115143Y-20752714D01*
X16372286Y-20838429D02*
X16400857Y-20852714D01*
X16458000Y-20852714D01*
X16486571Y-20838429D01*
X16500857Y-20809857D01*
X16500857Y-20795572D01*
X16486571Y-20767000D01*
X16458000Y-20752714D01*
X16415143Y-20752714D01*
X16386571Y-20738429D01*
X16372286Y-20709857D01*
X16372286Y-20695572D01*
X16386571Y-20667000D01*
X16415143Y-20652714D01*
X16458000Y-20652714D01*
X16486571Y-20667000D01*
X16600857Y-20967000D02*
X16615143Y-20952714D01*
X16643714Y-20909857D01*
X16658000Y-20881286D01*
X16672286Y-20838429D01*
X16686571Y-20767000D01*
X16686571Y-20709857D01*
X16672286Y-20638429D01*
X16658000Y-20595572D01*
X16643714Y-20567000D01*
X16615143Y-20524143D01*
X16600857Y-20509857D01*
X9383000Y-21273000D02*
X9543000Y-21113000D01*
X9383000Y-20953000D01*
X9223000Y-21113000D01*
X9383000Y-21273000D01*
X9543000Y-21113000D02*
G75*
G03*
X9543000Y-21113000I-160000J0D01*
G01*
X9800857Y-20948714D02*
X9986571Y-20948714D01*
X9886571Y-21063000D01*
X9929428Y-21063000D01*
X9958000Y-21077286D01*
X9972286Y-21091572D01*
X9986571Y-21120143D01*
X9986571Y-21191572D01*
X9972286Y-21220143D01*
X9958000Y-21234429D01*
X9929428Y-21248714D01*
X9843714Y-21248714D01*
X9815143Y-21234429D01*
X9800857Y-21220143D01*
X10115143Y-21220143D02*
X10129428Y-21234429D01*
X10115143Y-21248714D01*
X10100857Y-21234429D01*
X10115143Y-21220143D01*
X10115143Y-21248714D01*
X10243714Y-20977286D02*
X10258000Y-20963000D01*
X10286571Y-20948714D01*
X10358000Y-20948714D01*
X10386571Y-20963000D01*
X10400857Y-20977286D01*
X10415143Y-21005857D01*
X10415143Y-21034429D01*
X10400857Y-21077286D01*
X10229428Y-21248714D01*
X10415143Y-21248714D01*
X10600857Y-20948714D02*
X10629428Y-20948714D01*
X10658000Y-20963000D01*
X10672286Y-20977286D01*
X10686571Y-21005857D01*
X10700857Y-21063000D01*
X10700857Y-21134429D01*
X10686571Y-21191572D01*
X10672286Y-21220143D01*
X10658000Y-21234429D01*
X10629428Y-21248714D01*
X10600857Y-21248714D01*
X10572286Y-21234429D01*
X10558000Y-21220143D01*
X10543714Y-21191572D01*
X10529428Y-21134429D01*
X10529428Y-21063000D01*
X10543714Y-21005857D01*
X10558000Y-20977286D01*
X10572286Y-20963000D01*
X10600857Y-20948714D01*
X10886571Y-20948714D02*
X10915143Y-20948714D01*
X10943714Y-20963000D01*
X10958000Y-20977286D01*
X10972286Y-21005857D01*
X10986571Y-21063000D01*
X10986571Y-21134429D01*
X10972286Y-21191572D01*
X10958000Y-21220143D01*
X10943714Y-21234429D01*
X10915143Y-21248714D01*
X10886571Y-21248714D01*
X10858000Y-21234429D01*
X10843714Y-21220143D01*
X10829428Y-21191572D01*
X10815143Y-21134429D01*
X10815143Y-21063000D01*
X10829428Y-21005857D01*
X10843714Y-20977286D01*
X10858000Y-20963000D01*
X10886571Y-20948714D01*
X11115143Y-21248714D02*
X11115143Y-21048714D01*
X11115143Y-21077286D02*
X11129428Y-21063000D01*
X11158000Y-21048714D01*
X11200857Y-21048714D01*
X11229428Y-21063000D01*
X11243714Y-21091572D01*
X11243714Y-21248714D01*
X11243714Y-21091572D02*
X11258000Y-21063000D01*
X11286571Y-21048714D01*
X11329428Y-21048714D01*
X11358000Y-21063000D01*
X11372286Y-21091572D01*
X11372286Y-21248714D01*
X11515143Y-21248714D02*
X11515143Y-21048714D01*
X11515143Y-21077286D02*
X11529428Y-21063000D01*
X11558000Y-21048714D01*
X11600857Y-21048714D01*
X11629428Y-21063000D01*
X11643714Y-21091572D01*
X11643714Y-21248714D01*
X11643714Y-21091572D02*
X11658000Y-21063000D01*
X11686571Y-21048714D01*
X11729428Y-21048714D01*
X11758000Y-21063000D01*
X11772286Y-21091572D01*
X11772286Y-21248714D01*
X12358000Y-20934429D02*
X12100857Y-21320143D01*
X12743714Y-20948714D02*
X12772286Y-20948714D01*
X12800857Y-20963000D01*
X12815143Y-20977286D01*
X12829428Y-21005857D01*
X12843714Y-21063000D01*
X12843714Y-21134429D01*
X12829428Y-21191572D01*
X12815143Y-21220143D01*
X12800857Y-21234429D01*
X12772286Y-21248714D01*
X12743714Y-21248714D01*
X12715143Y-21234429D01*
X12700857Y-21220143D01*
X12686571Y-21191572D01*
X12672286Y-21134429D01*
X12672286Y-21063000D01*
X12686571Y-21005857D01*
X12700857Y-20977286D01*
X12715143Y-20963000D01*
X12743714Y-20948714D01*
X12972286Y-21220143D02*
X12986571Y-21234429D01*
X12972286Y-21248714D01*
X12958000Y-21234429D01*
X12972286Y-21220143D01*
X12972286Y-21248714D01*
X13272286Y-21248714D02*
X13100857Y-21248714D01*
X13186571Y-21248714D02*
X13186571Y-20948714D01*
X13158000Y-20991572D01*
X13129428Y-21020143D01*
X13100857Y-21034429D01*
X13386571Y-20977286D02*
X13400857Y-20963000D01*
X13429428Y-20948714D01*
X13500857Y-20948714D01*
X13529428Y-20963000D01*
X13543714Y-20977286D01*
X13558000Y-21005857D01*
X13558000Y-21034429D01*
X13543714Y-21077286D01*
X13372286Y-21248714D01*
X13558000Y-21248714D01*
X13815143Y-20948714D02*
X13758000Y-20948714D01*
X13729428Y-20963000D01*
X13715143Y-20977286D01*
X13686571Y-21020143D01*
X13672286Y-21077286D01*
X13672286Y-21191572D01*
X13686571Y-21220143D01*
X13700857Y-21234429D01*
X13729428Y-21248714D01*
X13786571Y-21248714D01*
X13815143Y-21234429D01*
X13829428Y-21220143D01*
X13843714Y-21191572D01*
X13843714Y-21120143D01*
X13829428Y-21091572D01*
X13815143Y-21077286D01*
X13786571Y-21063000D01*
X13729428Y-21063000D01*
X13700857Y-21077286D01*
X13686571Y-21091572D01*
X13672286Y-21120143D01*
X14029428Y-20948714D02*
X14058000Y-20948714D01*
X14086571Y-20963000D01*
X14100857Y-20977286D01*
X14115143Y-21005857D01*
X14129428Y-21063000D01*
X14129428Y-21134429D01*
X14115143Y-21191572D01*
X14100857Y-21220143D01*
X14086571Y-21234429D01*
X14058000Y-21248714D01*
X14029428Y-21248714D01*
X14000857Y-21234429D01*
X13986571Y-21220143D01*
X13972286Y-21191572D01*
X13958000Y-21134429D01*
X13958000Y-21063000D01*
X13972286Y-21005857D01*
X13986571Y-20977286D01*
X14000857Y-20963000D01*
X14029428Y-20948714D01*
X14243714Y-20948714D02*
X14243714Y-21005857D01*
X14358000Y-20948714D02*
X14358000Y-21005857D01*
X14800857Y-21363000D02*
X14786571Y-21348714D01*
X14758000Y-21305857D01*
X14743714Y-21277286D01*
X14729428Y-21234429D01*
X14715143Y-21163000D01*
X14715143Y-21105857D01*
X14729428Y-21034429D01*
X14743714Y-20991572D01*
X14758000Y-20963000D01*
X14786571Y-20920143D01*
X14800857Y-20905857D01*
X15043714Y-21048714D02*
X15043714Y-21248714D01*
X14972286Y-20934429D02*
X14900857Y-21148714D01*
X15086571Y-21148714D01*
X15429428Y-21248714D02*
X15429428Y-20948714D01*
X15558000Y-21248714D02*
X15558000Y-21091572D01*
X15543714Y-21063000D01*
X15515143Y-21048714D01*
X15472286Y-21048714D01*
X15443714Y-21063000D01*
X15429428Y-21077286D01*
X15743714Y-21248714D02*
X15715143Y-21234429D01*
X15700857Y-21220143D01*
X15686571Y-21191572D01*
X15686571Y-21105857D01*
X15700857Y-21077286D01*
X15715143Y-21063000D01*
X15743714Y-21048714D01*
X15786571Y-21048714D01*
X15815143Y-21063000D01*
X15829428Y-21077286D01*
X15843714Y-21105857D01*
X15843714Y-21191572D01*
X15829428Y-21220143D01*
X15815143Y-21234429D01*
X15786571Y-21248714D01*
X15743714Y-21248714D01*
X16015143Y-21248714D02*
X15986571Y-21234429D01*
X15972286Y-21205857D01*
X15972286Y-20948714D01*
X16243714Y-21234429D02*
X16215143Y-21248714D01*
X16158000Y-21248714D01*
X16129428Y-21234429D01*
X16115143Y-21205857D01*
X16115143Y-21091572D01*
X16129428Y-21063000D01*
X16158000Y-21048714D01*
X16215143Y-21048714D01*
X16243714Y-21063000D01*
X16258000Y-21091572D01*
X16258000Y-21120143D01*
X16115143Y-21148714D01*
X16372286Y-21234429D02*
X16400857Y-21248714D01*
X16458000Y-21248714D01*
X16486571Y-21234429D01*
X16500857Y-21205857D01*
X16500857Y-21191572D01*
X16486571Y-21163000D01*
X16458000Y-21148714D01*
X16415143Y-21148714D01*
X16386571Y-21134429D01*
X16372286Y-21105857D01*
X16372286Y-21091572D01*
X16386571Y-21063000D01*
X16415143Y-21048714D01*
X16458000Y-21048714D01*
X16486571Y-21063000D01*
X16600857Y-21363000D02*
X16615143Y-21348714D01*
X16643714Y-21305857D01*
X16658000Y-21277286D01*
X16672286Y-21234429D01*
X16686571Y-21163000D01*
X16686571Y-21105857D01*
X16672286Y-21034429D01*
X16658000Y-20991572D01*
X16643714Y-20963000D01*
X16615143Y-20920143D01*
X16600857Y-20905857D01*
M02*
