G04 #@! TF.GenerationSoftware,KiCad,Pcbnew,(5.1.10)-1*
G04 #@! TF.CreationDate,2021-08-31T13:50:09-07:00*
G04 #@! TF.ProjectId,CI_ComPCB,43495f43-6f6d-4504-9342-2e6b69636164,rev?*
G04 #@! TF.SameCoordinates,Original*
G04 #@! TF.FileFunction,Paste,Top*
G04 #@! TF.FilePolarity,Positive*
%FSLAX46Y46*%
G04 Gerber Fmt 4.6, Leading zero omitted, Abs format (unit mm)*
G04 Created by KiCad (PCBNEW (5.1.10)-1) date 2021-08-31 13:50:09*
%MOMM*%
%LPD*%
G01*
G04 APERTURE LIST*
%ADD10R,0.650000X1.525000*%
%ADD11R,1.700000X2.500000*%
%ADD12R,2.300000X1.650000*%
%ADD13R,3.600000X3.700000*%
%ADD14R,0.200000X0.775000*%
%ADD15R,1.580000X2.850000*%
%ADD16O,0.600000X0.240000*%
%ADD17R,1.524000X1.524000*%
%ADD18R,0.800000X0.800000*%
G04 APERTURE END LIST*
G36*
G01*
X97550001Y-115787500D02*
X96649999Y-115787500D01*
G75*
G02*
X96400000Y-115537501I0J249999D01*
G01*
X96400000Y-115012499D01*
G75*
G02*
X96649999Y-114762500I249999J0D01*
G01*
X97550001Y-114762500D01*
G75*
G02*
X97800000Y-115012499I0J-249999D01*
G01*
X97800000Y-115537501D01*
G75*
G02*
X97550001Y-115787500I-249999J0D01*
G01*
G37*
G36*
G01*
X97550001Y-117612500D02*
X96649999Y-117612500D01*
G75*
G02*
X96400000Y-117362501I0J249999D01*
G01*
X96400000Y-116837499D01*
G75*
G02*
X96649999Y-116587500I249999J0D01*
G01*
X97550001Y-116587500D01*
G75*
G02*
X97800000Y-116837499I0J-249999D01*
G01*
X97800000Y-117362501D01*
G75*
G02*
X97550001Y-117612500I-249999J0D01*
G01*
G37*
D10*
X93195000Y-120088000D03*
X94465000Y-120088000D03*
X95735000Y-120088000D03*
X97005000Y-120088000D03*
X97005000Y-125512000D03*
X95735000Y-125512000D03*
X94465000Y-125512000D03*
X93195000Y-125512000D03*
D11*
X89700000Y-128600000D03*
X89700000Y-124600000D03*
X83700000Y-101800000D03*
X83700000Y-105800000D03*
X74800000Y-89500000D03*
X74800000Y-85500000D03*
X107200000Y-104800000D03*
X107200000Y-100800000D03*
G36*
G01*
X88372500Y-151119998D02*
X88372500Y-152020002D01*
G75*
G02*
X88122502Y-152270000I-249998J0D01*
G01*
X87597498Y-152270000D01*
G75*
G02*
X87347500Y-152020002I0J249998D01*
G01*
X87347500Y-151119998D01*
G75*
G02*
X87597498Y-150870000I249998J0D01*
G01*
X88122502Y-150870000D01*
G75*
G02*
X88372500Y-151119998I0J-249998D01*
G01*
G37*
G36*
G01*
X90197500Y-151119998D02*
X90197500Y-152020002D01*
G75*
G02*
X89947502Y-152270000I-249998J0D01*
G01*
X89422498Y-152270000D01*
G75*
G02*
X89172500Y-152020002I0J249998D01*
G01*
X89172500Y-151119998D01*
G75*
G02*
X89422498Y-150870000I249998J0D01*
G01*
X89947502Y-150870000D01*
G75*
G02*
X90197500Y-151119998I0J-249998D01*
G01*
G37*
D12*
X59000000Y-86000000D03*
X59000000Y-82700000D03*
G36*
G01*
X99600000Y-119549998D02*
X99600000Y-120450002D01*
G75*
G02*
X99350002Y-120700000I-249998J0D01*
G01*
X98824998Y-120700000D01*
G75*
G02*
X98575000Y-120450002I0J249998D01*
G01*
X98575000Y-119549998D01*
G75*
G02*
X98824998Y-119300000I249998J0D01*
G01*
X99350002Y-119300000D01*
G75*
G02*
X99600000Y-119549998I0J-249998D01*
G01*
G37*
G36*
G01*
X101425000Y-119549998D02*
X101425000Y-120450002D01*
G75*
G02*
X101175002Y-120700000I-249998J0D01*
G01*
X100649998Y-120700000D01*
G75*
G02*
X100400000Y-120450002I0J249998D01*
G01*
X100400000Y-119549998D01*
G75*
G02*
X100649998Y-119300000I249998J0D01*
G01*
X101175002Y-119300000D01*
G75*
G02*
X101425000Y-119549998I0J-249998D01*
G01*
G37*
G36*
G01*
X85509998Y-118160000D02*
X86410002Y-118160000D01*
G75*
G02*
X86660000Y-118409998I0J-249998D01*
G01*
X86660000Y-118935002D01*
G75*
G02*
X86410002Y-119185000I-249998J0D01*
G01*
X85509998Y-119185000D01*
G75*
G02*
X85260000Y-118935002I0J249998D01*
G01*
X85260000Y-118409998D01*
G75*
G02*
X85509998Y-118160000I249998J0D01*
G01*
G37*
G36*
G01*
X85509998Y-116335000D02*
X86410002Y-116335000D01*
G75*
G02*
X86660000Y-116584998I0J-249998D01*
G01*
X86660000Y-117110002D01*
G75*
G02*
X86410002Y-117360000I-249998J0D01*
G01*
X85509998Y-117360000D01*
G75*
G02*
X85260000Y-117110002I0J249998D01*
G01*
X85260000Y-116584998D01*
G75*
G02*
X85509998Y-116335000I249998J0D01*
G01*
G37*
G36*
G01*
X60549998Y-90312500D02*
X61450002Y-90312500D01*
G75*
G02*
X61700000Y-90562498I0J-249998D01*
G01*
X61700000Y-91087502D01*
G75*
G02*
X61450002Y-91337500I-249998J0D01*
G01*
X60549998Y-91337500D01*
G75*
G02*
X60300000Y-91087502I0J249998D01*
G01*
X60300000Y-90562498D01*
G75*
G02*
X60549998Y-90312500I249998J0D01*
G01*
G37*
G36*
G01*
X60549998Y-88487500D02*
X61450002Y-88487500D01*
G75*
G02*
X61700000Y-88737498I0J-249998D01*
G01*
X61700000Y-89262502D01*
G75*
G02*
X61450002Y-89512500I-249998J0D01*
G01*
X60549998Y-89512500D01*
G75*
G02*
X60300000Y-89262502I0J249998D01*
G01*
X60300000Y-88737498D01*
G75*
G02*
X60549998Y-88487500I249998J0D01*
G01*
G37*
G36*
G01*
X64600000Y-86275000D02*
X64600000Y-85725000D01*
G75*
G02*
X64800000Y-85525000I200000J0D01*
G01*
X65200000Y-85525000D01*
G75*
G02*
X65400000Y-85725000I0J-200000D01*
G01*
X65400000Y-86275000D01*
G75*
G02*
X65200000Y-86475000I-200000J0D01*
G01*
X64800000Y-86475000D01*
G75*
G02*
X64600000Y-86275000I0J200000D01*
G01*
G37*
G36*
G01*
X62950000Y-86275000D02*
X62950000Y-85725000D01*
G75*
G02*
X63150000Y-85525000I200000J0D01*
G01*
X63550000Y-85525000D01*
G75*
G02*
X63750000Y-85725000I0J-200000D01*
G01*
X63750000Y-86275000D01*
G75*
G02*
X63550000Y-86475000I-200000J0D01*
G01*
X63150000Y-86475000D01*
G75*
G02*
X62950000Y-86275000I0J200000D01*
G01*
G37*
D13*
X95000000Y-110000000D03*
X95000000Y-99400000D03*
D14*
X66690000Y-82813000D03*
X66230000Y-82813000D03*
X65770000Y-82813000D03*
X65310000Y-82813000D03*
X65310000Y-79187000D03*
X65770000Y-79187000D03*
X66230000Y-79187000D03*
X66690000Y-79187000D03*
D15*
X66000000Y-81000000D03*
D16*
X67400000Y-79500000D03*
X67400000Y-80000000D03*
X67400000Y-80500000D03*
X67400000Y-81000000D03*
X67400000Y-81500000D03*
X67400000Y-82000000D03*
X67400000Y-82500000D03*
X64600000Y-82500000D03*
X64600000Y-82000000D03*
X64600000Y-81500000D03*
X64600000Y-81000000D03*
X64600000Y-80500000D03*
X64600000Y-80000000D03*
X64600000Y-79500000D03*
G36*
G01*
X99730000Y-116485000D02*
X99730000Y-117435000D01*
G75*
G02*
X99480000Y-117685000I-250000J0D01*
G01*
X98980000Y-117685000D01*
G75*
G02*
X98730000Y-117435000I0J250000D01*
G01*
X98730000Y-116485000D01*
G75*
G02*
X98980000Y-116235000I250000J0D01*
G01*
X99480000Y-116235000D01*
G75*
G02*
X99730000Y-116485000I0J-250000D01*
G01*
G37*
G36*
G01*
X101630000Y-116485000D02*
X101630000Y-117435000D01*
G75*
G02*
X101380000Y-117685000I-250000J0D01*
G01*
X100880000Y-117685000D01*
G75*
G02*
X100630000Y-117435000I0J250000D01*
G01*
X100630000Y-116485000D01*
G75*
G02*
X100880000Y-116235000I250000J0D01*
G01*
X101380000Y-116235000D01*
G75*
G02*
X101630000Y-116485000I0J-250000D01*
G01*
G37*
G36*
G01*
X88465000Y-115820000D02*
X89415000Y-115820000D01*
G75*
G02*
X89665000Y-116070000I0J-250000D01*
G01*
X89665000Y-116570000D01*
G75*
G02*
X89415000Y-116820000I-250000J0D01*
G01*
X88465000Y-116820000D01*
G75*
G02*
X88215000Y-116570000I0J250000D01*
G01*
X88215000Y-116070000D01*
G75*
G02*
X88465000Y-115820000I250000J0D01*
G01*
G37*
G36*
G01*
X88465000Y-113920000D02*
X89415000Y-113920000D01*
G75*
G02*
X89665000Y-114170000I0J-250000D01*
G01*
X89665000Y-114670000D01*
G75*
G02*
X89415000Y-114920000I-250000J0D01*
G01*
X88465000Y-114920000D01*
G75*
G02*
X88215000Y-114670000I0J250000D01*
G01*
X88215000Y-114170000D01*
G75*
G02*
X88465000Y-113920000I250000J0D01*
G01*
G37*
G36*
G01*
X99730000Y-113475000D02*
X99730000Y-114425000D01*
G75*
G02*
X99480000Y-114675000I-250000J0D01*
G01*
X98980000Y-114675000D01*
G75*
G02*
X98730000Y-114425000I0J250000D01*
G01*
X98730000Y-113475000D01*
G75*
G02*
X98980000Y-113225000I250000J0D01*
G01*
X99480000Y-113225000D01*
G75*
G02*
X99730000Y-113475000I0J-250000D01*
G01*
G37*
G36*
G01*
X101630000Y-113475000D02*
X101630000Y-114425000D01*
G75*
G02*
X101380000Y-114675000I-250000J0D01*
G01*
X100880000Y-114675000D01*
G75*
G02*
X100630000Y-114425000I0J250000D01*
G01*
X100630000Y-113475000D01*
G75*
G02*
X100880000Y-113225000I250000J0D01*
G01*
X101380000Y-113225000D01*
G75*
G02*
X101630000Y-113475000I0J-250000D01*
G01*
G37*
G36*
G01*
X85435000Y-114450000D02*
X86385000Y-114450000D01*
G75*
G02*
X86635000Y-114700000I0J-250000D01*
G01*
X86635000Y-115200000D01*
G75*
G02*
X86385000Y-115450000I-250000J0D01*
G01*
X85435000Y-115450000D01*
G75*
G02*
X85185000Y-115200000I0J250000D01*
G01*
X85185000Y-114700000D01*
G75*
G02*
X85435000Y-114450000I250000J0D01*
G01*
G37*
G36*
G01*
X85435000Y-112550000D02*
X86385000Y-112550000D01*
G75*
G02*
X86635000Y-112800000I0J-250000D01*
G01*
X86635000Y-113300000D01*
G75*
G02*
X86385000Y-113550000I-250000J0D01*
G01*
X85435000Y-113550000D01*
G75*
G02*
X85185000Y-113300000I0J250000D01*
G01*
X85185000Y-112800000D01*
G75*
G02*
X85435000Y-112550000I250000J0D01*
G01*
G37*
G36*
G01*
X100475000Y-123600000D02*
X99525000Y-123600000D01*
G75*
G02*
X99275000Y-123350000I0J250000D01*
G01*
X99275000Y-122850000D01*
G75*
G02*
X99525000Y-122600000I250000J0D01*
G01*
X100475000Y-122600000D01*
G75*
G02*
X100725000Y-122850000I0J-250000D01*
G01*
X100725000Y-123350000D01*
G75*
G02*
X100475000Y-123600000I-250000J0D01*
G01*
G37*
G36*
G01*
X100475000Y-125500000D02*
X99525000Y-125500000D01*
G75*
G02*
X99275000Y-125250000I0J250000D01*
G01*
X99275000Y-124750000D01*
G75*
G02*
X99525000Y-124500000I250000J0D01*
G01*
X100475000Y-124500000D01*
G75*
G02*
X100725000Y-124750000I0J-250000D01*
G01*
X100725000Y-125250000D01*
G75*
G02*
X100475000Y-125500000I-250000J0D01*
G01*
G37*
G36*
G01*
X91525000Y-116450000D02*
X92475000Y-116450000D01*
G75*
G02*
X92725000Y-116700000I0J-250000D01*
G01*
X92725000Y-117200000D01*
G75*
G02*
X92475000Y-117450000I-250000J0D01*
G01*
X91525000Y-117450000D01*
G75*
G02*
X91275000Y-117200000I0J250000D01*
G01*
X91275000Y-116700000D01*
G75*
G02*
X91525000Y-116450000I250000J0D01*
G01*
G37*
G36*
G01*
X91525000Y-114550000D02*
X92475000Y-114550000D01*
G75*
G02*
X92725000Y-114800000I0J-250000D01*
G01*
X92725000Y-115300000D01*
G75*
G02*
X92475000Y-115550000I-250000J0D01*
G01*
X91525000Y-115550000D01*
G75*
G02*
X91275000Y-115300000I0J250000D01*
G01*
X91275000Y-114800000D01*
G75*
G02*
X91525000Y-114550000I250000J0D01*
G01*
G37*
G36*
G01*
X93180000Y-128485000D02*
X93180000Y-129435000D01*
G75*
G02*
X92930000Y-129685000I-250000J0D01*
G01*
X92430000Y-129685000D01*
G75*
G02*
X92180000Y-129435000I0J250000D01*
G01*
X92180000Y-128485000D01*
G75*
G02*
X92430000Y-128235000I250000J0D01*
G01*
X92930000Y-128235000D01*
G75*
G02*
X93180000Y-128485000I0J-250000D01*
G01*
G37*
G36*
G01*
X95080000Y-128485000D02*
X95080000Y-129435000D01*
G75*
G02*
X94830000Y-129685000I-250000J0D01*
G01*
X94330000Y-129685000D01*
G75*
G02*
X94080000Y-129435000I0J250000D01*
G01*
X94080000Y-128485000D01*
G75*
G02*
X94330000Y-128235000I250000J0D01*
G01*
X94830000Y-128235000D01*
G75*
G02*
X95080000Y-128485000I0J-250000D01*
G01*
G37*
G36*
G01*
X93550000Y-131525000D02*
X93550000Y-132475000D01*
G75*
G02*
X93300000Y-132725000I-250000J0D01*
G01*
X92800000Y-132725000D01*
G75*
G02*
X92550000Y-132475000I0J250000D01*
G01*
X92550000Y-131525000D01*
G75*
G02*
X92800000Y-131275000I250000J0D01*
G01*
X93300000Y-131275000D01*
G75*
G02*
X93550000Y-131525000I0J-250000D01*
G01*
G37*
G36*
G01*
X95450000Y-131525000D02*
X95450000Y-132475000D01*
G75*
G02*
X95200000Y-132725000I-250000J0D01*
G01*
X94700000Y-132725000D01*
G75*
G02*
X94450000Y-132475000I0J250000D01*
G01*
X94450000Y-131525000D01*
G75*
G02*
X94700000Y-131275000I250000J0D01*
G01*
X95200000Y-131275000D01*
G75*
G02*
X95450000Y-131525000I0J-250000D01*
G01*
G37*
G36*
G01*
X78165000Y-78650000D02*
X77215000Y-78650000D01*
G75*
G02*
X76965000Y-78400000I0J250000D01*
G01*
X76965000Y-77900000D01*
G75*
G02*
X77215000Y-77650000I250000J0D01*
G01*
X78165000Y-77650000D01*
G75*
G02*
X78415000Y-77900000I0J-250000D01*
G01*
X78415000Y-78400000D01*
G75*
G02*
X78165000Y-78650000I-250000J0D01*
G01*
G37*
G36*
G01*
X78165000Y-80550000D02*
X77215000Y-80550000D01*
G75*
G02*
X76965000Y-80300000I0J250000D01*
G01*
X76965000Y-79800000D01*
G75*
G02*
X77215000Y-79550000I250000J0D01*
G01*
X78165000Y-79550000D01*
G75*
G02*
X78415000Y-79800000I0J-250000D01*
G01*
X78415000Y-80300000D01*
G75*
G02*
X78165000Y-80550000I-250000J0D01*
G01*
G37*
G36*
G01*
X75175000Y-79100000D02*
X74225000Y-79100000D01*
G75*
G02*
X73975000Y-78850000I0J250000D01*
G01*
X73975000Y-78350000D01*
G75*
G02*
X74225000Y-78100000I250000J0D01*
G01*
X75175000Y-78100000D01*
G75*
G02*
X75425000Y-78350000I0J-250000D01*
G01*
X75425000Y-78850000D01*
G75*
G02*
X75175000Y-79100000I-250000J0D01*
G01*
G37*
G36*
G01*
X75175000Y-81000000D02*
X74225000Y-81000000D01*
G75*
G02*
X73975000Y-80750000I0J250000D01*
G01*
X73975000Y-80250000D01*
G75*
G02*
X74225000Y-80000000I250000J0D01*
G01*
X75175000Y-80000000D01*
G75*
G02*
X75425000Y-80250000I0J-250000D01*
G01*
X75425000Y-80750000D01*
G75*
G02*
X75175000Y-81000000I-250000J0D01*
G01*
G37*
G36*
G01*
X72165000Y-79100000D02*
X71215000Y-79100000D01*
G75*
G02*
X70965000Y-78850000I0J250000D01*
G01*
X70965000Y-78350000D01*
G75*
G02*
X71215000Y-78100000I250000J0D01*
G01*
X72165000Y-78100000D01*
G75*
G02*
X72415000Y-78350000I0J-250000D01*
G01*
X72415000Y-78850000D01*
G75*
G02*
X72165000Y-79100000I-250000J0D01*
G01*
G37*
G36*
G01*
X72165000Y-81000000D02*
X71215000Y-81000000D01*
G75*
G02*
X70965000Y-80750000I0J250000D01*
G01*
X70965000Y-80250000D01*
G75*
G02*
X71215000Y-80000000I250000J0D01*
G01*
X72165000Y-80000000D01*
G75*
G02*
X72415000Y-80250000I0J-250000D01*
G01*
X72415000Y-80750000D01*
G75*
G02*
X72165000Y-81000000I-250000J0D01*
G01*
G37*
G36*
G01*
X67535000Y-90450000D02*
X68485000Y-90450000D01*
G75*
G02*
X68735000Y-90700000I0J-250000D01*
G01*
X68735000Y-91200000D01*
G75*
G02*
X68485000Y-91450000I-250000J0D01*
G01*
X67535000Y-91450000D01*
G75*
G02*
X67285000Y-91200000I0J250000D01*
G01*
X67285000Y-90700000D01*
G75*
G02*
X67535000Y-90450000I250000J0D01*
G01*
G37*
G36*
G01*
X67535000Y-88550000D02*
X68485000Y-88550000D01*
G75*
G02*
X68735000Y-88800000I0J-250000D01*
G01*
X68735000Y-89300000D01*
G75*
G02*
X68485000Y-89550000I-250000J0D01*
G01*
X67535000Y-89550000D01*
G75*
G02*
X67285000Y-89300000I0J250000D01*
G01*
X67285000Y-88800000D01*
G75*
G02*
X67535000Y-88550000I250000J0D01*
G01*
G37*
G36*
G01*
X64525000Y-90450000D02*
X65475000Y-90450000D01*
G75*
G02*
X65725000Y-90700000I0J-250000D01*
G01*
X65725000Y-91200000D01*
G75*
G02*
X65475000Y-91450000I-250000J0D01*
G01*
X64525000Y-91450000D01*
G75*
G02*
X64275000Y-91200000I0J250000D01*
G01*
X64275000Y-90700000D01*
G75*
G02*
X64525000Y-90450000I250000J0D01*
G01*
G37*
G36*
G01*
X64525000Y-88550000D02*
X65475000Y-88550000D01*
G75*
G02*
X65725000Y-88800000I0J-250000D01*
G01*
X65725000Y-89300000D01*
G75*
G02*
X65475000Y-89550000I-250000J0D01*
G01*
X64525000Y-89550000D01*
G75*
G02*
X64275000Y-89300000I0J250000D01*
G01*
X64275000Y-88800000D01*
G75*
G02*
X64525000Y-88550000I250000J0D01*
G01*
G37*
D17*
X72000000Y-97000000D03*
X69500000Y-97000000D03*
X67000000Y-97000000D03*
X64500000Y-97000000D03*
X73500000Y-137000000D03*
X68500000Y-137000000D03*
X63500000Y-137000000D03*
X116000000Y-136500000D03*
X118500000Y-136500000D03*
X121000000Y-136500000D03*
X123500000Y-136500000D03*
X114500000Y-96500000D03*
X119500000Y-96500000D03*
X124500000Y-96500000D03*
G36*
G01*
X130549998Y-148400000D02*
X131450002Y-148400000D01*
G75*
G02*
X131700000Y-148649998I0J-249998D01*
G01*
X131700000Y-149175002D01*
G75*
G02*
X131450002Y-149425000I-249998J0D01*
G01*
X130549998Y-149425000D01*
G75*
G02*
X130300000Y-149175002I0J249998D01*
G01*
X130300000Y-148649998D01*
G75*
G02*
X130549998Y-148400000I249998J0D01*
G01*
G37*
G36*
G01*
X130549998Y-146575000D02*
X131450002Y-146575000D01*
G75*
G02*
X131700000Y-146824998I0J-249998D01*
G01*
X131700000Y-147350002D01*
G75*
G02*
X131450002Y-147600000I-249998J0D01*
G01*
X130549998Y-147600000D01*
G75*
G02*
X130300000Y-147350002I0J249998D01*
G01*
X130300000Y-146824998D01*
G75*
G02*
X130549998Y-146575000I249998J0D01*
G01*
G37*
G36*
G01*
X107450002Y-89600000D02*
X106549998Y-89600000D01*
G75*
G02*
X106300000Y-89350002I0J249998D01*
G01*
X106300000Y-88824998D01*
G75*
G02*
X106549998Y-88575000I249998J0D01*
G01*
X107450002Y-88575000D01*
G75*
G02*
X107700000Y-88824998I0J-249998D01*
G01*
X107700000Y-89350002D01*
G75*
G02*
X107450002Y-89600000I-249998J0D01*
G01*
G37*
G36*
G01*
X107450002Y-91425000D02*
X106549998Y-91425000D01*
G75*
G02*
X106300000Y-91175002I0J249998D01*
G01*
X106300000Y-90649998D01*
G75*
G02*
X106549998Y-90400000I249998J0D01*
G01*
X107450002Y-90400000D01*
G75*
G02*
X107700000Y-90649998I0J-249998D01*
G01*
X107700000Y-91175002D01*
G75*
G02*
X107450002Y-91425000I-249998J0D01*
G01*
G37*
G36*
G01*
X56549998Y-124488000D02*
X57450002Y-124488000D01*
G75*
G02*
X57700000Y-124737998I0J-249998D01*
G01*
X57700000Y-125263002D01*
G75*
G02*
X57450002Y-125513000I-249998J0D01*
G01*
X56549998Y-125513000D01*
G75*
G02*
X56300000Y-125263002I0J249998D01*
G01*
X56300000Y-124737998D01*
G75*
G02*
X56549998Y-124488000I249998J0D01*
G01*
G37*
G36*
G01*
X56549998Y-122663000D02*
X57450002Y-122663000D01*
G75*
G02*
X57700000Y-122912998I0J-249998D01*
G01*
X57700000Y-123438002D01*
G75*
G02*
X57450002Y-123688000I-249998J0D01*
G01*
X56549998Y-123688000D01*
G75*
G02*
X56300000Y-123438002I0J249998D01*
G01*
X56300000Y-122912998D01*
G75*
G02*
X56549998Y-122663000I249998J0D01*
G01*
G37*
D18*
X57000000Y-119250000D03*
X57000000Y-120750000D03*
G36*
G01*
X84549998Y-90312500D02*
X85450002Y-90312500D01*
G75*
G02*
X85700000Y-90562498I0J-249998D01*
G01*
X85700000Y-91087502D01*
G75*
G02*
X85450002Y-91337500I-249998J0D01*
G01*
X84549998Y-91337500D01*
G75*
G02*
X84300000Y-91087502I0J249998D01*
G01*
X84300000Y-90562498D01*
G75*
G02*
X84549998Y-90312500I249998J0D01*
G01*
G37*
G36*
G01*
X84549998Y-88487500D02*
X85450002Y-88487500D01*
G75*
G02*
X85700000Y-88737498I0J-249998D01*
G01*
X85700000Y-89262502D01*
G75*
G02*
X85450002Y-89512500I-249998J0D01*
G01*
X84549998Y-89512500D01*
G75*
G02*
X84300000Y-89262502I0J249998D01*
G01*
X84300000Y-88737498D01*
G75*
G02*
X84549998Y-88487500I249998J0D01*
G01*
G37*
X85000000Y-85250000D03*
X85000000Y-86750000D03*
M02*
