G04 #@! TF.GenerationSoftware,KiCad,Pcbnew,(5.1.10-1-10_14)*
G04 #@! TF.CreationDate,2022-01-13T10:29:40-08:00*
G04 #@! TF.ProjectId,CI_ComPCB,43495f43-6f6d-4504-9342-2e6b69636164,rev?*
G04 #@! TF.SameCoordinates,Original*
G04 #@! TF.FileFunction,Legend,Top*
G04 #@! TF.FilePolarity,Positive*
%FSLAX46Y46*%
G04 Gerber Fmt 4.6, Leading zero omitted, Abs format (unit mm)*
G04 Created by KiCad (PCBNEW (5.1.10-1-10_14)) date 2022-01-13 10:29:40*
%MOMM*%
%LPD*%
G01*
G04 APERTURE LIST*
%ADD10C,0.508000*%
%ADD11C,0.150000*%
%ADD12C,0.120000*%
%ADD13C,0.200000*%
%ADD14C,0.100000*%
%ADD15C,0.254000*%
G04 APERTURE END LIST*
D10*
X168795285Y-89811714D02*
X168613857Y-89630285D01*
X168432428Y-89086000D01*
X168432428Y-88723142D01*
X168613857Y-88178857D01*
X168976714Y-87816000D01*
X169339571Y-87634571D01*
X170065285Y-87453142D01*
X170609571Y-87453142D01*
X171335285Y-87634571D01*
X171698142Y-87816000D01*
X172061000Y-88178857D01*
X172242428Y-88723142D01*
X172242428Y-89086000D01*
X172061000Y-89630285D01*
X171879571Y-89811714D01*
X168432428Y-91444571D02*
X172242428Y-91444571D01*
X170428142Y-97431714D02*
X170246714Y-97976000D01*
X170065285Y-98157428D01*
X169702428Y-98338857D01*
X169158142Y-98338857D01*
X168795285Y-98157428D01*
X168613857Y-97976000D01*
X168432428Y-97613142D01*
X168432428Y-96161714D01*
X172242428Y-96161714D01*
X172242428Y-97431714D01*
X172061000Y-97794571D01*
X171879571Y-97976000D01*
X171516714Y-98157428D01*
X171153857Y-98157428D01*
X170791000Y-97976000D01*
X170609571Y-97794571D01*
X170428142Y-97431714D01*
X170428142Y-96161714D01*
X168432428Y-100516000D02*
X168613857Y-100153142D01*
X168795285Y-99971714D01*
X169158142Y-99790285D01*
X170246714Y-99790285D01*
X170609571Y-99971714D01*
X170791000Y-100153142D01*
X170972428Y-100516000D01*
X170972428Y-101060285D01*
X170791000Y-101423142D01*
X170609571Y-101604571D01*
X170246714Y-101786000D01*
X169158142Y-101786000D01*
X168795285Y-101604571D01*
X168613857Y-101423142D01*
X168432428Y-101060285D01*
X168432428Y-100516000D01*
X168432428Y-105051714D02*
X170428142Y-105051714D01*
X170791000Y-104870285D01*
X170972428Y-104507428D01*
X170972428Y-103781714D01*
X170791000Y-103418857D01*
X168613857Y-105051714D02*
X168432428Y-104688857D01*
X168432428Y-103781714D01*
X168613857Y-103418857D01*
X168976714Y-103237428D01*
X169339571Y-103237428D01*
X169702428Y-103418857D01*
X169883857Y-103781714D01*
X169883857Y-104688857D01*
X170065285Y-105051714D01*
X168432428Y-106866000D02*
X170972428Y-106866000D01*
X170246714Y-106866000D02*
X170609571Y-107047428D01*
X170791000Y-107228857D01*
X170972428Y-107591714D01*
X170972428Y-107954571D01*
X168432428Y-110857428D02*
X172242428Y-110857428D01*
X168613857Y-110857428D02*
X168432428Y-110494571D01*
X168432428Y-109768857D01*
X168613857Y-109406000D01*
X168795285Y-109224571D01*
X169158142Y-109043142D01*
X170246714Y-109043142D01*
X170609571Y-109224571D01*
X170791000Y-109406000D01*
X170972428Y-109768857D01*
X170972428Y-110494571D01*
X170791000Y-110857428D01*
D11*
X111990095Y-119066000D02*
X111894857Y-119018380D01*
X111752000Y-119018380D01*
X111609142Y-119066000D01*
X111513904Y-119161238D01*
X111466285Y-119256476D01*
X111418666Y-119446952D01*
X111418666Y-119589809D01*
X111466285Y-119780285D01*
X111513904Y-119875523D01*
X111609142Y-119970761D01*
X111752000Y-120018380D01*
X111847238Y-120018380D01*
X111990095Y-119970761D01*
X112037714Y-119923142D01*
X112037714Y-119589809D01*
X111847238Y-119589809D01*
X112466285Y-120018380D02*
X112466285Y-119018380D01*
X113037714Y-120018380D01*
X113037714Y-119018380D01*
X113513904Y-120018380D02*
X113513904Y-119018380D01*
X113752000Y-119018380D01*
X113894857Y-119066000D01*
X113990095Y-119161238D01*
X114037714Y-119256476D01*
X114085333Y-119446952D01*
X114085333Y-119589809D01*
X114037714Y-119780285D01*
X113990095Y-119875523D01*
X113894857Y-119970761D01*
X113752000Y-120018380D01*
X113513904Y-120018380D01*
X102519619Y-111011595D02*
X103519619Y-111011595D01*
X103186285Y-111487785D02*
X102519619Y-111487785D01*
X103091047Y-111487785D02*
X103138666Y-111535404D01*
X103186285Y-111630642D01*
X103186285Y-111773500D01*
X103138666Y-111868738D01*
X103043428Y-111916357D01*
X102519619Y-111916357D01*
X103186285Y-112392547D02*
X102519619Y-112392547D01*
X103091047Y-112392547D02*
X103138666Y-112440166D01*
X103186285Y-112535404D01*
X103186285Y-112678261D01*
X103138666Y-112773500D01*
X103043428Y-112821119D01*
X102519619Y-112821119D01*
X102519619Y-113440166D02*
X102567238Y-113344928D01*
X102614857Y-113297309D01*
X102710095Y-113249690D01*
X102995809Y-113249690D01*
X103091047Y-113297309D01*
X103138666Y-113344928D01*
X103186285Y-113440166D01*
X103186285Y-113583023D01*
X103138666Y-113678261D01*
X103091047Y-113725880D01*
X102995809Y-113773500D01*
X102710095Y-113773500D01*
X102614857Y-113725880D01*
X102567238Y-113678261D01*
X102519619Y-113583023D01*
X102519619Y-113440166D01*
X103186285Y-114106833D02*
X102519619Y-114344928D01*
X103186285Y-114583023D01*
X102519619Y-114963976D02*
X103186285Y-114963976D01*
X103519619Y-114963976D02*
X103472000Y-114916357D01*
X103424380Y-114963976D01*
X103472000Y-115011595D01*
X103519619Y-114963976D01*
X103424380Y-114963976D01*
X103186285Y-115344928D02*
X102519619Y-115583023D01*
X103186285Y-115821119D01*
X102567238Y-116583023D02*
X102519619Y-116487785D01*
X102519619Y-116297309D01*
X102567238Y-116202071D01*
X102662476Y-116154452D01*
X103043428Y-116154452D01*
X103138666Y-116202071D01*
X103186285Y-116297309D01*
X103186285Y-116487785D01*
X103138666Y-116583023D01*
X103043428Y-116630642D01*
X102948190Y-116630642D01*
X102852952Y-116154452D01*
X101869619Y-111297309D02*
X101155333Y-111297309D01*
X101012476Y-111249690D01*
X100917238Y-111154452D01*
X100869619Y-111011595D01*
X100869619Y-110916357D01*
X100869619Y-112202071D02*
X101393428Y-112202071D01*
X101488666Y-112154452D01*
X101536285Y-112059214D01*
X101536285Y-111868738D01*
X101488666Y-111773500D01*
X100917238Y-112202071D02*
X100869619Y-112106833D01*
X100869619Y-111868738D01*
X100917238Y-111773500D01*
X101012476Y-111725880D01*
X101107714Y-111725880D01*
X101202952Y-111773500D01*
X101250571Y-111868738D01*
X101250571Y-112106833D01*
X101298190Y-112202071D01*
X101536285Y-112678261D02*
X100869619Y-112678261D01*
X101441047Y-112678261D02*
X101488666Y-112725880D01*
X101536285Y-112821119D01*
X101536285Y-112963976D01*
X101488666Y-113059214D01*
X101393428Y-113106833D01*
X100869619Y-113106833D01*
X101774380Y-114297309D02*
X101822000Y-114344928D01*
X101869619Y-114440166D01*
X101869619Y-114678261D01*
X101822000Y-114773500D01*
X101774380Y-114821119D01*
X101679142Y-114868738D01*
X101583904Y-114868738D01*
X101441047Y-114821119D01*
X100869619Y-114249690D01*
X100869619Y-114868738D01*
X101869619Y-115487785D02*
X101869619Y-115583023D01*
X101822000Y-115678261D01*
X101774380Y-115725880D01*
X101679142Y-115773500D01*
X101488666Y-115821119D01*
X101250571Y-115821119D01*
X101060095Y-115773500D01*
X100964857Y-115725880D01*
X100917238Y-115678261D01*
X100869619Y-115583023D01*
X100869619Y-115487785D01*
X100917238Y-115392547D01*
X100964857Y-115344928D01*
X101060095Y-115297309D01*
X101250571Y-115249690D01*
X101488666Y-115249690D01*
X101679142Y-115297309D01*
X101774380Y-115344928D01*
X101822000Y-115392547D01*
X101869619Y-115487785D01*
X101774380Y-116202071D02*
X101822000Y-116249690D01*
X101869619Y-116344928D01*
X101869619Y-116583023D01*
X101822000Y-116678261D01*
X101774380Y-116725880D01*
X101679142Y-116773500D01*
X101583904Y-116773500D01*
X101441047Y-116725880D01*
X100869619Y-116154452D01*
X100869619Y-116773500D01*
X101774380Y-117154452D02*
X101822000Y-117202071D01*
X101869619Y-117297309D01*
X101869619Y-117535404D01*
X101822000Y-117630642D01*
X101774380Y-117678261D01*
X101679142Y-117725880D01*
X101583904Y-117725880D01*
X101441047Y-117678261D01*
X100869619Y-117106833D01*
X100869619Y-117725880D01*
X100219619Y-110868738D02*
X99219619Y-111202071D01*
X100219619Y-111535404D01*
X99219619Y-112392547D02*
X99219619Y-111821119D01*
X99219619Y-112106833D02*
X100219619Y-112106833D01*
X100076761Y-112011595D01*
X99981523Y-111916357D01*
X99933904Y-111821119D01*
X99314857Y-112821119D02*
X99267238Y-112868738D01*
X99219619Y-112821119D01*
X99267238Y-112773500D01*
X99314857Y-112821119D01*
X99219619Y-112821119D01*
X100124380Y-113249690D02*
X100172000Y-113297309D01*
X100219619Y-113392547D01*
X100219619Y-113630642D01*
X100172000Y-113725880D01*
X100124380Y-113773500D01*
X100029142Y-113821119D01*
X99933904Y-113821119D01*
X99791047Y-113773500D01*
X99219619Y-113202071D01*
X99219619Y-113821119D01*
X99219619Y-114249690D02*
X100219619Y-114249690D01*
X99838666Y-114249690D02*
X99886285Y-114344928D01*
X99886285Y-114535404D01*
X99838666Y-114630642D01*
X99791047Y-114678261D01*
X99695809Y-114725880D01*
X99410095Y-114725880D01*
X99314857Y-114678261D01*
X99267238Y-114630642D01*
X99219619Y-114535404D01*
X99219619Y-114344928D01*
X99267238Y-114249690D01*
X99124380Y-114916357D02*
X99124380Y-115678261D01*
X99886285Y-115916357D02*
X98886285Y-115916357D01*
X99838666Y-115916357D02*
X99886285Y-116011595D01*
X99886285Y-116202071D01*
X99838666Y-116297309D01*
X99791047Y-116344928D01*
X99695809Y-116392547D01*
X99410095Y-116392547D01*
X99314857Y-116344928D01*
X99267238Y-116297309D01*
X99219619Y-116202071D01*
X99219619Y-116011595D01*
X99267238Y-115916357D01*
X99219619Y-116821119D02*
X99886285Y-116821119D01*
X99695809Y-116821119D02*
X99791047Y-116868738D01*
X99838666Y-116916357D01*
X99886285Y-117011595D01*
X99886285Y-117106833D01*
X99219619Y-117583023D02*
X99267238Y-117487785D01*
X99314857Y-117440166D01*
X99410095Y-117392547D01*
X99695809Y-117392547D01*
X99791047Y-117440166D01*
X99838666Y-117487785D01*
X99886285Y-117583023D01*
X99886285Y-117725880D01*
X99838666Y-117821119D01*
X99791047Y-117868738D01*
X99695809Y-117916357D01*
X99410095Y-117916357D01*
X99314857Y-117868738D01*
X99267238Y-117821119D01*
X99219619Y-117725880D01*
X99219619Y-117583023D01*
X99219619Y-118773500D02*
X100219619Y-118773500D01*
X99267238Y-118773500D02*
X99219619Y-118678261D01*
X99219619Y-118487785D01*
X99267238Y-118392547D01*
X99314857Y-118344928D01*
X99410095Y-118297309D01*
X99695809Y-118297309D01*
X99791047Y-118344928D01*
X99838666Y-118392547D01*
X99886285Y-118487785D01*
X99886285Y-118678261D01*
X99838666Y-118773500D01*
X99886285Y-119678261D02*
X99219619Y-119678261D01*
X99886285Y-119249690D02*
X99362476Y-119249690D01*
X99267238Y-119297309D01*
X99219619Y-119392547D01*
X99219619Y-119535404D01*
X99267238Y-119630642D01*
X99314857Y-119678261D01*
X99267238Y-120583023D02*
X99219619Y-120487785D01*
X99219619Y-120297309D01*
X99267238Y-120202071D01*
X99314857Y-120154452D01*
X99410095Y-120106833D01*
X99695809Y-120106833D01*
X99791047Y-120154452D01*
X99838666Y-120202071D01*
X99886285Y-120297309D01*
X99886285Y-120487785D01*
X99838666Y-120583023D01*
X99886285Y-120868738D02*
X99886285Y-121249690D01*
X100219619Y-121011595D02*
X99362476Y-121011595D01*
X99267238Y-121059214D01*
X99219619Y-121154452D01*
X99219619Y-121249690D01*
X99219619Y-121583023D02*
X99886285Y-121583023D01*
X100219619Y-121583023D02*
X100172000Y-121535404D01*
X100124380Y-121583023D01*
X100172000Y-121630642D01*
X100219619Y-121583023D01*
X100124380Y-121583023D01*
X99219619Y-122202071D02*
X99267238Y-122106833D01*
X99314857Y-122059214D01*
X99410095Y-122011595D01*
X99695809Y-122011595D01*
X99791047Y-122059214D01*
X99838666Y-122106833D01*
X99886285Y-122202071D01*
X99886285Y-122344928D01*
X99838666Y-122440166D01*
X99791047Y-122487785D01*
X99695809Y-122535404D01*
X99410095Y-122535404D01*
X99314857Y-122487785D01*
X99267238Y-122440166D01*
X99219619Y-122344928D01*
X99219619Y-122202071D01*
X99886285Y-122963976D02*
X99219619Y-122963976D01*
X99791047Y-122963976D02*
X99838666Y-123011595D01*
X99886285Y-123106833D01*
X99886285Y-123249690D01*
X99838666Y-123344928D01*
X99743428Y-123392547D01*
X99219619Y-123392547D01*
X128014095Y-114070000D02*
X127918857Y-114022380D01*
X127776000Y-114022380D01*
X127633142Y-114070000D01*
X127537904Y-114165238D01*
X127490285Y-114260476D01*
X127442666Y-114450952D01*
X127442666Y-114593809D01*
X127490285Y-114784285D01*
X127537904Y-114879523D01*
X127633142Y-114974761D01*
X127776000Y-115022380D01*
X127871238Y-115022380D01*
X128014095Y-114974761D01*
X128061714Y-114927142D01*
X128061714Y-114593809D01*
X127871238Y-114593809D01*
X128490285Y-115022380D02*
X128490285Y-114022380D01*
X129061714Y-115022380D01*
X129061714Y-114022380D01*
X129537904Y-115022380D02*
X129537904Y-114022380D01*
X129776000Y-114022380D01*
X129918857Y-114070000D01*
X130014095Y-114165238D01*
X130061714Y-114260476D01*
X130109333Y-114450952D01*
X130109333Y-114593809D01*
X130061714Y-114784285D01*
X130014095Y-114879523D01*
X129918857Y-114974761D01*
X129776000Y-115022380D01*
X129537904Y-115022380D01*
X135012190Y-121852380D02*
X135345523Y-122852380D01*
X135678857Y-121852380D01*
X136012190Y-122852380D02*
X136012190Y-122185714D01*
X136012190Y-121852380D02*
X135964571Y-121900000D01*
X136012190Y-121947619D01*
X136059809Y-121900000D01*
X136012190Y-121852380D01*
X136012190Y-121947619D01*
X136488380Y-122185714D02*
X136488380Y-122852380D01*
X136488380Y-122280952D02*
X136536000Y-122233333D01*
X136631238Y-122185714D01*
X136774095Y-122185714D01*
X136869333Y-122233333D01*
X136916952Y-122328571D01*
X136916952Y-122852380D01*
X121612190Y-122287380D02*
X121945523Y-123287380D01*
X122278857Y-122287380D01*
X122755047Y-123287380D02*
X122659809Y-123239761D01*
X122612190Y-123192142D01*
X122564571Y-123096904D01*
X122564571Y-122811190D01*
X122612190Y-122715952D01*
X122659809Y-122668333D01*
X122755047Y-122620714D01*
X122897904Y-122620714D01*
X122993142Y-122668333D01*
X123040761Y-122715952D01*
X123088380Y-122811190D01*
X123088380Y-123096904D01*
X123040761Y-123192142D01*
X122993142Y-123239761D01*
X122897904Y-123287380D01*
X122755047Y-123287380D01*
X123945523Y-122620714D02*
X123945523Y-123287380D01*
X123516952Y-122620714D02*
X123516952Y-123144523D01*
X123564571Y-123239761D01*
X123659809Y-123287380D01*
X123802666Y-123287380D01*
X123897904Y-123239761D01*
X123945523Y-123192142D01*
X124278857Y-122620714D02*
X124659809Y-122620714D01*
X124421714Y-122287380D02*
X124421714Y-123144523D01*
X124469333Y-123239761D01*
X124564571Y-123287380D01*
X124659809Y-123287380D01*
X121826476Y-124937380D02*
X121826476Y-123937380D01*
X122064571Y-123937380D01*
X122207428Y-123985000D01*
X122302666Y-124080238D01*
X122350285Y-124175476D01*
X122397904Y-124365952D01*
X122397904Y-124508809D01*
X122350285Y-124699285D01*
X122302666Y-124794523D01*
X122207428Y-124889761D01*
X122064571Y-124937380D01*
X121826476Y-124937380D01*
X122826476Y-124937380D02*
X122826476Y-124270714D01*
X122826476Y-123937380D02*
X122778857Y-123985000D01*
X122826476Y-124032619D01*
X122874095Y-123985000D01*
X122826476Y-123937380D01*
X122826476Y-124032619D01*
X123255047Y-124889761D02*
X123350285Y-124937380D01*
X123540761Y-124937380D01*
X123636000Y-124889761D01*
X123683619Y-124794523D01*
X123683619Y-124746904D01*
X123636000Y-124651666D01*
X123540761Y-124604047D01*
X123397904Y-124604047D01*
X123302666Y-124556428D01*
X123255047Y-124461190D01*
X123255047Y-124413571D01*
X123302666Y-124318333D01*
X123397904Y-124270714D01*
X123540761Y-124270714D01*
X123636000Y-124318333D01*
X124064571Y-124889761D02*
X124159809Y-124937380D01*
X124350285Y-124937380D01*
X124445523Y-124889761D01*
X124493142Y-124794523D01*
X124493142Y-124746904D01*
X124445523Y-124651666D01*
X124350285Y-124604047D01*
X124207428Y-124604047D01*
X124112190Y-124556428D01*
X124064571Y-124461190D01*
X124064571Y-124413571D01*
X124112190Y-124318333D01*
X124207428Y-124270714D01*
X124350285Y-124270714D01*
X124445523Y-124318333D01*
D12*
X134340252Y-117116000D02*
X132917748Y-117116000D01*
X134340252Y-114396000D02*
X132917748Y-114396000D01*
X134291252Y-120926000D02*
X132868748Y-120926000D01*
X134291252Y-118206000D02*
X132868748Y-118206000D01*
X120930748Y-111602000D02*
X122353252Y-111602000D01*
X120930748Y-114322000D02*
X122353252Y-114322000D01*
X120979748Y-106776000D02*
X122402252Y-106776000D01*
X120979748Y-109496000D02*
X122402252Y-109496000D01*
X119737000Y-102230500D02*
X127611000Y-102230500D01*
X127611000Y-102230500D02*
X127611000Y-100785240D01*
X127611000Y-95245500D02*
X119737000Y-95245500D01*
X119737000Y-95245500D02*
X119737000Y-96690760D01*
X119737000Y-100785240D02*
X119737000Y-102230500D01*
X127611000Y-96690760D02*
X127611000Y-95245500D01*
X128334000Y-71882000D02*
X128834000Y-72382000D01*
X128334000Y-72882000D02*
X128334000Y-71882000D01*
X128834000Y-72382000D02*
X128334000Y-72882000D01*
X145759000Y-80942000D02*
X145759000Y-75382000D01*
X129029000Y-80942000D02*
X129029000Y-75382000D01*
X129029000Y-80942000D02*
X145759000Y-80942000D01*
X145759000Y-64972000D02*
X145759000Y-72582000D01*
X129029000Y-64972000D02*
X129029000Y-72582000D01*
X129029000Y-64972000D02*
X145759000Y-64972000D01*
X115800000Y-134606000D02*
X143800000Y-134606000D01*
X115800000Y-82606000D02*
X115800000Y-134606000D01*
X143800000Y-134606000D02*
X143800000Y-82606000D01*
X115800000Y-82606000D02*
X143800000Y-82606000D01*
X118300000Y-126606000D02*
X115800000Y-126606000D01*
X118300000Y-87606000D02*
X118300000Y-126606000D01*
X115800000Y-87606000D02*
X118300000Y-87606000D01*
X143800000Y-87606000D02*
X141300000Y-87606000D01*
X141300000Y-126606000D02*
X143800000Y-126606000D01*
X141300000Y-87606000D02*
X141300000Y-126606000D01*
X125225000Y-74581064D02*
X125225000Y-74126936D01*
X126695000Y-74581064D02*
X126695000Y-74126936D01*
X112184000Y-124452000D02*
X114844000Y-124452000D01*
X112184000Y-124392000D02*
X112184000Y-124452000D01*
X114844000Y-124392000D02*
X114844000Y-124452000D01*
X112184000Y-124392000D02*
X114844000Y-124392000D01*
X112184000Y-123122000D02*
X112184000Y-121792000D01*
X112184000Y-121792000D02*
X113514000Y-121792000D01*
X148820000Y-84948000D02*
X164120000Y-84948000D01*
X148820000Y-114948000D02*
X148820000Y-113948000D01*
X148820000Y-84948000D02*
X148820000Y-127948000D01*
X148820000Y-127948000D02*
X164120000Y-127948000D01*
X164120000Y-127948000D02*
X164120000Y-84948000D01*
X137896000Y-110750580D02*
X137896000Y-110469420D01*
X138916000Y-110750580D02*
X138916000Y-110469420D01*
X127424000Y-116966000D02*
X128754000Y-116966000D01*
X127424000Y-118296000D02*
X127424000Y-116966000D01*
X127424000Y-119566000D02*
X130084000Y-119566000D01*
X130084000Y-119566000D02*
X130084000Y-119626000D01*
X127424000Y-119566000D02*
X127424000Y-119626000D01*
X127424000Y-119626000D02*
X130084000Y-119626000D01*
X130505064Y-92669000D02*
X130050936Y-92669000D01*
X130505064Y-94139000D02*
X130050936Y-94139000D01*
X134115000Y-96121436D02*
X134115000Y-96575564D01*
X135585000Y-96121436D02*
X135585000Y-96575564D01*
X130401064Y-96225000D02*
X129946936Y-96225000D01*
X130401064Y-97695000D02*
X129946936Y-97695000D01*
X132504000Y-125722000D02*
X132504000Y-124392000D01*
X133834000Y-125722000D02*
X132504000Y-125722000D01*
X135104000Y-125722000D02*
X135104000Y-123062000D01*
X135104000Y-123062000D02*
X135164000Y-123062000D01*
X135104000Y-125722000D02*
X135164000Y-125722000D01*
X135164000Y-125722000D02*
X135164000Y-123062000D01*
D13*
X131762000Y-113110000D02*
X131762000Y-111610000D01*
X136792000Y-111260000D02*
X131892000Y-111260000D01*
X136792000Y-108060000D02*
X136792000Y-111260000D01*
X131892000Y-108060000D02*
X136792000Y-108060000D01*
X131892000Y-111260000D02*
X131892000Y-108060000D01*
D14*
X120884000Y-119188000D02*
X120884000Y-118788000D01*
X120884000Y-119188000D02*
X121284000Y-119188000D01*
X125384000Y-119188000D02*
X124984000Y-119188000D01*
X125384000Y-119188000D02*
X125384000Y-118788000D01*
X125384000Y-116388000D02*
X125384000Y-116788000D01*
X125384000Y-116388000D02*
X124984000Y-116388000D01*
X120884000Y-116388000D02*
X120884000Y-116788000D01*
X120884000Y-116388000D02*
X121284000Y-116388000D01*
X124497980Y-119187540D02*
X124574180Y-119187540D01*
X124497980Y-118722720D02*
X124497980Y-119187540D01*
X124574180Y-118722720D02*
X124497980Y-118722720D01*
X124574180Y-119187540D02*
X124574180Y-118722720D01*
X124497980Y-116385920D02*
X124574180Y-116385920D01*
X124497980Y-116845660D02*
X124497980Y-116385920D01*
X124574180Y-116845660D02*
X124497980Y-116845660D01*
X124574180Y-116385920D02*
X124574180Y-116845660D01*
X128630000Y-112386000D02*
X128230000Y-112386000D01*
X128630000Y-112386000D02*
X128630000Y-111986000D01*
X128630000Y-107886000D02*
X128630000Y-108286000D01*
X128630000Y-107886000D02*
X128230000Y-107886000D01*
X125830000Y-107886000D02*
X126230000Y-107886000D01*
X125830000Y-107886000D02*
X125830000Y-108286000D01*
X125830000Y-112386000D02*
X126230000Y-112386000D01*
X125830000Y-112386000D02*
X125830000Y-111986000D01*
X128629540Y-108772020D02*
X128629540Y-108695820D01*
X128164720Y-108772020D02*
X128629540Y-108772020D01*
X128164720Y-108695820D02*
X128164720Y-108772020D01*
X128629540Y-108695820D02*
X128164720Y-108695820D01*
X125827920Y-108772020D02*
X125827920Y-108695820D01*
X126287660Y-108772020D02*
X125827920Y-108772020D01*
X126287660Y-108695820D02*
X126287660Y-108772020D01*
X125827920Y-108695820D02*
X126287660Y-108695820D01*
D12*
X130473252Y-99781000D02*
X129950748Y-99781000D01*
X130473252Y-101251000D02*
X129950748Y-101251000D01*
X135585000Y-101793252D02*
X135585000Y-101270748D01*
X134115000Y-101793252D02*
X134115000Y-101270748D01*
X129543000Y-104760748D02*
X129543000Y-105283252D01*
X131013000Y-104760748D02*
X131013000Y-105283252D01*
D11*
X132509952Y-118413142D02*
X132462333Y-118460761D01*
X132319476Y-118508380D01*
X132224238Y-118508380D01*
X132081380Y-118460761D01*
X131986142Y-118365523D01*
X131938523Y-118270285D01*
X131890904Y-118079809D01*
X131890904Y-117936952D01*
X131938523Y-117746476D01*
X131986142Y-117651238D01*
X132081380Y-117556000D01*
X132224238Y-117508380D01*
X132319476Y-117508380D01*
X132462333Y-117556000D01*
X132509952Y-117603619D01*
X132890904Y-117603619D02*
X132938523Y-117556000D01*
X133033761Y-117508380D01*
X133271857Y-117508380D01*
X133367095Y-117556000D01*
X133414714Y-117603619D01*
X133462333Y-117698857D01*
X133462333Y-117794095D01*
X133414714Y-117936952D01*
X132843285Y-118508380D01*
X133462333Y-118508380D01*
X134081380Y-117508380D02*
X134176619Y-117508380D01*
X134271857Y-117556000D01*
X134319476Y-117603619D01*
X134367095Y-117698857D01*
X134414714Y-117889333D01*
X134414714Y-118127428D01*
X134367095Y-118317904D01*
X134319476Y-118413142D01*
X134271857Y-118460761D01*
X134176619Y-118508380D01*
X134081380Y-118508380D01*
X133986142Y-118460761D01*
X133938523Y-118413142D01*
X133890904Y-118317904D01*
X133843285Y-118127428D01*
X133843285Y-117889333D01*
X133890904Y-117698857D01*
X133938523Y-117603619D01*
X133986142Y-117556000D01*
X134081380Y-117508380D01*
X134795666Y-117603619D02*
X134843285Y-117556000D01*
X134938523Y-117508380D01*
X135176619Y-117508380D01*
X135271857Y-117556000D01*
X135319476Y-117603619D01*
X135367095Y-117698857D01*
X135367095Y-117794095D01*
X135319476Y-117936952D01*
X134748047Y-118508380D01*
X135367095Y-118508380D01*
X132460952Y-122223142D02*
X132413333Y-122270761D01*
X132270476Y-122318380D01*
X132175238Y-122318380D01*
X132032380Y-122270761D01*
X131937142Y-122175523D01*
X131889523Y-122080285D01*
X131841904Y-121889809D01*
X131841904Y-121746952D01*
X131889523Y-121556476D01*
X131937142Y-121461238D01*
X132032380Y-121366000D01*
X132175238Y-121318380D01*
X132270476Y-121318380D01*
X132413333Y-121366000D01*
X132460952Y-121413619D01*
X132841904Y-121413619D02*
X132889523Y-121366000D01*
X132984761Y-121318380D01*
X133222857Y-121318380D01*
X133318095Y-121366000D01*
X133365714Y-121413619D01*
X133413333Y-121508857D01*
X133413333Y-121604095D01*
X133365714Y-121746952D01*
X132794285Y-122318380D01*
X133413333Y-122318380D01*
X134032380Y-121318380D02*
X134127619Y-121318380D01*
X134222857Y-121366000D01*
X134270476Y-121413619D01*
X134318095Y-121508857D01*
X134365714Y-121699333D01*
X134365714Y-121937428D01*
X134318095Y-122127904D01*
X134270476Y-122223142D01*
X134222857Y-122270761D01*
X134127619Y-122318380D01*
X134032380Y-122318380D01*
X133937142Y-122270761D01*
X133889523Y-122223142D01*
X133841904Y-122127904D01*
X133794285Y-121937428D01*
X133794285Y-121699333D01*
X133841904Y-121508857D01*
X133889523Y-121413619D01*
X133937142Y-121366000D01*
X134032380Y-121318380D01*
X135318095Y-122318380D02*
X134746666Y-122318380D01*
X135032380Y-122318380D02*
X135032380Y-121318380D01*
X134937142Y-121461238D01*
X134841904Y-121556476D01*
X134746666Y-121604095D01*
X120522952Y-111019142D02*
X120475333Y-111066761D01*
X120332476Y-111114380D01*
X120237238Y-111114380D01*
X120094380Y-111066761D01*
X119999142Y-110971523D01*
X119951523Y-110876285D01*
X119903904Y-110685809D01*
X119903904Y-110542952D01*
X119951523Y-110352476D01*
X119999142Y-110257238D01*
X120094380Y-110162000D01*
X120237238Y-110114380D01*
X120332476Y-110114380D01*
X120475333Y-110162000D01*
X120522952Y-110209619D01*
X120903904Y-110209619D02*
X120951523Y-110162000D01*
X121046761Y-110114380D01*
X121284857Y-110114380D01*
X121380095Y-110162000D01*
X121427714Y-110209619D01*
X121475333Y-110304857D01*
X121475333Y-110400095D01*
X121427714Y-110542952D01*
X120856285Y-111114380D01*
X121475333Y-111114380D01*
X122094380Y-110114380D02*
X122189619Y-110114380D01*
X122284857Y-110162000D01*
X122332476Y-110209619D01*
X122380095Y-110304857D01*
X122427714Y-110495333D01*
X122427714Y-110733428D01*
X122380095Y-110923904D01*
X122332476Y-111019142D01*
X122284857Y-111066761D01*
X122189619Y-111114380D01*
X122094380Y-111114380D01*
X121999142Y-111066761D01*
X121951523Y-111019142D01*
X121903904Y-110923904D01*
X121856285Y-110733428D01*
X121856285Y-110495333D01*
X121903904Y-110304857D01*
X121951523Y-110209619D01*
X121999142Y-110162000D01*
X122094380Y-110114380D01*
X123284857Y-110114380D02*
X123094380Y-110114380D01*
X122999142Y-110162000D01*
X122951523Y-110209619D01*
X122856285Y-110352476D01*
X122808666Y-110542952D01*
X122808666Y-110923904D01*
X122856285Y-111019142D01*
X122903904Y-111066761D01*
X122999142Y-111114380D01*
X123189619Y-111114380D01*
X123284857Y-111066761D01*
X123332476Y-111019142D01*
X123380095Y-110923904D01*
X123380095Y-110685809D01*
X123332476Y-110590571D01*
X123284857Y-110542952D01*
X123189619Y-110495333D01*
X122999142Y-110495333D01*
X122903904Y-110542952D01*
X122856285Y-110590571D01*
X122808666Y-110685809D01*
X120571952Y-106193142D02*
X120524333Y-106240761D01*
X120381476Y-106288380D01*
X120286238Y-106288380D01*
X120143380Y-106240761D01*
X120048142Y-106145523D01*
X120000523Y-106050285D01*
X119952904Y-105859809D01*
X119952904Y-105716952D01*
X120000523Y-105526476D01*
X120048142Y-105431238D01*
X120143380Y-105336000D01*
X120286238Y-105288380D01*
X120381476Y-105288380D01*
X120524333Y-105336000D01*
X120571952Y-105383619D01*
X120952904Y-105383619D02*
X121000523Y-105336000D01*
X121095761Y-105288380D01*
X121333857Y-105288380D01*
X121429095Y-105336000D01*
X121476714Y-105383619D01*
X121524333Y-105478857D01*
X121524333Y-105574095D01*
X121476714Y-105716952D01*
X120905285Y-106288380D01*
X121524333Y-106288380D01*
X122143380Y-105288380D02*
X122238619Y-105288380D01*
X122333857Y-105336000D01*
X122381476Y-105383619D01*
X122429095Y-105478857D01*
X122476714Y-105669333D01*
X122476714Y-105907428D01*
X122429095Y-106097904D01*
X122381476Y-106193142D01*
X122333857Y-106240761D01*
X122238619Y-106288380D01*
X122143380Y-106288380D01*
X122048142Y-106240761D01*
X122000523Y-106193142D01*
X121952904Y-106097904D01*
X121905285Y-105907428D01*
X121905285Y-105669333D01*
X121952904Y-105478857D01*
X122000523Y-105383619D01*
X122048142Y-105336000D01*
X122143380Y-105288380D01*
X123048142Y-105716952D02*
X122952904Y-105669333D01*
X122905285Y-105621714D01*
X122857666Y-105526476D01*
X122857666Y-105478857D01*
X122905285Y-105383619D01*
X122952904Y-105336000D01*
X123048142Y-105288380D01*
X123238619Y-105288380D01*
X123333857Y-105336000D01*
X123381476Y-105383619D01*
X123429095Y-105478857D01*
X123429095Y-105526476D01*
X123381476Y-105621714D01*
X123333857Y-105669333D01*
X123238619Y-105716952D01*
X123048142Y-105716952D01*
X122952904Y-105764571D01*
X122905285Y-105812190D01*
X122857666Y-105907428D01*
X122857666Y-106097904D01*
X122905285Y-106193142D01*
X122952904Y-106240761D01*
X123048142Y-106288380D01*
X123238619Y-106288380D01*
X123333857Y-106240761D01*
X123381476Y-106193142D01*
X123429095Y-106097904D01*
X123429095Y-105907428D01*
X123381476Y-105812190D01*
X123333857Y-105764571D01*
X123238619Y-105716952D01*
X122554952Y-99190380D02*
X122078761Y-99190380D01*
X122078761Y-98190380D01*
X122840666Y-98285619D02*
X122888285Y-98238000D01*
X122983523Y-98190380D01*
X123221619Y-98190380D01*
X123316857Y-98238000D01*
X123364476Y-98285619D01*
X123412095Y-98380857D01*
X123412095Y-98476095D01*
X123364476Y-98618952D01*
X122793047Y-99190380D01*
X123412095Y-99190380D01*
X124031142Y-98190380D02*
X124126380Y-98190380D01*
X124221619Y-98238000D01*
X124269238Y-98285619D01*
X124316857Y-98380857D01*
X124364476Y-98571333D01*
X124364476Y-98809428D01*
X124316857Y-98999904D01*
X124269238Y-99095142D01*
X124221619Y-99142761D01*
X124126380Y-99190380D01*
X124031142Y-99190380D01*
X123935904Y-99142761D01*
X123888285Y-99095142D01*
X123840666Y-98999904D01*
X123793047Y-98809428D01*
X123793047Y-98571333D01*
X123840666Y-98380857D01*
X123888285Y-98285619D01*
X123935904Y-98238000D01*
X124031142Y-98190380D01*
X125316857Y-99190380D02*
X124745428Y-99190380D01*
X125031142Y-99190380D02*
X125031142Y-98190380D01*
X124935904Y-98333238D01*
X124840666Y-98428476D01*
X124745428Y-98476095D01*
X115435904Y-99190380D02*
X115435904Y-98190380D01*
X115912095Y-99190380D02*
X115912095Y-98190380D01*
X115912095Y-98666571D02*
X116483523Y-98666571D01*
X116483523Y-99190380D02*
X116483523Y-98190380D01*
X117435904Y-99190380D02*
X116959714Y-99190380D01*
X116959714Y-98190380D01*
X117769238Y-99190380D02*
X117769238Y-98190380D01*
X118150190Y-98190380D01*
X118245428Y-98238000D01*
X118293047Y-98285619D01*
X118340666Y-98380857D01*
X118340666Y-98523714D01*
X118293047Y-98618952D01*
X118245428Y-98666571D01*
X118150190Y-98714190D01*
X117769238Y-98714190D01*
X118721619Y-98285619D02*
X118769238Y-98238000D01*
X118864476Y-98190380D01*
X119102571Y-98190380D01*
X119197809Y-98238000D01*
X119245428Y-98285619D01*
X119293047Y-98380857D01*
X119293047Y-98476095D01*
X119245428Y-98618952D01*
X118674000Y-99190380D01*
X119293047Y-99190380D01*
X120197809Y-98190380D02*
X119721619Y-98190380D01*
X119674000Y-98666571D01*
X119721619Y-98618952D01*
X119816857Y-98571333D01*
X120054952Y-98571333D01*
X120150190Y-98618952D01*
X120197809Y-98666571D01*
X120245428Y-98761809D01*
X120245428Y-98999904D01*
X120197809Y-99095142D01*
X120150190Y-99142761D01*
X120054952Y-99190380D01*
X119816857Y-99190380D01*
X119721619Y-99142761D01*
X119674000Y-99095142D01*
X120626380Y-98285619D02*
X120674000Y-98238000D01*
X120769238Y-98190380D01*
X121007333Y-98190380D01*
X121102571Y-98238000D01*
X121150190Y-98285619D01*
X121197809Y-98380857D01*
X121197809Y-98476095D01*
X121150190Y-98618952D01*
X120578761Y-99190380D01*
X121197809Y-99190380D01*
X122102571Y-98190380D02*
X121626380Y-98190380D01*
X121578761Y-98666571D01*
X121626380Y-98618952D01*
X121721619Y-98571333D01*
X121959714Y-98571333D01*
X122054952Y-98618952D01*
X122102571Y-98666571D01*
X122150190Y-98761809D01*
X122150190Y-98999904D01*
X122102571Y-99095142D01*
X122054952Y-99142761D01*
X121959714Y-99190380D01*
X121721619Y-99190380D01*
X121626380Y-99142761D01*
X121578761Y-99095142D01*
X123150190Y-99095142D02*
X123102571Y-99142761D01*
X122959714Y-99190380D01*
X122864476Y-99190380D01*
X122721619Y-99142761D01*
X122626380Y-99047523D01*
X122578761Y-98952285D01*
X122531142Y-98761809D01*
X122531142Y-98618952D01*
X122578761Y-98428476D01*
X122626380Y-98333238D01*
X122721619Y-98238000D01*
X122864476Y-98190380D01*
X122959714Y-98190380D01*
X123102571Y-98238000D01*
X123150190Y-98285619D01*
X123483523Y-98190380D02*
X124150190Y-98190380D01*
X123483523Y-99190380D01*
X124150190Y-99190380D01*
X124531142Y-98666571D02*
X124864476Y-98666571D01*
X125007333Y-99190380D02*
X124531142Y-99190380D01*
X124531142Y-98190380D01*
X125007333Y-98190380D01*
X126007333Y-99190380D02*
X125674000Y-98714190D01*
X125435904Y-99190380D02*
X125435904Y-98190380D01*
X125816857Y-98190380D01*
X125912095Y-98238000D01*
X125959714Y-98285619D01*
X126007333Y-98380857D01*
X126007333Y-98523714D01*
X125959714Y-98618952D01*
X125912095Y-98666571D01*
X125816857Y-98714190D01*
X125435904Y-98714190D01*
X126864476Y-98190380D02*
X126674000Y-98190380D01*
X126578761Y-98238000D01*
X126531142Y-98285619D01*
X126435904Y-98428476D01*
X126388285Y-98618952D01*
X126388285Y-98999904D01*
X126435904Y-99095142D01*
X126483523Y-99142761D01*
X126578761Y-99190380D01*
X126769238Y-99190380D01*
X126864476Y-99142761D01*
X126912095Y-99095142D01*
X126959714Y-98999904D01*
X126959714Y-98761809D01*
X126912095Y-98666571D01*
X126864476Y-98618952D01*
X126769238Y-98571333D01*
X126578761Y-98571333D01*
X126483523Y-98618952D01*
X126435904Y-98666571D01*
X126388285Y-98761809D01*
X127959714Y-99190380D02*
X127626380Y-98714190D01*
X127388285Y-99190380D02*
X127388285Y-98190380D01*
X127769238Y-98190380D01*
X127864476Y-98238000D01*
X127912095Y-98285619D01*
X127959714Y-98380857D01*
X127959714Y-98523714D01*
X127912095Y-98618952D01*
X127864476Y-98666571D01*
X127769238Y-98714190D01*
X127388285Y-98714190D01*
X128531142Y-98618952D02*
X128435904Y-98571333D01*
X128388285Y-98523714D01*
X128340666Y-98428476D01*
X128340666Y-98380857D01*
X128388285Y-98285619D01*
X128435904Y-98238000D01*
X128531142Y-98190380D01*
X128721619Y-98190380D01*
X128816857Y-98238000D01*
X128864476Y-98285619D01*
X128912095Y-98380857D01*
X128912095Y-98428476D01*
X128864476Y-98523714D01*
X128816857Y-98571333D01*
X128721619Y-98618952D01*
X128531142Y-98618952D01*
X128435904Y-98666571D01*
X128388285Y-98714190D01*
X128340666Y-98809428D01*
X128340666Y-98999904D01*
X128388285Y-99095142D01*
X128435904Y-99142761D01*
X128531142Y-99190380D01*
X128721619Y-99190380D01*
X128816857Y-99142761D01*
X128864476Y-99095142D01*
X128912095Y-98999904D01*
X128912095Y-98809428D01*
X128864476Y-98714190D01*
X128816857Y-98666571D01*
X128721619Y-98618952D01*
X129340666Y-99190380D02*
X129340666Y-98190380D01*
X129674000Y-98904666D01*
X130007333Y-98190380D01*
X130007333Y-99190380D01*
X130674000Y-98190380D02*
X130769238Y-98190380D01*
X130864476Y-98238000D01*
X130912095Y-98285619D01*
X130959714Y-98380857D01*
X131007333Y-98571333D01*
X131007333Y-98809428D01*
X130959714Y-98999904D01*
X130912095Y-99095142D01*
X130864476Y-99142761D01*
X130769238Y-99190380D01*
X130674000Y-99190380D01*
X130578761Y-99142761D01*
X130531142Y-99095142D01*
X130483523Y-98999904D01*
X130435904Y-98809428D01*
X130435904Y-98571333D01*
X130483523Y-98380857D01*
X130531142Y-98285619D01*
X130578761Y-98238000D01*
X130674000Y-98190380D01*
X131959714Y-99190380D02*
X131388285Y-99190380D01*
X131674000Y-99190380D02*
X131674000Y-98190380D01*
X131578761Y-98333238D01*
X131483523Y-98428476D01*
X131388285Y-98476095D01*
X123674000Y-98190380D02*
X123674000Y-98428476D01*
X123435904Y-98333238D02*
X123674000Y-98428476D01*
X123912095Y-98333238D01*
X123531142Y-98618952D02*
X123674000Y-98428476D01*
X123816857Y-98618952D01*
X136108285Y-63034380D02*
X136108285Y-63748666D01*
X136060666Y-63891523D01*
X135965428Y-63986761D01*
X135822571Y-64034380D01*
X135727333Y-64034380D01*
X136489238Y-63034380D02*
X137108285Y-63034380D01*
X136774952Y-63415333D01*
X136917809Y-63415333D01*
X137013047Y-63462952D01*
X137060666Y-63510571D01*
X137108285Y-63605809D01*
X137108285Y-63843904D01*
X137060666Y-63939142D01*
X137013047Y-63986761D01*
X136917809Y-64034380D01*
X136632095Y-64034380D01*
X136536857Y-63986761D01*
X136489238Y-63939142D01*
X137727333Y-63034380D02*
X137822571Y-63034380D01*
X137917809Y-63082000D01*
X137965428Y-63129619D01*
X138013047Y-63224857D01*
X138060666Y-63415333D01*
X138060666Y-63653428D01*
X138013047Y-63843904D01*
X137965428Y-63939142D01*
X137917809Y-63986761D01*
X137822571Y-64034380D01*
X137727333Y-64034380D01*
X137632095Y-63986761D01*
X137584476Y-63939142D01*
X137536857Y-63843904D01*
X137489238Y-63653428D01*
X137489238Y-63415333D01*
X137536857Y-63224857D01*
X137584476Y-63129619D01*
X137632095Y-63082000D01*
X137727333Y-63034380D01*
X139013047Y-64034380D02*
X138441619Y-64034380D01*
X138727333Y-64034380D02*
X138727333Y-63034380D01*
X138632095Y-63177238D01*
X138536857Y-63272476D01*
X138441619Y-63320095D01*
X103925714Y-121502380D02*
X103925714Y-120502380D01*
X103925714Y-120978571D02*
X104497142Y-120978571D01*
X104497142Y-121502380D02*
X104497142Y-120502380D01*
X105497142Y-121502380D02*
X104925714Y-121502380D01*
X105211428Y-121502380D02*
X105211428Y-120502380D01*
X105116190Y-120645238D01*
X105020952Y-120740476D01*
X104925714Y-120788095D01*
X106116190Y-120502380D02*
X106211428Y-120502380D01*
X106306666Y-120550000D01*
X106354285Y-120597619D01*
X106401904Y-120692857D01*
X106449523Y-120883333D01*
X106449523Y-121121428D01*
X106401904Y-121311904D01*
X106354285Y-121407142D01*
X106306666Y-121454761D01*
X106211428Y-121502380D01*
X106116190Y-121502380D01*
X106020952Y-121454761D01*
X105973333Y-121407142D01*
X105925714Y-121311904D01*
X105878095Y-121121428D01*
X105878095Y-120883333D01*
X105925714Y-120692857D01*
X105973333Y-120597619D01*
X106020952Y-120550000D01*
X106116190Y-120502380D01*
X107306666Y-120835714D02*
X107306666Y-121502380D01*
X107068571Y-120454761D02*
X106830476Y-121169047D01*
X107449523Y-121169047D01*
X103925714Y-70702380D02*
X103925714Y-69702380D01*
X103925714Y-70178571D02*
X104497142Y-70178571D01*
X104497142Y-70702380D02*
X104497142Y-69702380D01*
X105497142Y-70702380D02*
X104925714Y-70702380D01*
X105211428Y-70702380D02*
X105211428Y-69702380D01*
X105116190Y-69845238D01*
X105020952Y-69940476D01*
X104925714Y-69988095D01*
X106116190Y-69702380D02*
X106211428Y-69702380D01*
X106306666Y-69750000D01*
X106354285Y-69797619D01*
X106401904Y-69892857D01*
X106449523Y-70083333D01*
X106449523Y-70321428D01*
X106401904Y-70511904D01*
X106354285Y-70607142D01*
X106306666Y-70654761D01*
X106211428Y-70702380D01*
X106116190Y-70702380D01*
X106020952Y-70654761D01*
X105973333Y-70607142D01*
X105925714Y-70511904D01*
X105878095Y-70321428D01*
X105878095Y-70083333D01*
X105925714Y-69892857D01*
X105973333Y-69797619D01*
X106020952Y-69750000D01*
X106116190Y-69702380D01*
X106782857Y-69702380D02*
X107401904Y-69702380D01*
X107068571Y-70083333D01*
X107211428Y-70083333D01*
X107306666Y-70130952D01*
X107354285Y-70178571D01*
X107401904Y-70273809D01*
X107401904Y-70511904D01*
X107354285Y-70607142D01*
X107306666Y-70654761D01*
X107211428Y-70702380D01*
X106925714Y-70702380D01*
X106830476Y-70654761D01*
X106782857Y-70607142D01*
X167425714Y-121502380D02*
X167425714Y-120502380D01*
X167425714Y-120978571D02*
X167997142Y-120978571D01*
X167997142Y-121502380D02*
X167997142Y-120502380D01*
X168997142Y-121502380D02*
X168425714Y-121502380D01*
X168711428Y-121502380D02*
X168711428Y-120502380D01*
X168616190Y-120645238D01*
X168520952Y-120740476D01*
X168425714Y-120788095D01*
X169616190Y-120502380D02*
X169711428Y-120502380D01*
X169806666Y-120550000D01*
X169854285Y-120597619D01*
X169901904Y-120692857D01*
X169949523Y-120883333D01*
X169949523Y-121121428D01*
X169901904Y-121311904D01*
X169854285Y-121407142D01*
X169806666Y-121454761D01*
X169711428Y-121502380D01*
X169616190Y-121502380D01*
X169520952Y-121454761D01*
X169473333Y-121407142D01*
X169425714Y-121311904D01*
X169378095Y-121121428D01*
X169378095Y-120883333D01*
X169425714Y-120692857D01*
X169473333Y-120597619D01*
X169520952Y-120550000D01*
X169616190Y-120502380D01*
X170330476Y-120597619D02*
X170378095Y-120550000D01*
X170473333Y-120502380D01*
X170711428Y-120502380D01*
X170806666Y-120550000D01*
X170854285Y-120597619D01*
X170901904Y-120692857D01*
X170901904Y-120788095D01*
X170854285Y-120930952D01*
X170282857Y-121502380D01*
X170901904Y-121502380D01*
X167425714Y-70702380D02*
X167425714Y-69702380D01*
X167425714Y-70178571D02*
X167997142Y-70178571D01*
X167997142Y-70702380D02*
X167997142Y-69702380D01*
X168997142Y-70702380D02*
X168425714Y-70702380D01*
X168711428Y-70702380D02*
X168711428Y-69702380D01*
X168616190Y-69845238D01*
X168520952Y-69940476D01*
X168425714Y-69988095D01*
X169616190Y-69702380D02*
X169711428Y-69702380D01*
X169806666Y-69750000D01*
X169854285Y-69797619D01*
X169901904Y-69892857D01*
X169949523Y-70083333D01*
X169949523Y-70321428D01*
X169901904Y-70511904D01*
X169854285Y-70607142D01*
X169806666Y-70654761D01*
X169711428Y-70702380D01*
X169616190Y-70702380D01*
X169520952Y-70654761D01*
X169473333Y-70607142D01*
X169425714Y-70511904D01*
X169378095Y-70321428D01*
X169378095Y-70083333D01*
X169425714Y-69892857D01*
X169473333Y-69797619D01*
X169520952Y-69750000D01*
X169616190Y-69702380D01*
X170901904Y-70702380D02*
X170330476Y-70702380D01*
X170616190Y-70702380D02*
X170616190Y-69702380D01*
X170520952Y-69845238D01*
X170425714Y-69940476D01*
X170330476Y-69988095D01*
X128335714Y-126358380D02*
X128335714Y-127167904D01*
X128383333Y-127263142D01*
X128430952Y-127310761D01*
X128526190Y-127358380D01*
X128716666Y-127358380D01*
X128811904Y-127310761D01*
X128859523Y-127263142D01*
X128907142Y-127167904D01*
X128907142Y-126358380D01*
X129907142Y-127358380D02*
X129335714Y-127358380D01*
X129621428Y-127358380D02*
X129621428Y-126358380D01*
X129526190Y-126501238D01*
X129430952Y-126596476D01*
X129335714Y-126644095D01*
X130526190Y-126358380D02*
X130621428Y-126358380D01*
X130716666Y-126406000D01*
X130764285Y-126453619D01*
X130811904Y-126548857D01*
X130859523Y-126739333D01*
X130859523Y-126977428D01*
X130811904Y-127167904D01*
X130764285Y-127263142D01*
X130716666Y-127310761D01*
X130621428Y-127358380D01*
X130526190Y-127358380D01*
X130430952Y-127310761D01*
X130383333Y-127263142D01*
X130335714Y-127167904D01*
X130288095Y-126977428D01*
X130288095Y-126739333D01*
X130335714Y-126548857D01*
X130383333Y-126453619D01*
X130430952Y-126406000D01*
X130526190Y-126358380D01*
X131811904Y-127358380D02*
X131240476Y-127358380D01*
X131526190Y-127358380D02*
X131526190Y-126358380D01*
X131430952Y-126501238D01*
X131335714Y-126596476D01*
X131240476Y-126644095D01*
X124762380Y-75473047D02*
X124286190Y-75806380D01*
X124762380Y-76044476D02*
X123762380Y-76044476D01*
X123762380Y-75663523D01*
X123810000Y-75568285D01*
X123857619Y-75520666D01*
X123952857Y-75473047D01*
X124095714Y-75473047D01*
X124190952Y-75520666D01*
X124238571Y-75568285D01*
X124286190Y-75663523D01*
X124286190Y-76044476D01*
X123762380Y-75139714D02*
X123762380Y-74520666D01*
X124143333Y-74854000D01*
X124143333Y-74711142D01*
X124190952Y-74615904D01*
X124238571Y-74568285D01*
X124333809Y-74520666D01*
X124571904Y-74520666D01*
X124667142Y-74568285D01*
X124714761Y-74615904D01*
X124762380Y-74711142D01*
X124762380Y-74996857D01*
X124714761Y-75092095D01*
X124667142Y-75139714D01*
X123762380Y-73901619D02*
X123762380Y-73806380D01*
X123810000Y-73711142D01*
X123857619Y-73663523D01*
X123952857Y-73615904D01*
X124143333Y-73568285D01*
X124381428Y-73568285D01*
X124571904Y-73615904D01*
X124667142Y-73663523D01*
X124714761Y-73711142D01*
X124762380Y-73806380D01*
X124762380Y-73901619D01*
X124714761Y-73996857D01*
X124667142Y-74044476D01*
X124571904Y-74092095D01*
X124381428Y-74139714D01*
X124143333Y-74139714D01*
X123952857Y-74092095D01*
X123857619Y-74044476D01*
X123810000Y-73996857D01*
X123762380Y-73901619D01*
X124762380Y-72615904D02*
X124762380Y-73187333D01*
X124762380Y-72901619D02*
X123762380Y-72901619D01*
X123905238Y-72996857D01*
X124000476Y-73092095D01*
X124048095Y-73187333D01*
X112228285Y-120244380D02*
X112228285Y-120958666D01*
X112180666Y-121101523D01*
X112085428Y-121196761D01*
X111942571Y-121244380D01*
X111847333Y-121244380D01*
X113228285Y-121244380D02*
X112656857Y-121244380D01*
X112942571Y-121244380D02*
X112942571Y-120244380D01*
X112847333Y-120387238D01*
X112752095Y-120482476D01*
X112656857Y-120530095D01*
X113847333Y-120244380D02*
X113942571Y-120244380D01*
X114037809Y-120292000D01*
X114085428Y-120339619D01*
X114133047Y-120434857D01*
X114180666Y-120625333D01*
X114180666Y-120863428D01*
X114133047Y-121053904D01*
X114085428Y-121149142D01*
X114037809Y-121196761D01*
X113942571Y-121244380D01*
X113847333Y-121244380D01*
X113752095Y-121196761D01*
X113704476Y-121149142D01*
X113656857Y-121053904D01*
X113609238Y-120863428D01*
X113609238Y-120625333D01*
X113656857Y-120434857D01*
X113704476Y-120339619D01*
X113752095Y-120292000D01*
X113847333Y-120244380D01*
X115133047Y-121244380D02*
X114561619Y-121244380D01*
X114847333Y-121244380D02*
X114847333Y-120244380D01*
X114752095Y-120387238D01*
X114656857Y-120482476D01*
X114561619Y-120530095D01*
X148177142Y-131114666D02*
X148224761Y-131162285D01*
X148272380Y-131305142D01*
X148272380Y-131400380D01*
X148224761Y-131543238D01*
X148129523Y-131638476D01*
X148034285Y-131686095D01*
X147843809Y-131733714D01*
X147700952Y-131733714D01*
X147510476Y-131686095D01*
X147415238Y-131638476D01*
X147320000Y-131543238D01*
X147272380Y-131400380D01*
X147272380Y-131305142D01*
X147320000Y-131162285D01*
X147367619Y-131114666D01*
X148272380Y-130543238D02*
X148224761Y-130638476D01*
X148177142Y-130686095D01*
X148081904Y-130733714D01*
X147796190Y-130733714D01*
X147700952Y-130686095D01*
X147653333Y-130638476D01*
X147605714Y-130543238D01*
X147605714Y-130400380D01*
X147653333Y-130305142D01*
X147700952Y-130257523D01*
X147796190Y-130209904D01*
X148081904Y-130209904D01*
X148177142Y-130257523D01*
X148224761Y-130305142D01*
X148272380Y-130400380D01*
X148272380Y-130543238D01*
X147605714Y-129781333D02*
X148272380Y-129781333D01*
X147700952Y-129781333D02*
X147653333Y-129733714D01*
X147605714Y-129638476D01*
X147605714Y-129495619D01*
X147653333Y-129400380D01*
X147748571Y-129352761D01*
X148272380Y-129352761D01*
X147605714Y-128971809D02*
X148272380Y-128733714D01*
X147605714Y-128495619D01*
X148224761Y-127733714D02*
X148272380Y-127828952D01*
X148272380Y-128019428D01*
X148224761Y-128114666D01*
X148129523Y-128162285D01*
X147748571Y-128162285D01*
X147653333Y-128114666D01*
X147605714Y-128019428D01*
X147605714Y-127828952D01*
X147653333Y-127733714D01*
X147748571Y-127686095D01*
X147843809Y-127686095D01*
X147939047Y-128162285D01*
X148272380Y-127257523D02*
X147605714Y-127257523D01*
X147796190Y-127257523D02*
X147700952Y-127209904D01*
X147653333Y-127162285D01*
X147605714Y-127067047D01*
X147605714Y-126971809D01*
X147605714Y-126781333D02*
X147605714Y-126400380D01*
X147272380Y-126638476D02*
X148129523Y-126638476D01*
X148224761Y-126590857D01*
X148272380Y-126495619D01*
X148272380Y-126400380D01*
X148224761Y-125686095D02*
X148272380Y-125781333D01*
X148272380Y-125971809D01*
X148224761Y-126067047D01*
X148129523Y-126114666D01*
X147748571Y-126114666D01*
X147653333Y-126067047D01*
X147605714Y-125971809D01*
X147605714Y-125781333D01*
X147653333Y-125686095D01*
X147748571Y-125638476D01*
X147843809Y-125638476D01*
X147939047Y-126114666D01*
X148272380Y-125209904D02*
X147605714Y-125209904D01*
X147796190Y-125209904D02*
X147700952Y-125162285D01*
X147653333Y-125114666D01*
X147605714Y-125019428D01*
X147605714Y-124924190D01*
X147272380Y-124686095D02*
X147272380Y-124067047D01*
X147653333Y-124400380D01*
X147653333Y-124257523D01*
X147700952Y-124162285D01*
X147748571Y-124114666D01*
X147843809Y-124067047D01*
X148081904Y-124067047D01*
X148177142Y-124114666D01*
X148224761Y-124162285D01*
X148272380Y-124257523D01*
X148272380Y-124543238D01*
X148224761Y-124638476D01*
X148177142Y-124686095D01*
X147272380Y-123448000D02*
X147272380Y-123352761D01*
X147320000Y-123257523D01*
X147367619Y-123209904D01*
X147462857Y-123162285D01*
X147653333Y-123114666D01*
X147891428Y-123114666D01*
X148081904Y-123162285D01*
X148177142Y-123209904D01*
X148224761Y-123257523D01*
X148272380Y-123352761D01*
X148272380Y-123448000D01*
X148224761Y-123543238D01*
X148177142Y-123590857D01*
X148081904Y-123638476D01*
X147891428Y-123686095D01*
X147653333Y-123686095D01*
X147462857Y-123638476D01*
X147367619Y-123590857D01*
X147320000Y-123543238D01*
X147272380Y-123448000D01*
X148272380Y-122162285D02*
X148272380Y-122733714D01*
X148272380Y-122448000D02*
X147272380Y-122448000D01*
X147415238Y-122543238D01*
X147510476Y-122638476D01*
X147558095Y-122733714D01*
X137333142Y-111729047D02*
X137380761Y-111776666D01*
X137428380Y-111919523D01*
X137428380Y-112014761D01*
X137380761Y-112157619D01*
X137285523Y-112252857D01*
X137190285Y-112300476D01*
X136999809Y-112348095D01*
X136856952Y-112348095D01*
X136666476Y-112300476D01*
X136571238Y-112252857D01*
X136476000Y-112157619D01*
X136428380Y-112014761D01*
X136428380Y-111919523D01*
X136476000Y-111776666D01*
X136523619Y-111729047D01*
X136523619Y-111348095D02*
X136476000Y-111300476D01*
X136428380Y-111205238D01*
X136428380Y-110967142D01*
X136476000Y-110871904D01*
X136523619Y-110824285D01*
X136618857Y-110776666D01*
X136714095Y-110776666D01*
X136856952Y-110824285D01*
X137428380Y-111395714D01*
X137428380Y-110776666D01*
X136428380Y-110157619D02*
X136428380Y-110062380D01*
X136476000Y-109967142D01*
X136523619Y-109919523D01*
X136618857Y-109871904D01*
X136809333Y-109824285D01*
X137047428Y-109824285D01*
X137237904Y-109871904D01*
X137333142Y-109919523D01*
X137380761Y-109967142D01*
X137428380Y-110062380D01*
X137428380Y-110157619D01*
X137380761Y-110252857D01*
X137333142Y-110300476D01*
X137237904Y-110348095D01*
X137047428Y-110395714D01*
X136809333Y-110395714D01*
X136618857Y-110348095D01*
X136523619Y-110300476D01*
X136476000Y-110252857D01*
X136428380Y-110157619D01*
X136761714Y-108967142D02*
X137428380Y-108967142D01*
X136380761Y-109205238D02*
X137095047Y-109443333D01*
X137095047Y-108824285D01*
X127468285Y-115418380D02*
X127468285Y-116132666D01*
X127420666Y-116275523D01*
X127325428Y-116370761D01*
X127182571Y-116418380D01*
X127087333Y-116418380D01*
X127896857Y-115513619D02*
X127944476Y-115466000D01*
X128039714Y-115418380D01*
X128277809Y-115418380D01*
X128373047Y-115466000D01*
X128420666Y-115513619D01*
X128468285Y-115608857D01*
X128468285Y-115704095D01*
X128420666Y-115846952D01*
X127849238Y-116418380D01*
X128468285Y-116418380D01*
X129087333Y-115418380D02*
X129182571Y-115418380D01*
X129277809Y-115466000D01*
X129325428Y-115513619D01*
X129373047Y-115608857D01*
X129420666Y-115799333D01*
X129420666Y-116037428D01*
X129373047Y-116227904D01*
X129325428Y-116323142D01*
X129277809Y-116370761D01*
X129182571Y-116418380D01*
X129087333Y-116418380D01*
X128992095Y-116370761D01*
X128944476Y-116323142D01*
X128896857Y-116227904D01*
X128849238Y-116037428D01*
X128849238Y-115799333D01*
X128896857Y-115608857D01*
X128944476Y-115513619D01*
X128992095Y-115466000D01*
X129087333Y-115418380D01*
X129801619Y-115513619D02*
X129849238Y-115466000D01*
X129944476Y-115418380D01*
X130182571Y-115418380D01*
X130277809Y-115466000D01*
X130325428Y-115513619D01*
X130373047Y-115608857D01*
X130373047Y-115704095D01*
X130325428Y-115846952D01*
X129754000Y-116418380D01*
X130373047Y-116418380D01*
X129158952Y-95506380D02*
X128825619Y-95030190D01*
X128587523Y-95506380D02*
X128587523Y-94506380D01*
X128968476Y-94506380D01*
X129063714Y-94554000D01*
X129111333Y-94601619D01*
X129158952Y-94696857D01*
X129158952Y-94839714D01*
X129111333Y-94934952D01*
X129063714Y-94982571D01*
X128968476Y-95030190D01*
X128587523Y-95030190D01*
X129539904Y-94601619D02*
X129587523Y-94554000D01*
X129682761Y-94506380D01*
X129920857Y-94506380D01*
X130016095Y-94554000D01*
X130063714Y-94601619D01*
X130111333Y-94696857D01*
X130111333Y-94792095D01*
X130063714Y-94934952D01*
X129492285Y-95506380D01*
X130111333Y-95506380D01*
X130730380Y-94506380D02*
X130825619Y-94506380D01*
X130920857Y-94554000D01*
X130968476Y-94601619D01*
X131016095Y-94696857D01*
X131063714Y-94887333D01*
X131063714Y-95125428D01*
X131016095Y-95315904D01*
X130968476Y-95411142D01*
X130920857Y-95458761D01*
X130825619Y-95506380D01*
X130730380Y-95506380D01*
X130635142Y-95458761D01*
X130587523Y-95411142D01*
X130539904Y-95315904D01*
X130492285Y-95125428D01*
X130492285Y-94887333D01*
X130539904Y-94696857D01*
X130587523Y-94601619D01*
X130635142Y-94554000D01*
X130730380Y-94506380D01*
X131397047Y-94506380D02*
X132016095Y-94506380D01*
X131682761Y-94887333D01*
X131825619Y-94887333D01*
X131920857Y-94934952D01*
X131968476Y-94982571D01*
X132016095Y-95077809D01*
X132016095Y-95315904D01*
X131968476Y-95411142D01*
X131920857Y-95458761D01*
X131825619Y-95506380D01*
X131539904Y-95506380D01*
X131444666Y-95458761D01*
X131397047Y-95411142D01*
X136952380Y-97467547D02*
X136476190Y-97800880D01*
X136952380Y-98038976D02*
X135952380Y-98038976D01*
X135952380Y-97658023D01*
X136000000Y-97562785D01*
X136047619Y-97515166D01*
X136142857Y-97467547D01*
X136285714Y-97467547D01*
X136380952Y-97515166D01*
X136428571Y-97562785D01*
X136476190Y-97658023D01*
X136476190Y-98038976D01*
X136047619Y-97086595D02*
X136000000Y-97038976D01*
X135952380Y-96943738D01*
X135952380Y-96705642D01*
X136000000Y-96610404D01*
X136047619Y-96562785D01*
X136142857Y-96515166D01*
X136238095Y-96515166D01*
X136380952Y-96562785D01*
X136952380Y-97134214D01*
X136952380Y-96515166D01*
X135952380Y-95896119D02*
X135952380Y-95800880D01*
X136000000Y-95705642D01*
X136047619Y-95658023D01*
X136142857Y-95610404D01*
X136333333Y-95562785D01*
X136571428Y-95562785D01*
X136761904Y-95610404D01*
X136857142Y-95658023D01*
X136904761Y-95705642D01*
X136952380Y-95800880D01*
X136952380Y-95896119D01*
X136904761Y-95991357D01*
X136857142Y-96038976D01*
X136761904Y-96086595D01*
X136571428Y-96134214D01*
X136333333Y-96134214D01*
X136142857Y-96086595D01*
X136047619Y-96038976D01*
X136000000Y-95991357D01*
X135952380Y-95896119D01*
X136047619Y-95181833D02*
X136000000Y-95134214D01*
X135952380Y-95038976D01*
X135952380Y-94800880D01*
X136000000Y-94705642D01*
X136047619Y-94658023D01*
X136142857Y-94610404D01*
X136238095Y-94610404D01*
X136380952Y-94658023D01*
X136952380Y-95229452D01*
X136952380Y-94610404D01*
X129054952Y-99062380D02*
X128721619Y-98586190D01*
X128483523Y-99062380D02*
X128483523Y-98062380D01*
X128864476Y-98062380D01*
X128959714Y-98110000D01*
X129007333Y-98157619D01*
X129054952Y-98252857D01*
X129054952Y-98395714D01*
X129007333Y-98490952D01*
X128959714Y-98538571D01*
X128864476Y-98586190D01*
X128483523Y-98586190D01*
X129435904Y-98157619D02*
X129483523Y-98110000D01*
X129578761Y-98062380D01*
X129816857Y-98062380D01*
X129912095Y-98110000D01*
X129959714Y-98157619D01*
X130007333Y-98252857D01*
X130007333Y-98348095D01*
X129959714Y-98490952D01*
X129388285Y-99062380D01*
X130007333Y-99062380D01*
X130626380Y-98062380D02*
X130721619Y-98062380D01*
X130816857Y-98110000D01*
X130864476Y-98157619D01*
X130912095Y-98252857D01*
X130959714Y-98443333D01*
X130959714Y-98681428D01*
X130912095Y-98871904D01*
X130864476Y-98967142D01*
X130816857Y-99014761D01*
X130721619Y-99062380D01*
X130626380Y-99062380D01*
X130531142Y-99014761D01*
X130483523Y-98967142D01*
X130435904Y-98871904D01*
X130388285Y-98681428D01*
X130388285Y-98443333D01*
X130435904Y-98252857D01*
X130483523Y-98157619D01*
X130531142Y-98110000D01*
X130626380Y-98062380D01*
X131912095Y-99062380D02*
X131340666Y-99062380D01*
X131626380Y-99062380D02*
X131626380Y-98062380D01*
X131531142Y-98205238D01*
X131435904Y-98300476D01*
X131340666Y-98348095D01*
X130956380Y-125677714D02*
X131670666Y-125677714D01*
X131813523Y-125725333D01*
X131908761Y-125820571D01*
X131956380Y-125963428D01*
X131956380Y-126058666D01*
X131051619Y-125249142D02*
X131004000Y-125201523D01*
X130956380Y-125106285D01*
X130956380Y-124868190D01*
X131004000Y-124772952D01*
X131051619Y-124725333D01*
X131146857Y-124677714D01*
X131242095Y-124677714D01*
X131384952Y-124725333D01*
X131956380Y-125296761D01*
X131956380Y-124677714D01*
X130956380Y-124058666D02*
X130956380Y-123963428D01*
X131004000Y-123868190D01*
X131051619Y-123820571D01*
X131146857Y-123772952D01*
X131337333Y-123725333D01*
X131575428Y-123725333D01*
X131765904Y-123772952D01*
X131861142Y-123820571D01*
X131908761Y-123868190D01*
X131956380Y-123963428D01*
X131956380Y-124058666D01*
X131908761Y-124153904D01*
X131861142Y-124201523D01*
X131765904Y-124249142D01*
X131575428Y-124296761D01*
X131337333Y-124296761D01*
X131146857Y-124249142D01*
X131051619Y-124201523D01*
X131004000Y-124153904D01*
X130956380Y-124058666D01*
X131956380Y-122772952D02*
X131956380Y-123344380D01*
X131956380Y-123058666D02*
X130956380Y-123058666D01*
X131099238Y-123153904D01*
X131194476Y-123249142D01*
X131242095Y-123344380D01*
D15*
X134916523Y-112109285D02*
X133646523Y-112109285D01*
X134795571Y-110778809D02*
X134856047Y-110839285D01*
X134916523Y-111020714D01*
X134916523Y-111141666D01*
X134856047Y-111323095D01*
X134735095Y-111444047D01*
X134614142Y-111504523D01*
X134372238Y-111565000D01*
X134190809Y-111565000D01*
X133948904Y-111504523D01*
X133827952Y-111444047D01*
X133707000Y-111323095D01*
X133646523Y-111141666D01*
X133646523Y-111020714D01*
X133707000Y-110839285D01*
X133767476Y-110778809D01*
X133767476Y-110295000D02*
X133707000Y-110234523D01*
X133646523Y-110113571D01*
X133646523Y-109811190D01*
X133707000Y-109690238D01*
X133767476Y-109629761D01*
X133888428Y-109569285D01*
X134009380Y-109569285D01*
X134190809Y-109629761D01*
X134916523Y-110355476D01*
X134916523Y-109569285D01*
X133646523Y-108783095D02*
X133646523Y-108662142D01*
X133707000Y-108541190D01*
X133767476Y-108480714D01*
X133888428Y-108420238D01*
X134130333Y-108359761D01*
X134432714Y-108359761D01*
X134674619Y-108420238D01*
X134795571Y-108480714D01*
X134856047Y-108541190D01*
X134916523Y-108662142D01*
X134916523Y-108783095D01*
X134856047Y-108904047D01*
X134795571Y-108964523D01*
X134674619Y-109025000D01*
X134432714Y-109085476D01*
X134130333Y-109085476D01*
X133888428Y-109025000D01*
X133767476Y-108964523D01*
X133707000Y-108904047D01*
X133646523Y-108783095D01*
X134916523Y-107150238D02*
X134916523Y-107875952D01*
X134916523Y-107513095D02*
X133646523Y-107513095D01*
X133827952Y-107634047D01*
X133948904Y-107755000D01*
X134009380Y-107875952D01*
D11*
X121443523Y-120840380D02*
X121443523Y-119840380D01*
X121681619Y-119840380D01*
X121824476Y-119888000D01*
X121919714Y-119983238D01*
X121967333Y-120078476D01*
X122014952Y-120268952D01*
X122014952Y-120411809D01*
X121967333Y-120602285D01*
X121919714Y-120697523D01*
X121824476Y-120792761D01*
X121681619Y-120840380D01*
X121443523Y-120840380D01*
X122395904Y-119935619D02*
X122443523Y-119888000D01*
X122538761Y-119840380D01*
X122776857Y-119840380D01*
X122872095Y-119888000D01*
X122919714Y-119935619D01*
X122967333Y-120030857D01*
X122967333Y-120126095D01*
X122919714Y-120268952D01*
X122348285Y-120840380D01*
X122967333Y-120840380D01*
X123586380Y-119840380D02*
X123681619Y-119840380D01*
X123776857Y-119888000D01*
X123824476Y-119935619D01*
X123872095Y-120030857D01*
X123919714Y-120221333D01*
X123919714Y-120459428D01*
X123872095Y-120649904D01*
X123824476Y-120745142D01*
X123776857Y-120792761D01*
X123681619Y-120840380D01*
X123586380Y-120840380D01*
X123491142Y-120792761D01*
X123443523Y-120745142D01*
X123395904Y-120649904D01*
X123348285Y-120459428D01*
X123348285Y-120221333D01*
X123395904Y-120030857D01*
X123443523Y-119935619D01*
X123491142Y-119888000D01*
X123586380Y-119840380D01*
X124300666Y-119935619D02*
X124348285Y-119888000D01*
X124443523Y-119840380D01*
X124681619Y-119840380D01*
X124776857Y-119888000D01*
X124824476Y-119935619D01*
X124872095Y-120030857D01*
X124872095Y-120126095D01*
X124824476Y-120268952D01*
X124253047Y-120840380D01*
X124872095Y-120840380D01*
X130282380Y-111826476D02*
X129282380Y-111826476D01*
X129282380Y-111588380D01*
X129330000Y-111445523D01*
X129425238Y-111350285D01*
X129520476Y-111302666D01*
X129710952Y-111255047D01*
X129853809Y-111255047D01*
X130044285Y-111302666D01*
X130139523Y-111350285D01*
X130234761Y-111445523D01*
X130282380Y-111588380D01*
X130282380Y-111826476D01*
X129377619Y-110874095D02*
X129330000Y-110826476D01*
X129282380Y-110731238D01*
X129282380Y-110493142D01*
X129330000Y-110397904D01*
X129377619Y-110350285D01*
X129472857Y-110302666D01*
X129568095Y-110302666D01*
X129710952Y-110350285D01*
X130282380Y-110921714D01*
X130282380Y-110302666D01*
X129282380Y-109683619D02*
X129282380Y-109588380D01*
X129330000Y-109493142D01*
X129377619Y-109445523D01*
X129472857Y-109397904D01*
X129663333Y-109350285D01*
X129901428Y-109350285D01*
X130091904Y-109397904D01*
X130187142Y-109445523D01*
X130234761Y-109493142D01*
X130282380Y-109588380D01*
X130282380Y-109683619D01*
X130234761Y-109778857D01*
X130187142Y-109826476D01*
X130091904Y-109874095D01*
X129901428Y-109921714D01*
X129663333Y-109921714D01*
X129472857Y-109874095D01*
X129377619Y-109826476D01*
X129330000Y-109778857D01*
X129282380Y-109683619D01*
X130282380Y-108397904D02*
X130282380Y-108969333D01*
X130282380Y-108683619D02*
X129282380Y-108683619D01*
X129425238Y-108778857D01*
X129520476Y-108874095D01*
X129568095Y-108969333D01*
X129092952Y-102553142D02*
X129045333Y-102600761D01*
X128902476Y-102648380D01*
X128807238Y-102648380D01*
X128664380Y-102600761D01*
X128569142Y-102505523D01*
X128521523Y-102410285D01*
X128473904Y-102219809D01*
X128473904Y-102076952D01*
X128521523Y-101886476D01*
X128569142Y-101791238D01*
X128664380Y-101696000D01*
X128807238Y-101648380D01*
X128902476Y-101648380D01*
X129045333Y-101696000D01*
X129092952Y-101743619D01*
X129473904Y-101743619D02*
X129521523Y-101696000D01*
X129616761Y-101648380D01*
X129854857Y-101648380D01*
X129950095Y-101696000D01*
X129997714Y-101743619D01*
X130045333Y-101838857D01*
X130045333Y-101934095D01*
X129997714Y-102076952D01*
X129426285Y-102648380D01*
X130045333Y-102648380D01*
X130664380Y-101648380D02*
X130759619Y-101648380D01*
X130854857Y-101696000D01*
X130902476Y-101743619D01*
X130950095Y-101838857D01*
X130997714Y-102029333D01*
X130997714Y-102267428D01*
X130950095Y-102457904D01*
X130902476Y-102553142D01*
X130854857Y-102600761D01*
X130759619Y-102648380D01*
X130664380Y-102648380D01*
X130569142Y-102600761D01*
X130521523Y-102553142D01*
X130473904Y-102457904D01*
X130426285Y-102267428D01*
X130426285Y-102029333D01*
X130473904Y-101838857D01*
X130521523Y-101743619D01*
X130569142Y-101696000D01*
X130664380Y-101648380D01*
X131331047Y-101648380D02*
X131997714Y-101648380D01*
X131569142Y-102648380D01*
X133527142Y-102717047D02*
X133574761Y-102764666D01*
X133622380Y-102907523D01*
X133622380Y-103002761D01*
X133574761Y-103145619D01*
X133479523Y-103240857D01*
X133384285Y-103288476D01*
X133193809Y-103336095D01*
X133050952Y-103336095D01*
X132860476Y-103288476D01*
X132765238Y-103240857D01*
X132670000Y-103145619D01*
X132622380Y-103002761D01*
X132622380Y-102907523D01*
X132670000Y-102764666D01*
X132717619Y-102717047D01*
X132717619Y-102336095D02*
X132670000Y-102288476D01*
X132622380Y-102193238D01*
X132622380Y-101955142D01*
X132670000Y-101859904D01*
X132717619Y-101812285D01*
X132812857Y-101764666D01*
X132908095Y-101764666D01*
X133050952Y-101812285D01*
X133622380Y-102383714D01*
X133622380Y-101764666D01*
X132622380Y-101145619D02*
X132622380Y-101050380D01*
X132670000Y-100955142D01*
X132717619Y-100907523D01*
X132812857Y-100859904D01*
X133003333Y-100812285D01*
X133241428Y-100812285D01*
X133431904Y-100859904D01*
X133527142Y-100907523D01*
X133574761Y-100955142D01*
X133622380Y-101050380D01*
X133622380Y-101145619D01*
X133574761Y-101240857D01*
X133527142Y-101288476D01*
X133431904Y-101336095D01*
X133241428Y-101383714D01*
X133003333Y-101383714D01*
X132812857Y-101336095D01*
X132717619Y-101288476D01*
X132670000Y-101240857D01*
X132622380Y-101145619D01*
X132622380Y-99907523D02*
X132622380Y-100383714D01*
X133098571Y-100431333D01*
X133050952Y-100383714D01*
X133003333Y-100288476D01*
X133003333Y-100050380D01*
X133050952Y-99955142D01*
X133098571Y-99907523D01*
X133193809Y-99859904D01*
X133431904Y-99859904D01*
X133527142Y-99907523D01*
X133574761Y-99955142D01*
X133622380Y-100050380D01*
X133622380Y-100288476D01*
X133574761Y-100383714D01*
X133527142Y-100431333D01*
X128603142Y-105699047D02*
X128650761Y-105746666D01*
X128698380Y-105889523D01*
X128698380Y-105984761D01*
X128650761Y-106127619D01*
X128555523Y-106222857D01*
X128460285Y-106270476D01*
X128269809Y-106318095D01*
X128126952Y-106318095D01*
X127936476Y-106270476D01*
X127841238Y-106222857D01*
X127746000Y-106127619D01*
X127698380Y-105984761D01*
X127698380Y-105889523D01*
X127746000Y-105746666D01*
X127793619Y-105699047D01*
X127793619Y-105318095D02*
X127746000Y-105270476D01*
X127698380Y-105175238D01*
X127698380Y-104937142D01*
X127746000Y-104841904D01*
X127793619Y-104794285D01*
X127888857Y-104746666D01*
X127984095Y-104746666D01*
X128126952Y-104794285D01*
X128698380Y-105365714D01*
X128698380Y-104746666D01*
X127698380Y-104127619D02*
X127698380Y-104032380D01*
X127746000Y-103937142D01*
X127793619Y-103889523D01*
X127888857Y-103841904D01*
X128079333Y-103794285D01*
X128317428Y-103794285D01*
X128507904Y-103841904D01*
X128603142Y-103889523D01*
X128650761Y-103937142D01*
X128698380Y-104032380D01*
X128698380Y-104127619D01*
X128650761Y-104222857D01*
X128603142Y-104270476D01*
X128507904Y-104318095D01*
X128317428Y-104365714D01*
X128079333Y-104365714D01*
X127888857Y-104318095D01*
X127793619Y-104270476D01*
X127746000Y-104222857D01*
X127698380Y-104127619D01*
X127698380Y-103460952D02*
X127698380Y-102841904D01*
X128079333Y-103175238D01*
X128079333Y-103032380D01*
X128126952Y-102937142D01*
X128174571Y-102889523D01*
X128269809Y-102841904D01*
X128507904Y-102841904D01*
X128603142Y-102889523D01*
X128650761Y-102937142D01*
X128698380Y-103032380D01*
X128698380Y-103318095D01*
X128650761Y-103413333D01*
X128603142Y-103460952D01*
M02*
