G04 #@! TF.GenerationSoftware,KiCad,Pcbnew,(5.1.10-1-10_14)*
G04 #@! TF.CreationDate,2022-01-11T16:09:18-08:00*
G04 #@! TF.ProjectId,CI_ComPCB,43495f43-6f6d-4504-9342-2e6b69636164,rev?*
G04 #@! TF.SameCoordinates,Original*
G04 #@! TF.FileFunction,Legend,Top*
G04 #@! TF.FilePolarity,Positive*
%FSLAX46Y46*%
G04 Gerber Fmt 4.6, Leading zero omitted, Abs format (unit mm)*
G04 Created by KiCad (PCBNEW (5.1.10-1-10_14)) date 2022-01-11 16:09:18*
%MOMM*%
%LPD*%
G01*
G04 APERTURE LIST*
%ADD10C,0.150000*%
%ADD11C,0.120000*%
%ADD12C,0.200000*%
%ADD13C,0.100000*%
%ADD14C,0.254000*%
G04 APERTURE END LIST*
D10*
X111990095Y-119066000D02*
X111894857Y-119018380D01*
X111752000Y-119018380D01*
X111609142Y-119066000D01*
X111513904Y-119161238D01*
X111466285Y-119256476D01*
X111418666Y-119446952D01*
X111418666Y-119589809D01*
X111466285Y-119780285D01*
X111513904Y-119875523D01*
X111609142Y-119970761D01*
X111752000Y-120018380D01*
X111847238Y-120018380D01*
X111990095Y-119970761D01*
X112037714Y-119923142D01*
X112037714Y-119589809D01*
X111847238Y-119589809D01*
X112466285Y-120018380D02*
X112466285Y-119018380D01*
X113037714Y-120018380D01*
X113037714Y-119018380D01*
X113513904Y-120018380D02*
X113513904Y-119018380D01*
X113752000Y-119018380D01*
X113894857Y-119066000D01*
X113990095Y-119161238D01*
X114037714Y-119256476D01*
X114085333Y-119446952D01*
X114085333Y-119589809D01*
X114037714Y-119780285D01*
X113990095Y-119875523D01*
X113894857Y-119970761D01*
X113752000Y-120018380D01*
X113513904Y-120018380D01*
X101186619Y-100326380D02*
X102186619Y-100326380D01*
X101853285Y-100802571D02*
X101186619Y-100802571D01*
X101758047Y-100802571D02*
X101805666Y-100850190D01*
X101853285Y-100945428D01*
X101853285Y-101088285D01*
X101805666Y-101183523D01*
X101710428Y-101231142D01*
X101186619Y-101231142D01*
X101853285Y-101707333D02*
X101186619Y-101707333D01*
X101758047Y-101707333D02*
X101805666Y-101754952D01*
X101853285Y-101850190D01*
X101853285Y-101993047D01*
X101805666Y-102088285D01*
X101710428Y-102135904D01*
X101186619Y-102135904D01*
X101186619Y-102754952D02*
X101234238Y-102659714D01*
X101281857Y-102612095D01*
X101377095Y-102564476D01*
X101662809Y-102564476D01*
X101758047Y-102612095D01*
X101805666Y-102659714D01*
X101853285Y-102754952D01*
X101853285Y-102897809D01*
X101805666Y-102993047D01*
X101758047Y-103040666D01*
X101662809Y-103088285D01*
X101377095Y-103088285D01*
X101281857Y-103040666D01*
X101234238Y-102993047D01*
X101186619Y-102897809D01*
X101186619Y-102754952D01*
X101853285Y-103421619D02*
X101186619Y-103659714D01*
X101853285Y-103897809D01*
X101186619Y-104278761D02*
X101853285Y-104278761D01*
X102186619Y-104278761D02*
X102139000Y-104231142D01*
X102091380Y-104278761D01*
X102139000Y-104326380D01*
X102186619Y-104278761D01*
X102091380Y-104278761D01*
X101853285Y-104659714D02*
X101186619Y-104897809D01*
X101853285Y-105135904D01*
X101234238Y-105897809D02*
X101186619Y-105802571D01*
X101186619Y-105612095D01*
X101234238Y-105516857D01*
X101329476Y-105469238D01*
X101710428Y-105469238D01*
X101805666Y-105516857D01*
X101853285Y-105612095D01*
X101853285Y-105802571D01*
X101805666Y-105897809D01*
X101710428Y-105945428D01*
X101615190Y-105945428D01*
X101519952Y-105469238D01*
X101186619Y-107135904D02*
X102186619Y-107135904D01*
X102186619Y-107516857D01*
X102139000Y-107612095D01*
X102091380Y-107659714D01*
X101996142Y-107707333D01*
X101853285Y-107707333D01*
X101758047Y-107659714D01*
X101710428Y-107612095D01*
X101662809Y-107516857D01*
X101662809Y-107135904D01*
X101186619Y-108135904D02*
X101853285Y-108135904D01*
X101662809Y-108135904D02*
X101758047Y-108183523D01*
X101805666Y-108231142D01*
X101853285Y-108326380D01*
X101853285Y-108421619D01*
X101186619Y-108897809D02*
X101234238Y-108802571D01*
X101281857Y-108754952D01*
X101377095Y-108707333D01*
X101662809Y-108707333D01*
X101758047Y-108754952D01*
X101805666Y-108802571D01*
X101853285Y-108897809D01*
X101853285Y-109040666D01*
X101805666Y-109135904D01*
X101758047Y-109183523D01*
X101662809Y-109231142D01*
X101377095Y-109231142D01*
X101281857Y-109183523D01*
X101234238Y-109135904D01*
X101186619Y-109040666D01*
X101186619Y-108897809D01*
X101853285Y-110088285D02*
X101043761Y-110088285D01*
X100948523Y-110040666D01*
X100900904Y-109993047D01*
X100853285Y-109897809D01*
X100853285Y-109754952D01*
X100900904Y-109659714D01*
X101234238Y-110088285D02*
X101186619Y-109993047D01*
X101186619Y-109802571D01*
X101234238Y-109707333D01*
X101281857Y-109659714D01*
X101377095Y-109612095D01*
X101662809Y-109612095D01*
X101758047Y-109659714D01*
X101805666Y-109707333D01*
X101853285Y-109802571D01*
X101853285Y-109993047D01*
X101805666Y-110088285D01*
X101186619Y-110564476D02*
X101853285Y-110564476D01*
X101662809Y-110564476D02*
X101758047Y-110612095D01*
X101805666Y-110659714D01*
X101853285Y-110754952D01*
X101853285Y-110850190D01*
X101186619Y-111612095D02*
X101710428Y-111612095D01*
X101805666Y-111564476D01*
X101853285Y-111469238D01*
X101853285Y-111278761D01*
X101805666Y-111183523D01*
X101234238Y-111612095D02*
X101186619Y-111516857D01*
X101186619Y-111278761D01*
X101234238Y-111183523D01*
X101329476Y-111135904D01*
X101424714Y-111135904D01*
X101519952Y-111183523D01*
X101567571Y-111278761D01*
X101567571Y-111516857D01*
X101615190Y-111612095D01*
X101186619Y-112088285D02*
X101853285Y-112088285D01*
X101758047Y-112088285D02*
X101805666Y-112135904D01*
X101853285Y-112231142D01*
X101853285Y-112374000D01*
X101805666Y-112469238D01*
X101710428Y-112516857D01*
X101186619Y-112516857D01*
X101710428Y-112516857D02*
X101805666Y-112564476D01*
X101853285Y-112659714D01*
X101853285Y-112802571D01*
X101805666Y-112897809D01*
X101710428Y-112945428D01*
X101186619Y-112945428D01*
X101234238Y-113802571D02*
X101186619Y-113707333D01*
X101186619Y-113516857D01*
X101234238Y-113421619D01*
X101329476Y-113374000D01*
X101710428Y-113374000D01*
X101805666Y-113421619D01*
X101853285Y-113516857D01*
X101853285Y-113707333D01*
X101805666Y-113802571D01*
X101710428Y-113850190D01*
X101615190Y-113850190D01*
X101519952Y-113374000D01*
X101186619Y-114278761D02*
X101853285Y-114278761D01*
X101662809Y-114278761D02*
X101758047Y-114326380D01*
X101805666Y-114374000D01*
X101853285Y-114469238D01*
X101853285Y-114564476D01*
X100536619Y-101040666D02*
X99536619Y-101374000D01*
X100536619Y-101707333D01*
X99536619Y-102564476D02*
X99536619Y-101993047D01*
X99536619Y-102278761D02*
X100536619Y-102278761D01*
X100393761Y-102183523D01*
X100298523Y-102088285D01*
X100250904Y-101993047D01*
X99631857Y-102993047D02*
X99584238Y-103040666D01*
X99536619Y-102993047D01*
X99584238Y-102945428D01*
X99631857Y-102993047D01*
X99536619Y-102993047D01*
X100441380Y-103421619D02*
X100489000Y-103469238D01*
X100536619Y-103564476D01*
X100536619Y-103802571D01*
X100489000Y-103897809D01*
X100441380Y-103945428D01*
X100346142Y-103993047D01*
X100250904Y-103993047D01*
X100108047Y-103945428D01*
X99536619Y-103374000D01*
X99536619Y-103993047D01*
X99536619Y-104421619D02*
X100536619Y-104421619D01*
X100155666Y-104421619D02*
X100203285Y-104516857D01*
X100203285Y-104707333D01*
X100155666Y-104802571D01*
X100108047Y-104850190D01*
X100012809Y-104897809D01*
X99727095Y-104897809D01*
X99631857Y-104850190D01*
X99584238Y-104802571D01*
X99536619Y-104707333D01*
X99536619Y-104516857D01*
X99584238Y-104421619D01*
X99441380Y-105088285D02*
X99441380Y-105850190D01*
X100203285Y-106088285D02*
X99203285Y-106088285D01*
X100155666Y-106088285D02*
X100203285Y-106183523D01*
X100203285Y-106374000D01*
X100155666Y-106469238D01*
X100108047Y-106516857D01*
X100012809Y-106564476D01*
X99727095Y-106564476D01*
X99631857Y-106516857D01*
X99584238Y-106469238D01*
X99536619Y-106374000D01*
X99536619Y-106183523D01*
X99584238Y-106088285D01*
X99536619Y-106993047D02*
X100203285Y-106993047D01*
X100012809Y-106993047D02*
X100108047Y-107040666D01*
X100155666Y-107088285D01*
X100203285Y-107183523D01*
X100203285Y-107278761D01*
X99536619Y-107754952D02*
X99584238Y-107659714D01*
X99631857Y-107612095D01*
X99727095Y-107564476D01*
X100012809Y-107564476D01*
X100108047Y-107612095D01*
X100155666Y-107659714D01*
X100203285Y-107754952D01*
X100203285Y-107897809D01*
X100155666Y-107993047D01*
X100108047Y-108040666D01*
X100012809Y-108088285D01*
X99727095Y-108088285D01*
X99631857Y-108040666D01*
X99584238Y-107993047D01*
X99536619Y-107897809D01*
X99536619Y-107754952D01*
X99536619Y-108945428D02*
X100536619Y-108945428D01*
X99584238Y-108945428D02*
X99536619Y-108850190D01*
X99536619Y-108659714D01*
X99584238Y-108564476D01*
X99631857Y-108516857D01*
X99727095Y-108469238D01*
X100012809Y-108469238D01*
X100108047Y-108516857D01*
X100155666Y-108564476D01*
X100203285Y-108659714D01*
X100203285Y-108850190D01*
X100155666Y-108945428D01*
X100203285Y-109850190D02*
X99536619Y-109850190D01*
X100203285Y-109421619D02*
X99679476Y-109421619D01*
X99584238Y-109469238D01*
X99536619Y-109564476D01*
X99536619Y-109707333D01*
X99584238Y-109802571D01*
X99631857Y-109850190D01*
X99584238Y-110754952D02*
X99536619Y-110659714D01*
X99536619Y-110469238D01*
X99584238Y-110374000D01*
X99631857Y-110326380D01*
X99727095Y-110278761D01*
X100012809Y-110278761D01*
X100108047Y-110326380D01*
X100155666Y-110374000D01*
X100203285Y-110469238D01*
X100203285Y-110659714D01*
X100155666Y-110754952D01*
X100203285Y-111040666D02*
X100203285Y-111421619D01*
X100536619Y-111183523D02*
X99679476Y-111183523D01*
X99584238Y-111231142D01*
X99536619Y-111326380D01*
X99536619Y-111421619D01*
X99536619Y-111754952D02*
X100203285Y-111754952D01*
X100536619Y-111754952D02*
X100489000Y-111707333D01*
X100441380Y-111754952D01*
X100489000Y-111802571D01*
X100536619Y-111754952D01*
X100441380Y-111754952D01*
X99536619Y-112374000D02*
X99584238Y-112278761D01*
X99631857Y-112231142D01*
X99727095Y-112183523D01*
X100012809Y-112183523D01*
X100108047Y-112231142D01*
X100155666Y-112278761D01*
X100203285Y-112374000D01*
X100203285Y-112516857D01*
X100155666Y-112612095D01*
X100108047Y-112659714D01*
X100012809Y-112707333D01*
X99727095Y-112707333D01*
X99631857Y-112659714D01*
X99584238Y-112612095D01*
X99536619Y-112516857D01*
X99536619Y-112374000D01*
X100203285Y-113135904D02*
X99536619Y-113135904D01*
X100108047Y-113135904D02*
X100155666Y-113183523D01*
X100203285Y-113278761D01*
X100203285Y-113421619D01*
X100155666Y-113516857D01*
X100060428Y-113564476D01*
X99536619Y-113564476D01*
X128268095Y-95020000D02*
X128172857Y-94972380D01*
X128030000Y-94972380D01*
X127887142Y-95020000D01*
X127791904Y-95115238D01*
X127744285Y-95210476D01*
X127696666Y-95400952D01*
X127696666Y-95543809D01*
X127744285Y-95734285D01*
X127791904Y-95829523D01*
X127887142Y-95924761D01*
X128030000Y-95972380D01*
X128125238Y-95972380D01*
X128268095Y-95924761D01*
X128315714Y-95877142D01*
X128315714Y-95543809D01*
X128125238Y-95543809D01*
X128744285Y-95972380D02*
X128744285Y-94972380D01*
X129315714Y-95972380D01*
X129315714Y-94972380D01*
X129791904Y-95972380D02*
X129791904Y-94972380D01*
X130030000Y-94972380D01*
X130172857Y-95020000D01*
X130268095Y-95115238D01*
X130315714Y-95210476D01*
X130363333Y-95400952D01*
X130363333Y-95543809D01*
X130315714Y-95734285D01*
X130268095Y-95829523D01*
X130172857Y-95924761D01*
X130030000Y-95972380D01*
X129791904Y-95972380D01*
X135266190Y-102802380D02*
X135599523Y-103802380D01*
X135932857Y-102802380D01*
X136266190Y-103802380D02*
X136266190Y-103135714D01*
X136266190Y-102802380D02*
X136218571Y-102850000D01*
X136266190Y-102897619D01*
X136313809Y-102850000D01*
X136266190Y-102802380D01*
X136266190Y-102897619D01*
X136742380Y-103135714D02*
X136742380Y-103802380D01*
X136742380Y-103230952D02*
X136790000Y-103183333D01*
X136885238Y-103135714D01*
X137028095Y-103135714D01*
X137123333Y-103183333D01*
X137170952Y-103278571D01*
X137170952Y-103802380D01*
X121866190Y-103237380D02*
X122199523Y-104237380D01*
X122532857Y-103237380D01*
X123009047Y-104237380D02*
X122913809Y-104189761D01*
X122866190Y-104142142D01*
X122818571Y-104046904D01*
X122818571Y-103761190D01*
X122866190Y-103665952D01*
X122913809Y-103618333D01*
X123009047Y-103570714D01*
X123151904Y-103570714D01*
X123247142Y-103618333D01*
X123294761Y-103665952D01*
X123342380Y-103761190D01*
X123342380Y-104046904D01*
X123294761Y-104142142D01*
X123247142Y-104189761D01*
X123151904Y-104237380D01*
X123009047Y-104237380D01*
X124199523Y-103570714D02*
X124199523Y-104237380D01*
X123770952Y-103570714D02*
X123770952Y-104094523D01*
X123818571Y-104189761D01*
X123913809Y-104237380D01*
X124056666Y-104237380D01*
X124151904Y-104189761D01*
X124199523Y-104142142D01*
X124532857Y-103570714D02*
X124913809Y-103570714D01*
X124675714Y-103237380D02*
X124675714Y-104094523D01*
X124723333Y-104189761D01*
X124818571Y-104237380D01*
X124913809Y-104237380D01*
X122080476Y-105887380D02*
X122080476Y-104887380D01*
X122318571Y-104887380D01*
X122461428Y-104935000D01*
X122556666Y-105030238D01*
X122604285Y-105125476D01*
X122651904Y-105315952D01*
X122651904Y-105458809D01*
X122604285Y-105649285D01*
X122556666Y-105744523D01*
X122461428Y-105839761D01*
X122318571Y-105887380D01*
X122080476Y-105887380D01*
X123080476Y-105887380D02*
X123080476Y-105220714D01*
X123080476Y-104887380D02*
X123032857Y-104935000D01*
X123080476Y-104982619D01*
X123128095Y-104935000D01*
X123080476Y-104887380D01*
X123080476Y-104982619D01*
X123509047Y-105839761D02*
X123604285Y-105887380D01*
X123794761Y-105887380D01*
X123890000Y-105839761D01*
X123937619Y-105744523D01*
X123937619Y-105696904D01*
X123890000Y-105601666D01*
X123794761Y-105554047D01*
X123651904Y-105554047D01*
X123556666Y-105506428D01*
X123509047Y-105411190D01*
X123509047Y-105363571D01*
X123556666Y-105268333D01*
X123651904Y-105220714D01*
X123794761Y-105220714D01*
X123890000Y-105268333D01*
X124318571Y-105839761D02*
X124413809Y-105887380D01*
X124604285Y-105887380D01*
X124699523Y-105839761D01*
X124747142Y-105744523D01*
X124747142Y-105696904D01*
X124699523Y-105601666D01*
X124604285Y-105554047D01*
X124461428Y-105554047D01*
X124366190Y-105506428D01*
X124318571Y-105411190D01*
X124318571Y-105363571D01*
X124366190Y-105268333D01*
X124461428Y-105220714D01*
X124604285Y-105220714D01*
X124699523Y-105268333D01*
D11*
X144015000Y-64210000D02*
X160745000Y-64210000D01*
X144015000Y-64210000D02*
X144015000Y-71820000D01*
X160745000Y-64210000D02*
X160745000Y-71820000D01*
X144015000Y-80180000D02*
X160745000Y-80180000D01*
X144015000Y-80180000D02*
X144015000Y-74620000D01*
X160745000Y-80180000D02*
X160745000Y-74620000D01*
X143820000Y-71620000D02*
X143320000Y-72120000D01*
X143320000Y-72120000D02*
X143320000Y-71120000D01*
X143320000Y-71120000D02*
X143820000Y-71620000D01*
X141300000Y-87606000D02*
X141300000Y-126606000D01*
X141300000Y-126606000D02*
X143800000Y-126606000D01*
X143800000Y-87606000D02*
X141300000Y-87606000D01*
X115800000Y-87606000D02*
X118300000Y-87606000D01*
X118300000Y-87606000D02*
X118300000Y-126606000D01*
X118300000Y-126606000D02*
X115800000Y-126606000D01*
X115800000Y-82606000D02*
X143800000Y-82606000D01*
X143800000Y-134606000D02*
X143800000Y-82606000D01*
X115800000Y-82606000D02*
X115800000Y-134606000D01*
X115800000Y-134606000D02*
X143800000Y-134606000D01*
X141681000Y-73819064D02*
X141681000Y-73364936D01*
X140211000Y-73819064D02*
X140211000Y-73364936D01*
X112184000Y-121792000D02*
X113514000Y-121792000D01*
X112184000Y-123122000D02*
X112184000Y-121792000D01*
X112184000Y-124392000D02*
X114844000Y-124392000D01*
X114844000Y-124392000D02*
X114844000Y-124452000D01*
X112184000Y-124392000D02*
X112184000Y-124452000D01*
X112184000Y-124452000D02*
X114844000Y-124452000D01*
X164120000Y-127948000D02*
X164120000Y-84948000D01*
X148820000Y-127948000D02*
X164120000Y-127948000D01*
X148820000Y-84948000D02*
X148820000Y-127948000D01*
X148820000Y-114948000D02*
X148820000Y-113948000D01*
X148820000Y-84948000D02*
X164120000Y-84948000D01*
X139170000Y-91700580D02*
X139170000Y-91419420D01*
X138150000Y-91700580D02*
X138150000Y-91419420D01*
X127678000Y-100576000D02*
X130338000Y-100576000D01*
X127678000Y-100516000D02*
X127678000Y-100576000D01*
X130338000Y-100516000D02*
X130338000Y-100576000D01*
X127678000Y-100516000D02*
X130338000Y-100516000D01*
X127678000Y-99246000D02*
X127678000Y-97916000D01*
X127678000Y-97916000D02*
X129008000Y-97916000D01*
X130759064Y-75089000D02*
X130304936Y-75089000D01*
X130759064Y-73619000D02*
X130304936Y-73619000D01*
X135839000Y-77071436D02*
X135839000Y-77525564D01*
X134369000Y-77071436D02*
X134369000Y-77525564D01*
X130655064Y-78645000D02*
X130200936Y-78645000D01*
X130655064Y-77175000D02*
X130200936Y-77175000D01*
D12*
X113752000Y-86192000D02*
X126552000Y-86192000D01*
X126552000Y-73692000D02*
X113752000Y-73692000D01*
D11*
X134402000Y-104640000D02*
X134402000Y-101980000D01*
X134342000Y-104640000D02*
X134402000Y-104640000D01*
X134342000Y-101980000D02*
X134402000Y-101980000D01*
X134342000Y-104640000D02*
X134342000Y-101980000D01*
X133072000Y-104640000D02*
X131742000Y-104640000D01*
X131742000Y-104640000D02*
X131742000Y-103310000D01*
D12*
X132146000Y-92210000D02*
X132146000Y-89010000D01*
X132146000Y-89010000D02*
X137046000Y-89010000D01*
X137046000Y-89010000D02*
X137046000Y-92210000D01*
X137046000Y-92210000D02*
X132146000Y-92210000D01*
X132016000Y-94060000D02*
X132016000Y-92560000D01*
D13*
X124828180Y-97335920D02*
X124828180Y-97795660D01*
X124828180Y-97795660D02*
X124751980Y-97795660D01*
X124751980Y-97795660D02*
X124751980Y-97335920D01*
X124751980Y-97335920D02*
X124828180Y-97335920D01*
X124828180Y-100137540D02*
X124828180Y-99672720D01*
X124828180Y-99672720D02*
X124751980Y-99672720D01*
X124751980Y-99672720D02*
X124751980Y-100137540D01*
X124751980Y-100137540D02*
X124828180Y-100137540D01*
X121138000Y-97338000D02*
X121538000Y-97338000D01*
X121138000Y-97338000D02*
X121138000Y-97738000D01*
X125638000Y-97338000D02*
X125238000Y-97338000D01*
X125638000Y-97338000D02*
X125638000Y-97738000D01*
X125638000Y-100138000D02*
X125638000Y-99738000D01*
X125638000Y-100138000D02*
X125238000Y-100138000D01*
X121138000Y-100138000D02*
X121538000Y-100138000D01*
X121138000Y-100138000D02*
X121138000Y-99738000D01*
X126081920Y-89645820D02*
X126541660Y-89645820D01*
X126541660Y-89645820D02*
X126541660Y-89722020D01*
X126541660Y-89722020D02*
X126081920Y-89722020D01*
X126081920Y-89722020D02*
X126081920Y-89645820D01*
X128883540Y-89645820D02*
X128418720Y-89645820D01*
X128418720Y-89645820D02*
X128418720Y-89722020D01*
X128418720Y-89722020D02*
X128883540Y-89722020D01*
X128883540Y-89722020D02*
X128883540Y-89645820D01*
X126084000Y-93336000D02*
X126084000Y-92936000D01*
X126084000Y-93336000D02*
X126484000Y-93336000D01*
X126084000Y-88836000D02*
X126084000Y-89236000D01*
X126084000Y-88836000D02*
X126484000Y-88836000D01*
X128884000Y-88836000D02*
X128484000Y-88836000D01*
X128884000Y-88836000D02*
X128884000Y-89236000D01*
X128884000Y-93336000D02*
X128884000Y-92936000D01*
X128884000Y-93336000D02*
X128484000Y-93336000D01*
D11*
X121060748Y-88859000D02*
X121583252Y-88859000D01*
X121060748Y-90329000D02*
X121583252Y-90329000D01*
X130727252Y-82201000D02*
X130204748Y-82201000D01*
X130727252Y-80731000D02*
X130204748Y-80731000D01*
X121060748Y-93431000D02*
X121583252Y-93431000D01*
X121060748Y-94901000D02*
X121583252Y-94901000D01*
X134369000Y-82743252D02*
X134369000Y-82220748D01*
X135839000Y-82743252D02*
X135839000Y-82220748D01*
X131267000Y-85710748D02*
X131267000Y-86233252D01*
X129797000Y-85710748D02*
X129797000Y-86233252D01*
X133215252Y-100547000D02*
X132692748Y-100547000D01*
X133215252Y-99077000D02*
X132692748Y-99077000D01*
X133215252Y-97537000D02*
X132692748Y-97537000D01*
X133215252Y-96067000D02*
X132692748Y-96067000D01*
D10*
X151094285Y-62272380D02*
X151094285Y-62986666D01*
X151046666Y-63129523D01*
X150951428Y-63224761D01*
X150808571Y-63272380D01*
X150713333Y-63272380D01*
X151475238Y-62272380D02*
X152094285Y-62272380D01*
X151760952Y-62653333D01*
X151903809Y-62653333D01*
X151999047Y-62700952D01*
X152046666Y-62748571D01*
X152094285Y-62843809D01*
X152094285Y-63081904D01*
X152046666Y-63177142D01*
X151999047Y-63224761D01*
X151903809Y-63272380D01*
X151618095Y-63272380D01*
X151522857Y-63224761D01*
X151475238Y-63177142D01*
X152713333Y-62272380D02*
X152808571Y-62272380D01*
X152903809Y-62320000D01*
X152951428Y-62367619D01*
X152999047Y-62462857D01*
X153046666Y-62653333D01*
X153046666Y-62891428D01*
X152999047Y-63081904D01*
X152951428Y-63177142D01*
X152903809Y-63224761D01*
X152808571Y-63272380D01*
X152713333Y-63272380D01*
X152618095Y-63224761D01*
X152570476Y-63177142D01*
X152522857Y-63081904D01*
X152475238Y-62891428D01*
X152475238Y-62653333D01*
X152522857Y-62462857D01*
X152570476Y-62367619D01*
X152618095Y-62320000D01*
X152713333Y-62272380D01*
X153999047Y-63272380D02*
X153427619Y-63272380D01*
X153713333Y-63272380D02*
X153713333Y-62272380D01*
X153618095Y-62415238D01*
X153522857Y-62510476D01*
X153427619Y-62558095D01*
X103925714Y-121502380D02*
X103925714Y-120502380D01*
X103925714Y-120978571D02*
X104497142Y-120978571D01*
X104497142Y-121502380D02*
X104497142Y-120502380D01*
X105497142Y-121502380D02*
X104925714Y-121502380D01*
X105211428Y-121502380D02*
X105211428Y-120502380D01*
X105116190Y-120645238D01*
X105020952Y-120740476D01*
X104925714Y-120788095D01*
X106116190Y-120502380D02*
X106211428Y-120502380D01*
X106306666Y-120550000D01*
X106354285Y-120597619D01*
X106401904Y-120692857D01*
X106449523Y-120883333D01*
X106449523Y-121121428D01*
X106401904Y-121311904D01*
X106354285Y-121407142D01*
X106306666Y-121454761D01*
X106211428Y-121502380D01*
X106116190Y-121502380D01*
X106020952Y-121454761D01*
X105973333Y-121407142D01*
X105925714Y-121311904D01*
X105878095Y-121121428D01*
X105878095Y-120883333D01*
X105925714Y-120692857D01*
X105973333Y-120597619D01*
X106020952Y-120550000D01*
X106116190Y-120502380D01*
X107306666Y-120835714D02*
X107306666Y-121502380D01*
X107068571Y-120454761D02*
X106830476Y-121169047D01*
X107449523Y-121169047D01*
X103925714Y-70702380D02*
X103925714Y-69702380D01*
X103925714Y-70178571D02*
X104497142Y-70178571D01*
X104497142Y-70702380D02*
X104497142Y-69702380D01*
X105497142Y-70702380D02*
X104925714Y-70702380D01*
X105211428Y-70702380D02*
X105211428Y-69702380D01*
X105116190Y-69845238D01*
X105020952Y-69940476D01*
X104925714Y-69988095D01*
X106116190Y-69702380D02*
X106211428Y-69702380D01*
X106306666Y-69750000D01*
X106354285Y-69797619D01*
X106401904Y-69892857D01*
X106449523Y-70083333D01*
X106449523Y-70321428D01*
X106401904Y-70511904D01*
X106354285Y-70607142D01*
X106306666Y-70654761D01*
X106211428Y-70702380D01*
X106116190Y-70702380D01*
X106020952Y-70654761D01*
X105973333Y-70607142D01*
X105925714Y-70511904D01*
X105878095Y-70321428D01*
X105878095Y-70083333D01*
X105925714Y-69892857D01*
X105973333Y-69797619D01*
X106020952Y-69750000D01*
X106116190Y-69702380D01*
X106782857Y-69702380D02*
X107401904Y-69702380D01*
X107068571Y-70083333D01*
X107211428Y-70083333D01*
X107306666Y-70130952D01*
X107354285Y-70178571D01*
X107401904Y-70273809D01*
X107401904Y-70511904D01*
X107354285Y-70607142D01*
X107306666Y-70654761D01*
X107211428Y-70702380D01*
X106925714Y-70702380D01*
X106830476Y-70654761D01*
X106782857Y-70607142D01*
X167425714Y-121502380D02*
X167425714Y-120502380D01*
X167425714Y-120978571D02*
X167997142Y-120978571D01*
X167997142Y-121502380D02*
X167997142Y-120502380D01*
X168997142Y-121502380D02*
X168425714Y-121502380D01*
X168711428Y-121502380D02*
X168711428Y-120502380D01*
X168616190Y-120645238D01*
X168520952Y-120740476D01*
X168425714Y-120788095D01*
X169616190Y-120502380D02*
X169711428Y-120502380D01*
X169806666Y-120550000D01*
X169854285Y-120597619D01*
X169901904Y-120692857D01*
X169949523Y-120883333D01*
X169949523Y-121121428D01*
X169901904Y-121311904D01*
X169854285Y-121407142D01*
X169806666Y-121454761D01*
X169711428Y-121502380D01*
X169616190Y-121502380D01*
X169520952Y-121454761D01*
X169473333Y-121407142D01*
X169425714Y-121311904D01*
X169378095Y-121121428D01*
X169378095Y-120883333D01*
X169425714Y-120692857D01*
X169473333Y-120597619D01*
X169520952Y-120550000D01*
X169616190Y-120502380D01*
X170330476Y-120597619D02*
X170378095Y-120550000D01*
X170473333Y-120502380D01*
X170711428Y-120502380D01*
X170806666Y-120550000D01*
X170854285Y-120597619D01*
X170901904Y-120692857D01*
X170901904Y-120788095D01*
X170854285Y-120930952D01*
X170282857Y-121502380D01*
X170901904Y-121502380D01*
X167425714Y-70702380D02*
X167425714Y-69702380D01*
X167425714Y-70178571D02*
X167997142Y-70178571D01*
X167997142Y-70702380D02*
X167997142Y-69702380D01*
X168997142Y-70702380D02*
X168425714Y-70702380D01*
X168711428Y-70702380D02*
X168711428Y-69702380D01*
X168616190Y-69845238D01*
X168520952Y-69940476D01*
X168425714Y-69988095D01*
X169616190Y-69702380D02*
X169711428Y-69702380D01*
X169806666Y-69750000D01*
X169854285Y-69797619D01*
X169901904Y-69892857D01*
X169949523Y-70083333D01*
X169949523Y-70321428D01*
X169901904Y-70511904D01*
X169854285Y-70607142D01*
X169806666Y-70654761D01*
X169711428Y-70702380D01*
X169616190Y-70702380D01*
X169520952Y-70654761D01*
X169473333Y-70607142D01*
X169425714Y-70511904D01*
X169378095Y-70321428D01*
X169378095Y-70083333D01*
X169425714Y-69892857D01*
X169473333Y-69797619D01*
X169520952Y-69750000D01*
X169616190Y-69702380D01*
X170901904Y-70702380D02*
X170330476Y-70702380D01*
X170616190Y-70702380D02*
X170616190Y-69702380D01*
X170520952Y-69845238D01*
X170425714Y-69940476D01*
X170330476Y-69988095D01*
X128335714Y-126358380D02*
X128335714Y-127167904D01*
X128383333Y-127263142D01*
X128430952Y-127310761D01*
X128526190Y-127358380D01*
X128716666Y-127358380D01*
X128811904Y-127310761D01*
X128859523Y-127263142D01*
X128907142Y-127167904D01*
X128907142Y-126358380D01*
X129907142Y-127358380D02*
X129335714Y-127358380D01*
X129621428Y-127358380D02*
X129621428Y-126358380D01*
X129526190Y-126501238D01*
X129430952Y-126596476D01*
X129335714Y-126644095D01*
X130526190Y-126358380D02*
X130621428Y-126358380D01*
X130716666Y-126406000D01*
X130764285Y-126453619D01*
X130811904Y-126548857D01*
X130859523Y-126739333D01*
X130859523Y-126977428D01*
X130811904Y-127167904D01*
X130764285Y-127263142D01*
X130716666Y-127310761D01*
X130621428Y-127358380D01*
X130526190Y-127358380D01*
X130430952Y-127310761D01*
X130383333Y-127263142D01*
X130335714Y-127167904D01*
X130288095Y-126977428D01*
X130288095Y-126739333D01*
X130335714Y-126548857D01*
X130383333Y-126453619D01*
X130430952Y-126406000D01*
X130526190Y-126358380D01*
X131811904Y-127358380D02*
X131240476Y-127358380D01*
X131526190Y-127358380D02*
X131526190Y-126358380D01*
X131430952Y-126501238D01*
X131335714Y-126596476D01*
X131240476Y-126644095D01*
X139748380Y-74711047D02*
X139272190Y-75044380D01*
X139748380Y-75282476D02*
X138748380Y-75282476D01*
X138748380Y-74901523D01*
X138796000Y-74806285D01*
X138843619Y-74758666D01*
X138938857Y-74711047D01*
X139081714Y-74711047D01*
X139176952Y-74758666D01*
X139224571Y-74806285D01*
X139272190Y-74901523D01*
X139272190Y-75282476D01*
X138748380Y-74377714D02*
X138748380Y-73758666D01*
X139129333Y-74092000D01*
X139129333Y-73949142D01*
X139176952Y-73853904D01*
X139224571Y-73806285D01*
X139319809Y-73758666D01*
X139557904Y-73758666D01*
X139653142Y-73806285D01*
X139700761Y-73853904D01*
X139748380Y-73949142D01*
X139748380Y-74234857D01*
X139700761Y-74330095D01*
X139653142Y-74377714D01*
X138748380Y-73139619D02*
X138748380Y-73044380D01*
X138796000Y-72949142D01*
X138843619Y-72901523D01*
X138938857Y-72853904D01*
X139129333Y-72806285D01*
X139367428Y-72806285D01*
X139557904Y-72853904D01*
X139653142Y-72901523D01*
X139700761Y-72949142D01*
X139748380Y-73044380D01*
X139748380Y-73139619D01*
X139700761Y-73234857D01*
X139653142Y-73282476D01*
X139557904Y-73330095D01*
X139367428Y-73377714D01*
X139129333Y-73377714D01*
X138938857Y-73330095D01*
X138843619Y-73282476D01*
X138796000Y-73234857D01*
X138748380Y-73139619D01*
X139748380Y-71853904D02*
X139748380Y-72425333D01*
X139748380Y-72139619D02*
X138748380Y-72139619D01*
X138891238Y-72234857D01*
X138986476Y-72330095D01*
X139034095Y-72425333D01*
X112228285Y-120244380D02*
X112228285Y-120958666D01*
X112180666Y-121101523D01*
X112085428Y-121196761D01*
X111942571Y-121244380D01*
X111847333Y-121244380D01*
X113228285Y-121244380D02*
X112656857Y-121244380D01*
X112942571Y-121244380D02*
X112942571Y-120244380D01*
X112847333Y-120387238D01*
X112752095Y-120482476D01*
X112656857Y-120530095D01*
X113847333Y-120244380D02*
X113942571Y-120244380D01*
X114037809Y-120292000D01*
X114085428Y-120339619D01*
X114133047Y-120434857D01*
X114180666Y-120625333D01*
X114180666Y-120863428D01*
X114133047Y-121053904D01*
X114085428Y-121149142D01*
X114037809Y-121196761D01*
X113942571Y-121244380D01*
X113847333Y-121244380D01*
X113752095Y-121196761D01*
X113704476Y-121149142D01*
X113656857Y-121053904D01*
X113609238Y-120863428D01*
X113609238Y-120625333D01*
X113656857Y-120434857D01*
X113704476Y-120339619D01*
X113752095Y-120292000D01*
X113847333Y-120244380D01*
X115133047Y-121244380D02*
X114561619Y-121244380D01*
X114847333Y-121244380D02*
X114847333Y-120244380D01*
X114752095Y-120387238D01*
X114656857Y-120482476D01*
X114561619Y-120530095D01*
X148177142Y-131114666D02*
X148224761Y-131162285D01*
X148272380Y-131305142D01*
X148272380Y-131400380D01*
X148224761Y-131543238D01*
X148129523Y-131638476D01*
X148034285Y-131686095D01*
X147843809Y-131733714D01*
X147700952Y-131733714D01*
X147510476Y-131686095D01*
X147415238Y-131638476D01*
X147320000Y-131543238D01*
X147272380Y-131400380D01*
X147272380Y-131305142D01*
X147320000Y-131162285D01*
X147367619Y-131114666D01*
X148272380Y-130543238D02*
X148224761Y-130638476D01*
X148177142Y-130686095D01*
X148081904Y-130733714D01*
X147796190Y-130733714D01*
X147700952Y-130686095D01*
X147653333Y-130638476D01*
X147605714Y-130543238D01*
X147605714Y-130400380D01*
X147653333Y-130305142D01*
X147700952Y-130257523D01*
X147796190Y-130209904D01*
X148081904Y-130209904D01*
X148177142Y-130257523D01*
X148224761Y-130305142D01*
X148272380Y-130400380D01*
X148272380Y-130543238D01*
X147605714Y-129781333D02*
X148272380Y-129781333D01*
X147700952Y-129781333D02*
X147653333Y-129733714D01*
X147605714Y-129638476D01*
X147605714Y-129495619D01*
X147653333Y-129400380D01*
X147748571Y-129352761D01*
X148272380Y-129352761D01*
X147605714Y-128971809D02*
X148272380Y-128733714D01*
X147605714Y-128495619D01*
X148224761Y-127733714D02*
X148272380Y-127828952D01*
X148272380Y-128019428D01*
X148224761Y-128114666D01*
X148129523Y-128162285D01*
X147748571Y-128162285D01*
X147653333Y-128114666D01*
X147605714Y-128019428D01*
X147605714Y-127828952D01*
X147653333Y-127733714D01*
X147748571Y-127686095D01*
X147843809Y-127686095D01*
X147939047Y-128162285D01*
X148272380Y-127257523D02*
X147605714Y-127257523D01*
X147796190Y-127257523D02*
X147700952Y-127209904D01*
X147653333Y-127162285D01*
X147605714Y-127067047D01*
X147605714Y-126971809D01*
X147605714Y-126781333D02*
X147605714Y-126400380D01*
X147272380Y-126638476D02*
X148129523Y-126638476D01*
X148224761Y-126590857D01*
X148272380Y-126495619D01*
X148272380Y-126400380D01*
X148224761Y-125686095D02*
X148272380Y-125781333D01*
X148272380Y-125971809D01*
X148224761Y-126067047D01*
X148129523Y-126114666D01*
X147748571Y-126114666D01*
X147653333Y-126067047D01*
X147605714Y-125971809D01*
X147605714Y-125781333D01*
X147653333Y-125686095D01*
X147748571Y-125638476D01*
X147843809Y-125638476D01*
X147939047Y-126114666D01*
X148272380Y-125209904D02*
X147605714Y-125209904D01*
X147796190Y-125209904D02*
X147700952Y-125162285D01*
X147653333Y-125114666D01*
X147605714Y-125019428D01*
X147605714Y-124924190D01*
X147272380Y-124686095D02*
X147272380Y-124067047D01*
X147653333Y-124400380D01*
X147653333Y-124257523D01*
X147700952Y-124162285D01*
X147748571Y-124114666D01*
X147843809Y-124067047D01*
X148081904Y-124067047D01*
X148177142Y-124114666D01*
X148224761Y-124162285D01*
X148272380Y-124257523D01*
X148272380Y-124543238D01*
X148224761Y-124638476D01*
X148177142Y-124686095D01*
X147272380Y-123448000D02*
X147272380Y-123352761D01*
X147320000Y-123257523D01*
X147367619Y-123209904D01*
X147462857Y-123162285D01*
X147653333Y-123114666D01*
X147891428Y-123114666D01*
X148081904Y-123162285D01*
X148177142Y-123209904D01*
X148224761Y-123257523D01*
X148272380Y-123352761D01*
X148272380Y-123448000D01*
X148224761Y-123543238D01*
X148177142Y-123590857D01*
X148081904Y-123638476D01*
X147891428Y-123686095D01*
X147653333Y-123686095D01*
X147462857Y-123638476D01*
X147367619Y-123590857D01*
X147320000Y-123543238D01*
X147272380Y-123448000D01*
X148272380Y-122162285D02*
X148272380Y-122733714D01*
X148272380Y-122448000D02*
X147272380Y-122448000D01*
X147415238Y-122543238D01*
X147510476Y-122638476D01*
X147558095Y-122733714D01*
X137587142Y-92679047D02*
X137634761Y-92726666D01*
X137682380Y-92869523D01*
X137682380Y-92964761D01*
X137634761Y-93107619D01*
X137539523Y-93202857D01*
X137444285Y-93250476D01*
X137253809Y-93298095D01*
X137110952Y-93298095D01*
X136920476Y-93250476D01*
X136825238Y-93202857D01*
X136730000Y-93107619D01*
X136682380Y-92964761D01*
X136682380Y-92869523D01*
X136730000Y-92726666D01*
X136777619Y-92679047D01*
X136777619Y-92298095D02*
X136730000Y-92250476D01*
X136682380Y-92155238D01*
X136682380Y-91917142D01*
X136730000Y-91821904D01*
X136777619Y-91774285D01*
X136872857Y-91726666D01*
X136968095Y-91726666D01*
X137110952Y-91774285D01*
X137682380Y-92345714D01*
X137682380Y-91726666D01*
X136682380Y-91107619D02*
X136682380Y-91012380D01*
X136730000Y-90917142D01*
X136777619Y-90869523D01*
X136872857Y-90821904D01*
X137063333Y-90774285D01*
X137301428Y-90774285D01*
X137491904Y-90821904D01*
X137587142Y-90869523D01*
X137634761Y-90917142D01*
X137682380Y-91012380D01*
X137682380Y-91107619D01*
X137634761Y-91202857D01*
X137587142Y-91250476D01*
X137491904Y-91298095D01*
X137301428Y-91345714D01*
X137063333Y-91345714D01*
X136872857Y-91298095D01*
X136777619Y-91250476D01*
X136730000Y-91202857D01*
X136682380Y-91107619D01*
X137015714Y-89917142D02*
X137682380Y-89917142D01*
X136634761Y-90155238D02*
X137349047Y-90393333D01*
X137349047Y-89774285D01*
X127722285Y-96368380D02*
X127722285Y-97082666D01*
X127674666Y-97225523D01*
X127579428Y-97320761D01*
X127436571Y-97368380D01*
X127341333Y-97368380D01*
X128150857Y-96463619D02*
X128198476Y-96416000D01*
X128293714Y-96368380D01*
X128531809Y-96368380D01*
X128627047Y-96416000D01*
X128674666Y-96463619D01*
X128722285Y-96558857D01*
X128722285Y-96654095D01*
X128674666Y-96796952D01*
X128103238Y-97368380D01*
X128722285Y-97368380D01*
X129341333Y-96368380D02*
X129436571Y-96368380D01*
X129531809Y-96416000D01*
X129579428Y-96463619D01*
X129627047Y-96558857D01*
X129674666Y-96749333D01*
X129674666Y-96987428D01*
X129627047Y-97177904D01*
X129579428Y-97273142D01*
X129531809Y-97320761D01*
X129436571Y-97368380D01*
X129341333Y-97368380D01*
X129246095Y-97320761D01*
X129198476Y-97273142D01*
X129150857Y-97177904D01*
X129103238Y-96987428D01*
X129103238Y-96749333D01*
X129150857Y-96558857D01*
X129198476Y-96463619D01*
X129246095Y-96416000D01*
X129341333Y-96368380D01*
X130055619Y-96463619D02*
X130103238Y-96416000D01*
X130198476Y-96368380D01*
X130436571Y-96368380D01*
X130531809Y-96416000D01*
X130579428Y-96463619D01*
X130627047Y-96558857D01*
X130627047Y-96654095D01*
X130579428Y-96796952D01*
X130008000Y-97368380D01*
X130627047Y-97368380D01*
X129412952Y-76456380D02*
X129079619Y-75980190D01*
X128841523Y-76456380D02*
X128841523Y-75456380D01*
X129222476Y-75456380D01*
X129317714Y-75504000D01*
X129365333Y-75551619D01*
X129412952Y-75646857D01*
X129412952Y-75789714D01*
X129365333Y-75884952D01*
X129317714Y-75932571D01*
X129222476Y-75980190D01*
X128841523Y-75980190D01*
X129793904Y-75551619D02*
X129841523Y-75504000D01*
X129936761Y-75456380D01*
X130174857Y-75456380D01*
X130270095Y-75504000D01*
X130317714Y-75551619D01*
X130365333Y-75646857D01*
X130365333Y-75742095D01*
X130317714Y-75884952D01*
X129746285Y-76456380D01*
X130365333Y-76456380D01*
X130984380Y-75456380D02*
X131079619Y-75456380D01*
X131174857Y-75504000D01*
X131222476Y-75551619D01*
X131270095Y-75646857D01*
X131317714Y-75837333D01*
X131317714Y-76075428D01*
X131270095Y-76265904D01*
X131222476Y-76361142D01*
X131174857Y-76408761D01*
X131079619Y-76456380D01*
X130984380Y-76456380D01*
X130889142Y-76408761D01*
X130841523Y-76361142D01*
X130793904Y-76265904D01*
X130746285Y-76075428D01*
X130746285Y-75837333D01*
X130793904Y-75646857D01*
X130841523Y-75551619D01*
X130889142Y-75504000D01*
X130984380Y-75456380D01*
X131651047Y-75456380D02*
X132270095Y-75456380D01*
X131936761Y-75837333D01*
X132079619Y-75837333D01*
X132174857Y-75884952D01*
X132222476Y-75932571D01*
X132270095Y-76027809D01*
X132270095Y-76265904D01*
X132222476Y-76361142D01*
X132174857Y-76408761D01*
X132079619Y-76456380D01*
X131793904Y-76456380D01*
X131698666Y-76408761D01*
X131651047Y-76361142D01*
X137206380Y-78417547D02*
X136730190Y-78750880D01*
X137206380Y-78988976D02*
X136206380Y-78988976D01*
X136206380Y-78608023D01*
X136254000Y-78512785D01*
X136301619Y-78465166D01*
X136396857Y-78417547D01*
X136539714Y-78417547D01*
X136634952Y-78465166D01*
X136682571Y-78512785D01*
X136730190Y-78608023D01*
X136730190Y-78988976D01*
X136301619Y-78036595D02*
X136254000Y-77988976D01*
X136206380Y-77893738D01*
X136206380Y-77655642D01*
X136254000Y-77560404D01*
X136301619Y-77512785D01*
X136396857Y-77465166D01*
X136492095Y-77465166D01*
X136634952Y-77512785D01*
X137206380Y-78084214D01*
X137206380Y-77465166D01*
X136206380Y-76846119D02*
X136206380Y-76750880D01*
X136254000Y-76655642D01*
X136301619Y-76608023D01*
X136396857Y-76560404D01*
X136587333Y-76512785D01*
X136825428Y-76512785D01*
X137015904Y-76560404D01*
X137111142Y-76608023D01*
X137158761Y-76655642D01*
X137206380Y-76750880D01*
X137206380Y-76846119D01*
X137158761Y-76941357D01*
X137111142Y-76988976D01*
X137015904Y-77036595D01*
X136825428Y-77084214D01*
X136587333Y-77084214D01*
X136396857Y-77036595D01*
X136301619Y-76988976D01*
X136254000Y-76941357D01*
X136206380Y-76846119D01*
X136301619Y-76131833D02*
X136254000Y-76084214D01*
X136206380Y-75988976D01*
X136206380Y-75750880D01*
X136254000Y-75655642D01*
X136301619Y-75608023D01*
X136396857Y-75560404D01*
X136492095Y-75560404D01*
X136634952Y-75608023D01*
X137206380Y-76179452D01*
X137206380Y-75560404D01*
X129308952Y-80012380D02*
X128975619Y-79536190D01*
X128737523Y-80012380D02*
X128737523Y-79012380D01*
X129118476Y-79012380D01*
X129213714Y-79060000D01*
X129261333Y-79107619D01*
X129308952Y-79202857D01*
X129308952Y-79345714D01*
X129261333Y-79440952D01*
X129213714Y-79488571D01*
X129118476Y-79536190D01*
X128737523Y-79536190D01*
X129689904Y-79107619D02*
X129737523Y-79060000D01*
X129832761Y-79012380D01*
X130070857Y-79012380D01*
X130166095Y-79060000D01*
X130213714Y-79107619D01*
X130261333Y-79202857D01*
X130261333Y-79298095D01*
X130213714Y-79440952D01*
X129642285Y-80012380D01*
X130261333Y-80012380D01*
X130880380Y-79012380D02*
X130975619Y-79012380D01*
X131070857Y-79060000D01*
X131118476Y-79107619D01*
X131166095Y-79202857D01*
X131213714Y-79393333D01*
X131213714Y-79631428D01*
X131166095Y-79821904D01*
X131118476Y-79917142D01*
X131070857Y-79964761D01*
X130975619Y-80012380D01*
X130880380Y-80012380D01*
X130785142Y-79964761D01*
X130737523Y-79917142D01*
X130689904Y-79821904D01*
X130642285Y-79631428D01*
X130642285Y-79393333D01*
X130689904Y-79202857D01*
X130737523Y-79107619D01*
X130785142Y-79060000D01*
X130880380Y-79012380D01*
X132166095Y-80012380D02*
X131594666Y-80012380D01*
X131880380Y-80012380D02*
X131880380Y-79012380D01*
X131785142Y-79155238D01*
X131689904Y-79250476D01*
X131594666Y-79298095D01*
D14*
X118730809Y-80516523D02*
X118126047Y-80516523D01*
X118126047Y-79246523D01*
X119093666Y-79367476D02*
X119154142Y-79307000D01*
X119275095Y-79246523D01*
X119577476Y-79246523D01*
X119698428Y-79307000D01*
X119758904Y-79367476D01*
X119819380Y-79488428D01*
X119819380Y-79609380D01*
X119758904Y-79790809D01*
X119033190Y-80516523D01*
X119819380Y-80516523D01*
X120605571Y-79246523D02*
X120726523Y-79246523D01*
X120847476Y-79307000D01*
X120907952Y-79367476D01*
X120968428Y-79488428D01*
X121028904Y-79730333D01*
X121028904Y-80032714D01*
X120968428Y-80274619D01*
X120907952Y-80395571D01*
X120847476Y-80456047D01*
X120726523Y-80516523D01*
X120605571Y-80516523D01*
X120484619Y-80456047D01*
X120424142Y-80395571D01*
X120363666Y-80274619D01*
X120303190Y-80032714D01*
X120303190Y-79730333D01*
X120363666Y-79488428D01*
X120424142Y-79367476D01*
X120484619Y-79307000D01*
X120605571Y-79246523D01*
X122238428Y-80516523D02*
X121512714Y-80516523D01*
X121875571Y-80516523D02*
X121875571Y-79246523D01*
X121754619Y-79427952D01*
X121633666Y-79548904D01*
X121512714Y-79609380D01*
D10*
X130194380Y-104595714D02*
X130908666Y-104595714D01*
X131051523Y-104643333D01*
X131146761Y-104738571D01*
X131194380Y-104881428D01*
X131194380Y-104976666D01*
X130289619Y-104167142D02*
X130242000Y-104119523D01*
X130194380Y-104024285D01*
X130194380Y-103786190D01*
X130242000Y-103690952D01*
X130289619Y-103643333D01*
X130384857Y-103595714D01*
X130480095Y-103595714D01*
X130622952Y-103643333D01*
X131194380Y-104214761D01*
X131194380Y-103595714D01*
X130194380Y-102976666D02*
X130194380Y-102881428D01*
X130242000Y-102786190D01*
X130289619Y-102738571D01*
X130384857Y-102690952D01*
X130575333Y-102643333D01*
X130813428Y-102643333D01*
X131003904Y-102690952D01*
X131099142Y-102738571D01*
X131146761Y-102786190D01*
X131194380Y-102881428D01*
X131194380Y-102976666D01*
X131146761Y-103071904D01*
X131099142Y-103119523D01*
X131003904Y-103167142D01*
X130813428Y-103214761D01*
X130575333Y-103214761D01*
X130384857Y-103167142D01*
X130289619Y-103119523D01*
X130242000Y-103071904D01*
X130194380Y-102976666D01*
X131194380Y-101690952D02*
X131194380Y-102262380D01*
X131194380Y-101976666D02*
X130194380Y-101976666D01*
X130337238Y-102071904D01*
X130432476Y-102167142D01*
X130480095Y-102262380D01*
D14*
X135170523Y-93059285D02*
X133900523Y-93059285D01*
X135049571Y-91728809D02*
X135110047Y-91789285D01*
X135170523Y-91970714D01*
X135170523Y-92091666D01*
X135110047Y-92273095D01*
X134989095Y-92394047D01*
X134868142Y-92454523D01*
X134626238Y-92515000D01*
X134444809Y-92515000D01*
X134202904Y-92454523D01*
X134081952Y-92394047D01*
X133961000Y-92273095D01*
X133900523Y-92091666D01*
X133900523Y-91970714D01*
X133961000Y-91789285D01*
X134021476Y-91728809D01*
X134021476Y-91245000D02*
X133961000Y-91184523D01*
X133900523Y-91063571D01*
X133900523Y-90761190D01*
X133961000Y-90640238D01*
X134021476Y-90579761D01*
X134142428Y-90519285D01*
X134263380Y-90519285D01*
X134444809Y-90579761D01*
X135170523Y-91305476D01*
X135170523Y-90519285D01*
X133900523Y-89733095D02*
X133900523Y-89612142D01*
X133961000Y-89491190D01*
X134021476Y-89430714D01*
X134142428Y-89370238D01*
X134384333Y-89309761D01*
X134686714Y-89309761D01*
X134928619Y-89370238D01*
X135049571Y-89430714D01*
X135110047Y-89491190D01*
X135170523Y-89612142D01*
X135170523Y-89733095D01*
X135110047Y-89854047D01*
X135049571Y-89914523D01*
X134928619Y-89975000D01*
X134686714Y-90035476D01*
X134384333Y-90035476D01*
X134142428Y-89975000D01*
X134021476Y-89914523D01*
X133961000Y-89854047D01*
X133900523Y-89733095D01*
X135170523Y-88100238D02*
X135170523Y-88825952D01*
X135170523Y-88463095D02*
X133900523Y-88463095D01*
X134081952Y-88584047D01*
X134202904Y-88705000D01*
X134263380Y-88825952D01*
D10*
X121697523Y-101790380D02*
X121697523Y-100790380D01*
X121935619Y-100790380D01*
X122078476Y-100838000D01*
X122173714Y-100933238D01*
X122221333Y-101028476D01*
X122268952Y-101218952D01*
X122268952Y-101361809D01*
X122221333Y-101552285D01*
X122173714Y-101647523D01*
X122078476Y-101742761D01*
X121935619Y-101790380D01*
X121697523Y-101790380D01*
X122649904Y-100885619D02*
X122697523Y-100838000D01*
X122792761Y-100790380D01*
X123030857Y-100790380D01*
X123126095Y-100838000D01*
X123173714Y-100885619D01*
X123221333Y-100980857D01*
X123221333Y-101076095D01*
X123173714Y-101218952D01*
X122602285Y-101790380D01*
X123221333Y-101790380D01*
X123840380Y-100790380D02*
X123935619Y-100790380D01*
X124030857Y-100838000D01*
X124078476Y-100885619D01*
X124126095Y-100980857D01*
X124173714Y-101171333D01*
X124173714Y-101409428D01*
X124126095Y-101599904D01*
X124078476Y-101695142D01*
X124030857Y-101742761D01*
X123935619Y-101790380D01*
X123840380Y-101790380D01*
X123745142Y-101742761D01*
X123697523Y-101695142D01*
X123649904Y-101599904D01*
X123602285Y-101409428D01*
X123602285Y-101171333D01*
X123649904Y-100980857D01*
X123697523Y-100885619D01*
X123745142Y-100838000D01*
X123840380Y-100790380D01*
X124554666Y-100885619D02*
X124602285Y-100838000D01*
X124697523Y-100790380D01*
X124935619Y-100790380D01*
X125030857Y-100838000D01*
X125078476Y-100885619D01*
X125126095Y-100980857D01*
X125126095Y-101076095D01*
X125078476Y-101218952D01*
X124507047Y-101790380D01*
X125126095Y-101790380D01*
X130536380Y-92776476D02*
X129536380Y-92776476D01*
X129536380Y-92538380D01*
X129584000Y-92395523D01*
X129679238Y-92300285D01*
X129774476Y-92252666D01*
X129964952Y-92205047D01*
X130107809Y-92205047D01*
X130298285Y-92252666D01*
X130393523Y-92300285D01*
X130488761Y-92395523D01*
X130536380Y-92538380D01*
X130536380Y-92776476D01*
X129631619Y-91824095D02*
X129584000Y-91776476D01*
X129536380Y-91681238D01*
X129536380Y-91443142D01*
X129584000Y-91347904D01*
X129631619Y-91300285D01*
X129726857Y-91252666D01*
X129822095Y-91252666D01*
X129964952Y-91300285D01*
X130536380Y-91871714D01*
X130536380Y-91252666D01*
X129536380Y-90633619D02*
X129536380Y-90538380D01*
X129584000Y-90443142D01*
X129631619Y-90395523D01*
X129726857Y-90347904D01*
X129917333Y-90300285D01*
X130155428Y-90300285D01*
X130345904Y-90347904D01*
X130441142Y-90395523D01*
X130488761Y-90443142D01*
X130536380Y-90538380D01*
X130536380Y-90633619D01*
X130488761Y-90728857D01*
X130441142Y-90776476D01*
X130345904Y-90824095D01*
X130155428Y-90871714D01*
X129917333Y-90871714D01*
X129726857Y-90824095D01*
X129631619Y-90776476D01*
X129584000Y-90728857D01*
X129536380Y-90633619D01*
X130536380Y-89347904D02*
X130536380Y-89919333D01*
X130536380Y-89633619D02*
X129536380Y-89633619D01*
X129679238Y-89728857D01*
X129774476Y-89824095D01*
X129822095Y-89919333D01*
X120202952Y-88271142D02*
X120155333Y-88318761D01*
X120012476Y-88366380D01*
X119917238Y-88366380D01*
X119774380Y-88318761D01*
X119679142Y-88223523D01*
X119631523Y-88128285D01*
X119583904Y-87937809D01*
X119583904Y-87794952D01*
X119631523Y-87604476D01*
X119679142Y-87509238D01*
X119774380Y-87414000D01*
X119917238Y-87366380D01*
X120012476Y-87366380D01*
X120155333Y-87414000D01*
X120202952Y-87461619D01*
X120583904Y-87461619D02*
X120631523Y-87414000D01*
X120726761Y-87366380D01*
X120964857Y-87366380D01*
X121060095Y-87414000D01*
X121107714Y-87461619D01*
X121155333Y-87556857D01*
X121155333Y-87652095D01*
X121107714Y-87794952D01*
X120536285Y-88366380D01*
X121155333Y-88366380D01*
X121774380Y-87366380D02*
X121869619Y-87366380D01*
X121964857Y-87414000D01*
X122012476Y-87461619D01*
X122060095Y-87556857D01*
X122107714Y-87747333D01*
X122107714Y-87985428D01*
X122060095Y-88175904D01*
X122012476Y-88271142D01*
X121964857Y-88318761D01*
X121869619Y-88366380D01*
X121774380Y-88366380D01*
X121679142Y-88318761D01*
X121631523Y-88271142D01*
X121583904Y-88175904D01*
X121536285Y-87985428D01*
X121536285Y-87747333D01*
X121583904Y-87556857D01*
X121631523Y-87461619D01*
X121679142Y-87414000D01*
X121774380Y-87366380D01*
X122679142Y-87794952D02*
X122583904Y-87747333D01*
X122536285Y-87699714D01*
X122488666Y-87604476D01*
X122488666Y-87556857D01*
X122536285Y-87461619D01*
X122583904Y-87414000D01*
X122679142Y-87366380D01*
X122869619Y-87366380D01*
X122964857Y-87414000D01*
X123012476Y-87461619D01*
X123060095Y-87556857D01*
X123060095Y-87604476D01*
X123012476Y-87699714D01*
X122964857Y-87747333D01*
X122869619Y-87794952D01*
X122679142Y-87794952D01*
X122583904Y-87842571D01*
X122536285Y-87890190D01*
X122488666Y-87985428D01*
X122488666Y-88175904D01*
X122536285Y-88271142D01*
X122583904Y-88318761D01*
X122679142Y-88366380D01*
X122869619Y-88366380D01*
X122964857Y-88318761D01*
X123012476Y-88271142D01*
X123060095Y-88175904D01*
X123060095Y-87985428D01*
X123012476Y-87890190D01*
X122964857Y-87842571D01*
X122869619Y-87794952D01*
X129346952Y-83503142D02*
X129299333Y-83550761D01*
X129156476Y-83598380D01*
X129061238Y-83598380D01*
X128918380Y-83550761D01*
X128823142Y-83455523D01*
X128775523Y-83360285D01*
X128727904Y-83169809D01*
X128727904Y-83026952D01*
X128775523Y-82836476D01*
X128823142Y-82741238D01*
X128918380Y-82646000D01*
X129061238Y-82598380D01*
X129156476Y-82598380D01*
X129299333Y-82646000D01*
X129346952Y-82693619D01*
X129727904Y-82693619D02*
X129775523Y-82646000D01*
X129870761Y-82598380D01*
X130108857Y-82598380D01*
X130204095Y-82646000D01*
X130251714Y-82693619D01*
X130299333Y-82788857D01*
X130299333Y-82884095D01*
X130251714Y-83026952D01*
X129680285Y-83598380D01*
X130299333Y-83598380D01*
X130918380Y-82598380D02*
X131013619Y-82598380D01*
X131108857Y-82646000D01*
X131156476Y-82693619D01*
X131204095Y-82788857D01*
X131251714Y-82979333D01*
X131251714Y-83217428D01*
X131204095Y-83407904D01*
X131156476Y-83503142D01*
X131108857Y-83550761D01*
X131013619Y-83598380D01*
X130918380Y-83598380D01*
X130823142Y-83550761D01*
X130775523Y-83503142D01*
X130727904Y-83407904D01*
X130680285Y-83217428D01*
X130680285Y-82979333D01*
X130727904Y-82788857D01*
X130775523Y-82693619D01*
X130823142Y-82646000D01*
X130918380Y-82598380D01*
X131585047Y-82598380D02*
X132251714Y-82598380D01*
X131823142Y-83598380D01*
X120202952Y-92843142D02*
X120155333Y-92890761D01*
X120012476Y-92938380D01*
X119917238Y-92938380D01*
X119774380Y-92890761D01*
X119679142Y-92795523D01*
X119631523Y-92700285D01*
X119583904Y-92509809D01*
X119583904Y-92366952D01*
X119631523Y-92176476D01*
X119679142Y-92081238D01*
X119774380Y-91986000D01*
X119917238Y-91938380D01*
X120012476Y-91938380D01*
X120155333Y-91986000D01*
X120202952Y-92033619D01*
X120583904Y-92033619D02*
X120631523Y-91986000D01*
X120726761Y-91938380D01*
X120964857Y-91938380D01*
X121060095Y-91986000D01*
X121107714Y-92033619D01*
X121155333Y-92128857D01*
X121155333Y-92224095D01*
X121107714Y-92366952D01*
X120536285Y-92938380D01*
X121155333Y-92938380D01*
X121774380Y-91938380D02*
X121869619Y-91938380D01*
X121964857Y-91986000D01*
X122012476Y-92033619D01*
X122060095Y-92128857D01*
X122107714Y-92319333D01*
X122107714Y-92557428D01*
X122060095Y-92747904D01*
X122012476Y-92843142D01*
X121964857Y-92890761D01*
X121869619Y-92938380D01*
X121774380Y-92938380D01*
X121679142Y-92890761D01*
X121631523Y-92843142D01*
X121583904Y-92747904D01*
X121536285Y-92557428D01*
X121536285Y-92319333D01*
X121583904Y-92128857D01*
X121631523Y-92033619D01*
X121679142Y-91986000D01*
X121774380Y-91938380D01*
X122964857Y-91938380D02*
X122774380Y-91938380D01*
X122679142Y-91986000D01*
X122631523Y-92033619D01*
X122536285Y-92176476D01*
X122488666Y-92366952D01*
X122488666Y-92747904D01*
X122536285Y-92843142D01*
X122583904Y-92890761D01*
X122679142Y-92938380D01*
X122869619Y-92938380D01*
X122964857Y-92890761D01*
X123012476Y-92843142D01*
X123060095Y-92747904D01*
X123060095Y-92509809D01*
X123012476Y-92414571D01*
X122964857Y-92366952D01*
X122869619Y-92319333D01*
X122679142Y-92319333D01*
X122583904Y-92366952D01*
X122536285Y-92414571D01*
X122488666Y-92509809D01*
X133781142Y-83667047D02*
X133828761Y-83714666D01*
X133876380Y-83857523D01*
X133876380Y-83952761D01*
X133828761Y-84095619D01*
X133733523Y-84190857D01*
X133638285Y-84238476D01*
X133447809Y-84286095D01*
X133304952Y-84286095D01*
X133114476Y-84238476D01*
X133019238Y-84190857D01*
X132924000Y-84095619D01*
X132876380Y-83952761D01*
X132876380Y-83857523D01*
X132924000Y-83714666D01*
X132971619Y-83667047D01*
X132971619Y-83286095D02*
X132924000Y-83238476D01*
X132876380Y-83143238D01*
X132876380Y-82905142D01*
X132924000Y-82809904D01*
X132971619Y-82762285D01*
X133066857Y-82714666D01*
X133162095Y-82714666D01*
X133304952Y-82762285D01*
X133876380Y-83333714D01*
X133876380Y-82714666D01*
X132876380Y-82095619D02*
X132876380Y-82000380D01*
X132924000Y-81905142D01*
X132971619Y-81857523D01*
X133066857Y-81809904D01*
X133257333Y-81762285D01*
X133495428Y-81762285D01*
X133685904Y-81809904D01*
X133781142Y-81857523D01*
X133828761Y-81905142D01*
X133876380Y-82000380D01*
X133876380Y-82095619D01*
X133828761Y-82190857D01*
X133781142Y-82238476D01*
X133685904Y-82286095D01*
X133495428Y-82333714D01*
X133257333Y-82333714D01*
X133066857Y-82286095D01*
X132971619Y-82238476D01*
X132924000Y-82190857D01*
X132876380Y-82095619D01*
X132876380Y-80857523D02*
X132876380Y-81333714D01*
X133352571Y-81381333D01*
X133304952Y-81333714D01*
X133257333Y-81238476D01*
X133257333Y-81000380D01*
X133304952Y-80905142D01*
X133352571Y-80857523D01*
X133447809Y-80809904D01*
X133685904Y-80809904D01*
X133781142Y-80857523D01*
X133828761Y-80905142D01*
X133876380Y-81000380D01*
X133876380Y-81238476D01*
X133828761Y-81333714D01*
X133781142Y-81381333D01*
X128857142Y-86649047D02*
X128904761Y-86696666D01*
X128952380Y-86839523D01*
X128952380Y-86934761D01*
X128904761Y-87077619D01*
X128809523Y-87172857D01*
X128714285Y-87220476D01*
X128523809Y-87268095D01*
X128380952Y-87268095D01*
X128190476Y-87220476D01*
X128095238Y-87172857D01*
X128000000Y-87077619D01*
X127952380Y-86934761D01*
X127952380Y-86839523D01*
X128000000Y-86696666D01*
X128047619Y-86649047D01*
X128047619Y-86268095D02*
X128000000Y-86220476D01*
X127952380Y-86125238D01*
X127952380Y-85887142D01*
X128000000Y-85791904D01*
X128047619Y-85744285D01*
X128142857Y-85696666D01*
X128238095Y-85696666D01*
X128380952Y-85744285D01*
X128952380Y-86315714D01*
X128952380Y-85696666D01*
X127952380Y-85077619D02*
X127952380Y-84982380D01*
X128000000Y-84887142D01*
X128047619Y-84839523D01*
X128142857Y-84791904D01*
X128333333Y-84744285D01*
X128571428Y-84744285D01*
X128761904Y-84791904D01*
X128857142Y-84839523D01*
X128904761Y-84887142D01*
X128952380Y-84982380D01*
X128952380Y-85077619D01*
X128904761Y-85172857D01*
X128857142Y-85220476D01*
X128761904Y-85268095D01*
X128571428Y-85315714D01*
X128333333Y-85315714D01*
X128142857Y-85268095D01*
X128047619Y-85220476D01*
X128000000Y-85172857D01*
X127952380Y-85077619D01*
X127952380Y-84410952D02*
X127952380Y-83791904D01*
X128333333Y-84125238D01*
X128333333Y-83982380D01*
X128380952Y-83887142D01*
X128428571Y-83839523D01*
X128523809Y-83791904D01*
X128761904Y-83791904D01*
X128857142Y-83839523D01*
X128904761Y-83887142D01*
X128952380Y-83982380D01*
X128952380Y-84268095D01*
X128904761Y-84363333D01*
X128857142Y-84410952D01*
X131834952Y-101849142D02*
X131787333Y-101896761D01*
X131644476Y-101944380D01*
X131549238Y-101944380D01*
X131406380Y-101896761D01*
X131311142Y-101801523D01*
X131263523Y-101706285D01*
X131215904Y-101515809D01*
X131215904Y-101372952D01*
X131263523Y-101182476D01*
X131311142Y-101087238D01*
X131406380Y-100992000D01*
X131549238Y-100944380D01*
X131644476Y-100944380D01*
X131787333Y-100992000D01*
X131834952Y-101039619D01*
X132215904Y-101039619D02*
X132263523Y-100992000D01*
X132358761Y-100944380D01*
X132596857Y-100944380D01*
X132692095Y-100992000D01*
X132739714Y-101039619D01*
X132787333Y-101134857D01*
X132787333Y-101230095D01*
X132739714Y-101372952D01*
X132168285Y-101944380D01*
X132787333Y-101944380D01*
X133406380Y-100944380D02*
X133501619Y-100944380D01*
X133596857Y-100992000D01*
X133644476Y-101039619D01*
X133692095Y-101134857D01*
X133739714Y-101325333D01*
X133739714Y-101563428D01*
X133692095Y-101753904D01*
X133644476Y-101849142D01*
X133596857Y-101896761D01*
X133501619Y-101944380D01*
X133406380Y-101944380D01*
X133311142Y-101896761D01*
X133263523Y-101849142D01*
X133215904Y-101753904D01*
X133168285Y-101563428D01*
X133168285Y-101325333D01*
X133215904Y-101134857D01*
X133263523Y-101039619D01*
X133311142Y-100992000D01*
X133406380Y-100944380D01*
X134120666Y-101039619D02*
X134168285Y-100992000D01*
X134263523Y-100944380D01*
X134501619Y-100944380D01*
X134596857Y-100992000D01*
X134644476Y-101039619D01*
X134692095Y-101134857D01*
X134692095Y-101230095D01*
X134644476Y-101372952D01*
X134073047Y-101944380D01*
X134692095Y-101944380D01*
X131834952Y-98839142D02*
X131787333Y-98886761D01*
X131644476Y-98934380D01*
X131549238Y-98934380D01*
X131406380Y-98886761D01*
X131311142Y-98791523D01*
X131263523Y-98696285D01*
X131215904Y-98505809D01*
X131215904Y-98362952D01*
X131263523Y-98172476D01*
X131311142Y-98077238D01*
X131406380Y-97982000D01*
X131549238Y-97934380D01*
X131644476Y-97934380D01*
X131787333Y-97982000D01*
X131834952Y-98029619D01*
X132215904Y-98029619D02*
X132263523Y-97982000D01*
X132358761Y-97934380D01*
X132596857Y-97934380D01*
X132692095Y-97982000D01*
X132739714Y-98029619D01*
X132787333Y-98124857D01*
X132787333Y-98220095D01*
X132739714Y-98362952D01*
X132168285Y-98934380D01*
X132787333Y-98934380D01*
X133406380Y-97934380D02*
X133501619Y-97934380D01*
X133596857Y-97982000D01*
X133644476Y-98029619D01*
X133692095Y-98124857D01*
X133739714Y-98315333D01*
X133739714Y-98553428D01*
X133692095Y-98743904D01*
X133644476Y-98839142D01*
X133596857Y-98886761D01*
X133501619Y-98934380D01*
X133406380Y-98934380D01*
X133311142Y-98886761D01*
X133263523Y-98839142D01*
X133215904Y-98743904D01*
X133168285Y-98553428D01*
X133168285Y-98315333D01*
X133215904Y-98124857D01*
X133263523Y-98029619D01*
X133311142Y-97982000D01*
X133406380Y-97934380D01*
X134692095Y-98934380D02*
X134120666Y-98934380D01*
X134406380Y-98934380D02*
X134406380Y-97934380D01*
X134311142Y-98077238D01*
X134215904Y-98172476D01*
X134120666Y-98220095D01*
M02*
