M48
; DRILL file {KiCad (5.1.10)-1} date 10/29/21 16:39:59
; FORMAT={-:-/ absolute / inch / decimal}
; #@! TF.CreationDate,2021-10-29T16:39:59-07:00
; #@! TF.GenerationSoftware,Kicad,Pcbnew,(5.1.10)-1
; #@! TF.FileFunction,Plated,1,2,PTH
FMAT,2
INCH
T1C0.0160
T2C0.0217
T3C0.0300
T4C0.0350
T5C0.0394
T6C0.0433
T7C0.0508
T8C0.0520
T9C0.0618
T10C0.0650
T11C0.0748
T12C0.1260
%
G90
G05
T1
X4.3426Y-4.1496
X4.5174Y-2.9896
X5.0467Y-4.1973
X5.3591Y-5.0373
X5.3691Y-4.6573
X5.4891Y-3.9873
X5.5191Y-4.5373
X5.5791Y-3.7873
X5.6826Y-5.3292
X5.6886Y-5.6573
X5.7327Y-3.5118
X5.7327Y-3.6654
X5.8591Y-3.5873
X5.9891Y-3.9273
X6.0717Y-3.0447
X6.0719Y-5.4078
X6.0791Y-3.0973
X6.0791Y-3.1373
X6.0791Y-3.2973
X6.1043Y-3.0121
X6.1091Y-3.8673
X6.1139Y-4.4521
X6.1465Y-4.4099
X6.1565Y-4.5148
X6.1668Y-3.2496
X6.1965Y-4.4599
X6.2243Y-3.0121
X6.2268Y-3.2496
X6.2565Y-4.5148
X6.2716Y-4.5648
X6.2868Y-3.2496
X6.3216Y-4.6148
X6.3268Y-3.2496
X6.3551Y-5.9917
X6.3668Y-3.2496
X6.3703Y-4.5661
X6.3791Y-4.6573
X6.3894Y-5.8524
X6.3991Y-3.8373
X6.3991Y-3.9973
X6.4068Y-3.2496
X6.4103Y-4.6061
X6.4403Y-4.6361
X6.4677Y-4.1287
X6.497Y-4.7153
X6.5291Y-4.4473
X6.5377Y-4.1987
X6.5813Y-4.3551
X6.6191Y-3.1173
X6.6313Y-4.4051
X6.6391Y-3.0973
X6.65Y-3.2483
X6.6791Y-4.4173
X6.6991Y-6.0773
X6.7268Y-6.0551
X6.7746Y-6.0073
X6.8091Y-6.0073
X6.9191Y-6.0073
X6.9395Y-4.1647
X6.9911Y-4.2822
X7.0991Y-5.8673
X7.1444Y-5.8608
X7.1491Y-4.6373
X7.1691Y-6.1373
X7.2091Y-3.3573
X7.2391Y-3.5473
X7.3091Y-3.4373
X7.3091Y-4.6373
X7.3465Y-3.6235
X7.5122Y-3.5795
X7.5422Y-5.1983
X7.757Y-3.7724
X7.8966Y-5.6173
X8.1591Y-3.5173
T2
X4.2991Y-4.3973
X4.2991Y-4.4473
X4.2991Y-4.4973
X4.3191Y-3.1173
X4.3191Y-3.1673
X4.3191Y-3.2173
T3
X5.8683Y-4.4573
X5.8683Y-4.5573
X5.8683Y-4.6573
X5.8683Y-4.7573
X5.8683Y-4.8573
X5.8683Y-4.9573
X5.8683Y-5.0573
X5.8683Y-5.1573
X5.8683Y-5.2573
X5.8683Y-5.3573
X5.8683Y-5.4573
X5.8683Y-5.5573
X5.8683Y-5.6573
X5.8683Y-5.7573
X5.8683Y-5.8573
X6.1091Y-5.2161
X6.1091Y-6.1216
X6.2469Y-5.2161
X6.5225Y-5.2161
X6.6603Y-5.2161
X6.6603Y-6.1216
X6.8722Y-4.4573
X6.8722Y-4.5573
X6.8722Y-4.6573
X6.8722Y-4.7573
X6.8722Y-4.8573
X6.8722Y-4.9573
X6.8722Y-5.0573
X6.8722Y-5.1573
X6.8722Y-5.2573
X6.8722Y-5.3573
X6.8722Y-5.4573
X6.8722Y-5.5573
X6.8722Y-5.6573
X6.8722Y-5.7573
X6.8722Y-5.8573
T4
X7.4988Y-5.7075
X7.4991Y-3.3272
X7.589Y-5.7075
X7.5893Y-3.3272
X7.6291Y-3.0673
X7.6291Y-5.8972
X7.6691Y-3.1374
X7.6691Y-5.9673
X7.7091Y-3.0673
X7.7091Y-5.8972
X7.7491Y-3.1374
X7.7491Y-5.9673
X7.7891Y-3.0673
X7.7891Y-5.8972
X7.8291Y-3.1374
X7.8291Y-5.9673
X7.8691Y-3.0673
X7.8691Y-5.8972
X7.9091Y-3.1374
X7.9091Y-5.9673
X7.9488Y-5.7075
X7.9491Y-3.3272
X8.039Y-5.7075
X8.0393Y-3.3272
T5
X5.2191Y-4.6573
X5.2191Y-4.7573
X5.2191Y-4.9973
X5.2191Y-5.0973
X5.2191Y-5.1973
X5.2386Y-3.739
X5.2386Y-3.839
X5.2386Y-3.939
X5.2391Y-3.3973
X5.2391Y-3.4973
X5.7391Y-5.8173
X5.8991Y-3.2573
X5.8991Y-3.4173
X6.0791Y-3.2373
X6.3191Y-4.9173
X6.3191Y-5.0173
X6.3791Y-4.7573
X6.5391Y-4.9173
X6.8291Y-6.1073
X6.9291Y-6.1073
T6
X5.4191Y-5.4973
X5.4191Y-5.5973
X5.4191Y-5.6973
T7
X4.9783Y-3.6382
X4.9992Y-4.9366
T8
X4.4193Y-3.402
X4.4193Y-3.8744
X4.4402Y-4.7004
X4.4402Y-5.1728
X4.8996Y-3.402
X4.8996Y-3.8744
X4.9205Y-4.7004
X4.9205Y-5.1728
T9
X7.4488Y-5.9323
X7.4491Y-3.1024
X8.089Y-5.9323
X8.0893Y-3.1024
T10
X4.6729Y-5.7241
X4.6729Y-5.9961
X4.854Y-5.7241
X4.854Y-5.9961
X5.0351Y-5.7241
X5.0351Y-5.9961
T11
X5.4578Y-3.8436
X8.4106Y-3.8436
T12
X3.9591Y-3.0373
X3.9591Y-6.0373
X8.3591Y-3.0173
X8.3591Y-6.0173
T0
M30
