%FSLAX45Y45*%
G04 Gerber Fmt 4.5, Leading zero omitted, Abs format (unit mm)*
G04 Created by KiCad (PCBNEW (5.1.10)-1) date 2022-05-03 09:39:56*
%MOMM*%
%LPD*%
G01*
G04 APERTURE LIST*
%TA.AperFunction,Profile*%
%ADD10C,0.100000*%
%TD*%
%ADD11C,0.200000*%
%ADD12C,0.300000*%
G04 APERTURE END LIST*
D10*
X9802000Y-13252000D02*
X9802000Y-6648000D01*
X17676000Y-13252000D02*
X9802000Y-13252000D01*
X17676000Y-6648000D02*
X17676000Y-13252000D01*
X9802000Y-6648000D02*
X17676000Y-6648000D01*
D11*
X12232780Y-11015530D02*
X12273420Y-11056170D01*
X12273420Y-11015530D02*
X12232780Y-11056170D01*
X12372480Y-10926630D02*
X12413120Y-10967270D01*
X12413120Y-10926630D02*
X12372480Y-10967270D01*
X12448680Y-11002830D02*
X12489320Y-11043470D01*
X12489320Y-11002830D02*
X12448680Y-11043470D01*
X12480380Y-11186930D02*
X12521020Y-11227570D01*
X12521020Y-11186930D02*
X12480380Y-11227570D01*
X12518580Y-11313930D02*
X12559220Y-11354570D01*
X12559220Y-11313930D02*
X12518580Y-11354570D01*
X12645580Y-11440930D02*
X12686220Y-11481570D01*
X12686220Y-11440930D02*
X12645580Y-11481570D01*
X12769380Y-11317130D02*
X12810020Y-11357770D01*
X12810020Y-11317130D02*
X12769380Y-11357770D01*
X12791580Y-11548930D02*
X12832220Y-11589570D01*
X12832220Y-11548930D02*
X12791580Y-11589570D01*
X12842380Y-9466130D02*
X12883020Y-9506770D01*
X12883020Y-9466130D02*
X12842380Y-9506770D01*
X12842380Y-9872530D02*
X12883020Y-9913170D01*
X12883020Y-9872530D02*
X12842380Y-9913170D01*
X12870980Y-11418730D02*
X12911620Y-11459370D01*
X12911620Y-11418730D02*
X12870980Y-11459370D01*
X12947180Y-11494930D02*
X12987820Y-11535570D01*
X12987820Y-11494930D02*
X12947180Y-11535570D01*
X12979580Y-10951530D02*
X13020220Y-10992170D01*
X13020220Y-10951530D02*
X12979580Y-10992170D01*
X13013267Y-10199093D02*
X13053907Y-10239733D01*
X13053907Y-10199093D02*
X13013267Y-10239733D01*
X13093880Y-10302480D02*
X13134520Y-10343120D01*
X13134520Y-10302480D02*
X13093880Y-10343120D01*
X13093880Y-10412230D02*
X13134520Y-10452870D01*
X13134520Y-10412230D02*
X13093880Y-10452870D01*
X13112180Y-10717330D02*
X13152820Y-10757970D01*
X13152820Y-10717330D02*
X13112180Y-10757970D01*
X13239180Y-10844330D02*
X13279820Y-10884970D01*
X13279820Y-10844330D02*
X13239180Y-10884970D01*
X13360580Y-10875330D02*
X13401220Y-10915970D01*
X13401220Y-10875330D02*
X13360580Y-10915970D01*
X14412680Y-11375680D02*
X14453320Y-11416320D01*
X14453320Y-11375680D02*
X14412680Y-11416320D01*
X14489855Y-9046505D02*
X14530495Y-9087145D01*
X14530495Y-9046505D02*
X14489855Y-9087145D01*
X14544680Y-11511680D02*
X14585320Y-11552320D01*
X14585320Y-11511680D02*
X14544680Y-11552320D01*
X14546680Y-11142680D02*
X14587320Y-11183320D01*
X14587320Y-11142680D02*
X14546680Y-11183320D01*
X16019780Y-12065680D02*
X16060420Y-12106320D01*
X16060420Y-12065680D02*
X16019780Y-12106320D01*
X16019780Y-12141880D02*
X16060420Y-12182520D01*
X16060420Y-12141880D02*
X16019780Y-12182520D01*
X16111680Y-9206730D02*
X16152320Y-9247370D01*
X16152320Y-9206730D02*
X16111680Y-9247370D01*
X16113680Y-9116680D02*
X16154320Y-9157320D01*
X16154320Y-9116680D02*
X16113680Y-9157320D01*
X11743100Y-9022600D02*
G75*
G03*
X11743100Y-9022600I-38100J0D01*
G01*
X11743100Y-9276600D02*
G75*
G03*
X11743100Y-9276600I-38100J0D01*
G01*
X11743100Y-9530600D02*
G75*
G03*
X11743100Y-9530600I-38100J0D01*
G01*
X11743100Y-9784600D02*
G75*
G03*
X11743100Y-9784600I-38100J0D01*
G01*
X11743100Y-10038600D02*
G75*
G03*
X11743100Y-10038600I-38100J0D01*
G01*
X11743100Y-10292600D02*
G75*
G03*
X11743100Y-10292600I-38100J0D01*
G01*
X11743100Y-10546600D02*
G75*
G03*
X11743100Y-10546600I-38100J0D01*
G01*
X11743100Y-10800600D02*
G75*
G03*
X11743100Y-10800600I-38100J0D01*
G01*
X11743100Y-11054600D02*
G75*
G03*
X11743100Y-11054600I-38100J0D01*
G01*
X11743100Y-11308600D02*
G75*
G03*
X11743100Y-11308600I-38100J0D01*
G01*
X11743100Y-11562600D02*
G75*
G03*
X11743100Y-11562600I-38100J0D01*
G01*
X11743100Y-11816600D02*
G75*
G03*
X11743100Y-11816600I-38100J0D01*
G01*
X11743100Y-12070600D02*
G75*
G03*
X11743100Y-12070600I-38100J0D01*
G01*
X11743100Y-12324600D02*
G75*
G03*
X11743100Y-12324600I-38100J0D01*
G01*
X11743100Y-12578600D02*
G75*
G03*
X11743100Y-12578600I-38100J0D01*
G01*
X13399450Y-8676000D02*
G75*
G03*
X13399450Y-8676000I-38100J0D01*
G01*
X13653450Y-8676000D02*
G75*
G03*
X13653450Y-8676000I-38100J0D01*
G01*
X13907450Y-8676000D02*
G75*
G03*
X13907450Y-8676000I-38100J0D01*
G01*
X14161450Y-8676000D02*
G75*
G03*
X14161450Y-8676000I-38100J0D01*
G01*
X14293100Y-9022600D02*
G75*
G03*
X14293100Y-9022600I-38100J0D01*
G01*
X14293100Y-9276600D02*
G75*
G03*
X14293100Y-9276600I-38100J0D01*
G01*
X14293100Y-9530600D02*
G75*
G03*
X14293100Y-9530600I-38100J0D01*
G01*
X14293100Y-9784600D02*
G75*
G03*
X14293100Y-9784600I-38100J0D01*
G01*
X14293100Y-10038600D02*
G75*
G03*
X14293100Y-10038600I-38100J0D01*
G01*
X14293100Y-10292600D02*
G75*
G03*
X14293100Y-10292600I-38100J0D01*
G01*
X14293100Y-10546600D02*
G75*
G03*
X14293100Y-10546600I-38100J0D01*
G01*
X14293100Y-10800600D02*
G75*
G03*
X14293100Y-10800600I-38100J0D01*
G01*
X14293100Y-11054600D02*
G75*
G03*
X14293100Y-11054600I-38100J0D01*
G01*
X14293100Y-11308600D02*
G75*
G03*
X14293100Y-11308600I-38100J0D01*
G01*
X14293100Y-11562600D02*
G75*
G03*
X14293100Y-11562600I-38100J0D01*
G01*
X14293100Y-11816600D02*
G75*
G03*
X14293100Y-11816600I-38100J0D01*
G01*
X14293100Y-12070600D02*
G75*
G03*
X14293100Y-12070600I-38100J0D01*
G01*
X14293100Y-12324600D02*
G75*
G03*
X14293100Y-12324600I-38100J0D01*
G01*
X14293100Y-12578600D02*
G75*
G03*
X14293100Y-12578600I-38100J0D01*
G01*
X12172000Y-8060000D02*
X12172000Y-8140000D01*
X12132000Y-8100000D02*
X12212000Y-8100000D01*
X12454000Y-7425000D02*
X12454000Y-7505000D01*
X12414000Y-7465000D02*
X12494000Y-7465000D01*
X13084867Y-7999667D02*
X13084867Y-7936733D01*
X13021933Y-7936733D01*
X13021933Y-7999667D01*
X13084867Y-7999667D01*
X13313867Y-7999667D02*
X13313867Y-7936733D01*
X13250933Y-7936733D01*
X13250933Y-7999667D01*
X13313867Y-7999667D01*
X13414867Y-7339667D02*
X13414867Y-7276733D01*
X13351933Y-7276733D01*
X13351933Y-7339667D01*
X13414867Y-7339667D01*
X13516467Y-7517667D02*
X13516467Y-7454733D01*
X13453533Y-7454733D01*
X13453533Y-7517667D01*
X13516467Y-7517667D01*
X13618067Y-7339667D02*
X13618067Y-7276733D01*
X13555133Y-7276733D01*
X13555133Y-7339667D01*
X13618067Y-7339667D01*
X13719667Y-7517667D02*
X13719667Y-7454733D01*
X13656733Y-7454733D01*
X13656733Y-7517667D01*
X13719667Y-7517667D01*
X13821267Y-7339667D02*
X13821267Y-7276733D01*
X13758333Y-7276733D01*
X13758333Y-7339667D01*
X13821267Y-7339667D01*
X13922867Y-7517667D02*
X13922867Y-7454733D01*
X13859933Y-7454733D01*
X13859933Y-7517667D01*
X13922867Y-7517667D01*
X14024467Y-7339667D02*
X14024467Y-7276733D01*
X13961533Y-7276733D01*
X13961533Y-7339667D01*
X14024467Y-7339667D01*
X14126067Y-7517667D02*
X14126067Y-7454733D01*
X14063133Y-7454733D01*
X14063133Y-7517667D01*
X14126067Y-7517667D01*
X14227867Y-7999667D02*
X14227867Y-7936733D01*
X14164933Y-7936733D01*
X14164933Y-7999667D01*
X14227867Y-7999667D01*
X14456867Y-7999667D02*
X14456867Y-7936733D01*
X14393933Y-7936733D01*
X14393933Y-7999667D01*
X14456867Y-7999667D01*
X11351400Y-12362200D02*
X11401400Y-12312200D01*
X11351400Y-12262200D01*
X11301400Y-12312200D01*
X11351400Y-12362200D01*
X12811900Y-11873250D02*
X12861900Y-11823250D01*
X12811900Y-11773250D01*
X12761900Y-11823250D01*
X12811900Y-11873250D01*
X13733200Y-11757950D02*
X13783200Y-11707950D01*
X13733200Y-11657950D01*
X13683200Y-11707950D01*
X13733200Y-11757950D01*
X12847900Y-7318700D02*
X13004900Y-7475700D01*
X13004900Y-7318700D02*
X12847900Y-7475700D01*
X13004900Y-7397200D02*
G75*
G03*
X13004900Y-7397200I-78500J0D01*
G01*
X14473900Y-7318700D02*
X14630900Y-7475700D01*
X14630900Y-7318700D02*
X14473900Y-7475700D01*
X14630900Y-7397200D02*
G75*
G03*
X14630900Y-7397200I-78500J0D01*
G01*
X10404000Y-7250000D02*
X10724000Y-7570000D01*
X10724000Y-7250000D02*
X10404000Y-7570000D01*
X10564000Y-7250000D02*
X10564000Y-7570000D01*
X10404000Y-7410000D02*
X10724000Y-7410000D01*
X10404000Y-12330000D02*
X10724000Y-12650000D01*
X10724000Y-12330000D02*
X10404000Y-12650000D01*
X10564000Y-12330000D02*
X10564000Y-12650000D01*
X10404000Y-12490000D02*
X10724000Y-12490000D01*
X16754000Y-7250000D02*
X17074000Y-7570000D01*
X17074000Y-7250000D02*
X16754000Y-7570000D01*
X16914000Y-7250000D02*
X16914000Y-7570000D01*
X16754000Y-7410000D02*
X17074000Y-7410000D01*
X16754000Y-12330000D02*
X17074000Y-12650000D01*
X17074000Y-12330000D02*
X16754000Y-12650000D01*
X16914000Y-12330000D02*
X16914000Y-12650000D01*
X16754000Y-12490000D02*
X17074000Y-12490000D01*
D12*
X10083428Y-13722714D02*
X10083428Y-13422714D01*
X10154857Y-13422714D01*
X10197714Y-13437000D01*
X10226286Y-13465571D01*
X10240571Y-13494143D01*
X10254857Y-13551286D01*
X10254857Y-13594143D01*
X10240571Y-13651286D01*
X10226286Y-13679857D01*
X10197714Y-13708429D01*
X10154857Y-13722714D01*
X10083428Y-13722714D01*
X10383428Y-13722714D02*
X10383428Y-13522714D01*
X10383428Y-13579857D02*
X10397714Y-13551286D01*
X10412000Y-13537000D01*
X10440571Y-13522714D01*
X10469143Y-13522714D01*
X10569143Y-13722714D02*
X10569143Y-13522714D01*
X10569143Y-13422714D02*
X10554857Y-13437000D01*
X10569143Y-13451286D01*
X10583428Y-13437000D01*
X10569143Y-13422714D01*
X10569143Y-13451286D01*
X10754857Y-13722714D02*
X10726286Y-13708429D01*
X10712000Y-13679857D01*
X10712000Y-13422714D01*
X10912000Y-13722714D02*
X10883428Y-13708429D01*
X10869143Y-13679857D01*
X10869143Y-13422714D01*
X11254857Y-13722714D02*
X11254857Y-13422714D01*
X11354857Y-13637000D01*
X11454857Y-13422714D01*
X11454857Y-13722714D01*
X11726286Y-13722714D02*
X11726286Y-13565571D01*
X11712000Y-13537000D01*
X11683428Y-13522714D01*
X11626286Y-13522714D01*
X11597714Y-13537000D01*
X11726286Y-13708429D02*
X11697714Y-13722714D01*
X11626286Y-13722714D01*
X11597714Y-13708429D01*
X11583428Y-13679857D01*
X11583428Y-13651286D01*
X11597714Y-13622714D01*
X11626286Y-13608429D01*
X11697714Y-13608429D01*
X11726286Y-13594143D01*
X11869143Y-13522714D02*
X11869143Y-13822714D01*
X11869143Y-13537000D02*
X11897714Y-13522714D01*
X11954857Y-13522714D01*
X11983428Y-13537000D01*
X11997714Y-13551286D01*
X12012000Y-13579857D01*
X12012000Y-13665571D01*
X11997714Y-13694143D01*
X11983428Y-13708429D01*
X11954857Y-13722714D01*
X11897714Y-13722714D01*
X11869143Y-13708429D01*
X12140571Y-13694143D02*
X12154857Y-13708429D01*
X12140571Y-13722714D01*
X12126286Y-13708429D01*
X12140571Y-13694143D01*
X12140571Y-13722714D01*
X12140571Y-13537000D02*
X12154857Y-13551286D01*
X12140571Y-13565571D01*
X12126286Y-13551286D01*
X12140571Y-13537000D01*
X12140571Y-13565571D01*
X9756360Y-14196680D02*
X9797000Y-14237320D01*
X9797000Y-14196680D02*
X9756360Y-14237320D01*
X10140571Y-14052714D02*
X10169143Y-14052714D01*
X10197714Y-14067000D01*
X10212000Y-14081286D01*
X10226286Y-14109857D01*
X10240571Y-14167000D01*
X10240571Y-14238429D01*
X10226286Y-14295571D01*
X10212000Y-14324143D01*
X10197714Y-14338429D01*
X10169143Y-14352714D01*
X10140571Y-14352714D01*
X10112000Y-14338429D01*
X10097714Y-14324143D01*
X10083428Y-14295571D01*
X10069143Y-14238429D01*
X10069143Y-14167000D01*
X10083428Y-14109857D01*
X10097714Y-14081286D01*
X10112000Y-14067000D01*
X10140571Y-14052714D01*
X10369143Y-14324143D02*
X10383428Y-14338429D01*
X10369143Y-14352714D01*
X10354857Y-14338429D01*
X10369143Y-14324143D01*
X10369143Y-14352714D01*
X10640571Y-14152714D02*
X10640571Y-14352714D01*
X10569143Y-14038429D02*
X10497714Y-14252714D01*
X10683428Y-14252714D01*
X10854857Y-14052714D02*
X10883428Y-14052714D01*
X10912000Y-14067000D01*
X10926286Y-14081286D01*
X10940571Y-14109857D01*
X10954857Y-14167000D01*
X10954857Y-14238429D01*
X10940571Y-14295571D01*
X10926286Y-14324143D01*
X10912000Y-14338429D01*
X10883428Y-14352714D01*
X10854857Y-14352714D01*
X10826286Y-14338429D01*
X10812000Y-14324143D01*
X10797714Y-14295571D01*
X10783428Y-14238429D01*
X10783428Y-14167000D01*
X10797714Y-14109857D01*
X10812000Y-14081286D01*
X10826286Y-14067000D01*
X10854857Y-14052714D01*
X11212000Y-14052714D02*
X11154857Y-14052714D01*
X11126286Y-14067000D01*
X11112000Y-14081286D01*
X11083428Y-14124143D01*
X11069143Y-14181286D01*
X11069143Y-14295571D01*
X11083428Y-14324143D01*
X11097714Y-14338429D01*
X11126286Y-14352714D01*
X11183428Y-14352714D01*
X11212000Y-14338429D01*
X11226286Y-14324143D01*
X11240571Y-14295571D01*
X11240571Y-14224143D01*
X11226286Y-14195571D01*
X11212000Y-14181286D01*
X11183428Y-14167000D01*
X11126286Y-14167000D01*
X11097714Y-14181286D01*
X11083428Y-14195571D01*
X11069143Y-14224143D01*
X11369143Y-14352714D02*
X11369143Y-14152714D01*
X11369143Y-14181286D02*
X11383428Y-14167000D01*
X11412000Y-14152714D01*
X11454857Y-14152714D01*
X11483428Y-14167000D01*
X11497714Y-14195571D01*
X11497714Y-14352714D01*
X11497714Y-14195571D02*
X11512000Y-14167000D01*
X11540571Y-14152714D01*
X11583428Y-14152714D01*
X11612000Y-14167000D01*
X11626286Y-14195571D01*
X11626286Y-14352714D01*
X11769143Y-14352714D02*
X11769143Y-14152714D01*
X11769143Y-14181286D02*
X11783428Y-14167000D01*
X11812000Y-14152714D01*
X11854857Y-14152714D01*
X11883428Y-14167000D01*
X11897714Y-14195571D01*
X11897714Y-14352714D01*
X11897714Y-14195571D02*
X11912000Y-14167000D01*
X11940571Y-14152714D01*
X11983428Y-14152714D01*
X12012000Y-14167000D01*
X12026286Y-14195571D01*
X12026286Y-14352714D01*
X12612000Y-14038429D02*
X12354857Y-14424143D01*
X12997714Y-14052714D02*
X13026286Y-14052714D01*
X13054857Y-14067000D01*
X13069143Y-14081286D01*
X13083428Y-14109857D01*
X13097714Y-14167000D01*
X13097714Y-14238429D01*
X13083428Y-14295571D01*
X13069143Y-14324143D01*
X13054857Y-14338429D01*
X13026286Y-14352714D01*
X12997714Y-14352714D01*
X12969143Y-14338429D01*
X12954857Y-14324143D01*
X12940571Y-14295571D01*
X12926286Y-14238429D01*
X12926286Y-14167000D01*
X12940571Y-14109857D01*
X12954857Y-14081286D01*
X12969143Y-14067000D01*
X12997714Y-14052714D01*
X13226286Y-14324143D02*
X13240571Y-14338429D01*
X13226286Y-14352714D01*
X13212000Y-14338429D01*
X13226286Y-14324143D01*
X13226286Y-14352714D01*
X13426286Y-14052714D02*
X13454857Y-14052714D01*
X13483428Y-14067000D01*
X13497714Y-14081286D01*
X13512000Y-14109857D01*
X13526286Y-14167000D01*
X13526286Y-14238429D01*
X13512000Y-14295571D01*
X13497714Y-14324143D01*
X13483428Y-14338429D01*
X13454857Y-14352714D01*
X13426286Y-14352714D01*
X13397714Y-14338429D01*
X13383428Y-14324143D01*
X13369143Y-14295571D01*
X13354857Y-14238429D01*
X13354857Y-14167000D01*
X13369143Y-14109857D01*
X13383428Y-14081286D01*
X13397714Y-14067000D01*
X13426286Y-14052714D01*
X13812000Y-14352714D02*
X13640571Y-14352714D01*
X13726286Y-14352714D02*
X13726286Y-14052714D01*
X13697714Y-14095571D01*
X13669143Y-14124143D01*
X13640571Y-14138429D01*
X14069143Y-14052714D02*
X14012000Y-14052714D01*
X13983428Y-14067000D01*
X13969143Y-14081286D01*
X13940571Y-14124143D01*
X13926286Y-14181286D01*
X13926286Y-14295571D01*
X13940571Y-14324143D01*
X13954857Y-14338429D01*
X13983428Y-14352714D01*
X14040571Y-14352714D01*
X14069143Y-14338429D01*
X14083428Y-14324143D01*
X14097714Y-14295571D01*
X14097714Y-14224143D01*
X14083428Y-14195571D01*
X14069143Y-14181286D01*
X14040571Y-14167000D01*
X13983428Y-14167000D01*
X13954857Y-14181286D01*
X13940571Y-14195571D01*
X13926286Y-14224143D01*
X14283428Y-14052714D02*
X14312000Y-14052714D01*
X14340571Y-14067000D01*
X14354857Y-14081286D01*
X14369143Y-14109857D01*
X14383428Y-14167000D01*
X14383428Y-14238429D01*
X14369143Y-14295571D01*
X14354857Y-14324143D01*
X14340571Y-14338429D01*
X14312000Y-14352714D01*
X14283428Y-14352714D01*
X14254857Y-14338429D01*
X14240571Y-14324143D01*
X14226286Y-14295571D01*
X14212000Y-14238429D01*
X14212000Y-14167000D01*
X14226286Y-14109857D01*
X14240571Y-14081286D01*
X14254857Y-14067000D01*
X14283428Y-14052714D01*
X14497714Y-14052714D02*
X14497714Y-14109857D01*
X14612000Y-14052714D02*
X14612000Y-14109857D01*
X15054857Y-14467000D02*
X15040571Y-14452714D01*
X15012000Y-14409857D01*
X14997714Y-14381286D01*
X14983428Y-14338429D01*
X14969143Y-14267000D01*
X14969143Y-14209857D01*
X14983428Y-14138429D01*
X14997714Y-14095571D01*
X15012000Y-14067000D01*
X15040571Y-14024143D01*
X15054857Y-14009857D01*
X15154857Y-14081286D02*
X15169143Y-14067000D01*
X15197714Y-14052714D01*
X15269143Y-14052714D01*
X15297714Y-14067000D01*
X15312000Y-14081286D01*
X15326286Y-14109857D01*
X15326286Y-14138429D01*
X15312000Y-14181286D01*
X15140571Y-14352714D01*
X15326286Y-14352714D01*
X15426286Y-14052714D02*
X15626286Y-14052714D01*
X15497714Y-14352714D01*
X15969143Y-14352714D02*
X15969143Y-14052714D01*
X16097714Y-14352714D02*
X16097714Y-14195571D01*
X16083428Y-14167000D01*
X16054857Y-14152714D01*
X16012000Y-14152714D01*
X15983428Y-14167000D01*
X15969143Y-14181286D01*
X16283428Y-14352714D02*
X16254857Y-14338429D01*
X16240571Y-14324143D01*
X16226286Y-14295571D01*
X16226286Y-14209857D01*
X16240571Y-14181286D01*
X16254857Y-14167000D01*
X16283428Y-14152714D01*
X16326286Y-14152714D01*
X16354857Y-14167000D01*
X16369143Y-14181286D01*
X16383428Y-14209857D01*
X16383428Y-14295571D01*
X16369143Y-14324143D01*
X16354857Y-14338429D01*
X16326286Y-14352714D01*
X16283428Y-14352714D01*
X16554857Y-14352714D02*
X16526286Y-14338429D01*
X16512000Y-14309857D01*
X16512000Y-14052714D01*
X16783428Y-14338429D02*
X16754857Y-14352714D01*
X16697714Y-14352714D01*
X16669143Y-14338429D01*
X16654857Y-14309857D01*
X16654857Y-14195571D01*
X16669143Y-14167000D01*
X16697714Y-14152714D01*
X16754857Y-14152714D01*
X16783428Y-14167000D01*
X16797714Y-14195571D01*
X16797714Y-14224143D01*
X16654857Y-14252714D01*
X16912000Y-14338429D02*
X16940571Y-14352714D01*
X16997714Y-14352714D01*
X17026286Y-14338429D01*
X17040571Y-14309857D01*
X17040571Y-14295571D01*
X17026286Y-14267000D01*
X16997714Y-14252714D01*
X16954857Y-14252714D01*
X16926286Y-14238429D01*
X16912000Y-14209857D01*
X16912000Y-14195571D01*
X16926286Y-14167000D01*
X16954857Y-14152714D01*
X16997714Y-14152714D01*
X17026286Y-14167000D01*
X17140571Y-14467000D02*
X17154857Y-14452714D01*
X17183428Y-14409857D01*
X17197714Y-14381286D01*
X17212000Y-14338429D01*
X17226286Y-14267000D01*
X17226286Y-14209857D01*
X17212000Y-14138429D01*
X17197714Y-14095571D01*
X17183428Y-14067000D01*
X17154857Y-14024143D01*
X17140571Y-14009857D01*
X9797000Y-14613000D02*
G75*
G03*
X9797000Y-14613000I-38100J0D01*
G01*
X10140571Y-14448714D02*
X10169143Y-14448714D01*
X10197714Y-14463000D01*
X10212000Y-14477286D01*
X10226286Y-14505857D01*
X10240571Y-14563000D01*
X10240571Y-14634429D01*
X10226286Y-14691571D01*
X10212000Y-14720143D01*
X10197714Y-14734429D01*
X10169143Y-14748714D01*
X10140571Y-14748714D01*
X10112000Y-14734429D01*
X10097714Y-14720143D01*
X10083428Y-14691571D01*
X10069143Y-14634429D01*
X10069143Y-14563000D01*
X10083428Y-14505857D01*
X10097714Y-14477286D01*
X10112000Y-14463000D01*
X10140571Y-14448714D01*
X10369143Y-14720143D02*
X10383428Y-14734429D01*
X10369143Y-14748714D01*
X10354857Y-14734429D01*
X10369143Y-14720143D01*
X10369143Y-14748714D01*
X10483428Y-14448714D02*
X10683428Y-14448714D01*
X10554857Y-14748714D01*
X10926286Y-14448714D02*
X10869143Y-14448714D01*
X10840571Y-14463000D01*
X10826286Y-14477286D01*
X10797714Y-14520143D01*
X10783428Y-14577286D01*
X10783428Y-14691571D01*
X10797714Y-14720143D01*
X10812000Y-14734429D01*
X10840571Y-14748714D01*
X10897714Y-14748714D01*
X10926286Y-14734429D01*
X10940571Y-14720143D01*
X10954857Y-14691571D01*
X10954857Y-14620143D01*
X10940571Y-14591571D01*
X10926286Y-14577286D01*
X10897714Y-14563000D01*
X10840571Y-14563000D01*
X10812000Y-14577286D01*
X10797714Y-14591571D01*
X10783428Y-14620143D01*
X11069143Y-14477286D02*
X11083428Y-14463000D01*
X11112000Y-14448714D01*
X11183428Y-14448714D01*
X11212000Y-14463000D01*
X11226286Y-14477286D01*
X11240571Y-14505857D01*
X11240571Y-14534429D01*
X11226286Y-14577286D01*
X11054857Y-14748714D01*
X11240571Y-14748714D01*
X11369143Y-14748714D02*
X11369143Y-14548714D01*
X11369143Y-14577286D02*
X11383428Y-14563000D01*
X11412000Y-14548714D01*
X11454857Y-14548714D01*
X11483428Y-14563000D01*
X11497714Y-14591571D01*
X11497714Y-14748714D01*
X11497714Y-14591571D02*
X11512000Y-14563000D01*
X11540571Y-14548714D01*
X11583428Y-14548714D01*
X11612000Y-14563000D01*
X11626286Y-14591571D01*
X11626286Y-14748714D01*
X11769143Y-14748714D02*
X11769143Y-14548714D01*
X11769143Y-14577286D02*
X11783428Y-14563000D01*
X11812000Y-14548714D01*
X11854857Y-14548714D01*
X11883428Y-14563000D01*
X11897714Y-14591571D01*
X11897714Y-14748714D01*
X11897714Y-14591571D02*
X11912000Y-14563000D01*
X11940571Y-14548714D01*
X11983428Y-14548714D01*
X12012000Y-14563000D01*
X12026286Y-14591571D01*
X12026286Y-14748714D01*
X12612000Y-14434429D02*
X12354857Y-14820143D01*
X12997714Y-14448714D02*
X13026286Y-14448714D01*
X13054857Y-14463000D01*
X13069143Y-14477286D01*
X13083428Y-14505857D01*
X13097714Y-14563000D01*
X13097714Y-14634429D01*
X13083428Y-14691571D01*
X13069143Y-14720143D01*
X13054857Y-14734429D01*
X13026286Y-14748714D01*
X12997714Y-14748714D01*
X12969143Y-14734429D01*
X12954857Y-14720143D01*
X12940571Y-14691571D01*
X12926286Y-14634429D01*
X12926286Y-14563000D01*
X12940571Y-14505857D01*
X12954857Y-14477286D01*
X12969143Y-14463000D01*
X12997714Y-14448714D01*
X13226286Y-14720143D02*
X13240571Y-14734429D01*
X13226286Y-14748714D01*
X13212000Y-14734429D01*
X13226286Y-14720143D01*
X13226286Y-14748714D01*
X13426286Y-14448714D02*
X13454857Y-14448714D01*
X13483428Y-14463000D01*
X13497714Y-14477286D01*
X13512000Y-14505857D01*
X13526286Y-14563000D01*
X13526286Y-14634429D01*
X13512000Y-14691571D01*
X13497714Y-14720143D01*
X13483428Y-14734429D01*
X13454857Y-14748714D01*
X13426286Y-14748714D01*
X13397714Y-14734429D01*
X13383428Y-14720143D01*
X13369143Y-14691571D01*
X13354857Y-14634429D01*
X13354857Y-14563000D01*
X13369143Y-14505857D01*
X13383428Y-14477286D01*
X13397714Y-14463000D01*
X13426286Y-14448714D01*
X13626286Y-14448714D02*
X13812000Y-14448714D01*
X13712000Y-14563000D01*
X13754857Y-14563000D01*
X13783428Y-14577286D01*
X13797714Y-14591571D01*
X13812000Y-14620143D01*
X13812000Y-14691571D01*
X13797714Y-14720143D01*
X13783428Y-14734429D01*
X13754857Y-14748714D01*
X13669143Y-14748714D01*
X13640571Y-14734429D01*
X13626286Y-14720143D01*
X13997714Y-14448714D02*
X14026286Y-14448714D01*
X14054857Y-14463000D01*
X14069143Y-14477286D01*
X14083428Y-14505857D01*
X14097714Y-14563000D01*
X14097714Y-14634429D01*
X14083428Y-14691571D01*
X14069143Y-14720143D01*
X14054857Y-14734429D01*
X14026286Y-14748714D01*
X13997714Y-14748714D01*
X13969143Y-14734429D01*
X13954857Y-14720143D01*
X13940571Y-14691571D01*
X13926286Y-14634429D01*
X13926286Y-14563000D01*
X13940571Y-14505857D01*
X13954857Y-14477286D01*
X13969143Y-14463000D01*
X13997714Y-14448714D01*
X14283428Y-14448714D02*
X14312000Y-14448714D01*
X14340571Y-14463000D01*
X14354857Y-14477286D01*
X14369143Y-14505857D01*
X14383428Y-14563000D01*
X14383428Y-14634429D01*
X14369143Y-14691571D01*
X14354857Y-14720143D01*
X14340571Y-14734429D01*
X14312000Y-14748714D01*
X14283428Y-14748714D01*
X14254857Y-14734429D01*
X14240571Y-14720143D01*
X14226286Y-14691571D01*
X14212000Y-14634429D01*
X14212000Y-14563000D01*
X14226286Y-14505857D01*
X14240571Y-14477286D01*
X14254857Y-14463000D01*
X14283428Y-14448714D01*
X14497714Y-14448714D02*
X14497714Y-14505857D01*
X14612000Y-14448714D02*
X14612000Y-14505857D01*
X15054857Y-14863000D02*
X15040571Y-14848714D01*
X15012000Y-14805857D01*
X14997714Y-14777286D01*
X14983428Y-14734429D01*
X14969143Y-14663000D01*
X14969143Y-14605857D01*
X14983428Y-14534429D01*
X14997714Y-14491571D01*
X15012000Y-14463000D01*
X15040571Y-14420143D01*
X15054857Y-14405857D01*
X15140571Y-14448714D02*
X15326286Y-14448714D01*
X15226286Y-14563000D01*
X15269143Y-14563000D01*
X15297714Y-14577286D01*
X15312000Y-14591571D01*
X15326286Y-14620143D01*
X15326286Y-14691571D01*
X15312000Y-14720143D01*
X15297714Y-14734429D01*
X15269143Y-14748714D01*
X15183428Y-14748714D01*
X15154857Y-14734429D01*
X15140571Y-14720143D01*
X15583428Y-14548714D02*
X15583428Y-14748714D01*
X15512000Y-14434429D02*
X15440571Y-14648714D01*
X15626286Y-14648714D01*
X15969143Y-14748714D02*
X15969143Y-14448714D01*
X16097714Y-14748714D02*
X16097714Y-14591571D01*
X16083428Y-14563000D01*
X16054857Y-14548714D01*
X16012000Y-14548714D01*
X15983428Y-14563000D01*
X15969143Y-14577286D01*
X16283428Y-14748714D02*
X16254857Y-14734429D01*
X16240571Y-14720143D01*
X16226286Y-14691571D01*
X16226286Y-14605857D01*
X16240571Y-14577286D01*
X16254857Y-14563000D01*
X16283428Y-14548714D01*
X16326286Y-14548714D01*
X16354857Y-14563000D01*
X16369143Y-14577286D01*
X16383428Y-14605857D01*
X16383428Y-14691571D01*
X16369143Y-14720143D01*
X16354857Y-14734429D01*
X16326286Y-14748714D01*
X16283428Y-14748714D01*
X16554857Y-14748714D02*
X16526286Y-14734429D01*
X16512000Y-14705857D01*
X16512000Y-14448714D01*
X16783428Y-14734429D02*
X16754857Y-14748714D01*
X16697714Y-14748714D01*
X16669143Y-14734429D01*
X16654857Y-14705857D01*
X16654857Y-14591571D01*
X16669143Y-14563000D01*
X16697714Y-14548714D01*
X16754857Y-14548714D01*
X16783428Y-14563000D01*
X16797714Y-14591571D01*
X16797714Y-14620143D01*
X16654857Y-14648714D01*
X16912000Y-14734429D02*
X16940571Y-14748714D01*
X16997714Y-14748714D01*
X17026286Y-14734429D01*
X17040571Y-14705857D01*
X17040571Y-14691571D01*
X17026286Y-14663000D01*
X16997714Y-14648714D01*
X16954857Y-14648714D01*
X16926286Y-14634429D01*
X16912000Y-14605857D01*
X16912000Y-14591571D01*
X16926286Y-14563000D01*
X16954857Y-14548714D01*
X16997714Y-14548714D01*
X17026286Y-14563000D01*
X17140571Y-14863000D02*
X17154857Y-14848714D01*
X17183428Y-14805857D01*
X17197714Y-14777286D01*
X17212000Y-14734429D01*
X17226286Y-14663000D01*
X17226286Y-14605857D01*
X17212000Y-14534429D01*
X17197714Y-14491571D01*
X17183428Y-14463000D01*
X17154857Y-14420143D01*
X17140571Y-14405857D01*
X9757000Y-14969000D02*
X9757000Y-15049000D01*
X9717000Y-15009000D02*
X9797000Y-15009000D01*
X10140571Y-14844714D02*
X10169143Y-14844714D01*
X10197714Y-14859000D01*
X10212000Y-14873286D01*
X10226286Y-14901857D01*
X10240571Y-14959000D01*
X10240571Y-15030429D01*
X10226286Y-15087571D01*
X10212000Y-15116143D01*
X10197714Y-15130429D01*
X10169143Y-15144714D01*
X10140571Y-15144714D01*
X10112000Y-15130429D01*
X10097714Y-15116143D01*
X10083428Y-15087571D01*
X10069143Y-15030429D01*
X10069143Y-14959000D01*
X10083428Y-14901857D01*
X10097714Y-14873286D01*
X10112000Y-14859000D01*
X10140571Y-14844714D01*
X10369143Y-15116143D02*
X10383428Y-15130429D01*
X10369143Y-15144714D01*
X10354857Y-15130429D01*
X10369143Y-15116143D01*
X10369143Y-15144714D01*
X10554857Y-14973286D02*
X10526286Y-14959000D01*
X10512000Y-14944714D01*
X10497714Y-14916143D01*
X10497714Y-14901857D01*
X10512000Y-14873286D01*
X10526286Y-14859000D01*
X10554857Y-14844714D01*
X10612000Y-14844714D01*
X10640571Y-14859000D01*
X10654857Y-14873286D01*
X10669143Y-14901857D01*
X10669143Y-14916143D01*
X10654857Y-14944714D01*
X10640571Y-14959000D01*
X10612000Y-14973286D01*
X10554857Y-14973286D01*
X10526286Y-14987571D01*
X10512000Y-15001857D01*
X10497714Y-15030429D01*
X10497714Y-15087571D01*
X10512000Y-15116143D01*
X10526286Y-15130429D01*
X10554857Y-15144714D01*
X10612000Y-15144714D01*
X10640571Y-15130429D01*
X10654857Y-15116143D01*
X10669143Y-15087571D01*
X10669143Y-15030429D01*
X10654857Y-15001857D01*
X10640571Y-14987571D01*
X10612000Y-14973286D01*
X10854857Y-14844714D02*
X10883428Y-14844714D01*
X10912000Y-14859000D01*
X10926286Y-14873286D01*
X10940571Y-14901857D01*
X10954857Y-14959000D01*
X10954857Y-15030429D01*
X10940571Y-15087571D01*
X10926286Y-15116143D01*
X10912000Y-15130429D01*
X10883428Y-15144714D01*
X10854857Y-15144714D01*
X10826286Y-15130429D01*
X10812000Y-15116143D01*
X10797714Y-15087571D01*
X10783428Y-15030429D01*
X10783428Y-14959000D01*
X10797714Y-14901857D01*
X10812000Y-14873286D01*
X10826286Y-14859000D01*
X10854857Y-14844714D01*
X11140571Y-14844714D02*
X11169143Y-14844714D01*
X11197714Y-14859000D01*
X11212000Y-14873286D01*
X11226286Y-14901857D01*
X11240571Y-14959000D01*
X11240571Y-15030429D01*
X11226286Y-15087571D01*
X11212000Y-15116143D01*
X11197714Y-15130429D01*
X11169143Y-15144714D01*
X11140571Y-15144714D01*
X11112000Y-15130429D01*
X11097714Y-15116143D01*
X11083428Y-15087571D01*
X11069143Y-15030429D01*
X11069143Y-14959000D01*
X11083428Y-14901857D01*
X11097714Y-14873286D01*
X11112000Y-14859000D01*
X11140571Y-14844714D01*
X11369143Y-15144714D02*
X11369143Y-14944714D01*
X11369143Y-14973286D02*
X11383428Y-14959000D01*
X11412000Y-14944714D01*
X11454857Y-14944714D01*
X11483428Y-14959000D01*
X11497714Y-14987571D01*
X11497714Y-15144714D01*
X11497714Y-14987571D02*
X11512000Y-14959000D01*
X11540571Y-14944714D01*
X11583428Y-14944714D01*
X11612000Y-14959000D01*
X11626286Y-14987571D01*
X11626286Y-15144714D01*
X11769143Y-15144714D02*
X11769143Y-14944714D01*
X11769143Y-14973286D02*
X11783428Y-14959000D01*
X11812000Y-14944714D01*
X11854857Y-14944714D01*
X11883428Y-14959000D01*
X11897714Y-14987571D01*
X11897714Y-15144714D01*
X11897714Y-14987571D02*
X11912000Y-14959000D01*
X11940571Y-14944714D01*
X11983428Y-14944714D01*
X12012000Y-14959000D01*
X12026286Y-14987571D01*
X12026286Y-15144714D01*
X12612000Y-14830429D02*
X12354857Y-15216143D01*
X12997714Y-14844714D02*
X13026286Y-14844714D01*
X13054857Y-14859000D01*
X13069143Y-14873286D01*
X13083428Y-14901857D01*
X13097714Y-14959000D01*
X13097714Y-15030429D01*
X13083428Y-15087571D01*
X13069143Y-15116143D01*
X13054857Y-15130429D01*
X13026286Y-15144714D01*
X12997714Y-15144714D01*
X12969143Y-15130429D01*
X12954857Y-15116143D01*
X12940571Y-15087571D01*
X12926286Y-15030429D01*
X12926286Y-14959000D01*
X12940571Y-14901857D01*
X12954857Y-14873286D01*
X12969143Y-14859000D01*
X12997714Y-14844714D01*
X13226286Y-15116143D02*
X13240571Y-15130429D01*
X13226286Y-15144714D01*
X13212000Y-15130429D01*
X13226286Y-15116143D01*
X13226286Y-15144714D01*
X13426286Y-14844714D02*
X13454857Y-14844714D01*
X13483428Y-14859000D01*
X13497714Y-14873286D01*
X13512000Y-14901857D01*
X13526286Y-14959000D01*
X13526286Y-15030429D01*
X13512000Y-15087571D01*
X13497714Y-15116143D01*
X13483428Y-15130429D01*
X13454857Y-15144714D01*
X13426286Y-15144714D01*
X13397714Y-15130429D01*
X13383428Y-15116143D01*
X13369143Y-15087571D01*
X13354857Y-15030429D01*
X13354857Y-14959000D01*
X13369143Y-14901857D01*
X13383428Y-14873286D01*
X13397714Y-14859000D01*
X13426286Y-14844714D01*
X13626286Y-14844714D02*
X13812000Y-14844714D01*
X13712000Y-14959000D01*
X13754857Y-14959000D01*
X13783428Y-14973286D01*
X13797714Y-14987571D01*
X13812000Y-15016143D01*
X13812000Y-15087571D01*
X13797714Y-15116143D01*
X13783428Y-15130429D01*
X13754857Y-15144714D01*
X13669143Y-15144714D01*
X13640571Y-15130429D01*
X13626286Y-15116143D01*
X14097714Y-15144714D02*
X13926286Y-15144714D01*
X14012000Y-15144714D02*
X14012000Y-14844714D01*
X13983428Y-14887571D01*
X13954857Y-14916143D01*
X13926286Y-14930429D01*
X14369143Y-14844714D02*
X14226286Y-14844714D01*
X14212000Y-14987571D01*
X14226286Y-14973286D01*
X14254857Y-14959000D01*
X14326286Y-14959000D01*
X14354857Y-14973286D01*
X14369143Y-14987571D01*
X14383428Y-15016143D01*
X14383428Y-15087571D01*
X14369143Y-15116143D01*
X14354857Y-15130429D01*
X14326286Y-15144714D01*
X14254857Y-15144714D01*
X14226286Y-15130429D01*
X14212000Y-15116143D01*
X14497714Y-14844714D02*
X14497714Y-14901857D01*
X14612000Y-14844714D02*
X14612000Y-14901857D01*
X15054857Y-15259000D02*
X15040571Y-15244714D01*
X15012000Y-15201857D01*
X14997714Y-15173286D01*
X14983428Y-15130429D01*
X14969143Y-15059000D01*
X14969143Y-15001857D01*
X14983428Y-14930429D01*
X14997714Y-14887571D01*
X15012000Y-14859000D01*
X15040571Y-14816143D01*
X15054857Y-14801857D01*
X15154857Y-14873286D02*
X15169143Y-14859000D01*
X15197714Y-14844714D01*
X15269143Y-14844714D01*
X15297714Y-14859000D01*
X15312000Y-14873286D01*
X15326286Y-14901857D01*
X15326286Y-14930429D01*
X15312000Y-14973286D01*
X15140571Y-15144714D01*
X15326286Y-15144714D01*
X15683428Y-15144714D02*
X15683428Y-14844714D01*
X15812000Y-15144714D02*
X15812000Y-14987571D01*
X15797714Y-14959000D01*
X15769143Y-14944714D01*
X15726286Y-14944714D01*
X15697714Y-14959000D01*
X15683428Y-14973286D01*
X15997714Y-15144714D02*
X15969143Y-15130429D01*
X15954857Y-15116143D01*
X15940571Y-15087571D01*
X15940571Y-15001857D01*
X15954857Y-14973286D01*
X15969143Y-14959000D01*
X15997714Y-14944714D01*
X16040571Y-14944714D01*
X16069143Y-14959000D01*
X16083428Y-14973286D01*
X16097714Y-15001857D01*
X16097714Y-15087571D01*
X16083428Y-15116143D01*
X16069143Y-15130429D01*
X16040571Y-15144714D01*
X15997714Y-15144714D01*
X16269143Y-15144714D02*
X16240571Y-15130429D01*
X16226286Y-15101857D01*
X16226286Y-14844714D01*
X16497714Y-15130429D02*
X16469143Y-15144714D01*
X16412000Y-15144714D01*
X16383428Y-15130429D01*
X16369143Y-15101857D01*
X16369143Y-14987571D01*
X16383428Y-14959000D01*
X16412000Y-14944714D01*
X16469143Y-14944714D01*
X16497714Y-14959000D01*
X16512000Y-14987571D01*
X16512000Y-15016143D01*
X16369143Y-15044714D01*
X16626286Y-15130429D02*
X16654857Y-15144714D01*
X16712000Y-15144714D01*
X16740571Y-15130429D01*
X16754857Y-15101857D01*
X16754857Y-15087571D01*
X16740571Y-15059000D01*
X16712000Y-15044714D01*
X16669143Y-15044714D01*
X16640571Y-15030429D01*
X16626286Y-15001857D01*
X16626286Y-14987571D01*
X16640571Y-14959000D01*
X16669143Y-14944714D01*
X16712000Y-14944714D01*
X16740571Y-14959000D01*
X16854857Y-15259000D02*
X16869143Y-15244714D01*
X16897714Y-15201857D01*
X16912000Y-15173286D01*
X16926286Y-15130429D01*
X16940571Y-15059000D01*
X16940571Y-15001857D01*
X16926286Y-14930429D01*
X16912000Y-14887571D01*
X16897714Y-14859000D01*
X16869143Y-14816143D01*
X16854857Y-14801857D01*
X9783967Y-15436467D02*
X9783967Y-15373533D01*
X9721033Y-15373533D01*
X9721033Y-15436467D01*
X9783967Y-15436467D01*
X10140571Y-15240714D02*
X10169143Y-15240714D01*
X10197714Y-15255000D01*
X10212000Y-15269286D01*
X10226286Y-15297857D01*
X10240571Y-15355000D01*
X10240571Y-15426429D01*
X10226286Y-15483571D01*
X10212000Y-15512143D01*
X10197714Y-15526429D01*
X10169143Y-15540714D01*
X10140571Y-15540714D01*
X10112000Y-15526429D01*
X10097714Y-15512143D01*
X10083428Y-15483571D01*
X10069143Y-15426429D01*
X10069143Y-15355000D01*
X10083428Y-15297857D01*
X10097714Y-15269286D01*
X10112000Y-15255000D01*
X10140571Y-15240714D01*
X10369143Y-15512143D02*
X10383428Y-15526429D01*
X10369143Y-15540714D01*
X10354857Y-15526429D01*
X10369143Y-15512143D01*
X10369143Y-15540714D01*
X10554857Y-15369286D02*
X10526286Y-15355000D01*
X10512000Y-15340714D01*
X10497714Y-15312143D01*
X10497714Y-15297857D01*
X10512000Y-15269286D01*
X10526286Y-15255000D01*
X10554857Y-15240714D01*
X10612000Y-15240714D01*
X10640571Y-15255000D01*
X10654857Y-15269286D01*
X10669143Y-15297857D01*
X10669143Y-15312143D01*
X10654857Y-15340714D01*
X10640571Y-15355000D01*
X10612000Y-15369286D01*
X10554857Y-15369286D01*
X10526286Y-15383571D01*
X10512000Y-15397857D01*
X10497714Y-15426429D01*
X10497714Y-15483571D01*
X10512000Y-15512143D01*
X10526286Y-15526429D01*
X10554857Y-15540714D01*
X10612000Y-15540714D01*
X10640571Y-15526429D01*
X10654857Y-15512143D01*
X10669143Y-15483571D01*
X10669143Y-15426429D01*
X10654857Y-15397857D01*
X10640571Y-15383571D01*
X10612000Y-15369286D01*
X10812000Y-15540714D02*
X10869143Y-15540714D01*
X10897714Y-15526429D01*
X10912000Y-15512143D01*
X10940571Y-15469286D01*
X10954857Y-15412143D01*
X10954857Y-15297857D01*
X10940571Y-15269286D01*
X10926286Y-15255000D01*
X10897714Y-15240714D01*
X10840571Y-15240714D01*
X10812000Y-15255000D01*
X10797714Y-15269286D01*
X10783428Y-15297857D01*
X10783428Y-15369286D01*
X10797714Y-15397857D01*
X10812000Y-15412143D01*
X10840571Y-15426429D01*
X10897714Y-15426429D01*
X10926286Y-15412143D01*
X10940571Y-15397857D01*
X10954857Y-15369286D01*
X11140571Y-15240714D02*
X11169143Y-15240714D01*
X11197714Y-15255000D01*
X11212000Y-15269286D01*
X11226286Y-15297857D01*
X11240571Y-15355000D01*
X11240571Y-15426429D01*
X11226286Y-15483571D01*
X11212000Y-15512143D01*
X11197714Y-15526429D01*
X11169143Y-15540714D01*
X11140571Y-15540714D01*
X11112000Y-15526429D01*
X11097714Y-15512143D01*
X11083428Y-15483571D01*
X11069143Y-15426429D01*
X11069143Y-15355000D01*
X11083428Y-15297857D01*
X11097714Y-15269286D01*
X11112000Y-15255000D01*
X11140571Y-15240714D01*
X11369143Y-15540714D02*
X11369143Y-15340714D01*
X11369143Y-15369286D02*
X11383428Y-15355000D01*
X11412000Y-15340714D01*
X11454857Y-15340714D01*
X11483428Y-15355000D01*
X11497714Y-15383571D01*
X11497714Y-15540714D01*
X11497714Y-15383571D02*
X11512000Y-15355000D01*
X11540571Y-15340714D01*
X11583428Y-15340714D01*
X11612000Y-15355000D01*
X11626286Y-15383571D01*
X11626286Y-15540714D01*
X11769143Y-15540714D02*
X11769143Y-15340714D01*
X11769143Y-15369286D02*
X11783428Y-15355000D01*
X11812000Y-15340714D01*
X11854857Y-15340714D01*
X11883428Y-15355000D01*
X11897714Y-15383571D01*
X11897714Y-15540714D01*
X11897714Y-15383571D02*
X11912000Y-15355000D01*
X11940571Y-15340714D01*
X11983428Y-15340714D01*
X12012000Y-15355000D01*
X12026286Y-15383571D01*
X12026286Y-15540714D01*
X12612000Y-15226429D02*
X12354857Y-15612143D01*
X12997714Y-15240714D02*
X13026286Y-15240714D01*
X13054857Y-15255000D01*
X13069143Y-15269286D01*
X13083428Y-15297857D01*
X13097714Y-15355000D01*
X13097714Y-15426429D01*
X13083428Y-15483571D01*
X13069143Y-15512143D01*
X13054857Y-15526429D01*
X13026286Y-15540714D01*
X12997714Y-15540714D01*
X12969143Y-15526429D01*
X12954857Y-15512143D01*
X12940571Y-15483571D01*
X12926286Y-15426429D01*
X12926286Y-15355000D01*
X12940571Y-15297857D01*
X12954857Y-15269286D01*
X12969143Y-15255000D01*
X12997714Y-15240714D01*
X13226286Y-15512143D02*
X13240571Y-15526429D01*
X13226286Y-15540714D01*
X13212000Y-15526429D01*
X13226286Y-15512143D01*
X13226286Y-15540714D01*
X13426286Y-15240714D02*
X13454857Y-15240714D01*
X13483428Y-15255000D01*
X13497714Y-15269286D01*
X13512000Y-15297857D01*
X13526286Y-15355000D01*
X13526286Y-15426429D01*
X13512000Y-15483571D01*
X13497714Y-15512143D01*
X13483428Y-15526429D01*
X13454857Y-15540714D01*
X13426286Y-15540714D01*
X13397714Y-15526429D01*
X13383428Y-15512143D01*
X13369143Y-15483571D01*
X13354857Y-15426429D01*
X13354857Y-15355000D01*
X13369143Y-15297857D01*
X13383428Y-15269286D01*
X13397714Y-15255000D01*
X13426286Y-15240714D01*
X13626286Y-15240714D02*
X13812000Y-15240714D01*
X13712000Y-15355000D01*
X13754857Y-15355000D01*
X13783428Y-15369286D01*
X13797714Y-15383571D01*
X13812000Y-15412143D01*
X13812000Y-15483571D01*
X13797714Y-15512143D01*
X13783428Y-15526429D01*
X13754857Y-15540714D01*
X13669143Y-15540714D01*
X13640571Y-15526429D01*
X13626286Y-15512143D01*
X14083428Y-15240714D02*
X13940571Y-15240714D01*
X13926286Y-15383571D01*
X13940571Y-15369286D01*
X13969143Y-15355000D01*
X14040571Y-15355000D01*
X14069143Y-15369286D01*
X14083428Y-15383571D01*
X14097714Y-15412143D01*
X14097714Y-15483571D01*
X14083428Y-15512143D01*
X14069143Y-15526429D01*
X14040571Y-15540714D01*
X13969143Y-15540714D01*
X13940571Y-15526429D01*
X13926286Y-15512143D01*
X14283428Y-15240714D02*
X14312000Y-15240714D01*
X14340571Y-15255000D01*
X14354857Y-15269286D01*
X14369143Y-15297857D01*
X14383428Y-15355000D01*
X14383428Y-15426429D01*
X14369143Y-15483571D01*
X14354857Y-15512143D01*
X14340571Y-15526429D01*
X14312000Y-15540714D01*
X14283428Y-15540714D01*
X14254857Y-15526429D01*
X14240571Y-15512143D01*
X14226286Y-15483571D01*
X14212000Y-15426429D01*
X14212000Y-15355000D01*
X14226286Y-15297857D01*
X14240571Y-15269286D01*
X14254857Y-15255000D01*
X14283428Y-15240714D01*
X14497714Y-15240714D02*
X14497714Y-15297857D01*
X14612000Y-15240714D02*
X14612000Y-15297857D01*
X15054857Y-15655000D02*
X15040571Y-15640714D01*
X15012000Y-15597857D01*
X14997714Y-15569286D01*
X14983428Y-15526429D01*
X14969143Y-15455000D01*
X14969143Y-15397857D01*
X14983428Y-15326429D01*
X14997714Y-15283571D01*
X15012000Y-15255000D01*
X15040571Y-15212143D01*
X15054857Y-15197857D01*
X15326286Y-15540714D02*
X15154857Y-15540714D01*
X15240571Y-15540714D02*
X15240571Y-15240714D01*
X15212000Y-15283571D01*
X15183428Y-15312143D01*
X15154857Y-15326429D01*
X15440571Y-15269286D02*
X15454857Y-15255000D01*
X15483428Y-15240714D01*
X15554857Y-15240714D01*
X15583428Y-15255000D01*
X15597714Y-15269286D01*
X15612000Y-15297857D01*
X15612000Y-15326429D01*
X15597714Y-15369286D01*
X15426286Y-15540714D01*
X15612000Y-15540714D01*
X15969143Y-15540714D02*
X15969143Y-15240714D01*
X16097714Y-15540714D02*
X16097714Y-15383571D01*
X16083428Y-15355000D01*
X16054857Y-15340714D01*
X16012000Y-15340714D01*
X15983428Y-15355000D01*
X15969143Y-15369286D01*
X16283428Y-15540714D02*
X16254857Y-15526429D01*
X16240571Y-15512143D01*
X16226286Y-15483571D01*
X16226286Y-15397857D01*
X16240571Y-15369286D01*
X16254857Y-15355000D01*
X16283428Y-15340714D01*
X16326286Y-15340714D01*
X16354857Y-15355000D01*
X16369143Y-15369286D01*
X16383428Y-15397857D01*
X16383428Y-15483571D01*
X16369143Y-15512143D01*
X16354857Y-15526429D01*
X16326286Y-15540714D01*
X16283428Y-15540714D01*
X16554857Y-15540714D02*
X16526286Y-15526429D01*
X16512000Y-15497857D01*
X16512000Y-15240714D01*
X16783428Y-15526429D02*
X16754857Y-15540714D01*
X16697714Y-15540714D01*
X16669143Y-15526429D01*
X16654857Y-15497857D01*
X16654857Y-15383571D01*
X16669143Y-15355000D01*
X16697714Y-15340714D01*
X16754857Y-15340714D01*
X16783428Y-15355000D01*
X16797714Y-15383571D01*
X16797714Y-15412143D01*
X16654857Y-15440714D01*
X16912000Y-15526429D02*
X16940571Y-15540714D01*
X16997714Y-15540714D01*
X17026286Y-15526429D01*
X17040571Y-15497857D01*
X17040571Y-15483571D01*
X17026286Y-15455000D01*
X16997714Y-15440714D01*
X16954857Y-15440714D01*
X16926286Y-15426429D01*
X16912000Y-15397857D01*
X16912000Y-15383571D01*
X16926286Y-15355000D01*
X16954857Y-15340714D01*
X16997714Y-15340714D01*
X17026286Y-15355000D01*
X17140571Y-15655000D02*
X17154857Y-15640714D01*
X17183428Y-15597857D01*
X17197714Y-15569286D01*
X17212000Y-15526429D01*
X17226286Y-15455000D01*
X17226286Y-15397857D01*
X17212000Y-15326429D01*
X17197714Y-15283571D01*
X17183428Y-15255000D01*
X17154857Y-15212143D01*
X17140571Y-15197857D01*
X9747000Y-15851000D02*
X9797000Y-15801000D01*
X9747000Y-15751000D01*
X9697000Y-15801000D01*
X9747000Y-15851000D01*
X10240571Y-15936714D02*
X10069143Y-15936714D01*
X10154857Y-15936714D02*
X10154857Y-15636714D01*
X10126286Y-15679571D01*
X10097714Y-15708143D01*
X10069143Y-15722429D01*
X10369143Y-15908143D02*
X10383428Y-15922429D01*
X10369143Y-15936714D01*
X10354857Y-15922429D01*
X10369143Y-15908143D01*
X10369143Y-15936714D01*
X10569143Y-15636714D02*
X10597714Y-15636714D01*
X10626286Y-15651000D01*
X10640571Y-15665286D01*
X10654857Y-15693857D01*
X10669143Y-15751000D01*
X10669143Y-15822429D01*
X10654857Y-15879571D01*
X10640571Y-15908143D01*
X10626286Y-15922429D01*
X10597714Y-15936714D01*
X10569143Y-15936714D01*
X10540571Y-15922429D01*
X10526286Y-15908143D01*
X10512000Y-15879571D01*
X10497714Y-15822429D01*
X10497714Y-15751000D01*
X10512000Y-15693857D01*
X10526286Y-15665286D01*
X10540571Y-15651000D01*
X10569143Y-15636714D01*
X10854857Y-15636714D02*
X10883428Y-15636714D01*
X10912000Y-15651000D01*
X10926286Y-15665286D01*
X10940571Y-15693857D01*
X10954857Y-15751000D01*
X10954857Y-15822429D01*
X10940571Y-15879571D01*
X10926286Y-15908143D01*
X10912000Y-15922429D01*
X10883428Y-15936714D01*
X10854857Y-15936714D01*
X10826286Y-15922429D01*
X10812000Y-15908143D01*
X10797714Y-15879571D01*
X10783428Y-15822429D01*
X10783428Y-15751000D01*
X10797714Y-15693857D01*
X10812000Y-15665286D01*
X10826286Y-15651000D01*
X10854857Y-15636714D01*
X11140571Y-15636714D02*
X11169143Y-15636714D01*
X11197714Y-15651000D01*
X11212000Y-15665286D01*
X11226286Y-15693857D01*
X11240571Y-15751000D01*
X11240571Y-15822429D01*
X11226286Y-15879571D01*
X11212000Y-15908143D01*
X11197714Y-15922429D01*
X11169143Y-15936714D01*
X11140571Y-15936714D01*
X11112000Y-15922429D01*
X11097714Y-15908143D01*
X11083428Y-15879571D01*
X11069143Y-15822429D01*
X11069143Y-15751000D01*
X11083428Y-15693857D01*
X11097714Y-15665286D01*
X11112000Y-15651000D01*
X11140571Y-15636714D01*
X11369143Y-15936714D02*
X11369143Y-15736714D01*
X11369143Y-15765286D02*
X11383428Y-15751000D01*
X11412000Y-15736714D01*
X11454857Y-15736714D01*
X11483428Y-15751000D01*
X11497714Y-15779571D01*
X11497714Y-15936714D01*
X11497714Y-15779571D02*
X11512000Y-15751000D01*
X11540571Y-15736714D01*
X11583428Y-15736714D01*
X11612000Y-15751000D01*
X11626286Y-15779571D01*
X11626286Y-15936714D01*
X11769143Y-15936714D02*
X11769143Y-15736714D01*
X11769143Y-15765286D02*
X11783428Y-15751000D01*
X11812000Y-15736714D01*
X11854857Y-15736714D01*
X11883428Y-15751000D01*
X11897714Y-15779571D01*
X11897714Y-15936714D01*
X11897714Y-15779571D02*
X11912000Y-15751000D01*
X11940571Y-15736714D01*
X11983428Y-15736714D01*
X12012000Y-15751000D01*
X12026286Y-15779571D01*
X12026286Y-15936714D01*
X12612000Y-15622429D02*
X12354857Y-16008143D01*
X12997714Y-15636714D02*
X13026286Y-15636714D01*
X13054857Y-15651000D01*
X13069143Y-15665286D01*
X13083428Y-15693857D01*
X13097714Y-15751000D01*
X13097714Y-15822429D01*
X13083428Y-15879571D01*
X13069143Y-15908143D01*
X13054857Y-15922429D01*
X13026286Y-15936714D01*
X12997714Y-15936714D01*
X12969143Y-15922429D01*
X12954857Y-15908143D01*
X12940571Y-15879571D01*
X12926286Y-15822429D01*
X12926286Y-15751000D01*
X12940571Y-15693857D01*
X12954857Y-15665286D01*
X12969143Y-15651000D01*
X12997714Y-15636714D01*
X13226286Y-15908143D02*
X13240571Y-15922429D01*
X13226286Y-15936714D01*
X13212000Y-15922429D01*
X13226286Y-15908143D01*
X13226286Y-15936714D01*
X13426286Y-15636714D02*
X13454857Y-15636714D01*
X13483428Y-15651000D01*
X13497714Y-15665286D01*
X13512000Y-15693857D01*
X13526286Y-15751000D01*
X13526286Y-15822429D01*
X13512000Y-15879571D01*
X13497714Y-15908143D01*
X13483428Y-15922429D01*
X13454857Y-15936714D01*
X13426286Y-15936714D01*
X13397714Y-15922429D01*
X13383428Y-15908143D01*
X13369143Y-15879571D01*
X13354857Y-15822429D01*
X13354857Y-15751000D01*
X13369143Y-15693857D01*
X13383428Y-15665286D01*
X13397714Y-15651000D01*
X13426286Y-15636714D01*
X13626286Y-15636714D02*
X13812000Y-15636714D01*
X13712000Y-15751000D01*
X13754857Y-15751000D01*
X13783428Y-15765286D01*
X13797714Y-15779571D01*
X13812000Y-15808143D01*
X13812000Y-15879571D01*
X13797714Y-15908143D01*
X13783428Y-15922429D01*
X13754857Y-15936714D01*
X13669143Y-15936714D01*
X13640571Y-15922429D01*
X13626286Y-15908143D01*
X13954857Y-15936714D02*
X14012000Y-15936714D01*
X14040571Y-15922429D01*
X14054857Y-15908143D01*
X14083428Y-15865286D01*
X14097714Y-15808143D01*
X14097714Y-15693857D01*
X14083428Y-15665286D01*
X14069143Y-15651000D01*
X14040571Y-15636714D01*
X13983428Y-15636714D01*
X13954857Y-15651000D01*
X13940571Y-15665286D01*
X13926286Y-15693857D01*
X13926286Y-15765286D01*
X13940571Y-15793857D01*
X13954857Y-15808143D01*
X13983428Y-15822429D01*
X14040571Y-15822429D01*
X14069143Y-15808143D01*
X14083428Y-15793857D01*
X14097714Y-15765286D01*
X14354857Y-15736714D02*
X14354857Y-15936714D01*
X14283428Y-15622429D02*
X14212000Y-15836714D01*
X14397714Y-15836714D01*
X14497714Y-15636714D02*
X14497714Y-15693857D01*
X14612000Y-15636714D02*
X14612000Y-15693857D01*
X15054857Y-16051000D02*
X15040571Y-16036714D01*
X15012000Y-15993857D01*
X14997714Y-15965286D01*
X14983428Y-15922429D01*
X14969143Y-15851000D01*
X14969143Y-15793857D01*
X14983428Y-15722429D01*
X14997714Y-15679571D01*
X15012000Y-15651000D01*
X15040571Y-15608143D01*
X15054857Y-15593857D01*
X15140571Y-15636714D02*
X15326286Y-15636714D01*
X15226286Y-15751000D01*
X15269143Y-15751000D01*
X15297714Y-15765286D01*
X15312000Y-15779571D01*
X15326286Y-15808143D01*
X15326286Y-15879571D01*
X15312000Y-15908143D01*
X15297714Y-15922429D01*
X15269143Y-15936714D01*
X15183428Y-15936714D01*
X15154857Y-15922429D01*
X15140571Y-15908143D01*
X15683428Y-15936714D02*
X15683428Y-15636714D01*
X15812000Y-15936714D02*
X15812000Y-15779571D01*
X15797714Y-15751000D01*
X15769143Y-15736714D01*
X15726286Y-15736714D01*
X15697714Y-15751000D01*
X15683428Y-15765286D01*
X15997714Y-15936714D02*
X15969143Y-15922429D01*
X15954857Y-15908143D01*
X15940571Y-15879571D01*
X15940571Y-15793857D01*
X15954857Y-15765286D01*
X15969143Y-15751000D01*
X15997714Y-15736714D01*
X16040571Y-15736714D01*
X16069143Y-15751000D01*
X16083428Y-15765286D01*
X16097714Y-15793857D01*
X16097714Y-15879571D01*
X16083428Y-15908143D01*
X16069143Y-15922429D01*
X16040571Y-15936714D01*
X15997714Y-15936714D01*
X16269143Y-15936714D02*
X16240571Y-15922429D01*
X16226286Y-15893857D01*
X16226286Y-15636714D01*
X16497714Y-15922429D02*
X16469143Y-15936714D01*
X16412000Y-15936714D01*
X16383428Y-15922429D01*
X16369143Y-15893857D01*
X16369143Y-15779571D01*
X16383428Y-15751000D01*
X16412000Y-15736714D01*
X16469143Y-15736714D01*
X16497714Y-15751000D01*
X16512000Y-15779571D01*
X16512000Y-15808143D01*
X16369143Y-15836714D01*
X16626286Y-15922429D02*
X16654857Y-15936714D01*
X16712000Y-15936714D01*
X16740571Y-15922429D01*
X16754857Y-15893857D01*
X16754857Y-15879571D01*
X16740571Y-15851000D01*
X16712000Y-15836714D01*
X16669143Y-15836714D01*
X16640571Y-15822429D01*
X16626286Y-15793857D01*
X16626286Y-15779571D01*
X16640571Y-15751000D01*
X16669143Y-15736714D01*
X16712000Y-15736714D01*
X16740571Y-15751000D01*
X16854857Y-16051000D02*
X16869143Y-16036714D01*
X16897714Y-15993857D01*
X16912000Y-15965286D01*
X16926286Y-15922429D01*
X16940571Y-15851000D01*
X16940571Y-15793857D01*
X16926286Y-15722429D01*
X16912000Y-15679571D01*
X16897714Y-15651000D01*
X16869143Y-15608143D01*
X16854857Y-15593857D01*
X9640000Y-16118500D02*
X9797000Y-16275500D01*
X9797000Y-16118500D02*
X9640000Y-16275500D01*
X9797000Y-16197000D02*
G75*
G03*
X9797000Y-16197000I-78500J0D01*
G01*
X10240571Y-16332714D02*
X10069143Y-16332714D01*
X10154857Y-16332714D02*
X10154857Y-16032714D01*
X10126286Y-16075571D01*
X10097714Y-16104143D01*
X10069143Y-16118429D01*
X10369143Y-16304143D02*
X10383428Y-16318429D01*
X10369143Y-16332714D01*
X10354857Y-16318429D01*
X10369143Y-16304143D01*
X10369143Y-16332714D01*
X10654857Y-16032714D02*
X10512000Y-16032714D01*
X10497714Y-16175571D01*
X10512000Y-16161286D01*
X10540571Y-16147000D01*
X10612000Y-16147000D01*
X10640571Y-16161286D01*
X10654857Y-16175571D01*
X10669143Y-16204143D01*
X10669143Y-16275571D01*
X10654857Y-16304143D01*
X10640571Y-16318429D01*
X10612000Y-16332714D01*
X10540571Y-16332714D01*
X10512000Y-16318429D01*
X10497714Y-16304143D01*
X10769143Y-16032714D02*
X10969143Y-16032714D01*
X10840571Y-16332714D01*
X11140571Y-16032714D02*
X11169143Y-16032714D01*
X11197714Y-16047000D01*
X11212000Y-16061286D01*
X11226286Y-16089857D01*
X11240571Y-16147000D01*
X11240571Y-16218429D01*
X11226286Y-16275571D01*
X11212000Y-16304143D01*
X11197714Y-16318429D01*
X11169143Y-16332714D01*
X11140571Y-16332714D01*
X11112000Y-16318429D01*
X11097714Y-16304143D01*
X11083428Y-16275571D01*
X11069143Y-16218429D01*
X11069143Y-16147000D01*
X11083428Y-16089857D01*
X11097714Y-16061286D01*
X11112000Y-16047000D01*
X11140571Y-16032714D01*
X11369143Y-16332714D02*
X11369143Y-16132714D01*
X11369143Y-16161286D02*
X11383428Y-16147000D01*
X11412000Y-16132714D01*
X11454857Y-16132714D01*
X11483428Y-16147000D01*
X11497714Y-16175571D01*
X11497714Y-16332714D01*
X11497714Y-16175571D02*
X11512000Y-16147000D01*
X11540571Y-16132714D01*
X11583428Y-16132714D01*
X11612000Y-16147000D01*
X11626286Y-16175571D01*
X11626286Y-16332714D01*
X11769143Y-16332714D02*
X11769143Y-16132714D01*
X11769143Y-16161286D02*
X11783428Y-16147000D01*
X11812000Y-16132714D01*
X11854857Y-16132714D01*
X11883428Y-16147000D01*
X11897714Y-16175571D01*
X11897714Y-16332714D01*
X11897714Y-16175571D02*
X11912000Y-16147000D01*
X11940571Y-16132714D01*
X11983428Y-16132714D01*
X12012000Y-16147000D01*
X12026286Y-16175571D01*
X12026286Y-16332714D01*
X12612000Y-16018429D02*
X12354857Y-16404143D01*
X12997714Y-16032714D02*
X13026286Y-16032714D01*
X13054857Y-16047000D01*
X13069143Y-16061286D01*
X13083428Y-16089857D01*
X13097714Y-16147000D01*
X13097714Y-16218429D01*
X13083428Y-16275571D01*
X13069143Y-16304143D01*
X13054857Y-16318429D01*
X13026286Y-16332714D01*
X12997714Y-16332714D01*
X12969143Y-16318429D01*
X12954857Y-16304143D01*
X12940571Y-16275571D01*
X12926286Y-16218429D01*
X12926286Y-16147000D01*
X12940571Y-16089857D01*
X12954857Y-16061286D01*
X12969143Y-16047000D01*
X12997714Y-16032714D01*
X13226286Y-16304143D02*
X13240571Y-16318429D01*
X13226286Y-16332714D01*
X13212000Y-16318429D01*
X13226286Y-16304143D01*
X13226286Y-16332714D01*
X13426286Y-16032714D02*
X13454857Y-16032714D01*
X13483428Y-16047000D01*
X13497714Y-16061286D01*
X13512000Y-16089857D01*
X13526286Y-16147000D01*
X13526286Y-16218429D01*
X13512000Y-16275571D01*
X13497714Y-16304143D01*
X13483428Y-16318429D01*
X13454857Y-16332714D01*
X13426286Y-16332714D01*
X13397714Y-16318429D01*
X13383428Y-16304143D01*
X13369143Y-16275571D01*
X13354857Y-16218429D01*
X13354857Y-16147000D01*
X13369143Y-16089857D01*
X13383428Y-16061286D01*
X13397714Y-16047000D01*
X13426286Y-16032714D01*
X13783428Y-16032714D02*
X13726286Y-16032714D01*
X13697714Y-16047000D01*
X13683428Y-16061286D01*
X13654857Y-16104143D01*
X13640571Y-16161286D01*
X13640571Y-16275571D01*
X13654857Y-16304143D01*
X13669143Y-16318429D01*
X13697714Y-16332714D01*
X13754857Y-16332714D01*
X13783428Y-16318429D01*
X13797714Y-16304143D01*
X13812000Y-16275571D01*
X13812000Y-16204143D01*
X13797714Y-16175571D01*
X13783428Y-16161286D01*
X13754857Y-16147000D01*
X13697714Y-16147000D01*
X13669143Y-16161286D01*
X13654857Y-16175571D01*
X13640571Y-16204143D01*
X14097714Y-16332714D02*
X13926286Y-16332714D01*
X14012000Y-16332714D02*
X14012000Y-16032714D01*
X13983428Y-16075571D01*
X13954857Y-16104143D01*
X13926286Y-16118429D01*
X14269143Y-16161286D02*
X14240571Y-16147000D01*
X14226286Y-16132714D01*
X14212000Y-16104143D01*
X14212000Y-16089857D01*
X14226286Y-16061286D01*
X14240571Y-16047000D01*
X14269143Y-16032714D01*
X14326286Y-16032714D01*
X14354857Y-16047000D01*
X14369143Y-16061286D01*
X14383428Y-16089857D01*
X14383428Y-16104143D01*
X14369143Y-16132714D01*
X14354857Y-16147000D01*
X14326286Y-16161286D01*
X14269143Y-16161286D01*
X14240571Y-16175571D01*
X14226286Y-16189857D01*
X14212000Y-16218429D01*
X14212000Y-16275571D01*
X14226286Y-16304143D01*
X14240571Y-16318429D01*
X14269143Y-16332714D01*
X14326286Y-16332714D01*
X14354857Y-16318429D01*
X14369143Y-16304143D01*
X14383428Y-16275571D01*
X14383428Y-16218429D01*
X14369143Y-16189857D01*
X14354857Y-16175571D01*
X14326286Y-16161286D01*
X14497714Y-16032714D02*
X14497714Y-16089857D01*
X14612000Y-16032714D02*
X14612000Y-16089857D01*
X15054857Y-16447000D02*
X15040571Y-16432714D01*
X15012000Y-16389857D01*
X14997714Y-16361286D01*
X14983428Y-16318429D01*
X14969143Y-16247000D01*
X14969143Y-16189857D01*
X14983428Y-16118429D01*
X14997714Y-16075571D01*
X15012000Y-16047000D01*
X15040571Y-16004143D01*
X15054857Y-15989857D01*
X15154857Y-16061286D02*
X15169143Y-16047000D01*
X15197714Y-16032714D01*
X15269143Y-16032714D01*
X15297714Y-16047000D01*
X15312000Y-16061286D01*
X15326286Y-16089857D01*
X15326286Y-16118429D01*
X15312000Y-16161286D01*
X15140571Y-16332714D01*
X15326286Y-16332714D01*
X15683428Y-16332714D02*
X15683428Y-16032714D01*
X15812000Y-16332714D02*
X15812000Y-16175571D01*
X15797714Y-16147000D01*
X15769143Y-16132714D01*
X15726286Y-16132714D01*
X15697714Y-16147000D01*
X15683428Y-16161286D01*
X15997714Y-16332714D02*
X15969143Y-16318429D01*
X15954857Y-16304143D01*
X15940571Y-16275571D01*
X15940571Y-16189857D01*
X15954857Y-16161286D01*
X15969143Y-16147000D01*
X15997714Y-16132714D01*
X16040571Y-16132714D01*
X16069143Y-16147000D01*
X16083428Y-16161286D01*
X16097714Y-16189857D01*
X16097714Y-16275571D01*
X16083428Y-16304143D01*
X16069143Y-16318429D01*
X16040571Y-16332714D01*
X15997714Y-16332714D01*
X16269143Y-16332714D02*
X16240571Y-16318429D01*
X16226286Y-16289857D01*
X16226286Y-16032714D01*
X16497714Y-16318429D02*
X16469143Y-16332714D01*
X16412000Y-16332714D01*
X16383428Y-16318429D01*
X16369143Y-16289857D01*
X16369143Y-16175571D01*
X16383428Y-16147000D01*
X16412000Y-16132714D01*
X16469143Y-16132714D01*
X16497714Y-16147000D01*
X16512000Y-16175571D01*
X16512000Y-16204143D01*
X16369143Y-16232714D01*
X16626286Y-16318429D02*
X16654857Y-16332714D01*
X16712000Y-16332714D01*
X16740571Y-16318429D01*
X16754857Y-16289857D01*
X16754857Y-16275571D01*
X16740571Y-16247000D01*
X16712000Y-16232714D01*
X16669143Y-16232714D01*
X16640571Y-16218429D01*
X16626286Y-16189857D01*
X16626286Y-16175571D01*
X16640571Y-16147000D01*
X16669143Y-16132714D01*
X16712000Y-16132714D01*
X16740571Y-16147000D01*
X16854857Y-16447000D02*
X16869143Y-16432714D01*
X16897714Y-16389857D01*
X16912000Y-16361286D01*
X16926286Y-16318429D01*
X16940571Y-16247000D01*
X16940571Y-16189857D01*
X16926286Y-16118429D01*
X16912000Y-16075571D01*
X16897714Y-16047000D01*
X16869143Y-16004143D01*
X16854857Y-15989857D01*
X9477000Y-16433000D02*
X9797000Y-16753000D01*
X9797000Y-16433000D02*
X9477000Y-16753000D01*
X9637000Y-16433000D02*
X9637000Y-16753000D01*
X9477000Y-16593000D02*
X9797000Y-16593000D01*
X10054857Y-16428714D02*
X10240571Y-16428714D01*
X10140571Y-16543000D01*
X10183428Y-16543000D01*
X10212000Y-16557286D01*
X10226286Y-16571571D01*
X10240571Y-16600143D01*
X10240571Y-16671571D01*
X10226286Y-16700143D01*
X10212000Y-16714429D01*
X10183428Y-16728714D01*
X10097714Y-16728714D01*
X10069143Y-16714429D01*
X10054857Y-16700143D01*
X10369143Y-16700143D02*
X10383428Y-16714429D01*
X10369143Y-16728714D01*
X10354857Y-16714429D01*
X10369143Y-16700143D01*
X10369143Y-16728714D01*
X10497714Y-16457286D02*
X10512000Y-16443000D01*
X10540571Y-16428714D01*
X10612000Y-16428714D01*
X10640571Y-16443000D01*
X10654857Y-16457286D01*
X10669143Y-16485857D01*
X10669143Y-16514429D01*
X10654857Y-16557286D01*
X10483428Y-16728714D01*
X10669143Y-16728714D01*
X10854857Y-16428714D02*
X10883428Y-16428714D01*
X10912000Y-16443000D01*
X10926286Y-16457286D01*
X10940571Y-16485857D01*
X10954857Y-16543000D01*
X10954857Y-16614429D01*
X10940571Y-16671571D01*
X10926286Y-16700143D01*
X10912000Y-16714429D01*
X10883428Y-16728714D01*
X10854857Y-16728714D01*
X10826286Y-16714429D01*
X10812000Y-16700143D01*
X10797714Y-16671571D01*
X10783428Y-16614429D01*
X10783428Y-16543000D01*
X10797714Y-16485857D01*
X10812000Y-16457286D01*
X10826286Y-16443000D01*
X10854857Y-16428714D01*
X11140571Y-16428714D02*
X11169143Y-16428714D01*
X11197714Y-16443000D01*
X11212000Y-16457286D01*
X11226286Y-16485857D01*
X11240571Y-16543000D01*
X11240571Y-16614429D01*
X11226286Y-16671571D01*
X11212000Y-16700143D01*
X11197714Y-16714429D01*
X11169143Y-16728714D01*
X11140571Y-16728714D01*
X11112000Y-16714429D01*
X11097714Y-16700143D01*
X11083428Y-16671571D01*
X11069143Y-16614429D01*
X11069143Y-16543000D01*
X11083428Y-16485857D01*
X11097714Y-16457286D01*
X11112000Y-16443000D01*
X11140571Y-16428714D01*
X11369143Y-16728714D02*
X11369143Y-16528714D01*
X11369143Y-16557286D02*
X11383428Y-16543000D01*
X11412000Y-16528714D01*
X11454857Y-16528714D01*
X11483428Y-16543000D01*
X11497714Y-16571571D01*
X11497714Y-16728714D01*
X11497714Y-16571571D02*
X11512000Y-16543000D01*
X11540571Y-16528714D01*
X11583428Y-16528714D01*
X11612000Y-16543000D01*
X11626286Y-16571571D01*
X11626286Y-16728714D01*
X11769143Y-16728714D02*
X11769143Y-16528714D01*
X11769143Y-16557286D02*
X11783428Y-16543000D01*
X11812000Y-16528714D01*
X11854857Y-16528714D01*
X11883428Y-16543000D01*
X11897714Y-16571571D01*
X11897714Y-16728714D01*
X11897714Y-16571571D02*
X11912000Y-16543000D01*
X11940571Y-16528714D01*
X11983428Y-16528714D01*
X12012000Y-16543000D01*
X12026286Y-16571571D01*
X12026286Y-16728714D01*
X12612000Y-16414429D02*
X12354857Y-16800143D01*
X12997714Y-16428714D02*
X13026286Y-16428714D01*
X13054857Y-16443000D01*
X13069143Y-16457286D01*
X13083428Y-16485857D01*
X13097714Y-16543000D01*
X13097714Y-16614429D01*
X13083428Y-16671571D01*
X13069143Y-16700143D01*
X13054857Y-16714429D01*
X13026286Y-16728714D01*
X12997714Y-16728714D01*
X12969143Y-16714429D01*
X12954857Y-16700143D01*
X12940571Y-16671571D01*
X12926286Y-16614429D01*
X12926286Y-16543000D01*
X12940571Y-16485857D01*
X12954857Y-16457286D01*
X12969143Y-16443000D01*
X12997714Y-16428714D01*
X13226286Y-16700143D02*
X13240571Y-16714429D01*
X13226286Y-16728714D01*
X13212000Y-16714429D01*
X13226286Y-16700143D01*
X13226286Y-16728714D01*
X13526286Y-16728714D02*
X13354857Y-16728714D01*
X13440571Y-16728714D02*
X13440571Y-16428714D01*
X13412000Y-16471571D01*
X13383428Y-16500143D01*
X13354857Y-16514429D01*
X13640571Y-16457286D02*
X13654857Y-16443000D01*
X13683428Y-16428714D01*
X13754857Y-16428714D01*
X13783428Y-16443000D01*
X13797714Y-16457286D01*
X13812000Y-16485857D01*
X13812000Y-16514429D01*
X13797714Y-16557286D01*
X13626286Y-16728714D01*
X13812000Y-16728714D01*
X14069143Y-16428714D02*
X14012000Y-16428714D01*
X13983428Y-16443000D01*
X13969143Y-16457286D01*
X13940571Y-16500143D01*
X13926286Y-16557286D01*
X13926286Y-16671571D01*
X13940571Y-16700143D01*
X13954857Y-16714429D01*
X13983428Y-16728714D01*
X14040571Y-16728714D01*
X14069143Y-16714429D01*
X14083428Y-16700143D01*
X14097714Y-16671571D01*
X14097714Y-16600143D01*
X14083428Y-16571571D01*
X14069143Y-16557286D01*
X14040571Y-16543000D01*
X13983428Y-16543000D01*
X13954857Y-16557286D01*
X13940571Y-16571571D01*
X13926286Y-16600143D01*
X14283428Y-16428714D02*
X14312000Y-16428714D01*
X14340571Y-16443000D01*
X14354857Y-16457286D01*
X14369143Y-16485857D01*
X14383428Y-16543000D01*
X14383428Y-16614429D01*
X14369143Y-16671571D01*
X14354857Y-16700143D01*
X14340571Y-16714429D01*
X14312000Y-16728714D01*
X14283428Y-16728714D01*
X14254857Y-16714429D01*
X14240571Y-16700143D01*
X14226286Y-16671571D01*
X14212000Y-16614429D01*
X14212000Y-16543000D01*
X14226286Y-16485857D01*
X14240571Y-16457286D01*
X14254857Y-16443000D01*
X14283428Y-16428714D01*
X14497714Y-16428714D02*
X14497714Y-16485857D01*
X14612000Y-16428714D02*
X14612000Y-16485857D01*
X15054857Y-16843000D02*
X15040571Y-16828714D01*
X15012000Y-16785857D01*
X14997714Y-16757286D01*
X14983428Y-16714429D01*
X14969143Y-16643000D01*
X14969143Y-16585857D01*
X14983428Y-16514429D01*
X14997714Y-16471571D01*
X15012000Y-16443000D01*
X15040571Y-16400143D01*
X15054857Y-16385857D01*
X15297714Y-16528714D02*
X15297714Y-16728714D01*
X15226286Y-16414429D02*
X15154857Y-16628714D01*
X15340571Y-16628714D01*
X15683428Y-16728714D02*
X15683428Y-16428714D01*
X15812000Y-16728714D02*
X15812000Y-16571571D01*
X15797714Y-16543000D01*
X15769143Y-16528714D01*
X15726286Y-16528714D01*
X15697714Y-16543000D01*
X15683428Y-16557286D01*
X15997714Y-16728714D02*
X15969143Y-16714429D01*
X15954857Y-16700143D01*
X15940571Y-16671571D01*
X15940571Y-16585857D01*
X15954857Y-16557286D01*
X15969143Y-16543000D01*
X15997714Y-16528714D01*
X16040571Y-16528714D01*
X16069143Y-16543000D01*
X16083428Y-16557286D01*
X16097714Y-16585857D01*
X16097714Y-16671571D01*
X16083428Y-16700143D01*
X16069143Y-16714429D01*
X16040571Y-16728714D01*
X15997714Y-16728714D01*
X16269143Y-16728714D02*
X16240571Y-16714429D01*
X16226286Y-16685857D01*
X16226286Y-16428714D01*
X16497714Y-16714429D02*
X16469143Y-16728714D01*
X16412000Y-16728714D01*
X16383428Y-16714429D01*
X16369143Y-16685857D01*
X16369143Y-16571571D01*
X16383428Y-16543000D01*
X16412000Y-16528714D01*
X16469143Y-16528714D01*
X16497714Y-16543000D01*
X16512000Y-16571571D01*
X16512000Y-16600143D01*
X16369143Y-16628714D01*
X16626286Y-16714429D02*
X16654857Y-16728714D01*
X16712000Y-16728714D01*
X16740571Y-16714429D01*
X16754857Y-16685857D01*
X16754857Y-16671571D01*
X16740571Y-16643000D01*
X16712000Y-16628714D01*
X16669143Y-16628714D01*
X16640571Y-16614429D01*
X16626286Y-16585857D01*
X16626286Y-16571571D01*
X16640571Y-16543000D01*
X16669143Y-16528714D01*
X16712000Y-16528714D01*
X16740571Y-16543000D01*
X16854857Y-16843000D02*
X16869143Y-16828714D01*
X16897714Y-16785857D01*
X16912000Y-16757286D01*
X16926286Y-16714429D01*
X16940571Y-16643000D01*
X16940571Y-16585857D01*
X16926286Y-16514429D01*
X16912000Y-16471571D01*
X16897714Y-16443000D01*
X16869143Y-16400143D01*
X16854857Y-16385857D01*
M02*
