%FSLAX45Y45*%
G04 Gerber Fmt 4.5, Leading zero omitted, Abs format (unit mm)*
G04 Created by KiCad (PCBNEW (5.1.10)-1) date 2021-09-03 06:36:44*
%MOMM*%
%LPD*%
G01*
G04 APERTURE LIST*
%TA.AperFunction,Profile*%
%ADD10C,0.050000*%
%TD*%
%ADD11C,0.200000*%
%ADD12C,0.300000*%
G04 APERTURE END LIST*
D10*
X14605000Y-4762500D02*
X10287000Y-4762500D01*
X14605000Y-6350000D02*
X14605000Y-4762500D01*
X10287000Y-6350000D02*
X14605000Y-6350000D01*
X10287000Y-4762500D02*
X10287000Y-6350000D01*
D11*
D12*
X10570928Y-6818214D02*
X10570928Y-6518214D01*
X10642357Y-6518214D01*
X10685214Y-6532500D01*
X10713786Y-6561071D01*
X10728071Y-6589643D01*
X10742357Y-6646786D01*
X10742357Y-6689643D01*
X10728071Y-6746786D01*
X10713786Y-6775357D01*
X10685214Y-6803929D01*
X10642357Y-6818214D01*
X10570928Y-6818214D01*
X10870928Y-6818214D02*
X10870928Y-6618214D01*
X10870928Y-6675357D02*
X10885214Y-6646786D01*
X10899500Y-6632500D01*
X10928071Y-6618214D01*
X10956643Y-6618214D01*
X11056643Y-6818214D02*
X11056643Y-6618214D01*
X11056643Y-6518214D02*
X11042357Y-6532500D01*
X11056643Y-6546786D01*
X11070928Y-6532500D01*
X11056643Y-6518214D01*
X11056643Y-6546786D01*
X11242357Y-6818214D02*
X11213786Y-6803929D01*
X11199500Y-6775357D01*
X11199500Y-6518214D01*
X11399500Y-6818214D02*
X11370928Y-6803929D01*
X11356643Y-6775357D01*
X11356643Y-6518214D01*
X11742357Y-6818214D02*
X11742357Y-6518214D01*
X11842357Y-6732500D01*
X11942357Y-6518214D01*
X11942357Y-6818214D01*
X12213786Y-6818214D02*
X12213786Y-6661071D01*
X12199500Y-6632500D01*
X12170928Y-6618214D01*
X12113786Y-6618214D01*
X12085214Y-6632500D01*
X12213786Y-6803929D02*
X12185214Y-6818214D01*
X12113786Y-6818214D01*
X12085214Y-6803929D01*
X12070928Y-6775357D01*
X12070928Y-6746786D01*
X12085214Y-6718214D01*
X12113786Y-6703929D01*
X12185214Y-6703929D01*
X12213786Y-6689643D01*
X12356643Y-6618214D02*
X12356643Y-6918214D01*
X12356643Y-6632500D02*
X12385214Y-6618214D01*
X12442357Y-6618214D01*
X12470928Y-6632500D01*
X12485214Y-6646786D01*
X12499500Y-6675357D01*
X12499500Y-6761071D01*
X12485214Y-6789643D01*
X12470928Y-6803929D01*
X12442357Y-6818214D01*
X12385214Y-6818214D01*
X12356643Y-6803929D01*
X12628071Y-6789643D02*
X12642357Y-6803929D01*
X12628071Y-6818214D01*
X12613786Y-6803929D01*
X12628071Y-6789643D01*
X12628071Y-6818214D01*
X12628071Y-6632500D02*
X12642357Y-6646786D01*
X12628071Y-6661071D01*
X12613786Y-6646786D01*
X12628071Y-6632500D01*
X12628071Y-6661071D01*
M02*
