%FSLAX45Y45*%
G04 Gerber Fmt 4.5, Leading zero omitted, Abs format (unit mm)*
G04 Created by KiCad (PCBNEW (5.1.10)-1) date 2021-09-02 15:22:30*
%MOMM*%
%LPD*%
G01*
G04 APERTURE LIST*
%TA.AperFunction,Profile*%
%ADD10C,0.050000*%
%TD*%
%ADD11C,0.200000*%
%ADD12C,0.300000*%
G04 APERTURE END LIST*
D10*
X10541000Y-6350000D02*
X10541000Y-4762500D01*
X14287500Y-6350000D02*
X10541000Y-6350000D01*
X14287500Y-4762500D02*
X14287500Y-6350000D01*
X10541000Y-4762500D02*
X14287500Y-4762500D01*
D11*
X10851891Y-6117981D02*
X10891891Y-6157981D01*
X10891891Y-6117981D02*
X10851891Y-6157981D01*
X11166600Y-6076000D02*
X11206600Y-6116000D01*
X11206600Y-6076000D02*
X11166600Y-6116000D01*
X11250560Y-5329060D02*
X11290560Y-5369060D01*
X11290560Y-5329060D02*
X11250560Y-5369060D01*
X11480810Y-5205580D02*
X11520810Y-5245580D01*
X11520810Y-5205580D02*
X11480810Y-5245580D01*
X11795080Y-5368610D02*
X11835080Y-5408610D01*
X11835080Y-5368610D02*
X11795080Y-5408610D01*
X11841660Y-5548370D02*
X11881660Y-5588370D01*
X11881660Y-5548370D02*
X11841660Y-5588370D01*
X11944460Y-5369330D02*
X11984460Y-5409330D01*
X11984460Y-5369330D02*
X11944460Y-5409330D01*
X12036364Y-6203000D02*
X12076364Y-6243000D01*
X12076364Y-6203000D02*
X12036364Y-6243000D01*
X12286400Y-5159468D02*
X12326400Y-5199468D01*
X12326400Y-5159468D02*
X12286400Y-5199468D01*
X12300176Y-5664106D02*
X12340176Y-5704106D01*
X12340176Y-5664106D02*
X12300176Y-5704106D01*
X12355460Y-5507240D02*
X12395460Y-5547240D01*
X12395460Y-5507240D02*
X12355460Y-5547240D01*
X12415277Y-6084073D02*
X12455277Y-6124073D01*
X12455277Y-6084073D02*
X12415277Y-6124073D01*
X10791700Y-5128260D02*
G75*
G03*
X10791700Y-5128260I-50000J0D01*
G01*
X10791700Y-5382260D02*
G75*
G03*
X10791700Y-5382260I-50000J0D01*
G01*
X10791700Y-5636260D02*
G75*
G03*
X10791700Y-5636260I-50000J0D01*
G01*
X10791700Y-5890260D02*
G75*
G03*
X10791700Y-5890260I-50000J0D01*
G01*
X14124100Y-5247640D02*
G75*
G03*
X14124100Y-5247640I-50000J0D01*
G01*
X14124100Y-5501640D02*
G75*
G03*
X14124100Y-5501640I-50000J0D01*
G01*
X14124100Y-5755640D02*
G75*
G03*
X14124100Y-5755640I-50000J0D01*
G01*
D12*
X10824928Y-6818214D02*
X10824928Y-6518214D01*
X10896357Y-6518214D01*
X10939214Y-6532500D01*
X10967786Y-6561071D01*
X10982071Y-6589643D01*
X10996357Y-6646786D01*
X10996357Y-6689643D01*
X10982071Y-6746786D01*
X10967786Y-6775357D01*
X10939214Y-6803929D01*
X10896357Y-6818214D01*
X10824928Y-6818214D01*
X11124928Y-6818214D02*
X11124928Y-6618214D01*
X11124928Y-6675357D02*
X11139214Y-6646786D01*
X11153500Y-6632500D01*
X11182071Y-6618214D01*
X11210643Y-6618214D01*
X11310643Y-6818214D02*
X11310643Y-6618214D01*
X11310643Y-6518214D02*
X11296357Y-6532500D01*
X11310643Y-6546786D01*
X11324928Y-6532500D01*
X11310643Y-6518214D01*
X11310643Y-6546786D01*
X11496357Y-6818214D02*
X11467786Y-6803929D01*
X11453500Y-6775357D01*
X11453500Y-6518214D01*
X11653500Y-6818214D02*
X11624928Y-6803929D01*
X11610643Y-6775357D01*
X11610643Y-6518214D01*
X11996357Y-6818214D02*
X11996357Y-6518214D01*
X12096357Y-6732500D01*
X12196357Y-6518214D01*
X12196357Y-6818214D01*
X12467786Y-6818214D02*
X12467786Y-6661071D01*
X12453500Y-6632500D01*
X12424928Y-6618214D01*
X12367786Y-6618214D01*
X12339214Y-6632500D01*
X12467786Y-6803929D02*
X12439214Y-6818214D01*
X12367786Y-6818214D01*
X12339214Y-6803929D01*
X12324928Y-6775357D01*
X12324928Y-6746786D01*
X12339214Y-6718214D01*
X12367786Y-6703929D01*
X12439214Y-6703929D01*
X12467786Y-6689643D01*
X12610643Y-6618214D02*
X12610643Y-6918214D01*
X12610643Y-6632500D02*
X12639214Y-6618214D01*
X12696357Y-6618214D01*
X12724928Y-6632500D01*
X12739214Y-6646786D01*
X12753500Y-6675357D01*
X12753500Y-6761071D01*
X12739214Y-6789643D01*
X12724928Y-6803929D01*
X12696357Y-6818214D01*
X12639214Y-6818214D01*
X12610643Y-6803929D01*
X12882071Y-6789643D02*
X12896357Y-6803929D01*
X12882071Y-6818214D01*
X12867786Y-6803929D01*
X12882071Y-6789643D01*
X12882071Y-6818214D01*
X12882071Y-6632500D02*
X12896357Y-6646786D01*
X12882071Y-6661071D01*
X12867786Y-6646786D01*
X12882071Y-6632500D01*
X12882071Y-6661071D01*
X10498500Y-7292500D02*
X10538500Y-7332500D01*
X10538500Y-7292500D02*
X10498500Y-7332500D01*
X10882071Y-7148214D02*
X10910643Y-7148214D01*
X10939214Y-7162500D01*
X10953500Y-7176786D01*
X10967786Y-7205357D01*
X10982071Y-7262500D01*
X10982071Y-7333929D01*
X10967786Y-7391071D01*
X10953500Y-7419643D01*
X10939214Y-7433929D01*
X10910643Y-7448214D01*
X10882071Y-7448214D01*
X10853500Y-7433929D01*
X10839214Y-7419643D01*
X10824928Y-7391071D01*
X10810643Y-7333929D01*
X10810643Y-7262500D01*
X10824928Y-7205357D01*
X10839214Y-7176786D01*
X10853500Y-7162500D01*
X10882071Y-7148214D01*
X11110643Y-7419643D02*
X11124928Y-7433929D01*
X11110643Y-7448214D01*
X11096357Y-7433929D01*
X11110643Y-7419643D01*
X11110643Y-7448214D01*
X11382071Y-7248214D02*
X11382071Y-7448214D01*
X11310643Y-7133929D02*
X11239214Y-7348214D01*
X11424928Y-7348214D01*
X11596357Y-7148214D02*
X11624928Y-7148214D01*
X11653500Y-7162500D01*
X11667786Y-7176786D01*
X11682071Y-7205357D01*
X11696357Y-7262500D01*
X11696357Y-7333929D01*
X11682071Y-7391071D01*
X11667786Y-7419643D01*
X11653500Y-7433929D01*
X11624928Y-7448214D01*
X11596357Y-7448214D01*
X11567786Y-7433929D01*
X11553500Y-7419643D01*
X11539214Y-7391071D01*
X11524928Y-7333929D01*
X11524928Y-7262500D01*
X11539214Y-7205357D01*
X11553500Y-7176786D01*
X11567786Y-7162500D01*
X11596357Y-7148214D01*
X11882071Y-7148214D02*
X11910643Y-7148214D01*
X11939214Y-7162500D01*
X11953500Y-7176786D01*
X11967786Y-7205357D01*
X11982071Y-7262500D01*
X11982071Y-7333929D01*
X11967786Y-7391071D01*
X11953500Y-7419643D01*
X11939214Y-7433929D01*
X11910643Y-7448214D01*
X11882071Y-7448214D01*
X11853500Y-7433929D01*
X11839214Y-7419643D01*
X11824928Y-7391071D01*
X11810643Y-7333929D01*
X11810643Y-7262500D01*
X11824928Y-7205357D01*
X11839214Y-7176786D01*
X11853500Y-7162500D01*
X11882071Y-7148214D01*
X12110643Y-7448214D02*
X12110643Y-7248214D01*
X12110643Y-7276786D02*
X12124928Y-7262500D01*
X12153500Y-7248214D01*
X12196357Y-7248214D01*
X12224928Y-7262500D01*
X12239214Y-7291071D01*
X12239214Y-7448214D01*
X12239214Y-7291071D02*
X12253500Y-7262500D01*
X12282071Y-7248214D01*
X12324928Y-7248214D01*
X12353500Y-7262500D01*
X12367786Y-7291071D01*
X12367786Y-7448214D01*
X12510643Y-7448214D02*
X12510643Y-7248214D01*
X12510643Y-7276786D02*
X12524928Y-7262500D01*
X12553500Y-7248214D01*
X12596357Y-7248214D01*
X12624928Y-7262500D01*
X12639214Y-7291071D01*
X12639214Y-7448214D01*
X12639214Y-7291071D02*
X12653500Y-7262500D01*
X12682071Y-7248214D01*
X12724928Y-7248214D01*
X12753500Y-7262500D01*
X12767786Y-7291071D01*
X12767786Y-7448214D01*
X13353500Y-7133929D02*
X13096357Y-7519643D01*
X13739214Y-7148214D02*
X13767786Y-7148214D01*
X13796357Y-7162500D01*
X13810643Y-7176786D01*
X13824928Y-7205357D01*
X13839214Y-7262500D01*
X13839214Y-7333929D01*
X13824928Y-7391071D01*
X13810643Y-7419643D01*
X13796357Y-7433929D01*
X13767786Y-7448214D01*
X13739214Y-7448214D01*
X13710643Y-7433929D01*
X13696357Y-7419643D01*
X13682071Y-7391071D01*
X13667786Y-7333929D01*
X13667786Y-7262500D01*
X13682071Y-7205357D01*
X13696357Y-7176786D01*
X13710643Y-7162500D01*
X13739214Y-7148214D01*
X13967786Y-7419643D02*
X13982071Y-7433929D01*
X13967786Y-7448214D01*
X13953500Y-7433929D01*
X13967786Y-7419643D01*
X13967786Y-7448214D01*
X14167786Y-7148214D02*
X14196357Y-7148214D01*
X14224928Y-7162500D01*
X14239214Y-7176786D01*
X14253500Y-7205357D01*
X14267786Y-7262500D01*
X14267786Y-7333929D01*
X14253500Y-7391071D01*
X14239214Y-7419643D01*
X14224928Y-7433929D01*
X14196357Y-7448214D01*
X14167786Y-7448214D01*
X14139214Y-7433929D01*
X14124928Y-7419643D01*
X14110643Y-7391071D01*
X14096357Y-7333929D01*
X14096357Y-7262500D01*
X14110643Y-7205357D01*
X14124928Y-7176786D01*
X14139214Y-7162500D01*
X14167786Y-7148214D01*
X14553500Y-7448214D02*
X14382071Y-7448214D01*
X14467786Y-7448214D02*
X14467786Y-7148214D01*
X14439214Y-7191071D01*
X14410643Y-7219643D01*
X14382071Y-7233929D01*
X14824928Y-7148214D02*
X14682071Y-7148214D01*
X14667786Y-7291071D01*
X14682071Y-7276786D01*
X14710643Y-7262500D01*
X14782071Y-7262500D01*
X14810643Y-7276786D01*
X14824928Y-7291071D01*
X14839214Y-7319643D01*
X14839214Y-7391071D01*
X14824928Y-7419643D01*
X14810643Y-7433929D01*
X14782071Y-7448214D01*
X14710643Y-7448214D01*
X14682071Y-7433929D01*
X14667786Y-7419643D01*
X14939214Y-7148214D02*
X15139214Y-7148214D01*
X15010643Y-7448214D01*
X15239214Y-7148214D02*
X15239214Y-7205357D01*
X15353500Y-7148214D02*
X15353500Y-7205357D01*
X15796357Y-7562500D02*
X15782071Y-7548214D01*
X15753500Y-7505357D01*
X15739214Y-7476786D01*
X15724928Y-7433929D01*
X15710643Y-7362500D01*
X15710643Y-7305357D01*
X15724928Y-7233929D01*
X15739214Y-7191071D01*
X15753500Y-7162500D01*
X15782071Y-7119643D01*
X15796357Y-7105357D01*
X16067786Y-7448214D02*
X15896357Y-7448214D01*
X15982071Y-7448214D02*
X15982071Y-7148214D01*
X15953500Y-7191071D01*
X15924928Y-7219643D01*
X15896357Y-7233929D01*
X16182071Y-7176786D02*
X16196357Y-7162500D01*
X16224928Y-7148214D01*
X16296357Y-7148214D01*
X16324928Y-7162500D01*
X16339214Y-7176786D01*
X16353500Y-7205357D01*
X16353500Y-7233929D01*
X16339214Y-7276786D01*
X16167786Y-7448214D01*
X16353500Y-7448214D01*
X16710643Y-7448214D02*
X16710643Y-7148214D01*
X16839214Y-7448214D02*
X16839214Y-7291071D01*
X16824928Y-7262500D01*
X16796357Y-7248214D01*
X16753500Y-7248214D01*
X16724928Y-7262500D01*
X16710643Y-7276786D01*
X17024928Y-7448214D02*
X16996357Y-7433929D01*
X16982071Y-7419643D01*
X16967786Y-7391071D01*
X16967786Y-7305357D01*
X16982071Y-7276786D01*
X16996357Y-7262500D01*
X17024928Y-7248214D01*
X17067786Y-7248214D01*
X17096357Y-7262500D01*
X17110643Y-7276786D01*
X17124928Y-7305357D01*
X17124928Y-7391071D01*
X17110643Y-7419643D01*
X17096357Y-7433929D01*
X17067786Y-7448214D01*
X17024928Y-7448214D01*
X17296357Y-7448214D02*
X17267786Y-7433929D01*
X17253500Y-7405357D01*
X17253500Y-7148214D01*
X17524928Y-7433929D02*
X17496357Y-7448214D01*
X17439214Y-7448214D01*
X17410643Y-7433929D01*
X17396357Y-7405357D01*
X17396357Y-7291071D01*
X17410643Y-7262500D01*
X17439214Y-7248214D01*
X17496357Y-7248214D01*
X17524928Y-7262500D01*
X17539214Y-7291071D01*
X17539214Y-7319643D01*
X17396357Y-7348214D01*
X17653500Y-7433929D02*
X17682071Y-7448214D01*
X17739214Y-7448214D01*
X17767786Y-7433929D01*
X17782071Y-7405357D01*
X17782071Y-7391071D01*
X17767786Y-7362500D01*
X17739214Y-7348214D01*
X17696357Y-7348214D01*
X17667786Y-7333929D01*
X17653500Y-7305357D01*
X17653500Y-7291071D01*
X17667786Y-7262500D01*
X17696357Y-7248214D01*
X17739214Y-7248214D01*
X17767786Y-7262500D01*
X17882071Y-7562500D02*
X17896357Y-7548214D01*
X17924928Y-7505357D01*
X17939214Y-7476786D01*
X17953500Y-7433929D01*
X17967786Y-7362500D01*
X17967786Y-7305357D01*
X17953500Y-7233929D01*
X17939214Y-7191071D01*
X17924928Y-7162500D01*
X17896357Y-7119643D01*
X17882071Y-7105357D01*
X10538500Y-7708500D02*
G75*
G03*
X10538500Y-7708500I-50000J0D01*
G01*
X10982071Y-7844214D02*
X10810643Y-7844214D01*
X10896357Y-7844214D02*
X10896357Y-7544214D01*
X10867786Y-7587071D01*
X10839214Y-7615643D01*
X10810643Y-7629929D01*
X11110643Y-7815643D02*
X11124928Y-7829929D01*
X11110643Y-7844214D01*
X11096357Y-7829929D01*
X11110643Y-7815643D01*
X11110643Y-7844214D01*
X11310643Y-7544214D02*
X11339214Y-7544214D01*
X11367786Y-7558500D01*
X11382071Y-7572786D01*
X11396357Y-7601357D01*
X11410643Y-7658500D01*
X11410643Y-7729929D01*
X11396357Y-7787071D01*
X11382071Y-7815643D01*
X11367786Y-7829929D01*
X11339214Y-7844214D01*
X11310643Y-7844214D01*
X11282071Y-7829929D01*
X11267786Y-7815643D01*
X11253500Y-7787071D01*
X11239214Y-7729929D01*
X11239214Y-7658500D01*
X11253500Y-7601357D01*
X11267786Y-7572786D01*
X11282071Y-7558500D01*
X11310643Y-7544214D01*
X11596357Y-7544214D02*
X11624928Y-7544214D01*
X11653500Y-7558500D01*
X11667786Y-7572786D01*
X11682071Y-7601357D01*
X11696357Y-7658500D01*
X11696357Y-7729929D01*
X11682071Y-7787071D01*
X11667786Y-7815643D01*
X11653500Y-7829929D01*
X11624928Y-7844214D01*
X11596357Y-7844214D01*
X11567786Y-7829929D01*
X11553500Y-7815643D01*
X11539214Y-7787071D01*
X11524928Y-7729929D01*
X11524928Y-7658500D01*
X11539214Y-7601357D01*
X11553500Y-7572786D01*
X11567786Y-7558500D01*
X11596357Y-7544214D01*
X11882071Y-7544214D02*
X11910643Y-7544214D01*
X11939214Y-7558500D01*
X11953500Y-7572786D01*
X11967786Y-7601357D01*
X11982071Y-7658500D01*
X11982071Y-7729929D01*
X11967786Y-7787071D01*
X11953500Y-7815643D01*
X11939214Y-7829929D01*
X11910643Y-7844214D01*
X11882071Y-7844214D01*
X11853500Y-7829929D01*
X11839214Y-7815643D01*
X11824928Y-7787071D01*
X11810643Y-7729929D01*
X11810643Y-7658500D01*
X11824928Y-7601357D01*
X11839214Y-7572786D01*
X11853500Y-7558500D01*
X11882071Y-7544214D01*
X12110643Y-7844214D02*
X12110643Y-7644214D01*
X12110643Y-7672786D02*
X12124928Y-7658500D01*
X12153500Y-7644214D01*
X12196357Y-7644214D01*
X12224928Y-7658500D01*
X12239214Y-7687071D01*
X12239214Y-7844214D01*
X12239214Y-7687071D02*
X12253500Y-7658500D01*
X12282071Y-7644214D01*
X12324928Y-7644214D01*
X12353500Y-7658500D01*
X12367786Y-7687071D01*
X12367786Y-7844214D01*
X12510643Y-7844214D02*
X12510643Y-7644214D01*
X12510643Y-7672786D02*
X12524928Y-7658500D01*
X12553500Y-7644214D01*
X12596357Y-7644214D01*
X12624928Y-7658500D01*
X12639214Y-7687071D01*
X12639214Y-7844214D01*
X12639214Y-7687071D02*
X12653500Y-7658500D01*
X12682071Y-7644214D01*
X12724928Y-7644214D01*
X12753500Y-7658500D01*
X12767786Y-7687071D01*
X12767786Y-7844214D01*
X13353500Y-7529929D02*
X13096357Y-7915643D01*
X13739214Y-7544214D02*
X13767786Y-7544214D01*
X13796357Y-7558500D01*
X13810643Y-7572786D01*
X13824928Y-7601357D01*
X13839214Y-7658500D01*
X13839214Y-7729929D01*
X13824928Y-7787071D01*
X13810643Y-7815643D01*
X13796357Y-7829929D01*
X13767786Y-7844214D01*
X13739214Y-7844214D01*
X13710643Y-7829929D01*
X13696357Y-7815643D01*
X13682071Y-7787071D01*
X13667786Y-7729929D01*
X13667786Y-7658500D01*
X13682071Y-7601357D01*
X13696357Y-7572786D01*
X13710643Y-7558500D01*
X13739214Y-7544214D01*
X13967786Y-7815643D02*
X13982071Y-7829929D01*
X13967786Y-7844214D01*
X13953500Y-7829929D01*
X13967786Y-7815643D01*
X13967786Y-7844214D01*
X14167786Y-7544214D02*
X14196357Y-7544214D01*
X14224928Y-7558500D01*
X14239214Y-7572786D01*
X14253500Y-7601357D01*
X14267786Y-7658500D01*
X14267786Y-7729929D01*
X14253500Y-7787071D01*
X14239214Y-7815643D01*
X14224928Y-7829929D01*
X14196357Y-7844214D01*
X14167786Y-7844214D01*
X14139214Y-7829929D01*
X14124928Y-7815643D01*
X14110643Y-7787071D01*
X14096357Y-7729929D01*
X14096357Y-7658500D01*
X14110643Y-7601357D01*
X14124928Y-7572786D01*
X14139214Y-7558500D01*
X14167786Y-7544214D01*
X14367786Y-7544214D02*
X14553500Y-7544214D01*
X14453500Y-7658500D01*
X14496357Y-7658500D01*
X14524928Y-7672786D01*
X14539214Y-7687071D01*
X14553500Y-7715643D01*
X14553500Y-7787071D01*
X14539214Y-7815643D01*
X14524928Y-7829929D01*
X14496357Y-7844214D01*
X14410643Y-7844214D01*
X14382071Y-7829929D01*
X14367786Y-7815643D01*
X14696357Y-7844214D02*
X14753500Y-7844214D01*
X14782071Y-7829929D01*
X14796357Y-7815643D01*
X14824928Y-7772786D01*
X14839214Y-7715643D01*
X14839214Y-7601357D01*
X14824928Y-7572786D01*
X14810643Y-7558500D01*
X14782071Y-7544214D01*
X14724928Y-7544214D01*
X14696357Y-7558500D01*
X14682071Y-7572786D01*
X14667786Y-7601357D01*
X14667786Y-7672786D01*
X14682071Y-7701357D01*
X14696357Y-7715643D01*
X14724928Y-7729929D01*
X14782071Y-7729929D01*
X14810643Y-7715643D01*
X14824928Y-7701357D01*
X14839214Y-7672786D01*
X15096357Y-7644214D02*
X15096357Y-7844214D01*
X15024928Y-7529929D02*
X14953500Y-7744214D01*
X15139214Y-7744214D01*
X15239214Y-7544214D02*
X15239214Y-7601357D01*
X15353500Y-7544214D02*
X15353500Y-7601357D01*
X15796357Y-7958500D02*
X15782071Y-7944214D01*
X15753500Y-7901357D01*
X15739214Y-7872786D01*
X15724928Y-7829929D01*
X15710643Y-7758500D01*
X15710643Y-7701357D01*
X15724928Y-7629929D01*
X15739214Y-7587071D01*
X15753500Y-7558500D01*
X15782071Y-7515643D01*
X15796357Y-7501357D01*
X15882071Y-7544214D02*
X16082071Y-7544214D01*
X15953500Y-7844214D01*
X16424928Y-7844214D02*
X16424928Y-7544214D01*
X16553500Y-7844214D02*
X16553500Y-7687071D01*
X16539214Y-7658500D01*
X16510643Y-7644214D01*
X16467786Y-7644214D01*
X16439214Y-7658500D01*
X16424928Y-7672786D01*
X16739214Y-7844214D02*
X16710643Y-7829929D01*
X16696357Y-7815643D01*
X16682071Y-7787071D01*
X16682071Y-7701357D01*
X16696357Y-7672786D01*
X16710643Y-7658500D01*
X16739214Y-7644214D01*
X16782071Y-7644214D01*
X16810643Y-7658500D01*
X16824928Y-7672786D01*
X16839214Y-7701357D01*
X16839214Y-7787071D01*
X16824928Y-7815643D01*
X16810643Y-7829929D01*
X16782071Y-7844214D01*
X16739214Y-7844214D01*
X17010643Y-7844214D02*
X16982071Y-7829929D01*
X16967786Y-7801357D01*
X16967786Y-7544214D01*
X17239214Y-7829929D02*
X17210643Y-7844214D01*
X17153500Y-7844214D01*
X17124928Y-7829929D01*
X17110643Y-7801357D01*
X17110643Y-7687071D01*
X17124928Y-7658500D01*
X17153500Y-7644214D01*
X17210643Y-7644214D01*
X17239214Y-7658500D01*
X17253500Y-7687071D01*
X17253500Y-7715643D01*
X17110643Y-7744214D01*
X17367786Y-7829929D02*
X17396357Y-7844214D01*
X17453500Y-7844214D01*
X17482071Y-7829929D01*
X17496357Y-7801357D01*
X17496357Y-7787071D01*
X17482071Y-7758500D01*
X17453500Y-7744214D01*
X17410643Y-7744214D01*
X17382071Y-7729929D01*
X17367786Y-7701357D01*
X17367786Y-7687071D01*
X17382071Y-7658500D01*
X17410643Y-7644214D01*
X17453500Y-7644214D01*
X17482071Y-7658500D01*
X17596357Y-7958500D02*
X17610643Y-7944214D01*
X17639214Y-7901357D01*
X17653500Y-7872786D01*
X17667786Y-7829929D01*
X17682071Y-7758500D01*
X17682071Y-7701357D01*
X17667786Y-7629929D01*
X17653500Y-7587071D01*
X17639214Y-7558500D01*
X17610643Y-7515643D01*
X17596357Y-7501357D01*
M02*
