%TF.GenerationSoftware,KiCad,Pcbnew,(5.1.10)-1*%
%TF.CreationDate,2021-09-08T08:36:34-07:00*%
%TF.ProjectId,Max 485 transmitter,4d617820-3438-4352-9074-72616e736d69,rev?*%
%TF.SameCoordinates,Original*%
%TF.FileFunction,Legend,Top*%
%TF.FilePolarity,Positive*%
%FSLAX46Y46*%
G04 Gerber Fmt 4.6, Leading zero omitted, Abs format (unit mm)*
G04 Created by KiCad (PCBNEW (5.1.10)-1) date 2021-09-08 08:36:34*
%MOMM*%
%LPD*%
G01*
G04 APERTURE LIST*
%ADD10C,0.300000*%
%ADD11C,0.120000*%
%ADD12C,0.200000*%
%ADD13C,0.150000*%
%ADD14C,0.254000*%
G04 APERTURE END LIST*
D10*
X127410400Y-52748571D02*
X126910400Y-52034285D01*
X126553257Y-52748571D02*
X126553257Y-51248571D01*
X127124685Y-51248571D01*
X127267542Y-51320000D01*
X127338971Y-51391428D01*
X127410400Y-51534285D01*
X127410400Y-51748571D01*
X127338971Y-51891428D01*
X127267542Y-51962857D01*
X127124685Y-52034285D01*
X126553257Y-52034285D01*
X127910400Y-51248571D02*
X128910400Y-52748571D01*
X128910400Y-51248571D02*
X127910400Y-52748571D01*
X126492142Y-48708571D02*
X127349285Y-48708571D01*
X126920714Y-50208571D02*
X126920714Y-48708571D01*
X127706428Y-48708571D02*
X128706428Y-50208571D01*
X128706428Y-48708571D02*
X127706428Y-50208571D01*
D11*
%TO.C,C2*%
X116412164Y-61235000D02*
X116627836Y-61235000D01*
X116412164Y-61955000D02*
X116627836Y-61955000D01*
%TO.C,C1*%
X118322164Y-52980000D02*
X118537836Y-52980000D01*
X118322164Y-53700000D02*
X118537836Y-53700000D01*
%TO.C,Converter101*%
X146173000Y-47769000D02*
X146173000Y-63069000D01*
X116173000Y-47769000D02*
X117173000Y-47769000D01*
X146173000Y-47769000D02*
X103173000Y-47769000D01*
X103173000Y-47769000D02*
X103173000Y-63069000D01*
X103173000Y-63069000D02*
X146173000Y-63069000D01*
D12*
%TO.C,F101*%
X134893000Y-48261500D02*
X134893000Y-51301500D01*
%TO.C,D103*%
X129512000Y-56923400D02*
X129512000Y-62268400D01*
X132108000Y-61963400D02*
X132108000Y-56923400D01*
%TO.C,D104*%
X138911000Y-56410800D02*
X133566000Y-56410800D01*
X133871000Y-59006800D02*
X138911000Y-59006800D01*
%TO.C,D105*%
X133896000Y-62639000D02*
X139241000Y-62639000D01*
X138936000Y-60043000D02*
X133896000Y-60043000D01*
D11*
%TO.C,R9*%
X141200000Y-50494541D02*
X141200000Y-50187259D01*
X141960000Y-50494541D02*
X141960000Y-50187259D01*
%TO.C,R8*%
X118591359Y-49785000D02*
X118898641Y-49785000D01*
X118591359Y-50545000D02*
X118898641Y-50545000D01*
%TO.C,R7*%
X115541359Y-49785000D02*
X115848641Y-49785000D01*
X115541359Y-50545000D02*
X115848641Y-50545000D01*
%TO.C,R5*%
X112015000Y-50828641D02*
X112015000Y-50521359D01*
X112775000Y-50828641D02*
X112775000Y-50521359D01*
%TO.C,R4*%
X110235000Y-50521359D02*
X110235000Y-50828641D01*
X109475000Y-50521359D02*
X109475000Y-50828641D01*
%TO.C,R3*%
X107695000Y-50521359D02*
X107695000Y-50828641D01*
X106935000Y-50521359D02*
X106935000Y-50828641D01*
%TO.C,R2*%
X123898641Y-62610000D02*
X123591359Y-62610000D01*
X123898641Y-61850000D02*
X123591359Y-61850000D01*
%TO.C,R1*%
X127606359Y-53595000D02*
X127913641Y-53595000D01*
X127606359Y-54355000D02*
X127913641Y-54355000D01*
%TO.C,R0*%
X141200000Y-54662041D02*
X141200000Y-54354759D01*
X141960000Y-54662041D02*
X141960000Y-54354759D01*
D12*
%TO.C,IC102*%
X120955000Y-55335000D02*
X124155000Y-55335000D01*
X124155000Y-55335000D02*
X124155000Y-60235000D01*
X124155000Y-60235000D02*
X120955000Y-60235000D01*
X120955000Y-60235000D02*
X120955000Y-55335000D01*
X119105000Y-55205000D02*
X120605000Y-55205000D01*
%TO.C,IC101*%
X108440000Y-52825000D02*
X111640000Y-52825000D01*
X111640000Y-52825000D02*
X111640000Y-61475000D01*
X111640000Y-61475000D02*
X108440000Y-61475000D01*
X108440000Y-61475000D02*
X108440000Y-52825000D01*
X106540000Y-52640000D02*
X108090000Y-52640000D01*
%TO.C,F102*%
X134915000Y-52455000D02*
X134915000Y-55495000D01*
D11*
%TO.C,D102*%
X125040000Y-50030000D02*
X123540000Y-50030000D01*
X125040000Y-50030000D02*
X125140000Y-50030000D01*
X125140000Y-50030000D02*
X125240000Y-50030000D01*
X125240000Y-50030000D02*
X125240000Y-49830000D01*
X125240000Y-49830000D02*
X125240000Y-49030000D01*
X125240000Y-49030000D02*
X123540000Y-49030000D01*
%TO.C,D101*%
X125040000Y-53205000D02*
X123540000Y-53205000D01*
X125040000Y-53205000D02*
X125140000Y-53205000D01*
X125140000Y-53205000D02*
X125240000Y-53205000D01*
X125240000Y-53205000D02*
X125240000Y-53005000D01*
X125240000Y-53005000D02*
X125240000Y-52205000D01*
X125240000Y-52205000D02*
X123540000Y-52205000D01*
%TO.C,D1*%
X115205000Y-59655000D02*
X117205000Y-59655000D01*
X117205000Y-59655000D02*
X117205000Y-55755000D01*
X115205000Y-59655000D02*
X115205000Y-55755000D01*
%TO.C,C2*%
D13*
X116353333Y-60792142D02*
X116305714Y-60839761D01*
X116162857Y-60887380D01*
X116067619Y-60887380D01*
X115924761Y-60839761D01*
X115829523Y-60744523D01*
X115781904Y-60649285D01*
X115734285Y-60458809D01*
X115734285Y-60315952D01*
X115781904Y-60125476D01*
X115829523Y-60030238D01*
X115924761Y-59935000D01*
X116067619Y-59887380D01*
X116162857Y-59887380D01*
X116305714Y-59935000D01*
X116353333Y-59982619D01*
X116734285Y-59982619D02*
X116781904Y-59935000D01*
X116877142Y-59887380D01*
X117115238Y-59887380D01*
X117210476Y-59935000D01*
X117258095Y-59982619D01*
X117305714Y-60077857D01*
X117305714Y-60173095D01*
X117258095Y-60315952D01*
X116686666Y-60887380D01*
X117305714Y-60887380D01*
%TO.C,C1*%
X118263333Y-52537142D02*
X118215714Y-52584761D01*
X118072857Y-52632380D01*
X117977619Y-52632380D01*
X117834761Y-52584761D01*
X117739523Y-52489523D01*
X117691904Y-52394285D01*
X117644285Y-52203809D01*
X117644285Y-52060952D01*
X117691904Y-51870476D01*
X117739523Y-51775238D01*
X117834761Y-51680000D01*
X117977619Y-51632380D01*
X118072857Y-51632380D01*
X118215714Y-51680000D01*
X118263333Y-51727619D01*
X119215714Y-52632380D02*
X118644285Y-52632380D01*
X118930000Y-52632380D02*
X118930000Y-51632380D01*
X118834761Y-51775238D01*
X118739523Y-51870476D01*
X118644285Y-51918095D01*
%TO.C,F101*%
D14*
X133260142Y-49690785D02*
X132836809Y-49690785D01*
X132836809Y-50356023D02*
X132836809Y-49086023D01*
X133441571Y-49086023D01*
X134590619Y-50356023D02*
X133864904Y-50356023D01*
X134227761Y-50356023D02*
X134227761Y-49086023D01*
X134106809Y-49267452D01*
X133985857Y-49388404D01*
X133864904Y-49448880D01*
X135376809Y-49086023D02*
X135497761Y-49086023D01*
X135618714Y-49146500D01*
X135679190Y-49206976D01*
X135739666Y-49327928D01*
X135800142Y-49569833D01*
X135800142Y-49872214D01*
X135739666Y-50114119D01*
X135679190Y-50235071D01*
X135618714Y-50295547D01*
X135497761Y-50356023D01*
X135376809Y-50356023D01*
X135255857Y-50295547D01*
X135195380Y-50235071D01*
X135134904Y-50114119D01*
X135074428Y-49872214D01*
X135074428Y-49569833D01*
X135134904Y-49327928D01*
X135195380Y-49206976D01*
X135255857Y-49146500D01*
X135376809Y-49086023D01*
X137009666Y-50356023D02*
X136283952Y-50356023D01*
X136646809Y-50356023D02*
X136646809Y-49086023D01*
X136525857Y-49267452D01*
X136404904Y-49388404D01*
X136283952Y-49448880D01*
%TO.C,D103*%
X131384523Y-61590304D02*
X130114523Y-61590304D01*
X130114523Y-61287923D01*
X130175000Y-61106495D01*
X130295952Y-60985542D01*
X130416904Y-60925066D01*
X130658809Y-60864590D01*
X130840238Y-60864590D01*
X131082142Y-60925066D01*
X131203095Y-60985542D01*
X131324047Y-61106495D01*
X131384523Y-61287923D01*
X131384523Y-61590304D01*
X131384523Y-59655066D02*
X131384523Y-60380780D01*
X131384523Y-60017923D02*
X130114523Y-60017923D01*
X130295952Y-60138876D01*
X130416904Y-60259828D01*
X130477380Y-60380780D01*
X130114523Y-58868876D02*
X130114523Y-58747923D01*
X130175000Y-58626971D01*
X130235476Y-58566495D01*
X130356428Y-58506019D01*
X130598333Y-58445542D01*
X130900714Y-58445542D01*
X131142619Y-58506019D01*
X131263571Y-58566495D01*
X131324047Y-58626971D01*
X131384523Y-58747923D01*
X131384523Y-58868876D01*
X131324047Y-58989828D01*
X131263571Y-59050304D01*
X131142619Y-59110780D01*
X130900714Y-59171257D01*
X130598333Y-59171257D01*
X130356428Y-59110780D01*
X130235476Y-59050304D01*
X130175000Y-58989828D01*
X130114523Y-58868876D01*
X130114523Y-58022209D02*
X130114523Y-57236019D01*
X130598333Y-57659352D01*
X130598333Y-57477923D01*
X130658809Y-57356971D01*
X130719285Y-57296495D01*
X130840238Y-57236019D01*
X131142619Y-57236019D01*
X131263571Y-57296495D01*
X131324047Y-57356971D01*
X131384523Y-57477923D01*
X131384523Y-57840780D01*
X131324047Y-57961733D01*
X131263571Y-58022209D01*
%TO.C,D104*%
X134244095Y-58283323D02*
X134244095Y-57013323D01*
X134546476Y-57013323D01*
X134727904Y-57073800D01*
X134848857Y-57194752D01*
X134909333Y-57315704D01*
X134969809Y-57557609D01*
X134969809Y-57739038D01*
X134909333Y-57980942D01*
X134848857Y-58101895D01*
X134727904Y-58222847D01*
X134546476Y-58283323D01*
X134244095Y-58283323D01*
X136179333Y-58283323D02*
X135453619Y-58283323D01*
X135816476Y-58283323D02*
X135816476Y-57013323D01*
X135695523Y-57194752D01*
X135574571Y-57315704D01*
X135453619Y-57376180D01*
X136965523Y-57013323D02*
X137086476Y-57013323D01*
X137207428Y-57073800D01*
X137267904Y-57134276D01*
X137328380Y-57255228D01*
X137388857Y-57497133D01*
X137388857Y-57799514D01*
X137328380Y-58041419D01*
X137267904Y-58162371D01*
X137207428Y-58222847D01*
X137086476Y-58283323D01*
X136965523Y-58283323D01*
X136844571Y-58222847D01*
X136784095Y-58162371D01*
X136723619Y-58041419D01*
X136663142Y-57799514D01*
X136663142Y-57497133D01*
X136723619Y-57255228D01*
X136784095Y-57134276D01*
X136844571Y-57073800D01*
X136965523Y-57013323D01*
X138477428Y-57436657D02*
X138477428Y-58283323D01*
X138175047Y-56952847D02*
X137872666Y-57859990D01*
X138658857Y-57859990D01*
%TO.C,D105*%
X134269095Y-61915523D02*
X134269095Y-60645523D01*
X134571476Y-60645523D01*
X134752904Y-60706000D01*
X134873857Y-60826952D01*
X134934333Y-60947904D01*
X134994809Y-61189809D01*
X134994809Y-61371238D01*
X134934333Y-61613142D01*
X134873857Y-61734095D01*
X134752904Y-61855047D01*
X134571476Y-61915523D01*
X134269095Y-61915523D01*
X136204333Y-61915523D02*
X135478619Y-61915523D01*
X135841476Y-61915523D02*
X135841476Y-60645523D01*
X135720523Y-60826952D01*
X135599571Y-60947904D01*
X135478619Y-61008380D01*
X136990523Y-60645523D02*
X137111476Y-60645523D01*
X137232428Y-60706000D01*
X137292904Y-60766476D01*
X137353380Y-60887428D01*
X137413857Y-61129333D01*
X137413857Y-61431714D01*
X137353380Y-61673619D01*
X137292904Y-61794571D01*
X137232428Y-61855047D01*
X137111476Y-61915523D01*
X136990523Y-61915523D01*
X136869571Y-61855047D01*
X136809095Y-61794571D01*
X136748619Y-61673619D01*
X136688142Y-61431714D01*
X136688142Y-61129333D01*
X136748619Y-60887428D01*
X136809095Y-60766476D01*
X136869571Y-60706000D01*
X136990523Y-60645523D01*
X138562904Y-60645523D02*
X137958142Y-60645523D01*
X137897666Y-61250285D01*
X137958142Y-61189809D01*
X138079095Y-61129333D01*
X138381476Y-61129333D01*
X138502428Y-61189809D01*
X138562904Y-61250285D01*
X138623380Y-61371238D01*
X138623380Y-61673619D01*
X138562904Y-61794571D01*
X138502428Y-61855047D01*
X138381476Y-61915523D01*
X138079095Y-61915523D01*
X137958142Y-61855047D01*
X137897666Y-61794571D01*
%TO.C,R9*%
D13*
X143251580Y-50915866D02*
X142775390Y-51249200D01*
X143251580Y-51487295D02*
X142251580Y-51487295D01*
X142251580Y-51106342D01*
X142299200Y-51011104D01*
X142346819Y-50963485D01*
X142442057Y-50915866D01*
X142584914Y-50915866D01*
X142680152Y-50963485D01*
X142727771Y-51011104D01*
X142775390Y-51106342D01*
X142775390Y-51487295D01*
X143251580Y-50439676D02*
X143251580Y-50249200D01*
X143203961Y-50153961D01*
X143156342Y-50106342D01*
X143013485Y-50011104D01*
X142823009Y-49963485D01*
X142442057Y-49963485D01*
X142346819Y-50011104D01*
X142299200Y-50058723D01*
X142251580Y-50153961D01*
X142251580Y-50344438D01*
X142299200Y-50439676D01*
X142346819Y-50487295D01*
X142442057Y-50534914D01*
X142680152Y-50534914D01*
X142775390Y-50487295D01*
X142823009Y-50439676D01*
X142870628Y-50344438D01*
X142870628Y-50153961D01*
X142823009Y-50058723D01*
X142775390Y-50011104D01*
X142680152Y-49963485D01*
%TO.C,R8*%
X120873780Y-50865066D02*
X120397590Y-51198400D01*
X120873780Y-51436495D02*
X119873780Y-51436495D01*
X119873780Y-51055542D01*
X119921400Y-50960304D01*
X119969019Y-50912685D01*
X120064257Y-50865066D01*
X120207114Y-50865066D01*
X120302352Y-50912685D01*
X120349971Y-50960304D01*
X120397590Y-51055542D01*
X120397590Y-51436495D01*
X120302352Y-50293638D02*
X120254733Y-50388876D01*
X120207114Y-50436495D01*
X120111876Y-50484114D01*
X120064257Y-50484114D01*
X119969019Y-50436495D01*
X119921400Y-50388876D01*
X119873780Y-50293638D01*
X119873780Y-50103161D01*
X119921400Y-50007923D01*
X119969019Y-49960304D01*
X120064257Y-49912685D01*
X120111876Y-49912685D01*
X120207114Y-49960304D01*
X120254733Y-50007923D01*
X120302352Y-50103161D01*
X120302352Y-50293638D01*
X120349971Y-50388876D01*
X120397590Y-50436495D01*
X120492828Y-50484114D01*
X120683304Y-50484114D01*
X120778542Y-50436495D01*
X120826161Y-50388876D01*
X120873780Y-50293638D01*
X120873780Y-50103161D01*
X120826161Y-50007923D01*
X120778542Y-49960304D01*
X120683304Y-49912685D01*
X120492828Y-49912685D01*
X120397590Y-49960304D01*
X120349971Y-50007923D01*
X120302352Y-50103161D01*
%TO.C,R7*%
X115653333Y-52522380D02*
X115320000Y-52046190D01*
X115081904Y-52522380D02*
X115081904Y-51522380D01*
X115462857Y-51522380D01*
X115558095Y-51570000D01*
X115605714Y-51617619D01*
X115653333Y-51712857D01*
X115653333Y-51855714D01*
X115605714Y-51950952D01*
X115558095Y-51998571D01*
X115462857Y-52046190D01*
X115081904Y-52046190D01*
X115986666Y-51522380D02*
X116653333Y-51522380D01*
X116224761Y-52522380D01*
%TO.C,R5*%
X111771133Y-49476380D02*
X111437800Y-49000190D01*
X111199704Y-49476380D02*
X111199704Y-48476380D01*
X111580657Y-48476380D01*
X111675895Y-48524000D01*
X111723514Y-48571619D01*
X111771133Y-48666857D01*
X111771133Y-48809714D01*
X111723514Y-48904952D01*
X111675895Y-48952571D01*
X111580657Y-49000190D01*
X111199704Y-49000190D01*
X112675895Y-48476380D02*
X112199704Y-48476380D01*
X112152085Y-48952571D01*
X112199704Y-48904952D01*
X112294942Y-48857333D01*
X112533038Y-48857333D01*
X112628276Y-48904952D01*
X112675895Y-48952571D01*
X112723514Y-49047809D01*
X112723514Y-49285904D01*
X112675895Y-49381142D01*
X112628276Y-49428761D01*
X112533038Y-49476380D01*
X112294942Y-49476380D01*
X112199704Y-49428761D01*
X112152085Y-49381142D01*
%TO.C,R4*%
X109612133Y-49220380D02*
X109278800Y-48744190D01*
X109040704Y-49220380D02*
X109040704Y-48220380D01*
X109421657Y-48220380D01*
X109516895Y-48268000D01*
X109564514Y-48315619D01*
X109612133Y-48410857D01*
X109612133Y-48553714D01*
X109564514Y-48648952D01*
X109516895Y-48696571D01*
X109421657Y-48744190D01*
X109040704Y-48744190D01*
X110469276Y-48553714D02*
X110469276Y-49220380D01*
X110231180Y-48172761D02*
X109993085Y-48887047D01*
X110612133Y-48887047D01*
%TO.C,R3*%
X106843533Y-49171580D02*
X106510200Y-48695390D01*
X106272104Y-49171580D02*
X106272104Y-48171580D01*
X106653057Y-48171580D01*
X106748295Y-48219200D01*
X106795914Y-48266819D01*
X106843533Y-48362057D01*
X106843533Y-48504914D01*
X106795914Y-48600152D01*
X106748295Y-48647771D01*
X106653057Y-48695390D01*
X106272104Y-48695390D01*
X107176866Y-48171580D02*
X107795914Y-48171580D01*
X107462580Y-48552533D01*
X107605438Y-48552533D01*
X107700676Y-48600152D01*
X107748295Y-48647771D01*
X107795914Y-48743009D01*
X107795914Y-48981104D01*
X107748295Y-49076342D01*
X107700676Y-49123961D01*
X107605438Y-49171580D01*
X107319723Y-49171580D01*
X107224485Y-49123961D01*
X107176866Y-49076342D01*
%TO.C,R2*%
X125766533Y-62529980D02*
X125433200Y-62053790D01*
X125195104Y-62529980D02*
X125195104Y-61529980D01*
X125576057Y-61529980D01*
X125671295Y-61577600D01*
X125718914Y-61625219D01*
X125766533Y-61720457D01*
X125766533Y-61863314D01*
X125718914Y-61958552D01*
X125671295Y-62006171D01*
X125576057Y-62053790D01*
X125195104Y-62053790D01*
X126147485Y-61625219D02*
X126195104Y-61577600D01*
X126290342Y-61529980D01*
X126528438Y-61529980D01*
X126623676Y-61577600D01*
X126671295Y-61625219D01*
X126718914Y-61720457D01*
X126718914Y-61815695D01*
X126671295Y-61958552D01*
X126099866Y-62529980D01*
X126718914Y-62529980D01*
%TO.C,R1*%
X129674133Y-54376580D02*
X129340800Y-53900390D01*
X129102704Y-54376580D02*
X129102704Y-53376580D01*
X129483657Y-53376580D01*
X129578895Y-53424200D01*
X129626514Y-53471819D01*
X129674133Y-53567057D01*
X129674133Y-53709914D01*
X129626514Y-53805152D01*
X129578895Y-53852771D01*
X129483657Y-53900390D01*
X129102704Y-53900390D01*
X130626514Y-54376580D02*
X130055085Y-54376580D01*
X130340800Y-54376580D02*
X130340800Y-53376580D01*
X130245561Y-53519438D01*
X130150323Y-53614676D01*
X130055085Y-53662295D01*
%TO.C,R0*%
X143149980Y-54522666D02*
X142673790Y-54856000D01*
X143149980Y-55094095D02*
X142149980Y-55094095D01*
X142149980Y-54713142D01*
X142197600Y-54617904D01*
X142245219Y-54570285D01*
X142340457Y-54522666D01*
X142483314Y-54522666D01*
X142578552Y-54570285D01*
X142626171Y-54617904D01*
X142673790Y-54713142D01*
X142673790Y-55094095D01*
X142149980Y-53903619D02*
X142149980Y-53808380D01*
X142197600Y-53713142D01*
X142245219Y-53665523D01*
X142340457Y-53617904D01*
X142530933Y-53570285D01*
X142769028Y-53570285D01*
X142959504Y-53617904D01*
X143054742Y-53665523D01*
X143102361Y-53713142D01*
X143149980Y-53808380D01*
X143149980Y-53903619D01*
X143102361Y-53998857D01*
X143054742Y-54046476D01*
X142959504Y-54094095D01*
X142769028Y-54141714D01*
X142530933Y-54141714D01*
X142340457Y-54094095D01*
X142245219Y-54046476D01*
X142197600Y-53998857D01*
X142149980Y-53903619D01*
%TO.C,IC102*%
D14*
X120105714Y-58359523D02*
X120105714Y-57089523D01*
X121436190Y-58238571D02*
X121375714Y-58299047D01*
X121194285Y-58359523D01*
X121073333Y-58359523D01*
X120891904Y-58299047D01*
X120770952Y-58178095D01*
X120710476Y-58057142D01*
X120650000Y-57815238D01*
X120650000Y-57633809D01*
X120710476Y-57391904D01*
X120770952Y-57270952D01*
X120891904Y-57150000D01*
X121073333Y-57089523D01*
X121194285Y-57089523D01*
X121375714Y-57150000D01*
X121436190Y-57210476D01*
X122645714Y-58359523D02*
X121920000Y-58359523D01*
X122282857Y-58359523D02*
X122282857Y-57089523D01*
X122161904Y-57270952D01*
X122040952Y-57391904D01*
X121920000Y-57452380D01*
X123431904Y-57089523D02*
X123552857Y-57089523D01*
X123673809Y-57150000D01*
X123734285Y-57210476D01*
X123794761Y-57331428D01*
X123855238Y-57573333D01*
X123855238Y-57875714D01*
X123794761Y-58117619D01*
X123734285Y-58238571D01*
X123673809Y-58299047D01*
X123552857Y-58359523D01*
X123431904Y-58359523D01*
X123310952Y-58299047D01*
X123250476Y-58238571D01*
X123190000Y-58117619D01*
X123129523Y-57875714D01*
X123129523Y-57573333D01*
X123190000Y-57331428D01*
X123250476Y-57210476D01*
X123310952Y-57150000D01*
X123431904Y-57089523D01*
X124339047Y-57210476D02*
X124399523Y-57150000D01*
X124520476Y-57089523D01*
X124822857Y-57089523D01*
X124943809Y-57150000D01*
X125004285Y-57210476D01*
X125064761Y-57331428D01*
X125064761Y-57452380D01*
X125004285Y-57633809D01*
X124278571Y-58359523D01*
X125064761Y-58359523D01*
%TO.C,IC101*%
X107590714Y-57724523D02*
X107590714Y-56454523D01*
X108921190Y-57603571D02*
X108860714Y-57664047D01*
X108679285Y-57724523D01*
X108558333Y-57724523D01*
X108376904Y-57664047D01*
X108255952Y-57543095D01*
X108195476Y-57422142D01*
X108135000Y-57180238D01*
X108135000Y-56998809D01*
X108195476Y-56756904D01*
X108255952Y-56635952D01*
X108376904Y-56515000D01*
X108558333Y-56454523D01*
X108679285Y-56454523D01*
X108860714Y-56515000D01*
X108921190Y-56575476D01*
X110130714Y-57724523D02*
X109405000Y-57724523D01*
X109767857Y-57724523D02*
X109767857Y-56454523D01*
X109646904Y-56635952D01*
X109525952Y-56756904D01*
X109405000Y-56817380D01*
X110916904Y-56454523D02*
X111037857Y-56454523D01*
X111158809Y-56515000D01*
X111219285Y-56575476D01*
X111279761Y-56696428D01*
X111340238Y-56938333D01*
X111340238Y-57240714D01*
X111279761Y-57482619D01*
X111219285Y-57603571D01*
X111158809Y-57664047D01*
X111037857Y-57724523D01*
X110916904Y-57724523D01*
X110795952Y-57664047D01*
X110735476Y-57603571D01*
X110675000Y-57482619D01*
X110614523Y-57240714D01*
X110614523Y-56938333D01*
X110675000Y-56696428D01*
X110735476Y-56575476D01*
X110795952Y-56515000D01*
X110916904Y-56454523D01*
X112549761Y-57724523D02*
X111824047Y-57724523D01*
X112186904Y-57724523D02*
X112186904Y-56454523D01*
X112065952Y-56635952D01*
X111945000Y-56756904D01*
X111824047Y-56817380D01*
%TO.C,F102*%
X133282142Y-53884285D02*
X132858809Y-53884285D01*
X132858809Y-54549523D02*
X132858809Y-53279523D01*
X133463571Y-53279523D01*
X134612619Y-54549523D02*
X133886904Y-54549523D01*
X134249761Y-54549523D02*
X134249761Y-53279523D01*
X134128809Y-53460952D01*
X134007857Y-53581904D01*
X133886904Y-53642380D01*
X135398809Y-53279523D02*
X135519761Y-53279523D01*
X135640714Y-53340000D01*
X135701190Y-53400476D01*
X135761666Y-53521428D01*
X135822142Y-53763333D01*
X135822142Y-54065714D01*
X135761666Y-54307619D01*
X135701190Y-54428571D01*
X135640714Y-54489047D01*
X135519761Y-54549523D01*
X135398809Y-54549523D01*
X135277857Y-54489047D01*
X135217380Y-54428571D01*
X135156904Y-54307619D01*
X135096428Y-54065714D01*
X135096428Y-53763333D01*
X135156904Y-53521428D01*
X135217380Y-53400476D01*
X135277857Y-53340000D01*
X135398809Y-53279523D01*
X136305952Y-53400476D02*
X136366428Y-53340000D01*
X136487380Y-53279523D01*
X136789761Y-53279523D01*
X136910714Y-53340000D01*
X136971190Y-53400476D01*
X137031666Y-53521428D01*
X137031666Y-53642380D01*
X136971190Y-53823809D01*
X136245476Y-54549523D01*
X137031666Y-54549523D01*
%TO.C,D1*%
D13*
X115466904Y-54682380D02*
X115466904Y-53682380D01*
X115705000Y-53682380D01*
X115847857Y-53730000D01*
X115943095Y-53825238D01*
X115990714Y-53920476D01*
X116038333Y-54110952D01*
X116038333Y-54253809D01*
X115990714Y-54444285D01*
X115943095Y-54539523D01*
X115847857Y-54634761D01*
X115705000Y-54682380D01*
X115466904Y-54682380D01*
X116990714Y-54682380D02*
X116419285Y-54682380D01*
X116705000Y-54682380D02*
X116705000Y-53682380D01*
X116609761Y-53825238D01*
X116514523Y-53920476D01*
X116419285Y-53968095D01*
%TD*%
M02*
