%TF.GenerationSoftware,KiCad,Pcbnew,(5.1.10)-1*%
%TF.CreationDate,2021-09-02T15:22:23-07:00*%
%TF.ProjectId,Max 485 transmitter,4d617820-3438-4352-9074-72616e736d69,rev?*%
%TF.SameCoordinates,Original*%
%TF.FileFunction,Legend,Top*%
%TF.FilePolarity,Positive*%
%FSLAX46Y46*%
G04 Gerber Fmt 4.6, Leading zero omitted, Abs format (unit mm)*
G04 Created by KiCad (PCBNEW (5.1.10)-1) date 2021-09-02 15:22:23*
%MOMM*%
%LPD*%
G01*
G04 APERTURE LIST*
%ADD10C,0.300000*%
%ADD11C,0.200000*%
%ADD12C,0.120000*%
%ADD13C,0.254000*%
%ADD14C,0.150000*%
G04 APERTURE END LIST*
D10*
X126140400Y-53815371D02*
X125640400Y-53101085D01*
X125283257Y-53815371D02*
X125283257Y-52315371D01*
X125854685Y-52315371D01*
X125997542Y-52386800D01*
X126068971Y-52458228D01*
X126140400Y-52601085D01*
X126140400Y-52815371D01*
X126068971Y-52958228D01*
X125997542Y-53029657D01*
X125854685Y-53101085D01*
X125283257Y-53101085D01*
X126640400Y-52315371D02*
X127640400Y-53815371D01*
X127640400Y-52315371D02*
X126640400Y-53815371D01*
X125247542Y-49775371D02*
X126104685Y-49775371D01*
X125676114Y-51275371D02*
X125676114Y-49775371D01*
X126461828Y-49775371D02*
X127461828Y-51275371D01*
X127461828Y-49775371D02*
X126461828Y-51275371D01*
D11*
%TO.C,F101*%
X132988080Y-48261460D02*
X132988080Y-51301460D01*
%TO.C,D103*%
X130457000Y-62090400D02*
X130457000Y-57050400D01*
X127861000Y-57050400D02*
X127861000Y-62395400D01*
%TO.C,D104*%
X131966000Y-59006800D02*
X137006000Y-59006800D01*
X137006000Y-56410800D02*
X131661000Y-56410800D01*
%TO.C,D105*%
X137031000Y-60043000D02*
X131991000Y-60043000D01*
X131991000Y-62639000D02*
X137336000Y-62639000D01*
D12*
%TO.C,R9*%
X137515000Y-50494541D02*
X137515000Y-50187259D01*
X136755000Y-50494541D02*
X136755000Y-50187259D01*
%TO.C,R8*%
X119100000Y-52426841D02*
X119100000Y-52119559D01*
X118340000Y-52426841D02*
X118340000Y-52119559D01*
%TO.C,R7*%
X117677000Y-52426841D02*
X117677000Y-52119559D01*
X116917000Y-52426841D02*
X116917000Y-52119559D01*
%TO.C,R5*%
X116280000Y-52426841D02*
X116280000Y-52119559D01*
X115520000Y-52426841D02*
X115520000Y-52119559D01*
%TO.C,R4*%
X113031000Y-52121559D02*
X113031000Y-52428841D01*
X113791000Y-52121559D02*
X113791000Y-52428841D01*
%TO.C,R3*%
X111329000Y-52119559D02*
X111329000Y-52426841D01*
X112089000Y-52119559D02*
X112089000Y-52426841D01*
%TO.C,R2*%
X123898641Y-61850000D02*
X123591359Y-61850000D01*
X123898641Y-62610000D02*
X123591359Y-62610000D01*
%TO.C,R1*%
X122221359Y-55091600D02*
X122528641Y-55091600D01*
X122221359Y-54331600D02*
X122528641Y-54331600D01*
%TO.C,R0*%
X137515000Y-54662041D02*
X137515000Y-54354759D01*
X136755000Y-54662041D02*
X136755000Y-54354759D01*
%TO.C,J102*%
X142071000Y-58886400D02*
X140741000Y-58886400D01*
X142071000Y-57556400D02*
X142071000Y-58886400D01*
X142071000Y-56286400D02*
X139411000Y-56286400D01*
X139411000Y-56286400D02*
X139411000Y-51146400D01*
X142071000Y-56286400D02*
X142071000Y-51146400D01*
X142071000Y-51146400D02*
X139411000Y-51146400D01*
%TO.C,J101*%
X106087000Y-49952600D02*
X107417000Y-49952600D01*
X106087000Y-51282600D02*
X106087000Y-49952600D01*
X106087000Y-52552600D02*
X108747000Y-52552600D01*
X108747000Y-52552600D02*
X108747000Y-60232600D01*
X106087000Y-52552600D02*
X106087000Y-60232600D01*
X106087000Y-60232600D02*
X108747000Y-60232600D01*
D11*
%TO.C,IC102*%
X119943000Y-55890800D02*
X121443000Y-55890800D01*
X121793000Y-60920800D02*
X121793000Y-56020800D01*
X124993000Y-60920800D02*
X121793000Y-60920800D01*
X124993000Y-56020800D02*
X124993000Y-60920800D01*
X121793000Y-56020800D02*
X124993000Y-56020800D01*
%TO.C,IC101*%
X109715000Y-53910000D02*
X111265000Y-53910000D01*
X111615000Y-62745000D02*
X111615000Y-54095000D01*
X114815000Y-62745000D02*
X111615000Y-62745000D01*
X114815000Y-54095000D02*
X114815000Y-62745000D01*
X111615000Y-54095000D02*
X114815000Y-54095000D01*
%TO.C,F102*%
X133010000Y-52455000D02*
X133010000Y-55495000D01*
D12*
%TO.C,D102*%
X123640000Y-50173000D02*
X121940000Y-50173000D01*
X123640000Y-50973000D02*
X123640000Y-50173000D01*
X123640000Y-51173000D02*
X123640000Y-50973000D01*
X123540000Y-51173000D02*
X123640000Y-51173000D01*
X123440000Y-51173000D02*
X123540000Y-51173000D01*
X123440000Y-51173000D02*
X121940000Y-51173000D01*
%TO.C,D101*%
X123614000Y-52357400D02*
X121914000Y-52357400D01*
X123614000Y-53157400D02*
X123614000Y-52357400D01*
X123614000Y-53357400D02*
X123614000Y-53157400D01*
X123514000Y-53357400D02*
X123614000Y-53357400D01*
X123414000Y-53357400D02*
X123514000Y-53357400D01*
X123414000Y-53357400D02*
X121914000Y-53357400D01*
%TO.C,D1*%
X117364000Y-60645600D02*
X117364000Y-56745600D01*
X119364000Y-60645600D02*
X119364000Y-56745600D01*
X117364000Y-60645600D02*
X119364000Y-60645600D01*
%TO.C,F101*%
D13*
X131355222Y-49690745D02*
X130931889Y-49690745D01*
X130931889Y-50355983D02*
X130931889Y-49085983D01*
X131536651Y-49085983D01*
X132685699Y-50355983D02*
X131959984Y-50355983D01*
X132322841Y-50355983D02*
X132322841Y-49085983D01*
X132201889Y-49267412D01*
X132080937Y-49388364D01*
X131959984Y-49448840D01*
X133471889Y-49085983D02*
X133592841Y-49085983D01*
X133713794Y-49146460D01*
X133774270Y-49206936D01*
X133834746Y-49327888D01*
X133895222Y-49569793D01*
X133895222Y-49872174D01*
X133834746Y-50114079D01*
X133774270Y-50235031D01*
X133713794Y-50295507D01*
X133592841Y-50355983D01*
X133471889Y-50355983D01*
X133350937Y-50295507D01*
X133290460Y-50235031D01*
X133229984Y-50114079D01*
X133169508Y-49872174D01*
X133169508Y-49569793D01*
X133229984Y-49327888D01*
X133290460Y-49206936D01*
X133350937Y-49146460D01*
X133471889Y-49085983D01*
X135104746Y-50355983D02*
X134379032Y-50355983D01*
X134741889Y-50355983D02*
X134741889Y-49085983D01*
X134620937Y-49267412D01*
X134499984Y-49388364D01*
X134379032Y-49448840D01*
%TO.C,D103*%
X129733523Y-61717304D02*
X128463523Y-61717304D01*
X128463523Y-61414923D01*
X128524000Y-61233495D01*
X128644952Y-61112542D01*
X128765904Y-61052066D01*
X129007809Y-60991590D01*
X129189238Y-60991590D01*
X129431142Y-61052066D01*
X129552095Y-61112542D01*
X129673047Y-61233495D01*
X129733523Y-61414923D01*
X129733523Y-61717304D01*
X129733523Y-59782066D02*
X129733523Y-60507780D01*
X129733523Y-60144923D02*
X128463523Y-60144923D01*
X128644952Y-60265876D01*
X128765904Y-60386828D01*
X128826380Y-60507780D01*
X128463523Y-58995876D02*
X128463523Y-58874923D01*
X128524000Y-58753971D01*
X128584476Y-58693495D01*
X128705428Y-58633019D01*
X128947333Y-58572542D01*
X129249714Y-58572542D01*
X129491619Y-58633019D01*
X129612571Y-58693495D01*
X129673047Y-58753971D01*
X129733523Y-58874923D01*
X129733523Y-58995876D01*
X129673047Y-59116828D01*
X129612571Y-59177304D01*
X129491619Y-59237780D01*
X129249714Y-59298257D01*
X128947333Y-59298257D01*
X128705428Y-59237780D01*
X128584476Y-59177304D01*
X128524000Y-59116828D01*
X128463523Y-58995876D01*
X128463523Y-58149209D02*
X128463523Y-57363019D01*
X128947333Y-57786352D01*
X128947333Y-57604923D01*
X129007809Y-57483971D01*
X129068285Y-57423495D01*
X129189238Y-57363019D01*
X129491619Y-57363019D01*
X129612571Y-57423495D01*
X129673047Y-57483971D01*
X129733523Y-57604923D01*
X129733523Y-57967780D01*
X129673047Y-58088733D01*
X129612571Y-58149209D01*
%TO.C,D104*%
X132339095Y-58283323D02*
X132339095Y-57013323D01*
X132641476Y-57013323D01*
X132822904Y-57073800D01*
X132943857Y-57194752D01*
X133004333Y-57315704D01*
X133064809Y-57557609D01*
X133064809Y-57739038D01*
X133004333Y-57980942D01*
X132943857Y-58101895D01*
X132822904Y-58222847D01*
X132641476Y-58283323D01*
X132339095Y-58283323D01*
X134274333Y-58283323D02*
X133548619Y-58283323D01*
X133911476Y-58283323D02*
X133911476Y-57013323D01*
X133790523Y-57194752D01*
X133669571Y-57315704D01*
X133548619Y-57376180D01*
X135060523Y-57013323D02*
X135181476Y-57013323D01*
X135302428Y-57073800D01*
X135362904Y-57134276D01*
X135423380Y-57255228D01*
X135483857Y-57497133D01*
X135483857Y-57799514D01*
X135423380Y-58041419D01*
X135362904Y-58162371D01*
X135302428Y-58222847D01*
X135181476Y-58283323D01*
X135060523Y-58283323D01*
X134939571Y-58222847D01*
X134879095Y-58162371D01*
X134818619Y-58041419D01*
X134758142Y-57799514D01*
X134758142Y-57497133D01*
X134818619Y-57255228D01*
X134879095Y-57134276D01*
X134939571Y-57073800D01*
X135060523Y-57013323D01*
X136572428Y-57436657D02*
X136572428Y-58283323D01*
X136270047Y-56952847D02*
X135967666Y-57859990D01*
X136753857Y-57859990D01*
%TO.C,D105*%
X132364095Y-61915523D02*
X132364095Y-60645523D01*
X132666476Y-60645523D01*
X132847904Y-60706000D01*
X132968857Y-60826952D01*
X133029333Y-60947904D01*
X133089809Y-61189809D01*
X133089809Y-61371238D01*
X133029333Y-61613142D01*
X132968857Y-61734095D01*
X132847904Y-61855047D01*
X132666476Y-61915523D01*
X132364095Y-61915523D01*
X134299333Y-61915523D02*
X133573619Y-61915523D01*
X133936476Y-61915523D02*
X133936476Y-60645523D01*
X133815523Y-60826952D01*
X133694571Y-60947904D01*
X133573619Y-61008380D01*
X135085523Y-60645523D02*
X135206476Y-60645523D01*
X135327428Y-60706000D01*
X135387904Y-60766476D01*
X135448380Y-60887428D01*
X135508857Y-61129333D01*
X135508857Y-61431714D01*
X135448380Y-61673619D01*
X135387904Y-61794571D01*
X135327428Y-61855047D01*
X135206476Y-61915523D01*
X135085523Y-61915523D01*
X134964571Y-61855047D01*
X134904095Y-61794571D01*
X134843619Y-61673619D01*
X134783142Y-61431714D01*
X134783142Y-61129333D01*
X134843619Y-60887428D01*
X134904095Y-60766476D01*
X134964571Y-60706000D01*
X135085523Y-60645523D01*
X136657904Y-60645523D02*
X136053142Y-60645523D01*
X135992666Y-61250285D01*
X136053142Y-61189809D01*
X136174095Y-61129333D01*
X136476476Y-61129333D01*
X136597428Y-61189809D01*
X136657904Y-61250285D01*
X136718380Y-61371238D01*
X136718380Y-61673619D01*
X136657904Y-61794571D01*
X136597428Y-61855047D01*
X136476476Y-61915523D01*
X136174095Y-61915523D01*
X136053142Y-61855047D01*
X135992666Y-61794571D01*
%TO.C,R9*%
D14*
X138806580Y-50915866D02*
X138330390Y-51249200D01*
X138806580Y-51487295D02*
X137806580Y-51487295D01*
X137806580Y-51106342D01*
X137854200Y-51011104D01*
X137901819Y-50963485D01*
X137997057Y-50915866D01*
X138139914Y-50915866D01*
X138235152Y-50963485D01*
X138282771Y-51011104D01*
X138330390Y-51106342D01*
X138330390Y-51487295D01*
X138806580Y-50439676D02*
X138806580Y-50249200D01*
X138758961Y-50153961D01*
X138711342Y-50106342D01*
X138568485Y-50011104D01*
X138378009Y-49963485D01*
X137997057Y-49963485D01*
X137901819Y-50011104D01*
X137854200Y-50058723D01*
X137806580Y-50153961D01*
X137806580Y-50344438D01*
X137854200Y-50439676D01*
X137901819Y-50487295D01*
X137997057Y-50534914D01*
X138235152Y-50534914D01*
X138330390Y-50487295D01*
X138378009Y-50439676D01*
X138425628Y-50344438D01*
X138425628Y-50153961D01*
X138378009Y-50058723D01*
X138330390Y-50011104D01*
X138235152Y-49963485D01*
%TO.C,R8*%
X119086733Y-51049180D02*
X118753400Y-50572990D01*
X118515304Y-51049180D02*
X118515304Y-50049180D01*
X118896257Y-50049180D01*
X118991495Y-50096800D01*
X119039114Y-50144419D01*
X119086733Y-50239657D01*
X119086733Y-50382514D01*
X119039114Y-50477752D01*
X118991495Y-50525371D01*
X118896257Y-50572990D01*
X118515304Y-50572990D01*
X119658161Y-50477752D02*
X119562923Y-50430133D01*
X119515304Y-50382514D01*
X119467685Y-50287276D01*
X119467685Y-50239657D01*
X119515304Y-50144419D01*
X119562923Y-50096800D01*
X119658161Y-50049180D01*
X119848638Y-50049180D01*
X119943876Y-50096800D01*
X119991495Y-50144419D01*
X120039114Y-50239657D01*
X120039114Y-50287276D01*
X119991495Y-50382514D01*
X119943876Y-50430133D01*
X119848638Y-50477752D01*
X119658161Y-50477752D01*
X119562923Y-50525371D01*
X119515304Y-50572990D01*
X119467685Y-50668228D01*
X119467685Y-50858704D01*
X119515304Y-50953942D01*
X119562923Y-51001561D01*
X119658161Y-51049180D01*
X119848638Y-51049180D01*
X119943876Y-51001561D01*
X119991495Y-50953942D01*
X120039114Y-50858704D01*
X120039114Y-50668228D01*
X119991495Y-50572990D01*
X119943876Y-50525371D01*
X119848638Y-50477752D01*
%TO.C,R7*%
X117130333Y-51178080D02*
X116797000Y-50701890D01*
X116558904Y-51178080D02*
X116558904Y-50178080D01*
X116939857Y-50178080D01*
X117035095Y-50225700D01*
X117082714Y-50273319D01*
X117130333Y-50368557D01*
X117130333Y-50511414D01*
X117082714Y-50606652D01*
X117035095Y-50654271D01*
X116939857Y-50701890D01*
X116558904Y-50701890D01*
X117463666Y-50178080D02*
X118130333Y-50178080D01*
X117701761Y-51178080D01*
%TO.C,R5*%
X115276133Y-51074580D02*
X114942800Y-50598390D01*
X114704704Y-51074580D02*
X114704704Y-50074580D01*
X115085657Y-50074580D01*
X115180895Y-50122200D01*
X115228514Y-50169819D01*
X115276133Y-50265057D01*
X115276133Y-50407914D01*
X115228514Y-50503152D01*
X115180895Y-50550771D01*
X115085657Y-50598390D01*
X114704704Y-50598390D01*
X116180895Y-50074580D02*
X115704704Y-50074580D01*
X115657085Y-50550771D01*
X115704704Y-50503152D01*
X115799942Y-50455533D01*
X116038038Y-50455533D01*
X116133276Y-50503152D01*
X116180895Y-50550771D01*
X116228514Y-50646009D01*
X116228514Y-50884104D01*
X116180895Y-50979342D01*
X116133276Y-51026961D01*
X116038038Y-51074580D01*
X115799942Y-51074580D01*
X115704704Y-51026961D01*
X115657085Y-50979342D01*
%TO.C,R4*%
X113168133Y-50820580D02*
X112834800Y-50344390D01*
X112596704Y-50820580D02*
X112596704Y-49820580D01*
X112977657Y-49820580D01*
X113072895Y-49868200D01*
X113120514Y-49915819D01*
X113168133Y-50011057D01*
X113168133Y-50153914D01*
X113120514Y-50249152D01*
X113072895Y-50296771D01*
X112977657Y-50344390D01*
X112596704Y-50344390D01*
X114025276Y-50153914D02*
X114025276Y-50820580D01*
X113787180Y-49772961D02*
X113549085Y-50487247D01*
X114168133Y-50487247D01*
%TO.C,R3*%
X111237533Y-50769780D02*
X110904200Y-50293590D01*
X110666104Y-50769780D02*
X110666104Y-49769780D01*
X111047057Y-49769780D01*
X111142295Y-49817400D01*
X111189914Y-49865019D01*
X111237533Y-49960257D01*
X111237533Y-50103114D01*
X111189914Y-50198352D01*
X111142295Y-50245971D01*
X111047057Y-50293590D01*
X110666104Y-50293590D01*
X111570866Y-49769780D02*
X112189914Y-49769780D01*
X111856580Y-50150733D01*
X111999438Y-50150733D01*
X112094676Y-50198352D01*
X112142295Y-50245971D01*
X112189914Y-50341209D01*
X112189914Y-50579304D01*
X112142295Y-50674542D01*
X112094676Y-50722161D01*
X111999438Y-50769780D01*
X111713723Y-50769780D01*
X111618485Y-50722161D01*
X111570866Y-50674542D01*
%TO.C,R2*%
X125766533Y-62529980D02*
X125433200Y-62053790D01*
X125195104Y-62529980D02*
X125195104Y-61529980D01*
X125576057Y-61529980D01*
X125671295Y-61577600D01*
X125718914Y-61625219D01*
X125766533Y-61720457D01*
X125766533Y-61863314D01*
X125718914Y-61958552D01*
X125671295Y-62006171D01*
X125576057Y-62053790D01*
X125195104Y-62053790D01*
X126147485Y-61625219D02*
X126195104Y-61577600D01*
X126290342Y-61529980D01*
X126528438Y-61529980D01*
X126623676Y-61577600D01*
X126671295Y-61625219D01*
X126718914Y-61720457D01*
X126718914Y-61815695D01*
X126671295Y-61958552D01*
X126099866Y-62529980D01*
X126718914Y-62529980D01*
%TO.C,R1*%
X124289133Y-55113180D02*
X123955800Y-54636990D01*
X123717704Y-55113180D02*
X123717704Y-54113180D01*
X124098657Y-54113180D01*
X124193895Y-54160800D01*
X124241514Y-54208419D01*
X124289133Y-54303657D01*
X124289133Y-54446514D01*
X124241514Y-54541752D01*
X124193895Y-54589371D01*
X124098657Y-54636990D01*
X123717704Y-54636990D01*
X125241514Y-55113180D02*
X124670085Y-55113180D01*
X124955800Y-55113180D02*
X124955800Y-54113180D01*
X124860561Y-54256038D01*
X124765323Y-54351276D01*
X124670085Y-54398895D01*
%TO.C,R0*%
X138704980Y-54522666D02*
X138228790Y-54856000D01*
X138704980Y-55094095D02*
X137704980Y-55094095D01*
X137704980Y-54713142D01*
X137752600Y-54617904D01*
X137800219Y-54570285D01*
X137895457Y-54522666D01*
X138038314Y-54522666D01*
X138133552Y-54570285D01*
X138181171Y-54617904D01*
X138228790Y-54713142D01*
X138228790Y-55094095D01*
X137704980Y-53903619D02*
X137704980Y-53808380D01*
X137752600Y-53713142D01*
X137800219Y-53665523D01*
X137895457Y-53617904D01*
X138085933Y-53570285D01*
X138324028Y-53570285D01*
X138514504Y-53617904D01*
X138609742Y-53665523D01*
X138657361Y-53713142D01*
X138704980Y-53808380D01*
X138704980Y-53903619D01*
X138657361Y-53998857D01*
X138609742Y-54046476D01*
X138514504Y-54094095D01*
X138324028Y-54141714D01*
X138085933Y-54141714D01*
X137895457Y-54094095D01*
X137800219Y-54046476D01*
X137752600Y-53998857D01*
X137704980Y-53903619D01*
%TO.C,J102*%
X139455285Y-59338780D02*
X139455285Y-60053066D01*
X139407666Y-60195923D01*
X139312428Y-60291161D01*
X139169571Y-60338780D01*
X139074333Y-60338780D01*
X140455285Y-60338780D02*
X139883857Y-60338780D01*
X140169571Y-60338780D02*
X140169571Y-59338780D01*
X140074333Y-59481638D01*
X139979095Y-59576876D01*
X139883857Y-59624495D01*
X141074333Y-59338780D02*
X141169571Y-59338780D01*
X141264809Y-59386400D01*
X141312428Y-59434019D01*
X141360047Y-59529257D01*
X141407666Y-59719733D01*
X141407666Y-59957828D01*
X141360047Y-60148304D01*
X141312428Y-60243542D01*
X141264809Y-60291161D01*
X141169571Y-60338780D01*
X141074333Y-60338780D01*
X140979095Y-60291161D01*
X140931476Y-60243542D01*
X140883857Y-60148304D01*
X140836238Y-59957828D01*
X140836238Y-59719733D01*
X140883857Y-59529257D01*
X140931476Y-59434019D01*
X140979095Y-59386400D01*
X141074333Y-59338780D01*
X141788619Y-59434019D02*
X141836238Y-59386400D01*
X141931476Y-59338780D01*
X142169571Y-59338780D01*
X142264809Y-59386400D01*
X142312428Y-59434019D01*
X142360047Y-59529257D01*
X142360047Y-59624495D01*
X142312428Y-59767352D01*
X141741000Y-60338780D01*
X142360047Y-60338780D01*
%TO.C,J101*%
X106131285Y-48404980D02*
X106131285Y-49119266D01*
X106083666Y-49262123D01*
X105988428Y-49357361D01*
X105845571Y-49404980D01*
X105750333Y-49404980D01*
X107131285Y-49404980D02*
X106559857Y-49404980D01*
X106845571Y-49404980D02*
X106845571Y-48404980D01*
X106750333Y-48547838D01*
X106655095Y-48643076D01*
X106559857Y-48690695D01*
X107750333Y-48404980D02*
X107845571Y-48404980D01*
X107940809Y-48452600D01*
X107988428Y-48500219D01*
X108036047Y-48595457D01*
X108083666Y-48785933D01*
X108083666Y-49024028D01*
X108036047Y-49214504D01*
X107988428Y-49309742D01*
X107940809Y-49357361D01*
X107845571Y-49404980D01*
X107750333Y-49404980D01*
X107655095Y-49357361D01*
X107607476Y-49309742D01*
X107559857Y-49214504D01*
X107512238Y-49024028D01*
X107512238Y-48785933D01*
X107559857Y-48595457D01*
X107607476Y-48500219D01*
X107655095Y-48452600D01*
X107750333Y-48404980D01*
X109036047Y-49404980D02*
X108464619Y-49404980D01*
X108750333Y-49404980D02*
X108750333Y-48404980D01*
X108655095Y-48547838D01*
X108559857Y-48643076D01*
X108464619Y-48690695D01*
%TO.C,IC102*%
D13*
X120943714Y-59045323D02*
X120943714Y-57775323D01*
X122274190Y-58924371D02*
X122213714Y-58984847D01*
X122032285Y-59045323D01*
X121911333Y-59045323D01*
X121729904Y-58984847D01*
X121608952Y-58863895D01*
X121548476Y-58742942D01*
X121488000Y-58501038D01*
X121488000Y-58319609D01*
X121548476Y-58077704D01*
X121608952Y-57956752D01*
X121729904Y-57835800D01*
X121911333Y-57775323D01*
X122032285Y-57775323D01*
X122213714Y-57835800D01*
X122274190Y-57896276D01*
X123483714Y-59045323D02*
X122758000Y-59045323D01*
X123120857Y-59045323D02*
X123120857Y-57775323D01*
X122999904Y-57956752D01*
X122878952Y-58077704D01*
X122758000Y-58138180D01*
X124269904Y-57775323D02*
X124390857Y-57775323D01*
X124511809Y-57835800D01*
X124572285Y-57896276D01*
X124632761Y-58017228D01*
X124693238Y-58259133D01*
X124693238Y-58561514D01*
X124632761Y-58803419D01*
X124572285Y-58924371D01*
X124511809Y-58984847D01*
X124390857Y-59045323D01*
X124269904Y-59045323D01*
X124148952Y-58984847D01*
X124088476Y-58924371D01*
X124028000Y-58803419D01*
X123967523Y-58561514D01*
X123967523Y-58259133D01*
X124028000Y-58017228D01*
X124088476Y-57896276D01*
X124148952Y-57835800D01*
X124269904Y-57775323D01*
X125177047Y-57896276D02*
X125237523Y-57835800D01*
X125358476Y-57775323D01*
X125660857Y-57775323D01*
X125781809Y-57835800D01*
X125842285Y-57896276D01*
X125902761Y-58017228D01*
X125902761Y-58138180D01*
X125842285Y-58319609D01*
X125116571Y-59045323D01*
X125902761Y-59045323D01*
%TO.C,IC101*%
X110765714Y-58994523D02*
X110765714Y-57724523D01*
X112096190Y-58873571D02*
X112035714Y-58934047D01*
X111854285Y-58994523D01*
X111733333Y-58994523D01*
X111551904Y-58934047D01*
X111430952Y-58813095D01*
X111370476Y-58692142D01*
X111310000Y-58450238D01*
X111310000Y-58268809D01*
X111370476Y-58026904D01*
X111430952Y-57905952D01*
X111551904Y-57785000D01*
X111733333Y-57724523D01*
X111854285Y-57724523D01*
X112035714Y-57785000D01*
X112096190Y-57845476D01*
X113305714Y-58994523D02*
X112580000Y-58994523D01*
X112942857Y-58994523D02*
X112942857Y-57724523D01*
X112821904Y-57905952D01*
X112700952Y-58026904D01*
X112580000Y-58087380D01*
X114091904Y-57724523D02*
X114212857Y-57724523D01*
X114333809Y-57785000D01*
X114394285Y-57845476D01*
X114454761Y-57966428D01*
X114515238Y-58208333D01*
X114515238Y-58510714D01*
X114454761Y-58752619D01*
X114394285Y-58873571D01*
X114333809Y-58934047D01*
X114212857Y-58994523D01*
X114091904Y-58994523D01*
X113970952Y-58934047D01*
X113910476Y-58873571D01*
X113850000Y-58752619D01*
X113789523Y-58510714D01*
X113789523Y-58208333D01*
X113850000Y-57966428D01*
X113910476Y-57845476D01*
X113970952Y-57785000D01*
X114091904Y-57724523D01*
X115724761Y-58994523D02*
X114999047Y-58994523D01*
X115361904Y-58994523D02*
X115361904Y-57724523D01*
X115240952Y-57905952D01*
X115120000Y-58026904D01*
X114999047Y-58087380D01*
%TO.C,F102*%
X131377142Y-53884285D02*
X130953809Y-53884285D01*
X130953809Y-54549523D02*
X130953809Y-53279523D01*
X131558571Y-53279523D01*
X132707619Y-54549523D02*
X131981904Y-54549523D01*
X132344761Y-54549523D02*
X132344761Y-53279523D01*
X132223809Y-53460952D01*
X132102857Y-53581904D01*
X131981904Y-53642380D01*
X133493809Y-53279523D02*
X133614761Y-53279523D01*
X133735714Y-53340000D01*
X133796190Y-53400476D01*
X133856666Y-53521428D01*
X133917142Y-53763333D01*
X133917142Y-54065714D01*
X133856666Y-54307619D01*
X133796190Y-54428571D01*
X133735714Y-54489047D01*
X133614761Y-54549523D01*
X133493809Y-54549523D01*
X133372857Y-54489047D01*
X133312380Y-54428571D01*
X133251904Y-54307619D01*
X133191428Y-54065714D01*
X133191428Y-53763333D01*
X133251904Y-53521428D01*
X133312380Y-53400476D01*
X133372857Y-53340000D01*
X133493809Y-53279523D01*
X134400952Y-53400476D02*
X134461428Y-53340000D01*
X134582380Y-53279523D01*
X134884761Y-53279523D01*
X135005714Y-53340000D01*
X135066190Y-53400476D01*
X135126666Y-53521428D01*
X135126666Y-53642380D01*
X135066190Y-53823809D01*
X134340476Y-54549523D01*
X135126666Y-54549523D01*
%TO.C,D1*%
D14*
X117625904Y-55672980D02*
X117625904Y-54672980D01*
X117864000Y-54672980D01*
X118006857Y-54720600D01*
X118102095Y-54815838D01*
X118149714Y-54911076D01*
X118197333Y-55101552D01*
X118197333Y-55244409D01*
X118149714Y-55434885D01*
X118102095Y-55530123D01*
X118006857Y-55625361D01*
X117864000Y-55672980D01*
X117625904Y-55672980D01*
X119149714Y-55672980D02*
X118578285Y-55672980D01*
X118864000Y-55672980D02*
X118864000Y-54672980D01*
X118768761Y-54815838D01*
X118673523Y-54911076D01*
X118578285Y-54958695D01*
%TO.C,C2*%
X120229333Y-62561742D02*
X120181714Y-62609361D01*
X120038857Y-62656980D01*
X119943619Y-62656980D01*
X119800761Y-62609361D01*
X119705523Y-62514123D01*
X119657904Y-62418885D01*
X119610285Y-62228409D01*
X119610285Y-62085552D01*
X119657904Y-61895076D01*
X119705523Y-61799838D01*
X119800761Y-61704600D01*
X119943619Y-61656980D01*
X120038857Y-61656980D01*
X120181714Y-61704600D01*
X120229333Y-61752219D01*
X120610285Y-61752219D02*
X120657904Y-61704600D01*
X120753142Y-61656980D01*
X120991238Y-61656980D01*
X121086476Y-61704600D01*
X121134095Y-61752219D01*
X121181714Y-61847457D01*
X121181714Y-61942695D01*
X121134095Y-62085552D01*
X120562666Y-62656980D01*
X121181714Y-62656980D01*
%TO.C,C1*%
X119772333Y-54272742D02*
X119724714Y-54320361D01*
X119581857Y-54367980D01*
X119486619Y-54367980D01*
X119343761Y-54320361D01*
X119248523Y-54225123D01*
X119200904Y-54129885D01*
X119153285Y-53939409D01*
X119153285Y-53796552D01*
X119200904Y-53606076D01*
X119248523Y-53510838D01*
X119343761Y-53415600D01*
X119486619Y-53367980D01*
X119581857Y-53367980D01*
X119724714Y-53415600D01*
X119772333Y-53463219D01*
X120724714Y-54367980D02*
X120153285Y-54367980D01*
X120439000Y-54367980D02*
X120439000Y-53367980D01*
X120343761Y-53510838D01*
X120248523Y-53606076D01*
X120153285Y-53653695D01*
%TD*%
M02*
