%TF.GenerationSoftware,KiCad,Pcbnew,(5.1.10)-1*%
%TF.CreationDate,2021-09-08T08:36:34-07:00*%
%TF.ProjectId,Max 485 transmitter,4d617820-3438-4352-9074-72616e736d69,rev?*%
%TF.SameCoordinates,Original*%
%TF.FileFunction,Copper,L2,Bot*%
%TF.FilePolarity,Positive*%
%FSLAX46Y46*%
G04 Gerber Fmt 4.6, Leading zero omitted, Abs format (unit mm)*
G04 Created by KiCad (PCBNEW (5.1.10)-1) date 2021-09-08 08:36:34*
%MOMM*%
%LPD*%
G01*
G04 APERTURE LIST*
%TA.AperFunction,ComponentPad*%
%ADD10C,1.524000*%
%TD*%
%TA.AperFunction,ViaPad*%
%ADD11C,0.800000*%
%TD*%
%TA.AperFunction,Conductor*%
%ADD12C,0.250000*%
%TD*%
%TA.AperFunction,Conductor*%
%ADD13C,0.254000*%
%TD*%
%TA.AperFunction,Conductor*%
%ADD14C,0.100000*%
%TD*%
G04 APERTURE END LIST*
D10*
%TO.P,Converter101,4*%
%TO.N,3v3*%
X104673000Y-51769000D03*
%TO.P,Converter101,3*%
%TO.N,TX*%
X104673000Y-54269000D03*
%TO.P,Converter101,2*%
%TO.N,RX*%
X104673000Y-56769000D03*
%TO.P,Converter101,1*%
%TO.N,GND*%
X104673000Y-59269000D03*
%TO.P,Converter101,7*%
%TO.N,A*%
X144673000Y-50269000D03*
%TO.P,Converter101,6*%
%TO.N,B*%
X144673000Y-55269000D03*
%TO.P,Converter101,5*%
%TO.N,Comm*%
X144673000Y-60269000D03*
%TD*%
D11*
%TO.N,GND*%
X120261000Y-53340000D03*
X117559050Y-62526950D03*
X112354800Y-62143200D03*
X125255000Y-60927000D03*
%TO.N,TX*%
X114161600Y-57150000D03*
%TO.N,Net-(IC101-Pad6)*%
X117220000Y-50347700D03*
X108983000Y-58734000D03*
%TD*%
D12*
%TO.N,GND*%
X104673000Y-59269000D02*
X105313600Y-59909600D01*
X105313600Y-59909600D02*
X113691400Y-59909600D01*
X113691400Y-59909600D02*
X120261000Y-53340000D01*
%TO.N,TX*%
X104673000Y-54269000D02*
X108257700Y-57853700D01*
X108257700Y-57853700D02*
X108257700Y-59034400D01*
X108257700Y-59034400D02*
X108682600Y-59459300D01*
X108682600Y-59459300D02*
X111852300Y-59459300D01*
X111852300Y-59459300D02*
X114161600Y-57150000D01*
%TO.N,Net-(IC101-Pad6)*%
X108983000Y-58734000D02*
X117220000Y-50497000D01*
X117220000Y-50497000D02*
X117220000Y-50347700D01*
%TD*%
D13*
%TO.N,GND*%
X127504161Y-62840000D02*
X103530000Y-62840000D01*
X103530000Y-60234565D01*
X103887040Y-60234565D01*
X103954020Y-60474656D01*
X104203048Y-60591756D01*
X104470135Y-60658023D01*
X104745017Y-60670910D01*
X105017133Y-60629922D01*
X105276023Y-60536636D01*
X105391980Y-60474656D01*
X105458960Y-60234565D01*
X104673000Y-59448605D01*
X103887040Y-60234565D01*
X103530000Y-60234565D01*
X103530000Y-60005460D01*
X103707435Y-60054960D01*
X104493395Y-59269000D01*
X104852605Y-59269000D01*
X105638565Y-60054960D01*
X105878656Y-59987980D01*
X105995756Y-59738952D01*
X106062023Y-59471865D01*
X106074910Y-59196983D01*
X106033922Y-58924867D01*
X105940636Y-58665977D01*
X105878656Y-58550020D01*
X105638565Y-58483040D01*
X104852605Y-59269000D01*
X104493395Y-59269000D01*
X103707435Y-58483040D01*
X103530000Y-58532540D01*
X103530000Y-57572912D01*
X103587880Y-57659535D01*
X103782465Y-57854120D01*
X104011273Y-58007005D01*
X104038401Y-58018242D01*
X103954020Y-58063344D01*
X103887040Y-58303435D01*
X104673000Y-59089395D01*
X105458960Y-58303435D01*
X105391980Y-58063344D01*
X105301467Y-58020782D01*
X105334727Y-58007005D01*
X105563535Y-57854120D01*
X105758120Y-57659535D01*
X105911005Y-57430727D01*
X106016314Y-57176490D01*
X106070000Y-56906592D01*
X106070000Y-56740802D01*
X107497700Y-58168502D01*
X107497701Y-58997068D01*
X107494024Y-59034400D01*
X107497701Y-59071733D01*
X107507090Y-59167054D01*
X107508698Y-59183385D01*
X107552154Y-59326646D01*
X107622726Y-59458676D01*
X107654733Y-59497676D01*
X107717700Y-59574401D01*
X107746698Y-59598199D01*
X108118796Y-59970297D01*
X108142599Y-59999301D01*
X108258324Y-60094274D01*
X108390353Y-60164846D01*
X108533614Y-60208303D01*
X108645267Y-60219300D01*
X108645276Y-60219300D01*
X108682599Y-60222976D01*
X108719922Y-60219300D01*
X111814978Y-60219300D01*
X111852300Y-60222976D01*
X111889622Y-60219300D01*
X111889633Y-60219300D01*
X112001286Y-60208303D01*
X112144547Y-60164846D01*
X112276576Y-60094274D01*
X112392301Y-59999301D01*
X112416104Y-59970298D01*
X114201403Y-58185000D01*
X114263539Y-58185000D01*
X114463498Y-58145226D01*
X114651856Y-58067205D01*
X114821374Y-57953937D01*
X114965537Y-57809774D01*
X115078805Y-57640256D01*
X115156826Y-57451898D01*
X115196600Y-57251939D01*
X115196600Y-57048061D01*
X115156826Y-56848102D01*
X115078805Y-56659744D01*
X114965537Y-56490226D01*
X114821374Y-56346063D01*
X114651856Y-56232795D01*
X114463498Y-56154774D01*
X114263539Y-56115000D01*
X114059661Y-56115000D01*
X113859702Y-56154774D01*
X113671344Y-56232795D01*
X113501826Y-56346063D01*
X113357663Y-56490226D01*
X113244395Y-56659744D01*
X113166374Y-56848102D01*
X113126600Y-57048061D01*
X113126600Y-57110197D01*
X111537499Y-58699300D01*
X110092501Y-58699300D01*
X117430745Y-51361057D01*
X117521898Y-51342926D01*
X117710256Y-51264905D01*
X117879774Y-51151637D01*
X118023937Y-51007474D01*
X118137205Y-50837956D01*
X118215226Y-50649598D01*
X118255000Y-50449639D01*
X118255000Y-50245761D01*
X118215226Y-50045802D01*
X118137205Y-49857444D01*
X118023937Y-49687926D01*
X117879774Y-49543763D01*
X117710256Y-49430495D01*
X117521898Y-49352474D01*
X117321939Y-49312700D01*
X117118061Y-49312700D01*
X116918102Y-49352474D01*
X116729744Y-49430495D01*
X116560226Y-49543763D01*
X116416063Y-49687926D01*
X116302795Y-49857444D01*
X116224774Y-50045802D01*
X116185000Y-50245761D01*
X116185000Y-50449639D01*
X116186254Y-50455944D01*
X108990593Y-57651606D01*
X108963246Y-57561453D01*
X108892674Y-57429424D01*
X108797701Y-57313699D01*
X108768704Y-57289902D01*
X106039372Y-54560571D01*
X106070000Y-54406592D01*
X106070000Y-54131408D01*
X106016314Y-53861510D01*
X105911005Y-53607273D01*
X105758120Y-53378465D01*
X105563535Y-53183880D01*
X105334727Y-53030995D01*
X105305769Y-53019000D01*
X105334727Y-53007005D01*
X105563535Y-52854120D01*
X105758120Y-52659535D01*
X105911005Y-52430727D01*
X106016314Y-52176490D01*
X106070000Y-51906592D01*
X106070000Y-51631408D01*
X106016314Y-51361510D01*
X105911005Y-51107273D01*
X105758120Y-50878465D01*
X105563535Y-50683880D01*
X105334727Y-50530995D01*
X105080490Y-50425686D01*
X104810592Y-50372000D01*
X104535408Y-50372000D01*
X104265510Y-50425686D01*
X104011273Y-50530995D01*
X103782465Y-50683880D01*
X103587880Y-50878465D01*
X103530000Y-50965088D01*
X103530000Y-47879000D01*
X127130136Y-47879000D01*
X127504161Y-62840000D01*
%TA.AperFunction,Conductor*%
D14*
G36*
X127504161Y-62840000D02*
G01*
X103530000Y-62840000D01*
X103530000Y-60234565D01*
X103887040Y-60234565D01*
X103954020Y-60474656D01*
X104203048Y-60591756D01*
X104470135Y-60658023D01*
X104745017Y-60670910D01*
X105017133Y-60629922D01*
X105276023Y-60536636D01*
X105391980Y-60474656D01*
X105458960Y-60234565D01*
X104673000Y-59448605D01*
X103887040Y-60234565D01*
X103530000Y-60234565D01*
X103530000Y-60005460D01*
X103707435Y-60054960D01*
X104493395Y-59269000D01*
X104852605Y-59269000D01*
X105638565Y-60054960D01*
X105878656Y-59987980D01*
X105995756Y-59738952D01*
X106062023Y-59471865D01*
X106074910Y-59196983D01*
X106033922Y-58924867D01*
X105940636Y-58665977D01*
X105878656Y-58550020D01*
X105638565Y-58483040D01*
X104852605Y-59269000D01*
X104493395Y-59269000D01*
X103707435Y-58483040D01*
X103530000Y-58532540D01*
X103530000Y-57572912D01*
X103587880Y-57659535D01*
X103782465Y-57854120D01*
X104011273Y-58007005D01*
X104038401Y-58018242D01*
X103954020Y-58063344D01*
X103887040Y-58303435D01*
X104673000Y-59089395D01*
X105458960Y-58303435D01*
X105391980Y-58063344D01*
X105301467Y-58020782D01*
X105334727Y-58007005D01*
X105563535Y-57854120D01*
X105758120Y-57659535D01*
X105911005Y-57430727D01*
X106016314Y-57176490D01*
X106070000Y-56906592D01*
X106070000Y-56740802D01*
X107497700Y-58168502D01*
X107497701Y-58997068D01*
X107494024Y-59034400D01*
X107497701Y-59071733D01*
X107507090Y-59167054D01*
X107508698Y-59183385D01*
X107552154Y-59326646D01*
X107622726Y-59458676D01*
X107654733Y-59497676D01*
X107717700Y-59574401D01*
X107746698Y-59598199D01*
X108118796Y-59970297D01*
X108142599Y-59999301D01*
X108258324Y-60094274D01*
X108390353Y-60164846D01*
X108533614Y-60208303D01*
X108645267Y-60219300D01*
X108645276Y-60219300D01*
X108682599Y-60222976D01*
X108719922Y-60219300D01*
X111814978Y-60219300D01*
X111852300Y-60222976D01*
X111889622Y-60219300D01*
X111889633Y-60219300D01*
X112001286Y-60208303D01*
X112144547Y-60164846D01*
X112276576Y-60094274D01*
X112392301Y-59999301D01*
X112416104Y-59970298D01*
X114201403Y-58185000D01*
X114263539Y-58185000D01*
X114463498Y-58145226D01*
X114651856Y-58067205D01*
X114821374Y-57953937D01*
X114965537Y-57809774D01*
X115078805Y-57640256D01*
X115156826Y-57451898D01*
X115196600Y-57251939D01*
X115196600Y-57048061D01*
X115156826Y-56848102D01*
X115078805Y-56659744D01*
X114965537Y-56490226D01*
X114821374Y-56346063D01*
X114651856Y-56232795D01*
X114463498Y-56154774D01*
X114263539Y-56115000D01*
X114059661Y-56115000D01*
X113859702Y-56154774D01*
X113671344Y-56232795D01*
X113501826Y-56346063D01*
X113357663Y-56490226D01*
X113244395Y-56659744D01*
X113166374Y-56848102D01*
X113126600Y-57048061D01*
X113126600Y-57110197D01*
X111537499Y-58699300D01*
X110092501Y-58699300D01*
X117430745Y-51361057D01*
X117521898Y-51342926D01*
X117710256Y-51264905D01*
X117879774Y-51151637D01*
X118023937Y-51007474D01*
X118137205Y-50837956D01*
X118215226Y-50649598D01*
X118255000Y-50449639D01*
X118255000Y-50245761D01*
X118215226Y-50045802D01*
X118137205Y-49857444D01*
X118023937Y-49687926D01*
X117879774Y-49543763D01*
X117710256Y-49430495D01*
X117521898Y-49352474D01*
X117321939Y-49312700D01*
X117118061Y-49312700D01*
X116918102Y-49352474D01*
X116729744Y-49430495D01*
X116560226Y-49543763D01*
X116416063Y-49687926D01*
X116302795Y-49857444D01*
X116224774Y-50045802D01*
X116185000Y-50245761D01*
X116185000Y-50449639D01*
X116186254Y-50455944D01*
X108990593Y-57651606D01*
X108963246Y-57561453D01*
X108892674Y-57429424D01*
X108797701Y-57313699D01*
X108768704Y-57289902D01*
X106039372Y-54560571D01*
X106070000Y-54406592D01*
X106070000Y-54131408D01*
X106016314Y-53861510D01*
X105911005Y-53607273D01*
X105758120Y-53378465D01*
X105563535Y-53183880D01*
X105334727Y-53030995D01*
X105305769Y-53019000D01*
X105334727Y-53007005D01*
X105563535Y-52854120D01*
X105758120Y-52659535D01*
X105911005Y-52430727D01*
X106016314Y-52176490D01*
X106070000Y-51906592D01*
X106070000Y-51631408D01*
X106016314Y-51361510D01*
X105911005Y-51107273D01*
X105758120Y-50878465D01*
X105563535Y-50683880D01*
X105334727Y-50530995D01*
X105080490Y-50425686D01*
X104810592Y-50372000D01*
X104535408Y-50372000D01*
X104265510Y-50425686D01*
X104011273Y-50530995D01*
X103782465Y-50683880D01*
X103587880Y-50878465D01*
X103530000Y-50965088D01*
X103530000Y-47879000D01*
X127130136Y-47879000D01*
X127504161Y-62840000D01*
G37*
%TD.AperFunction*%
%TD*%
M02*
