%TF.GenerationSoftware,KiCad,Pcbnew,(5.1.10)-1*%
%TF.CreationDate,2021-09-03T08:50:30-07:00*%
%TF.ProjectId,Max 485 transmitter,4d617820-3438-4352-9074-72616e736d69,rev?*%
%TF.SameCoordinates,Original*%
%TF.FileFunction,Soldermask,Top*%
%TF.FilePolarity,Negative*%
%FSLAX46Y46*%
G04 Gerber Fmt 4.6, Leading zero omitted, Abs format (unit mm)*
G04 Created by KiCad (PCBNEW (5.1.10)-1) date 2021-09-03 08:50:30*
%MOMM*%
%LPD*%
G01*
G04 APERTURE LIST*
%ADD10C,1.524000*%
%ADD11R,0.850000X3.430000*%
%ADD12R,0.850000X3.430001*%
%ADD13R,1.550000X2.200000*%
%ADD14R,2.200000X1.550000*%
%ADD15R,1.500000X0.650000*%
%ADD16R,1.550000X0.700000*%
%ADD17R,0.800000X0.800000*%
%ADD18R,1.200000X0.900000*%
G04 APERTURE END LIST*
D10*
%TO.C,Converter101*%
X104673000Y-51769000D03*
X104673000Y-54269000D03*
X104673000Y-56769000D03*
X104673000Y-59269000D03*
X144673000Y-50269000D03*
X144673000Y-55269000D03*
X144673000Y-60269000D03*
%TD*%
D11*
%TO.C,F101*%
X137193000Y-49781500D03*
D12*
X132593000Y-49781500D03*
%TD*%
D13*
%TO.C,D103*%
X130810000Y-57393400D03*
X130810000Y-61493400D03*
%TD*%
D14*
%TO.C,D104*%
X138441000Y-57708800D03*
X134341000Y-57708800D03*
%TD*%
%TO.C,D105*%
X134366000Y-61341000D03*
X138466000Y-61341000D03*
%TD*%
%TO.C,R9*%
G36*
G01*
X141765000Y-50100900D02*
X141395000Y-50100900D01*
G75*
G02*
X141260000Y-49965900I0J135000D01*
G01*
X141260000Y-49695900D01*
G75*
G02*
X141395000Y-49560900I135000J0D01*
G01*
X141765000Y-49560900D01*
G75*
G02*
X141900000Y-49695900I0J-135000D01*
G01*
X141900000Y-49965900D01*
G75*
G02*
X141765000Y-50100900I-135000J0D01*
G01*
G37*
G36*
G01*
X141765000Y-51120900D02*
X141395000Y-51120900D01*
G75*
G02*
X141260000Y-50985900I0J135000D01*
G01*
X141260000Y-50715900D01*
G75*
G02*
X141395000Y-50580900I135000J0D01*
G01*
X141765000Y-50580900D01*
G75*
G02*
X141900000Y-50715900I0J-135000D01*
G01*
X141900000Y-50985900D01*
G75*
G02*
X141765000Y-51120900I-135000J0D01*
G01*
G37*
%TD*%
%TO.C,R8*%
G36*
G01*
X118985000Y-50350000D02*
X118985000Y-49980000D01*
G75*
G02*
X119120000Y-49845000I135000J0D01*
G01*
X119390000Y-49845000D01*
G75*
G02*
X119525000Y-49980000I0J-135000D01*
G01*
X119525000Y-50350000D01*
G75*
G02*
X119390000Y-50485000I-135000J0D01*
G01*
X119120000Y-50485000D01*
G75*
G02*
X118985000Y-50350000I0J135000D01*
G01*
G37*
G36*
G01*
X117965000Y-50350000D02*
X117965000Y-49980000D01*
G75*
G02*
X118100000Y-49845000I135000J0D01*
G01*
X118370000Y-49845000D01*
G75*
G02*
X118505000Y-49980000I0J-135000D01*
G01*
X118505000Y-50350000D01*
G75*
G02*
X118370000Y-50485000I-135000J0D01*
G01*
X118100000Y-50485000D01*
G75*
G02*
X117965000Y-50350000I0J135000D01*
G01*
G37*
%TD*%
%TO.C,R7*%
G36*
G01*
X115935000Y-50350000D02*
X115935000Y-49980000D01*
G75*
G02*
X116070000Y-49845000I135000J0D01*
G01*
X116340000Y-49845000D01*
G75*
G02*
X116475000Y-49980000I0J-135000D01*
G01*
X116475000Y-50350000D01*
G75*
G02*
X116340000Y-50485000I-135000J0D01*
G01*
X116070000Y-50485000D01*
G75*
G02*
X115935000Y-50350000I0J135000D01*
G01*
G37*
G36*
G01*
X114915000Y-50350000D02*
X114915000Y-49980000D01*
G75*
G02*
X115050000Y-49845000I135000J0D01*
G01*
X115320000Y-49845000D01*
G75*
G02*
X115455000Y-49980000I0J-135000D01*
G01*
X115455000Y-50350000D01*
G75*
G02*
X115320000Y-50485000I-135000J0D01*
G01*
X115050000Y-50485000D01*
G75*
G02*
X114915000Y-50350000I0J135000D01*
G01*
G37*
%TD*%
%TO.C,R5*%
G36*
G01*
X112580000Y-50435000D02*
X112210000Y-50435000D01*
G75*
G02*
X112075000Y-50300000I0J135000D01*
G01*
X112075000Y-50030000D01*
G75*
G02*
X112210000Y-49895000I135000J0D01*
G01*
X112580000Y-49895000D01*
G75*
G02*
X112715000Y-50030000I0J-135000D01*
G01*
X112715000Y-50300000D01*
G75*
G02*
X112580000Y-50435000I-135000J0D01*
G01*
G37*
G36*
G01*
X112580000Y-51455000D02*
X112210000Y-51455000D01*
G75*
G02*
X112075000Y-51320000I0J135000D01*
G01*
X112075000Y-51050000D01*
G75*
G02*
X112210000Y-50915000I135000J0D01*
G01*
X112580000Y-50915000D01*
G75*
G02*
X112715000Y-51050000I0J-135000D01*
G01*
X112715000Y-51320000D01*
G75*
G02*
X112580000Y-51455000I-135000J0D01*
G01*
G37*
%TD*%
%TO.C,R4*%
G36*
G01*
X109670000Y-50915000D02*
X110040000Y-50915000D01*
G75*
G02*
X110175000Y-51050000I0J-135000D01*
G01*
X110175000Y-51320000D01*
G75*
G02*
X110040000Y-51455000I-135000J0D01*
G01*
X109670000Y-51455000D01*
G75*
G02*
X109535000Y-51320000I0J135000D01*
G01*
X109535000Y-51050000D01*
G75*
G02*
X109670000Y-50915000I135000J0D01*
G01*
G37*
G36*
G01*
X109670000Y-49895000D02*
X110040000Y-49895000D01*
G75*
G02*
X110175000Y-50030000I0J-135000D01*
G01*
X110175000Y-50300000D01*
G75*
G02*
X110040000Y-50435000I-135000J0D01*
G01*
X109670000Y-50435000D01*
G75*
G02*
X109535000Y-50300000I0J135000D01*
G01*
X109535000Y-50030000D01*
G75*
G02*
X109670000Y-49895000I135000J0D01*
G01*
G37*
%TD*%
%TO.C,R3*%
G36*
G01*
X107130000Y-50915000D02*
X107500000Y-50915000D01*
G75*
G02*
X107635000Y-51050000I0J-135000D01*
G01*
X107635000Y-51320000D01*
G75*
G02*
X107500000Y-51455000I-135000J0D01*
G01*
X107130000Y-51455000D01*
G75*
G02*
X106995000Y-51320000I0J135000D01*
G01*
X106995000Y-51050000D01*
G75*
G02*
X107130000Y-50915000I135000J0D01*
G01*
G37*
G36*
G01*
X107130000Y-49895000D02*
X107500000Y-49895000D01*
G75*
G02*
X107635000Y-50030000I0J-135000D01*
G01*
X107635000Y-50300000D01*
G75*
G02*
X107500000Y-50435000I-135000J0D01*
G01*
X107130000Y-50435000D01*
G75*
G02*
X106995000Y-50300000I0J135000D01*
G01*
X106995000Y-50030000D01*
G75*
G02*
X107130000Y-49895000I135000J0D01*
G01*
G37*
%TD*%
%TO.C,R2*%
G36*
G01*
X123505000Y-62045000D02*
X123505000Y-62415000D01*
G75*
G02*
X123370000Y-62550000I-135000J0D01*
G01*
X123100000Y-62550000D01*
G75*
G02*
X122965000Y-62415000I0J135000D01*
G01*
X122965000Y-62045000D01*
G75*
G02*
X123100000Y-61910000I135000J0D01*
G01*
X123370000Y-61910000D01*
G75*
G02*
X123505000Y-62045000I0J-135000D01*
G01*
G37*
G36*
G01*
X124525000Y-62045000D02*
X124525000Y-62415000D01*
G75*
G02*
X124390000Y-62550000I-135000J0D01*
G01*
X124120000Y-62550000D01*
G75*
G02*
X123985000Y-62415000I0J135000D01*
G01*
X123985000Y-62045000D01*
G75*
G02*
X124120000Y-61910000I135000J0D01*
G01*
X124390000Y-61910000D01*
G75*
G02*
X124525000Y-62045000I0J-135000D01*
G01*
G37*
%TD*%
%TO.C,R1*%
G36*
G01*
X128000000Y-54160000D02*
X128000000Y-53790000D01*
G75*
G02*
X128135000Y-53655000I135000J0D01*
G01*
X128405000Y-53655000D01*
G75*
G02*
X128540000Y-53790000I0J-135000D01*
G01*
X128540000Y-54160000D01*
G75*
G02*
X128405000Y-54295000I-135000J0D01*
G01*
X128135000Y-54295000D01*
G75*
G02*
X128000000Y-54160000I0J135000D01*
G01*
G37*
G36*
G01*
X126980000Y-54160000D02*
X126980000Y-53790000D01*
G75*
G02*
X127115000Y-53655000I135000J0D01*
G01*
X127385000Y-53655000D01*
G75*
G02*
X127520000Y-53790000I0J-135000D01*
G01*
X127520000Y-54160000D01*
G75*
G02*
X127385000Y-54295000I-135000J0D01*
G01*
X127115000Y-54295000D01*
G75*
G02*
X126980000Y-54160000I0J135000D01*
G01*
G37*
%TD*%
%TO.C,R0*%
G36*
G01*
X141765000Y-54268400D02*
X141395000Y-54268400D01*
G75*
G02*
X141260000Y-54133400I0J135000D01*
G01*
X141260000Y-53863400D01*
G75*
G02*
X141395000Y-53728400I135000J0D01*
G01*
X141765000Y-53728400D01*
G75*
G02*
X141900000Y-53863400I0J-135000D01*
G01*
X141900000Y-54133400D01*
G75*
G02*
X141765000Y-54268400I-135000J0D01*
G01*
G37*
G36*
G01*
X141765000Y-55288400D02*
X141395000Y-55288400D01*
G75*
G02*
X141260000Y-55153400I0J135000D01*
G01*
X141260000Y-54883400D01*
G75*
G02*
X141395000Y-54748400I135000J0D01*
G01*
X141765000Y-54748400D01*
G75*
G02*
X141900000Y-54883400I0J-135000D01*
G01*
X141900000Y-55153400D01*
G75*
G02*
X141765000Y-55288400I-135000J0D01*
G01*
G37*
%TD*%
D15*
%TO.C,IC102*%
X125255000Y-55880000D03*
X125255000Y-57150000D03*
X125255000Y-58420000D03*
X125255000Y-59690000D03*
X119855000Y-59690000D03*
X119855000Y-58420000D03*
X119855000Y-57150000D03*
X119855000Y-55880000D03*
%TD*%
D16*
%TO.C,IC101*%
X112765000Y-53340000D03*
X112765000Y-54610000D03*
X112765000Y-55880000D03*
X112765000Y-57150000D03*
X112765000Y-58420000D03*
X112765000Y-59690000D03*
X112765000Y-60960000D03*
X107315000Y-60960000D03*
X107315000Y-59690000D03*
X107315000Y-58420000D03*
X107315000Y-57150000D03*
X107315000Y-55880000D03*
X107315000Y-54610000D03*
X107315000Y-53340000D03*
%TD*%
D11*
%TO.C,F102*%
X137215000Y-53975000D03*
X132615000Y-53975000D03*
%TD*%
D17*
%TO.C,D102*%
X123190000Y-49530000D03*
X124690000Y-49530000D03*
%TD*%
%TO.C,D101*%
X123190000Y-52705000D03*
X124690000Y-52705000D03*
%TD*%
D18*
%TO.C,D1*%
X116205000Y-55755000D03*
X116205000Y-59055000D03*
%TD*%
%TO.C,C2*%
G36*
G01*
X116610000Y-61695000D02*
X116610000Y-61495000D01*
G75*
G02*
X116710000Y-61395000I100000J0D01*
G01*
X116970000Y-61395000D01*
G75*
G02*
X117070000Y-61495000I0J-100000D01*
G01*
X117070000Y-61695000D01*
G75*
G02*
X116970000Y-61795000I-100000J0D01*
G01*
X116710000Y-61795000D01*
G75*
G02*
X116610000Y-61695000I0J100000D01*
G01*
G37*
G36*
G01*
X115970000Y-61695000D02*
X115970000Y-61495000D01*
G75*
G02*
X116070000Y-61395000I100000J0D01*
G01*
X116330000Y-61395000D01*
G75*
G02*
X116430000Y-61495000I0J-100000D01*
G01*
X116430000Y-61695000D01*
G75*
G02*
X116330000Y-61795000I-100000J0D01*
G01*
X116070000Y-61795000D01*
G75*
G02*
X115970000Y-61695000I0J100000D01*
G01*
G37*
%TD*%
%TO.C,C1*%
G36*
G01*
X118520000Y-53440000D02*
X118520000Y-53240000D01*
G75*
G02*
X118620000Y-53140000I100000J0D01*
G01*
X118880000Y-53140000D01*
G75*
G02*
X118980000Y-53240000I0J-100000D01*
G01*
X118980000Y-53440000D01*
G75*
G02*
X118880000Y-53540000I-100000J0D01*
G01*
X118620000Y-53540000D01*
G75*
G02*
X118520000Y-53440000I0J100000D01*
G01*
G37*
G36*
G01*
X117880000Y-53440000D02*
X117880000Y-53240000D01*
G75*
G02*
X117980000Y-53140000I100000J0D01*
G01*
X118240000Y-53140000D01*
G75*
G02*
X118340000Y-53240000I0J-100000D01*
G01*
X118340000Y-53440000D01*
G75*
G02*
X118240000Y-53540000I-100000J0D01*
G01*
X117980000Y-53540000D01*
G75*
G02*
X117880000Y-53440000I0J100000D01*
G01*
G37*
%TD*%
M02*
