%TF.GenerationSoftware,KiCad,Pcbnew,(5.1.10)-1*%
%TF.CreationDate,2021-09-02T15:22:23-07:00*%
%TF.ProjectId,Max 485 transmitter,4d617820-3438-4352-9074-72616e736d69,rev?*%
%TF.SameCoordinates,Original*%
%TF.FileFunction,Copper,L2,Bot*%
%TF.FilePolarity,Positive*%
%FSLAX46Y46*%
G04 Gerber Fmt 4.6, Leading zero omitted, Abs format (unit mm)*
G04 Created by KiCad (PCBNEW (5.1.10)-1) date 2021-09-02 15:22:23*
%MOMM*%
%LPD*%
G01*
G04 APERTURE LIST*
%TA.AperFunction,ComponentPad*%
%ADD10O,1.700000X1.700000*%
%TD*%
%TA.AperFunction,ComponentPad*%
%ADD11R,1.700000X1.700000*%
%TD*%
%TA.AperFunction,ViaPad*%
%ADD12C,0.800000*%
%TD*%
%TA.AperFunction,Conductor*%
%ADD13C,0.250000*%
%TD*%
%TA.AperFunction,Conductor*%
%ADD14C,0.254000*%
%TD*%
%TA.AperFunction,Conductor*%
%ADD15C,0.100000*%
%TD*%
G04 APERTURE END LIST*
D10*
%TO.P,J102,3*%
%TO.N,A*%
X140741000Y-52476400D03*
%TO.P,J102,2*%
%TO.N,B*%
X140741000Y-55016400D03*
D11*
%TO.P,J102,1*%
%TO.N,Comm*%
X140741000Y-57556400D03*
%TD*%
D10*
%TO.P,J101,4*%
%TO.N,GND*%
X107417000Y-58902600D03*
%TO.P,J101,3*%
%TO.N,RX*%
X107417000Y-56362600D03*
%TO.P,J101,2*%
%TO.N,TX*%
X107417000Y-53822600D03*
D11*
%TO.P,J101,1*%
%TO.N,3v3*%
X107417000Y-51282600D03*
%TD*%
D12*
%TO.N,GND*%
X123064000Y-51794680D03*
X108718910Y-61379810D03*
X120563640Y-62230000D03*
X124352770Y-61040730D03*
X123201760Y-56841060D03*
%TO.N,3v3*%
X119644600Y-53893300D03*
X123754600Y-55272400D03*
%TO.N,Net-(C2-Pad1)*%
X115008100Y-52255800D03*
X118616600Y-55683700D03*
%TO.N,TX*%
X112705600Y-53490600D03*
%TO.N,Net-(IC101-Pad6)*%
X118150800Y-53886100D03*
X111866000Y-60960000D03*
%TD*%
D13*
%TO.N,3v3*%
X119644600Y-53893300D02*
X121023700Y-55272400D01*
X121023700Y-55272400D02*
X123754600Y-55272400D01*
X108592300Y-51282600D02*
X117278800Y-51282600D01*
X117278800Y-51282600D02*
X119644600Y-53648400D01*
X119644600Y-53648400D02*
X119644600Y-53893300D01*
X107417000Y-51282600D02*
X108592300Y-51282600D01*
%TO.N,Net-(C2-Pad1)*%
X115008100Y-52255800D02*
X115008100Y-52255900D01*
X115008100Y-52255900D02*
X117587700Y-52255900D01*
X117587700Y-52255900D02*
X118918100Y-53586300D01*
X118918100Y-53586300D02*
X118918100Y-55382200D01*
X118918100Y-55382200D02*
X118616600Y-55683700D01*
%TO.N,TX*%
X107417000Y-53822600D02*
X112373600Y-53822600D01*
X112373600Y-53822600D02*
X112705600Y-53490600D01*
%TO.N,Net-(IC101-Pad6)*%
X111866000Y-60960000D02*
X111866000Y-60170900D01*
X111866000Y-60170900D02*
X118150800Y-53886100D01*
%TD*%
D14*
%TO.N,GND*%
X127411279Y-62840000D02*
X106070000Y-62840000D01*
X106070000Y-59511305D01*
X106145359Y-59669520D01*
X106319412Y-59902869D01*
X106535645Y-60097778D01*
X106785748Y-60246757D01*
X107060109Y-60344081D01*
X107290000Y-60223414D01*
X107290000Y-59029600D01*
X107544000Y-59029600D01*
X107544000Y-60223414D01*
X107773891Y-60344081D01*
X108048252Y-60246757D01*
X108298355Y-60097778D01*
X108514588Y-59902869D01*
X108688641Y-59669520D01*
X108813825Y-59406699D01*
X108858476Y-59259490D01*
X108737155Y-59029600D01*
X107544000Y-59029600D01*
X107290000Y-59029600D01*
X107270000Y-59029600D01*
X107270000Y-58775600D01*
X107290000Y-58775600D01*
X107290000Y-58755600D01*
X107544000Y-58755600D01*
X107544000Y-58775600D01*
X108737155Y-58775600D01*
X108858476Y-58545710D01*
X108813825Y-58398501D01*
X108688641Y-58135680D01*
X108514588Y-57902331D01*
X108298355Y-57707422D01*
X108181466Y-57637795D01*
X108363632Y-57516075D01*
X108570475Y-57309232D01*
X108732990Y-57066011D01*
X108844932Y-56795758D01*
X108902000Y-56508860D01*
X108902000Y-56216340D01*
X108844932Y-55929442D01*
X108732990Y-55659189D01*
X108570475Y-55415968D01*
X108363632Y-55209125D01*
X108189240Y-55092600D01*
X108363632Y-54976075D01*
X108570475Y-54769232D01*
X108695178Y-54582600D01*
X112336278Y-54582600D01*
X112373600Y-54586276D01*
X112410922Y-54582600D01*
X112410933Y-54582600D01*
X112522586Y-54571603D01*
X112665847Y-54528146D01*
X112670610Y-54525600D01*
X112807539Y-54525600D01*
X113007498Y-54485826D01*
X113195856Y-54407805D01*
X113365374Y-54294537D01*
X113509537Y-54150374D01*
X113622805Y-53980856D01*
X113700826Y-53792498D01*
X113740600Y-53592539D01*
X113740600Y-53388661D01*
X113700826Y-53188702D01*
X113622805Y-53000344D01*
X113509537Y-52830826D01*
X113365374Y-52686663D01*
X113195856Y-52573395D01*
X113007498Y-52495374D01*
X112807539Y-52455600D01*
X112603661Y-52455600D01*
X112403702Y-52495374D01*
X112215344Y-52573395D01*
X112045826Y-52686663D01*
X111901663Y-52830826D01*
X111788395Y-53000344D01*
X111762608Y-53062600D01*
X108695178Y-53062600D01*
X108570475Y-52875968D01*
X108438620Y-52744113D01*
X108511180Y-52722102D01*
X108621494Y-52663137D01*
X108718185Y-52583785D01*
X108797537Y-52487094D01*
X108856502Y-52376780D01*
X108892812Y-52257082D01*
X108905072Y-52132600D01*
X108905072Y-52042600D01*
X113995231Y-52042600D01*
X113973100Y-52153861D01*
X113973100Y-52357739D01*
X114012874Y-52557698D01*
X114090895Y-52746056D01*
X114204163Y-52915574D01*
X114348326Y-53059737D01*
X114517844Y-53173005D01*
X114706202Y-53251026D01*
X114906161Y-53290800D01*
X115110039Y-53290800D01*
X115309998Y-53251026D01*
X115498356Y-53173005D01*
X115667874Y-53059737D01*
X115711711Y-53015900D01*
X117272899Y-53015900D01*
X117415094Y-53158095D01*
X117346863Y-53226326D01*
X117233595Y-53395844D01*
X117155574Y-53584202D01*
X117115800Y-53784161D01*
X117115800Y-53846297D01*
X111354998Y-59607101D01*
X111326000Y-59630899D01*
X111302202Y-59659897D01*
X111302201Y-59659898D01*
X111231026Y-59746624D01*
X111160454Y-59878654D01*
X111153109Y-59902869D01*
X111116997Y-60021914D01*
X111106000Y-60133567D01*
X111106000Y-60133578D01*
X111102324Y-60170900D01*
X111106000Y-60208222D01*
X111106000Y-60256289D01*
X111062063Y-60300226D01*
X110948795Y-60469744D01*
X110870774Y-60658102D01*
X110831000Y-60858061D01*
X110831000Y-61061939D01*
X110870774Y-61261898D01*
X110948795Y-61450256D01*
X111062063Y-61619774D01*
X111206226Y-61763937D01*
X111375744Y-61877205D01*
X111564102Y-61955226D01*
X111764061Y-61995000D01*
X111967939Y-61995000D01*
X112167898Y-61955226D01*
X112356256Y-61877205D01*
X112525774Y-61763937D01*
X112669937Y-61619774D01*
X112783205Y-61450256D01*
X112861226Y-61261898D01*
X112901000Y-61061939D01*
X112901000Y-60858061D01*
X112861226Y-60658102D01*
X112783205Y-60469744D01*
X112726629Y-60385072D01*
X117594427Y-55517276D01*
X117581600Y-55581761D01*
X117581600Y-55785639D01*
X117621374Y-55985598D01*
X117699395Y-56173956D01*
X117812663Y-56343474D01*
X117956826Y-56487637D01*
X118126344Y-56600905D01*
X118314702Y-56678926D01*
X118514661Y-56718700D01*
X118718539Y-56718700D01*
X118918498Y-56678926D01*
X119106856Y-56600905D01*
X119276374Y-56487637D01*
X119420537Y-56343474D01*
X119533805Y-56173956D01*
X119611826Y-55985598D01*
X119651600Y-55785639D01*
X119651600Y-55582293D01*
X119667103Y-55531186D01*
X119678100Y-55419533D01*
X119678100Y-55419524D01*
X119681776Y-55382201D01*
X119678100Y-55344878D01*
X119678100Y-55001601D01*
X120459901Y-55783403D01*
X120483699Y-55812401D01*
X120512697Y-55836199D01*
X120599423Y-55907374D01*
X120727711Y-55975946D01*
X120731453Y-55977946D01*
X120874714Y-56021403D01*
X120986367Y-56032400D01*
X120986377Y-56032400D01*
X121023700Y-56036076D01*
X121061023Y-56032400D01*
X123050889Y-56032400D01*
X123094826Y-56076337D01*
X123264344Y-56189605D01*
X123452702Y-56267626D01*
X123652661Y-56307400D01*
X123856539Y-56307400D01*
X124056498Y-56267626D01*
X124244856Y-56189605D01*
X124414374Y-56076337D01*
X124558537Y-55932174D01*
X124671805Y-55762656D01*
X124749826Y-55574298D01*
X124789600Y-55374339D01*
X124789600Y-55170461D01*
X124749826Y-54970502D01*
X124671805Y-54782144D01*
X124558537Y-54612626D01*
X124414374Y-54468463D01*
X124244856Y-54355195D01*
X124056498Y-54277174D01*
X123856539Y-54237400D01*
X123652661Y-54237400D01*
X123452702Y-54277174D01*
X123264344Y-54355195D01*
X123094826Y-54468463D01*
X123050889Y-54512400D01*
X121338502Y-54512400D01*
X120679600Y-53853499D01*
X120679600Y-53791361D01*
X120639826Y-53591402D01*
X120561805Y-53403044D01*
X120448537Y-53233526D01*
X120304374Y-53089363D01*
X120134856Y-52976095D01*
X119985043Y-52914040D01*
X117842604Y-50771603D01*
X117818801Y-50742599D01*
X117703076Y-50647626D01*
X117571047Y-50577054D01*
X117427786Y-50533597D01*
X117316133Y-50522600D01*
X117316122Y-50522600D01*
X117278800Y-50518924D01*
X117241478Y-50522600D01*
X108905072Y-50522600D01*
X108905072Y-50432600D01*
X108892812Y-50308118D01*
X108856502Y-50188420D01*
X108797537Y-50078106D01*
X108718185Y-49981415D01*
X108621494Y-49902063D01*
X108511180Y-49843098D01*
X108391482Y-49806788D01*
X108267000Y-49794528D01*
X106567000Y-49794528D01*
X106442518Y-49806788D01*
X106322820Y-49843098D01*
X106212506Y-49902063D01*
X106115815Y-49981415D01*
X106070000Y-50037241D01*
X106070000Y-48285000D01*
X127543885Y-48285000D01*
X127411279Y-62840000D01*
%TA.AperFunction,Conductor*%
D15*
G36*
X127411279Y-62840000D02*
G01*
X106070000Y-62840000D01*
X106070000Y-59511305D01*
X106145359Y-59669520D01*
X106319412Y-59902869D01*
X106535645Y-60097778D01*
X106785748Y-60246757D01*
X107060109Y-60344081D01*
X107290000Y-60223414D01*
X107290000Y-59029600D01*
X107544000Y-59029600D01*
X107544000Y-60223414D01*
X107773891Y-60344081D01*
X108048252Y-60246757D01*
X108298355Y-60097778D01*
X108514588Y-59902869D01*
X108688641Y-59669520D01*
X108813825Y-59406699D01*
X108858476Y-59259490D01*
X108737155Y-59029600D01*
X107544000Y-59029600D01*
X107290000Y-59029600D01*
X107270000Y-59029600D01*
X107270000Y-58775600D01*
X107290000Y-58775600D01*
X107290000Y-58755600D01*
X107544000Y-58755600D01*
X107544000Y-58775600D01*
X108737155Y-58775600D01*
X108858476Y-58545710D01*
X108813825Y-58398501D01*
X108688641Y-58135680D01*
X108514588Y-57902331D01*
X108298355Y-57707422D01*
X108181466Y-57637795D01*
X108363632Y-57516075D01*
X108570475Y-57309232D01*
X108732990Y-57066011D01*
X108844932Y-56795758D01*
X108902000Y-56508860D01*
X108902000Y-56216340D01*
X108844932Y-55929442D01*
X108732990Y-55659189D01*
X108570475Y-55415968D01*
X108363632Y-55209125D01*
X108189240Y-55092600D01*
X108363632Y-54976075D01*
X108570475Y-54769232D01*
X108695178Y-54582600D01*
X112336278Y-54582600D01*
X112373600Y-54586276D01*
X112410922Y-54582600D01*
X112410933Y-54582600D01*
X112522586Y-54571603D01*
X112665847Y-54528146D01*
X112670610Y-54525600D01*
X112807539Y-54525600D01*
X113007498Y-54485826D01*
X113195856Y-54407805D01*
X113365374Y-54294537D01*
X113509537Y-54150374D01*
X113622805Y-53980856D01*
X113700826Y-53792498D01*
X113740600Y-53592539D01*
X113740600Y-53388661D01*
X113700826Y-53188702D01*
X113622805Y-53000344D01*
X113509537Y-52830826D01*
X113365374Y-52686663D01*
X113195856Y-52573395D01*
X113007498Y-52495374D01*
X112807539Y-52455600D01*
X112603661Y-52455600D01*
X112403702Y-52495374D01*
X112215344Y-52573395D01*
X112045826Y-52686663D01*
X111901663Y-52830826D01*
X111788395Y-53000344D01*
X111762608Y-53062600D01*
X108695178Y-53062600D01*
X108570475Y-52875968D01*
X108438620Y-52744113D01*
X108511180Y-52722102D01*
X108621494Y-52663137D01*
X108718185Y-52583785D01*
X108797537Y-52487094D01*
X108856502Y-52376780D01*
X108892812Y-52257082D01*
X108905072Y-52132600D01*
X108905072Y-52042600D01*
X113995231Y-52042600D01*
X113973100Y-52153861D01*
X113973100Y-52357739D01*
X114012874Y-52557698D01*
X114090895Y-52746056D01*
X114204163Y-52915574D01*
X114348326Y-53059737D01*
X114517844Y-53173005D01*
X114706202Y-53251026D01*
X114906161Y-53290800D01*
X115110039Y-53290800D01*
X115309998Y-53251026D01*
X115498356Y-53173005D01*
X115667874Y-53059737D01*
X115711711Y-53015900D01*
X117272899Y-53015900D01*
X117415094Y-53158095D01*
X117346863Y-53226326D01*
X117233595Y-53395844D01*
X117155574Y-53584202D01*
X117115800Y-53784161D01*
X117115800Y-53846297D01*
X111354998Y-59607101D01*
X111326000Y-59630899D01*
X111302202Y-59659897D01*
X111302201Y-59659898D01*
X111231026Y-59746624D01*
X111160454Y-59878654D01*
X111153109Y-59902869D01*
X111116997Y-60021914D01*
X111106000Y-60133567D01*
X111106000Y-60133578D01*
X111102324Y-60170900D01*
X111106000Y-60208222D01*
X111106000Y-60256289D01*
X111062063Y-60300226D01*
X110948795Y-60469744D01*
X110870774Y-60658102D01*
X110831000Y-60858061D01*
X110831000Y-61061939D01*
X110870774Y-61261898D01*
X110948795Y-61450256D01*
X111062063Y-61619774D01*
X111206226Y-61763937D01*
X111375744Y-61877205D01*
X111564102Y-61955226D01*
X111764061Y-61995000D01*
X111967939Y-61995000D01*
X112167898Y-61955226D01*
X112356256Y-61877205D01*
X112525774Y-61763937D01*
X112669937Y-61619774D01*
X112783205Y-61450256D01*
X112861226Y-61261898D01*
X112901000Y-61061939D01*
X112901000Y-60858061D01*
X112861226Y-60658102D01*
X112783205Y-60469744D01*
X112726629Y-60385072D01*
X117594427Y-55517276D01*
X117581600Y-55581761D01*
X117581600Y-55785639D01*
X117621374Y-55985598D01*
X117699395Y-56173956D01*
X117812663Y-56343474D01*
X117956826Y-56487637D01*
X118126344Y-56600905D01*
X118314702Y-56678926D01*
X118514661Y-56718700D01*
X118718539Y-56718700D01*
X118918498Y-56678926D01*
X119106856Y-56600905D01*
X119276374Y-56487637D01*
X119420537Y-56343474D01*
X119533805Y-56173956D01*
X119611826Y-55985598D01*
X119651600Y-55785639D01*
X119651600Y-55582293D01*
X119667103Y-55531186D01*
X119678100Y-55419533D01*
X119678100Y-55419524D01*
X119681776Y-55382201D01*
X119678100Y-55344878D01*
X119678100Y-55001601D01*
X120459901Y-55783403D01*
X120483699Y-55812401D01*
X120512697Y-55836199D01*
X120599423Y-55907374D01*
X120727711Y-55975946D01*
X120731453Y-55977946D01*
X120874714Y-56021403D01*
X120986367Y-56032400D01*
X120986377Y-56032400D01*
X121023700Y-56036076D01*
X121061023Y-56032400D01*
X123050889Y-56032400D01*
X123094826Y-56076337D01*
X123264344Y-56189605D01*
X123452702Y-56267626D01*
X123652661Y-56307400D01*
X123856539Y-56307400D01*
X124056498Y-56267626D01*
X124244856Y-56189605D01*
X124414374Y-56076337D01*
X124558537Y-55932174D01*
X124671805Y-55762656D01*
X124749826Y-55574298D01*
X124789600Y-55374339D01*
X124789600Y-55170461D01*
X124749826Y-54970502D01*
X124671805Y-54782144D01*
X124558537Y-54612626D01*
X124414374Y-54468463D01*
X124244856Y-54355195D01*
X124056498Y-54277174D01*
X123856539Y-54237400D01*
X123652661Y-54237400D01*
X123452702Y-54277174D01*
X123264344Y-54355195D01*
X123094826Y-54468463D01*
X123050889Y-54512400D01*
X121338502Y-54512400D01*
X120679600Y-53853499D01*
X120679600Y-53791361D01*
X120639826Y-53591402D01*
X120561805Y-53403044D01*
X120448537Y-53233526D01*
X120304374Y-53089363D01*
X120134856Y-52976095D01*
X119985043Y-52914040D01*
X117842604Y-50771603D01*
X117818801Y-50742599D01*
X117703076Y-50647626D01*
X117571047Y-50577054D01*
X117427786Y-50533597D01*
X117316133Y-50522600D01*
X117316122Y-50522600D01*
X117278800Y-50518924D01*
X117241478Y-50522600D01*
X108905072Y-50522600D01*
X108905072Y-50432600D01*
X108892812Y-50308118D01*
X108856502Y-50188420D01*
X108797537Y-50078106D01*
X108718185Y-49981415D01*
X108621494Y-49902063D01*
X108511180Y-49843098D01*
X108391482Y-49806788D01*
X108267000Y-49794528D01*
X106567000Y-49794528D01*
X106442518Y-49806788D01*
X106322820Y-49843098D01*
X106212506Y-49902063D01*
X106115815Y-49981415D01*
X106070000Y-50037241D01*
X106070000Y-48285000D01*
X127543885Y-48285000D01*
X127411279Y-62840000D01*
G37*
%TD.AperFunction*%
%TD*%
M02*
