%FSLAX45Y45*%
G04 Gerber Fmt 4.5, Leading zero omitted, Abs format (unit mm)*
G04 Created by KiCad (PCBNEW (5.1.10)-1) date 2021-09-02 15:22:30*
%MOMM*%
%LPD*%
G01*
G04 APERTURE LIST*
%TA.AperFunction,Profile*%
%ADD10C,0.050000*%
%TD*%
%ADD11C,0.200000*%
%ADD12C,0.300000*%
G04 APERTURE END LIST*
D10*
X10541000Y-6350000D02*
X10541000Y-4762500D01*
X14287500Y-6350000D02*
X10541000Y-6350000D01*
X14287500Y-4762500D02*
X14287500Y-6350000D01*
X10541000Y-4762500D02*
X14287500Y-4762500D01*
D11*
D12*
X10824928Y-6818214D02*
X10824928Y-6518214D01*
X10896357Y-6518214D01*
X10939214Y-6532500D01*
X10967786Y-6561071D01*
X10982071Y-6589643D01*
X10996357Y-6646786D01*
X10996357Y-6689643D01*
X10982071Y-6746786D01*
X10967786Y-6775357D01*
X10939214Y-6803929D01*
X10896357Y-6818214D01*
X10824928Y-6818214D01*
X11124928Y-6818214D02*
X11124928Y-6618214D01*
X11124928Y-6675357D02*
X11139214Y-6646786D01*
X11153500Y-6632500D01*
X11182071Y-6618214D01*
X11210643Y-6618214D01*
X11310643Y-6818214D02*
X11310643Y-6618214D01*
X11310643Y-6518214D02*
X11296357Y-6532500D01*
X11310643Y-6546786D01*
X11324928Y-6532500D01*
X11310643Y-6518214D01*
X11310643Y-6546786D01*
X11496357Y-6818214D02*
X11467786Y-6803929D01*
X11453500Y-6775357D01*
X11453500Y-6518214D01*
X11653500Y-6818214D02*
X11624928Y-6803929D01*
X11610643Y-6775357D01*
X11610643Y-6518214D01*
X11996357Y-6818214D02*
X11996357Y-6518214D01*
X12096357Y-6732500D01*
X12196357Y-6518214D01*
X12196357Y-6818214D01*
X12467786Y-6818214D02*
X12467786Y-6661071D01*
X12453500Y-6632500D01*
X12424928Y-6618214D01*
X12367786Y-6618214D01*
X12339214Y-6632500D01*
X12467786Y-6803929D02*
X12439214Y-6818214D01*
X12367786Y-6818214D01*
X12339214Y-6803929D01*
X12324928Y-6775357D01*
X12324928Y-6746786D01*
X12339214Y-6718214D01*
X12367786Y-6703929D01*
X12439214Y-6703929D01*
X12467786Y-6689643D01*
X12610643Y-6618214D02*
X12610643Y-6918214D01*
X12610643Y-6632500D02*
X12639214Y-6618214D01*
X12696357Y-6618214D01*
X12724928Y-6632500D01*
X12739214Y-6646786D01*
X12753500Y-6675357D01*
X12753500Y-6761071D01*
X12739214Y-6789643D01*
X12724928Y-6803929D01*
X12696357Y-6818214D01*
X12639214Y-6818214D01*
X12610643Y-6803929D01*
X12882071Y-6789643D02*
X12896357Y-6803929D01*
X12882071Y-6818214D01*
X12867786Y-6803929D01*
X12882071Y-6789643D01*
X12882071Y-6818214D01*
X12882071Y-6632500D02*
X12896357Y-6646786D01*
X12882071Y-6661071D01*
X12867786Y-6646786D01*
X12882071Y-6632500D01*
X12882071Y-6661071D01*
M02*
